<svg width="17" height="18" viewBox="0 0 17 18" fill="none" xmlns="http://www.w3.org/2000/svg">
<path d="M9.63866 8.38785C9.41793 9.81034 8.46142 10.9631 7.55397 10.9631C6.74461 10.9631 6.32767 10.3744 6.32767 9.44246C6.32767 7.55397 7.60302 5.95978 9.22172 5.95978C9.51604 5.95978 9.78582 6.00884 9.98203 6.05789L9.63866 8.38785ZM11.7234 14.7891C10.7423 15.2796 9.39341 15.5494 8.14259 15.5494C4.48823 15.5494 1.88849 13.244 1.88849 9.12362C1.88849 4.41465 5.15043 1.49608 8.92741 1.49608C12.7289 1.49608 14.7891 3.94866 14.7891 7.16155C14.7891 10.0066 13.4647 11.3555 12.4101 11.3064C11.7234 11.2819 11.5517 10.6197 11.7969 9.17267L12.5327 4.61086C11.9196 4.29203 10.6933 4.02224 9.61414 4.02224C6.08241 4.02224 3.85056 6.72009 3.85056 9.73677C3.85056 11.7479 5.0278 12.9497 6.59746 12.9497C7.92185 12.9497 9.00099 12.2875 9.78582 11.0612H9.83487C9.9575 12.3365 10.7914 12.9497 11.9441 12.9497C14.5929 12.9497 16.604 10.6933 16.604 7.08797C16.604 2.96763 13.5138 0 9.17267 0C3.65435 0 0 4.34108 0 9.34435C0 14.1514 3.58078 17.07 7.65207 17.07C9.41793 17.07 10.6933 16.8493 12.1648 16.1871L11.7234 14.7891Z" fill="#fff"/>
</svg>
