<svg width="441" height="433" viewBox="0 0 441 433" fill="none" xmlns="http://www.w3.org/2000/svg">
<g clip-path="url(#clip0_17_2742)">
<path d="M0 405.914C0 403.325 2.07424 401.176 4.66933 401.166C7.27355 401.148 9.39348 403.261 9.39348 405.868V427.978C9.39348 430.567 7.31924 432.716 4.72415 432.725C2.11993 432.735 0 430.622 0 428.024V405.914Z" fill="#BFA130"/>
<path d="M24.7353 428.673C23.9769 428.947 22.4875 429.322 20.9067 429.322C18.8872 429.322 17.343 428.819 16.2099 427.776C15.15 426.798 14.5469 425.261 14.5469 423.505C14.5652 419.818 17.2425 417.476 21.1899 417.476C22.6611 417.476 23.8124 417.769 24.3607 418.025L23.8855 419.727C23.2276 419.434 22.4326 419.224 21.1717 419.224C18.6223 419.224 16.8313 420.687 16.8313 423.395C16.8313 426.102 18.4943 427.594 20.9798 427.594C21.7747 427.594 22.3413 427.493 22.6245 427.374V424.465H20.5137V422.791H24.7353V428.664V428.673Z" fill="white"/>
<path d="M35.1977 424.941C35.1977 428.023 32.9681 429.405 30.7659 429.405C28.3353 429.405 26.4438 427.786 26.4438 425.087C26.4438 422.389 28.3079 420.641 30.9121 420.641C33.5164 420.641 35.2068 422.398 35.2068 424.95L35.1977 424.941ZM28.6917 425.023C28.6917 426.642 29.5232 427.868 30.839 427.868C32.0818 427.868 32.9498 426.697 32.9498 424.996C32.9498 423.688 32.3468 422.169 30.8573 422.169C29.3679 422.169 28.6917 423.633 28.6917 425.023Z" fill="white"/>
<path d="M36.9888 416.982H39.1727V429.213H36.9888V416.982Z" fill="white"/>
<path d="M49.5074 416.982V426.853C49.5074 427.713 49.544 428.646 49.5805 429.213H47.6525L47.5428 427.886H47.5063C46.9946 428.819 45.9437 429.405 44.7102 429.405C42.6359 429.405 41.0094 427.703 41.0094 425.115C40.9911 422.306 42.8004 420.641 44.8746 420.641C46.0625 420.641 46.9123 421.108 47.3052 421.73H47.3418V416.992H49.5257L49.5074 416.982ZM47.3235 424.319C47.3235 424.145 47.3052 423.925 47.2687 423.752C47.0768 422.947 46.3823 422.27 45.3863 422.27C43.9883 422.27 43.2024 423.477 43.2024 425.023C43.2024 426.569 43.9791 427.694 45.3681 427.694C46.2544 427.694 47.0311 427.109 47.2504 426.194C47.3052 426.002 47.3235 425.801 47.3235 425.572V424.319Z" fill="white"/>
<path d="M55.575 426.898C56.2694 427.292 57.3477 427.639 58.4625 427.639C59.8422 427.639 60.6281 426.999 60.6281 426.057C60.6281 425.179 60.025 424.666 58.5173 424.127C56.5344 423.441 55.2734 422.425 55.2734 420.751C55.2734 418.839 56.8999 417.412 59.5133 417.412C60.8108 417.412 61.7429 417.687 62.3642 417.998L61.8525 419.699C61.4048 419.471 60.5733 419.15 59.4585 419.15C58.0787 419.15 57.4939 419.855 57.4939 420.541C57.4939 421.437 58.1883 421.849 59.7783 422.453C61.8525 423.212 62.8485 424.227 62.8485 425.901C62.8485 427.777 61.3956 429.396 58.3254 429.396C57.0461 429.396 55.7395 429.048 55.0815 428.655L55.575 426.898Z" fill="white"/>
<path d="M72.4519 426.697C72.4519 427.694 72.4885 428.527 72.525 429.213H70.6244L70.5147 427.959H70.4599C70.0853 428.545 69.2355 429.405 67.6729 429.405C66.1104 429.405 64.6758 428.49 64.6758 425.755V420.833H66.8597V425.398C66.8597 426.798 67.3166 427.685 68.477 427.685C69.3634 427.685 69.9299 427.1 70.1401 426.551C70.2315 426.377 70.268 426.139 70.268 425.901V420.843H72.4519V426.715V426.697Z" fill="white"/>
<path d="M74.8094 423.614C74.8094 422.517 74.7729 421.62 74.7363 420.824H76.6552L76.7649 422.114H76.8014C77.4411 421.172 78.4462 420.632 79.762 420.632C81.7449 420.632 83.3988 422.288 83.3988 424.904C83.3988 427.932 81.4342 429.396 79.4605 429.396C78.3822 429.396 77.4776 428.947 77.0299 428.28H76.9933V432.616H74.8094V423.614ZM76.9933 425.7C76.9933 425.91 77.0116 426.093 77.0481 426.286C77.2766 427.145 78.0441 427.767 78.9762 427.767C80.356 427.767 81.1783 426.651 81.1783 424.996C81.1783 423.514 80.4291 422.306 79.031 422.306C78.1264 422.306 77.2949 422.947 77.0664 423.871C77.0299 424.044 76.9933 424.236 76.9933 424.401V425.691V425.7Z" fill="white"/>
<path d="M85.1808 423.614C85.1808 422.517 85.1442 421.62 85.1077 420.824H87.0266L87.1362 422.114H87.1728C87.8124 421.172 88.8175 420.632 90.1334 420.632C92.1162 420.632 93.7701 422.288 93.7701 424.904C93.7701 427.932 91.8055 429.396 89.8318 429.396C88.7536 429.396 87.849 428.947 87.4012 428.28H87.3647V432.616H85.1808V423.614ZM87.3647 425.7C87.3647 425.91 87.3829 426.093 87.4195 426.286C87.6479 427.145 88.4155 427.767 89.3475 427.767C90.7273 427.767 91.5406 426.651 91.5406 424.996C91.5406 423.514 90.8004 422.306 89.3932 422.306C88.4886 422.306 87.6571 422.947 87.4286 423.871C87.3921 424.044 87.3555 424.236 87.3555 424.401V425.691L87.3647 425.7Z" fill="white"/>
<path d="M95.552 416.982H97.7359V429.213H95.552V416.982Z" fill="white"/>
<path d="M101.491 420.824L103.036 425.316C103.209 425.828 103.41 426.469 103.529 426.935H103.584C103.712 426.469 103.867 425.837 104.041 425.298L105.384 420.824H107.705L105.539 426.542C104.352 429.679 103.557 431.07 102.542 431.93C101.674 432.652 100.788 432.927 100.258 433L99.7644 431.225C100.139 431.143 100.578 430.951 101.025 430.64C101.455 430.384 101.93 429.881 102.232 429.313C102.323 429.158 102.36 429.039 102.36 428.938C102.36 428.856 102.341 428.728 102.25 428.527L99.0791 420.824H101.491Z" fill="white"/>
<path d="M322.01 405.914C322.01 403.325 324.084 401.176 326.679 401.166C329.283 401.148 331.403 403.261 331.403 405.868V427.978C331.403 430.567 329.329 432.716 326.734 432.725C324.13 432.744 322.01 430.631 322.01 428.024V405.914Z" fill="#BCBCBC"/>
<path d="M346.754 428.673C345.996 428.947 344.507 429.322 342.926 429.322C340.906 429.322 339.362 428.819 338.229 427.776C337.169 426.798 336.566 425.261 336.566 423.505C336.584 419.818 339.262 417.476 343.209 417.476C344.68 417.476 345.831 417.769 346.38 418.025L345.905 419.727C345.247 419.434 344.452 419.224 343.191 419.224C340.641 419.224 338.85 420.687 338.85 423.395C338.85 426.102 340.513 427.594 342.999 427.594C343.794 427.594 344.36 427.493 344.644 427.374V424.465H342.533V422.791H346.754V428.664V428.673Z" fill="white"/>
<path d="M357.217 424.941C357.217 428.023 354.987 429.405 352.785 429.405C350.355 429.405 348.463 427.786 348.463 425.087C348.463 422.389 350.327 420.641 352.931 420.641C355.536 420.641 357.226 422.398 357.226 424.95L357.217 424.941ZM350.711 425.023C350.711 426.642 351.543 427.868 352.858 427.868C354.101 427.868 354.969 426.697 354.969 424.996C354.969 423.688 354.366 422.169 352.877 422.169C351.387 422.169 350.711 423.633 350.711 425.023Z" fill="white"/>
<path d="M359.008 416.982H361.192V429.213H359.008V416.982Z" fill="white"/>
<path d="M371.517 416.982V426.853C371.517 427.713 371.554 428.646 371.591 429.213H369.662L369.553 427.886H369.516C369.005 428.819 367.954 429.405 366.72 429.405C364.646 429.405 363.019 427.703 363.019 425.115C363.001 422.306 364.81 420.641 366.885 420.641C368.073 420.641 368.922 421.108 369.315 421.73H369.352V416.992H371.536L371.517 416.982ZM369.334 424.319C369.334 424.145 369.315 423.925 369.279 423.752C369.087 422.947 368.392 422.27 367.396 422.27C365.998 422.27 365.212 423.477 365.212 425.023C365.212 426.569 365.989 427.694 367.378 427.694C368.264 427.694 369.041 427.109 369.26 426.194C369.315 426.002 369.334 425.801 369.334 425.572V424.319Z" fill="white"/>
<path d="M377.621 417.76C378.599 417.623 379.805 417.522 381.094 417.522C383.323 417.522 384.849 417.97 385.955 418.867C387.124 419.782 387.837 421.172 387.837 423.139C387.837 425.224 387.106 426.752 385.973 427.758C384.785 428.81 382.885 429.341 380.564 429.341C379.303 429.341 378.343 429.268 377.621 429.185V417.769V417.76ZM379.805 427.612C380.107 427.667 380.564 427.667 381.011 427.667C383.844 427.685 385.535 426.148 385.535 423.203C385.553 420.651 384.027 419.178 381.295 419.178C380.6 419.178 380.125 419.233 379.805 419.297V427.612Z" fill="white"/>
<path d="M391.181 425.609C391.236 427.127 392.442 427.777 393.84 427.777C394.855 427.777 395.558 427.621 396.234 427.402L396.554 428.847C395.814 429.158 394.782 429.377 393.539 429.377C390.734 429.377 389.089 427.703 389.089 425.142C389.089 422.819 390.542 420.632 393.31 420.632C396.079 420.632 397.029 422.873 397.029 424.712C397.029 425.106 396.993 425.417 396.956 425.609H391.181ZM394.973 424.127C394.992 423.349 394.635 422.078 393.183 422.078C391.839 422.078 391.264 423.267 391.181 424.127H394.973Z" fill="white"/>
<path d="M398.793 423.322C398.793 422.361 398.757 421.547 398.72 420.824H400.584L400.694 422.068H400.749C401.16 421.419 401.936 420.641 403.408 420.641C404.541 420.641 405.427 421.264 405.802 422.187H405.838C406.14 421.721 406.496 421.382 406.88 421.135C407.373 420.806 407.931 420.632 408.653 420.632C410.069 420.632 411.522 421.575 411.522 424.264V429.204H409.393V424.575C409.393 423.175 408.899 422.352 407.848 422.352C407.108 422.352 406.551 422.873 406.322 423.468C406.249 423.66 406.213 423.935 406.213 424.172V429.204H404.084V424.346C404.084 423.175 403.609 422.352 402.594 422.352C401.781 422.352 401.233 422.974 401.013 423.541C400.94 423.761 400.904 424.008 400.904 424.246V429.204H398.775V423.313L398.793 423.322Z" fill="white"/>
<path d="M420.523 427.191C420.523 427.95 420.559 428.691 420.669 429.203H418.704L418.549 428.27H418.494C417.982 428.92 417.078 429.386 415.945 429.386C414.208 429.386 413.231 428.161 413.231 426.889C413.231 424.785 415.159 423.706 418.357 423.724V423.587C418.357 423.038 418.128 422.123 416.602 422.123C415.753 422.123 414.866 422.379 414.282 422.745L413.852 421.364C414.492 420.989 415.606 420.623 416.968 420.623C419.737 420.623 420.532 422.324 420.532 424.172V427.182L420.523 427.191ZM418.393 425.105C416.849 425.087 415.378 425.398 415.378 426.67C415.378 427.493 415.926 427.877 416.621 427.877C417.507 427.877 418.128 427.328 418.339 426.724C418.393 426.569 418.393 426.413 418.393 426.258V425.105Z" fill="white"/>
<path d="M422.834 423.322C422.834 422.361 422.798 421.547 422.761 420.824H424.662L424.771 422.078H424.826C425.219 421.428 426.151 420.632 427.595 420.632C429.103 420.632 430.665 421.575 430.665 424.227V429.204H428.481V424.465C428.481 423.258 428.024 422.343 426.837 422.343C425.969 422.343 425.365 422.947 425.137 423.587C425.064 423.761 425.027 424.017 425.027 424.255V429.194H422.843V423.303L422.834 423.322Z" fill="white"/>
<path d="M440.936 416.982V426.853C440.936 427.713 440.972 428.646 441.009 429.213H439.081L438.971 427.886H438.935C438.423 428.819 437.372 429.405 436.139 429.405C434.064 429.405 432.438 427.703 432.438 425.115C432.42 422.306 434.229 420.641 436.303 420.641C437.491 420.641 438.341 421.108 438.734 421.73H438.77V416.992H440.954L440.936 416.982ZM438.752 424.319C438.752 424.145 438.734 423.925 438.697 423.752C438.505 422.947 437.811 422.27 436.815 422.27C435.417 422.27 434.631 423.477 434.631 425.023C434.631 426.569 435.408 427.694 436.797 427.694C437.683 427.694 438.46 427.109 438.679 426.194C438.734 426.002 438.752 425.801 438.752 425.572V424.319Z" fill="white"/>
<path d="M56.5253 318.226C58.1609 318.226 59.1021 319.214 59.1021 320.421C59.1021 321.885 58.3802 322.424 56.8999 322.937C56.3699 323.11 55.7486 323.193 55.7486 323.431V323.485H58.5447C58.8553 323.485 58.965 323.586 58.965 323.897V324.693C58.965 324.986 58.8553 325.086 58.5447 325.086H54.1586C53.8479 325.086 53.7383 324.986 53.7383 324.693V323.934C53.7383 322.644 54.7251 322.205 55.6298 321.821C56.4065 321.5 57.1283 321.226 57.1283 320.503C57.1283 320.147 56.8816 319.881 56.4613 319.881C56.041 319.881 55.8308 320.064 55.6115 320.503C55.4744 320.796 55.3739 320.851 55.0815 320.759L54.049 320.394C53.7657 320.293 53.6743 320.156 53.7931 319.881C54.1952 318.893 55.0084 318.226 56.5161 318.226H56.5253Z" fill="white"/>
<path d="M62.5654 318.226C64.329 318.226 65.3433 319.186 65.3433 320.686V322.763C65.3433 324.29 64.329 325.233 62.5654 325.233C60.8019 325.233 59.7876 324.281 59.7876 322.763V320.686C59.7876 319.177 60.8019 318.226 62.5654 318.226ZM62.5654 319.881C62.0355 319.881 61.7156 320.147 61.7156 320.613V322.836C61.7156 323.312 62.0355 323.577 62.5654 323.577C63.0954 323.577 63.4152 323.312 63.4152 322.836V320.613C63.4152 320.147 63.0954 319.881 62.5654 319.881Z" fill="white"/>
<path d="M69.5101 318.765V324.693C69.5101 324.986 69.4095 325.086 69.0989 325.086H67.9932C67.6825 325.086 67.5729 324.986 67.5729 324.693V320.741L66.9241 321.098C66.6043 321.272 66.4398 321.198 66.2936 320.933L65.8367 320.128C65.6905 319.863 65.7728 319.744 66.0286 319.579L67.9292 318.518C68.1577 318.381 68.2582 318.354 68.5141 318.354H69.0989C69.4095 318.354 69.5101 318.454 69.5101 318.756V318.765Z" fill="white"/>
<path d="M74.9376 321.564C75.6046 321.903 75.9062 322.47 75.9062 323.156C75.9062 324.464 75.0564 325.233 73.2745 325.233C71.6937 325.233 70.7982 324.638 70.3962 323.577C70.2865 323.302 70.3688 323.156 70.6612 323.065L71.6206 322.735C71.913 322.635 72.0318 322.699 72.1506 322.991C72.3059 323.394 72.5892 323.604 73.1375 323.604C73.64 323.604 73.8959 323.421 73.8959 323.046C73.8959 322.635 73.6675 322.488 73.2563 322.488H72.6623C72.3516 322.488 72.2511 322.388 72.2511 322.095V321.308C72.2511 321.006 72.3516 320.897 72.6623 320.897H73.0918C73.4664 320.897 73.7588 320.75 73.7588 320.375C73.7588 320 73.5487 319.854 73.0918 319.854C72.5435 319.854 72.3516 320.046 72.178 320.467C72.0684 320.759 71.9404 320.814 71.648 320.723L70.6977 320.394C70.4053 320.302 70.3322 320.156 70.4327 319.881C70.8439 318.82 71.7211 318.226 73.3111 318.226C74.901 318.226 75.7234 319.003 75.7234 320.183C75.7234 320.778 75.4493 321.253 74.965 321.564H74.9376Z" fill="white"/>
<path d="M96.0362 318.226C97.6719 318.226 98.613 319.214 98.613 320.421C98.613 321.885 97.8912 322.424 96.4109 322.937C95.8809 323.11 95.2595 323.193 95.2595 323.431V323.485H98.0557C98.3663 323.485 98.476 323.586 98.476 323.897V324.693C98.476 324.986 98.3663 325.086 98.0557 325.086H93.6696C93.3589 325.086 93.2493 324.986 93.2493 324.693V323.934C93.2493 322.644 94.2361 322.205 95.1408 321.821C95.9175 321.5 96.6393 321.226 96.6393 320.503C96.6393 320.147 96.3926 319.881 95.9723 319.881C95.5519 319.881 95.3418 320.064 95.1225 320.503C94.9854 320.796 94.8849 320.851 94.5925 320.759L93.5599 320.394C93.2767 320.293 93.1853 320.156 93.3041 319.881C93.7061 318.893 94.5194 318.226 96.0271 318.226H96.0362Z" fill="white"/>
<path d="M102.067 318.226C103.831 318.226 104.845 319.186 104.845 320.686V322.763C104.845 324.29 103.831 325.233 102.067 325.233C100.304 325.233 99.2893 324.281 99.2893 322.763V320.686C99.2893 319.177 100.304 318.226 102.067 318.226ZM102.067 319.881C101.537 319.881 101.217 320.147 101.217 320.613V322.836C101.217 323.312 101.537 323.577 102.067 323.577C102.597 323.577 102.917 323.312 102.917 322.836V320.613C102.917 320.147 102.597 319.881 102.067 319.881Z" fill="white"/>
<path d="M109.012 318.765V324.693C109.012 324.986 108.911 325.086 108.601 325.086H107.495C107.184 325.086 107.075 324.986 107.075 324.693V320.741L106.426 321.098C106.106 321.272 105.942 321.198 105.795 320.933L105.338 320.128C105.192 319.863 105.274 319.744 105.53 319.579L107.431 318.518C107.659 318.381 107.76 318.354 108.016 318.354H108.601C108.911 318.354 109.012 318.454 109.012 318.756V318.765Z" fill="white"/>
<path d="M115.847 322.699V323.357C115.847 323.65 115.737 323.76 115.435 323.76H114.942V324.693C114.942 324.986 114.832 325.086 114.531 325.086H113.526C113.215 325.086 113.114 324.986 113.114 324.693V323.76H110.163C109.861 323.76 109.752 323.659 109.752 323.357V322.735C109.752 322.424 109.77 322.306 109.971 322.095L112.932 318.656C113.123 318.436 113.242 318.372 113.562 318.372H114.531C114.832 318.372 114.942 318.473 114.942 318.775V322.306H115.435C115.737 322.306 115.847 322.406 115.847 322.699ZM113.114 320.705L111.753 322.306H113.114V320.705Z" fill="white"/>
<path d="M135.84 318.226C137.476 318.226 138.417 319.214 138.417 320.421C138.417 321.885 137.695 322.424 136.215 322.937C135.685 323.11 135.063 323.193 135.063 323.431V323.485H137.859C138.17 323.485 138.28 323.586 138.28 323.897V324.693C138.28 324.986 138.17 325.086 137.859 325.086H133.473C133.163 325.086 133.053 324.986 133.053 324.693V323.934C133.053 322.644 134.04 322.205 134.944 321.821C135.721 321.5 136.443 321.226 136.443 320.503C136.443 320.147 136.196 319.881 135.776 319.881C135.356 319.881 135.145 320.064 134.926 320.503C134.789 320.796 134.689 320.851 134.396 320.759L133.364 320.394C133.08 320.293 132.989 320.156 133.108 319.881C133.51 318.893 134.323 318.226 135.831 318.226H135.84Z" fill="white"/>
<path d="M141.88 318.226C143.643 318.226 144.658 319.186 144.658 320.686V322.763C144.658 324.29 143.643 325.233 141.88 325.233C140.116 325.233 139.102 324.281 139.102 322.763V320.686C139.102 319.177 140.116 318.226 141.88 318.226ZM141.88 319.881C141.35 319.881 141.03 320.147 141.03 320.613V322.836C141.03 323.312 141.35 323.577 141.88 323.577C142.41 323.577 142.73 323.312 142.73 322.836V320.613C142.73 320.147 142.41 319.881 141.88 319.881Z" fill="white"/>
<path d="M148.825 318.765V324.693C148.825 324.986 148.724 325.086 148.413 325.086H147.308C146.997 325.086 146.887 324.986 146.887 324.693V320.741L146.239 321.098C145.919 321.272 145.754 321.198 145.608 320.933L145.151 320.128C145.005 319.863 145.087 319.744 145.343 319.579L147.244 318.518C147.472 318.381 147.573 318.354 147.829 318.354H148.413C148.724 318.354 148.825 318.454 148.825 318.756V318.765Z" fill="white"/>
<path d="M154.837 318.765V319.616C154.837 319.918 154.727 320.018 154.417 320.018H151.995L151.922 320.677H152.571C154.362 320.677 155.129 321.674 155.129 322.927C155.129 324.181 154.17 325.233 152.489 325.233C150.917 325.233 150.058 324.729 149.647 323.668C149.537 323.385 149.619 323.266 149.903 323.156L150.944 322.781C151.209 322.69 151.337 322.726 151.447 323.019C151.593 323.357 151.84 323.549 152.388 323.549C152.836 323.549 153.11 323.321 153.11 322.845C153.11 322.415 152.836 322.205 152.333 322.205H150.305C149.958 322.205 149.848 322.058 149.875 321.738L150.177 318.93C150.223 318.5 150.369 318.363 150.826 318.363H154.389C154.7 318.363 154.81 318.463 154.81 318.774L154.837 318.765Z" fill="white"/>
<path d="M175.223 318.226C176.859 318.226 177.8 319.214 177.8 320.421C177.8 321.885 177.078 322.424 175.598 322.937C175.068 323.11 174.446 323.193 174.446 323.431V323.485H177.242C177.553 323.485 177.663 323.586 177.663 323.897V324.693C177.663 324.986 177.553 325.086 177.242 325.086H172.856C172.546 325.086 172.436 324.986 172.436 324.693V323.934C172.436 322.644 173.423 322.205 174.328 321.821C175.104 321.5 175.826 321.226 175.826 320.503C175.826 320.147 175.579 319.881 175.159 319.881C174.739 319.881 174.529 320.064 174.309 320.503C174.172 320.796 174.072 320.851 173.779 320.759L172.747 320.394C172.463 320.293 172.372 320.156 172.491 319.881C172.893 318.893 173.706 318.226 175.214 318.226H175.223Z" fill="white"/>
<path d="M181.263 318.226C183.027 318.226 184.041 319.186 184.041 320.686V322.763C184.041 324.29 183.027 325.233 181.263 325.233C179.499 325.233 178.485 324.281 178.485 322.763V320.686C178.485 319.177 179.499 318.226 181.263 318.226ZM181.263 319.881C180.733 319.881 180.413 320.147 180.413 320.613V322.836C180.413 323.312 180.733 323.577 181.263 323.577C181.793 323.577 182.113 323.312 182.113 322.836V320.613C182.113 320.147 181.793 319.881 181.263 319.881Z" fill="white"/>
<path d="M188.199 318.765V324.693C188.199 324.986 188.098 325.086 187.787 325.086H186.682C186.371 325.086 186.261 324.986 186.261 324.693V320.741L185.613 321.098C185.293 321.272 185.128 321.198 184.982 320.933L184.525 320.128C184.379 319.863 184.461 319.744 184.717 319.579L186.618 318.518C186.846 318.381 186.947 318.354 187.203 318.354H187.787C188.098 318.354 188.199 318.454 188.199 318.756V318.765Z" fill="white"/>
<path d="M192.109 320.823C193.983 320.823 194.832 321.537 194.832 323.01C194.832 324.483 193.772 325.233 192.009 325.233C190.154 325.233 189.185 324.318 189.185 322.69V320.778C189.185 319.149 190.172 318.226 192.009 318.226C193.453 318.226 194.321 318.71 194.732 319.735C194.841 320.019 194.759 320.137 194.467 320.247L193.544 320.595C193.252 320.695 193.16 320.604 193.005 320.33C192.849 320.028 192.566 319.881 192.036 319.881C191.397 319.881 191.104 320.147 191.104 320.759V320.888C191.351 320.842 191.671 320.814 192.118 320.814L192.109 320.823ZM192 323.632C192.685 323.632 192.904 323.403 192.904 323.019C192.904 322.635 192.676 322.424 192 322.424C191.552 322.424 191.26 322.479 191.095 322.534V322.891C191.095 323.357 191.342 323.632 192 323.632Z" fill="white"/>
<path d="M214.972 318.226C216.607 318.226 217.548 319.214 217.548 320.421C217.548 321.885 216.826 322.424 215.346 322.937C214.816 323.11 214.195 323.193 214.195 323.431V323.485H216.991C217.302 323.485 217.411 323.586 217.411 323.897V324.693C217.411 324.986 217.302 325.086 216.991 325.086H212.605C212.294 325.086 212.185 324.986 212.185 324.693V323.934C212.185 322.644 213.171 322.205 214.076 321.821C214.853 321.5 215.575 321.226 215.575 320.503C215.575 320.147 215.328 319.881 214.908 319.881C214.487 319.881 214.277 320.064 214.058 320.503C213.921 320.796 213.82 320.851 213.528 320.759L212.495 320.394C212.212 320.293 212.121 320.156 212.239 319.881C212.641 318.893 213.455 318.226 214.962 318.226H214.972Z" fill="white"/>
<path d="M221.011 318.226C222.775 318.226 223.789 319.186 223.789 320.686V322.763C223.789 324.29 222.775 325.233 221.011 325.233C219.248 325.233 218.234 324.281 218.234 322.763V320.686C218.234 319.177 219.248 318.226 221.011 318.226ZM221.011 319.881C220.481 319.881 220.162 320.147 220.162 320.613V322.836C220.162 323.312 220.481 323.577 221.011 323.577C221.541 323.577 221.861 323.312 221.861 322.836V320.613C221.861 320.147 221.541 319.881 221.011 319.881Z" fill="white"/>
<path d="M227.956 318.765V324.693C227.956 324.986 227.856 325.086 227.545 325.086H226.439C226.129 325.086 226.019 324.986 226.019 324.693V320.741L225.37 321.098C225.05 321.272 224.886 321.198 224.74 320.933L224.283 320.128C224.137 319.863 224.21 319.744 224.475 319.579L226.375 318.518C226.604 318.381 226.704 318.354 226.96 318.354H227.545C227.856 318.354 227.956 318.454 227.956 318.756V318.765Z" fill="white"/>
<path d="M233.96 318.765V319.406C233.96 319.634 233.95 319.735 233.841 319.964L231.529 324.739C231.383 325.031 231.273 325.086 230.761 325.086H229.692C229.391 325.086 229.373 324.931 229.491 324.693L231.73 320.028H229.135C228.824 320.028 228.715 319.927 228.715 319.616V318.765C228.715 318.473 228.824 318.363 229.135 318.363H233.548C233.859 318.363 233.96 318.463 233.96 318.765Z" fill="white"/>
<path d="M253.916 318.226C255.552 318.226 256.493 319.214 256.493 320.421C256.493 321.885 255.771 322.424 254.291 322.937C253.761 323.11 253.139 323.193 253.139 323.431V323.485H255.936C256.246 323.485 256.356 323.586 256.356 323.897V324.693C256.356 324.986 256.246 325.086 255.936 325.086H251.55C251.239 325.086 251.129 324.986 251.129 324.693V323.934C251.129 322.644 252.116 322.205 253.021 321.821C253.797 321.5 254.519 321.226 254.519 320.503C254.519 320.147 254.273 319.881 253.852 319.881C253.432 319.881 253.222 320.064 253.002 320.503C252.865 320.796 252.765 320.851 252.472 320.759L251.44 320.394C251.157 320.293 251.065 320.156 251.184 319.881C251.586 318.893 252.399 318.226 253.907 318.226H253.916Z" fill="white"/>
<path d="M259.947 318.226C261.711 318.226 262.725 319.186 262.725 320.686V322.763C262.725 324.29 261.711 325.233 259.947 325.233C258.183 325.233 257.169 324.281 257.169 322.763V320.686C257.169 319.177 258.183 318.226 259.947 318.226ZM259.947 319.881C259.417 319.881 259.097 320.147 259.097 320.613V322.836C259.097 323.312 259.417 323.577 259.947 323.577C260.477 323.577 260.797 323.312 260.797 322.836V320.613C260.797 320.147 260.477 319.881 259.947 319.881Z" fill="white"/>
<path d="M266.892 318.765V324.693C266.892 324.986 266.791 325.086 266.48 325.086H265.375C265.064 325.086 264.954 324.986 264.954 324.693V320.741L264.306 321.098C263.986 321.272 263.821 321.198 263.675 320.933L263.218 320.128C263.072 319.863 263.145 319.744 263.41 319.579L265.311 318.518C265.539 318.381 265.64 318.354 265.896 318.354H266.48C266.791 318.354 266.892 318.454 266.892 318.756V318.765Z" fill="white"/>
<path d="M270.638 318.225C272.365 318.225 273.279 318.921 273.279 320.128C273.279 320.814 272.913 321.244 272.584 321.519C273.114 321.82 273.498 322.296 273.498 323.119C273.498 324.363 272.676 325.233 270.629 325.233C268.582 325.233 267.769 324.464 267.769 323.302C267.769 322.516 268.281 322.003 268.737 321.729C268.299 321.436 268.006 320.961 268.006 320.247C268.006 318.957 269.012 318.216 270.629 318.216L270.638 318.225ZM270.199 322.397C269.962 322.552 269.715 322.753 269.715 323.129C269.715 323.504 269.989 323.696 270.629 323.696C271.269 323.696 271.497 323.467 271.497 323.147C271.497 322.699 271.067 322.644 270.199 322.397ZM270.647 319.79C270.181 319.79 269.962 319.982 269.962 320.293C269.962 320.631 270.218 320.768 270.656 320.887L270.949 320.961C271.177 320.814 271.369 320.613 271.369 320.284C271.369 319.954 271.131 319.781 270.647 319.781V319.79Z" fill="white"/>
<path d="M293.638 318.226C295.273 318.226 296.214 319.214 296.214 320.421C296.214 321.885 295.493 322.424 294.012 322.937C293.482 323.11 292.861 323.193 292.861 323.431V323.485H295.657C295.968 323.485 296.077 323.586 296.077 323.897V324.693C296.077 324.986 295.968 325.086 295.657 325.086H291.271C290.96 325.086 290.851 324.986 290.851 324.693V323.934C290.851 322.644 291.837 322.205 292.742 321.821C293.519 321.5 294.241 321.226 294.241 320.503C294.241 320.147 293.994 319.881 293.574 319.881C293.153 319.881 292.943 320.064 292.724 320.503C292.587 320.796 292.486 320.851 292.194 320.759L291.161 320.394C290.878 320.293 290.787 320.156 290.905 319.881C291.307 318.893 292.121 318.226 293.628 318.226H293.638Z" fill="white"/>
<path d="M299.668 318.226C301.432 318.226 302.446 319.186 302.446 320.686V322.763C302.446 324.29 301.432 325.233 299.668 325.233C297.905 325.233 296.891 324.281 296.891 322.763V320.686C296.891 319.177 297.905 318.226 299.668 318.226ZM299.668 319.881C299.138 319.881 298.819 320.147 298.819 320.613V322.836C298.819 323.312 299.138 323.577 299.668 323.577C300.198 323.577 300.518 323.312 300.518 322.836V320.613C300.518 320.147 300.198 319.881 299.668 319.881Z" fill="white"/>
<path d="M306.613 318.765V324.693C306.613 324.986 306.512 325.086 306.202 325.086H305.096C304.785 325.086 304.676 324.986 304.676 324.693V320.741L304.027 321.098C303.707 321.272 303.543 321.198 303.397 320.933L302.94 320.128C302.793 319.863 302.867 319.744 303.132 319.579L305.032 318.518C305.261 318.381 305.361 318.354 305.617 318.354H306.202C306.512 318.354 306.613 318.454 306.613 318.756V318.765Z" fill="white"/>
<path d="M310.241 322.635C308.367 322.635 307.518 321.921 307.518 320.448C307.518 318.976 308.578 318.226 310.341 318.226C312.196 318.226 313.165 319.14 313.165 320.778V322.69C313.165 324.318 312.178 325.233 310.341 325.233C308.897 325.233 308.029 324.748 307.618 323.723C307.508 323.44 307.591 323.312 307.883 323.211L308.806 322.863C309.098 322.763 309.19 322.854 309.345 323.129C309.5 323.431 309.784 323.577 310.314 323.577C310.953 323.577 311.246 323.312 311.246 322.699V322.562C310.999 322.607 310.679 322.635 310.231 322.635H310.241ZM310.35 319.826C309.665 319.826 309.446 320.055 309.446 320.439C309.446 320.823 309.674 321.034 310.35 321.034C310.798 321.034 311.09 320.979 311.255 320.924V320.567C311.255 320.101 311.008 319.826 310.35 319.826Z" fill="white"/>
<path d="M333.386 318.226C335.022 318.226 335.963 319.214 335.963 320.421C335.963 321.885 335.241 322.424 333.761 322.937C333.231 323.11 332.609 323.193 332.609 323.431V323.485H335.406C335.716 323.485 335.826 323.586 335.826 323.897V324.693C335.826 324.986 335.716 325.086 335.406 325.086H331.019C330.709 325.086 330.599 324.986 330.599 324.693V323.934C330.599 322.644 331.586 322.205 332.491 321.821C333.267 321.5 333.989 321.226 333.989 320.503C333.989 320.147 333.742 319.881 333.322 319.881C332.902 319.881 332.692 320.064 332.472 320.503C332.335 320.796 332.235 320.851 331.942 320.759L330.91 320.394C330.627 320.293 330.535 320.156 330.654 319.881C331.056 318.893 331.869 318.226 333.377 318.226H333.386Z" fill="white"/>
<path d="M339.426 318.226C341.19 318.226 342.204 319.186 342.204 320.686V322.763C342.204 324.29 341.19 325.233 339.426 325.233C337.662 325.233 336.648 324.281 336.648 322.763V320.686C336.648 319.177 337.662 318.226 339.426 318.226ZM339.426 319.881C338.896 319.881 338.576 320.147 338.576 320.613V322.836C338.576 323.312 338.896 323.577 339.426 323.577C339.956 323.577 340.276 323.312 340.276 322.836V320.613C340.276 320.147 339.956 319.881 339.426 319.881Z" fill="white"/>
<path d="M345.685 318.226C347.321 318.226 348.262 319.214 348.262 320.421C348.262 321.885 347.54 322.424 346.06 322.937C345.53 323.11 344.909 323.193 344.909 323.431V323.485H347.705C348.015 323.485 348.125 323.586 348.125 323.897V324.693C348.125 324.986 348.015 325.086 347.705 325.086H343.319C343.008 325.086 342.898 324.986 342.898 324.693V323.934C342.898 322.644 343.885 322.205 344.79 321.821C345.567 321.5 346.288 321.226 346.288 320.503C346.288 320.147 346.042 319.881 345.621 319.881C345.201 319.881 344.991 320.064 344.772 320.503C344.635 320.796 344.534 320.851 344.242 320.759L343.209 320.394C342.926 320.293 342.834 320.156 342.953 319.881C343.355 318.893 344.169 318.226 345.676 318.226H345.685Z" fill="white"/>
<path d="M351.716 318.226C353.48 318.226 354.494 319.186 354.494 320.686V322.763C354.494 324.29 353.48 325.233 351.716 325.233C349.953 325.233 348.938 324.281 348.938 322.763V320.686C348.938 319.177 349.953 318.226 351.716 318.226ZM351.716 319.881C351.186 319.881 350.866 320.147 350.866 320.613V322.836C350.866 323.312 351.186 323.577 351.716 323.577C352.246 323.577 352.566 323.312 352.566 322.836V320.613C352.566 320.147 352.246 319.881 351.716 319.881Z" fill="white"/>
<path d="M374.706 318.226C376.342 318.226 377.283 319.214 377.283 320.421C377.283 321.885 376.561 322.424 375.081 322.937C374.551 323.11 373.93 323.193 373.93 323.431V323.485H376.726C377.037 323.485 377.146 323.586 377.146 323.897V324.693C377.146 324.986 377.037 325.086 376.726 325.086H372.34C372.029 325.086 371.919 324.986 371.919 324.693V323.934C371.919 322.644 372.906 322.205 373.811 321.821C374.588 321.5 375.31 321.226 375.31 320.503C375.31 320.147 375.063 319.881 374.642 319.881C374.222 319.881 374.012 320.064 373.793 320.503C373.656 320.796 373.555 320.851 373.263 320.759L372.23 320.394C371.947 320.293 371.855 320.156 371.974 319.881C372.376 318.893 373.19 318.226 374.697 318.226H374.706Z" fill="white"/>
<path d="M380.746 318.226C382.51 318.226 383.524 319.186 383.524 320.686V322.763C383.524 324.29 382.51 325.233 380.746 325.233C378.983 325.233 377.969 324.281 377.969 322.763V320.686C377.969 319.177 378.983 318.226 380.746 318.226ZM380.746 319.881C380.216 319.881 379.897 320.147 379.897 320.613V322.836C379.897 323.312 380.216 323.577 380.746 323.577C381.276 323.577 381.596 323.312 381.596 322.836V320.613C381.596 320.147 381.276 319.881 380.746 319.881Z" fill="white"/>
<path d="M387.006 318.226C388.641 318.226 389.583 319.214 389.583 320.421C389.583 321.885 388.861 322.424 387.38 322.937C386.85 323.11 386.229 323.193 386.229 323.431V323.485H389.025C389.336 323.485 389.445 323.586 389.445 323.897V324.693C389.445 324.986 389.336 325.086 389.025 325.086H384.639C384.328 325.086 384.219 324.986 384.219 324.693V323.934C384.219 322.644 385.206 322.205 386.11 321.821C386.887 321.5 387.609 321.226 387.609 320.503C387.609 320.147 387.362 319.881 386.942 319.881C386.521 319.881 386.311 320.064 386.092 320.503C385.955 320.796 385.854 320.851 385.562 320.759L384.529 320.394C384.246 320.293 384.155 320.156 384.274 319.881C384.676 318.893 385.489 318.226 386.997 318.226H387.006Z" fill="white"/>
<path d="M393.667 318.765V324.693C393.667 324.986 393.566 325.086 393.256 325.086H392.15C391.839 325.086 391.73 324.986 391.73 324.693V320.741L391.081 321.098C390.761 321.272 390.597 321.198 390.45 320.933L389.994 320.128C389.847 319.863 389.92 319.744 390.185 319.579L392.086 318.518C392.315 318.381 392.415 318.354 392.671 318.354H393.256C393.566 318.354 393.667 318.454 393.667 318.756V318.765Z" fill="white"/>
<path d="M414.09 318.226C415.725 318.226 416.667 319.214 416.667 320.421C416.667 321.885 415.945 322.424 414.464 322.937C413.934 323.11 413.313 323.193 413.313 323.431V323.485H416.109C416.42 323.485 416.529 323.586 416.529 323.897V324.693C416.529 324.986 416.42 325.086 416.109 325.086H411.723C411.412 325.086 411.303 324.986 411.303 324.693V323.934C411.303 322.644 412.29 322.205 413.194 321.821C413.971 321.5 414.693 321.226 414.693 320.503C414.693 320.147 414.446 319.881 414.026 319.881C413.605 319.881 413.395 320.064 413.176 320.503C413.039 320.796 412.938 320.851 412.646 320.759L411.613 320.394C411.33 320.293 411.239 320.156 411.358 319.881C411.76 318.893 412.573 318.226 414.081 318.226H414.09Z" fill="white"/>
<path d="M420.121 318.226C421.884 318.226 422.898 319.186 422.898 320.686V322.763C422.898 324.29 421.884 325.233 420.121 325.233C418.357 325.233 417.343 324.281 417.343 322.763V320.686C417.343 319.177 418.357 318.226 420.121 318.226ZM420.121 319.881C419.591 319.881 419.271 320.147 419.271 320.613V322.836C419.271 323.312 419.591 323.577 420.121 323.577C420.651 323.577 420.97 323.312 420.97 322.836V320.613C420.97 320.147 420.651 319.881 420.121 319.881Z" fill="white"/>
<path d="M426.38 318.226C428.015 318.226 428.957 319.214 428.957 320.421C428.957 321.885 428.235 322.424 426.754 322.937C426.224 323.11 425.603 323.193 425.603 323.431V323.485H428.399C428.71 323.485 428.819 323.586 428.819 323.897V324.693C428.819 324.986 428.71 325.086 428.399 325.086H424.013C423.702 325.086 423.593 324.986 423.593 324.693V323.934C423.593 322.644 424.58 322.205 425.484 321.821C426.261 321.5 426.983 321.226 426.983 320.503C426.983 320.147 426.736 319.881 426.316 319.881C425.895 319.881 425.685 320.064 425.466 320.503C425.329 320.796 425.228 320.851 424.936 320.759L423.903 320.394C423.62 320.293 423.529 320.156 423.648 319.881C424.05 318.893 424.863 318.226 426.371 318.226H426.38Z" fill="white"/>
<path d="M432.365 318.226C434.001 318.226 434.942 319.214 434.942 320.421C434.942 321.885 434.22 322.424 432.739 322.937C432.21 323.11 431.588 323.193 431.588 323.431V323.485H434.384C434.695 323.485 434.805 323.586 434.805 323.897V324.693C434.805 324.986 434.695 325.086 434.384 325.086H429.998C429.688 325.086 429.578 324.986 429.578 324.693V323.934C429.578 322.644 430.565 322.205 431.469 321.821C432.246 321.5 432.968 321.226 432.968 320.503C432.968 320.147 432.721 319.881 432.301 319.881C431.881 319.881 431.67 320.064 431.451 320.503C431.314 320.796 431.214 320.851 430.921 320.759L429.889 320.394C429.605 320.293 429.514 320.156 429.633 319.881C430.035 318.893 430.848 318.226 432.356 318.226H432.365Z" fill="white"/>
<path d="M149.281 70.299V72.3114C149.281 74.4611 147.554 76.0894 144.466 76.0894C141.377 76.0894 139.632 74.4611 139.632 71.8266V69.0823C139.632 66.4478 141.377 64.8196 144.466 64.8196C146.878 64.8196 148.386 65.7801 149.044 67.4815C149.199 67.9206 149.09 68.1493 148.623 68.3048L146.942 68.8811C146.458 69.0366 146.266 68.9451 146.092 68.4695C145.809 67.7834 145.343 67.4815 144.457 67.4815C143.214 67.4815 142.73 68.0029 142.73 69.064V71.8358C142.73 72.906 143.214 73.4183 144.457 73.4183C145.508 73.4183 146.147 73.0341 146.147 72.3846V72.0827H144.639C144.155 72.0827 143.982 71.9272 143.982 71.4424V70.299C143.982 69.8141 144.155 69.6403 144.639 69.6403H148.605C149.108 69.6403 149.263 69.805 149.263 70.299H149.281Z" fill="white"/>
<path d="M155.084 64.8105C158.172 64.8105 159.899 66.4388 159.899 69.0733V71.8176C159.899 74.4521 158.172 76.0803 155.084 76.0803C151.995 76.0803 150.25 74.4521 150.25 71.8176V69.0733C150.25 66.4388 151.977 64.8105 155.084 64.8105ZM155.084 67.4725C153.987 67.4725 153.357 67.9756 153.357 68.9361V71.9548C153.357 72.9153 153.987 73.4184 155.084 73.4184C156.18 73.4184 156.793 72.9153 156.793 71.9548V68.9361C156.793 67.9756 156.162 67.4725 155.084 67.4725Z" fill="white"/>
<path d="M164.322 65.6796V73.1898H168.105C168.589 73.1898 168.763 73.3453 168.763 73.8301V75.2206C168.763 75.6962 168.589 75.8609 168.105 75.8609H161.891C161.389 75.8609 161.215 75.6962 161.215 75.2206V65.6796C161.215 65.204 161.389 65.0393 161.891 65.0393H163.664C164.167 65.0393 164.322 65.204 164.322 65.6796Z" fill="white"/>
<path d="M179.043 69.3112V71.5981C179.043 74.2143 177.316 75.8609 174.227 75.8609H170.398C169.896 75.8609 169.722 75.6962 169.722 75.2206V65.6796C169.722 65.204 169.896 65.0393 170.398 65.0393H174.227C177.316 65.0393 179.043 66.6676 179.043 69.3021V69.3112ZM174.117 67.7104H172.829V73.1989H174.117C175.387 73.1989 175.936 72.6318 175.936 71.5524V69.357C175.936 68.2775 175.387 67.7104 174.117 67.7104Z" fill="white"/>
<path d="M185.192 71.1772V72.4762C185.192 72.961 185.019 73.1165 184.534 73.1165H180.898C180.413 73.1165 180.24 72.961 180.24 72.4762V71.1772C180.24 70.6924 180.413 70.5369 180.898 70.5369H184.534C185.019 70.5369 185.192 70.6924 185.192 71.1772Z" fill="white"/>
<path d="M193.782 64.8105C196.103 64.8105 197.418 65.4783 198.159 66.9419C198.378 67.381 198.25 67.6097 197.784 67.7927L196.212 68.4513C195.792 68.6342 195.618 68.5702 195.362 68.1311C195.061 67.5548 194.503 67.3353 193.782 67.3353C192.713 67.3353 192.292 67.5914 192.292 68.1311C192.292 68.7897 193.215 68.927 194.348 69.0642C196.167 69.3112 198.524 69.7319 198.524 72.6134C198.524 74.8546 196.441 76.0895 193.663 76.0895C191.324 76.0895 189.697 75.312 189.094 73.7294C188.92 73.272 189.067 73.0617 189.514 72.8878L190.985 72.3664C191.461 72.2109 191.68 72.2567 191.908 72.7049C192.192 73.2355 192.804 73.5099 193.681 73.5099C194.732 73.5099 195.362 73.2995 195.362 72.6409C195.362 72.0463 194.558 71.8816 193.526 71.7444C191.689 71.4974 189.112 71.1773 189.112 68.2226C189.112 66.2101 190.775 64.8105 193.772 64.8105H193.782Z" fill="white"/>
<path d="M204.262 73.4185C205.35 73.4185 205.898 72.9154 205.898 72.0189V65.6796C205.898 65.204 206.053 65.0393 206.556 65.0393H208.329C208.831 65.0393 209.005 65.204 209.005 65.6796V71.8817C209.005 74.443 207.369 76.0896 204.262 76.0896C201.156 76.0896 199.538 74.443 199.538 71.8817V65.6796C199.538 65.204 199.694 65.0393 200.196 65.0393H201.969C202.472 65.0393 202.645 65.204 202.645 65.6796V72.0189C202.645 72.9154 203.175 73.4185 204.262 73.4185Z" fill="white"/>
<path d="M219.531 68.8538C219.531 71.2596 217.951 72.6135 215.511 72.6135H213.583V75.2206C213.583 75.6962 213.428 75.8609 212.925 75.8609H211.152C210.65 75.8609 210.476 75.6962 210.476 75.2206V65.6796C210.476 65.204 210.65 65.0393 211.152 65.0393H215.484C217.932 65.0393 219.531 66.4297 219.531 68.8447V68.8538ZM216.315 68.8355C216.315 68.1678 215.876 67.7104 215.136 67.7104H213.583V69.9516H215.136C215.876 69.9516 216.315 69.5125 216.315 68.8355Z" fill="white"/>
<path d="M229.674 68.8538C229.674 71.2596 228.084 72.6135 225.654 72.6135H223.726V75.2206C223.726 75.6962 223.57 75.8609 223.068 75.8609H221.295C220.793 75.8609 220.619 75.6962 220.619 75.2206V65.6796C220.619 65.204 220.793 65.0393 221.295 65.0393H225.626C228.075 65.0393 229.674 66.4297 229.674 68.8447V68.8538ZM226.458 68.8355C226.458 68.1678 226.019 67.7104 225.279 67.7104H223.726V69.9516H225.279C226.019 69.9516 226.458 69.5125 226.458 68.8355Z" fill="white"/>
<path d="M233.878 65.6796V73.1898H237.661C238.145 73.1898 238.318 73.3453 238.318 73.8301V75.2206C238.318 75.6962 238.145 75.8609 237.661 75.8609H231.447C230.944 75.8609 230.771 75.6962 230.771 75.2206V65.6796C230.771 65.204 230.944 65.0393 231.447 65.0393H233.22C233.722 65.0393 233.878 65.204 233.878 65.6796Z" fill="white"/>
<path d="M247.182 65.6796L243.554 71.6713V75.2206C243.554 75.6962 243.399 75.8609 242.896 75.8609H241.124C240.621 75.8609 240.447 75.6962 240.447 75.2206V71.6713L236.838 65.6796C236.619 65.332 236.683 65.0393 237.167 65.0393H239.049C239.835 65.0393 240.055 65.0668 240.356 65.6065L242.037 68.7166L243.764 65.6065C244.066 65.0759 244.285 65.0393 245.053 65.0393H246.853C247.319 65.0393 247.383 65.332 247.182 65.6796Z" fill="white"/>
<path d="M259.563 75.8608H257.873C257.06 75.8608 256.822 75.6961 256.694 75.2204L256.329 74.1227H252.939L252.573 75.2204C252.418 75.6961 252.208 75.8608 251.431 75.8608H249.786C249.302 75.8608 249.201 75.6504 249.366 75.2387L252.975 65.5789C253.131 65.1398 253.341 65.0483 253.788 65.0483H255.579C256.036 65.0483 256.237 65.1581 256.393 65.5515L260.02 75.2387C260.176 75.6504 260.039 75.8608 259.563 75.8608ZM254.702 67.8201H254.547C254.547 67.8201 254.565 68.9178 254.245 69.9331L253.661 71.7352H255.625L255.04 69.9514C254.73 68.9178 254.693 67.8201 254.693 67.8201H254.702Z" fill="white"/>
<path d="M270.273 65.6795V75.2204C270.273 75.6961 270.099 75.8608 269.615 75.8608H267.842C267.513 75.8608 267.339 75.7693 267.202 75.5589L264.79 71.9456C264.096 70.8936 263.831 70.1801 263.41 68.808H263.282C263.611 70.2716 263.803 71.0491 263.803 72.7414V75.2296C263.803 75.7053 263.63 75.8699 263.127 75.8699H261.537C261.034 75.8699 260.861 75.7053 260.861 75.2296V65.6887C260.861 65.213 261.034 65.0483 261.537 65.0483H263.392C263.757 65.0483 263.913 65.1398 264.05 65.3502L266.627 69.2471C267.321 70.299 267.44 70.8753 267.942 72.0371H268.07C267.568 70.4637 267.367 69.7319 267.367 68.186V65.6887C267.367 65.213 267.522 65.0483 268.025 65.0483H269.624C270.108 65.0483 270.282 65.213 270.282 65.6887L270.273 65.6795Z" fill="white"/>
<path d="M281.165 69.3112V71.5981C281.165 74.2143 279.438 75.8609 276.349 75.8609H272.52C272.018 75.8609 271.844 75.6962 271.844 75.2206V65.6796C271.844 65.204 272.018 65.0393 272.52 65.0393H276.349C279.438 65.0393 281.165 66.6676 281.165 69.3021V69.3112ZM276.239 67.7104H274.951V73.1989H276.239C277.51 73.1989 278.058 72.6318 278.058 71.5524V69.357C278.058 68.2775 277.51 67.7104 276.239 67.7104Z" fill="white"/>
<path d="M287.314 71.1772V72.4762C287.314 72.961 287.141 73.1165 286.656 73.1165H283.02C282.535 73.1165 282.362 72.961 282.362 72.4762V71.1772C282.362 70.6924 282.535 70.5369 283.02 70.5369H286.656C287.141 70.5369 287.314 70.6924 287.314 71.1772Z" fill="white"/>
<path d="M300.911 69.3112V71.5981C300.911 74.2143 299.184 75.8609 296.096 75.8609H292.267C291.764 75.8609 291.591 75.6962 291.591 75.2206V65.6796C291.591 65.204 291.764 65.0393 292.267 65.0393H296.096C299.184 65.0393 300.911 66.6676 300.911 69.3021V69.3112ZM295.986 67.7104H294.698V73.1989H295.986C297.256 73.1989 297.804 72.6318 297.804 71.5524V69.357C297.804 68.2775 297.256 67.7104 295.986 67.7104Z" fill="white"/>
<path d="M310.14 65.6795V67.0517C310.14 67.5365 309.966 67.7103 309.464 67.7103H305.325V69.0641H308.632C309.135 69.0641 309.309 69.2288 309.309 69.7044V71.0766C309.309 71.5614 309.135 71.7352 308.632 71.7352H305.325V73.1988H309.61C310.094 73.1988 310.268 73.3543 310.268 73.8392V75.2296C310.268 75.7053 310.094 75.8699 309.61 75.8699H302.894C302.391 75.8699 302.218 75.7053 302.218 75.2296V65.6887C302.218 65.213 302.391 65.0483 302.894 65.0483H309.473C309.976 65.0483 310.149 65.213 310.149 65.6887L310.14 65.6795Z" fill="white"/>
<path d="M322.814 65.6612V75.2296C322.814 75.7052 322.64 75.8516 322.138 75.8516H320.429C319.927 75.8516 319.771 75.6961 319.771 75.2296V73.0524C319.771 72.0462 319.863 71.0857 320.466 69.0641H320.292C320.137 69.5672 319.57 70.9577 319.241 71.5797L318.364 73.2994C318.19 73.6013 318.035 73.7385 317.615 73.7385H316.564C316.144 73.7385 315.979 73.6287 315.815 73.2994L314.892 71.5797C314.563 71.0034 314.078 69.5947 313.914 69.0641H313.759C314.325 71.2595 314.398 72.0188 314.398 73.0707V75.2387C314.398 75.7144 314.225 75.8608 313.722 75.8608H312.123C311.62 75.8608 311.447 75.7052 311.447 75.2387V65.6704C311.447 65.1855 311.62 65.03 312.123 65.03H313.594C314.142 65.03 314.298 65.1215 314.517 65.5057L317.103 70.4454L319.689 65.524C319.908 65.1124 320.054 65.0392 320.566 65.0392H322.138C322.64 65.0392 322.814 65.1947 322.814 65.6795V65.6612Z" fill="white"/>
<path d="M333.871 75.8608H332.18C331.367 75.8608 331.129 75.6961 331.001 75.2204L330.645 74.1227H327.255L326.89 75.2204C326.734 75.6961 326.533 75.8608 325.747 75.8608H324.103C323.618 75.8608 323.518 75.6504 323.682 75.2387L327.292 65.5789C327.447 65.1398 327.648 65.0483 328.105 65.0483H329.896C330.353 65.0483 330.554 65.1581 330.709 65.5515L334.337 75.2387C334.492 75.6504 334.355 75.8608 333.88 75.8608H333.871ZM329.009 67.8201H328.854C328.854 67.8201 328.872 68.9178 328.553 69.9331L327.968 71.7352H329.932L329.348 69.9514C329.037 68.9178 329 67.8201 329 67.8201H329.009Z" fill="white"/>
<path d="M344.589 65.6795V75.2204C344.589 75.6961 344.415 75.8608 343.931 75.8608H342.158C341.829 75.8608 341.656 75.7693 341.519 75.5589L339.106 71.9456C338.412 70.8936 338.147 70.1801 337.727 68.808H337.599C337.928 70.2716 338.119 71.0491 338.119 72.7414V75.2296C338.119 75.7053 337.946 75.8699 337.443 75.8699H335.862C335.36 75.8699 335.186 75.7053 335.186 75.2296V65.6887C335.186 65.213 335.36 65.0483 335.862 65.0483H337.717C338.083 65.0483 338.238 65.1398 338.375 65.3502L340.952 69.2471C341.647 70.299 341.765 70.8753 342.268 72.0371H342.396C341.893 70.4637 341.692 69.7319 341.692 68.186V65.6887C341.692 65.213 341.848 65.0483 342.35 65.0483H343.949C344.434 65.0483 344.607 65.213 344.607 65.6887L344.589 65.6795Z" fill="white"/>
<path d="M355.472 69.3112V71.5981C355.472 74.2143 353.745 75.8609 350.656 75.8609H346.828C346.325 75.8609 346.152 75.6962 346.152 75.2206V65.6796C346.152 65.204 346.325 65.0393 346.828 65.0393H350.656C353.745 65.0393 355.472 66.6676 355.472 69.3021V69.3112ZM350.547 67.7104H349.258V73.1989H350.547C351.817 73.1989 352.365 72.6318 352.365 71.5524V69.357C352.365 68.2775 351.817 67.7104 350.547 67.7104Z" fill="white"/>
<path d="M9.44843 116.138V116.421C9.44843 116.595 9.39361 116.65 9.22913 116.65H7.31937V120.071C7.31937 120.245 7.26454 120.3 7.08179 120.3H6.75283C6.57008 120.3 6.51526 120.245 6.51526 120.071V116.65H-0.200898C-0.383651 116.65 -0.438477 116.595 -0.438477 116.421V116.192C-0.438477 116.055 -0.420201 116 -0.365376 115.909L6.37819 107.731C6.48784 107.603 6.54267 107.575 6.70715 107.575H7.09093C7.27368 107.575 7.3285 107.63 7.3285 107.822V115.909H9.23827C9.40274 115.909 9.45757 115.964 9.45757 116.138H9.44843ZM6.52439 108.719L0.5758 115.9H6.52439V108.719Z" fill="white"/>
<path d="M11.6507 119.815V119.925C11.6507 120.281 11.5411 120.4 11.1573 120.4H11.0659C10.6821 120.4 10.5542 120.29 10.5542 119.925V119.815C10.5542 119.44 10.6821 119.339 11.0659 119.339H11.1573C11.5411 119.339 11.6507 119.449 11.6507 119.815Z" fill="white"/>
<path d="M17.7087 114.994C14.6933 114.994 13.2861 113.777 13.2861 111.253C13.2861 108.902 14.9949 107.53 17.8641 107.53C20.8795 107.53 22.4694 109.204 22.4694 111.911V116.183C22.4694 119.046 20.8704 120.565 17.8641 120.565C15.5157 120.565 14.1359 119.632 13.4597 117.903C13.4049 117.747 13.4415 117.692 13.6059 117.638L13.9532 117.51C14.1177 117.436 14.1908 117.491 14.2456 117.647C14.8304 119.037 15.9543 119.796 17.8641 119.796C20.3221 119.796 21.6288 118.562 21.6288 116.174V114.317C21.1902 114.491 19.7738 114.985 17.6996 114.985L17.7087 114.994ZM17.8732 108.289C15.4883 108.289 14.1268 109.35 14.1268 111.253C14.1268 113.265 15.2324 114.235 17.7453 114.235C19.9109 114.235 21.3272 113.649 21.6379 113.53V111.902C21.6379 109.624 20.3495 108.28 17.8732 108.28V108.289Z" fill="white"/>
<path d="M29.2224 107.521C32.1099 107.521 33.7729 109.076 33.7729 111.527V116.54C33.7729 119.01 32.119 120.547 29.2224 120.547C26.3258 120.547 24.6719 119.01 24.6719 116.54V111.527C24.6719 109.076 26.3258 107.521 29.2224 107.521ZM29.2224 108.28C26.8375 108.28 25.5125 109.515 25.5125 111.527V116.54C25.5125 118.571 26.8375 119.787 29.2224 119.787C31.6073 119.787 32.9323 118.571 32.9323 116.54V111.527C32.9323 109.515 31.6073 108.28 29.2224 108.28Z" fill="white"/>
<path d="M40.5344 107.521C43.4219 107.521 45.085 109.076 45.085 111.527V116.54C45.085 119.01 43.431 120.547 40.5344 120.547C37.6378 120.547 35.9839 119.01 35.9839 116.54V111.527C35.9839 109.076 37.6378 107.521 40.5344 107.521ZM40.5344 108.28C38.1495 108.28 36.8245 109.515 36.8245 111.527V116.54C36.8245 118.571 38.1495 119.787 40.5344 119.787C42.9193 119.787 44.2443 118.571 44.2443 116.54V111.527C44.2443 109.515 42.9193 108.28 40.5344 108.28Z" fill="white"/>
<path d="M46.5746 122.44H46.4284C46.3005 122.44 46.264 122.404 46.2822 122.285L46.9767 119.513C47.0315 119.303 47.1046 119.248 47.3057 119.248H47.6163C47.8539 119.248 47.9087 119.339 47.8539 119.513L46.8579 122.248C46.8031 122.385 46.7483 122.44 46.5838 122.44H46.5746Z" fill="white"/>
<path d="M54.2043 107.521C57.0918 107.521 58.7549 109.076 58.7549 111.527V116.54C58.7549 119.01 57.101 120.547 54.2043 120.547C51.3077 120.547 49.6538 119.01 49.6538 116.54V111.527C49.6538 109.076 51.3077 107.521 54.2043 107.521ZM54.2043 108.28C51.8194 108.28 50.4945 109.515 50.4945 111.527V116.54C50.4945 118.571 51.8194 119.787 54.2043 119.787C56.5893 119.787 57.9142 118.571 57.9142 116.54V111.527C57.9142 109.515 56.5893 108.28 54.2043 108.28Z" fill="white"/>
<path d="M434.933 114.125H74.9102V115.845H434.933V114.125Z" fill="white"/>
<path d="M9.44843 143.141V143.425C9.44843 143.598 9.39361 143.653 9.22913 143.653H7.31937V147.074C7.31937 147.248 7.26454 147.303 7.08179 147.303H6.75283C6.57008 147.303 6.51526 147.248 6.51526 147.074V143.653H-0.200898C-0.383651 143.653 -0.438477 143.598 -0.438477 143.425V143.196C-0.438477 143.059 -0.420201 143.004 -0.365376 142.912L6.37819 134.734C6.48784 134.606 6.54267 134.579 6.70715 134.579H7.09093C7.27368 134.579 7.3285 134.634 7.3285 134.826V142.912H9.23827C9.40274 142.912 9.45757 142.967 9.45757 143.141H9.44843ZM6.52439 135.722L0.5758 142.903H6.52439V135.722Z" fill="white"/>
<path d="M11.6507 146.818V146.928C11.6507 147.285 11.5411 147.404 11.1573 147.404H11.0659C10.6821 147.404 10.5542 147.294 10.5542 146.928V146.818C10.5542 146.443 10.6821 146.343 11.0659 146.343H11.1573C11.5411 146.343 11.6507 146.453 11.6507 146.818Z" fill="white"/>
<path d="M20.9801 135.009V135.219C20.9801 135.347 20.9618 135.393 20.907 135.54L15.6711 147.12C15.5797 147.294 15.5249 147.312 15.2508 147.312H14.867C14.7025 147.312 14.6842 147.221 14.7573 147.084L20.0115 135.54H12.6648C12.4821 135.54 12.4272 135.485 12.4272 135.329V135.009C12.4272 134.835 12.4821 134.78 12.6648 134.78H20.7425C20.9252 134.78 20.9801 134.835 20.9801 135.009Z" fill="white"/>
<path d="M26.8557 134.524C29.7432 134.524 31.4062 136.079 31.4062 138.531V143.544C31.4062 146.014 29.7523 147.55 26.8557 147.55C23.9591 147.55 22.3052 146.014 22.3052 143.544V138.531C22.3052 136.079 23.9591 134.524 26.8557 134.524ZM26.8557 135.283C24.4708 135.283 23.1458 136.518 23.1458 138.531V143.544C23.1458 145.574 24.4708 146.791 26.8557 146.791C29.2406 146.791 30.5656 145.574 30.5656 143.544V138.531C30.5656 136.518 29.2406 135.283 26.8557 135.283Z" fill="white"/>
<path d="M38.1682 134.524C41.0557 134.524 42.7187 136.079 42.7187 138.531V143.544C42.7187 146.014 41.0648 147.55 38.1682 147.55C35.2716 147.55 33.6177 146.014 33.6177 143.544V138.531C33.6177 136.079 35.2716 134.524 38.1682 134.524ZM38.1682 135.283C35.7833 135.283 34.4583 136.518 34.4583 138.531V143.544C34.4583 145.574 35.7833 146.791 38.1682 146.791C40.5531 146.791 41.8781 145.574 41.8781 143.544V138.531C41.8781 136.518 40.5531 135.283 38.1682 135.283Z" fill="white"/>
<path d="M44.2079 149.444H44.0617C43.9338 149.444 43.8973 149.407 43.9155 149.288L44.61 146.517C44.6648 146.306 44.7379 146.251 44.939 146.251H45.2496C45.4872 146.251 45.542 146.343 45.4872 146.517L44.4912 149.252C44.4364 149.389 44.3816 149.444 44.2171 149.444H44.2079Z" fill="white"/>
<path d="M51.8469 134.524C54.7344 134.524 56.3975 136.079 56.3975 138.531V143.544C56.3975 146.014 54.7436 147.55 51.8469 147.55C48.9503 147.55 47.2964 146.014 47.2964 143.544V138.531C47.2964 136.079 48.9503 134.524 51.8469 134.524ZM51.8469 135.283C49.462 135.283 48.137 136.518 48.137 138.531V143.544C48.137 145.574 49.462 146.791 51.8469 146.791C54.2318 146.791 55.5568 145.574 55.5568 143.544V138.531C55.5568 136.518 54.2318 135.283 51.8469 135.283Z" fill="white"/>
<path d="M434.933 141.129H74.9102V142.848H434.933V141.129Z" fill="white"/>
<path d="M9.44843 170.145V170.428C9.44843 170.602 9.39361 170.657 9.22913 170.657H7.31937V174.078C7.31937 174.252 7.26454 174.307 7.08179 174.307H6.75283C6.57008 174.307 6.51526 174.252 6.51526 174.078V170.657H-0.200898C-0.383651 170.657 -0.438477 170.602 -0.438477 170.428V170.2C-0.438477 170.062 -0.420201 170.007 -0.365376 169.916L6.37819 161.738C6.48784 161.61 6.54267 161.583 6.70715 161.583H7.09093C7.27368 161.583 7.3285 161.637 7.3285 161.83V169.916H9.23827C9.40274 169.916 9.45757 169.971 9.45757 170.145H9.44843ZM6.52439 162.726L0.5758 169.907H6.52439V162.726Z" fill="white"/>
<path d="M11.6507 173.822V173.932C11.6507 174.289 11.5411 174.408 11.1573 174.408H11.0659C10.6821 174.408 10.5542 174.298 10.5542 173.932V173.822C10.5542 173.447 10.6821 173.346 11.0659 173.346H11.1573C11.5411 173.346 11.6507 173.456 11.6507 173.822Z" fill="white"/>
<path d="M21.8941 162.013V162.333C21.8941 162.488 21.8392 162.543 21.6747 162.543H15.2875L14.8489 166.907H18.2481C21.0443 166.907 22.3601 168.599 22.3601 170.648C22.3601 172.697 20.7793 174.581 18.0471 174.581C15.4977 174.581 14.0631 173.593 13.4143 171.828C13.3595 171.672 13.3961 171.599 13.5423 171.544L13.926 171.416C14.0722 171.343 14.1636 171.38 14.2184 171.554C14.7484 173.017 15.9272 173.813 18.0562 173.813C20.1853 173.813 21.492 172.404 21.492 170.639C21.492 168.983 20.4046 167.657 18.2207 167.657H14.2367C13.9991 167.657 13.926 167.565 13.9626 167.355L14.5108 162.168C14.5291 161.866 14.6388 161.784 14.9495 161.784H21.6747C21.8392 161.784 21.8941 161.839 21.8941 162.013Z" fill="white"/>
<path d="M28.8201 161.537C31.7076 161.537 33.3706 163.092 33.3706 165.544V170.556C33.3706 173.026 31.7167 174.563 28.8201 174.563C25.9234 174.563 24.2695 173.026 24.2695 170.556V165.544C24.2695 163.092 25.9234 161.537 28.8201 161.537ZM28.8201 162.296C26.4351 162.296 25.1102 163.531 25.1102 165.544V170.556C25.1102 172.587 26.4351 173.804 28.8201 173.804C31.205 173.804 32.5299 172.587 32.5299 170.556V165.544C32.5299 163.531 31.205 162.296 28.8201 162.296Z" fill="white"/>
<path d="M40.1326 161.537C43.0201 161.537 44.6831 163.092 44.6831 165.544V170.556C44.6831 173.026 43.0292 174.563 40.1326 174.563C37.2359 174.563 35.582 173.026 35.582 170.556V165.544C35.582 163.092 37.2359 161.537 40.1326 161.537ZM40.1326 162.296C37.7476 162.296 36.4227 163.531 36.4227 165.544V170.556C36.4227 172.587 37.7476 173.804 40.1326 173.804C42.5175 173.804 43.8424 172.587 43.8424 170.556V165.544C43.8424 163.531 42.5175 162.296 40.1326 162.296Z" fill="white"/>
<path d="M46.1723 176.447H46.0261C45.8982 176.447 45.8616 176.411 45.8799 176.292L46.5744 173.52C46.6292 173.31 46.7023 173.255 46.9033 173.255H47.214C47.4516 173.255 47.5064 173.346 47.4516 173.52L46.4556 176.255C46.4007 176.392 46.3459 176.447 46.1814 176.447H46.1723Z" fill="white"/>
<path d="M53.8118 161.537C56.6993 161.537 58.3623 163.092 58.3623 165.544V170.556C58.3623 173.026 56.7084 174.563 53.8118 174.563C50.9151 174.563 49.2612 173.026 49.2612 170.556V165.544C49.2612 163.092 50.9151 161.537 53.8118 161.537ZM53.8118 162.296C51.4268 162.296 50.1019 163.531 50.1019 165.544V170.556C50.1019 172.587 51.4268 173.804 53.8118 173.804C56.1967 173.804 57.5216 172.587 57.5216 170.556V165.544C57.5216 163.531 56.1967 162.296 53.8118 162.296Z" fill="white"/>
<path d="M434.933 168.132H74.9102V169.852H434.933V168.132Z" fill="white"/>
<path d="M9.44843 197.148V197.432C9.44843 197.606 9.39361 197.661 9.22913 197.661H7.31937V201.082C7.31937 201.256 7.26454 201.31 7.08179 201.31H6.75283C6.57008 201.31 6.51526 201.256 6.51526 201.082V197.661H-0.200898C-0.383651 197.661 -0.438477 197.606 -0.438477 197.432V197.203C-0.438477 197.066 -0.420201 197.011 -0.365376 196.92L6.37819 188.742C6.48784 188.614 6.54267 188.586 6.70715 188.586H7.09093C7.27368 188.586 7.3285 188.641 7.3285 188.833V196.92H9.23827C9.40274 196.92 9.45757 196.974 9.45757 197.148H9.44843ZM6.52439 189.73L0.5758 196.91H6.52439V189.73Z" fill="white"/>
<path d="M11.6507 200.826V200.935C11.6507 201.292 11.5411 201.411 11.1573 201.411H11.0659C10.6821 201.411 10.5542 201.301 10.5542 200.935V200.826C10.5542 200.45 10.6821 200.35 11.0659 200.35H11.1573C11.5411 200.35 11.6507 200.46 11.6507 200.826Z" fill="white"/>
<path d="M20.112 194.843C21.5466 195.264 22.2411 196.416 22.2411 197.917C22.2411 200.14 20.9161 201.567 17.9464 201.567C14.9766 201.567 13.9258 200.432 13.3319 198.42C13.277 198.264 13.3136 198.191 13.4781 198.136L13.8253 198.008C13.9898 197.953 14.0629 197.99 14.1177 198.145C14.666 199.893 15.5523 200.789 17.9555 200.789C20.3587 200.789 21.3913 199.691 21.3913 197.898C21.3913 196.288 20.4684 195.255 18.6957 195.255H15.662C15.4975 195.255 15.4427 195.2 15.4427 195.044V194.742C15.4427 194.569 15.4975 194.514 15.662 194.514H18.6043C20.2947 194.514 21.044 193.352 21.044 192.062C21.044 190.278 20.0115 189.29 17.9555 189.29C15.6802 189.29 14.7756 190.105 14.2274 191.87C14.1725 192.026 14.0994 192.044 13.935 191.998L13.5877 191.888C13.4232 191.834 13.3867 191.76 13.4415 191.587C14.0446 189.592 15.2416 188.531 17.9738 188.531C20.5597 188.531 21.8664 189.821 21.8664 192.007C21.8664 193.224 21.3547 194.377 20.1211 194.834L20.112 194.843Z" fill="white"/>
<path d="M28.8201 188.54C31.7076 188.54 33.3706 190.095 33.3706 192.547V197.56C33.3706 200.03 31.7167 201.566 28.8201 201.566C25.9234 201.566 24.2695 200.03 24.2695 197.56V192.547C24.2695 190.095 25.9234 188.54 28.8201 188.54ZM28.8201 189.3C26.4351 189.3 25.1102 190.534 25.1102 192.547V197.56C25.1102 199.591 26.4351 200.807 28.8201 200.807C31.205 200.807 32.5299 199.591 32.5299 197.56V192.547C32.5299 190.534 31.205 189.3 28.8201 189.3Z" fill="white"/>
<path d="M40.1326 188.54C43.0201 188.54 44.6831 190.095 44.6831 192.547V197.56C44.6831 200.03 43.0292 201.566 40.1326 201.566C37.2359 201.566 35.582 200.03 35.582 197.56V192.547C35.582 190.095 37.2359 188.54 40.1326 188.54ZM40.1326 189.3C37.7476 189.3 36.4227 190.534 36.4227 192.547V197.56C36.4227 199.591 37.7476 200.807 40.1326 200.807C42.5175 200.807 43.8424 199.591 43.8424 197.56V192.547C43.8424 190.534 42.5175 189.3 40.1326 189.3Z" fill="white"/>
<path d="M46.1723 203.451H46.0261C45.8982 203.451 45.8616 203.414 45.8799 203.295L46.5744 200.524C46.6292 200.313 46.7023 200.258 46.9033 200.258H47.214C47.4516 200.258 47.5064 200.35 47.4516 200.524L46.4556 203.259C46.4007 203.396 46.3459 203.451 46.1814 203.451H46.1723Z" fill="white"/>
<path d="M53.8118 188.54C56.6993 188.54 58.3623 190.095 58.3623 192.547V197.56C58.3623 200.03 56.7084 201.566 53.8118 201.566C50.9151 201.566 49.2612 200.03 49.2612 197.56V192.547C49.2612 190.095 50.9151 188.54 53.8118 188.54ZM53.8118 189.3C51.4268 189.3 50.1019 190.534 50.1019 192.547V197.56C50.1019 199.591 51.4268 200.807 53.8118 200.807C56.1967 200.807 57.5216 199.591 57.5216 197.56V192.547C57.5216 190.534 56.1967 189.3 53.8118 189.3Z" fill="white"/>
<path d="M434.933 195.136H74.9102V196.855H434.933V195.136Z" fill="white"/>
<path d="M9.44843 224.152V224.436C9.44843 224.609 9.39361 224.664 9.22913 224.664H7.31937V228.085C7.31937 228.259 7.26454 228.314 7.08179 228.314H6.75283C6.57008 228.314 6.51526 228.259 6.51526 228.085V224.664H-0.200898C-0.383651 224.664 -0.438477 224.609 -0.438477 224.436V224.207C-0.438477 224.07 -0.420201 224.015 -0.365376 223.923L6.37819 215.745C6.48784 215.617 6.54267 215.59 6.70715 215.59H7.09093C7.27368 215.59 7.3285 215.645 7.3285 215.837V223.923H9.23827C9.40274 223.923 9.45757 223.978 9.45757 224.152H9.44843ZM6.52439 216.733L0.5758 223.914H6.52439V216.733Z" fill="white"/>
<path d="M11.6507 227.829V227.939C11.6507 228.296 11.5411 228.415 11.1573 228.415H11.0659C10.6821 228.415 10.5542 228.305 10.5542 227.939V227.829C10.5542 227.454 10.6821 227.354 11.0659 227.354H11.1573C11.5411 227.354 11.6507 227.464 11.6507 227.829Z" fill="white"/>
<path d="M17.7821 216.02V228.095C17.7821 228.268 17.7273 228.323 17.5628 228.323H17.179C16.9963 228.323 16.9415 228.268 16.9415 228.095V216.779L12.4458 219.194C12.2996 219.285 12.2082 219.267 12.1168 219.103L11.934 218.801C11.8427 218.673 11.8975 218.59 12.0254 218.517L16.9141 215.873C17.0237 215.8 17.0785 215.782 17.243 215.782H17.5537C17.7182 215.782 17.773 215.837 17.773 216.011L17.7821 216.02Z" fill="white"/>
<path d="M25.1287 215.544C28.0162 215.544 29.6792 217.099 29.6792 219.551V224.564C29.6792 227.034 28.0253 228.57 25.1287 228.57C22.232 228.57 20.5781 227.034 20.5781 224.564V219.551C20.5781 217.099 22.232 215.544 25.1287 215.544ZM25.1287 216.303C22.7437 216.303 21.4188 217.538 21.4188 219.551V224.564C21.4188 226.594 22.7437 227.811 25.1287 227.811C27.5136 227.811 28.8385 226.594 28.8385 224.564V219.551C28.8385 217.538 27.5136 216.303 25.1287 216.303Z" fill="white"/>
<path d="M36.4412 215.544C39.3287 215.544 40.9917 217.099 40.9917 219.551V224.564C40.9917 227.034 39.3378 228.57 36.4412 228.57C33.5445 228.57 31.8906 227.034 31.8906 224.564V219.551C31.8906 217.099 33.5445 215.544 36.4412 215.544ZM36.4412 216.303C34.0562 216.303 32.7313 217.538 32.7313 219.551V224.564C32.7313 226.594 34.0562 227.811 36.4412 227.811C38.8261 227.811 40.151 226.594 40.151 224.564V219.551C40.151 217.538 38.8261 216.303 36.4412 216.303Z" fill="white"/>
<path d="M42.4809 230.455H42.3347C42.2068 230.455 42.1702 230.418 42.1885 230.299L42.883 227.527C42.9378 227.317 43.0109 227.262 43.2119 227.262H43.5226C43.7602 227.262 43.815 227.354 43.7602 227.527L42.7642 230.263C42.7093 230.4 42.6545 230.455 42.49 230.455H42.4809Z" fill="white"/>
<path d="M50.1199 215.544C53.0074 215.544 54.6704 217.099 54.6704 219.551V224.564C54.6704 227.034 53.0165 228.57 50.1199 228.57C47.2232 228.57 45.5693 227.034 45.5693 224.564V219.551C45.5693 217.099 47.2232 215.544 50.1199 215.544ZM50.1199 216.303C47.735 216.303 46.41 217.538 46.41 219.551V224.564C46.41 226.594 47.735 227.811 50.1199 227.811C52.5048 227.811 53.8297 226.594 53.8297 224.564V219.551C53.8297 217.538 52.5048 216.303 50.1199 216.303Z" fill="white"/>
<path d="M434.933 222.14H74.9102V223.859H434.933V222.14Z" fill="white"/>
<path d="M6.79851 248.85C8.23312 249.271 8.92758 250.424 8.92758 251.924C8.92758 254.147 7.60262 255.574 4.63289 255.574C1.66317 255.574 0.612339 254.44 0.0183931 252.427C-0.0364327 252.272 0.00011781 252.198 0.164595 252.144L0.511825 252.015C0.676302 251.961 0.749403 251.997 0.804229 252.153C1.35249 253.9 2.23884 254.796 4.64203 254.796C7.04523 254.796 8.07778 253.699 8.07778 251.906C8.07778 250.296 7.15488 249.262 5.38218 249.262H2.34849C2.18401 249.262 2.12918 249.207 2.12918 249.052V248.75C2.12918 248.576 2.18401 248.521 2.34849 248.521H5.2908C6.98126 248.521 7.73055 247.359 7.73055 246.07C7.73055 244.286 6.698 243.298 4.64203 243.298C2.36676 243.298 1.46214 244.112 0.91388 245.877C0.859055 246.033 0.785953 246.051 0.621476 246.005L0.274247 245.896C0.109769 245.841 0.0732188 245.768 0.128045 245.594C0.731128 243.6 1.92816 242.539 4.66031 242.539C7.24625 242.539 8.55293 243.828 8.55293 246.015C8.55293 247.231 8.04123 248.384 6.80765 248.841L6.79851 248.85Z" fill="white"/>
<path d="M11.888 254.833V254.943C11.888 255.299 11.7784 255.418 11.3946 255.418H11.3032C10.9194 255.418 10.7915 255.309 10.7915 254.943V254.833C10.7915 254.458 10.9194 254.357 11.3032 254.357H11.3946C11.7784 254.357 11.888 254.467 11.888 254.833Z" fill="white"/>
<path d="M17.9465 250.012C14.9311 250.012 13.5239 248.795 13.5239 246.271C13.5239 243.92 15.2327 242.548 18.1019 242.548C21.1173 242.548 22.7072 244.222 22.7072 246.929V251.201C22.7072 254.064 21.1082 255.583 18.1019 255.583C15.7535 255.583 14.3737 254.65 13.6975 252.921C13.6427 252.765 13.6793 252.711 13.8437 252.656L14.191 252.528C14.3555 252.454 14.4286 252.509 14.4834 252.665C15.0682 254.055 16.1921 254.814 18.1019 254.814C20.5599 254.814 21.8666 253.58 21.8666 251.192V249.335C21.428 249.509 20.0116 250.003 17.9374 250.003L17.9465 250.012ZM18.111 243.307C15.7261 243.307 14.3646 244.368 14.3646 246.271C14.3646 248.283 15.4702 249.253 17.9831 249.253C20.1487 249.253 21.565 248.667 21.8757 248.548V246.92C21.8757 244.642 20.5873 243.298 18.111 243.298V243.307Z" fill="white"/>
<path d="M29.4597 242.548C32.3472 242.548 34.0103 244.103 34.0103 246.554V251.567C34.0103 254.037 32.3563 255.574 29.4597 255.574C26.5631 255.574 24.9092 254.037 24.9092 251.567V246.554C24.9092 244.103 26.5631 242.548 29.4597 242.548ZM29.4597 243.307C27.0748 243.307 25.7498 244.542 25.7498 246.554V251.567C25.7498 253.598 27.0748 254.814 29.4597 254.814C31.8446 254.814 33.1696 253.598 33.1696 251.567V246.554C33.1696 244.542 31.8446 243.307 29.4597 243.307Z" fill="white"/>
<path d="M40.7722 242.548C43.6597 242.548 45.3228 244.103 45.3228 246.554V251.567C45.3228 254.037 43.6688 255.574 40.7722 255.574C37.8756 255.574 36.2217 254.037 36.2217 251.567V246.554C36.2217 244.103 37.8756 242.548 40.7722 242.548ZM40.7722 243.307C38.3873 243.307 37.0623 244.542 37.0623 246.554V251.567C37.0623 253.598 38.3873 254.814 40.7722 254.814C43.1571 254.814 44.4821 253.598 44.4821 251.567V246.554C44.4821 244.542 43.1571 243.307 40.7722 243.307Z" fill="white"/>
<path d="M46.8032 257.458H46.657C46.529 257.458 46.4925 257.422 46.5108 257.303L47.2052 254.531C47.26 254.321 47.3331 254.266 47.5342 254.266H47.8449C48.0824 254.266 48.1373 254.357 48.0824 254.531L47.0864 257.266C47.0316 257.403 46.9768 257.458 46.8123 257.458H46.8032Z" fill="white"/>
<path d="M54.4421 242.548C57.3296 242.548 58.9927 244.103 58.9927 246.554V251.567C58.9927 254.037 57.3388 255.574 54.4421 255.574C51.5455 255.574 49.8916 254.037 49.8916 251.567V246.554C49.8916 244.103 51.5455 242.548 54.4421 242.548ZM54.4421 243.307C52.0572 243.307 50.7323 244.542 50.7323 246.554V251.567C50.7323 253.598 52.0572 254.814 54.4421 254.814C56.8271 254.814 58.152 253.598 58.152 251.567V246.554C58.152 244.542 56.8271 243.307 54.4421 243.307Z" fill="white"/>
<path d="M434.933 249.143H74.9102V250.863H434.933V249.143Z" fill="white"/>
<path d="M6.79851 275.854C8.23312 276.275 8.92758 277.427 8.92758 278.928C8.92758 281.151 7.60262 282.578 4.63289 282.578C1.66317 282.578 0.612339 281.443 0.0183931 279.431C-0.0364327 279.275 0.00011781 279.202 0.164595 279.147L0.511825 279.019C0.676302 278.964 0.749403 279.001 0.804229 279.156C1.35249 280.904 2.23884 281.8 4.64203 281.8C7.04523 281.8 8.07778 280.702 8.07778 278.909C8.07778 277.299 7.15488 276.266 5.38218 276.266H2.34849C2.18401 276.266 2.12918 276.211 2.12918 276.055V275.753C2.12918 275.58 2.18401 275.525 2.34849 275.525H5.2908C6.98126 275.525 7.73055 274.363 7.73055 273.073C7.73055 271.289 6.698 270.301 4.64203 270.301C2.36676 270.301 1.46214 271.116 0.91388 272.881C0.859055 273.037 0.785953 273.055 0.621476 273.009L0.274247 272.899C0.109769 272.844 0.0732188 272.771 0.128045 272.598C0.731128 270.603 1.92816 269.542 4.66031 269.542C7.24625 269.542 8.55293 270.832 8.55293 273.018C8.55293 274.235 8.04123 275.388 6.80765 275.845L6.79851 275.854Z" fill="white"/>
<path d="M11.888 281.837V281.946C11.888 282.303 11.7784 282.422 11.3946 282.422H11.3032C10.9194 282.422 10.7915 282.312 10.7915 281.946V281.837C10.7915 281.461 10.9194 281.361 11.3032 281.361H11.3946C11.7784 281.361 11.888 281.471 11.888 281.837Z" fill="white"/>
<path d="M21.2179 270.027V270.237C21.2179 270.365 21.1996 270.411 21.1448 270.558L15.9089 282.138C15.8175 282.312 15.7627 282.331 15.4886 282.331H15.1048C14.9403 282.331 14.922 282.239 14.9951 282.102L20.2493 270.558H12.9026C12.7199 270.558 12.665 270.503 12.665 270.347V270.027C12.665 269.853 12.7199 269.798 12.9026 269.798H20.9803C21.163 269.798 21.2179 269.853 21.2179 270.027Z" fill="white"/>
<path d="M27.093 269.552C29.9805 269.552 31.6436 271.107 31.6436 273.558V278.571C31.6436 281.041 29.9896 282.578 27.093 282.578C24.1964 282.578 22.5425 281.041 22.5425 278.571V273.558C22.5425 271.107 24.1964 269.552 27.093 269.552ZM27.093 270.311C24.7081 270.311 23.3831 271.546 23.3831 273.558V278.571C23.3831 280.602 24.7081 281.818 27.093 281.818C29.4779 281.818 30.8029 280.602 30.8029 278.571V273.558C30.8029 271.546 29.4779 270.311 27.093 270.311Z" fill="white"/>
<path d="M38.4055 269.552C41.293 269.552 42.9561 271.107 42.9561 273.558V278.571C42.9561 281.041 41.3021 282.578 38.4055 282.578C35.5089 282.578 33.855 281.041 33.855 278.571V273.558C33.855 271.107 35.5089 269.552 38.4055 269.552ZM38.4055 270.311C36.0206 270.311 34.6956 271.546 34.6956 273.558V278.571C34.6956 280.602 36.0206 281.818 38.4055 281.818C40.7904 281.818 42.1154 280.602 42.1154 278.571V273.558C42.1154 271.546 40.7904 270.311 38.4055 270.311Z" fill="white"/>
<path d="M44.4457 284.462H44.2995C44.1716 284.462 44.1351 284.425 44.1533 284.307L44.8478 281.535C44.9026 281.324 44.9757 281.27 45.1768 281.27H45.4874C45.725 281.27 45.7798 281.361 45.725 281.535L44.729 284.27C44.6742 284.407 44.6194 284.462 44.4549 284.462H44.4457Z" fill="white"/>
<path d="M52.0847 269.552C54.9722 269.552 56.6353 271.107 56.6353 273.558V278.571C56.6353 281.041 54.9813 282.578 52.0847 282.578C49.1881 282.578 47.5342 281.041 47.5342 278.571V273.558C47.5342 271.107 49.1881 269.552 52.0847 269.552ZM52.0847 270.311C49.6998 270.311 48.3748 271.546 48.3748 273.558V278.571C48.3748 280.602 49.6998 281.818 52.0847 281.818C54.4696 281.818 55.7946 280.602 55.7946 278.571V273.558C55.7946 271.546 54.4696 270.311 52.0847 270.311Z" fill="white"/>
<path d="M434.933 276.147H74.9102V277.866H434.933V276.147Z" fill="white"/>
<path d="M6.79851 302.857C8.23312 303.278 8.92758 304.431 8.92758 305.931C8.92758 308.154 7.60262 309.581 4.63289 309.581C1.66317 309.581 0.612339 308.447 0.0183931 306.434C-0.0364327 306.279 0.00011781 306.205 0.164595 306.151L0.511825 306.023C0.676302 305.968 0.749403 306.004 0.804229 306.16C1.35249 307.907 2.23884 308.803 4.64203 308.803C7.04523 308.803 8.07778 307.706 8.07778 305.913C8.07778 304.303 7.15488 303.269 5.38218 303.269H2.34849C2.18401 303.269 2.12918 303.214 2.12918 303.059V302.757C2.12918 302.583 2.18401 302.528 2.34849 302.528H5.2908C6.98126 302.528 7.73055 301.366 7.73055 300.077C7.73055 298.293 6.698 297.305 4.64203 297.305C2.36676 297.305 1.46214 298.119 0.91388 299.885C0.859055 300.04 0.785953 300.058 0.621476 300.013L0.274247 299.903C0.109769 299.848 0.0732188 299.775 0.128045 299.601C0.731128 297.607 1.92816 296.546 4.66031 296.546C7.24625 296.546 8.55293 297.835 8.55293 300.022C8.55293 301.238 8.04123 302.391 6.80765 302.848L6.79851 302.857Z" fill="white"/>
<path d="M11.888 308.84V308.95C11.888 309.306 11.7784 309.425 11.3946 309.425H11.3032C10.9194 309.425 10.7915 309.316 10.7915 308.95V308.84C10.7915 308.465 10.9194 308.364 11.3032 308.364H11.3946C11.7784 308.364 11.888 308.474 11.888 308.84Z" fill="white"/>
<path d="M22.1314 297.03V297.351C22.1314 297.506 22.0765 297.561 21.9121 297.561H15.5249L15.0862 301.924H18.4854C21.2816 301.924 22.5974 303.617 22.5974 305.666C22.5974 307.715 21.0166 309.599 18.2844 309.599C15.735 309.599 14.3004 308.611 13.6516 306.846C13.5968 306.69 13.6334 306.617 13.7796 306.562L14.1633 306.434C14.3095 306.361 14.4009 306.398 14.4558 306.571C14.9857 308.035 16.1645 308.831 18.2936 308.831C20.4226 308.831 21.7293 307.422 21.7293 305.657C21.7293 304.001 20.6419 302.675 18.458 302.675H14.474C14.2364 302.675 14.1633 302.583 14.1999 302.373L14.7482 297.186C14.7664 296.884 14.8761 296.802 15.1868 296.802H21.9121C22.0765 296.802 22.1314 296.857 22.1314 297.03Z" fill="white"/>
<path d="M29.0579 296.555C31.9453 296.555 33.6084 298.11 33.6084 300.562V305.574C33.6084 308.044 31.9545 309.581 29.0579 309.581C26.1612 309.581 24.5073 308.044 24.5073 305.574V300.562C24.5073 298.11 26.1612 296.555 29.0579 296.555ZM29.0579 297.314C26.6729 297.314 25.348 298.549 25.348 300.562V305.574C25.348 307.605 26.6729 308.822 29.0579 308.822C31.4428 308.822 32.7677 307.605 32.7677 305.574V300.562C32.7677 298.549 31.4428 297.314 29.0579 297.314Z" fill="white"/>
<path d="M40.3704 296.555C43.2578 296.555 44.9209 298.11 44.9209 300.562V305.574C44.9209 308.044 43.267 309.581 40.3704 309.581C37.4737 309.581 35.8198 308.044 35.8198 305.574V300.562C35.8198 298.11 37.4737 296.555 40.3704 296.555ZM40.3704 297.314C37.9854 297.314 36.6605 298.549 36.6605 300.562V305.574C36.6605 307.605 37.9854 308.822 40.3704 308.822C42.7553 308.822 44.0802 307.605 44.0802 305.574V300.562C44.0802 298.549 42.7553 297.314 40.3704 297.314Z" fill="white"/>
<path d="M46.4101 311.474H46.2639C46.136 311.474 46.0994 311.438 46.1177 311.319L46.8122 308.547C46.867 308.337 46.9401 308.282 47.1411 308.282H47.4518C47.6894 308.282 47.7442 308.373 47.6894 308.547L46.6934 311.282C46.6385 311.42 46.5837 311.474 46.4192 311.474H46.4101Z" fill="white"/>
<path d="M54.0491 296.555C56.9366 296.555 58.5996 298.11 58.5996 300.562V305.574C58.5996 308.044 56.9457 309.581 54.0491 309.581C51.1524 309.581 49.4985 308.044 49.4985 305.574V300.562C49.4985 298.11 51.1524 296.555 54.0491 296.555ZM54.0491 297.314C51.6642 297.314 50.3392 298.549 50.3392 300.562V305.574C50.3392 307.605 51.6642 308.822 54.0491 308.822C56.434 308.822 57.7589 307.605 57.7589 305.574V300.562C57.7589 298.549 56.434 297.314 54.0491 297.314Z" fill="white"/>
<path d="M434.933 303.15H74.9102V304.87H434.933V303.15Z" fill="white"/>
<path d="M106.746 0H43.0841C39.7382 0 37.0259 2.71532 37.0259 6.06484V69.7959C37.0259 73.1454 39.7382 75.8608 43.0841 75.8608H106.746C110.092 75.8608 112.804 73.1454 112.804 69.7959V6.06484C112.804 2.71532 110.092 0 106.746 0Z" fill="#BFA130"/>
<path d="M76.9024 60.9502H70.8807L68.4867 54.9037H57.5215L55.2554 60.9502H49.3799L60.0618 34.3125H65.919L76.9024 60.9502ZM66.7048 50.4122L62.9218 40.5328L59.2211 50.4122H66.7048Z" fill="white"/>
<path d="M92.875 60.9503V58.0597C92.1532 59.0842 91.2029 59.8983 90.0241 60.4929C88.8454 61.0875 87.6026 61.3802 86.296 61.3802C84.9893 61.3802 83.7648 61.0966 82.7049 60.5295C81.6449 59.9624 80.8773 59.1574 80.4022 58.1328C79.927 57.0992 79.6895 55.6813 79.6895 53.8609V41.6489H84.9436V50.5129C84.9436 53.2297 85.0441 54.8855 85.236 55.4983C85.4279 56.1112 85.7843 56.596 86.296 56.9528C86.8077 57.3096 87.4564 57.4925 88.2423 57.4925C89.1378 57.4925 89.9419 57.2547 90.6546 56.779C91.3673 56.3033 91.8516 55.7087 92.1166 54.9952C92.3816 54.2817 92.5095 52.5528 92.5095 49.7903V41.6489H97.7637V60.9411H92.8842L92.875 60.9503Z" fill="white"/>
<path d="M65.2518 15.7795V14.7184H69.1993V18.0664C68.5962 18.533 67.9657 18.8897 67.3261 19.1276C66.6864 19.3654 66.0194 19.4843 65.3432 19.4843C64.4295 19.4843 63.5979 19.2922 62.8486 18.9172C62.0994 18.5421 61.5328 17.9841 61.1582 17.2706C60.7744 16.5479 60.5825 15.743 60.5825 14.8556C60.5825 13.9683 60.7744 13.1542 61.149 12.3949C61.5237 11.6357 62.0719 11.0685 62.7847 10.6935C63.4974 10.3184 64.3198 10.1355 65.2427 10.1355C65.9189 10.1355 66.522 10.2453 67.0702 10.4557C67.6185 10.6661 68.0388 10.9588 68.3495 11.343C68.6602 11.7272 68.8978 12.212 69.0531 12.8249L67.9383 13.1176C67.8012 12.6602 67.6276 12.2943 67.4175 12.029C67.2073 11.7638 66.9149 11.5534 66.5311 11.3979C66.1473 11.2424 65.7179 11.16 65.2518 11.16C64.6853 11.16 64.201 11.2424 63.7898 11.407C63.3786 11.5717 63.0497 11.7912 62.7938 12.0656C62.538 12.3401 62.3461 12.6328 62.209 12.9621C61.9714 13.5201 61.8526 14.1238 61.8526 14.7825C61.8526 15.5874 61.9989 16.2644 62.2821 16.8041C62.5654 17.3438 62.9857 17.7463 63.534 18.0116C64.0822 18.2768 64.6579 18.4049 65.2701 18.4049C65.8001 18.4049 66.3209 18.3043 66.8327 18.103C67.3444 17.9018 67.7281 17.6914 67.984 17.4627V15.7795H65.2518Z" fill="white"/>
<path d="M71.0908 16.054C71.0908 14.8374 71.438 13.9409 72.1325 13.3555C72.7082 12.8706 73.4209 12.6328 74.2524 12.6328C75.1753 12.6328 75.9338 12.9255 76.5277 13.5201C77.1125 14.1147 77.4141 14.9289 77.4141 15.9625C77.4141 16.8041 77.2861 17.4719 77.0211 17.9475C76.7653 18.4324 76.3815 18.8074 75.8881 19.0727C75.3946 19.338 74.8464 19.4752 74.2616 19.4752C73.3204 19.4752 72.5528 19.1825 71.968 18.597C71.3832 18.0116 71.1 17.1609 71.1 16.054H71.0908ZM72.2696 16.054C72.2696 16.8956 72.4615 17.5176 72.8361 17.9384C73.2107 18.3592 73.6859 18.5604 74.2616 18.5604C74.8372 18.5604 75.3033 18.35 75.6779 17.9293C76.0525 17.5085 76.2444 16.8681 76.2444 16.0083C76.2444 15.2033 76.0525 14.5812 75.6779 14.1696C75.3033 13.7488 74.8281 13.5476 74.2616 13.5476C73.695 13.5476 73.2107 13.758 72.8361 14.1696C72.4615 14.5812 72.2696 15.2124 72.2696 16.054Z" fill="white"/>
<path d="M79.3696 19.3288V10.291H80.5118V19.3288H79.3696Z" fill="white"/>
<path d="M87.3101 19.3288V18.5055C86.8806 19.155 86.2501 19.4843 85.4277 19.4843C84.8886 19.4843 84.3952 19.338 83.9474 19.0544C83.4997 18.7617 83.1433 18.3683 82.8966 17.8469C82.6499 17.3346 82.522 16.74 82.522 16.0723C82.522 15.4045 82.6316 14.8282 82.8601 14.2976C83.0885 13.7671 83.4175 13.3554 83.8652 13.0719C84.3129 12.7883 84.8155 12.6419 85.3729 12.6419C85.775 12.6419 86.1405 12.7243 86.4603 12.8889C86.7801 13.0536 87.036 13.2731 87.237 13.5384V10.291H88.3701V19.3288H87.3101ZM83.7007 16.0631C83.7007 16.9047 83.8835 17.5267 84.249 17.9475C84.6145 18.3592 85.044 18.5696 85.5374 18.5696C86.0308 18.5696 86.4603 18.3683 86.8075 17.975C87.1548 17.5816 87.3284 16.9687 87.3284 16.1546C87.3284 15.2581 87.1547 14.5995 86.7984 14.1787C86.442 13.7579 86.0034 13.5475 85.4826 13.5475C84.9617 13.5475 84.5505 13.7488 84.2124 14.1513C83.8743 14.5538 83.7007 15.185 83.7007 16.054V16.0631Z" fill="white"/>
<path d="M67.6733 198.146C66.86 198.146 66.0742 197.679 65.7178 196.883C65.2244 195.804 65.6995 194.523 66.7869 194.029L105.649 176.31C106.097 176.109 106.6 176.063 107.084 176.182L145.508 186.153L184.169 152.463C184.845 151.868 185.832 151.767 186.618 152.206L225.69 173.822L263.63 140.36C263.794 140.214 263.986 140.095 264.196 140.004L301.085 123.986C301.542 123.794 302.044 123.757 302.519 123.886L344.964 135.713L380.893 140.479L418.732 132.411C419.883 132.164 421.034 132.905 421.281 134.067C421.528 135.229 420.788 136.372 419.627 136.619L381.423 144.769C381.185 144.824 380.938 144.833 380.692 144.797L344.251 139.958C344.15 139.949 344.05 139.921 343.958 139.894L302.099 128.231L266.225 143.809L227.399 178.048C226.723 178.652 225.736 178.753 224.941 178.314L185.859 156.689L147.472 190.132C146.933 190.599 146.211 190.773 145.526 190.59L106.746 180.527L68.5779 197.926C68.2855 198.054 67.984 198.118 67.6916 198.118L67.6733 198.146Z" fill="#BFA130"/>
<path d="M341.446 271.701C341.308 271.701 341.162 271.692 341.025 271.655C340.349 271.518 339.782 271.07 339.499 270.457L300.079 185.613L264.424 183.125L223.808 216.12C222.967 216.807 221.752 216.752 220.966 216.002L184.708 181.296L149.153 197.944C148.797 198.109 148.395 198.182 148.002 198.136L107.605 193.608C107.285 193.572 106.965 193.462 106.691 193.288L66.5127 167.794C65.5075 167.154 65.2151 165.827 65.8456 164.821C66.4761 163.815 67.8102 163.522 68.8154 164.153L108.573 189.382L147.874 193.791L184.205 176.768C185.009 176.393 185.96 176.548 186.599 177.161L222.556 211.574L262.359 179.247C262.78 178.899 263.319 178.734 263.867 178.771L301.633 181.405C302.41 181.46 303.104 181.936 303.433 182.64L342.149 265.975L377.393 233.711L417.169 137.012C417.617 135.915 418.878 135.384 419.974 135.841C421.071 136.29 421.592 137.552 421.144 138.65L381.185 235.797C381.066 236.09 380.883 236.355 380.646 236.565L342.88 271.125C342.478 271.491 341.957 271.692 341.427 271.692L341.446 271.701Z" fill="#BCBCBC"/>
</g>
<defs>
<clipPath id="clip0_17_2742">
<rect width="441" height="433" fill="white"/>
</clipPath>
</defs>
</svg>
