<svg width="420" height="317" viewBox="0 0 420 317" fill="none" xmlns="http://www.w3.org/2000/svg">
<g clip-path="url(#clip0_17_623)">
<path d="M208.097 156.772H209.655C210.24 156.772 210.423 156.984 210.423 157.571V161.973C210.423 162.559 210.24 162.771 209.655 162.771H208.097C207.512 162.771 207.329 162.566 207.329 161.973V157.571C207.329 156.984 207.512 156.772 208.097 156.772Z" fill="black"/>
<path d="M201.472 150.287H212.967C213.538 150.287 213.735 150.477 213.735 151.085V153.226C213.735 153.834 213.531 154.046 212.967 154.046H205.313L206.011 155.317C206.342 155.946 206.215 156.264 205.701 156.554L204.143 157.444C203.629 157.727 203.389 157.578 203.079 157.063L201.021 153.36C200.767 152.922 200.711 152.717 200.711 152.223V151.085C200.711 150.477 200.915 150.287 201.479 150.287H201.472Z" fill="black"/>
<path d="M200.429 143.758C200.429 141.553 201.529 140.38 203.291 140.38H204.686C206.427 140.38 207.512 141.56 207.512 143.758C207.512 145.955 206.427 147.135 204.686 147.135H203.291C201.529 147.135 200.429 145.962 200.429 143.758ZM201.437 132.749L213.059 141.553C213.644 142.005 213.735 142.182 213.735 143.129V144.853C213.735 145.425 213.369 145.552 212.967 145.249L201.345 136.424C200.775 136.007 200.704 135.816 200.704 134.947V133.124C200.704 132.594 201.049 132.46 201.437 132.742V132.749ZM202.797 143.758C202.797 144.309 203.037 144.57 203.46 144.57H204.489C204.926 144.57 205.165 144.302 205.165 143.758C205.165 143.214 204.926 142.959 204.489 142.959H203.46C203.037 142.959 202.797 143.228 202.797 143.758ZM206.906 134.325C206.906 132.121 208.005 130.948 209.789 130.948H211.163C212.925 130.948 214.01 132.128 214.01 134.325C214.01 136.523 212.925 137.703 211.163 137.703H209.789C208.005 137.703 206.906 136.523 206.906 134.325ZM209.295 134.304C209.295 134.855 209.514 135.124 209.958 135.124H210.987C211.409 135.124 211.649 134.855 211.649 134.304C211.649 133.753 211.409 133.506 210.987 133.506H209.958C209.521 133.506 209.295 133.774 209.295 134.304Z" fill="black"/>
<path d="M414.087 91.1606H415.645C416.23 91.1606 416.413 91.3726 416.413 91.9591V96.361C416.413 96.9474 416.23 97.1594 415.645 97.1594H414.087C413.502 97.1594 413.319 96.9545 413.319 96.361V91.9591C413.319 91.3726 413.502 91.1606 414.087 91.1606Z" fill="black"/>
<path d="M412.896 81.8834C413.559 80.5904 414.658 80.0039 415.983 80.0039C418.513 80.0039 420 81.6573 420 85.1265C420 88.2001 418.844 89.9453 416.787 90.7225C416.251 90.9344 415.976 90.779 415.793 90.2067L415.151 88.3484C414.947 87.7761 415.081 87.55 415.645 87.3239C416.434 87.0201 416.836 86.469 416.836 85.4091C416.836 84.4199 416.49 83.9324 415.75 83.9324C414.961 83.9324 414.665 84.3705 414.665 85.183V86.3418C414.665 86.9494 414.461 87.1402 413.897 87.1402H412.375C411.79 87.1402 411.585 86.9494 411.585 86.3418V85.508C411.585 84.7873 411.31 84.215 410.577 84.215C409.845 84.215 409.57 84.6319 409.57 85.508C409.57 86.5679 409.936 86.9494 410.761 87.2956C411.332 87.5006 411.437 87.7478 411.254 88.3202L410.613 90.1784C410.429 90.7437 410.155 90.8779 409.619 90.6872C407.561 89.8887 406.405 88.1859 406.405 85.0912C406.405 81.9964 407.913 80.4066 410.204 80.4066C411.36 80.4066 412.276 80.9366 412.882 81.8834H412.896Z" fill="black"/>
<path d="M407.462 69.8366H408.71C409.147 69.8366 409.351 69.8578 409.795 70.0627L419.049 74.5565C419.62 74.8391 419.725 75.0511 419.725 76.0544V78.1388C419.725 78.7252 419.429 78.7676 418.957 78.5344L409.908 74.1679V79.2127C409.908 79.8204 409.703 80.0253 409.119 80.0253H407.469C406.898 80.0253 406.701 79.8204 406.701 79.2127V70.6139C406.701 70.0062 406.906 69.8154 407.469 69.8154L407.462 69.8366Z" fill="black"/>
<path d="M406.419 64.2265C406.419 62.022 407.519 60.8491 409.281 60.8491H410.676C412.417 60.8491 413.502 62.022 413.502 64.2265C413.502 66.431 412.417 67.6039 410.676 67.6039H409.281C407.519 67.6039 406.419 66.4239 406.419 64.2265ZM407.427 53.2182L419.049 62.022C419.634 62.4742 419.725 62.6509 419.725 63.5977V65.3217C419.725 65.8869 419.359 66.0212 418.957 65.7174L407.336 56.8924C406.765 56.4755 406.694 56.2847 406.694 55.4086V53.5857C406.694 53.0557 407.04 52.9215 407.427 53.2041V53.2182ZM408.787 64.2265C408.787 64.7776 409.027 65.0461 409.45 65.0461H410.479C410.916 65.0461 411.156 64.7776 411.156 64.2265C411.156 63.6754 410.916 63.4281 410.479 63.4281H409.45C409.027 63.4281 408.787 63.6966 408.787 64.2265ZM412.896 54.7939C412.896 52.5894 413.996 51.4165 415.779 51.4165H417.153C418.915 51.4165 420 52.5965 420 54.7939C420 56.9913 418.915 58.1713 417.153 58.1713H415.779C413.996 58.1713 412.896 56.9913 412.896 54.7939ZM415.285 54.7727C415.285 55.3238 415.504 55.5852 415.948 55.5852H416.977C417.4 55.5852 417.639 55.3167 417.639 54.7727C417.639 54.2286 417.4 53.9743 416.977 53.9743H415.948C415.511 53.9743 415.285 54.2428 415.285 54.7727Z" fill="black"/>
<path opacity="0.65" d="M23.9907 276.048L68.7999 261.471L114.687 238.706L158.947 206.232L206.455 180.796L252.879 145.079L298.766 115.856L392.691 12.4854V296.616H23.9907V276.048Z" fill="black"/>
<path opacity="0.65" d="M23.9907 296.616V273.886L113.066 230.043L159.49 201.901L247.48 169.434L392.691 133.71V296.616H23.9907Z" fill="#BC9E30"/>
<path d="M24.4627 274.833L23.5254 272.932L112.559 229.118L159.031 200.947L159.123 200.912L247.17 168.417L247.226 168.403L392.444 132.686L392.944 134.742L247.79 170.445L159.948 202.862L113.531 230.997L24.4627 274.833Z" fill="#BC9E30"/>
<path d="M24.3219 277.058L23.6665 275.037L68.3982 260.489L114.131 237.794L158.383 205.335L158.454 205.299L205.877 179.905L252.315 144.182L298.075 115.036L391.908 11.7715L393.473 13.1987L299.45 116.668L299.33 116.746L253.485 145.948L207.026 181.693L206.949 181.728L159.511 207.129L115.237 239.617L115.153 239.653L69.2016 262.453L69.1241 262.482L24.3219 277.058Z" fill="black"/>
<path d="M4.63733 250.866V260.327C4.63733 260.468 4.59505 260.503 4.46819 260.503H4.17219C4.03123 260.503 3.98895 260.461 3.98895 260.327V251.459L0.472148 253.353C0.359385 253.424 0.288908 253.409 0.218431 253.282L0.0774775 253.049C0.00700061 252.95 0.0492867 252.88 0.147954 252.83L3.97485 250.753C4.05942 250.696 4.10171 250.682 4.22857 250.682H4.46819C4.59505 250.682 4.63733 250.725 4.63733 250.859V250.866Z" fill="#545454"/>
<path d="M10.3813 250.491C12.6437 250.491 13.9404 251.707 13.9404 253.628V257.557C13.9404 259.493 12.6437 260.694 10.3813 260.694C8.11904 260.694 6.82227 259.493 6.82227 257.557V253.628C6.82227 251.707 8.11904 250.491 10.3813 250.491ZM10.3813 251.085C8.52076 251.085 7.4777 252.053 7.4777 253.628V257.557C7.4777 259.147 8.51371 260.1 10.3813 260.1C12.249 260.1 13.285 259.147 13.285 257.557V253.628C13.285 252.053 12.249 251.085 10.3813 251.085Z" fill="#545454"/>
<path d="M19.2329 250.491C21.4952 250.491 22.792 251.707 22.792 253.628V257.557C22.792 259.493 21.4952 260.694 19.2329 260.694C16.9706 260.694 15.6738 259.493 15.6738 257.557V253.628C15.6738 251.707 16.9706 250.491 19.2329 250.491ZM19.2329 251.085C17.3723 251.085 16.3293 252.053 16.3293 253.628V257.557C16.3293 259.147 17.3653 260.1 19.2329 260.1C21.1006 260.1 22.1366 259.147 22.1366 257.557V253.628C22.1366 252.053 21.1006 251.085 19.2329 251.085Z" fill="#545454"/>
<path d="M32.2781 256.716V256.949C32.2781 257.077 32.2359 257.119 32.109 257.119H28.2257C28.0848 257.119 28.0425 257.077 28.0425 256.949V256.716C28.0425 256.589 28.0848 256.554 28.2257 256.554H32.109C32.2359 256.554 32.2781 256.596 32.2781 256.716Z" fill="#545454"/>
<path d="M4.05249 166.982C5.94127 166.982 7.19576 168.297 7.19576 169.872C7.19576 171.999 5.63118 172.628 3.59439 173.398C2.31171 173.871 1.06427 174.338 1.06427 175.708V176.401H6.97024C7.11119 176.401 7.15348 176.443 7.15348 176.57V176.818C7.15348 176.959 7.11119 176.994 6.97024 176.994H0.570935C0.444077 176.994 0.387695 176.938 0.387695 176.818V175.822C0.387695 173.984 1.86771 173.384 3.4182 172.805C4.98279 172.225 6.51919 171.738 6.51919 169.901C6.51919 168.615 5.52546 167.576 4.04545 167.576C2.56543 167.576 1.61399 168.198 1.04313 169.441C0.986749 169.554 0.930367 169.583 0.817604 169.54L0.535697 169.441C0.408838 169.385 0.380648 169.342 0.422934 169.222C1.07837 167.753 2.17076 166.982 4.06659 166.982H4.05249Z" fill="#545454"/>
<path d="M12.376 166.982C14.6383 166.982 15.9351 168.198 15.9351 170.12V174.048C15.9351 175.984 14.6383 177.185 12.376 177.185C10.1137 177.185 8.81689 175.984 8.81689 174.048V170.12C8.81689 168.198 10.1137 166.982 12.376 166.982ZM12.376 167.576C10.5154 167.576 9.47233 168.544 9.47233 170.12V174.048C9.47233 175.638 10.5083 176.592 12.376 176.592C14.2436 176.592 15.2796 175.638 15.2796 174.048V170.12C15.2796 168.544 14.2436 167.576 12.376 167.576Z" fill="#545454"/>
<path d="M21.2207 166.982C23.483 166.982 24.7798 168.198 24.7798 170.12V174.048C24.7798 175.984 23.483 177.185 21.2207 177.185C18.9584 177.185 17.6616 175.984 17.6616 174.048V170.12C17.6616 168.198 18.9584 166.982 21.2207 166.982ZM21.2207 167.576C19.3601 167.576 18.3171 168.544 18.3171 170.12V174.048C18.3171 175.638 19.3531 176.592 21.2207 176.592C23.0883 176.592 24.1244 175.638 24.1244 174.048V170.12C24.1244 168.544 23.0883 167.576 21.2207 167.576Z" fill="#545454"/>
<path d="M34.2659 173.207V173.441C34.2659 173.568 34.2236 173.61 34.0968 173.61H30.2135C30.0726 173.61 30.0303 173.568 30.0303 173.441V173.207C30.0303 173.08 30.0726 173.045 30.2135 173.045H34.0968C34.2236 173.045 34.2659 173.087 34.2659 173.207Z" fill="#545454"/>
<path d="M5.65922 88.405C6.77981 88.7371 7.32248 89.6344 7.32248 90.8143C7.32248 92.5596 6.28647 93.6759 3.96778 93.6759C1.64909 93.6759 0.824508 92.7927 0.352313 91.21C0.310027 91.0828 0.338218 91.0334 0.465076 90.991L0.732888 90.8921C0.859747 90.8497 0.916128 90.8779 0.958415 91.0051C1.38832 92.3759 2.079 93.0824 3.96073 93.0824C5.84246 93.0824 6.65295 92.2275 6.65295 90.8143C6.65295 89.5567 5.92704 88.737 4.54569 88.737H2.17062C2.04376 88.737 2.00147 88.6947 2.00147 88.5675V88.3343C2.00147 88.193 2.04376 88.1577 2.17062 88.1577H4.47521C5.80018 88.1577 6.38514 87.2462 6.38514 86.2358C6.38514 84.8368 5.57465 84.0667 3.96778 84.0667C2.19176 84.0667 1.47994 84.7026 1.05003 86.0874C1.00775 86.2146 0.951367 86.2287 0.824508 86.1864L0.556696 86.1016C0.429838 86.0592 0.401647 86.0026 0.443933 85.8684C0.916128 84.3069 1.85347 83.4731 3.98892 83.4731C6.01161 83.4731 7.03352 84.4835 7.03352 86.2005C7.03352 87.1543 6.6318 88.0517 5.66627 88.412L5.65922 88.405Z" fill="#545454"/>
<path d="M12.4741 83.4663C14.7364 83.4663 16.0332 84.6816 16.0332 86.6035V90.532C16.0332 92.4679 14.7364 93.6691 12.4741 93.6691C10.2118 93.6691 8.91504 92.4679 8.91504 90.532V86.6035C8.91504 84.6816 10.2118 83.4663 12.4741 83.4663ZM12.4741 84.0598C10.6135 84.0598 9.57047 85.0278 9.57047 86.6035V90.532C9.57047 92.1217 10.6065 93.0756 12.4741 93.0756C14.3418 93.0756 15.3778 92.1217 15.3778 90.532V86.6035C15.3778 85.0278 14.3418 84.0598 12.4741 84.0598Z" fill="#545454"/>
<path d="M21.3193 83.4663C23.5816 83.4663 24.8784 84.6816 24.8784 86.6035V90.532C24.8784 92.4679 23.5816 93.6691 21.3193 93.6691C19.057 93.6691 17.7603 92.4679 17.7603 90.532V86.6035C17.7603 84.6816 19.057 83.4663 21.3193 83.4663ZM21.3193 84.0598C19.4587 84.0598 18.4157 85.0278 18.4157 86.6035V90.532C18.4157 92.1217 19.4517 93.0756 21.3193 93.0756C23.187 93.0756 24.223 92.1217 24.223 90.532V86.6035C24.223 85.0278 23.187 84.0598 21.3193 84.0598Z" fill="#545454"/>
<path d="M34.3646 89.6913V89.9245C34.3646 90.0517 34.3223 90.0941 34.1954 90.0941H30.3121C30.1712 90.0941 30.1289 90.0517 30.1289 89.9245V89.6913C30.1289 89.5641 30.1712 89.5288 30.3121 89.5288H34.1954C34.3223 89.5288 34.3646 89.5712 34.3646 89.6913Z" fill="#545454"/>
<path d="M7.73836 6.74777V6.96681C7.73836 7.10812 7.69608 7.14345 7.56922 7.14345H6.07511V9.82839C6.07511 9.96971 6.03282 10.005 5.89187 10.005H5.63815C5.4972 10.005 5.45491 9.96264 5.45491 9.82839V7.14345H0.18324C0.0422861 7.14345 0 7.10106 0 6.96681V6.79017C0 6.67712 0.0140954 6.64179 0.0563815 6.57113L5.3351 0.169662C5.41967 0.070743 5.46196 0.0424805 5.58882 0.0424805H5.88482C6.02577 0.0424805 6.06806 0.0848743 6.06806 0.233253V6.57113H7.56217C7.68903 6.57113 7.73132 6.61353 7.73132 6.74777H7.73836ZM5.44786 0.939817L0.796389 6.57113H5.44786V0.939817Z" fill="#545454"/>
<path d="M12.5874 0C14.8497 0 16.1465 1.21529 16.1465 3.13714V7.06564C16.1465 9.00163 14.8497 10.2028 12.5874 10.2028C10.3251 10.2028 9.02832 9.00163 9.02832 7.06564V3.13714C9.02832 1.21529 10.3251 0 12.5874 0ZM12.5874 0.593514C10.7268 0.593514 9.68375 1.56151 9.68375 3.13714V7.06564C9.68375 8.65541 10.7198 9.60927 12.5874 9.60927C14.455 9.60927 15.4911 8.65541 15.4911 7.06564V3.13714C15.4911 1.56151 14.455 0.593514 12.5874 0.593514Z" fill="#545454"/>
<path d="M21.439 0C23.7013 0 24.998 1.21529 24.998 3.13714V7.06564C24.998 9.00163 23.7013 10.2028 21.439 10.2028C19.1767 10.2028 17.8799 9.00163 17.8799 7.06564V3.13714C17.8799 1.21529 19.1767 0 21.439 0ZM21.439 0.593514C19.5784 0.593514 18.5353 1.56151 18.5353 3.13714V7.06564C18.5353 8.65541 19.5713 9.60927 21.439 9.60927C23.3066 9.60927 24.3426 8.65541 24.3426 7.06564V3.13714C24.3426 1.56151 23.3066 0.593514 21.439 0.593514Z" fill="#545454"/>
<path d="M34.4774 6.22501V6.45818C34.4774 6.58536 34.4351 6.62775 34.3082 6.62775H30.4249C30.284 6.62775 30.2417 6.58536 30.2417 6.45818V6.22501C30.2417 6.09783 30.284 6.0625 30.4249 6.0625H34.3082C34.4351 6.0625 34.4774 6.10489 34.4774 6.22501Z" fill="#545454"/>
<path d="M24.8506 298.721V307.263C24.8506 307.525 24.766 307.617 24.4911 307.617H23.5045C23.2296 307.617 23.145 307.525 23.145 307.263V298.721C23.145 298.46 23.2296 298.368 23.5045 298.368H24.4911C24.766 298.368 24.8506 298.46 24.8506 298.721Z" fill="#545454"/>
<path d="M12.4323 310.174C14.0251 310.174 14.9343 311.135 14.9343 312.315C14.9343 313.742 14.2295 314.272 12.7918 314.767C12.2773 314.929 11.6712 315.014 11.6712 315.247V315.304H14.3916C14.6946 315.304 14.8003 315.403 14.8003 315.7V316.477C14.8003 316.76 14.6946 316.865 14.3916 316.865H10.1207C9.81763 316.865 9.71191 316.767 9.71191 316.477V315.742C9.71191 314.491 10.6704 314.053 11.5514 313.686C12.3125 313.375 13.0102 313.107 13.0102 312.407C13.0102 312.054 12.7706 311.799 12.3618 311.799C11.9531 311.799 11.7487 311.976 11.5373 312.407C11.4034 312.69 11.3117 312.746 11.0228 312.654L10.015 312.294C9.74011 312.195 9.65553 312.061 9.7683 311.792C10.1559 310.831 10.9523 310.181 12.4112 310.181L12.4323 310.174Z" fill="#545454"/>
<path d="M18.303 310.174C20.0226 310.174 21.0093 311.107 21.0093 312.57V314.59C21.0093 316.074 20.0226 316.993 18.303 316.993C16.5834 316.993 15.5967 316.074 15.5967 314.59V312.57C15.5967 311.107 16.5834 310.174 18.303 310.174ZM18.303 311.785C17.7885 311.785 17.4784 312.047 17.4784 312.499V314.661C17.4784 315.12 17.7885 315.382 18.303 315.382C18.8175 315.382 19.1276 315.12 19.1276 314.661V312.499C19.1276 312.047 18.8175 311.785 18.303 311.785Z" fill="#545454"/>
<path d="M24.385 310.174C25.9777 310.174 26.8869 311.135 26.8869 312.315C26.8869 313.742 26.1821 314.272 24.7444 314.767C24.2299 314.929 23.6238 315.014 23.6238 315.247V315.304H26.3442C26.6473 315.304 26.753 315.403 26.753 315.7V316.477C26.753 316.76 26.6473 316.865 26.3442 316.865H22.0733C21.7703 316.865 21.6646 316.767 21.6646 316.477V315.742C21.6646 314.491 22.623 314.053 23.504 313.686C24.2651 313.375 24.9629 313.107 24.9629 312.407C24.9629 312.054 24.7232 311.799 24.3145 311.799C23.9057 311.799 23.7013 311.976 23.4899 312.407C23.356 312.69 23.2644 312.746 22.9754 312.654L21.9676 312.294C21.6927 312.195 21.6082 312.061 21.7209 311.792C22.1086 310.831 22.9049 310.181 24.3638 310.181L24.385 310.174Z" fill="#545454"/>
<path d="M30.1994 310.174C31.7922 310.174 32.7013 311.135 32.7013 312.315C32.7013 313.742 31.9966 314.272 30.5588 314.767C30.0444 314.929 29.4383 315.014 29.4383 315.247V315.304H32.1587C32.4617 315.304 32.5674 315.403 32.5674 315.7V316.477C32.5674 316.76 32.4617 316.865 32.1587 316.865H27.8878C27.5847 316.865 27.479 316.767 27.479 316.477V315.742C27.479 314.491 28.4375 314.053 29.3184 313.686C30.0796 313.375 30.7773 313.107 30.7773 312.407C30.7773 312.054 30.5377 311.799 30.1289 311.799C29.7202 311.799 29.5158 311.976 29.3044 312.407C29.1704 312.69 29.0788 312.746 28.7899 312.654L27.7821 312.294C27.5072 312.195 27.4226 312.061 27.5354 311.792C27.923 310.831 28.7194 310.181 30.1783 310.181L30.1994 310.174Z" fill="#545454"/>
<path d="M38.2622 310.704V311.531C38.2622 311.828 38.1564 311.927 37.8534 311.927H35.3515V312.746H37.353C37.6561 312.746 37.7618 312.845 37.7618 313.135V313.962C37.7618 314.258 37.6561 314.357 37.353 314.357H35.3515V315.24H37.938C38.234 315.24 38.3397 315.332 38.3397 315.629V316.47C38.3397 316.752 38.234 316.858 37.938 316.858H33.8785C33.5754 316.858 33.4697 316.76 33.4697 316.47V310.697C33.4697 310.415 33.5754 310.309 33.8785 310.309H37.8534C38.1564 310.309 38.2622 310.408 38.2622 310.697V310.704Z" fill="#545454"/>
<path d="M70.5542 298.721V307.263C70.5542 307.525 70.4696 307.617 70.1947 307.617H69.2081C68.9332 307.617 68.8486 307.525 68.8486 307.263V298.721C68.8486 298.46 68.9332 298.368 69.2081 298.368H70.1947C70.4696 298.368 70.5542 298.46 70.5542 298.721Z" fill="#545454"/>
<path d="M58.0729 310.174C59.6657 310.174 60.5749 311.135 60.5749 312.315C60.5749 313.742 59.8701 314.272 58.4324 314.767C57.9179 314.929 57.3118 315.014 57.3118 315.247V315.304H60.0322C60.3353 315.304 60.441 315.403 60.441 315.7V316.477C60.441 316.76 60.3353 316.865 60.0322 316.865H55.7613C55.4583 316.865 55.3525 316.767 55.3525 316.477V315.742C55.3525 314.491 56.311 314.053 57.192 313.686C57.9531 313.375 58.6509 313.107 58.6509 312.407C58.6509 312.054 58.4112 311.799 58.0025 311.799C57.5937 311.799 57.3893 311.976 57.1779 312.407C57.044 312.69 56.9524 312.746 56.6634 312.654L55.6556 312.294C55.3807 312.195 55.2962 312.061 55.4089 311.792C55.7965 310.831 56.5929 310.181 58.0518 310.181L58.0729 310.174Z" fill="#545454"/>
<path d="M63.9436 310.174C65.6633 310.174 66.6499 311.107 66.6499 312.57V314.59C66.6499 316.074 65.6633 316.993 63.9436 316.993C62.224 316.993 61.2373 316.074 61.2373 314.59V312.57C61.2373 311.107 62.224 310.174 63.9436 310.174ZM63.9436 311.785C63.4291 311.785 63.119 312.047 63.119 312.499V314.661C63.119 315.12 63.4291 315.382 63.9436 315.382C64.4581 315.382 64.7682 315.12 64.7682 314.661V312.499C64.7682 312.047 64.4581 311.785 63.9436 311.785Z" fill="#545454"/>
<path d="M70.0329 310.174C71.6257 310.174 72.5348 311.135 72.5348 312.315C72.5348 313.742 71.8301 314.272 70.3923 314.767C69.8779 314.929 69.2718 315.014 69.2718 315.247V315.304H71.9922C72.2952 315.304 72.4009 315.403 72.4009 315.7V316.477C72.4009 316.76 72.2952 316.865 71.9922 316.865H67.7213C67.4182 316.865 67.3125 316.767 67.3125 316.477V315.742C67.3125 314.491 68.271 314.053 69.1519 313.686C69.9131 313.375 70.6108 313.107 70.6108 312.407C70.6108 312.054 70.3712 311.799 69.9624 311.799C69.5537 311.799 69.3493 311.976 69.1378 312.407C69.0039 312.69 68.9123 312.746 68.6234 312.654L67.6156 312.294C67.3407 312.195 67.2561 312.061 67.3689 311.792C67.7565 310.831 68.5529 310.181 70.0118 310.181L70.0329 310.174Z" fill="#545454"/>
<path d="M77.5315 313.432C78.1799 313.764 78.4689 314.315 78.4689 314.979C78.4689 316.251 77.6443 317 75.9106 317C74.3742 317 73.5003 316.42 73.1126 315.389C73.0069 315.12 73.0844 314.986 73.3663 314.894L74.2966 314.569C74.5785 314.47 74.6984 314.534 74.8111 314.816C74.9662 315.212 75.241 315.417 75.7696 315.417C76.2629 315.417 76.5096 315.24 76.5096 314.873C76.5096 314.477 76.2911 314.329 75.8824 314.329H75.3045C75.0014 314.329 74.9027 314.23 74.9027 313.94V313.177C74.9027 312.88 74.9944 312.782 75.3045 312.782H75.7203C76.0797 312.782 76.3687 312.64 76.3687 312.273C76.3687 311.905 76.1572 311.764 75.7203 311.764C75.1917 311.764 75.0014 311.948 74.8252 312.365C74.7195 312.647 74.5997 312.704 74.3107 312.612L73.3804 312.287C73.0985 312.195 73.0281 312.054 73.1267 311.785C73.5284 310.754 74.3812 310.174 75.9247 310.174C77.4681 310.174 78.2645 310.93 78.2645 312.082C78.2645 312.661 77.9967 313.121 77.5245 313.425L77.5315 313.432Z" fill="#545454"/>
<path d="M84.0297 310.704V311.531C84.0297 311.828 83.924 311.927 83.621 311.927H81.119V312.746H83.1206C83.4236 312.746 83.5293 312.845 83.5293 313.135V313.962C83.5293 314.258 83.4236 314.357 83.1206 314.357H81.119V315.24H83.7055C84.0015 315.24 84.1073 315.332 84.1073 315.629V316.47C84.1073 316.752 84.0015 316.858 83.7055 316.858H79.6461C79.343 316.858 79.2373 316.76 79.2373 316.47V310.697C79.2373 310.415 79.343 310.309 79.6461 310.309H83.621C83.924 310.309 84.0297 310.408 84.0297 310.697V310.704Z" fill="#545454"/>
<path d="M116.985 298.721V307.263C116.985 307.525 116.9 307.617 116.625 307.617H115.639C115.364 307.617 115.279 307.525 115.279 307.263V298.721C115.279 298.46 115.364 298.368 115.639 298.368H116.625C116.9 298.368 116.985 298.46 116.985 298.721Z" fill="#545454"/>
<path d="M104.355 310.174C105.948 310.174 106.857 311.135 106.857 312.315C106.857 313.742 106.152 314.272 104.715 314.767C104.2 314.929 103.594 315.014 103.594 315.247V315.304H106.314C106.617 315.304 106.723 315.403 106.723 315.7V316.477C106.723 316.76 106.617 316.865 106.314 316.865H102.044C101.74 316.865 101.635 316.767 101.635 316.477V315.742C101.635 314.491 102.593 314.053 103.474 313.686C104.235 313.375 104.933 313.107 104.933 312.407C104.933 312.054 104.693 311.799 104.285 311.799C103.876 311.799 103.672 311.976 103.46 312.407C103.326 312.69 103.235 312.746 102.946 312.654L101.938 312.294C101.663 312.195 101.578 312.061 101.691 311.792C102.079 310.831 102.875 310.181 104.334 310.181L104.355 310.174Z" fill="#545454"/>
<path d="M110.219 310.174C111.939 310.174 112.925 311.107 112.925 312.57V314.59C112.925 316.074 111.939 316.993 110.219 316.993C108.499 316.993 107.513 316.074 107.513 314.59V312.57C107.513 311.107 108.499 310.174 110.219 310.174ZM110.219 311.785C109.705 311.785 109.394 312.047 109.394 312.499V314.661C109.394 315.12 109.705 315.382 110.219 315.382C110.733 315.382 111.044 315.12 111.044 314.661V312.499C111.044 312.047 110.733 311.785 110.219 311.785Z" fill="#545454"/>
<path d="M116.308 310.174C117.901 310.174 118.81 311.135 118.81 312.315C118.81 313.742 118.105 314.272 116.667 314.767C116.153 314.929 115.547 315.014 115.547 315.247V315.304H118.267C118.57 315.304 118.676 315.403 118.676 315.7V316.477C118.676 316.76 118.57 316.865 118.267 316.865H113.996C113.693 316.865 113.587 316.767 113.587 316.477V315.742C113.587 314.491 114.546 314.053 115.427 313.686C116.188 313.375 116.886 313.107 116.886 312.407C116.886 312.054 116.646 311.799 116.237 311.799C115.829 311.799 115.624 311.976 115.413 312.407C115.279 312.69 115.187 312.746 114.898 312.654L113.89 312.294C113.616 312.195 113.531 312.061 113.644 311.792C114.031 310.831 114.828 310.181 116.287 310.181L116.308 310.174Z" fill="#545454"/>
<path d="M125.174 314.527V315.17C125.174 315.452 125.068 315.558 124.772 315.558H124.286V316.47C124.286 316.752 124.18 316.858 123.884 316.858H122.904C122.601 316.858 122.503 316.76 122.503 316.47V315.558H119.627C119.331 315.558 119.226 315.459 119.226 315.17V314.562C119.226 314.258 119.247 314.145 119.437 313.933L122.32 310.584C122.51 310.372 122.623 310.309 122.933 310.309H123.87C124.166 310.309 124.272 310.408 124.272 310.697V314.138H124.758C125.054 314.138 125.16 314.237 125.16 314.527H125.174ZM122.517 312.584L121.192 314.145H122.517V312.584Z" fill="#545454"/>
<path d="M130.601 310.704V311.531C130.601 311.828 130.495 311.927 130.192 311.927H127.69V312.746H129.691C129.994 312.746 130.1 312.845 130.1 313.135V313.962C130.1 314.258 129.994 314.357 129.691 314.357H127.69V315.24H130.276C130.572 315.24 130.678 315.332 130.678 315.629V316.47C130.678 316.752 130.572 316.858 130.276 316.858H126.217C125.914 316.858 125.808 316.76 125.808 316.47V310.697C125.808 310.415 125.914 310.309 126.217 310.309H130.192C130.495 310.309 130.601 310.408 130.601 310.697V310.704Z" fill="#545454"/>
<path d="M163.514 298.721V307.263C163.514 307.525 163.429 307.617 163.154 307.617H162.168C161.893 307.617 161.808 307.525 161.808 307.263V298.721C161.808 298.46 161.893 298.368 162.168 298.368H163.154C163.429 298.368 163.514 298.46 163.514 298.721Z" fill="#545454"/>
<path d="M151.089 310.174C152.681 310.174 153.59 311.135 153.59 312.315C153.59 313.742 152.886 314.272 151.448 314.767C150.934 314.929 150.327 315.014 150.327 315.247V315.304H153.048C153.351 315.304 153.457 315.403 153.457 315.7V316.477C153.457 316.76 153.351 316.865 153.048 316.865H148.777C148.474 316.865 148.368 316.767 148.368 316.477V315.742C148.368 314.491 149.327 314.053 150.208 313.686C150.969 313.375 151.666 313.107 151.666 312.407C151.666 312.054 151.427 311.799 151.018 311.799C150.609 311.799 150.405 311.976 150.194 312.407C150.06 312.69 149.968 312.746 149.679 312.654L148.671 312.294C148.396 312.195 148.312 312.061 148.425 311.792C148.812 310.831 149.609 310.181 151.067 310.181L151.089 310.174Z" fill="#545454"/>
<path d="M156.959 310.174C158.679 310.174 159.666 311.107 159.666 312.57V314.59C159.666 316.074 158.679 316.993 156.959 316.993C155.24 316.993 154.253 316.074 154.253 314.59V312.57C154.253 311.107 155.24 310.174 156.959 310.174ZM156.959 311.785C156.445 311.785 156.135 312.047 156.135 312.499V314.661C156.135 315.12 156.445 315.382 156.959 315.382C157.474 315.382 157.784 315.12 157.784 314.661V312.499C157.784 312.047 157.474 311.785 156.959 311.785Z" fill="#545454"/>
<path d="M163.049 310.174C164.641 310.174 165.55 311.135 165.55 312.315C165.55 313.742 164.846 314.272 163.408 314.767C162.893 314.929 162.287 315.014 162.287 315.247V315.304H165.008C165.311 315.304 165.417 315.403 165.417 315.7V316.477C165.417 316.76 165.311 316.865 165.008 316.865H160.737C160.434 316.865 160.328 316.767 160.328 316.477V315.742C160.328 314.491 161.287 314.053 162.168 313.686C162.929 313.375 163.626 313.107 163.626 312.407C163.626 312.054 163.387 311.799 162.978 311.799C162.569 311.799 162.365 311.976 162.153 312.407C162.02 312.69 161.928 312.746 161.639 312.654L160.631 312.294C160.356 312.195 160.272 312.061 160.385 311.792C160.772 310.831 161.569 310.181 163.027 310.181L163.049 310.174Z" fill="#545454"/>
<path d="M171.118 310.704V311.531C171.118 311.828 171.012 311.92 170.709 311.92H168.356L168.292 312.563H168.926C170.674 312.563 171.414 313.531 171.414 314.753C171.414 315.975 170.484 316.993 168.842 316.993C167.312 316.993 166.481 316.505 166.079 315.474C165.973 315.198 166.051 315.078 166.326 314.979L167.341 314.612C167.594 314.52 167.721 314.555 167.834 314.845C167.975 315.177 168.215 315.361 168.757 315.361C169.194 315.361 169.462 315.141 169.462 314.682C169.462 314.265 169.194 314.053 168.701 314.053H166.727C166.389 314.053 166.283 313.912 166.312 313.601L166.608 310.86C166.657 310.443 166.798 310.309 167.242 310.309H170.716C171.02 310.309 171.125 310.408 171.125 310.704H171.118Z" fill="#545454"/>
<path d="M176.918 310.704V311.531C176.918 311.828 176.813 311.927 176.51 311.927H174.008V312.746H176.009C176.312 312.746 176.418 312.845 176.418 313.135V313.962C176.418 314.258 176.312 314.357 176.009 314.357H174.008V315.24H176.594C176.89 315.24 176.996 315.332 176.996 315.629V316.47C176.996 316.752 176.89 316.858 176.594 316.858H172.535C172.232 316.858 172.126 316.76 172.126 316.47V310.697C172.126 310.415 172.232 310.309 172.535 310.309H176.51C176.813 310.309 176.918 310.408 176.918 310.697V310.704Z" fill="#545454"/>
<path d="M209.204 298.721V307.263C209.204 307.525 209.119 307.617 208.845 307.617H207.858C207.583 307.617 207.499 307.525 207.499 307.263V298.721C207.499 298.46 207.583 298.368 207.858 298.368H208.845C209.119 298.368 209.204 298.46 209.204 298.721Z" fill="#545454"/>
<path d="M196.603 310.174C198.195 310.174 199.105 311.135 199.105 312.315C199.105 313.742 198.4 314.272 196.962 314.767C196.448 314.929 195.842 315.014 195.842 315.247V315.304H198.562C198.865 315.304 198.971 315.403 198.971 315.7V316.477C198.971 316.76 198.865 316.865 198.562 316.865H194.291C193.988 316.865 193.882 316.767 193.882 316.477V315.742C193.882 314.491 194.841 314.053 195.722 313.686C196.483 313.375 197.181 313.107 197.181 312.407C197.181 312.054 196.941 311.799 196.532 311.799C196.123 311.799 195.919 311.976 195.708 312.407C195.574 312.69 195.482 312.746 195.193 312.654L194.185 312.294C193.911 312.195 193.826 312.061 193.939 311.792C194.326 310.831 195.123 310.181 196.582 310.181L196.603 310.174Z" fill="#545454"/>
<path d="M202.473 310.174C204.193 310.174 205.18 311.107 205.18 312.57V314.59C205.18 316.074 204.193 316.993 202.473 316.993C200.754 316.993 199.767 316.074 199.767 314.59V312.57C199.767 311.107 200.754 310.174 202.473 310.174ZM202.473 311.785C201.959 311.785 201.649 312.047 201.649 312.499V314.661C201.649 315.12 201.959 315.382 202.473 315.382C202.988 315.382 203.298 315.12 203.298 314.661V312.499C203.298 312.047 202.988 311.785 202.473 311.785Z" fill="#545454"/>
<path d="M208.556 310.174C210.149 310.174 211.058 311.135 211.058 312.315C211.058 313.742 210.353 314.272 208.915 314.767C208.401 314.929 207.795 315.014 207.795 315.247V315.304H210.515C210.818 315.304 210.924 315.403 210.924 315.7V316.477C210.924 316.76 210.818 316.865 210.515 316.865H206.244C205.941 316.865 205.835 316.767 205.835 316.477V315.742C205.835 314.491 206.794 314.053 207.675 313.686C208.436 313.375 209.134 313.107 209.134 312.407C209.134 312.054 208.894 311.799 208.485 311.799C208.077 311.799 207.872 311.976 207.661 312.407C207.527 312.69 207.435 312.746 207.146 312.654L206.138 312.294C205.864 312.195 205.779 312.061 205.892 311.792C206.279 310.831 207.076 310.181 208.535 310.181L208.556 310.174Z" fill="#545454"/>
<path d="M214.581 312.704C216.4 312.704 217.224 313.396 217.224 314.831C217.224 316.265 216.188 316.993 214.476 316.993C212.671 316.993 211.727 316.103 211.727 314.513V312.648C211.727 311.065 212.686 310.167 214.476 310.167C215.878 310.167 216.724 310.641 217.119 311.637C217.224 311.913 217.147 312.033 216.865 312.132L215.963 312.471C215.681 312.57 215.596 312.478 215.441 312.209C215.286 311.913 215.011 311.778 214.504 311.778C213.877 311.778 213.595 312.04 213.595 312.633V312.761C213.834 312.718 214.144 312.69 214.581 312.69V312.704ZM214.476 315.446C215.138 315.446 215.357 315.226 215.357 314.845C215.357 314.463 215.138 314.266 214.476 314.266C214.039 314.266 213.757 314.322 213.595 314.379V314.732C213.595 315.184 213.834 315.453 214.476 315.453V315.446Z" fill="#545454"/>
<path d="M222.792 310.704V311.531C222.792 311.828 222.686 311.927 222.383 311.927H219.881V312.746H221.883C222.186 312.746 222.292 312.845 222.292 313.135V313.962C222.292 314.258 222.186 314.357 221.883 314.357H219.881V315.24H222.468C222.764 315.24 222.869 315.332 222.869 315.629V316.47C222.869 316.752 222.764 316.858 222.468 316.858H218.408C218.105 316.858 218 316.76 218 316.47V310.697C218 310.415 218.105 310.309 218.408 310.309H222.383C222.686 310.309 222.792 310.408 222.792 310.697V310.704Z" fill="#545454"/>
<path d="M255.987 298.721V307.263C255.987 307.525 255.902 307.617 255.627 307.617H254.641C254.366 307.617 254.281 307.525 254.281 307.263V298.721C254.281 298.46 254.366 298.368 254.641 298.368H255.627C255.902 298.368 255.987 298.46 255.987 298.721Z" fill="#545454"/>
<path d="M243.78 310.174C245.373 310.174 246.282 311.135 246.282 312.315C246.282 313.742 245.577 314.272 244.139 314.767C243.625 314.929 243.019 315.014 243.019 315.247V315.304H245.739C246.042 315.304 246.148 315.403 246.148 315.7V316.477C246.148 316.76 246.042 316.865 245.739 316.865H241.468C241.165 316.865 241.06 316.767 241.06 316.477V315.742C241.06 314.491 242.018 314.053 242.899 313.686C243.66 313.375 244.358 313.107 244.358 312.407C244.358 312.054 244.118 311.799 243.709 311.799C243.301 311.799 243.096 311.976 242.885 312.407C242.751 312.69 242.659 312.746 242.37 312.654L241.363 312.294C241.088 312.195 241.003 312.061 241.116 311.792C241.504 310.831 242.3 310.181 243.759 310.181L243.78 310.174Z" fill="#545454"/>
<path d="M249.651 310.174C251.37 310.174 252.357 311.107 252.357 312.57V314.59C252.357 316.074 251.37 316.993 249.651 316.993C247.931 316.993 246.944 316.074 246.944 314.59V312.57C246.944 311.107 247.931 310.174 249.651 310.174ZM249.651 311.785C249.136 311.785 248.826 312.047 248.826 312.499V314.661C248.826 315.12 249.136 315.382 249.651 315.382C250.165 315.382 250.475 315.12 250.475 314.661V312.499C250.475 312.047 250.165 311.785 249.651 311.785Z" fill="#545454"/>
<path d="M255.733 310.174C257.326 310.174 258.235 311.135 258.235 312.315C258.235 313.742 257.53 314.272 256.093 314.767C255.578 314.929 254.972 315.014 254.972 315.247V315.304H257.692C257.995 315.304 258.101 315.403 258.101 315.7V316.477C258.101 316.76 257.995 316.865 257.692 316.865H253.421C253.118 316.865 253.013 316.767 253.013 316.477V315.742C253.013 314.491 253.971 314.053 254.852 313.686C255.613 313.375 256.311 313.107 256.311 312.407C256.311 312.054 256.071 311.799 255.663 311.799C255.254 311.799 255.049 311.976 254.838 312.407C254.704 312.69 254.613 312.746 254.324 312.654L253.316 312.294C253.041 312.195 252.956 312.061 253.069 311.792C253.457 310.831 254.253 310.181 255.712 310.181L255.733 310.174Z" fill="#545454"/>
<path d="M263.795 310.705V311.333C263.795 311.552 263.788 311.658 263.682 311.877L261.434 316.52C261.293 316.802 261.188 316.859 260.687 316.859H259.644C259.348 316.859 259.334 316.71 259.447 316.47L261.632 311.927H259.108C258.805 311.927 258.7 311.828 258.7 311.531V310.705C258.7 310.422 258.805 310.316 259.108 310.316H263.408C263.711 310.316 263.809 310.415 263.809 310.705H263.795Z" fill="#545454"/>
<path d="M269.18 310.704V311.531C269.18 311.828 269.074 311.927 268.771 311.927H266.269V312.746H268.27C268.574 312.746 268.679 312.845 268.679 313.135V313.962C268.679 314.258 268.574 314.357 268.27 314.357H266.269V315.24H268.855C269.151 315.24 269.257 315.332 269.257 315.629V316.47C269.257 316.752 269.151 316.858 268.855 316.858H264.796C264.493 316.858 264.387 316.76 264.387 316.47V310.697C264.387 310.415 264.493 310.309 264.796 310.309H268.771C269.074 310.309 269.18 310.408 269.18 310.697V310.704Z" fill="#545454"/>
<path d="M302.917 298.721V307.263C302.917 307.525 302.832 307.617 302.558 307.617H301.571C301.296 307.617 301.211 307.525 301.211 307.263V298.721C301.211 298.46 301.296 298.368 301.571 298.368H302.558C302.832 298.368 302.917 298.46 302.917 298.721Z" fill="#545454"/>
<path d="M290.33 310.174C291.923 310.174 292.832 311.135 292.832 312.315C292.832 313.742 292.127 314.272 290.689 314.767C290.175 314.929 289.569 315.014 289.569 315.247V315.304H292.289C292.592 315.304 292.698 315.403 292.698 315.7V316.477C292.698 316.76 292.592 316.865 292.289 316.865H288.018C287.715 316.865 287.609 316.767 287.609 316.477V315.742C287.609 314.491 288.568 314.053 289.449 313.686C290.21 313.375 290.908 313.107 290.908 312.407C290.908 312.054 290.668 311.799 290.259 311.799C289.851 311.799 289.646 311.976 289.435 312.407C289.301 312.69 289.209 312.746 288.92 312.654L287.912 312.294C287.638 312.195 287.553 312.061 287.666 311.792C288.053 310.831 288.85 310.181 290.309 310.181L290.33 310.174Z" fill="#545454"/>
<path d="M296.2 310.174C297.92 310.174 298.907 311.107 298.907 312.57V314.59C298.907 316.074 297.92 316.993 296.2 316.993C294.481 316.993 293.494 316.074 293.494 314.59V312.57C293.494 311.107 294.481 310.174 296.2 310.174ZM296.2 311.785C295.686 311.785 295.376 312.047 295.376 312.499V314.661C295.376 315.12 295.686 315.382 296.2 315.382C296.715 315.382 297.025 315.12 297.025 314.661V312.499C297.025 312.047 296.715 311.785 296.2 311.785Z" fill="#545454"/>
<path d="M302.283 310.174C303.876 310.174 304.785 311.135 304.785 312.315C304.785 313.742 304.08 314.272 302.642 314.767C302.128 314.929 301.522 315.014 301.522 315.247V315.304H304.242C304.545 315.304 304.651 315.403 304.651 315.7V316.477C304.651 316.76 304.545 316.865 304.242 316.865H299.971C299.668 316.865 299.562 316.767 299.562 316.477V315.742C299.562 314.491 300.521 314.053 301.402 313.686C302.163 313.375 302.861 313.107 302.861 312.407C302.861 312.054 302.621 311.799 302.212 311.799C301.804 311.799 301.599 311.976 301.388 312.407C301.254 312.69 301.162 312.746 300.873 312.654L299.866 312.294C299.591 312.195 299.506 312.061 299.619 311.792C300.007 310.831 300.803 310.181 302.262 310.181L302.283 310.174Z" fill="#545454"/>
<path d="M308.146 310.174C309.824 310.174 310.719 310.846 310.719 312.026C310.719 312.69 310.366 313.114 310.042 313.382C310.557 313.679 310.937 314.138 310.937 314.944C310.937 316.152 310.141 317 308.146 317C306.152 317 305.37 316.251 305.37 315.12C305.37 314.357 305.863 313.856 306.307 313.587C305.877 313.304 305.595 312.838 305.595 312.146C305.595 310.888 306.575 310.174 308.146 310.174ZM307.717 314.23C307.491 314.378 307.244 314.576 307.244 314.937C307.244 315.297 307.512 315.488 308.139 315.488C308.767 315.488 308.985 315.269 308.985 314.951C308.985 314.52 308.569 314.463 307.724 314.223L307.717 314.23ZM308.153 311.693C307.695 311.693 307.491 311.877 307.491 312.181C307.491 312.513 307.738 312.64 308.168 312.76L308.449 312.838C308.668 312.697 308.858 312.499 308.858 312.181C308.858 311.863 308.633 311.693 308.153 311.693Z" fill="#545454"/>
<path d="M316.491 310.704V311.531C316.491 311.828 316.385 311.927 316.082 311.927H313.58V312.746H315.582C315.885 312.746 315.99 312.845 315.99 313.135V313.962C315.99 314.258 315.885 314.357 315.582 314.357H313.58V315.24H316.166C316.462 315.24 316.568 315.332 316.568 315.629V316.47C316.568 316.752 316.462 316.858 316.166 316.858H312.107C311.804 316.858 311.698 316.76 311.698 316.47V310.697C311.698 310.415 311.804 310.309 312.107 310.309H316.082C316.385 310.309 316.491 310.408 316.491 310.697V310.704Z" fill="#545454"/>
<path d="M348.805 298.721V307.263C348.805 307.525 348.72 307.617 348.445 307.617H347.459C347.184 307.617 347.099 307.525 347.099 307.263V298.721C347.099 298.46 347.184 298.368 347.459 298.368H348.445C348.72 298.368 348.805 298.46 348.805 298.721Z" fill="#545454"/>
<path d="M336.203 310.174C337.796 310.174 338.705 311.135 338.705 312.315C338.705 313.742 338 314.272 336.563 314.767C336.048 314.929 335.442 315.014 335.442 315.247V315.304H338.163C338.466 315.304 338.571 315.403 338.571 315.7V316.477C338.571 316.76 338.466 316.865 338.163 316.865H333.892C333.589 316.865 333.483 316.767 333.483 316.477V315.742C333.483 314.491 334.441 314.053 335.322 313.686C336.084 313.375 336.781 313.107 336.781 312.407C336.781 312.054 336.542 311.799 336.133 311.799C335.724 311.799 335.52 311.976 335.308 312.407C335.174 312.69 335.083 312.746 334.794 312.654L333.786 312.294C333.511 312.195 333.427 312.061 333.539 311.792C333.927 310.831 334.723 310.181 336.182 310.181L336.203 310.174Z" fill="#545454"/>
<path d="M342.074 310.174C343.794 310.174 344.78 311.107 344.78 312.57V314.59C344.78 316.074 343.794 316.993 342.074 316.993C340.354 316.993 339.368 316.074 339.368 314.59V312.57C339.368 311.107 340.354 310.174 342.074 310.174ZM342.074 311.785C341.56 311.785 341.249 312.047 341.249 312.499V314.661C341.249 315.12 341.56 315.382 342.074 315.382C342.588 315.382 342.899 315.12 342.899 314.661V312.499C342.899 312.047 342.588 311.785 342.074 311.785Z" fill="#545454"/>
<path d="M348.163 310.174C349.756 310.174 350.665 311.135 350.665 312.315C350.665 313.742 349.96 314.272 348.523 314.767C348.008 314.929 347.402 315.014 347.402 315.247V315.304H350.123C350.426 315.304 350.531 315.403 350.531 315.7V316.477C350.531 316.76 350.426 316.865 350.123 316.865H345.852C345.549 316.865 345.443 316.767 345.443 316.477V315.742C345.443 314.491 346.401 314.053 347.282 313.686C348.043 313.375 348.741 313.107 348.741 312.407C348.741 312.054 348.502 311.799 348.093 311.799C347.684 311.799 347.48 311.976 347.268 312.407C347.134 312.69 347.043 312.746 346.754 312.654L345.746 312.294C345.471 312.195 345.387 312.061 345.499 311.792C345.887 310.831 346.683 310.181 348.142 310.181L348.163 310.174Z" fill="#545454"/>
<path d="M353.907 314.47C352.089 314.47 351.264 313.778 351.264 312.343C351.264 310.909 352.3 310.174 354.013 310.174C355.817 310.174 356.761 311.072 356.761 312.654V314.52C356.761 316.102 355.803 317 354.013 317C352.61 317 351.765 316.533 351.37 315.537C351.264 315.262 351.342 315.141 351.624 315.043L352.526 314.703C352.808 314.604 352.892 314.696 353.047 314.965C353.202 315.262 353.477 315.396 353.985 315.396C354.612 315.396 354.894 315.134 354.894 314.541V314.414C354.654 314.456 354.344 314.484 353.907 314.484V314.47ZM354.013 311.729C353.35 311.729 353.132 311.948 353.132 312.329C353.132 312.711 353.35 312.909 354.013 312.909C354.45 312.909 354.732 312.852 354.894 312.796V312.442C354.894 311.99 354.654 311.722 354.013 311.722V311.729Z" fill="#545454"/>
<path d="M362.393 310.704V311.531C362.393 311.828 362.287 311.927 361.984 311.927H359.482V312.746H361.483C361.786 312.746 361.892 312.845 361.892 313.135V313.962C361.892 314.258 361.786 314.357 361.483 314.357H359.482V315.24H362.068C362.364 315.24 362.47 315.332 362.47 315.629V316.47C362.47 316.752 362.364 316.858 362.068 316.858H358.009C357.706 316.858 357.6 316.76 357.6 316.47V310.697C357.6 310.415 357.706 310.309 358.009 310.309H361.984C362.287 310.309 362.393 310.408 362.393 310.697V310.704Z" fill="#545454"/>
<path d="M395.411 298.721V307.263C395.411 307.525 395.326 307.617 395.051 307.617H394.065C393.79 307.617 393.705 307.525 393.705 307.263V298.721C393.705 298.46 393.79 298.368 394.065 298.368H395.051C395.326 298.368 395.411 298.46 395.411 298.721Z" fill="#545454"/>
<path d="M382.767 310.174C384.36 310.174 385.269 311.135 385.269 312.315C385.269 313.742 384.564 314.272 383.127 314.767C382.612 314.929 382.006 315.014 382.006 315.247V315.304H384.727C385.03 315.304 385.135 315.403 385.135 315.7V316.477C385.135 316.76 385.03 316.865 384.727 316.865H380.456C380.153 316.865 380.047 316.767 380.047 316.477V315.742C380.047 314.491 381.005 314.053 381.886 313.686C382.647 313.375 383.345 313.107 383.345 312.407C383.345 312.054 383.106 311.799 382.697 311.799C382.288 311.799 382.084 311.976 381.872 312.407C381.738 312.69 381.647 312.746 381.358 312.654L380.35 312.294C380.075 312.195 379.991 312.061 380.103 311.792C380.491 310.831 381.287 310.181 382.746 310.181L382.767 310.174Z" fill="#545454"/>
<path d="M388.631 310.174C390.351 310.174 391.337 311.107 391.337 312.57V314.59C391.337 316.074 390.351 316.993 388.631 316.993C386.911 316.993 385.925 316.074 385.925 314.59V312.57C385.925 311.107 386.911 310.174 388.631 310.174ZM388.631 311.785C388.117 311.785 387.807 312.047 387.807 312.499V314.661C387.807 315.12 388.117 315.382 388.631 315.382C389.146 315.382 389.456 315.12 389.456 314.661V312.499C389.456 312.047 389.146 311.785 388.631 311.785Z" fill="#545454"/>
<path d="M396.411 313.432C397.06 313.764 397.349 314.315 397.349 314.979C397.349 316.251 396.524 317 394.79 317C393.254 317 392.38 316.42 391.993 315.389C391.887 315.12 391.964 314.986 392.246 314.894L393.177 314.569C393.458 314.47 393.578 314.534 393.691 314.816C393.846 315.212 394.121 315.417 394.649 315.417C395.143 315.417 395.39 315.24 395.39 314.873C395.39 314.477 395.171 314.329 394.762 314.329H394.184C393.881 314.329 393.783 314.23 393.783 313.94V313.177C393.783 312.88 393.874 312.782 394.184 312.782H394.6C394.96 312.782 395.249 312.64 395.249 312.273C395.249 311.905 395.037 311.764 394.6 311.764C394.072 311.764 393.881 311.948 393.705 312.365C393.599 312.647 393.48 312.704 393.191 312.612L392.26 312.287C391.978 312.195 391.908 312.054 392.007 311.785C392.408 310.754 393.261 310.174 394.805 310.174C396.348 310.174 397.144 310.93 397.144 312.082C397.144 312.661 396.877 313.121 396.404 313.425L396.411 313.432Z" fill="#545454"/>
<path d="M400.718 310.174C402.437 310.174 403.424 311.107 403.424 312.57V314.59C403.424 316.074 402.437 316.993 400.718 316.993C398.998 316.993 398.011 316.074 398.011 314.59V312.57C398.011 311.107 398.998 310.174 400.718 310.174ZM400.718 311.785C400.203 311.785 399.893 312.047 399.893 312.499V314.661C399.893 315.12 400.203 315.382 400.718 315.382C401.232 315.382 401.542 315.12 401.542 314.661V312.499C401.542 312.047 401.232 311.785 400.718 311.785Z" fill="#545454"/>
<path d="M409.048 310.704V311.531C409.048 311.828 408.943 311.927 408.64 311.927H406.138V312.746H408.139C408.442 312.746 408.548 312.845 408.548 313.135V313.962C408.548 314.258 408.442 314.357 408.139 314.357H406.138V315.24H408.724C409.02 315.24 409.126 315.332 409.126 315.629V316.47C409.126 316.752 409.02 316.858 408.724 316.858H404.665C404.362 316.858 404.256 316.76 404.256 316.47V310.697C404.256 310.415 404.362 310.309 404.665 310.309H408.64C408.943 310.309 409.048 310.408 409.048 310.697V310.704Z" fill="#545454"/>
<path d="M208.774 184.145C211.514 184.145 213.735 181.918 213.735 179.171C213.735 176.423 211.514 174.196 208.774 174.196C206.033 174.196 203.812 176.423 203.812 179.171C203.812 181.918 206.033 184.145 208.774 184.145Z" fill="#C65828"/>
<path d="M208.774 298.029C207.999 298.029 207.364 297.393 207.364 296.616V179.178C207.364 178.401 207.999 177.765 208.774 177.765C209.549 177.765 210.183 178.401 210.183 179.178V296.616C210.183 297.393 209.549 298.029 208.774 298.029Z" fill="#C65828"/>
<path d="M398.793 18.7876H398.088V130.601H398.793V18.7876Z" fill="#9D9D9D"/>
<path d="M400.731 130.248H396.15V130.955H400.731V130.248Z" fill="#9D9D9D"/>
<path d="M400.731 18.4341H396.15V19.1406H400.731V18.4341Z" fill="#9D9D9D"/>
</g>
<defs>
<clipPath id="clip0_17_623">
<rect width="420" height="317" fill="white"/>
</clipPath>
</defs>
</svg>
