<svg width="511" height="433" viewBox="0 0 511 433" fill="none" xmlns="http://www.w3.org/2000/svg">
<g clip-path="url(#clip0_17_2581)">
<path d="M58.9405 355.895C60.9795 355.895 62.1408 357.121 62.1408 358.621C62.1408 360.442 61.2447 361.119 59.3976 361.75C58.7393 361.96 57.9621 362.07 57.9621 362.363V362.436H61.4458C61.8299 362.436 61.967 362.564 61.967 362.939V363.927C61.967 364.293 61.8299 364.421 61.4458 364.421H55.987C55.603 364.421 55.4658 364.293 55.4658 363.927V362.985C55.4658 361.384 56.6911 360.835 57.8158 360.359C58.785 359.957 59.6811 359.618 59.6811 358.722C59.6811 358.274 59.3794 357.944 58.8582 357.944C58.337 357.944 58.0718 358.164 57.8066 358.722C57.6329 359.088 57.514 359.161 57.1483 359.042L55.859 358.585C55.5024 358.457 55.4018 358.292 55.539 357.953C56.0327 356.728 57.0568 355.895 58.9222 355.895H58.9405Z" fill="white"/>
<path d="M66.4568 355.895C68.6513 355.895 69.9132 357.084 69.9132 358.96V361.539C69.9132 363.433 68.6513 364.613 66.4568 364.613C64.2623 364.613 63.0005 363.433 63.0005 361.539V358.96C63.0005 357.084 64.2623 355.895 66.4568 355.895ZM66.4568 357.953C65.7985 357.953 65.4053 358.283 65.4053 358.859V361.622C65.4053 362.207 65.8076 362.536 66.4568 362.536C67.106 362.536 67.5084 362.207 67.5084 361.622V358.859C67.5084 358.283 67.106 357.953 66.4568 357.953Z" fill="white"/>
<path d="M75.0886 356.572V363.936C75.0886 364.302 74.9697 364.43 74.5765 364.43H73.205C72.8209 364.43 72.6838 364.302 72.6838 363.936V359.033L71.87 359.481C71.4676 359.691 71.2665 359.609 71.0836 359.28L70.5167 358.283C70.3338 357.953 70.4344 357.798 70.7636 357.597L73.1318 356.279C73.4153 356.115 73.5433 356.078 73.8633 356.078H74.5948C74.9789 356.078 75.1069 356.206 75.1069 356.572H75.0886Z" fill="white"/>
<path d="M79.6875 355.895C81.7266 355.895 82.8879 357.121 82.8879 358.621C82.8879 360.442 81.9918 361.119 80.1447 361.75C79.4864 361.96 78.7091 362.07 78.7091 362.363V362.436H82.1929C82.577 362.436 82.7141 362.564 82.7141 362.939V363.927C82.7141 364.293 82.577 364.421 82.1929 364.421H76.7341C76.35 364.421 76.2129 364.293 76.2129 363.927V362.985C76.2129 361.384 77.4382 360.835 78.5628 360.359C79.5321 359.957 80.4282 359.618 80.4282 358.722C80.4282 358.274 80.1264 357.944 79.6052 357.944C79.084 357.944 78.8189 358.164 78.5537 358.722C78.38 359.088 78.2611 359.161 77.8953 359.042L76.6061 358.585C76.2495 358.457 76.1489 358.292 76.286 357.953C76.7798 356.728 77.8039 355.895 79.6692 355.895H79.6875Z" fill="white"/>
<path d="M101.167 355.895C103.206 355.895 104.367 357.121 104.367 358.621C104.367 360.442 103.471 361.119 101.624 361.75C100.965 361.96 100.188 362.07 100.188 362.363V362.436H103.672C104.056 362.436 104.193 362.564 104.193 362.939V363.927C104.193 364.293 104.056 364.421 103.672 364.421H98.2131C97.8291 364.421 97.6919 364.293 97.6919 363.927V362.985C97.6919 361.384 98.9172 360.835 100.042 360.359C101.011 359.957 101.907 359.618 101.907 358.722C101.907 358.274 101.605 357.944 101.084 357.944C100.563 357.944 100.298 358.164 100.033 358.722C99.859 359.088 99.7401 359.161 99.3744 359.042L98.0851 358.585C97.7285 358.457 97.6279 358.292 97.765 357.953C98.2588 356.728 99.2829 355.895 101.148 355.895H101.167Z" fill="white"/>
<path d="M108.674 355.895C110.868 355.895 112.13 357.084 112.13 358.96V361.539C112.13 363.433 110.868 364.613 108.674 364.613C106.479 364.613 105.217 363.433 105.217 361.539V358.96C105.217 357.084 106.479 355.895 108.674 355.895ZM108.674 357.953C108.015 357.953 107.622 358.283 107.622 358.859V361.622C107.622 362.207 108.024 362.536 108.674 362.536C109.323 362.536 109.725 362.207 109.725 361.622V358.859C109.725 358.283 109.323 357.953 108.674 357.953Z" fill="white"/>
<path d="M117.315 356.572V363.936C117.315 364.302 117.196 364.43 116.803 364.43H115.431C115.047 364.43 114.91 364.302 114.91 363.936V359.033L114.096 359.481C113.694 359.691 113.493 359.609 113.31 359.28L112.743 358.283C112.56 357.953 112.66 357.798 112.99 357.597L115.358 356.279C115.641 356.115 115.769 356.078 116.089 356.078H116.821C117.205 356.078 117.333 356.206 117.333 356.572H117.315Z" fill="white"/>
<path d="M124.072 360.057C124.895 360.478 125.27 361.192 125.27 362.033C125.27 363.661 124.218 364.613 121.996 364.613C120.03 364.613 118.915 363.872 118.421 362.555C118.284 362.216 118.384 362.033 118.75 361.923L119.939 361.512C120.305 361.384 120.451 361.466 120.597 361.832C120.789 362.335 121.146 362.6 121.822 362.6C122.453 362.6 122.764 362.381 122.764 361.905C122.764 361.402 122.481 361.21 121.96 361.21H121.219C120.835 361.21 120.707 361.082 120.707 360.716V359.737C120.707 359.362 120.826 359.234 121.219 359.234H121.749C122.207 359.234 122.572 359.06 122.572 358.585C122.572 358.109 122.307 357.935 121.749 357.935C121.073 357.935 120.826 358.173 120.606 358.703C120.469 359.069 120.314 359.143 119.948 359.024L118.759 358.612C118.394 358.493 118.311 358.319 118.43 357.981C118.942 356.664 120.03 355.923 122.005 355.923C123.98 355.923 125.005 356.883 125.005 358.356C125.005 359.097 124.666 359.682 124.063 360.076L124.072 360.057Z" fill="white"/>
<path d="M143.539 355.895C145.578 355.895 146.739 357.121 146.739 358.621C146.739 360.442 145.843 361.119 143.996 361.75C143.337 361.96 142.56 362.07 142.56 362.363V362.436H146.044C146.428 362.436 146.565 362.564 146.565 362.939V363.927C146.565 364.293 146.428 364.421 146.044 364.421H140.585C140.201 364.421 140.064 364.293 140.064 363.927V362.985C140.064 361.384 141.289 360.835 142.414 360.359C143.383 359.957 144.279 359.618 144.279 358.722C144.279 358.274 143.978 357.944 143.456 357.944C142.935 357.944 142.67 358.164 142.405 358.722C142.231 359.088 142.112 359.161 141.746 359.042L140.457 358.585C140.101 358.457 140 358.292 140.137 357.953C140.631 356.728 141.655 355.895 143.52 355.895H143.539Z" fill="white"/>
<path d="M151.055 355.895C153.249 355.895 154.511 357.084 154.511 358.96V361.539C154.511 363.433 153.249 364.613 151.055 364.613C148.86 364.613 147.599 363.433 147.599 361.539V358.96C147.599 357.084 148.86 355.895 151.055 355.895ZM151.055 357.953C150.397 357.953 150.003 358.283 150.003 358.859V361.622C150.003 362.207 150.406 362.536 151.055 362.536C151.704 362.536 152.107 362.207 152.107 361.622V358.859C152.107 358.283 151.704 357.953 151.055 357.953Z" fill="white"/>
<path d="M159.687 356.572V363.936C159.687 364.302 159.568 364.43 159.175 364.43H157.803C157.419 364.43 157.282 364.302 157.282 363.936V359.033L156.468 359.481C156.066 359.691 155.865 359.609 155.682 359.28L155.115 358.283C154.932 357.953 155.033 357.798 155.362 357.597L157.73 356.279C158.013 356.115 158.141 356.078 158.461 356.078H159.193C159.577 356.078 159.705 356.206 159.705 356.572H159.687Z" fill="white"/>
<path d="M168.2 361.457V362.28C168.2 362.646 168.062 362.774 167.688 362.774H167.066V363.936C167.066 364.302 166.929 364.43 166.554 364.43H165.301C164.917 364.43 164.789 364.302 164.789 363.936V362.774H161.113C160.738 362.774 160.601 362.646 160.601 362.28V361.503C160.601 361.118 160.628 360.972 160.866 360.707L164.551 356.435C164.798 356.16 164.935 356.078 165.338 356.078H166.535C166.91 356.078 167.047 356.206 167.047 356.572V360.963H167.669C168.044 360.963 168.181 361.091 168.181 361.457H168.2ZM164.807 358.978L163.106 360.963H164.807V358.978Z" fill="white"/>
<path d="M186.295 355.895C188.334 355.895 189.495 357.121 189.495 358.621C189.495 360.442 188.599 361.119 186.752 361.75C186.094 361.96 185.317 362.07 185.317 362.363V362.436H188.8C189.184 362.436 189.322 362.564 189.322 362.939V363.927C189.322 364.293 189.184 364.421 188.8 364.421H183.342C182.957 364.421 182.82 364.293 182.82 363.927V362.985C182.82 361.384 184.046 360.835 185.17 360.359C186.139 359.957 187.036 359.618 187.036 358.722C187.036 358.274 186.734 357.944 186.213 357.944C185.691 357.944 185.426 358.164 185.161 358.722C184.987 359.088 184.869 359.161 184.503 359.042L183.213 358.585C182.857 358.457 182.756 358.292 182.893 357.953C183.387 356.728 184.411 355.895 186.277 355.895H186.295Z" fill="white"/>
<path d="M193.811 355.895C196.006 355.895 197.268 357.084 197.268 358.96V361.539C197.268 363.433 196.006 364.613 193.811 364.613C191.617 364.613 190.355 363.433 190.355 361.539V358.96C190.355 357.084 191.617 355.895 193.811 355.895ZM193.811 357.953C193.153 357.953 192.76 358.283 192.76 358.859V361.622C192.76 362.207 193.162 362.536 193.811 362.536C194.461 362.536 194.863 362.207 194.863 361.622V358.859C194.863 358.283 194.461 357.953 193.811 357.953Z" fill="white"/>
<path d="M202.443 356.572V363.936C202.443 364.302 202.324 364.43 201.931 364.43H200.559C200.175 364.43 200.038 364.302 200.038 363.936V359.033L199.224 359.481C198.822 359.691 198.621 359.609 198.438 359.28L197.871 358.283C197.688 357.953 197.789 357.798 198.118 357.597L200.486 356.279C200.77 356.115 200.898 356.078 201.218 356.078H201.949C202.333 356.078 202.461 356.206 202.461 356.572H202.443Z" fill="white"/>
<path d="M209.932 356.572V357.633C209.932 358.008 209.795 358.127 209.41 358.127H206.402L206.32 358.951H207.134C209.365 358.951 210.316 360.186 210.316 361.75C210.316 363.314 209.127 364.613 207.024 364.613C205.067 364.613 204.007 363.991 203.494 362.674C203.357 362.317 203.458 362.171 203.814 362.042L205.113 361.576C205.442 361.457 205.598 361.503 205.744 361.869C205.927 362.289 206.228 362.527 206.923 362.527C207.481 362.527 207.819 362.244 207.819 361.658C207.819 361.128 207.481 360.862 206.85 360.862H204.327C203.888 360.862 203.76 360.689 203.796 360.286L204.171 356.792C204.235 356.261 204.418 356.087 204.985 356.087H209.429C209.813 356.087 209.95 356.215 209.95 356.591L209.932 356.572Z" fill="white"/>
<path d="M228.521 355.895C230.56 355.895 231.721 357.121 231.721 358.621C231.721 360.442 230.825 361.119 228.978 361.75C228.32 361.96 227.543 362.07 227.543 362.363V362.436H231.026C231.41 362.436 231.548 362.564 231.548 362.939V363.927C231.548 364.293 231.41 364.421 231.026 364.421H225.568C225.184 364.421 225.046 364.293 225.046 363.927V362.985C225.046 361.384 226.272 360.835 227.396 360.359C228.366 359.957 229.262 359.618 229.262 358.722C229.262 358.274 228.96 357.944 228.439 357.944C227.918 357.944 227.652 358.164 227.387 358.722C227.213 359.088 227.095 359.161 226.729 359.042L225.44 358.585C225.092 358.457 224.982 358.292 225.12 357.953C225.613 356.728 226.637 355.895 228.503 355.895H228.521Z" fill="white"/>
<path d="M236.028 355.895C238.223 355.895 239.484 357.084 239.484 358.96V361.539C239.484 363.433 238.223 364.613 236.028 364.613C233.834 364.613 232.572 363.433 232.572 361.539V358.96C232.572 357.084 233.834 355.895 236.028 355.895ZM236.028 357.953C235.37 357.953 234.977 358.283 234.977 358.859V361.622C234.977 362.207 235.379 362.536 236.028 362.536C236.677 362.536 237.08 362.207 237.08 361.622V358.859C237.08 358.283 236.677 357.953 236.028 357.953Z" fill="white"/>
<path d="M244.669 356.572V363.936C244.669 364.302 244.55 364.43 244.157 364.43H242.786C242.401 364.43 242.264 364.302 242.264 363.936V359.033L241.451 359.481C241.048 359.691 240.847 359.609 240.664 359.28L240.097 358.283C239.914 357.953 240.015 357.798 240.344 357.597L242.712 356.279C242.996 356.115 243.124 356.078 243.444 356.078H244.175C244.559 356.078 244.687 356.206 244.687 356.572H244.669Z" fill="white"/>
<path d="M249.533 359.124C251.865 359.124 252.917 360.003 252.917 361.841C252.917 363.68 251.591 364.604 249.396 364.604C247.092 364.604 245.876 363.46 245.876 361.439V359.06C245.876 357.039 247.101 355.895 249.396 355.895C251.189 355.895 252.267 356.499 252.78 357.771C252.917 358.127 252.816 358.274 252.45 358.402L251.298 358.841C250.932 358.969 250.823 358.85 250.631 358.511C250.439 358.136 250.082 357.963 249.433 357.963C248.628 357.963 248.272 358.292 248.272 359.06V359.225C248.573 359.17 248.976 359.134 249.533 359.134V359.124ZM249.396 362.619C250.247 362.619 250.521 362.335 250.521 361.85C250.521 361.366 250.238 361.109 249.396 361.109C248.839 361.109 248.473 361.183 248.272 361.247V361.695C248.272 362.271 248.573 362.61 249.396 362.61V362.619Z" fill="white"/>
<path d="M271.204 355.895C273.243 355.895 274.404 357.121 274.404 358.621C274.404 360.442 273.508 361.119 271.661 361.75C271.003 361.96 270.226 362.07 270.226 362.363V362.436H273.71C274.094 362.436 274.231 362.564 274.231 362.939V363.927C274.231 364.293 274.094 364.421 273.71 364.421H268.251C267.867 364.421 267.729 364.293 267.729 363.927V362.985C267.729 361.384 268.955 360.835 270.079 360.359C271.049 359.957 271.945 359.618 271.945 358.722C271.945 358.274 271.643 357.944 271.122 357.944C270.601 357.944 270.335 358.164 270.07 358.722C269.897 359.088 269.778 359.161 269.412 359.042L268.123 358.585C267.766 358.457 267.666 358.292 267.812 357.953C268.306 356.728 269.33 355.895 271.195 355.895H271.204Z" fill="white"/>
<path d="M278.711 355.895C280.906 355.895 282.168 357.084 282.168 358.96V361.539C282.168 363.433 280.906 364.613 278.711 364.613C276.517 364.613 275.255 363.433 275.255 361.539V358.96C275.255 357.084 276.517 355.895 278.711 355.895ZM278.711 357.953C278.062 357.953 277.66 358.283 277.66 358.859V361.622C277.66 362.207 278.062 362.536 278.711 362.536C279.36 362.536 279.763 362.207 279.763 361.622V358.859C279.763 358.283 279.36 357.953 278.711 357.953Z" fill="white"/>
<path d="M287.343 356.572V363.936C287.343 364.302 287.224 364.43 286.831 364.43H285.459C285.075 364.43 284.938 364.302 284.938 363.936V359.033L284.124 359.481C283.722 359.691 283.521 359.609 283.338 359.28L282.771 358.283C282.588 357.953 282.689 357.798 283.009 357.597L285.377 356.279C285.66 356.115 285.788 356.078 286.108 356.078H286.84C287.224 356.078 287.352 356.206 287.352 356.572H287.343Z" fill="white"/>
<path d="M294.823 356.572V357.368C294.823 357.652 294.813 357.78 294.676 358.063L291.805 363.991C291.622 364.357 291.485 364.43 290.845 364.43H289.51C289.135 364.43 289.108 364.238 289.254 363.936L292.043 358.136H288.815C288.431 358.136 288.294 358.008 288.294 357.633V356.572C288.294 356.206 288.431 356.078 288.815 356.078H294.311C294.695 356.078 294.823 356.206 294.823 356.572Z" fill="white"/>
<path d="M312.872 355.895C314.911 355.895 316.072 357.121 316.072 358.621C316.072 360.442 315.176 361.119 313.329 361.75C312.671 361.96 311.894 362.07 311.894 362.363V362.436H315.377C315.762 362.436 315.899 362.564 315.899 362.939V363.927C315.899 364.293 315.762 364.421 315.377 364.421H309.919C309.535 364.421 309.397 364.293 309.397 363.927V362.985C309.397 361.384 310.623 360.835 311.747 360.359C312.717 359.957 313.613 359.618 313.613 358.722C313.613 358.274 313.311 357.944 312.79 357.944C312.269 357.944 312.003 358.164 311.729 358.722C311.555 359.088 311.437 359.161 311.08 359.042L309.791 358.585C309.443 358.457 309.333 358.292 309.48 357.953C309.974 356.728 310.998 355.895 312.863 355.895H312.872Z" fill="white"/>
<path d="M320.389 355.895C322.583 355.895 323.845 357.084 323.845 358.96V361.539C323.845 363.433 322.583 364.613 320.389 364.613C318.194 364.613 316.932 363.433 316.932 361.539V358.96C316.932 357.084 318.194 355.895 320.389 355.895ZM320.389 357.953C319.73 357.953 319.337 358.283 319.337 358.859V361.622C319.337 362.207 319.739 362.536 320.389 362.536C321.038 362.536 321.44 362.207 321.44 361.622V358.859C321.44 358.283 321.038 357.953 320.389 357.953Z" fill="white"/>
<path d="M329.02 356.572V363.936C329.02 364.302 328.901 364.43 328.508 364.43H327.136C326.752 364.43 326.615 364.302 326.615 363.936V359.033L325.801 359.481C325.399 359.691 325.198 359.609 325.015 359.28L324.448 358.283C324.265 357.953 324.366 357.798 324.686 357.597L327.054 356.279C327.338 356.115 327.466 356.078 327.786 356.078H328.517C328.901 356.078 329.029 356.206 329.029 356.572H329.02Z" fill="white"/>
<path d="M333.684 355.895C335.832 355.895 336.975 356.755 336.975 358.264C336.975 359.115 336.527 359.655 336.116 359.993C336.774 360.368 337.259 360.954 337.259 361.978C337.259 363.524 336.235 364.604 333.693 364.604C331.151 364.604 330.136 363.652 330.136 362.207C330.136 361.228 330.767 360.597 331.334 360.25C330.785 359.884 330.428 359.298 330.428 358.411C330.428 356.81 331.681 355.895 333.693 355.895H333.684ZM333.135 361.073C332.842 361.265 332.531 361.521 332.531 361.978C332.531 362.436 332.87 362.683 333.674 362.683C334.479 362.683 334.753 362.399 334.753 361.997C334.753 361.448 334.223 361.375 333.144 361.064L333.135 361.073ZM333.693 357.835C333.107 357.835 332.842 358.072 332.842 358.457C332.842 358.877 333.162 359.042 333.702 359.198L334.068 359.289C334.351 359.115 334.589 358.85 334.589 358.457C334.589 358.063 334.296 357.835 333.693 357.835Z" fill="white"/>
<path d="M355.519 355.895C357.558 355.895 358.719 357.121 358.719 358.621C358.719 360.442 357.823 361.119 355.976 361.75C355.318 361.96 354.541 362.07 354.541 362.363V362.436H358.024C358.408 362.436 358.546 362.564 358.546 362.939V363.927C358.546 364.293 358.408 364.421 358.024 364.421H352.566C352.182 364.421 352.044 364.293 352.044 363.927V362.985C352.044 361.384 353.27 360.835 354.394 360.359C355.364 359.957 356.26 359.618 356.26 358.722C356.26 358.274 355.958 357.944 355.437 357.944C354.916 357.944 354.65 358.164 354.385 358.722C354.212 359.088 354.093 359.161 353.727 359.042L352.438 358.585C352.09 358.457 351.98 358.292 352.118 357.953C352.611 356.728 353.635 355.895 355.501 355.895H355.519Z" fill="white"/>
<path d="M363.035 355.895C365.23 355.895 366.492 357.084 366.492 358.96V361.539C366.492 363.433 365.23 364.613 363.035 364.613C360.841 364.613 359.579 363.433 359.579 361.539V358.96C359.579 357.084 360.841 355.895 363.035 355.895ZM363.035 357.953C362.377 357.953 361.984 358.283 361.984 358.859V361.622C361.984 362.207 362.386 362.536 363.035 362.536C363.685 362.536 364.087 362.207 364.087 361.622V358.859C364.087 358.283 363.685 357.953 363.035 357.953Z" fill="white"/>
<path d="M371.667 356.572V363.936C371.667 364.302 371.548 364.43 371.155 364.43H369.784C369.4 364.43 369.262 364.302 369.262 363.936V359.033L368.449 359.481C368.046 359.691 367.845 359.609 367.662 359.28L367.095 358.283C366.912 357.953 367.013 357.798 367.342 357.597L369.71 356.279C369.994 356.115 370.122 356.078 370.442 356.078H371.173C371.557 356.078 371.685 356.206 371.685 356.572H371.667Z" fill="white"/>
<path d="M376.184 361.384C373.852 361.384 372.801 360.506 372.801 358.667C372.801 356.828 374.127 355.905 376.321 355.905C378.625 355.905 379.842 357.048 379.842 359.07V361.448C379.842 363.47 378.616 364.613 376.321 364.613C374.529 364.613 373.45 364.009 372.938 362.738C372.801 362.381 372.901 362.235 373.267 362.107L374.419 361.667C374.785 361.539 374.895 361.658 375.087 361.997C375.279 362.372 375.635 362.546 376.285 362.546C377.08 362.546 377.446 362.216 377.446 361.448V361.283C377.144 361.338 376.742 361.375 376.184 361.375V361.384ZM376.321 357.89C375.471 357.89 375.187 358.173 375.187 358.658C375.187 359.143 375.471 359.399 376.321 359.399C376.879 359.399 377.245 359.326 377.446 359.262V358.813C377.446 358.237 377.144 357.899 376.321 357.899V357.89Z" fill="white"/>
<path d="M398.202 355.895C400.241 355.895 401.402 357.121 401.402 358.621C401.402 360.442 400.506 361.119 398.659 361.75C398.001 361.96 397.224 362.07 397.224 362.363V362.436H400.708C401.092 362.436 401.229 362.564 401.229 362.939V363.927C401.229 364.293 401.092 364.421 400.708 364.421H395.249C394.865 364.421 394.728 364.293 394.728 363.927V362.985C394.728 361.384 395.953 360.835 397.077 360.359C398.047 359.957 398.943 359.618 398.943 358.722C398.943 358.274 398.641 357.944 398.12 357.944C397.599 357.944 397.334 358.164 397.068 358.722C396.895 359.088 396.776 359.161 396.41 359.042L395.121 358.585C394.773 358.457 394.664 358.292 394.801 357.953C395.294 356.728 396.319 355.895 398.184 355.895H398.202Z" fill="white"/>
<path d="M405.719 355.895C407.913 355.895 409.175 357.084 409.175 358.96V361.539C409.175 363.433 407.913 364.613 405.719 364.613C403.524 364.613 402.262 363.433 402.262 361.539V358.96C402.262 357.084 403.524 355.895 405.719 355.895ZM405.719 357.953C405.06 357.953 404.667 358.283 404.667 358.859V361.622C404.667 362.207 405.069 362.536 405.719 362.536C406.368 362.536 406.77 362.207 406.77 361.622V358.859C406.77 358.283 406.368 357.953 405.719 357.953Z" fill="white"/>
<path d="M413.5 355.895C415.539 355.895 416.7 357.121 416.7 358.621C416.7 360.442 415.804 361.119 413.957 361.75C413.298 361.96 412.521 362.07 412.521 362.363V362.436H416.005C416.389 362.436 416.526 362.564 416.526 362.939V363.927C416.526 364.293 416.389 364.421 416.005 364.421H410.546C410.162 364.421 410.025 364.293 410.025 363.927V362.985C410.025 361.384 411.25 360.835 412.375 360.359C413.344 359.957 414.24 359.618 414.24 358.722C414.24 358.274 413.938 357.944 413.417 357.944C412.896 357.944 412.631 358.164 412.366 358.722C412.192 359.088 412.073 359.161 411.707 359.042L410.418 358.585C410.071 358.457 409.961 358.292 410.098 357.953C410.592 356.728 411.616 355.895 413.481 355.895H413.5Z" fill="white"/>
<path d="M421.016 355.895C423.21 355.895 424.472 357.084 424.472 358.96V361.539C424.472 363.433 423.21 364.613 421.016 364.613C418.821 364.613 417.56 363.433 417.56 361.539V358.96C417.56 357.084 418.821 355.895 421.016 355.895ZM421.016 357.953C420.358 357.953 419.964 358.283 419.964 358.859V361.622C419.964 362.207 420.367 362.536 421.016 362.536C421.665 362.536 422.067 362.207 422.067 361.622V358.859C422.067 358.283 421.665 357.953 421.016 357.953Z" fill="white"/>
<path d="M442.842 355.895C444.881 355.895 446.042 357.121 446.042 358.621C446.042 360.442 445.146 361.119 443.299 361.75C442.641 361.96 441.863 362.07 441.863 362.363V362.436H445.347C445.731 362.436 445.868 362.564 445.868 362.939V363.927C445.868 364.293 445.731 364.421 445.347 364.421H439.888C439.504 364.421 439.367 364.293 439.367 363.927V362.985C439.367 361.384 440.592 360.835 441.717 360.359C442.686 359.957 443.582 359.618 443.582 358.722C443.582 358.274 443.281 357.944 442.76 357.944C442.238 357.944 441.973 358.164 441.699 358.722C441.525 359.088 441.406 359.161 441.05 359.042L439.76 358.585C439.413 358.457 439.303 358.292 439.449 357.953C439.943 356.728 440.967 355.895 442.833 355.895H442.842Z" fill="white"/>
<path d="M450.349 355.895C452.543 355.895 453.805 357.084 453.805 358.96V361.539C453.805 363.433 452.543 364.613 450.349 364.613C448.154 364.613 446.893 363.433 446.893 361.539V358.96C446.893 357.084 448.154 355.895 450.349 355.895ZM450.349 357.953C449.691 357.953 449.297 358.283 449.297 358.859V361.622C449.297 362.207 449.7 362.536 450.349 362.536C450.998 362.536 451.4 362.207 451.4 361.622V358.859C451.4 358.283 450.998 357.953 450.349 357.953Z" fill="white"/>
<path d="M458.139 355.895C460.178 355.895 461.34 357.121 461.34 358.621C461.34 360.442 460.443 361.119 458.596 361.75C457.938 361.96 457.161 362.07 457.161 362.363V362.436H460.645C461.029 362.436 461.166 362.564 461.166 362.939V363.927C461.166 364.293 461.029 364.421 460.645 364.421H455.186C454.802 364.421 454.665 364.293 454.665 363.927V362.985C454.665 361.384 455.89 360.835 457.015 360.359C457.984 359.957 458.88 359.618 458.88 358.722C458.88 358.274 458.578 357.944 458.057 357.944C457.536 357.944 457.271 358.164 456.996 358.722C456.822 359.088 456.704 359.161 456.347 359.042L455.058 358.585C454.71 358.457 454.601 358.292 454.747 357.953C455.241 356.728 456.265 355.895 458.13 355.895H458.139Z" fill="white"/>
<path d="M466.424 356.572V363.936C466.424 364.302 466.305 364.43 465.911 364.43H464.54C464.156 364.43 464.019 364.302 464.019 363.936V359.033L463.205 359.481C462.803 359.691 462.601 359.609 462.419 359.28L461.852 358.283C461.669 357.953 461.769 357.798 462.099 357.597L464.467 356.279C464.75 356.115 464.878 356.078 465.198 356.078H465.93C466.314 356.078 466.442 356.206 466.442 356.572H466.424Z" fill="white"/>
<path d="M485.059 355.895C487.098 355.895 488.259 357.121 488.259 358.621C488.259 360.442 487.363 361.119 485.516 361.75C484.857 361.96 484.08 362.07 484.08 362.363V362.436H487.564C487.948 362.436 488.085 362.564 488.085 362.939V363.927C488.085 364.293 487.948 364.421 487.564 364.421H482.105C481.721 364.421 481.584 364.293 481.584 363.927V362.985C481.584 361.384 482.809 360.835 483.934 360.359C484.903 359.957 485.799 359.618 485.799 358.722C485.799 358.274 485.498 357.944 484.976 357.944C484.455 357.944 484.19 358.164 483.916 358.722C483.742 359.088 483.623 359.161 483.266 359.042L481.977 358.585C481.63 358.457 481.52 358.292 481.666 357.953C482.16 356.728 483.184 355.895 485.049 355.895H485.059Z" fill="white"/>
<path d="M492.566 355.895C494.76 355.895 496.022 357.084 496.022 358.96V361.539C496.022 363.433 494.76 364.613 492.566 364.613C490.371 364.613 489.109 363.433 489.109 361.539V358.96C489.109 357.084 490.371 355.895 492.566 355.895ZM492.566 357.953C491.907 357.953 491.514 358.283 491.514 358.859V361.622C491.514 362.207 491.917 362.536 492.566 362.536C493.215 362.536 493.617 362.207 493.617 361.622V358.859C493.617 358.283 493.215 357.953 492.566 357.953Z" fill="white"/>
<path d="M500.356 355.895C502.395 355.895 503.556 357.121 503.556 358.621C503.556 360.442 502.66 361.119 500.813 361.75C500.155 361.96 499.378 362.07 499.378 362.363V362.436H502.861C503.245 362.436 503.383 362.564 503.383 362.939V363.927C503.383 364.293 503.245 364.421 502.861 364.421H497.403C497.019 364.421 496.881 364.293 496.881 363.927V362.985C496.881 361.384 498.107 360.835 499.231 360.359C500.201 359.957 501.097 359.618 501.097 358.722C501.097 358.274 500.795 357.944 500.274 357.944C499.753 357.944 499.487 358.164 499.213 358.722C499.039 359.088 498.92 359.161 498.564 359.042L497.275 358.585C496.927 358.457 496.817 358.292 496.964 357.953C497.457 356.728 498.482 355.895 500.347 355.895H500.356Z" fill="white"/>
<path d="M507.79 355.895C509.829 355.895 510.99 357.121 510.99 358.621C510.99 360.442 510.094 361.119 508.247 361.75C507.589 361.96 506.812 362.07 506.812 362.363V362.436H510.295C510.68 362.436 510.817 362.564 510.817 362.939V363.927C510.817 364.293 510.68 364.421 510.295 364.421H504.837C504.453 364.421 504.315 364.293 504.315 363.927V362.985C504.315 361.384 505.541 360.835 506.665 360.359C507.635 359.957 508.531 359.618 508.531 358.722C508.531 358.274 508.229 357.944 507.708 357.944C507.187 357.944 506.921 358.164 506.656 358.722C506.483 359.088 506.364 359.161 505.998 359.042L504.709 358.585C504.361 358.457 504.251 358.292 504.389 357.953C504.882 356.728 505.906 355.895 507.772 355.895H507.79Z" fill="white"/>
<path d="M140.019 64.8105C142.341 64.8105 143.658 65.4783 144.399 66.9419C144.618 67.381 144.49 67.6097 144.024 67.7927L142.451 68.4513C142.03 68.6342 141.857 68.5702 141.601 68.1311C141.299 67.5548 140.741 67.3353 140.019 67.3353C138.949 67.3353 138.528 67.5914 138.528 68.1311C138.528 68.7897 139.452 68.927 140.586 69.0642C142.405 69.3112 144.764 69.7319 144.764 72.6134C144.764 74.8546 142.68 76.0895 139.9 76.0895C137.559 76.0895 135.931 75.312 135.328 73.7294C135.154 73.272 135.301 73.0617 135.749 72.8878L137.221 72.3664C137.696 72.2109 137.916 72.2567 138.144 72.7049C138.428 73.2355 139.04 73.5099 139.918 73.5099C140.97 73.5099 141.601 73.2995 141.601 72.6409C141.601 72.0463 140.796 71.8816 139.763 71.7444C137.925 71.4974 135.346 71.1773 135.346 68.2226C135.346 66.2101 137.01 64.8105 140.01 64.8105H140.019Z" fill="white"/>
<path d="M146.483 65.0393H148.34C148.815 65.0393 148.971 65.1948 148.971 65.6522V75.248C148.971 75.7054 148.815 75.8609 148.34 75.8609H146.483C146.008 75.8609 145.853 75.7054 145.853 75.248V65.6522C145.853 65.1948 146.008 65.0393 146.483 65.0393Z" fill="white"/>
<path d="M153.661 65.6796V73.1898H157.447C157.931 73.1898 158.105 73.3453 158.105 73.8301V75.2206C158.105 75.6962 157.931 75.8609 157.447 75.8609H151.229C150.726 75.8609 150.552 75.6962 150.552 75.2206V65.6796C150.552 65.204 150.726 65.0393 151.229 65.0393H153.003C153.506 65.0393 153.661 65.204 153.661 65.6796Z" fill="white"/>
<path d="M167.432 65.6613L163.957 75.3212C163.802 75.7603 163.591 75.8517 163.143 75.8517H161.178C160.72 75.8517 160.501 75.742 160.364 75.3486L156.88 65.6613C156.725 65.2497 156.862 65.0393 157.337 65.0393H159.129C159.934 65.0393 160.181 65.204 160.309 65.6796L161.799 70.8937C162.046 71.7902 162.147 72.8605 162.147 72.8605H162.284C162.284 72.8605 162.348 71.8085 162.613 70.912L164.104 65.6888C164.232 65.2131 164.469 65.0485 165.237 65.0485H167.011C167.487 65.0485 167.596 65.2589 167.432 65.6705V65.6613Z" fill="white"/>
<path d="M176.219 65.6795V67.0517C176.219 67.5365 176.045 67.7103 175.542 67.7103H171.4V69.0641H174.71C175.213 69.0641 175.387 69.2288 175.387 69.7044V71.0766C175.387 71.5614 175.213 71.7352 174.71 71.7352H171.4V73.1988H175.688C176.173 73.1988 176.347 73.3543 176.347 73.8392V75.2296C176.347 75.7053 176.173 75.8699 175.688 75.8699H168.968C168.465 75.8699 168.291 75.7053 168.291 75.2296V65.6887C168.291 65.213 168.465 65.0483 168.968 65.0483H175.551C176.054 65.0483 176.228 65.213 176.228 65.6887L176.219 65.6795Z" fill="white"/>
<path d="M186.579 68.7165C186.579 70.2076 185.948 71.2778 184.887 71.8541C185.042 72.0554 185.189 72.2658 185.308 72.5127L186.725 75.1198C186.944 75.5315 186.835 75.8699 186.313 75.8699H184.622C183.79 75.8699 183.433 75.6687 183.177 75.1381L182.171 73.0525C181.906 72.531 181.641 72.2749 180.992 72.2749H180.626V75.2296C180.626 75.7053 180.471 75.8699 179.968 75.8699H178.194C177.691 75.8699 177.517 75.7053 177.517 75.2296V65.6887C177.517 65.213 177.691 65.0483 178.194 65.0483H182.665C185.033 65.0483 186.579 66.3564 186.579 68.7165ZM182.327 67.7103H180.635V69.7227H182.327C182.985 69.7227 183.36 69.3294 183.36 68.6982C183.36 68.067 183.003 67.7103 182.327 67.7103Z" fill="white"/>
<path d="M192.532 71.1772V72.4762C192.532 72.961 192.358 73.1165 191.873 73.1165H188.234C187.749 73.1165 187.576 72.961 187.576 72.4762V71.1772C187.576 70.6924 187.749 70.5369 188.234 70.5369H191.873C192.358 70.5369 192.532 70.6924 192.532 71.1772Z" fill="white"/>
<path d="M201.127 64.8105C203.449 64.8105 204.766 65.4783 205.506 66.9419C205.726 67.381 205.598 67.6097 205.132 67.7927L203.559 68.4513C203.138 68.6342 202.965 68.5702 202.708 68.1311C202.407 67.5548 201.849 67.3353 201.127 67.3353C200.057 67.3353 199.636 67.5914 199.636 68.1311C199.636 68.7897 200.56 68.927 201.694 69.0642C203.513 69.3112 205.872 69.7319 205.872 72.6134C205.872 74.8546 203.787 76.0895 201.008 76.0895C198.667 76.0895 197.039 75.312 196.436 73.7294C196.262 73.272 196.408 73.0617 196.856 72.8878L198.329 72.3664C198.804 72.2109 199.024 72.2567 199.252 72.7049C199.536 73.2355 200.148 73.5099 201.026 73.5099C202.078 73.5099 202.708 73.2995 202.708 72.6409C202.708 72.0463 201.904 71.8816 200.871 71.7444C199.033 71.4974 196.454 71.1773 196.454 68.2226C196.454 66.2101 198.118 64.8105 201.117 64.8105H201.127Z" fill="white"/>
<path d="M211.615 73.4185C212.703 73.4185 213.251 72.9154 213.251 72.0189V65.6796C213.251 65.204 213.407 65.0393 213.91 65.0393H215.684C216.186 65.0393 216.36 65.204 216.36 65.6796V71.8817C216.36 74.443 214.723 76.0896 211.615 76.0896C208.506 76.0896 206.887 74.443 206.887 71.8817V65.6796C206.887 65.204 207.043 65.0393 207.546 65.0393H209.319C209.822 65.0393 209.996 65.204 209.996 65.6796V72.0189C209.996 72.9154 210.526 73.4185 211.615 73.4185Z" fill="white"/>
<path d="M226.894 68.8538C226.894 71.2596 225.312 72.6135 222.87 72.6135H220.941V75.2206C220.941 75.6962 220.785 75.8609 220.283 75.8609H218.509C218.006 75.8609 217.832 75.6962 217.832 75.2206V65.6796C217.832 65.204 218.006 65.0393 218.509 65.0393H222.843C225.293 65.0393 226.894 66.4297 226.894 68.8447V68.8538ZM223.675 68.8355C223.675 68.1678 223.236 67.7104 222.495 67.7104H220.941V69.9516H222.495C223.236 69.9516 223.675 69.5125 223.675 68.8355Z" fill="white"/>
<path d="M237.043 68.8538C237.043 71.2596 235.462 72.6135 233.02 72.6135H231.091V75.2206C231.091 75.6962 230.935 75.8609 230.432 75.8609H228.659C228.156 75.8609 227.982 75.6962 227.982 75.2206V65.6796C227.982 65.204 228.156 65.0393 228.659 65.0393H232.993C235.443 65.0393 237.043 66.4297 237.043 68.8447V68.8538ZM233.825 68.8355C233.825 68.1678 233.386 67.7104 232.645 67.7104H231.091V69.9516H232.645C233.386 69.9516 233.825 69.5125 233.825 68.8355Z" fill="white"/>
<path d="M241.25 65.6796V73.1898H245.035C245.52 73.1898 245.693 73.3453 245.693 73.8301V75.2206C245.693 75.6962 245.52 75.8609 245.035 75.8609H238.817C238.314 75.8609 238.141 75.6962 238.141 75.2206V65.6796C238.141 65.204 238.314 65.0393 238.817 65.0393H240.591C241.094 65.0393 241.25 65.204 241.25 65.6796Z" fill="white"/>
<path d="M254.563 65.6796L250.933 71.6713V75.2206C250.933 75.6962 250.777 75.8609 250.275 75.8609H248.501C247.998 75.8609 247.824 75.6962 247.824 75.2206V71.6713L244.212 65.6796C243.993 65.332 244.057 65.0393 244.541 65.0393H246.425C247.211 65.0393 247.431 65.0668 247.733 65.6065L249.415 68.7166L251.143 65.6065C251.445 65.0759 251.664 65.0393 252.432 65.0393H254.234C254.709 65.0393 254.764 65.332 254.563 65.6796Z" fill="white"/>
<path d="M266.953 75.8608H265.261C264.447 75.8608 264.21 75.6961 264.082 75.2204L263.716 74.1227H260.324L259.967 75.2204C259.812 75.6961 259.601 75.8608 258.824 75.8608H257.178C256.693 75.8608 256.593 75.6504 256.757 75.2387L260.369 65.5789C260.525 65.1398 260.735 65.0483 261.183 65.0483H262.975C263.432 65.0483 263.634 65.1581 263.789 65.5515L267.419 75.2387C267.575 75.6504 267.437 75.8608 266.962 75.8608H266.953ZM262.088 67.8201H261.933C261.933 67.8201 261.951 68.9178 261.631 69.9331L261.046 71.7352H263.012L262.427 69.9514C262.116 68.9178 262.079 67.8201 262.079 67.8201H262.088Z" fill="white"/>
<path d="M277.669 65.6795V75.2204C277.669 75.6961 277.495 75.8608 277.011 75.8608H275.237C274.908 75.8608 274.734 75.7693 274.597 75.5589L272.183 71.9456C271.488 70.8936 271.223 70.1801 270.802 68.808H270.674C271.003 70.2716 271.195 71.0491 271.195 72.7414V75.2296C271.195 75.7053 271.022 75.8699 270.519 75.8699H268.928C268.425 75.8699 268.251 75.7053 268.251 75.2296V65.6887C268.251 65.213 268.425 65.0483 268.928 65.0483H270.784C271.15 65.0483 271.305 65.1398 271.442 65.3502L274.021 69.2471C274.716 70.299 274.834 70.8753 275.337 72.0371H275.465C274.963 70.4637 274.761 69.7319 274.761 68.186V65.6887C274.761 65.213 274.917 65.0483 275.42 65.0483H277.02C277.504 65.0483 277.678 65.213 277.678 65.6887L277.669 65.6795Z" fill="white"/>
<path d="M288.568 69.3112V71.5981C288.568 74.2143 286.84 75.8609 283.75 75.8609H279.918C279.415 75.8609 279.242 75.6962 279.242 75.2206V65.6796C279.242 65.204 279.415 65.0393 279.918 65.0393H283.75C286.84 65.0393 288.568 66.6676 288.568 69.3021V69.3112ZM283.64 67.7104H282.351V73.1989H283.64C284.911 73.1989 285.459 72.6318 285.459 71.5524V69.357C285.459 68.2775 284.911 67.7104 283.64 67.7104Z" fill="white"/>
<path d="M294.722 71.1772V72.4762C294.722 72.961 294.548 73.1165 294.064 73.1165H290.424C289.94 73.1165 289.766 72.961 289.766 72.4762V71.1772C289.766 70.6924 289.94 70.5369 290.424 70.5369H294.064C294.548 70.5369 294.722 70.6924 294.722 71.1772Z" fill="white"/>
<path d="M308.328 69.3112V71.5981C308.328 74.2143 306.6 75.8609 303.509 75.8609H299.678C299.175 75.8609 299.001 75.6962 299.001 75.2206V65.6796C299.001 65.204 299.175 65.0393 299.678 65.0393H303.509C306.6 65.0393 308.328 66.6676 308.328 69.3021V69.3112ZM303.4 67.7104H302.11V73.1989H303.4C304.671 73.1989 305.219 72.6318 305.219 71.5524V69.357C305.219 68.2775 304.671 67.7104 303.4 67.7104Z" fill="white"/>
<path d="M317.563 65.6795V67.0517C317.563 67.5365 317.39 67.7103 316.887 67.7103H312.745V69.0641H316.055C316.558 69.0641 316.731 69.2288 316.731 69.7044V71.0766C316.731 71.5614 316.558 71.7352 316.055 71.7352H312.745V73.1988H317.033C317.518 73.1988 317.691 73.3543 317.691 73.8392V75.2296C317.691 75.7053 317.518 75.8699 317.033 75.8699H310.312C309.809 75.8699 309.636 75.7053 309.636 75.2296V65.6887C309.636 65.213 309.809 65.0483 310.312 65.0483H316.896C317.399 65.0483 317.573 65.213 317.573 65.6887L317.563 65.6795Z" fill="white"/>
<path d="M330.246 65.6612V75.2296C330.246 75.7052 330.072 75.8516 329.569 75.8516H327.859C327.356 75.8516 327.201 75.6961 327.201 75.2296V73.0524C327.201 72.0462 327.292 71.0857 327.896 69.0641H327.722C327.567 69.5672 327 70.9577 326.671 71.5797L325.793 73.2994C325.619 73.6013 325.464 73.7385 325.043 73.7385H323.991C323.562 73.7385 323.406 73.6287 323.233 73.2994L322.309 71.5797C321.98 71.0034 321.495 69.5947 321.331 69.0641H321.175C321.742 71.2595 321.815 72.0188 321.815 73.0707V75.2387C321.815 75.7144 321.642 75.8608 321.139 75.8608H319.538C319.036 75.8608 318.862 75.7052 318.862 75.2387V65.6704C318.862 65.1855 319.036 65.03 319.538 65.03H321.02C321.568 65.03 321.724 65.1215 321.943 65.5057L324.531 70.4454L327.119 65.524C327.338 65.1124 327.484 65.0392 327.996 65.0392H329.569C330.072 65.0392 330.246 65.1947 330.246 65.6795V65.6612Z" fill="white"/>
<path d="M341.31 75.8608H339.618C338.805 75.8608 338.567 75.6961 338.439 75.2204L338.073 74.1227H334.681L334.315 75.2204C334.16 75.6961 333.958 75.8608 333.172 75.8608H331.526C331.042 75.8608 330.95 75.6504 331.106 75.2387L334.717 65.5789C334.873 65.1398 335.083 65.0483 335.531 65.0483H337.323C337.78 65.0483 337.982 65.1581 338.137 65.5515L341.767 75.2387C341.923 75.6504 341.785 75.8608 341.31 75.8608ZM336.445 67.8201H336.29C336.29 67.8201 336.308 68.9178 335.988 69.9331L335.403 71.7352H337.369L336.784 69.9514C336.473 68.9178 336.436 67.8201 336.436 67.8201H336.445Z" fill="white"/>
<path d="M352.035 65.6795V75.2204C352.035 75.6961 351.862 75.8608 351.377 75.8608H349.603C349.274 75.8608 349.1 75.7693 348.963 75.5589L346.549 71.9456C345.854 70.8936 345.589 70.1801 345.168 68.808H345.04C345.37 70.2716 345.562 71.0491 345.562 72.7414V75.2296C345.562 75.7053 345.388 75.8699 344.885 75.8699H343.303C342.8 75.8699 342.626 75.7053 342.626 75.2296V65.6887C342.626 65.213 342.8 65.0483 343.303 65.0483H345.159C345.525 65.0483 345.681 65.1398 345.818 65.3502L348.396 69.2471C349.091 70.299 349.21 70.8753 349.713 72.0371H349.841C349.338 70.4637 349.137 69.7319 349.137 68.186V65.6887C349.137 65.213 349.292 65.0483 349.795 65.0483H351.395C351.88 65.0483 352.054 65.213 352.054 65.6887L352.035 65.6795Z" fill="white"/>
<path d="M362.926 69.3112V71.5981C362.926 74.2143 361.198 75.8609 358.107 75.8609H354.276C353.773 75.8609 353.599 75.6962 353.599 75.2206V65.6796C353.599 65.204 353.773 65.0393 354.276 65.0393H358.107C361.198 65.0393 362.926 66.6676 362.926 69.3021V69.3112ZM357.997 67.7104H356.708V73.1989H357.997C359.268 73.1989 359.817 72.6318 359.817 71.5524V69.357C359.817 68.2775 359.268 67.7104 357.997 67.7104Z" fill="white"/>
<path d="M6.94918 107.996V120.071C6.94918 120.245 6.89432 120.3 6.72973 120.3H6.34569C6.16282 120.3 6.10795 120.245 6.10795 120.071V108.755L1.60921 111.17C1.46291 111.262 1.37148 111.244 1.28004 111.079L1.09716 110.777C1.00573 110.649 1.06059 110.567 1.1886 110.493L6.08052 107.85C6.19025 107.777 6.24511 107.758 6.4097 107.758H6.72059C6.88517 107.758 6.94004 107.813 6.94004 107.987L6.94918 107.996Z" fill="white"/>
<path d="M16.3583 113.823C17.7938 114.244 18.4888 115.396 18.4888 116.897C18.4888 119.119 17.1629 120.547 14.1912 120.547C11.2195 120.547 10.1679 119.412 9.57358 117.4C9.51872 117.244 9.5553 117.171 9.71989 117.116L10.0673 116.988C10.2319 116.933 10.3051 116.97 10.3599 117.125C10.9086 118.873 11.7955 119.769 14.2003 119.769C16.6051 119.769 17.6384 118.671 17.6384 116.878C17.6384 115.268 16.7057 114.235 14.941 114.235H11.9052C11.7407 114.235 11.6858 114.18 11.6858 114.024V113.722C11.6858 113.549 11.7407 113.494 11.9052 113.494H14.8495C16.5411 113.494 17.2909 112.332 17.2909 111.042C17.2909 109.258 16.2577 108.27 14.2003 108.27C11.9235 108.27 11.0183 109.085 10.4697 110.85C10.4148 111.006 10.3417 111.024 10.1771 110.978L9.82961 110.868C9.66502 110.813 9.62845 110.74 9.68331 110.567C10.2868 108.572 11.4846 107.511 14.2186 107.511C16.8063 107.511 18.1139 108.801 18.1139 110.987C18.1139 112.204 17.6018 113.357 16.3674 113.814L16.3583 113.823Z" fill="white"/>
<path d="M25.0814 107.52C27.9709 107.52 29.635 109.075 29.635 111.527V116.54C29.635 119.01 27.98 120.546 25.0814 120.546C22.1829 120.546 20.5278 119.01 20.5278 116.54V111.527C20.5278 109.075 22.1829 107.52 25.0814 107.52ZM25.0814 108.28C22.6949 108.28 21.3691 109.514 21.3691 111.527V116.54C21.3691 118.571 22.6949 119.787 25.0814 119.787C27.468 119.787 28.7938 118.571 28.7938 116.54V111.527C28.7938 109.514 27.468 108.28 25.0814 108.28Z" fill="white"/>
<path d="M36.392 107.52C39.2814 107.52 40.9456 109.075 40.9456 111.527V116.54C40.9456 119.01 39.2906 120.546 36.392 120.546C33.4934 120.546 31.8384 119.01 31.8384 116.54V111.527C31.8384 109.075 33.4934 107.52 36.392 107.52ZM36.392 108.28C34.0055 108.28 32.6796 109.514 32.6796 111.527V116.54C32.6796 118.571 34.0055 119.787 36.392 119.787C38.7785 119.787 40.1044 118.571 40.1044 116.54V111.527C40.1044 109.514 38.7785 108.28 36.392 108.28Z" fill="white"/>
<path d="M498.418 114.125H76.4238V115.845H498.418V114.125Z" fill="white"/>
<path d="M7.07711 166.733V178.808C7.07711 178.981 7.02225 179.036 6.85766 179.036H6.47362C6.29075 179.036 6.23588 178.981 6.23588 178.808V167.492L1.73714 169.907C1.59084 169.998 1.49941 169.98 1.40797 169.815L1.22509 169.514C1.13366 169.386 1.18852 169.303 1.31653 169.23L6.20845 166.586C6.31818 166.513 6.37304 166.495 6.53763 166.495H6.84852C7.0131 166.495 7.06797 166.55 7.06797 166.724L7.07711 166.733Z" fill="white"/>
<path d="M14.4289 166.257C16.852 166.257 18.4522 167.931 18.4522 169.943C18.4522 172.66 16.4497 173.456 13.8437 174.444C12.207 175.048 10.6068 175.642 10.6068 177.39V178.268H18.1596C18.3424 178.268 18.3973 178.323 18.3973 178.478V178.798C18.3973 178.972 18.3424 179.027 18.1596 179.027H9.96674C9.80215 179.027 9.729 178.954 9.729 178.798V177.527C9.729 175.176 11.6218 174.417 13.606 173.676C15.6085 172.935 17.5744 172.313 17.5744 169.971C17.5744 168.333 16.3034 167.007 14.4106 167.007C12.5179 167.007 11.3017 167.803 10.5702 169.395C10.4971 169.532 10.4239 169.568 10.2776 169.523L9.91188 169.395C9.74729 169.321 9.71072 169.266 9.76558 169.111C10.6068 167.236 12.0058 166.248 14.4198 166.248L14.4289 166.257Z" fill="white"/>
<path d="M25.0814 166.257C27.9709 166.257 29.635 167.812 29.635 170.263V175.276C29.635 177.746 27.98 179.283 25.0814 179.283C22.1829 179.283 20.5278 177.746 20.5278 175.276V170.263C20.5278 167.812 22.1829 166.257 25.0814 166.257ZM25.0814 167.016C22.6949 167.016 21.3691 168.251 21.3691 170.263V175.276C21.3691 177.307 22.6949 178.524 25.0814 178.524C27.468 178.524 28.7938 177.307 28.7938 175.276V170.263C28.7938 168.251 27.468 167.016 25.0814 167.016Z" fill="white"/>
<path d="M36.392 166.257C39.2814 166.257 40.9456 167.812 40.9456 170.263V175.276C40.9456 177.746 39.2906 179.283 36.392 179.283C33.4934 179.283 31.8384 177.746 31.8384 175.276V170.263C31.8384 167.812 33.4934 166.257 36.392 166.257ZM36.392 167.016C34.0055 167.016 32.6796 168.251 32.6796 170.263V175.276C32.6796 177.307 34.0055 178.524 36.392 178.524C38.7785 178.524 40.1044 177.307 40.1044 175.276V170.263C40.1044 168.251 38.7785 167.016 36.392 167.016Z" fill="white"/>
<path d="M498.418 172.852H76.4233V174.572H498.418V172.852Z" fill="white"/>
<path d="M9.62838 223.85V235.925C9.62838 236.099 9.57352 236.154 9.40893 236.154H9.02489C8.84202 236.154 8.78715 236.099 8.78715 235.925V224.609L4.28841 227.024C4.14211 227.116 4.05068 227.098 3.95924 226.933L3.77636 226.631C3.68492 226.503 3.73979 226.421 3.8678 226.347L8.75972 223.704C8.86945 223.631 8.92431 223.612 9.0889 223.612H9.39979C9.56437 223.612 9.61924 223.667 9.61924 223.841L9.62838 223.85Z" fill="white"/>
<path d="M17.7299 223.85V235.925C17.7299 236.099 17.6751 236.154 17.5105 236.154H17.1265C16.9436 236.154 16.8887 236.099 16.8887 235.925V224.609L12.39 227.024C12.2437 227.116 12.1522 227.098 12.0608 226.933L11.8779 226.631C11.7865 226.503 11.8414 226.421 11.9694 226.347L16.8613 223.704C16.971 223.631 17.0259 223.612 17.1905 223.612H17.5013C17.6659 223.612 17.7208 223.667 17.7208 223.841L17.7299 223.85Z" fill="white"/>
<path d="M25.0814 223.375C27.9709 223.375 29.635 224.93 29.635 227.381V232.394C29.635 234.864 27.98 236.401 25.0814 236.401C22.1829 236.401 20.5278 234.864 20.5278 232.394V227.381C20.5278 224.93 22.1829 223.375 25.0814 223.375ZM25.0814 224.134C22.6949 224.134 21.3691 225.369 21.3691 227.381V232.394C21.3691 234.425 22.6949 235.641 25.0814 235.641C27.468 235.641 28.7938 234.425 28.7938 232.394V227.381C28.7938 225.369 27.468 224.134 25.0814 224.134Z" fill="white"/>
<path d="M36.392 223.375C39.2814 223.375 40.9456 224.93 40.9456 227.381V232.394C40.9456 234.864 39.2906 236.401 36.392 236.401C33.4934 236.401 31.8384 234.864 31.8384 232.394V227.381C31.8384 224.93 33.4934 223.375 36.392 223.375ZM36.392 224.134C34.0055 224.134 32.6796 225.369 32.6796 227.381V232.394C32.6796 234.425 34.0055 235.641 36.392 235.641C38.7785 235.641 40.1044 234.425 40.1044 232.394V227.381C40.1044 225.369 38.7785 224.134 36.392 224.134Z" fill="white"/>
<path d="M498.418 231.58H76.4238V233.3H498.418V231.58Z" fill="white"/>
<path d="M6.40963 284.974V297.049C6.40963 297.223 6.35477 297.278 6.19018 297.278H5.80614C5.62327 297.278 5.5684 297.223 5.5684 297.049V285.733L1.06966 288.148C0.923364 288.24 0.831926 288.222 0.740488 288.057L0.557613 287.755C0.466175 287.627 0.521038 287.545 0.64905 287.471L5.54097 284.828C5.6507 284.755 5.70556 284.736 5.87015 284.736H6.18104C6.34562 284.736 6.40049 284.791 6.40049 284.965L6.40963 284.974Z" fill="white"/>
<path d="M13.7611 284.499C16.6506 284.499 18.3147 286.054 18.3147 288.505V293.518C18.3147 295.988 16.6597 297.525 13.7611 297.525C10.8625 297.525 9.20752 295.988 9.20752 293.518V288.505C9.20752 286.054 10.8625 284.499 13.7611 284.499ZM13.7611 285.258C11.3746 285.258 10.0487 286.493 10.0487 288.505V293.518C10.0487 295.549 11.3746 296.765 13.7611 296.765C16.1476 296.765 17.4735 295.549 17.4735 293.518V288.505C17.4735 286.493 16.1476 285.258 13.7611 285.258Z" fill="white"/>
<path d="M25.0722 284.499C27.9616 284.499 29.6258 286.054 29.6258 288.505V293.518C29.6258 295.988 27.9707 297.525 25.0722 297.525C22.1736 297.525 20.5186 295.988 20.5186 293.518V288.505C20.5186 286.054 22.1736 284.499 25.0722 284.499ZM25.0722 285.258C22.6856 285.258 21.3598 286.493 21.3598 288.505V293.518C21.3598 295.549 22.6856 296.765 25.0722 296.765C27.4587 296.765 28.7845 295.549 28.7845 293.518V288.505C28.7845 286.493 27.4587 285.258 25.0722 285.258Z" fill="white"/>
<path d="M36.392 284.499C39.2814 284.499 40.9456 286.054 40.9456 288.505V293.518C40.9456 295.988 39.2906 297.525 36.392 297.525C33.4934 297.525 31.8384 295.988 31.8384 293.518V288.505C31.8384 286.054 33.4934 284.499 36.392 284.499ZM36.392 285.258C34.0055 285.258 32.6796 286.493 32.6796 288.505V293.518C32.6796 295.549 34.0055 296.765 36.392 296.765C38.7785 296.765 40.1044 295.549 40.1044 293.518V288.505C40.1044 286.493 38.7785 285.258 36.392 285.258Z" fill="white"/>
<path d="M498.418 291.094H76.4233V292.814H498.418V291.094Z" fill="white"/>
<path d="M13.5599 348.815C10.5424 348.815 9.13428 347.598 9.13428 345.073C9.13428 342.722 10.8442 341.35 13.7153 341.35C16.7328 341.35 18.3238 343.024 18.3238 345.732V350.004C18.3238 352.867 16.7236 354.386 13.7153 354.386C11.3654 354.386 9.98465 353.453 9.30801 351.724C9.25315 351.568 9.28972 351.513 9.45431 351.458L9.80177 351.33C9.96636 351.257 10.0395 351.312 10.0944 351.468C10.6796 352.858 11.8043 353.617 13.7153 353.617C16.175 353.617 17.4825 352.382 17.4825 349.995V348.138C17.0436 348.312 15.6264 348.806 13.5507 348.806L13.5599 348.815ZM13.7245 342.11C11.3379 342.11 9.9755 343.171 9.9755 345.073C9.9755 347.086 11.0819 348.055 13.5964 348.055C15.7635 348.055 17.1808 347.47 17.4917 347.351V345.723C17.4917 343.445 16.2024 342.1 13.7245 342.1V342.11Z" fill="white"/>
<path d="M25.0809 341.341C27.9704 341.341 29.6345 342.896 29.6345 345.348V350.361C29.6345 352.831 27.9795 354.367 25.0809 354.367C22.1824 354.367 20.5273 352.831 20.5273 350.361V345.348C20.5273 342.896 22.1824 341.341 25.0809 341.341ZM25.0809 342.101C22.6944 342.101 21.3686 343.335 21.3686 345.348V350.361C21.3686 352.392 22.6944 353.608 25.0809 353.608C27.4675 353.608 28.7933 352.392 28.7933 350.361V345.348C28.7933 343.335 27.4675 342.101 25.0809 342.101Z" fill="white"/>
<path d="M36.4013 341.341C39.2907 341.341 40.9549 342.896 40.9549 345.348V350.361C40.9549 352.831 39.2998 354.367 36.4013 354.367C33.5027 354.367 31.8477 352.831 31.8477 350.361V345.348C31.8477 342.896 33.5027 341.341 36.4013 341.341ZM36.4013 342.101C34.0147 342.101 32.6889 343.335 32.6889 345.348V350.361C32.6889 352.392 34.0147 353.608 36.4013 353.608C38.7878 353.608 40.1136 352.392 40.1136 350.361V345.348C40.1136 343.335 38.7878 342.101 36.4013 342.101Z" fill="white"/>
<path d="M498.418 347.937H76.4233V349.657H498.418V347.937Z" fill="white"/>
<path d="M108.281 0H44.576C41.2279 0 38.5137 2.71532 38.5137 6.06484V69.7959C38.5137 73.1454 41.2279 75.8608 44.576 75.8608H108.281C111.629 75.8608 114.343 73.1454 114.343 69.7959V6.06484C114.343 2.71532 111.629 0 108.281 0Z" fill="#A0A0A0"/>
<path d="M78.4078 60.9502H72.382L69.9863 54.9037H59.0138L56.7461 60.9502H50.8667L61.5558 34.3125H67.4169L78.4078 60.9502ZM68.2033 50.4122L64.4178 40.5328L60.7145 50.4122H68.2033Z" fill="white"/>
<path d="M80.8308 62.2218L86.8383 62.9262C86.9388 63.6031 87.1674 64.0696 87.5332 64.3257C88.0361 64.6916 88.8225 64.8746 89.8923 64.8746C91.2638 64.8746 92.2971 64.6734 92.9829 64.2709C93.4401 64.0056 93.7967 63.5756 94.0344 62.981C94.199 62.5603 94.2813 61.7736 94.2813 60.6393V57.8218C92.7086 59.9075 90.7244 60.9503 88.3287 60.9503C85.6587 60.9503 83.5374 59.8526 81.9829 57.6572C80.7577 55.9283 80.145 53.7695 80.145 51.1898C80.145 47.9516 80.9497 45.4818 82.5498 43.7803C84.15 42.0697 86.1433 41.219 88.5299 41.219C90.9164 41.219 93.0195 42.271 94.6196 44.3658V41.6581H99.5481V58.9744C99.5481 61.2522 99.3561 62.9536 98.9721 64.0788C98.588 65.2039 98.0394 66.0912 97.3445 66.7315C96.6404 67.3719 95.7077 67.875 94.5465 68.2409C93.3852 68.6068 91.9039 68.7898 90.1209 68.7898C86.7468 68.7898 84.3603 68.2318 82.9522 67.1066C81.544 65.9906 80.8399 64.5636 80.8399 62.8438C80.8399 62.67 80.8399 62.4688 80.8582 62.2218H80.8308ZM85.5307 50.9063C85.5307 52.9553 85.9422 54.4555 86.756 55.4069C87.5698 56.3582 88.5847 56.8339 89.7826 56.8339C91.0718 56.8339 92.1508 56.3491 93.0377 55.3703C93.9247 54.3915 94.3636 52.9553 94.3636 51.0343C94.3636 49.1133 93.943 47.5491 93.0926 46.5795C92.2422 45.6098 91.1724 45.125 89.874 45.125C88.5756 45.125 87.5698 45.6007 86.756 46.552C85.9422 47.5034 85.5307 48.9487 85.5307 50.9063Z" fill="white"/>
<path d="M58.7947 16.42L59.9559 16.3194C60.0108 16.7676 60.1388 17.1426 60.34 17.4354C60.5411 17.7281 60.852 17.9568 61.2818 18.1397C61.7024 18.3227 62.1779 18.405 62.7082 18.405C63.1745 18.405 63.5951 18.341 63.9517 18.2038C64.3084 18.0666 64.5827 17.8836 64.7564 17.6458C64.9301 17.4079 65.0216 17.1518 65.0216 16.8682C65.0216 16.5846 64.9393 16.3377 64.7655 16.1273C64.5918 15.9169 64.3175 15.7339 63.9243 15.5967C63.6774 15.5052 63.1197 15.3589 62.2693 15.1576C61.4098 14.9564 60.8154 14.7734 60.468 14.5905C60.0199 14.3618 59.6907 14.0874 59.4713 13.7489C59.2518 13.4104 59.1421 13.0354 59.1421 12.6238C59.1421 12.1664 59.2793 11.7456 59.5444 11.3431C59.8096 10.9497 60.2028 10.6479 60.7149 10.4375C61.2269 10.2271 61.7938 10.1265 62.4247 10.1265C63.1197 10.1265 63.7231 10.2362 64.2535 10.4466C64.7838 10.6662 65.1862 10.9772 65.4696 11.398C65.7531 11.8188 65.9085 12.2944 65.9268 12.825L64.7473 12.9073C64.6832 12.3402 64.4729 11.9011 64.098 11.6084C63.7323 11.3156 63.1928 11.1693 62.4705 11.1693C61.7481 11.1693 61.1812 11.3065 60.8429 11.5626C60.5045 11.8279 60.3308 12.1481 60.3308 12.5231C60.3308 12.8433 60.4497 13.1177 60.6966 13.3281C60.9343 13.5385 61.5561 13.7489 62.5528 13.9684C63.5586 14.188 64.2443 14.3801 64.6192 14.5447C65.1587 14.7917 65.5611 15.0936 65.8171 15.4686C66.0731 15.8437 66.2011 16.2645 66.2011 16.7584C66.2011 17.2524 66.064 17.6915 65.7714 18.1214C65.4879 18.5514 65.0764 18.8807 64.5461 19.1185C64.0157 19.3564 63.4123 19.4753 62.7539 19.4753C61.9127 19.4753 61.2086 19.3564 60.6326 19.1185C60.0656 18.8807 59.6176 18.5239 59.2884 18.0391C58.9592 17.5543 58.7947 17.0146 58.7764 16.4108L58.7947 16.42Z" fill="white"/>
<path d="M68.4048 11.5626V10.282H69.5478V11.5626H68.4048ZM68.4048 19.3289V12.7793H69.5478V19.3289H68.4048Z" fill="white"/>
<path d="M71.916 19.3288V10.291H73.059V19.3288H71.916Z" fill="white"/>
<path d="M77.3565 19.329L74.7871 12.7793H75.9941L77.4388 16.7036C77.5943 17.1244 77.7406 17.5635 77.8686 18.0209C77.9691 17.6732 78.1154 17.2616 78.2983 16.7768L79.7979 12.7793H80.9774L78.4263 19.329H77.3565Z" fill="white"/>
<path d="M87.2682 17.2159L88.4478 17.3622C88.2649 18.03 87.9175 18.5514 87.4145 18.9265C86.9116 19.3015 86.2624 19.4845 85.4852 19.4845C84.4977 19.4845 83.7113 19.1917 83.1353 18.5972C82.5592 18.0117 82.2666 17.1793 82.2666 16.1182C82.2666 15.057 82.5592 14.1606 83.1444 13.5568C83.7296 12.9531 84.4885 12.6421 85.4212 12.6421C86.3539 12.6421 87.0579 12.944 87.634 13.5386C88.2101 14.1331 88.4935 14.9747 88.4935 16.0541C88.4935 16.1182 88.4935 16.2188 88.4935 16.3469H83.4644C83.5102 17.0695 83.7205 17.6184 84.0954 18.0026C84.4703 18.3868 84.9457 18.5789 85.5035 18.5789C85.9241 18.5789 86.2807 18.4691 86.5733 18.2587C86.8659 18.0483 87.1037 17.7007 87.2774 17.2342L87.2682 17.2159ZM83.5102 15.423H87.2774C87.2225 14.8741 87.0854 14.4625 86.8476 14.1789C86.4819 13.7489 86.0064 13.5386 85.4303 13.5386C84.9092 13.5386 84.4611 13.7124 84.1045 14.0508C83.7479 14.3893 83.5467 14.8467 83.5102 15.423Z" fill="white"/>
<path d="M90.5234 19.329V12.7793H91.5567V13.7764C91.8219 13.3099 92.0596 13.008 92.2882 12.8616C92.5076 12.7153 92.7545 12.6421 93.0197 12.6421C93.4037 12.6421 93.7969 12.761 94.1992 12.9988L93.8061 14.0325C93.5226 13.8679 93.2483 13.7947 92.9648 13.7947C92.7179 13.7947 92.4893 13.8679 92.2882 14.0142C92.087 14.1606 91.9499 14.3618 91.8584 14.618C91.7304 15.0113 91.6664 15.4412 91.6664 15.9169V19.3473H90.5234V19.329Z" fill="white"/>
<path d="M414.158 309.352C413.719 309.352 413.289 309.215 412.915 308.959L371.612 279.76L330.447 281.571C330.291 281.571 330.127 281.571 329.971 281.535L287.032 273.704C286.868 273.677 286.703 273.622 286.548 273.558L245.135 255.299L160.866 252.107L126.138 267.566C126.074 267.594 126.01 267.621 125.937 267.639L77.091 283.757C75.9663 284.132 74.7502 283.52 74.3753 282.385C74.0004 281.26 74.613 280.044 75.7469 279.668L124.492 263.578L159.577 247.963C159.879 247.826 160.208 247.771 160.537 247.78L245.721 251C245.995 251.009 246.26 251.073 246.507 251.183L288.056 269.505L330.502 277.244L372.161 275.415C372.636 275.406 373.112 275.534 373.496 275.808L414.478 304.778L455.707 289.914C455.762 289.895 455.826 289.877 455.881 289.859L497.851 278.708C498.994 278.397 500.174 279.083 500.484 280.236C500.795 281.388 500.11 282.559 498.957 282.87L457.07 293.994L414.871 309.215C414.634 309.297 414.387 309.343 414.14 309.343L414.158 309.352Z" fill="#0049FF"/>
<path d="M329.432 312.902C329.368 312.902 329.313 312.902 329.249 312.902L287.233 309.361C286.712 309.316 286.228 309.087 285.862 308.712L243.334 264.584H200.925L161.25 280.583C160.537 280.867 159.733 280.757 159.12 280.281L118.768 248.814L77.402 270.292C76.3505 270.841 75.0521 270.429 74.5034 269.377C73.9548 268.325 74.3663 267.026 75.4178 266.478L118.01 244.368C118.759 243.984 119.655 244.066 120.323 244.578L160.784 276.128L199.691 260.431C199.947 260.33 200.221 260.276 200.496 260.276H244.239C244.825 260.276 245.382 260.513 245.785 260.934L288.386 305.135L328.316 308.502L367.598 248.878L411.744 159.177C412.083 158.481 412.777 158.024 413.555 157.978C414.323 157.933 415.063 158.308 415.484 158.957L457.591 224.289L498.372 223.841H498.4C499.579 223.841 500.539 224.792 500.549 225.972C500.558 227.161 499.607 228.131 498.418 228.149L456.448 228.607C455.735 228.607 455.013 228.241 454.619 227.619L413.93 164.482L371.411 250.899C371.374 250.982 371.329 251.055 371.274 251.137L331.215 311.941C330.813 312.545 330.136 312.911 329.423 312.911L329.432 312.902Z" fill="#BCBCBC"/>
<path d="M0 405.914C0 403.325 2.07564 401.176 4.67247 401.166C7.27845 401.148 9.3998 403.261 9.3998 405.868V427.978C9.3998 430.567 7.32417 432.716 4.72733 432.725C2.12136 432.735 0 430.622 0 428.024V405.914Z" fill="#0049FF"/>
<path d="M15.1422 426.898C15.8371 427.292 16.9161 427.639 18.0316 427.639C19.4123 427.639 20.1987 426.999 20.1987 426.057C20.1987 425.179 19.5952 424.666 18.0865 424.127C16.1023 423.441 14.8405 422.425 14.8405 420.751C14.8405 418.839 16.468 417.412 19.0832 417.412C20.3816 417.412 21.3143 417.687 21.936 417.998L21.424 419.699C20.9759 419.471 20.1438 419.15 19.0283 419.15C17.6476 419.15 17.0624 419.855 17.0624 420.541C17.0624 421.437 17.7573 421.849 19.3483 422.453C21.424 423.212 22.4206 424.227 22.4206 425.901C22.4206 427.777 20.9668 429.396 17.8945 429.396C16.6143 429.396 15.3068 429.048 14.6484 428.655L15.1422 426.898Z" fill="white"/>
<path d="M26.6175 418.483C26.6175 419.105 26.142 419.617 25.374 419.617C24.6059 419.617 24.167 419.105 24.167 418.483C24.167 417.833 24.6608 417.33 25.3923 417.33C26.1238 417.33 26.5992 417.833 26.6175 418.483ZM24.295 429.213V420.824H26.4804V429.213H24.295Z" fill="white"/>
<path d="M28.8394 416.982H31.0247V429.213H28.8394V416.982Z" fill="white"/>
<path d="M34.7833 420.824L36.1823 425.078C36.4292 425.819 36.612 426.487 36.7675 427.182H36.8223C36.9778 426.496 37.1789 425.837 37.4075 425.078L38.7882 420.824H41.0742L37.7733 429.213H35.6245L32.415 420.824H34.7741H34.7833Z" fill="white"/>
<path d="M43.7258 425.609C43.7806 427.127 44.9876 427.777 46.3866 427.777C47.4016 427.777 48.1056 427.621 48.7823 427.402L49.1023 428.847C48.3617 429.158 47.3284 429.377 46.0849 429.377C43.2777 429.377 41.6318 427.703 41.6318 425.142C41.6318 422.819 43.0857 420.632 45.8563 420.632C48.6268 420.632 49.5778 422.873 49.5778 424.712C49.5778 425.106 49.5412 425.417 49.5046 425.609H43.7258ZM47.5204 424.127C47.5387 423.349 47.1821 422.078 45.7282 422.078C44.3841 422.078 43.8172 423.267 43.7258 424.127H47.5204Z" fill="white"/>
<path d="M51.3334 423.523C51.3334 422.389 51.3151 421.556 51.2603 420.815H53.1439L53.2353 422.398H53.2902C53.7199 421.227 54.7257 420.623 55.6676 420.623C55.8779 420.623 56.0059 420.641 56.1796 420.678V422.663C55.9876 422.626 55.7864 422.608 55.5213 422.608C54.4972 422.608 53.7656 423.248 53.5736 424.209C53.5371 424.401 53.5188 424.621 53.5188 424.849V429.203H51.3334V423.523Z" fill="white"/>
<path d="M61.3732 426.898C62.0681 427.292 63.147 427.639 64.2626 427.639C65.6433 427.639 66.4297 426.999 66.4297 426.057C66.4297 425.179 65.8262 424.666 64.3174 424.127C62.3333 423.441 61.0714 422.425 61.0714 420.751C61.0714 418.839 62.699 417.412 65.3141 417.412C66.6125 417.412 67.5452 417.687 68.167 417.998L67.6549 419.699C67.2069 419.471 66.3748 419.15 65.2593 419.15C63.8786 419.15 63.2934 419.855 63.2934 420.541C63.2934 421.437 63.9883 421.849 65.5793 422.453C67.6549 423.212 68.6516 424.227 68.6516 425.901C68.6516 427.777 67.1977 429.396 64.1254 429.396C62.8453 429.396 61.5377 429.048 60.8794 428.655L61.3732 426.898Z" fill="white"/>
<path d="M78.2618 426.697C78.2618 427.694 78.2984 428.527 78.335 429.213H76.4331L76.3233 427.959H76.2685C75.8936 428.545 75.0432 429.405 73.4796 429.405C71.916 429.405 70.4805 428.49 70.4805 425.755V420.833H72.6658V425.398C72.6658 426.798 73.123 427.685 74.2843 427.685C75.1712 427.685 75.7381 427.1 75.9484 426.551C76.0399 426.377 76.0765 426.139 76.0765 425.901V420.843H78.2618V426.715V426.697Z" fill="white"/>
<path d="M80.6298 423.614C80.6298 422.517 80.5932 421.62 80.5566 420.824H82.4768L82.5866 422.114H82.6231C83.2632 421.172 84.269 420.632 85.5857 420.632C87.5699 420.632 89.2249 422.288 89.2249 424.904C89.2249 427.932 87.259 429.396 85.284 429.396C84.205 429.396 83.2998 428.947 82.8517 428.28H82.8152V432.616H80.6298V423.614ZM82.8152 425.7C82.8152 425.91 82.8334 426.093 82.87 426.286C83.0986 427.145 83.8667 427.767 84.7994 427.767C86.1801 427.767 87.003 426.651 87.003 424.996C87.003 423.514 86.2624 422.306 84.8542 422.306C83.949 422.306 83.1169 422.947 82.8883 423.871C82.8517 424.044 82.8152 424.236 82.8152 424.401V425.691V425.7Z" fill="white"/>
<path d="M91.0082 423.614C91.0082 422.517 90.9716 421.62 90.9351 420.824H92.8461L92.9558 422.114H92.9924C93.6325 421.172 94.6383 420.632 95.955 420.632C97.9392 420.632 99.5942 422.288 99.5942 424.904C99.5942 427.932 97.6283 429.396 95.6533 429.396C94.5743 429.396 93.669 428.947 93.221 428.28H93.1844V432.616H90.9991V423.614H91.0082ZM93.1936 425.7C93.1936 425.91 93.2119 426.093 93.2484 426.286C93.477 427.145 94.2451 427.767 95.1778 427.767C96.5585 427.767 97.3814 426.651 97.3814 424.996C97.3814 423.514 96.6408 422.306 95.2326 422.306C94.3274 422.306 93.4953 422.947 93.2667 423.871C93.2301 424.044 93.1936 424.236 93.1936 424.401V425.691V425.7Z" fill="white"/>
<path d="M101.386 416.982H103.572V429.213H101.386V416.982Z" fill="white"/>
<path d="M107.33 420.824L108.875 425.316C109.049 425.828 109.25 426.469 109.369 426.935H109.424C109.552 426.469 109.707 425.837 109.881 425.298L111.225 420.824H113.548L111.381 426.542C110.192 429.679 109.396 431.07 108.382 431.93C107.513 432.652 106.626 432.927 106.096 433L105.602 431.225C105.977 431.143 106.416 430.951 106.864 430.64C107.293 430.384 107.769 429.881 108.071 429.313C108.162 429.158 108.199 429.039 108.199 428.938C108.199 428.856 108.18 428.728 108.089 428.527L104.916 420.824H107.33Z" fill="white"/>
<path d="M322.227 405.914C322.227 403.325 324.302 401.176 326.899 401.166C329.505 401.148 331.626 403.261 331.626 405.868V427.978C331.626 430.567 329.551 432.716 326.954 432.725C324.348 432.744 322.227 430.631 322.227 428.024V405.914Z" fill="#BCBCBC"/>
<path d="M337.369 426.898C338.064 427.292 339.143 427.639 340.258 427.639C341.639 427.639 342.425 426.999 342.425 426.057C342.425 425.179 341.822 424.666 340.313 424.127C338.329 423.441 337.067 422.425 337.067 420.751C337.067 418.839 338.695 417.412 341.31 417.412C342.608 417.412 343.541 417.687 344.163 417.998L343.651 419.699C343.202 419.471 342.37 419.15 341.255 419.15C339.874 419.15 339.289 419.855 339.289 420.541C339.289 421.437 339.984 421.849 341.575 422.453C343.651 423.212 344.647 424.227 344.647 425.901C344.647 427.777 343.193 429.396 340.121 429.396C338.841 429.396 337.533 429.048 336.875 428.655L337.369 426.898Z" fill="white"/>
<path d="M348.853 418.483C348.853 419.105 348.378 419.617 347.61 419.617C346.842 419.617 346.403 419.105 346.403 418.483C346.403 417.833 346.897 417.33 347.628 417.33C348.36 417.33 348.835 417.833 348.853 418.483ZM346.531 429.213V420.824H348.716V429.213H346.531Z" fill="white"/>
<path d="M351.066 416.982H353.251V429.213H351.066V416.982Z" fill="white"/>
<path d="M357.009 420.824L358.408 425.078C358.655 425.819 358.838 426.487 358.994 427.182H359.048C359.204 426.496 359.405 425.837 359.634 425.078L361.014 420.824H363.3L359.999 429.213H357.851L354.641 420.824H357H357.009Z" fill="white"/>
<path d="M365.952 425.609C366.007 427.127 367.214 427.777 368.613 427.777C369.628 427.777 370.332 427.621 371.009 427.402L371.329 428.847C370.588 429.158 369.555 429.377 368.311 429.377C365.513 429.377 363.858 427.703 363.858 425.142C363.858 422.819 365.312 420.632 368.083 420.632C370.853 420.632 371.804 422.873 371.804 424.712C371.804 425.106 371.768 425.417 371.731 425.609H365.952ZM369.747 424.127C369.765 423.349 369.409 422.078 367.955 422.078C366.611 422.078 366.035 423.267 365.952 424.127H369.747Z" fill="white"/>
<path d="M373.569 423.523C373.569 422.389 373.55 421.556 373.496 420.815H375.379L375.471 422.398H375.526C375.955 421.227 376.961 420.623 377.903 420.623C378.113 420.623 378.241 420.641 378.415 420.678V422.663C378.223 422.626 378.022 422.608 377.757 422.608C376.733 422.608 376.001 423.248 375.809 424.209C375.772 424.401 375.754 424.621 375.754 424.849V429.203H373.569V423.523Z" fill="white"/>
<path d="M383.646 417.76C384.624 417.623 385.831 417.522 387.12 417.522C389.351 417.522 390.878 417.97 391.985 418.867C393.155 419.782 393.868 421.172 393.868 423.139C393.868 425.224 393.137 426.752 392.003 427.758C390.814 428.81 388.912 429.341 386.59 429.341C385.328 429.341 384.368 429.268 383.646 429.185V417.769V417.76ZM385.831 427.612C386.133 427.667 386.59 427.667 387.038 427.667C389.872 427.685 391.564 426.148 391.564 423.203C391.582 420.651 390.055 419.178 387.321 419.178C386.626 419.178 386.151 419.233 385.831 419.297V427.612Z" fill="white"/>
<path d="M397.215 425.609C397.269 427.127 398.476 427.777 399.875 427.777C400.89 427.777 401.594 427.621 402.271 427.402L402.591 428.847C401.841 429.158 400.817 429.377 399.574 429.377C396.776 429.377 395.121 427.703 395.121 425.142C395.121 422.819 396.574 420.632 399.345 420.632C402.116 420.632 403.067 422.873 403.067 424.712C403.067 425.106 403.03 425.417 402.993 425.609H397.215ZM401.009 424.127C401.027 423.349 400.671 422.078 399.217 422.078C397.873 422.078 397.297 423.267 397.215 424.127H401.009Z" fill="white"/>
<path d="M404.822 423.322C404.822 422.361 404.786 421.547 404.749 420.824H406.614L406.724 422.068H406.779C407.19 421.419 407.968 420.641 409.44 420.641C410.574 420.641 411.461 421.264 411.835 422.187H411.872C412.174 421.721 412.53 421.382 412.914 421.135C413.408 420.806 413.966 420.632 414.688 420.632C416.106 420.632 417.559 421.575 417.559 424.264V429.204H415.429V424.575C415.429 423.175 414.935 422.352 413.884 422.352C413.134 422.352 412.585 422.873 412.357 423.468C412.284 423.66 412.247 423.935 412.247 424.172V429.204H410.116V424.346C410.116 423.175 409.641 422.352 408.626 422.352C407.812 422.352 407.264 422.974 407.044 423.541C406.971 423.761 406.934 424.008 406.934 424.246V429.204H404.804V423.313L404.822 423.322Z" fill="white"/>
<path d="M426.576 427.191C426.576 427.95 426.612 428.691 426.722 429.203H424.756L424.6 428.27H424.546C424.034 428.92 423.128 429.386 421.995 429.386C420.257 429.386 419.279 428.161 419.279 426.889C419.279 424.785 421.208 423.706 424.408 423.724V423.587C424.408 423.038 424.18 422.123 422.653 422.123C421.802 422.123 420.916 422.379 420.33 422.745L419.901 421.364C420.541 420.989 421.656 420.623 423.019 420.623C425.789 420.623 426.585 422.324 426.585 424.172V427.182L426.576 427.191ZM424.445 425.105C422.9 425.087 421.428 425.398 421.428 426.67C421.428 427.493 421.976 427.877 422.671 427.877C423.558 427.877 424.18 427.328 424.39 426.724C424.445 426.569 424.445 426.413 424.445 426.258V425.105Z" fill="white"/>
<path d="M428.88 423.322C428.88 422.361 428.843 421.547 428.807 420.824H430.709L430.818 422.078H430.873C431.266 421.428 432.199 420.632 433.644 420.632C435.152 420.632 436.716 421.575 436.716 424.227V429.204H434.531V424.465C434.531 423.258 434.073 422.343 432.885 422.343C432.016 422.343 431.413 422.947 431.184 423.587C431.111 423.761 431.074 424.017 431.074 424.255V429.194H428.889V423.303L428.88 423.322Z" fill="white"/>
<path d="M446.994 416.982V426.853C446.994 427.713 447.03 428.646 447.067 429.213H445.137L445.028 427.886H444.991C444.479 428.819 443.428 429.405 442.193 429.405C440.117 429.405 438.49 427.703 438.49 425.115C438.472 422.306 440.282 420.641 442.358 420.641C443.546 420.641 444.397 421.108 444.79 421.73H444.827V416.992H447.012L446.994 416.982ZM444.808 424.319C444.808 424.145 444.79 423.925 444.753 423.752C444.561 422.947 443.866 422.27 442.87 422.27C441.471 422.27 440.684 423.477 440.684 425.023C440.684 426.569 441.462 427.694 442.851 427.694C443.738 427.694 444.516 427.109 444.735 426.194C444.79 426.002 444.808 425.801 444.808 425.572V424.319Z" fill="white"/>
</g>
<defs>
<clipPath id="clip0_17_2581">
<rect width="511" height="433" fill="white"/>
</clipPath>
</defs>
</svg>
