<svg width="50" height="50" viewBox="0 0 50 50" fill="none" xmlns="http://www.w3.org/2000/svg">
<g clip-path="url(#clip0_17_320)">
<path d="M4.18599 0H45.814C48.127 0 50 1.87299 50 4.18599V45.814C50 48.127 48.127 50 45.814 50H4.18599C1.87299 50 0 48.127 0 45.814V4.18599C0 1.87299 1.87299 0 4.18599 0Z" fill="#898989"/>
<path d="M24.3727 33.7199L27.9165 34.808C27.3754 36.7226 26.4716 38.1497 25.2051 39.0772C23.9386 40.0048 22.3392 40.4745 20.3948 40.4745C17.9926 40.4745 16.0186 39.6778 14.4666 38.0843C12.9147 36.4907 12.1477 34.3145 12.1477 31.5496C12.1477 28.6301 12.9266 26.3587 14.4785 24.7414C16.0304 23.1241 18.0818 22.3154 20.6148 22.3154C22.8267 22.3154 24.6284 22.9517 26.0079 24.2182C26.8284 24.9674 27.4468 26.0495 27.863 27.4528L24.2478 28.2912C24.0338 27.3814 23.5878 26.662 22.91 26.1387C22.2321 25.6095 21.4056 25.3479 20.4364 25.3479C19.0926 25.3479 18.0045 25.8176 17.1721 26.7512C16.3337 27.6847 15.9175 29.2009 15.9175 31.288C15.9175 33.5058 16.3278 35.0875 17.1542 36.0329C17.9748 36.9723 19.0451 37.448 20.3651 37.448C21.3343 37.448 22.1727 37.1507 22.8684 36.5502C23.57 35.9496 24.0695 35.0102 24.3727 33.7258V33.7199Z" fill="white"/>
<path d="M34.3501 40.1773H30.8835V27.4587H34.1063V29.2663C34.6593 28.4101 35.1528 27.8512 35.5928 27.5777C36.0328 27.3042 36.5323 27.1733 37.0912 27.1733C37.882 27.1733 38.6431 27.3874 39.3744 27.8096L38.2982 30.7409C37.7155 30.3723 37.1685 30.188 36.669 30.188C36.1695 30.188 35.7712 30.3188 35.4322 30.5745C35.0933 30.8361 34.8317 31.3058 34.6355 31.9837C34.4393 32.6615 34.3441 34.0826 34.3441 36.247V40.1773H34.3501Z" fill="white"/>
<path d="M8.55047 10.6494L9.36507 10.8456C9.19264 11.4938 8.88939 11.9873 8.44344 12.3262C7.99749 12.6651 7.4564 12.8376 6.82018 12.8376C6.18396 12.8376 5.61909 12.7067 5.20287 12.4451C4.78665 12.1835 4.47151 11.803 4.25745 11.3094C4.04339 10.8159 3.93042 10.2808 3.93042 9.70996C3.93042 9.09157 4.05529 8.55048 4.29907 8.0867C4.54286 7.62291 4.89367 7.27209 5.33962 7.03425C5.79152 6.79641 6.28504 6.67749 6.82613 6.67749C7.43857 6.67749 7.95587 6.82614 8.37804 7.13533C8.8002 7.43858 9.09156 7.86669 9.2521 8.41373L8.44939 8.59805C8.30668 8.16399 8.09857 7.84885 7.831 7.65264C7.56343 7.45642 7.21856 7.35534 6.80829 7.35534C6.33855 7.35534 5.94017 7.46236 5.62503 7.68237C5.30989 7.90237 5.08395 8.19967 4.95908 8.56832C4.82827 8.93697 4.76881 9.31752 4.76881 9.70996C4.76881 10.2154 4.84611 10.6613 4.99476 11.0359C5.14935 11.4165 5.38125 11.6959 5.70233 11.8862C6.02342 12.0765 6.36828 12.1657 6.74288 12.1657C7.20073 12.1657 7.58127 12.0408 7.90235 11.7851C8.21749 11.5294 8.43155 11.1548 8.54452 10.6494H8.55047Z" fill="white"/>
<path d="M10.697 12.7365V6.77856H11.4522V8.91913C11.803 8.52075 12.2489 8.32453 12.7841 8.32453C13.1111 8.32453 13.4025 8.38993 13.6462 8.5148C13.89 8.63967 14.0625 8.8121 14.1695 9.03805C14.2765 9.25805 14.3241 9.58508 14.3241 10.0072V12.7424H13.5689V10.0072C13.5689 9.6386 13.4857 9.37697 13.3252 9.21048C13.1587 9.04399 12.9327 8.96075 12.6295 8.96075C12.4035 8.96075 12.1954 9.01426 11.9992 9.12724C11.803 9.24021 11.6603 9.39481 11.577 9.58508C11.4938 9.77535 11.4522 10.0429 11.4522 10.3818V12.7424H10.697V12.7365Z" fill="white"/>
<path d="M15.8878 12.7365V8.41969H16.5656V9.07375C16.7381 8.7705 16.8986 8.56834 17.0473 8.46725C17.1959 8.37212 17.3564 8.3186 17.5289 8.3186C17.7846 8.3186 18.0402 8.3959 18.3019 8.55644L18.0402 9.23429C17.8559 9.12726 17.6716 9.07375 17.4873 9.07375C17.3208 9.07375 17.1721 9.12132 17.0413 9.21645C16.9105 9.31159 16.8154 9.44835 16.7618 9.61483C16.6786 9.87646 16.637 10.1619 16.637 10.4711V12.7305H15.8818L15.8878 12.7365Z" fill="white"/>
<path d="M18.9026 10.5781C18.9026 9.78132 19.1285 9.18672 19.5923 8.80023C19.9729 8.47915 20.4426 8.3186 20.9896 8.3186C21.6021 8.3186 22.1015 8.51482 22.488 8.90131C22.8745 9.2878 23.0707 9.82889 23.0707 10.5127C23.0707 11.0657 22.9875 11.5057 22.8151 11.8267C22.6426 12.1478 22.3929 12.3916 22.0659 12.57C21.7388 12.7484 21.3761 12.8316 20.9896 12.8316C20.3653 12.8316 19.8599 12.6354 19.4793 12.2489C19.0929 11.8624 18.9026 11.3035 18.9026 10.5721V10.5781ZM19.6756 10.5781C19.6756 11.1311 19.8004 11.5473 20.0502 11.8208C20.2999 12.0943 20.6091 12.2311 20.9896 12.2311C21.3702 12.2311 21.6734 12.0943 21.9232 11.8149C22.1729 11.5354 22.2978 11.1192 22.2978 10.5484C22.2978 10.0132 22.1729 9.60889 21.9232 9.33537C21.6734 9.06185 21.3642 8.9251 20.9896 8.9251C20.615 8.9251 20.2999 9.06185 20.0502 9.33537C19.8004 9.60889 19.6756 10.0251 19.6756 10.5721V10.5781Z" fill="white"/>
<path d="M24.3846 12.7364V8.4196H25.0565V9.02609C25.1992 8.81204 25.3835 8.64555 25.6154 8.51474C25.8473 8.38392 26.109 8.32446 26.4063 8.32446C26.7333 8.32446 27.0068 8.38987 27.2149 8.52068C27.429 8.65149 27.5776 8.84177 27.6609 9.07961C28.0117 8.5742 28.4695 8.32446 29.0344 8.32446C29.4744 8.32446 29.8133 8.44338 30.0512 8.68122C30.289 8.91906 30.4079 9.28177 30.4079 9.77529V12.7364H29.6587V10.0191C29.6587 9.72772 29.6349 9.51366 29.5874 9.3888C29.5398 9.25799 29.4506 9.1569 29.3198 9.07961C29.189 9.00231 29.0403 8.96069 28.8679 8.96069C28.5528 8.96069 28.2971 9.06177 28.089 9.26393C27.8809 9.4661 27.7798 9.78718 27.7798 10.2331V12.7423H27.0246V9.93583C27.0246 9.6088 26.9652 9.36501 26.8403 9.20447C26.7154 9.04393 26.5192 8.96069 26.2398 8.96069C26.0257 8.96069 25.8295 9.0142 25.6511 9.12123C25.4727 9.22826 25.3419 9.3888 25.2587 9.59691C25.1754 9.80502 25.1338 10.1083 25.1338 10.5007V12.7423H24.3787L24.3846 12.7364Z" fill="white"/>
<path d="M31.9658 7.6229V6.77856H32.721V7.6229H31.9658ZM31.9658 12.7424V8.42561H32.721V12.7424H31.9658Z" fill="white"/>
<path d="M37.2161 12.7366V12.1003C36.8713 12.5879 36.4015 12.8317 35.801 12.8317C35.5394 12.8317 35.2956 12.7841 35.0637 12.6831C34.8377 12.5879 34.6653 12.4631 34.5583 12.3144C34.4453 12.1658 34.368 11.9874 34.3264 11.7733C34.2966 11.6306 34.2788 11.4047 34.2788 11.0895V8.41382H35.0339V10.8101C35.0339 11.1906 35.0518 11.4522 35.0815 11.583C35.1291 11.7733 35.2302 11.9279 35.3848 12.0349C35.5394 12.142 35.7296 12.2014 35.9556 12.2014C36.1815 12.2014 36.3956 12.1479 36.5918 12.0349C36.788 11.922 36.9307 11.7674 37.014 11.5771C37.0972 11.3809 37.1388 11.1014 37.1388 10.7328V8.41976H37.894V12.7366H37.2221H37.2161Z" fill="white"/>
<path d="M39.4994 12.7364V8.4196H40.1713V9.02609C40.314 8.81204 40.4983 8.64555 40.7302 8.51474C40.9621 8.38392 41.2237 8.32446 41.521 8.32446C41.848 8.32446 42.1215 8.38987 42.3297 8.52068C42.5437 8.65149 42.6924 8.84177 42.7756 9.07961C43.1264 8.5742 43.5843 8.32446 44.1491 8.32446C44.5891 8.32446 44.9281 8.44338 45.1659 8.68122C45.4037 8.91906 45.5227 9.28177 45.5227 9.77529V12.7364H44.7735V10.0191C44.7735 9.72772 44.7497 9.51366 44.7021 9.3888C44.6545 9.25799 44.5654 9.1569 44.4345 9.07961C44.3037 9.00231 44.1551 8.96069 43.9826 8.96069C43.6675 8.96069 43.4118 9.06177 43.2037 9.26393C42.9956 9.4661 42.8945 9.78718 42.8945 10.2331V12.7423H42.1394V9.93583C42.1394 9.6088 42.0799 9.36501 41.9551 9.20447C41.8302 9.04393 41.634 8.96069 41.3545 8.96069C41.1405 8.96069 40.9442 9.0142 40.7659 9.12123C40.5875 9.22826 40.4567 9.3888 40.3734 9.59691C40.2902 9.80502 40.2486 10.1083 40.2486 10.5007V12.7423H39.4934L39.4994 12.7364Z" fill="white"/>
</g>
<defs>
<clipPath id="clip0_17_320">
<rect width="50" height="50" fill="white"/>
</clipPath>
</defs>
</svg>
