<svg width="50" height="50" viewBox="0 0 50 50" fill="none" xmlns="http://www.w3.org/2000/svg">
<g clip-path="url(#clip0_17_243)">
<path d="M45.814 0H4.18599C1.87413 0 0 1.87413 0 4.18599V45.814C0 48.1259 1.87413 50 4.18599 50H45.814C48.1259 50 50 48.1259 50 45.814V4.18599C50 1.87413 48.1259 0 45.814 0Z" fill="#898989"/>
<path d="M21.5663 33.7199L25.1101 34.808C24.569 36.7226 23.6652 38.1497 22.3987 39.0772C21.1322 40.0048 19.5328 40.4745 17.5884 40.4745C15.1862 40.4745 13.2122 39.6778 11.6603 38.0843C10.1083 36.4907 9.34131 34.3145 9.34131 31.5496C9.34131 28.6301 10.1202 26.3587 11.6721 24.7414C13.2241 23.1241 15.2754 22.3154 17.8084 22.3154C20.0203 22.3154 21.822 22.9517 23.2015 24.2182C24.022 24.9674 24.6404 26.0495 25.0566 27.4528L21.4414 28.2912C21.2274 27.3814 20.7814 26.662 20.1036 26.1387C19.4257 25.6095 18.5992 25.3479 17.63 25.3479C16.2862 25.3479 15.1981 25.8176 14.3657 26.7512C13.5273 27.6847 13.1111 29.2009 13.1111 31.288C13.1111 33.5058 13.5214 35.0875 14.3478 36.0329C15.1684 36.9723 16.2387 37.448 17.5587 37.448C18.5279 37.448 19.3663 37.1507 20.062 36.5502C20.7636 35.9496 21.2631 35.0102 21.5663 33.7258V33.7199Z" fill="white"/>
<path d="M27.4233 33.6367C27.4233 32.5189 27.7087 31.4367 28.2736 30.3902C28.8444 29.3437 29.6471 28.547 30.6877 27.994C31.7283 27.441 32.8937 27.1675 34.178 27.1675C36.164 27.1675 37.7872 27.7918 39.0537 29.0405C40.3202 30.2891 40.9565 31.8708 40.9565 33.7794C40.9565 35.6881 40.3143 37.2995 39.0359 38.566C37.7575 39.8325 36.1461 40.4628 34.2018 40.4628C33.0007 40.4628 31.8531 40.2011 30.765 39.6719C29.6769 39.1427 28.8444 38.3698 28.2796 37.353C27.7147 36.3362 27.4293 35.0935 27.4293 33.6367H27.4233ZM30.9791 33.8151C30.9791 35.0757 31.2882 36.0449 31.9066 36.7108C32.525 37.3768 33.2861 37.7157 34.1899 37.7157C35.0937 37.7157 35.8548 37.3827 36.4672 36.7108C37.0797 36.0389 37.3889 35.0638 37.3889 33.7913C37.3889 32.5189 37.0797 31.5854 36.4672 30.9194C35.8548 30.2535 35.0937 29.9145 34.1899 29.9145C33.2861 29.9145 32.525 30.2475 31.9066 30.9194C31.2882 31.5913 30.9791 32.5546 30.9791 33.8151Z" fill="white"/>
<path d="M14.6214 10.227L15.5965 10.4649C15.3943 11.2438 15.0257 11.8325 14.4905 12.2427C13.9614 12.653 13.3073 12.8552 12.5403 12.8552C11.7732 12.8552 11.1013 12.7006 10.6019 12.3854C10.1024 12.0703 9.72779 11.6184 9.46617 11.0238C9.20454 10.4292 9.07373 9.78703 9.07373 9.10324C9.07373 8.35999 9.22238 7.70593 9.51374 7.15295C9.80509 6.59997 10.2273 6.17781 10.7683 5.88645C11.3094 5.5951 11.904 5.45239 12.5581 5.45239C13.2954 5.45239 13.9197 5.63672 14.4192 5.99943C14.9246 6.36213 15.2754 6.87349 15.4716 7.5335L14.5084 7.7535C14.3359 7.23025 14.0862 6.85565 13.7651 6.61781C13.444 6.37997 13.0278 6.26105 12.5403 6.26105C11.9754 6.26105 11.4997 6.39186 11.1192 6.65349C10.7386 6.91511 10.471 7.27187 10.3164 7.71782C10.1619 8.16377 10.0846 8.62162 10.0846 9.09135C10.0846 9.69784 10.1737 10.233 10.3581 10.6849C10.5424 11.1368 10.8278 11.4757 11.2083 11.7016C11.5948 11.9276 12.0111 12.0406 12.463 12.0406C13.01 12.0406 13.4738 11.886 13.8484 11.5827C14.223 11.2795 14.4846 10.8216 14.6154 10.2211L14.6214 10.227Z" fill="white"/>
<path d="M16.8628 10.1499C16.8628 9.19255 17.1363 8.47903 17.6893 8.01524C18.1471 7.62875 18.7061 7.43848 19.372 7.43848C20.1093 7.43848 20.7099 7.67037 21.1737 8.14011C21.6374 8.60984 21.8753 9.25201 21.8753 10.0726C21.8753 10.7385 21.7742 11.2618 21.5661 11.6483C21.358 12.0288 21.0607 12.3261 20.6682 12.5402C20.2758 12.7542 19.8417 12.8553 19.378 12.8553C18.6288 12.8553 18.0282 12.6234 17.5644 12.1596C17.1006 11.6958 16.8747 11.0239 16.8747 10.1499H16.8628ZM17.7963 10.1499C17.7963 10.8158 17.945 11.3093 18.2423 11.6423C18.5396 11.9753 18.9142 12.1358 19.372 12.1358C19.8299 12.1358 20.1926 11.9693 20.4958 11.6364C20.7931 11.3034 20.9418 10.798 20.9418 10.1201C20.9418 9.47796 20.7931 8.99633 20.4899 8.66335C20.1926 8.33632 19.818 8.16984 19.372 8.16984C18.9261 8.16984 18.5455 8.33632 18.2423 8.66335C17.939 8.99038 17.7963 9.48985 17.7963 10.1499Z" fill="white"/>
<path d="M24.2778 12.7363H23.4395V5.58325H24.3432V8.13409C24.7238 7.6703 25.2114 7.43841 25.806 7.43841C26.133 7.43841 26.4481 7.50381 26.7395 7.62868C27.0308 7.75949 27.2746 7.93787 27.4649 8.16977C27.6552 8.40166 27.8038 8.68112 27.9109 9.0141C28.0179 9.34113 28.0714 9.69195 28.0714 10.0665C28.0714 10.9525 27.8454 11.6422 27.3936 12.1239C26.9417 12.6114 26.4006 12.8493 25.7643 12.8493C25.1281 12.8493 24.6405 12.5936 24.2778 12.0822V12.7304V12.7363ZM24.266 10.1082C24.266 10.7266 24.3551 11.1784 24.5276 11.4579C24.813 11.9098 25.1995 12.1358 25.687 12.1358C26.0854 12.1358 26.4244 11.9693 26.7157 11.6363C27.0071 11.3033 27.1498 10.8038 27.1498 10.1438C27.1498 9.48383 27.013 8.96653 26.7335 8.64545C26.4541 8.32436 26.1211 8.16382 25.7287 8.16382C25.3362 8.16382 24.9914 8.33031 24.7 8.66329C24.4087 8.99626 24.266 9.47789 24.266 10.1082Z" fill="white"/>
<path d="M33.1789 12.1001C32.8459 12.3736 32.5189 12.5698 32.2097 12.6887C31.9005 12.8076 31.5675 12.8612 31.2108 12.8612C30.6221 12.8612 30.1702 12.7244 29.8551 12.4449C29.5399 12.1655 29.3794 11.8087 29.3794 11.3806C29.3794 11.1249 29.4389 10.893 29.5578 10.6849C29.6767 10.4768 29.8313 10.3044 30.0275 10.1795C30.2178 10.0546 30.4378 9.9595 30.6816 9.89409C30.86 9.84652 31.1275 9.8049 31.4843 9.76328C32.2156 9.68004 32.7508 9.57895 33.1016 9.46003C33.1016 9.34111 33.1016 9.26382 33.1016 9.22814C33.1016 8.87138 33.0184 8.6157 32.8459 8.473C32.614 8.27678 32.2692 8.17569 31.8173 8.17569C31.3891 8.17569 31.074 8.24705 30.8718 8.3957C30.6697 8.5384 30.521 8.79408 30.4199 9.16273L29.534 9.04381C29.6113 8.67516 29.748 8.37786 29.9324 8.15191C30.1167 7.92596 30.3843 7.75353 30.7351 7.62866C31.0859 7.5038 31.4902 7.44434 31.9481 7.44434C32.4059 7.44434 32.7746 7.49785 33.06 7.59893C33.3454 7.70001 33.5535 7.83677 33.6903 7.99137C33.827 8.14596 33.9162 8.34813 33.9697 8.58597C33.9994 8.73462 34.0173 9.00814 34.0173 9.39463V10.566C34.0173 11.3806 34.0351 11.8979 34.0767 12.1179C34.1124 12.332 34.1897 12.5401 34.3027 12.7422H33.3573C33.2621 12.5579 33.2027 12.3438 33.1789 12.1001ZM33.1016 10.1379C32.7746 10.2687 32.281 10.3757 31.621 10.4709C31.2464 10.5244 30.9848 10.5838 30.8302 10.6492C30.6756 10.7146 30.5567 10.8098 30.4735 10.9346C30.3902 11.0595 30.3486 11.2022 30.3486 11.3509C30.3486 11.5828 30.4378 11.779 30.6221 11.9336C30.8064 12.0882 31.074 12.1655 31.4248 12.1655C31.7756 12.1655 32.0848 12.0941 32.3583 11.9455C32.6319 11.7968 32.8281 11.5947 32.9589 11.339C33.054 11.1428 33.1075 10.8455 33.1075 10.459V10.1379H33.1016Z" fill="white"/>
<path d="M35.9141 12.7363V5.58325H36.8179V12.7363H35.9141Z" fill="white"/>
<path d="M40.7183 11.9513L40.8491 12.7243C40.5934 12.7778 40.3674 12.8016 40.1653 12.8016C39.8382 12.8016 39.5826 12.754 39.3982 12.6529C39.2199 12.5518 39.0891 12.421 39.0177 12.2545C38.9463 12.088 38.9047 11.7432 38.9047 11.2199V8.24098H38.2388V7.55719H38.9047V6.27285L39.8026 5.74365V7.55124H40.7123V8.23503H39.8026V11.2675C39.8026 11.5172 39.8204 11.6778 39.8501 11.7491C39.8799 11.8205 39.9334 11.8799 40.0047 11.9216C40.0761 11.9632 40.1772 11.987 40.3139 11.987C40.415 11.987 40.5458 11.9751 40.7123 11.9513H40.7183Z" fill="white"/>
</g>
<defs>
<clipPath id="clip0_17_243">
<rect width="50" height="50" fill="white"/>
</clipPath>
</defs>
</svg>
