<svg width="644" height="365" viewBox="0 0 644 365" fill="none" xmlns="http://www.w3.org/2000/svg">
<g clip-path="url(#clip0_17_841)">
<path d="M297.757 40.458C297.757 41.6698 297.369 42.4837 296.421 43.1167V43.189C297.612 43.6954 298.299 44.7263 298.299 46.2998C298.299 48.6329 296.349 49.8808 293.722 49.8808H288.197C287.601 49.8808 287.394 49.6818 287.394 49.1212V37.7994C287.394 37.2207 287.601 37.0217 288.197 37.0217H293.65C296.222 37.0217 297.766 38.2516 297.766 40.458H297.757ZM292.882 39.9336H291.077V41.923H292.882C293.622 41.923 294.02 41.6517 294.02 40.9464C294.02 40.241 293.631 39.9336 292.882 39.9336ZM293.234 44.8348H291.077V46.9509H293.234C294.038 46.9509 294.426 46.6434 294.426 45.8838C294.426 45.1242 294.038 44.8348 293.234 44.8348Z" fill="#BC9E30"/>
<path d="M310.594 49.8808H308.581C307.615 49.8808 307.335 49.6818 307.191 49.1212L306.766 47.819H302.749L302.325 49.1212C302.135 49.6818 301.901 49.8808 300.971 49.8808H299.021C298.443 49.8808 298.335 49.6276 298.515 49.1392L302.794 37.6728C302.984 37.1483 303.219 37.0398 303.76 37.0398H305.882C306.423 37.0398 306.667 37.1664 306.848 37.6366L311.145 49.1392C311.334 49.6276 311.163 49.8808 310.603 49.8808H310.594ZM304.825 40.3314H304.636C304.636 40.3314 304.654 41.6336 304.284 42.8454L303.598 44.9795H305.927L305.241 42.8634C304.871 41.6336 304.834 40.3314 304.834 40.3314H304.825Z" fill="#BC9E30"/>
<path d="M320.722 37.7994V39.4271C320.722 40.0059 320.515 40.2048 319.919 40.2048H317.165V49.1212C317.165 49.6818 316.958 49.8808 316.362 49.8808H314.259C313.663 49.8808 313.473 49.6818 313.473 49.1212V40.2048H310.702C310.106 40.2048 309.917 40.0059 309.917 39.4271V37.7994C309.917 37.2387 310.106 37.0398 310.702 37.0398H319.91C320.506 37.0398 320.713 37.2387 320.713 37.7994H320.722Z" fill="#BC9E30"/>
<path d="M331.943 37.7994V39.4271C331.943 40.0059 331.736 40.2048 331.14 40.2048H328.387V49.1212C328.387 49.6818 328.179 49.8808 327.583 49.8808H325.48C324.884 49.8808 324.694 49.6818 324.694 49.1212V40.2048H321.923C321.327 40.2048 321.138 40.0059 321.138 39.4271V37.7994C321.138 37.2387 321.327 37.0398 321.923 37.0398H331.131C331.727 37.0398 331.934 37.2387 331.934 37.7994H331.943Z" fill="#BC9E30"/>
<path d="M342.478 37.7994V39.4271C342.478 40.0059 342.271 40.2048 341.675 40.2048H336.764V41.8145H340.691C341.287 41.8145 341.495 42.0134 341.495 42.5741V44.2018C341.495 44.7805 341.287 44.9795 340.691 44.9795H336.764V46.7157H341.847C342.424 46.7157 342.632 46.8966 342.632 47.4753V49.1212C342.632 49.6818 342.424 49.8808 341.847 49.8808H333.884C333.289 49.8808 333.081 49.6818 333.081 49.1212V37.7994C333.081 37.2387 333.289 37.0398 333.884 37.0398H341.684C342.28 37.0398 342.488 37.2387 342.488 37.7994H342.478Z" fill="#BC9E30"/>
<path d="M354.764 41.3985C354.764 43.1709 354.024 44.4369 352.751 45.1242C352.941 45.3593 353.103 45.6125 353.257 45.9019L354.936 48.9946C355.198 49.4829 355.062 49.8808 354.449 49.8808H352.435C351.451 49.8808 351.018 49.6456 350.72 49.0126L349.529 46.5349C349.213 45.92 348.897 45.6125 348.138 45.6125H347.714V49.1212C347.714 49.6818 347.525 49.8808 346.929 49.8808H344.825C344.23 49.8808 344.022 49.6818 344.022 49.1212V37.7994C344.022 37.2387 344.23 37.0398 344.825 37.0398H350.133C352.941 37.0398 354.764 38.5952 354.764 41.3985ZM349.718 40.2048H347.705V42.5922H349.718C350.504 42.5922 350.946 42.1219 350.946 41.3804C350.946 40.6389 350.522 40.2048 349.718 40.2048Z" fill="#BC9E30"/>
<path d="M367.141 37.7994L362.844 44.9071V49.1212C362.844 49.6818 362.654 49.8808 362.059 49.8808H359.955C359.359 49.8808 359.152 49.6818 359.152 49.1212V44.9071L354.873 37.7994C354.611 37.3834 354.683 37.0398 355.261 37.0398H357.491C358.421 37.0398 358.682 37.076 359.035 37.709L361.03 41.3985L363.079 37.709C363.431 37.076 363.693 37.0398 364.604 37.0398H366.744C367.304 37.0398 367.376 37.3834 367.132 37.7994H367.141Z" fill="#BC9E30"/>
<path d="M307.38 195.743C304.465 195.743 302.09 193.365 302.09 190.444V119.71C302.09 116.79 304.465 114.411 307.38 114.411H314.584V109.618C314.584 106.698 316.958 104.319 319.874 104.319H333.866C336.782 104.319 339.157 106.698 339.157 109.618V114.411H346.36C349.276 114.411 351.65 116.79 351.65 119.71V190.444C351.65 193.365 349.276 195.743 346.36 195.743H307.389H307.38ZM307.38 119.005C306.992 119.005 306.676 119.322 306.676 119.71V190.444C306.676 190.833 306.992 191.15 307.38 191.15H346.351C346.739 191.15 347.055 190.833 347.055 190.444V119.71C347.055 119.322 346.739 119.005 346.351 119.005H307.38Z" fill="white"/>
<path d="M333.866 104.527C336.665 104.527 338.949 106.806 338.949 109.618V114.619H346.125H346.36C349.159 114.619 351.443 116.898 351.443 119.71V190.444C351.443 193.248 349.168 195.535 346.36 195.535H307.389C304.591 195.535 302.307 193.257 302.307 190.444V119.71C302.307 116.907 304.582 114.619 307.389 114.619H314.801V109.618C314.801 106.815 317.076 104.527 319.883 104.527H333.875M307.398 191.358H346.369C346.875 191.358 347.281 190.951 347.281 190.444V119.71C347.281 119.204 346.875 118.797 346.369 118.797H307.398C306.893 118.797 306.487 119.204 306.487 119.71V190.444C306.487 190.951 306.893 191.358 307.398 191.358ZM333.875 104.111H319.883C316.85 104.111 314.385 106.58 314.385 109.618V114.203H307.389C304.356 114.203 301.892 116.672 301.892 119.71V190.444C301.892 193.483 304.356 195.951 307.389 195.951H346.36C349.393 195.951 351.858 193.483 351.858 190.444V119.71C351.858 116.672 349.393 114.203 346.36 114.203H339.364V109.618C339.364 106.58 336.9 104.111 333.866 104.111H333.875ZM307.398 190.942C307.127 190.942 306.902 190.716 306.902 190.444V119.71C306.902 119.43 307.127 119.213 307.398 119.213H346.369C346.64 119.213 346.866 119.439 346.866 119.71V190.444C346.866 190.716 346.64 190.942 346.369 190.942H307.398Z" fill="#606060"/>
<mask id="mask0_17_841" style="mask-type:luminance" maskUnits="userSpaceOnUse" x="570" y="104" width="55" height="92">
<path d="M624.889 104.111H570.608V195.951H624.889V104.111Z" fill="white"/>
</mask>
<g mask="url(#mask0_17_841)">
<path fill-rule="evenodd" clip-rule="evenodd" d="M624.889 142.734L624.727 129.45L624.429 106.453C624.429 105.368 623.698 104.428 622.651 104.157C622.452 104.111 622.253 104.102 622.046 104.111L572.946 104.328C572.314 104.328 571.709 104.591 571.276 105.043C570.843 105.495 570.599 106.11 570.608 106.743L571.06 143.059C571.24 156.931 582.208 168.28 595.885 169.419L595.957 191.213L584.935 191.303C584.303 191.303 583.707 191.566 583.264 192.009C582.822 192.461 582.578 193.067 582.578 193.691C582.578 194.324 582.84 194.92 583.282 195.364C583.734 195.807 584.339 196.051 584.962 196.051L611.8 195.807C612.991 195.807 614.002 194.92 614.156 193.736C614.309 192.551 613.551 191.439 612.396 191.141C612.188 191.095 611.971 191.077 611.755 191.095L600.696 191.177L600.615 169.419C614.291 168.144 625.052 156.597 624.88 142.716L624.889 142.734ZM598.259 164.807C586.036 164.871 575.925 155.05 575.772 142.996L575.492 119.81L619.997 131.331L620.168 142.815C620.313 154.86 610.491 164.735 598.259 164.807Z" fill="white"/>
<path d="M584.943 196.277C584.266 196.277 583.616 196.015 583.129 195.535C582.641 195.047 582.362 194.405 582.362 193.709C582.362 193.022 582.623 192.37 583.102 191.873C583.58 191.385 584.239 191.104 584.925 191.104L595.74 191.014L595.668 169.618C581.901 168.371 571.014 156.75 570.843 143.068L570.391 106.752C570.382 106.056 570.635 105.405 571.123 104.907C571.601 104.419 572.26 104.129 572.946 104.129L622.046 103.903C622.253 103.885 622.47 103.903 622.687 103.949L622.777 103.976C623.86 104.292 624.618 105.287 624.628 106.417V106.444L625.088 142.725C625.25 156.461 614.607 168.235 600.822 169.618L600.904 190.978L611.755 190.896C611.98 190.887 612.215 190.896 612.441 190.951C613.704 191.276 614.526 192.488 614.363 193.781C614.201 195.065 613.1 196.033 611.809 196.033L584.97 196.277H584.952H584.943ZM622.199 104.319C622.199 104.319 622.109 104.319 622.064 104.319L572.946 104.545C572.377 104.545 571.818 104.79 571.42 105.197C571.014 105.613 570.798 106.164 570.807 106.743L571.258 143.059C571.43 156.588 582.253 168.081 595.894 169.221L596.083 169.239L596.155 191.43L584.925 191.52C584.357 191.52 583.797 191.756 583.4 192.162C582.994 192.578 582.768 193.121 582.777 193.7C582.777 194.279 583.012 194.821 583.418 195.228C583.824 195.635 584.366 195.852 584.934 195.852H584.952L611.791 195.608C612.874 195.608 613.795 194.794 613.939 193.718C614.075 192.642 613.388 191.62 612.332 191.349C612.152 191.312 611.953 191.294 611.755 191.303L600.479 191.385L600.398 169.23L600.588 169.211C614.255 167.936 624.835 156.298 624.664 142.716L624.203 106.435C624.203 105.45 623.535 104.591 622.587 104.337H622.569C622.443 104.31 622.307 104.301 622.181 104.301L622.199 104.319ZM598.15 165.016C585.846 165.016 575.727 155.159 575.573 142.996L575.284 119.539L575.546 119.602L620.204 131.159L620.376 142.806C620.448 148.621 618.227 154.137 614.12 158.324C609.922 162.601 604.289 164.979 598.259 165.016C598.259 165.016 598.177 165.016 598.141 165.016H598.15ZM575.708 120.081L575.988 142.996C576.142 154.933 586.072 164.609 598.15 164.609C598.186 164.609 598.223 164.609 598.259 164.609C604.181 164.572 609.705 162.239 613.822 158.043C617.848 153.938 620.024 148.53 619.96 142.824L619.789 131.502L575.699 120.09L575.708 120.081Z" fill="#606060"/>
</g>
<path d="M580.159 43.2795V45.6668C580.159 48.2169 578.11 50.1521 574.445 50.1521C570.78 50.1521 568.712 48.2169 568.712 45.0881V41.8326C568.712 38.7037 570.78 36.7686 574.445 36.7686C577.306 36.7686 579.094 37.908 579.879 39.9336C580.069 40.4581 579.933 40.7294 579.374 40.9102L577.379 41.5975C576.801 41.7783 576.575 41.6698 576.377 41.1092C576.043 40.2953 575.483 39.9336 574.445 39.9336C572.973 39.9336 572.396 40.5485 572.396 41.8145V45.1061C572.396 46.3722 572.973 46.9871 574.445 46.9871C575.691 46.9871 576.458 46.5349 576.458 45.7572V45.3955H574.67C574.093 45.3955 573.885 45.2147 573.885 44.6359V43.2795C573.885 42.7007 574.093 42.5018 574.67 42.5018H579.374C579.969 42.5018 580.159 42.7007 580.159 43.2795Z" fill="#BC9E30"/>
<path d="M585.323 37.7994V46.7157H589.809C590.387 46.7157 590.595 46.8966 590.595 47.4753V49.1212C590.595 49.6818 590.387 49.8808 589.809 49.8808H582.443C581.847 49.8808 581.64 49.6818 581.64 49.1212V37.7994C581.64 37.2387 581.847 37.0398 582.443 37.0398H584.546C585.142 37.0398 585.332 37.2387 585.332 37.7994H585.323Z" fill="#BC9E30"/>
<path d="M602.98 49.8808H600.967C600.001 49.8808 599.721 49.6818 599.568 49.1212L599.144 47.819H595.126L594.702 49.1212C594.513 49.6818 594.278 49.8808 593.348 49.8808H591.389C590.811 49.8808 590.703 49.6276 590.884 49.1392L595.162 37.6728C595.352 37.1483 595.587 37.0398 596.128 37.0398H598.25C598.791 37.0398 599.035 37.1664 599.216 37.6366L603.513 49.1392C603.702 49.6276 603.531 49.8808 602.971 49.8808H602.98ZM597.212 40.3314H597.022C597.022 40.3314 597.04 41.6336 596.67 42.8454L595.984 44.9795H598.313L597.627 42.8634C597.257 41.6336 597.221 40.3314 597.221 40.3314H597.212Z" fill="#BC9E30"/>
<path d="M609.354 36.7686C612.107 36.7686 613.669 37.5643 614.544 39.3006C614.806 39.8251 614.653 40.0964 614.093 40.3134L612.233 41.0911C611.728 41.3081 611.529 41.2358 611.231 40.7113C610.879 40.024 610.211 39.7708 609.354 39.7708C608.09 39.7708 607.584 40.0783 607.584 40.7113C607.584 41.489 608.686 41.6517 610.022 41.8145C612.179 42.1039 614.969 42.6103 614.969 46.0285C614.969 48.6871 612.495 50.1521 609.2 50.1521C606.429 50.1521 604.488 49.2297 603.784 47.3488C603.576 46.8062 603.748 46.553 604.289 46.3541L606.041 45.7391C606.6 45.5583 606.862 45.6125 607.142 46.137C607.476 46.77 608.198 47.0956 609.245 47.0956C610.491 47.0956 611.24 46.8424 611.24 46.0647C611.24 45.3593 610.292 45.1604 609.065 44.9976C606.889 44.7083 603.838 44.3284 603.838 40.8198C603.838 38.4325 605.815 36.7686 609.363 36.7686H609.354Z" fill="#BC9E30"/>
<path d="M621.396 36.7686C624.149 36.7686 625.711 37.5643 626.586 39.3006C626.848 39.8251 626.695 40.0964 626.135 40.3134L624.275 41.0911C623.77 41.3081 623.571 41.2358 623.273 40.7113C622.921 40.024 622.253 39.7708 621.396 39.7708C620.132 39.7708 619.626 40.0783 619.626 40.7113C619.626 41.489 620.728 41.6517 622.064 41.8145C624.221 42.1039 627.011 42.6103 627.011 46.0285C627.011 48.6871 624.537 50.1521 621.242 50.1521C618.471 50.1521 616.53 49.2297 615.826 47.3488C615.618 46.8062 615.79 46.553 616.331 46.3541L618.083 45.7391C618.642 45.5583 618.904 45.6125 619.184 46.137C619.518 46.77 620.24 47.0956 621.287 47.0956C622.533 47.0956 623.282 46.8424 623.282 46.0647C623.282 45.3593 622.334 45.1604 621.107 44.9976C618.931 44.7083 615.88 44.3284 615.88 40.8198C615.88 38.4325 617.857 36.7686 621.405 36.7686H621.396Z" fill="#BC9E30"/>
<path d="M596.904 53.0459C599.008 53.0459 600.66 54.4928 600.66 56.428C600.66 57.8387 600.028 58.8334 598.71 59.593L598.538 59.6834L599.748 60.9494L600.642 60.0813C600.94 59.7919 601.274 59.7919 601.572 60.0813L602.908 61.3654C603.151 61.6186 603.188 61.8356 602.854 62.1612L601.833 63.1378L604.063 65.489C604.433 65.8507 604.325 66.1582 603.747 66.1582H601.346C600.84 66.1582 600.606 66.0858 600.308 65.7603L599.694 65.1273C598.394 66.1762 597.293 66.4294 596.011 66.4294C593.402 66.4294 591.642 64.8921 591.642 62.4144C591.642 60.7505 592.535 59.6834 593.853 58.96C593.312 58.2908 593.014 57.4769 593.014 56.6269C593.014 54.7641 594.314 53.0459 596.904 53.0459ZM594.937 62.4325C594.937 63.1378 595.442 63.608 596.218 63.608C596.85 63.608 597.257 63.3006 597.654 62.957L595.866 61.0941C595.126 61.4558 594.937 61.9803 594.937 62.4325ZM596.904 55.6322C596.363 55.6322 596.065 55.9939 596.065 56.4641C596.065 56.862 596.191 57.1695 596.589 57.6216L596.977 57.4227C597.5 57.1333 597.681 56.8258 597.681 56.3918C597.681 55.9577 597.365 55.6322 596.896 55.6322H596.904Z" fill="#BC9E30"/>
<path d="M557.464 69.3232C560.326 69.3232 562.113 70.4627 562.899 72.4883C563.088 73.0128 562.953 73.284 562.393 73.4649L560.398 74.1522C559.82 74.3149 559.595 74.2245 559.396 73.6638C559.062 72.85 558.502 72.4883 557.464 72.4883C555.993 72.4883 555.415 73.1032 555.415 74.3692V77.6608C555.415 78.9268 555.993 79.5418 557.464 79.5418C558.502 79.5418 559.098 79.1439 559.396 78.3662C559.622 77.8055 559.839 77.6789 560.398 77.8779L562.393 78.5651C562.953 78.746 563.079 79.0173 562.899 79.5418C562.113 81.5674 560.335 82.7068 557.464 82.7068C553.799 82.7068 551.732 80.7716 551.732 77.6427V74.3873C551.732 71.2584 553.799 69.3232 557.464 69.3232Z" fill="#BC9E30"/>
<path d="M573.569 70.3541V71.9818C573.569 72.5606 573.361 72.7595 572.765 72.7595H567.854V74.3692H571.781C572.377 74.3692 572.585 74.5681 572.585 75.1288V76.7565C572.585 77.3352 572.377 77.5342 571.781 77.5342H567.854V79.2704H572.937C573.515 79.2704 573.722 79.4513 573.722 80.03V81.6758C573.722 82.2365 573.515 82.4355 572.937 82.4355H564.975C564.379 82.4355 564.171 82.2365 564.171 81.6758V70.3541C564.171 69.7934 564.379 69.5945 564.975 69.5945H572.774C573.37 69.5945 573.578 69.7934 573.578 70.3541H573.569Z" fill="#BC9E30"/>
<path d="M585.846 73.9532C585.846 75.7256 585.097 76.9916 583.833 77.6789C584.023 77.914 584.185 78.1672 584.339 78.4566L586.018 81.5492C586.28 82.0376 586.144 82.4355 585.53 82.4355H583.517C582.533 82.4355 582.1 82.2003 581.802 81.5673L580.61 79.0896C580.294 78.4746 579.979 78.1672 579.211 78.1672H578.787V81.6758C578.787 82.2365 578.597 82.4355 578.002 82.4355H575.898C575.302 82.4355 575.095 82.2365 575.095 81.6758V70.3541C575.095 69.7934 575.302 69.5945 575.898 69.5945H581.206C584.014 69.5945 585.837 71.1499 585.837 73.9532H585.846ZM580.8 72.7595H578.787V75.1468H580.8C581.585 75.1468 582.028 74.6766 582.028 73.9351C582.028 73.1936 581.603 72.7595 580.8 72.7595Z" fill="#BC9E30"/>
<path d="M598.674 82.4355H596.661C595.695 82.4355 595.415 82.2365 595.262 81.6758L594.837 80.3737H590.82L590.396 81.6758C590.206 82.2365 589.972 82.4355 589.042 82.4355H587.083C586.505 82.4355 586.397 82.1822 586.577 81.6939L590.856 70.2275C591.046 69.703 591.281 69.5945 591.822 69.5945H593.944C594.485 69.5945 594.729 69.7211 594.91 70.1913L599.207 81.6939C599.396 82.1822 599.225 82.4355 598.665 82.4355H598.674ZM592.905 72.8861H592.716C592.716 72.8861 592.734 74.1883 592.364 75.4L591.678 77.5342H594.007L593.321 75.4181C592.951 74.1883 592.914 72.8861 592.914 72.8861H592.905Z" fill="#BC9E30"/>
<path d="M613.714 70.336V81.6939C613.714 82.2546 613.506 82.4355 612.91 82.4355H610.879C610.283 82.4355 610.094 82.2546 610.094 81.6939V79.1077C610.094 77.914 610.202 76.7746 610.915 74.3692H610.708C610.518 74.966 609.85 76.6118 609.462 77.3533L608.424 79.397C608.216 79.7588 608.035 79.9215 607.53 79.9215H606.284C605.779 79.9215 605.598 79.7949 605.39 79.397L604.289 77.3533C603.901 76.6661 603.323 75.0022 603.134 74.3692H602.944C603.612 76.9735 603.702 77.8778 603.702 79.1258V81.6939C603.702 82.2546 603.495 82.4355 602.899 82.4355H601.003C600.407 82.4355 600.2 82.2546 600.2 81.6939V70.336C600.2 69.7573 600.407 69.5764 601.003 69.5764H602.754C603.404 69.5764 603.594 69.6849 603.856 70.1371L606.925 75.9969L609.994 70.1552C610.256 69.6668 610.419 69.5764 611.032 69.5764H612.892C613.488 69.5764 613.696 69.7573 613.696 70.336H613.714Z" fill="#BC9E30"/>
<path d="M616.322 69.5945H618.516C619.076 69.5945 619.256 69.7753 619.256 70.3179V81.712C619.256 82.2546 619.067 82.4355 618.516 82.4355H616.322C615.763 82.4355 615.573 82.2546 615.573 81.712V70.3179C615.573 69.7753 615.763 69.5945 616.322 69.5945Z" fill="#BC9E30"/>
<path d="M626.56 69.3232C629.421 69.3232 631.209 70.4627 631.994 72.4883C632.184 73.0128 632.048 73.284 631.488 73.4649L629.493 74.1522C628.916 74.3149 628.69 74.2245 628.491 73.6638C628.157 72.85 627.598 72.4883 626.56 72.4883C625.088 72.4883 624.51 73.1032 624.51 74.3692V77.6608C624.51 78.9268 625.088 79.5418 626.56 79.5418C627.598 79.5418 628.193 79.1439 628.491 78.3662C628.717 77.8055 628.934 77.6789 629.493 77.8779L631.488 78.5651C632.048 78.746 632.175 79.0173 631.994 79.5418C631.209 81.5674 629.43 82.7068 626.56 82.7068C622.894 82.7068 620.827 80.7716 620.827 77.6427V74.3873C620.827 71.2584 622.894 69.3232 626.56 69.3232Z" fill="#BC9E30"/>
<path d="M638.376 69.3232C641.129 69.3232 642.691 70.119 643.567 71.8553C643.829 72.3798 643.675 72.651 643.115 72.8681L641.256 73.6458C640.75 73.8628 640.552 73.7904 640.254 73.266C639.902 72.5787 639.234 72.3255 638.376 72.3255C637.112 72.3255 636.607 72.633 636.607 73.266C636.607 74.0436 637.708 74.2064 639.044 74.3692C641.202 74.6586 643.991 75.165 643.991 78.5832C643.991 81.2418 641.518 82.7068 638.223 82.7068C635.451 82.7068 633.51 81.7844 632.806 79.9035C632.599 79.3609 632.77 79.1077 633.312 78.9088L635.063 78.2938C635.623 78.113 635.885 78.1672 636.164 78.6917C636.498 79.3247 637.221 79.6503 638.268 79.6503C639.513 79.6503 640.263 79.3971 640.263 78.6194C640.263 77.914 639.315 77.7151 638.087 77.5523C635.912 77.2629 632.86 76.8831 632.86 73.3745C632.86 70.9871 634.837 69.3232 638.385 69.3232H638.376Z" fill="#BC9E30"/>
<path d="M3.68315 37.7994V46.7157H8.16973C8.74747 46.7157 8.9551 46.8966 8.9551 47.4753V49.1212C8.9551 49.6818 8.74747 49.8808 8.16973 49.8808H0.803432C0.207628 49.8808 0 49.6818 0 49.1212V37.7994C0 37.2387 0.207628 37.0398 0.803432 37.0398H2.9068C3.5026 37.0398 3.69217 37.2387 3.69217 37.7994H3.68315Z" fill="#BC9E30"/>
<path d="M15.3372 46.987C16.6191 46.987 17.269 46.3902 17.269 45.3231V37.7994C17.269 37.2387 17.4586 37.0398 18.0544 37.0398H20.1578C20.7536 37.0398 20.9612 37.2387 20.9612 37.7994V45.1604C20.9612 48.1988 19.0293 50.1521 15.3462 50.1521C11.6631 50.1521 9.74023 48.1988 9.74023 45.1604V37.7994C9.74023 37.2387 9.92981 37.0398 10.5256 37.0398H12.629C13.2248 37.0398 13.4324 37.2387 13.4324 37.7994V45.3231C13.4324 46.3902 14.0643 46.987 15.3462 46.987H15.3372Z" fill="#BC9E30"/>
<path d="M33.0763 40.458C33.0763 41.6698 32.6881 42.4837 31.7402 43.1167V43.189C32.9318 43.6954 33.6179 44.7263 33.6179 46.2998C33.6179 48.6329 31.668 49.8808 29.041 49.8808H23.5163C22.9205 49.8808 22.7129 49.6818 22.7129 49.1212V37.7994C22.7129 37.2207 22.9205 37.0217 23.5163 37.0217H28.9688C31.5416 37.0217 33.0853 38.2516 33.0853 40.458H33.0763ZM28.2015 39.9336H26.396V41.923H28.2015C28.9417 41.923 29.3389 41.6517 29.3389 40.9464C29.3389 40.241 28.9508 39.9336 28.2015 39.9336ZM28.5536 44.8348H26.396V46.9509H28.5536C29.357 46.9509 29.7452 46.6434 29.7452 45.8838C29.7452 45.1242 29.357 44.8348 28.5536 44.8348Z" fill="#BC9E30"/>
<path d="M45.6964 41.3985C45.6964 43.1709 44.9471 44.4369 43.6833 45.1242C43.8728 45.3593 44.0353 45.6125 44.1888 45.9019L45.8679 48.9946C46.1297 49.4829 45.9943 49.8808 45.3804 49.8808H43.3673C42.3833 49.8808 41.95 49.6456 41.6521 49.0126L40.4605 46.5349C40.1446 45.92 39.8286 45.6125 39.0613 45.6125H38.637V49.1212C38.637 49.6818 38.4474 49.8808 37.8516 49.8808H35.7483C35.1525 49.8808 34.9448 49.6818 34.9448 49.1212V37.7994C34.9448 37.2387 35.1525 37.0398 35.7483 37.0398H41.0563C43.8638 37.0398 45.6873 38.5952 45.6873 41.3985H45.6964ZM40.6501 40.2048H38.637V42.5922H40.6501C41.4355 42.5922 41.8778 42.1219 41.8778 41.3804C41.8778 40.6389 41.4535 40.2048 40.6501 40.2048Z" fill="#BC9E30"/>
<path d="M48.0071 37.0398H50.2007C50.7604 37.0398 50.941 37.2207 50.941 37.7632V49.1573C50.941 49.6999 50.7514 49.8808 50.2007 49.8808H48.0071C47.4474 49.8808 47.2578 49.6999 47.2578 49.1573V37.7632C47.2578 37.2207 47.4474 37.0398 48.0071 37.0398Z" fill="#BC9E30"/>
<path d="M58.2441 36.7686C61.1148 36.7686 62.8931 37.908 63.6785 39.9336C63.8681 40.4581 63.7327 40.7294 63.173 40.9102L61.1779 41.5975C60.6002 41.7603 60.3745 41.6698 60.1759 41.1092C59.8419 40.2953 59.2822 39.9336 58.2441 39.9336C56.7726 39.9336 56.1949 40.5485 56.1949 41.8145V45.1061C56.1949 46.3722 56.7726 46.9871 58.2441 46.9871C59.2822 46.9871 59.878 46.5892 60.1759 45.8115C60.4016 45.2508 60.6182 45.1242 61.1779 45.3232L63.173 46.0104C63.7327 46.1913 63.8591 46.4626 63.6785 46.9871C62.8931 49.0127 61.1148 50.1521 58.2441 50.1521C54.579 50.1521 52.5117 48.2169 52.5117 45.0881V41.8326C52.5117 38.7037 54.579 36.7686 58.2441 36.7686Z" fill="#BC9E30"/>
<path d="M76.0011 49.8808H73.988C73.0221 49.8808 72.7422 49.6818 72.5978 49.1212L72.1735 47.819H68.1563L67.732 49.1212C67.5425 49.6818 67.3078 49.8808 66.3779 49.8808H64.419C63.8413 49.8808 63.7329 49.6276 63.9225 49.1392L68.2015 37.6728C68.391 37.1483 68.6257 37.0398 69.1674 37.0398H71.2888C71.8304 37.0398 72.0742 37.1664 72.2547 37.6366L76.5517 49.1392C76.7413 49.6276 76.5698 49.8808 76.0101 49.8808H76.0011ZM70.2326 40.3314H70.043C70.043 40.3314 70.0611 41.6336 69.691 42.8454L69.0049 44.9795H71.3339L70.6479 42.8634C70.2777 41.6336 70.2416 40.3314 70.2416 40.3314H70.2326Z" fill="#BC9E30"/>
<path d="M88.7117 37.7994V49.1212C88.7117 49.6818 88.5041 49.8808 87.9263 49.8808H85.823C85.4348 49.8808 85.2272 49.7722 85.0647 49.519L82.194 45.2327C81.3725 43.9848 81.0565 43.1347 80.56 41.507H80.4156C80.8038 43.2433 81.0295 44.1656 81.0295 46.1732V49.1212C81.0295 49.6818 80.8218 49.8808 80.226 49.8808H78.3484C77.7525 49.8808 77.5449 49.6818 77.5449 49.1212V37.7994C77.5449 37.2387 77.7525 37.0398 78.3484 37.0398H80.542C80.9663 37.0398 81.1558 37.1483 81.3274 37.4015L84.3786 42.0315C85.2001 43.2794 85.3445 43.9667 85.9403 45.3412H86.0848C85.489 43.4784 85.2452 42.6102 85.2452 40.7655V37.7994C85.2452 37.2387 85.4348 37.0398 86.0306 37.0398H87.9263C88.5041 37.0398 88.7117 37.2387 88.7117 37.7994Z" fill="#BC9E30"/>
<path d="M100.664 37.7994V39.4271C100.664 40.0059 100.456 40.2048 99.8602 40.2048H97.1068V49.1212C97.1068 49.6818 96.8992 49.8808 96.3034 49.8808H94.2C93.6042 49.8808 93.4147 49.6818 93.4147 49.1212V40.2048H90.6433C90.0475 40.2048 89.8579 40.0059 89.8579 39.4271V37.7994C89.8579 37.2387 90.0475 37.0398 90.6433 37.0398H99.8512C100.447 37.0398 100.655 37.2387 100.655 37.7994H100.664Z" fill="#BC9E30"/>
<path d="M106.919 36.7686C109.673 36.7686 111.235 37.5643 112.11 39.3006C112.372 39.8251 112.219 40.0964 111.659 40.3134L109.799 41.0911C109.294 41.3081 109.095 41.2358 108.797 40.7113C108.445 40.024 107.777 39.7708 106.919 39.7708C105.656 39.7708 105.15 40.0783 105.15 40.7113C105.15 41.489 106.251 41.6517 107.588 41.8145C109.745 42.1039 112.534 42.6103 112.534 46.0285C112.534 48.6871 110.061 50.1521 106.766 50.1521C103.995 50.1521 102.054 49.2297 101.35 47.3488C101.142 46.8062 101.314 46.553 101.855 46.3541L103.606 45.7391C104.166 45.5583 104.428 45.6125 104.708 46.137C105.042 46.77 105.773 47.0956 106.811 47.0956C108.057 47.0956 108.806 46.8424 108.806 46.0647C108.806 45.3593 107.858 45.1604 106.631 44.9976C104.455 44.7083 101.404 44.3284 101.404 40.8198C101.404 38.4325 103.381 36.7686 106.929 36.7686H106.919Z" fill="#BC9E30"/>
<path d="M55.1477 53.0459C57.2511 53.0459 58.9031 54.4928 58.9031 56.428C58.9031 57.8387 58.2711 58.8334 56.9532 59.593L56.7816 59.6834L57.9913 60.9494L58.885 60.0813C59.1829 59.7919 59.5169 59.7919 59.8148 60.0813L61.1509 61.3654C61.3946 61.6186 61.4307 61.8356 61.0967 62.1612L60.0766 63.1378L62.3064 65.489C62.6765 65.8507 62.5682 66.1582 61.9904 66.1582H59.5891C59.0836 66.1582 58.8489 66.0858 58.551 65.7603L57.9371 65.1273C56.6372 66.1762 55.5359 66.4294 54.254 66.4294C51.6541 66.4294 49.8848 64.8921 49.8848 62.4144C49.8848 60.7505 50.7785 59.6834 52.0965 58.96C51.5548 58.2908 51.2569 57.4769 51.2569 56.6269C51.2569 54.7641 52.5569 53.0459 55.1477 53.0459ZM53.1707 62.4325C53.1707 63.1378 53.6762 63.608 54.4526 63.608C55.0845 63.608 55.4907 63.3006 55.8879 62.957L54.1005 61.0941C53.3603 61.4558 53.1707 61.9803 53.1707 62.4325ZM55.1477 55.6322C54.6061 55.6322 54.3082 55.9939 54.3082 56.4641C54.3082 56.862 54.4345 57.1695 54.8317 57.6216L55.2199 57.4227C55.7435 57.1333 55.924 56.8258 55.924 56.3918C55.924 55.9577 55.6081 55.6322 55.1387 55.6322H55.1477Z" fill="#BC9E30"/>
<path d="M32.3812 75.8342V78.2215C32.3812 80.7716 30.332 82.7068 26.6669 82.7068C23.0018 82.7068 20.9346 80.7716 20.9346 77.6427V74.3873C20.9346 71.2584 23.0018 69.3232 26.6669 69.3232C29.5376 69.3232 31.316 70.4627 32.1014 72.4883C32.2909 73.0128 32.1555 73.284 31.5958 73.4649L29.6008 74.1522C29.023 74.333 28.7974 74.2245 28.5988 73.6638C28.2648 72.85 27.7051 72.4883 26.6669 72.4883C25.1955 72.4883 24.6177 73.1032 24.6177 74.3692V77.6608C24.6177 78.9268 25.1955 79.5418 26.6669 79.5418C27.9127 79.5418 28.68 79.0896 28.68 78.3119V77.9502H26.8926C26.3149 77.9502 26.1072 77.7693 26.1072 77.1906V75.8342C26.1072 75.2554 26.3149 75.0565 26.8926 75.0565H31.5958C32.1916 75.0565 32.3812 75.2554 32.3812 75.8342Z" fill="#BC9E30"/>
<path d="M44.5858 73.9532C44.5858 75.7256 43.8455 76.9916 42.5727 77.6789C42.7623 77.914 42.9247 78.1672 43.0782 78.4566L44.7573 81.5492C45.0191 82.0376 44.8837 82.4355 44.2698 82.4355H42.2567C41.2727 82.4355 40.8394 82.2003 40.5415 81.5673L39.3499 79.0896C39.034 78.4746 38.718 78.1672 37.9597 78.1672H37.5354V81.6758C37.5354 82.2365 37.3459 82.4355 36.7501 82.4355H34.6467C34.0509 82.4355 33.8433 82.2365 33.8433 81.6758V70.3541C33.8433 69.7934 34.0509 69.5945 34.6467 69.5945H39.9548C42.7623 69.5945 44.5858 71.1499 44.5858 73.9532ZM39.5395 72.7595H37.5264V75.1468H39.5395C40.3249 75.1468 40.7672 74.6766 40.7672 73.9351C40.7672 73.1936 40.3429 72.7595 39.5395 72.7595Z" fill="#BC9E30"/>
<path d="M55.5542 70.3541V71.9818C55.5542 72.5606 55.3466 72.7595 54.7507 72.7595H49.8399V74.3692H53.7668C54.3626 74.3692 54.5702 74.5681 54.5702 75.1288V76.7565C54.5702 77.3352 54.3626 77.5342 53.7668 77.5342H49.8399V79.2704H54.9223C55.5 79.2704 55.7076 79.4513 55.7076 80.03V81.6758C55.7076 82.2365 55.5 82.4355 54.9223 82.4355H46.9602C46.3644 82.4355 46.1567 82.2365 46.1567 81.6758V70.3541C46.1567 69.7934 46.3644 69.5945 46.9602 69.5945H54.7598C55.3556 69.5945 55.5632 69.7934 55.5632 70.3541H55.5542Z" fill="#BC9E30"/>
<path d="M68.3551 82.4355H66.342C65.3761 82.4355 65.0962 82.2365 64.9518 81.6758L64.5275 80.3737H60.5103L60.086 81.6758C59.8965 82.2365 59.6618 82.4355 58.7319 82.4355H56.773C56.1953 82.4355 56.0869 82.1822 56.2765 81.6939L60.5555 70.2275C60.745 69.703 60.9798 69.5945 61.5214 69.5945H63.6428C64.1844 69.5945 64.4282 69.7211 64.6087 70.1913L68.9057 81.6939C69.0953 82.1822 68.9238 82.4355 68.3641 82.4355H68.3551ZM62.5866 72.8861H62.397C62.397 72.8861 62.4151 74.1883 62.045 75.4L61.3589 77.5342H63.6879L63.0019 75.4181C62.6317 74.1883 62.5956 72.8861 62.5956 72.8861H62.5866Z" fill="#BC9E30"/>
<path d="M74.7283 69.3232C77.4817 69.3232 79.0434 70.119 79.919 71.8553C80.1808 72.3798 80.0274 72.651 79.4767 72.8681L77.6171 73.6458C77.1206 73.8628 76.9129 73.7904 76.615 73.266C76.263 72.5787 75.5949 72.3255 74.7373 72.3255C73.4735 72.3255 72.968 72.633 72.968 73.266C72.968 74.0436 74.0693 74.2064 75.4054 74.3692C77.5629 74.6586 80.3523 75.165 80.3523 78.5832C80.3523 81.2418 77.8789 82.7068 74.5839 82.7068C71.8125 82.7068 69.8807 81.7844 69.1675 79.9035C68.9599 79.3609 69.1314 79.1077 69.673 78.9088L71.4243 78.2938C71.984 78.113 72.2458 78.1672 72.5257 78.6917C72.8597 79.3247 73.5818 79.6503 74.629 79.6503C75.8748 79.6503 76.6241 79.3971 76.6241 78.6194C76.6241 77.914 75.6762 77.7151 74.4485 77.5523C72.2729 77.2629 69.2217 76.8831 69.2217 73.3745C69.2217 70.9871 71.1986 69.3232 74.7464 69.3232H74.7283Z" fill="#BC9E30"/>
<path d="M91.0498 70.3541V71.9818C91.0498 72.5606 90.8422 72.7595 90.2464 72.7595H85.3355V74.3692H89.2624C89.8582 74.3692 90.0658 74.5681 90.0658 75.1288V76.7565C90.0658 77.3352 89.8582 77.5342 89.2624 77.5342H85.3355V79.2704H90.4179C90.9956 79.2704 91.2032 79.4513 91.2032 80.03V81.6758C91.2032 82.2365 90.9956 82.4355 90.4179 82.4355H82.4558C81.86 82.4355 81.6523 82.2365 81.6523 81.6758V70.3541C81.6523 69.7934 81.86 69.5945 82.4558 69.5945H90.2554C90.8512 69.5945 91.0588 69.7934 91.0588 70.3541H91.0498Z" fill="#BC9E30"/>
<path d="M55.9872 107.448C57.892 107.448 59.6704 108.569 60.528 110.315V110.342C73.6808 138.031 81.5616 159.192 81.5887 166.951C81.5887 181.112 70.0969 192.624 55.9692 192.624C41.8414 192.624 30.3496 181.112 30.3496 166.96C30.3496 157.655 41.2276 131.611 51.4104 110.342L51.4284 110.315V110.288C52.2138 108.597 54.0283 107.457 55.9692 107.457M55.9692 104.129C52.7013 104.129 49.7313 106.028 48.4133 108.913C43.3941 119.394 27.0186 154.562 27.0186 166.978C27.0186 182.966 39.9998 195.969 55.9601 195.969C71.9204 195.969 84.9017 182.966 84.9017 166.96C84.8476 155.086 69.9254 122.414 63.516 108.922V108.895C62.0987 106.001 59.1378 104.129 55.9601 104.129H55.9692Z" fill="white"/>
<path d="M55.4364 188.518C54.5156 188.518 53.7754 187.777 53.7754 186.854C53.7754 185.932 54.5156 185.19 55.4364 185.19C66.1609 185.19 74.8813 176.446 74.8813 165.703C74.8813 164.78 75.6215 164.039 76.5423 164.039C77.4631 164.039 78.2033 164.78 78.2033 165.703C78.2033 178.29 67.9844 188.527 55.4274 188.527L55.4364 188.518Z" fill="white"/>
<path d="M25.71 224.174C25.71 227.032 23.8324 228.642 20.9436 228.642H18.6507V231.734C18.6507 232.295 18.4611 232.494 17.8653 232.494H15.7619C15.1661 232.494 14.9585 232.295 14.9585 231.734V220.412C14.9585 219.852 15.1661 219.653 15.7619 219.653H20.8985C23.8053 219.653 25.701 221.299 25.701 224.174H25.71ZM21.8915 224.156C21.8915 223.36 21.3679 222.818 20.4922 222.818H18.6507V225.476H20.4922C21.3679 225.476 21.8915 224.952 21.8915 224.156Z" fill="#BC9E30"/>
<path d="M32.4355 219.382C36.1006 219.382 38.1498 221.317 38.1498 224.446V227.701C38.1498 230.83 36.1006 232.765 32.4355 232.765C28.7704 232.765 26.7031 230.83 26.7031 227.701V224.446C26.7031 221.317 28.7523 219.382 32.4355 219.382ZM32.4355 222.547C31.1355 222.547 30.3863 223.143 30.3863 224.283V227.864C30.3863 229.003 31.1355 229.6 32.4355 229.6C33.7354 229.6 34.4666 229.003 34.4666 227.864V224.283C34.4666 223.143 33.7264 222.547 32.4355 222.547Z" fill="#BC9E30"/>
<path d="M43.3946 220.412V229.329H47.8812C48.4589 229.329 48.6665 229.51 48.6665 230.088V231.734C48.6665 232.295 48.4589 232.494 47.8812 232.494H40.5149C39.9191 232.494 39.7114 232.295 39.7114 231.734V220.412C39.7114 219.852 39.9191 219.653 40.5149 219.653H42.6182C43.214 219.653 43.4036 219.852 43.4036 220.412H43.3946Z" fill="#BC9E30"/>
<path d="M59.1835 220.412L54.8865 227.52V231.734C54.8865 232.295 54.6969 232.494 54.1011 232.494H51.9978C51.402 232.494 51.1943 232.295 51.1943 231.734V227.52L46.9154 220.412C46.6536 219.996 46.7258 219.653 47.3036 219.653H49.5333C50.4631 219.653 50.7249 219.689 51.077 220.322L53.072 224.012L55.1212 220.322C55.4733 219.689 55.7351 219.653 56.6468 219.653H58.7863C59.346 219.653 59.4182 219.996 59.1745 220.412H59.1835Z" fill="#BC9E30"/>
<path d="M73.7536 220.394V231.752C73.7536 232.313 73.546 232.494 72.9502 232.494H70.9191C70.3233 232.494 70.1337 232.313 70.1337 231.752V229.166C70.1337 227.972 70.242 226.833 70.9552 224.428H70.7475C70.558 225.024 69.8899 226.67 69.5018 227.412L68.4636 229.455C68.256 229.817 68.0755 229.98 67.5699 229.98H66.3242C65.8186 229.98 65.6381 229.853 65.4305 229.455L64.3291 227.412C63.9409 226.724 63.3632 225.061 63.1736 224.428H62.984C63.6521 227.032 63.7423 227.936 63.7423 229.184V231.752C63.7423 232.313 63.5347 232.494 62.9389 232.494H61.0432C60.4474 232.494 60.2397 232.313 60.2397 231.752V220.394C60.2397 219.816 60.4474 219.635 61.0432 219.635H62.7945C63.4444 219.635 63.634 219.743 63.8958 220.195L66.9651 226.055L70.0344 220.214C70.2962 219.725 70.4587 219.635 71.0725 219.635H72.9322C73.528 219.635 73.7356 219.816 73.7356 220.394H73.7536Z" fill="#BC9E30"/>
<path d="M85.0195 220.412V222.04C85.0195 222.619 84.8119 222.818 84.2161 222.818H79.3052V224.428H83.2321C83.8279 224.428 84.0355 224.626 84.0355 225.187V226.815C84.0355 227.394 83.8279 227.593 83.2321 227.593H79.3052V229.329H84.3876C84.9654 229.329 85.173 229.51 85.173 230.088V231.734C85.173 232.295 84.9654 232.494 84.3876 232.494H76.4255C75.8297 232.494 75.6221 232.295 75.6221 231.734V220.412C75.6221 219.852 75.8297 219.653 76.4255 219.653H84.2251C84.8209 219.653 85.0285 219.852 85.0285 220.412H85.0195Z" fill="#BC9E30"/>
<path d="M97.2965 224.012C97.2965 225.784 96.5472 227.05 95.2834 227.737C95.4729 227.972 95.6354 228.226 95.7889 228.515L97.468 231.608C97.7298 232.096 97.5944 232.494 96.9805 232.494H94.9674C93.9834 232.494 93.5501 232.259 93.2522 231.626L92.0606 229.148C91.7447 228.533 91.4287 228.226 90.6614 228.226H90.2371V231.734C90.2371 232.295 90.0475 232.494 89.4517 232.494H87.3484C86.7525 232.494 86.5449 232.295 86.5449 231.734V220.412C86.5449 219.852 86.7525 219.653 87.3484 219.653H92.6564C95.4639 219.653 97.2874 221.208 97.2874 224.012H97.2965ZM92.2502 222.818H90.2371V225.205H92.2502C93.0356 225.205 93.4779 224.735 93.4779 223.993C93.4779 223.252 93.0536 222.818 92.2502 222.818Z" fill="#BC9E30"/>
<path d="M90.8962 279.21C86.1027 279.21 82.0765 282.284 80.5418 286.507L68.8424 284.391V284.292C68.8424 278.143 63.8593 273.151 57.7208 273.151C51.5822 273.151 46.6894 278.143 46.6894 284.292C46.6894 290.441 51.6725 295.433 57.811 295.433C58.5784 295.433 59.3457 295.333 60.0137 295.243L66.8203 312.533C63.8503 314.36 61.7379 317.624 61.5483 321.368L48.1247 323.005C46.4908 316.376 40.4515 311.384 33.2567 311.384C32.4894 311.384 31.7221 311.484 30.9548 311.574L27.7862 298.987C32.2005 296.97 35.2698 292.548 35.2698 287.366C35.2698 280.358 29.6097 274.589 22.6135 274.589C15.6173 274.589 9.85791 280.349 9.85791 287.366C9.85791 294.384 15.518 300.144 22.6135 300.144C23.092 300.144 23.6697 300.144 24.1482 300.045L27.3167 312.723C21.8462 315.029 18.0186 320.5 18.0186 326.848C18.0186 335.303 24.9245 342.221 33.3651 342.221C41.8056 342.221 48.6122 335.402 48.7115 326.947L62.1351 325.311C63.3809 329.534 67.1182 332.708 71.5326 333.087L72.011 339.815C66.3509 341.063 62.0358 346.155 62.0358 352.204C62.0358 359.213 67.6959 364.982 74.7914 364.982C81.8869 364.982 87.3575 359.122 87.3575 352.105C87.3575 345.476 82.1758 340.005 75.658 339.427L75.1796 332.699C79.9731 331.55 83.6201 327.128 83.6201 321.938C83.6201 315.788 78.6371 310.797 72.4985 310.797C71.7312 310.797 70.9638 310.896 70.2958 310.987L63.4892 293.696C65.6016 292.449 67.2265 290.432 68.0932 288.027L79.8919 290.233V290.332C79.8919 296.482 84.8749 301.473 91.0135 301.473C97.1521 301.473 102.135 296.482 102.135 290.332C102.135 284.183 97.0528 279.192 90.9142 279.192L90.8962 279.21ZM13.6945 287.375C13.6945 282.474 17.6304 278.441 22.6135 278.441C27.5966 278.441 31.4332 282.384 31.4332 287.375C31.4332 292.367 27.4973 296.31 22.6135 296.31C17.7207 296.31 13.6945 292.277 13.6945 287.375ZM33.356 338.197C27.0279 338.197 21.8462 333.006 21.8462 326.667C21.8462 320.328 27.0279 315.137 33.356 315.137C39.6842 315.137 44.8659 320.328 44.8659 326.667C44.8659 333.006 39.6842 338.197 33.356 338.197ZM83.5118 352.123C83.5118 357.024 79.5759 361.057 74.5928 361.057C69.6097 361.057 65.6738 357.115 65.6738 352.123C65.6738 347.131 69.6097 343.188 74.5928 343.188C79.5759 343.188 83.5118 347.222 83.5118 352.123ZM79.8648 321.956C79.8648 325.989 76.6059 329.253 72.5797 329.253C68.5535 329.253 65.2947 325.989 65.2947 321.956C65.2947 317.922 68.5535 314.658 72.5797 314.658C76.6059 314.757 79.8648 318.022 79.8648 321.956ZM57.811 291.598C53.7849 291.598 50.526 288.334 50.526 284.301C50.526 280.268 53.7849 277.003 57.811 277.003C61.8372 277.003 65.0961 280.268 65.0961 284.301C65.0961 288.334 61.8372 291.598 57.811 291.598ZM90.8962 297.558C86.87 297.558 83.6111 294.293 83.6111 290.26C83.6111 286.227 86.87 282.962 90.8962 282.962C94.9223 282.962 98.1812 286.227 98.1812 290.26C98.1812 294.293 94.9223 297.558 90.8962 297.558Z" fill="white"/>
<path d="M314.349 220.412V222.04C314.349 222.619 314.142 222.818 313.546 222.818H308.635V224.916H312.562C313.158 224.916 313.365 225.115 313.365 225.675V227.303C313.365 227.882 313.158 228.081 312.562 228.081H308.635V231.734C308.635 232.295 308.445 232.494 307.85 232.494H305.746C305.151 232.494 304.943 232.295 304.943 231.734V220.412C304.943 219.852 305.151 219.653 305.746 219.653H313.546C314.142 219.653 314.349 219.852 314.349 220.412Z" fill="#BC9E30"/>
<path d="M319.341 220.412V229.329H323.828C324.406 229.329 324.613 229.51 324.613 230.088V231.734C324.613 232.295 324.406 232.494 323.828 232.494H316.462C315.866 232.494 315.658 232.295 315.658 231.734V220.412C315.658 219.852 315.866 219.653 316.462 219.653H318.565C319.161 219.653 319.35 219.852 319.35 220.412H319.341Z" fill="#BC9E30"/>
<path d="M330.987 229.6C332.269 229.6 332.919 229.003 332.919 227.936V220.412C332.919 219.852 333.108 219.653 333.704 219.653H335.807C336.403 219.653 336.611 219.852 336.611 220.412V227.773C336.611 230.812 334.679 232.765 330.987 232.765C327.295 232.765 325.381 230.812 325.381 227.773V220.412C325.381 219.852 325.57 219.653 326.166 219.653H328.27C328.865 219.653 329.073 219.852 329.073 220.412V227.936C329.073 229.003 329.705 229.6 330.987 229.6Z" fill="#BC9E30"/>
<path d="M349.158 232.494H346.757C345.809 232.494 345.584 232.44 345.232 231.825L343.462 228.859L341.747 231.825C341.395 232.385 341.205 232.494 340.203 232.494H337.91C337.351 232.494 337.224 232.168 337.522 231.734L341.341 225.947L337.694 220.376C337.432 219.978 337.54 219.653 338.082 219.653H340.294C341.259 219.653 341.485 219.725 341.837 220.286L343.516 223.071L345.168 220.286C345.52 219.689 345.746 219.653 346.604 219.653H348.987C349.51 219.653 349.619 219.978 349.357 220.376L345.674 225.947L349.547 231.734C349.844 232.132 349.736 232.494 349.158 232.494Z" fill="#BC9E30"/>
<path d="M301.323 240.452C301.323 243.309 299.445 244.919 296.556 244.919H294.263V248.012C294.263 248.572 294.074 248.771 293.478 248.771H291.375C290.779 248.771 290.571 248.572 290.571 248.012V236.69C290.571 236.129 290.779 235.93 291.375 235.93H296.511C299.418 235.93 301.314 237.576 301.314 240.452H301.323ZM297.504 240.434C297.504 239.638 296.981 239.095 296.105 239.095H294.263V241.754H296.105C296.981 241.754 297.504 241.229 297.504 240.434Z" fill="#BC9E30"/>
<path d="M308.039 235.659C311.704 235.659 313.753 237.594 313.753 240.723V243.978C313.753 247.107 311.704 249.042 308.039 249.042C304.374 249.042 302.307 247.107 302.307 243.978V240.723C302.307 237.594 304.356 235.659 308.039 235.659ZM308.039 238.824C306.739 238.824 305.99 239.421 305.99 240.56V244.141C305.99 245.281 306.739 245.877 308.039 245.877C309.339 245.877 310.07 245.281 310.07 244.141V240.56C310.07 239.421 309.33 238.824 308.039 238.824Z" fill="#BC9E30"/>
<path d="M331.339 236.672L328.378 248.138C328.251 248.663 327.954 248.771 327.43 248.771H325.254C324.713 248.771 324.397 248.645 324.288 248.174L323.286 243.96C323.043 242.821 322.952 241.736 322.934 240.705H322.781C322.745 241.736 322.627 242.785 322.375 243.96L321.391 248.138C321.237 248.663 320.939 248.771 320.425 248.771H318.285C317.744 248.771 317.428 248.663 317.319 248.174L314.376 236.672C314.25 236.165 314.304 235.93 314.882 235.93H317.175C317.825 235.93 318.105 236.039 318.213 236.599L319.035 241.338C319.206 242.278 319.296 244.033 319.296 244.539H319.423C319.423 243.996 319.549 242.314 319.775 241.338L320.93 236.599C321.057 236.021 321.382 235.93 321.968 235.93H323.982C324.559 235.93 324.893 236.039 325.02 236.599L326.157 241.338C326.383 242.369 326.491 243.996 326.509 244.539H326.663C326.681 244.033 326.789 242.333 326.943 241.338L327.728 236.599C327.836 236.039 328.116 235.93 328.784 235.93H330.851C331.429 235.93 331.483 236.165 331.357 236.672H331.339Z" fill="#BC9E30"/>
<path d="M343.571 240.994V243.707C343.571 246.818 341.521 248.771 337.856 248.771H333.316C332.72 248.771 332.512 248.572 332.512 248.012V236.69C332.512 236.129 332.72 235.93 333.316 235.93H337.856C341.521 235.93 343.571 237.865 343.571 240.994ZM337.73 239.095H336.204V245.606H337.73C339.238 245.606 339.888 244.937 339.888 243.653V241.048C339.888 239.764 339.238 239.095 337.73 239.095Z" fill="#BC9E30"/>
<path d="M354.512 236.69V238.318C354.512 238.896 354.304 239.095 353.708 239.095H348.797V240.705H352.724C353.32 240.705 353.528 240.904 353.528 241.464V243.092C353.528 243.671 353.32 243.87 352.724 243.87H348.797V245.606H353.88C354.458 245.606 354.665 245.787 354.665 246.366V248.012C354.665 248.572 354.458 248.771 353.88 248.771H345.918C345.322 248.771 345.114 248.572 345.114 248.012V236.69C345.114 236.129 345.322 235.93 345.918 235.93H353.717C354.313 235.93 354.521 236.129 354.521 236.69H354.512Z" fill="#BC9E30"/>
<path d="M366.798 240.289C366.798 242.061 366.049 243.327 364.785 244.015C364.974 244.25 365.137 244.503 365.29 244.792L366.969 247.885C367.231 248.373 367.096 248.771 366.482 248.771H364.469C363.485 248.771 363.052 248.536 362.754 247.903L361.562 245.425C361.246 244.81 360.93 244.503 360.163 244.503H359.739V248.012C359.739 248.572 359.549 248.771 358.953 248.771H356.85C356.254 248.771 356.046 248.572 356.046 248.012V236.69C356.046 236.129 356.254 235.93 356.85 235.93H362.158C364.965 235.93 366.789 237.486 366.789 240.289H366.798ZM361.752 239.095H359.739V241.483H361.752C362.537 241.483 362.979 241.012 362.979 240.271C362.979 239.529 362.555 239.095 361.752 239.095Z" fill="#BC9E30"/>
<path d="M285.336 282.375C287.873 282.375 289.931 280.314 289.931 277.772C289.931 275.23 287.873 273.169 285.336 273.169C282.798 273.169 280.741 275.23 280.741 277.772C280.741 280.314 282.798 282.375 285.336 282.375Z" fill="white"/>
<path d="M313.023 282.375C315.56 282.375 317.618 280.314 317.618 277.772C317.618 275.23 315.56 273.169 313.023 273.169C310.485 273.169 308.428 275.23 308.428 277.772C308.428 280.314 310.485 282.375 313.023 282.375Z" fill="white"/>
<path d="M340.709 282.375C343.247 282.375 345.304 280.314 345.304 277.772C345.304 275.23 343.247 273.169 340.709 273.169C338.171 273.169 336.114 275.23 336.114 277.772C336.114 280.314 338.171 282.375 340.709 282.375Z" fill="white"/>
<path d="M368.396 282.375C370.934 282.375 372.991 280.314 372.991 277.772C372.991 275.23 370.934 273.169 368.396 273.169C365.858 273.169 363.801 275.23 363.801 277.772C363.801 280.314 365.858 282.375 368.396 282.375Z" fill="white"/>
<path d="M299.184 298.896C301.721 298.896 303.779 296.835 303.779 294.293C303.779 291.751 301.721 289.69 299.184 289.69C296.646 289.69 294.589 291.751 294.589 294.293C294.589 296.835 296.646 298.896 299.184 298.896Z" fill="white"/>
<path d="M326.871 298.896C329.408 298.896 331.466 296.835 331.466 294.293C331.466 291.751 329.408 289.69 326.871 289.69C324.333 289.69 322.276 291.751 322.276 294.293C322.276 296.835 324.333 298.896 326.871 298.896Z" fill="white"/>
<path d="M354.557 298.896C357.095 298.896 359.152 296.835 359.152 294.293C359.152 291.751 357.095 289.69 354.557 289.69C352.02 289.69 349.962 291.751 349.962 294.293C349.962 296.835 352.02 298.896 354.557 298.896Z" fill="white"/>
<path d="M285.336 315.418C287.873 315.418 289.931 313.357 289.931 310.815C289.931 308.273 287.873 306.212 285.336 306.212C282.798 306.212 280.741 308.273 280.741 310.815C280.741 313.357 282.798 315.418 285.336 315.418Z" fill="white"/>
<path d="M313.023 315.418C315.56 315.418 317.618 313.357 317.618 310.815C317.618 308.273 315.56 306.212 313.023 306.212C310.485 306.212 308.428 308.273 308.428 310.815C308.428 313.357 310.485 315.418 313.023 315.418Z" fill="white"/>
<path d="M340.709 315.418C343.247 315.418 345.304 313.357 345.304 310.815C345.304 308.273 343.247 306.212 340.709 306.212C338.171 306.212 336.114 308.273 336.114 310.815C336.114 313.357 338.171 315.418 340.709 315.418Z" fill="white"/>
<path d="M368.396 315.418C370.934 315.418 372.991 313.357 372.991 310.815C372.991 308.273 370.934 306.212 368.396 306.212C365.858 306.212 363.801 308.273 363.801 310.815C363.801 313.357 365.858 315.418 368.396 315.418Z" fill="white"/>
<path d="M285.336 348.469C287.873 348.469 289.931 346.409 289.931 343.867C289.931 341.324 287.873 339.264 285.336 339.264C282.798 339.264 280.741 341.324 280.741 343.867C280.741 346.409 282.798 348.469 285.336 348.469Z" fill="white"/>
<path d="M313.023 348.469C315.56 348.469 317.618 346.409 317.618 343.867C317.618 341.324 315.56 339.264 313.023 339.264C310.485 339.264 308.428 341.324 308.428 343.867C308.428 346.409 310.485 348.469 313.023 348.469Z" fill="white"/>
<path d="M340.709 348.469C343.247 348.469 345.304 346.409 345.304 343.867C345.304 341.324 343.247 339.264 340.709 339.264C338.171 339.264 336.114 341.324 336.114 343.867C336.114 346.409 338.171 348.469 340.709 348.469Z" fill="white"/>
<path d="M368.396 348.469C370.934 348.469 372.991 346.409 372.991 343.867C372.991 341.324 370.934 339.264 368.396 339.264C365.858 339.264 363.801 341.324 363.801 343.867C363.801 346.409 365.858 348.469 368.396 348.469Z" fill="white"/>
<path d="M299.184 331.948C301.721 331.948 303.779 329.887 303.779 327.345C303.779 324.803 301.721 322.742 299.184 322.742C296.646 322.742 294.589 324.803 294.589 327.345C294.589 329.887 296.646 331.948 299.184 331.948Z" fill="white"/>
<path d="M326.871 331.948C329.408 331.948 331.466 329.887 331.466 327.345C331.466 324.803 329.408 322.742 326.871 322.742C324.333 322.742 322.276 324.803 322.276 327.345C322.276 329.887 324.333 331.948 326.871 331.948Z" fill="white"/>
<path d="M354.557 331.948C357.095 331.948 359.152 329.887 359.152 327.345C359.152 324.803 357.095 322.742 354.557 322.742C352.02 322.742 349.962 324.803 349.962 327.345C349.962 329.887 352.02 331.948 354.557 331.948Z" fill="white"/>
<path d="M299.184 364.991C301.721 364.991 303.779 362.93 303.779 360.388C303.779 357.846 301.721 355.785 299.184 355.785C296.646 355.785 294.589 357.846 294.589 360.388C294.589 362.93 296.646 364.991 299.184 364.991Z" fill="white"/>
<path d="M326.871 364.991C329.408 364.991 331.466 362.93 331.466 360.388C331.466 357.846 329.408 355.785 326.871 355.785C324.333 355.785 322.276 357.846 322.276 360.388C322.276 362.93 324.333 364.991 326.871 364.991Z" fill="white"/>
<path d="M354.557 364.991C357.095 364.991 359.152 362.93 359.152 360.388C359.152 357.846 357.095 355.785 354.557 355.785C352.02 355.785 349.962 357.846 349.962 360.388C349.962 362.93 352.02 364.991 354.557 364.991Z" fill="white"/>
<path d="M568.152 219.382C571.817 219.382 573.867 221.317 573.867 224.446V227.701C573.867 230.83 571.817 232.765 568.152 232.765C564.487 232.765 562.42 230.83 562.42 227.701V224.446C562.42 221.317 564.469 219.382 568.152 219.382ZM568.152 222.547C566.852 222.547 566.103 223.143 566.103 224.283V227.864C566.103 229.003 566.852 229.6 568.152 229.6C569.452 229.6 570.183 229.003 570.183 227.864V224.283C570.183 223.143 569.443 222.547 568.152 222.547Z" fill="#BC9E30"/>
<path d="M585.349 220.412V222.04C585.349 222.619 585.142 222.818 584.546 222.818H581.792V231.734C581.792 232.295 581.585 232.494 580.989 232.494H578.886C578.29 232.494 578.1 232.295 578.1 231.734V222.818H575.329C574.733 222.818 574.543 222.619 574.543 222.04V220.412C574.543 219.852 574.733 219.653 575.329 219.653H584.546C585.142 219.653 585.349 219.852 585.349 220.412Z" fill="#BC9E30"/>
<path d="M597.464 220.412V231.734C597.464 232.295 597.256 232.494 596.679 232.494H594.557C593.98 232.494 593.772 232.295 593.772 231.734V227.574H590.161V231.734C590.161 232.295 589.971 232.494 589.376 232.494H587.272C586.676 232.494 586.469 232.295 586.469 231.734V220.412C586.469 219.834 586.676 219.635 587.272 219.635H589.376C589.971 219.635 590.161 219.834 590.161 220.412V224.409H593.772V220.412C593.772 219.834 593.98 219.635 594.557 219.635H596.679C597.256 219.635 597.464 219.834 597.464 220.412Z" fill="#BC9E30"/>
<path d="M608.721 220.412V222.04C608.721 222.619 608.514 222.818 607.918 222.818H603.007V224.428H606.934C607.53 224.428 607.737 224.626 607.737 225.187V226.815C607.737 227.394 607.53 227.593 606.934 227.593H603.007V229.329H608.089C608.667 229.329 608.875 229.51 608.875 230.088V231.734C608.875 232.295 608.667 232.494 608.089 232.494H600.127C599.531 232.494 599.324 232.295 599.324 231.734V220.412C599.324 219.852 599.531 219.653 600.127 219.653H607.927C608.523 219.653 608.73 219.852 608.73 220.412H608.721Z" fill="#BC9E30"/>
<path d="M621.007 224.012C621.007 225.784 620.258 227.05 618.994 227.737C619.184 227.972 619.346 228.226 619.5 228.515L621.179 231.608C621.441 232.096 621.305 232.494 620.691 232.494H618.678C617.694 232.494 617.261 232.259 616.963 231.626L615.772 229.148C615.456 228.533 615.14 228.226 614.372 228.226H613.948V231.734C613.948 232.295 613.758 232.494 613.163 232.494H611.059C610.464 232.494 610.256 232.295 610.256 231.734V220.412C610.256 219.852 610.464 219.653 611.059 219.653H616.367C619.175 219.653 620.998 221.208 620.998 224.012H621.007ZM615.961 222.818H613.948V225.205H615.961C616.747 225.205 617.189 224.735 617.189 223.993C617.189 223.252 616.765 222.818 615.961 222.818Z" fill="#BC9E30"/>
<path d="M627.696 219.382C630.45 219.382 632.011 220.177 632.887 221.914C633.149 222.438 632.995 222.709 632.436 222.926L630.576 223.704C630.071 223.921 629.872 223.849 629.574 223.324C629.222 222.637 628.554 222.384 627.696 222.384C626.433 222.384 625.927 222.691 625.927 223.324C625.927 224.102 627.028 224.265 628.364 224.428C630.522 224.717 633.311 225.223 633.311 228.642C633.311 231.3 630.838 232.765 627.543 232.765C624.771 232.765 622.831 231.843 622.126 229.962C621.919 229.419 622.09 229.166 622.632 228.967L624.383 228.352C624.943 228.171 625.205 228.226 625.485 228.75C625.819 229.383 626.55 229.709 627.588 229.709C628.834 229.709 629.583 229.455 629.583 228.678C629.583 227.972 628.635 227.773 627.407 227.611C625.232 227.321 622.181 226.941 622.181 223.433C622.181 221.045 624.158 219.382 627.705 219.382H627.696Z" fill="#BC9E30"/>
<path d="M582.56 276.497C584.392 276.497 585.882 277.989 585.882 279.825V304.159C585.882 305.995 584.392 307.487 582.56 307.487H558.267C556.435 307.487 554.945 305.995 554.945 304.159V279.825C554.945 277.989 556.435 276.497 558.267 276.497H582.56ZM582.56 273.169H558.267C554.611 273.169 551.614 276.171 551.614 279.834V304.168C551.614 307.831 554.611 310.833 558.267 310.833H582.56C586.216 310.833 589.213 307.831 589.213 304.168V279.834C589.213 276.171 586.216 273.169 582.56 273.169Z" fill="white"/>
<path d="M582.551 327.345H558.267C554.593 327.345 551.614 330.329 551.614 334.01V358.335C551.614 362.016 554.593 365 558.267 365H582.551C586.225 365 589.204 362.016 589.204 358.335V334.01C589.204 330.329 586.225 327.345 582.551 327.345Z" fill="white"/>
<path d="M637.22 273.16H612.937C609.262 273.16 606.284 276.144 606.284 279.825V304.15C606.284 307.831 609.262 310.815 612.937 310.815H637.22C640.895 310.815 643.873 307.831 643.873 304.15V279.825C643.873 276.144 640.895 273.16 637.22 273.16Z" fill="white"/>
<path d="M637.221 330.673C639.053 330.673 640.543 332.165 640.543 334.001V358.335C640.543 360.171 639.053 361.663 637.221 361.663H612.928C611.095 361.663 609.606 360.171 609.606 358.335V334.001C609.606 332.165 611.095 330.673 612.928 330.673H637.221ZM637.221 327.345H612.928C609.272 327.345 606.275 330.347 606.275 334.01V358.344C606.275 362.007 609.272 365.009 612.928 365.009H637.221C640.877 365.009 643.874 362.007 643.874 358.344V334.01C643.874 330.347 640.877 327.345 637.221 327.345Z" fill="white"/>
<path d="M325.959 1.35645H323.25V24.2079H325.959V1.35645Z" fill="#BC9E30"/>
<path d="M599.098 28.5033H596.39V2.71288H57.3415V28.5033H54.6333V0H599.098V28.5033Z" fill="#BC9E30"/>
</g>
<defs>
<clipPath id="clip0_17_841">
<rect width="644" height="365" fill="white"/>
</clipPath>
</defs>
</svg>
