<svg width="50" height="50" viewBox="0 0 50 50" fill="none" xmlns="http://www.w3.org/2000/svg">
<g clip-path="url(#clip0_17_269)">
<path d="M4.18599 0H45.814C48.127 0 50 1.87299 50 4.18599V45.814C50 48.127 48.127 50 45.814 50H4.18599C1.87299 50 0 48.127 0 45.814V4.18599C0 1.87299 1.87299 0 4.18599 0Z" fill="#898989"/>
<path d="M29.2899 33.7199L32.8338 34.808C32.2927 36.7226 31.3889 38.1497 30.1224 39.0772C28.8559 40.0048 27.2564 40.4745 25.3121 40.4745C22.9099 40.4745 20.9298 39.6778 19.3839 38.0843C17.8379 36.4907 17.0649 34.3145 17.0649 31.5496C17.0649 28.6301 17.8439 26.3587 19.3958 24.7414C20.9536 23.1241 22.9991 22.3154 25.5321 22.3154C27.744 22.3154 29.5456 22.9517 30.9251 24.2182C31.7456 24.9674 32.364 26.0495 32.7802 27.4528L29.1651 28.2912C28.951 27.3814 28.5051 26.662 27.8272 26.1387C27.1494 25.6095 26.3229 25.3479 25.3537 25.3479C24.0099 25.3479 22.9218 25.8176 22.0893 26.7512C21.2509 27.6847 20.8347 29.2009 20.8347 31.288C20.8347 33.5058 21.245 35.0875 22.0715 36.0329C22.892 36.9723 23.9623 37.448 25.2823 37.448C26.2515 37.448 27.0899 37.1507 27.7856 36.5502C28.4872 35.9496 28.9867 35.0102 29.2899 33.7258V33.7199Z" fill="white"/>
<path d="M10.3701 10.3995V9.69791H12.9744V11.9039C12.576 12.2131 12.1658 12.445 11.7377 12.5996C11.3155 12.7542 10.8755 12.8315 10.4295 12.8315C9.82899 12.8315 9.27601 12.7066 8.78249 12.4569C8.28897 12.2071 7.91437 11.8444 7.66464 11.3687C7.41491 10.8931 7.29004 10.3639 7.29004 9.78115C7.29004 9.19844 7.41491 8.65735 7.66464 8.15789C7.91437 7.65248 8.27708 7.28383 8.74087 7.04004C9.20465 6.79625 9.75169 6.67139 10.3641 6.67139C10.8101 6.67139 11.2085 6.74274 11.5712 6.8795C11.9279 7.01625 12.2133 7.21247 12.4155 7.46221C12.6177 7.71194 12.7723 8.03897 12.8793 8.43735L12.1479 8.63357C12.0528 8.33032 11.9398 8.09248 11.8031 7.92005C11.6663 7.74761 11.4701 7.60491 11.2144 7.50383C10.9587 7.40275 10.6793 7.34923 10.3701 7.34923C10.0014 7.34923 9.67439 7.40275 9.40682 7.51572C9.1333 7.62869 8.91925 7.7714 8.75276 7.94978C8.58627 8.12816 8.45546 8.32438 8.36627 8.53843C8.21167 8.90709 8.13437 9.30547 8.13437 9.73953C8.13437 10.2687 8.22951 10.7147 8.41978 11.0714C8.61005 11.4282 8.88357 11.6958 9.24033 11.8682C9.60304 12.0406 9.98358 12.1298 10.3879 12.1298C10.7387 12.1298 11.0836 12.0644 11.4166 11.9336C11.7495 11.8028 12.0052 11.6601 12.1777 11.5114V10.3995H10.3701Z" fill="white"/>
<path d="M14.4967 12.7362V8.41944H15.1745V9.0735C15.3469 8.77026 15.5075 8.56809 15.6561 8.46701C15.8048 8.37187 15.9653 8.31836 16.1378 8.31836C16.3934 8.31836 16.6491 8.39566 16.9107 8.5562L16.6491 9.23404C16.4648 9.12702 16.2805 9.0735 16.0961 9.0735C15.9297 9.0735 15.781 9.12107 15.6502 9.21621C15.5194 9.31134 15.4242 9.4481 15.3707 9.61459C15.2875 9.87621 15.2459 10.1616 15.2459 10.4708V12.7303H14.4907L14.4967 12.7362Z" fill="white"/>
<path d="M20.6926 12.207C20.4131 12.4389 20.1455 12.5995 19.8839 12.6946C19.6223 12.7897 19.3488 12.8373 19.0515 12.8373C18.5639 12.8373 18.1893 12.7184 17.9217 12.4924C17.6601 12.2605 17.5293 11.9632 17.5293 11.6065C17.5293 11.3924 17.5769 11.2022 17.6779 11.0297C17.779 10.8573 17.9098 10.7146 18.0704 10.6076C18.2309 10.5005 18.4153 10.4232 18.6115 10.3697C18.7601 10.334 18.9801 10.2984 19.2834 10.2627C19.8899 10.1913 20.3418 10.1081 20.6272 10.013C20.6272 9.91187 20.6272 9.84647 20.6272 9.82268C20.6272 9.52538 20.5558 9.31727 20.4131 9.19241C20.2228 9.02592 19.9315 8.94267 19.5569 8.94267C19.2001 8.94267 18.9385 9.00213 18.772 9.12105C18.6055 9.23998 18.4747 9.45403 18.3974 9.76322L17.6601 9.66809C17.7255 9.36484 17.8385 9.11511 17.9931 8.92484C18.1477 8.73456 18.3677 8.59186 18.659 8.49078C18.9504 8.3897 19.2834 8.33618 19.6699 8.33618C20.0564 8.33618 20.3596 8.3778 20.5974 8.46699C20.8353 8.55618 21.0077 8.66321 21.1207 8.79402C21.2337 8.92484 21.311 9.09132 21.3526 9.29349C21.3764 9.41836 21.3883 9.6443 21.3883 9.96539V10.9405C21.3883 11.6184 21.4061 12.0524 21.4358 12.2308C21.4656 12.4092 21.531 12.5816 21.6261 12.7481H20.8353C20.758 12.5995 20.7045 12.4211 20.6866 12.213L20.6926 12.207ZM20.6272 10.5719C20.3537 10.6789 19.9434 10.774 19.3963 10.8454C19.0872 10.887 18.8671 10.9405 18.7363 10.994C18.6055 11.0476 18.5104 11.1249 18.439 11.2319C18.3677 11.3389 18.332 11.4519 18.332 11.5768C18.332 11.773 18.4093 11.9335 18.558 12.0643C18.7066 12.1951 18.9326 12.2605 19.2239 12.2605C19.5153 12.2605 19.7709 12.2011 19.9969 12.0762C20.2228 11.9514 20.3893 11.7849 20.4964 11.5708C20.5796 11.4043 20.6153 11.1605 20.6153 10.8395V10.5719H20.6272Z" fill="white"/>
<path d="M22.9937 14.3953V8.42555H23.6834V8.98447C23.8439 8.76447 24.0283 8.59798 24.2304 8.49095C24.4326 8.37798 24.6823 8.32446 24.9737 8.32446C25.3542 8.32446 25.6872 8.4196 25.9785 8.60987C26.2699 8.80014 26.4899 9.06771 26.6386 9.41258C26.7872 9.75745 26.8586 10.138 26.8586 10.5483C26.8586 10.9883 26.7753 11.3867 26.6148 11.7434C26.4483 12.0942 26.2164 12.3678 25.9013 12.558C25.5921 12.7483 25.265 12.8375 24.9202 12.8375C24.6704 12.8375 24.4445 12.784 24.2423 12.6829C24.0402 12.5818 23.8796 12.451 23.7488 12.2905V14.3894H22.9937V14.3953ZM23.6774 10.6077C23.6774 11.1607 23.7904 11.571 24.0223 11.8386C24.2542 12.1061 24.5337 12.2369 24.8666 12.2369C25.1996 12.2369 25.491 12.1002 25.7288 11.8267C25.9667 11.5531 26.0856 11.125 26.0856 10.5483C26.0856 9.97151 25.9667 9.58502 25.7348 9.3115C25.5029 9.03798 25.2234 8.90123 24.8964 8.90123C24.5693 8.90123 24.2899 9.04988 24.0461 9.34123C23.7964 9.63259 23.6774 10.0548 23.6774 10.6137V10.6077Z" fill="white"/>
<path d="M28.1963 12.7362V6.77832H28.9514V8.91888C29.3022 8.5205 29.7482 8.32428 30.2833 8.32428C30.6104 8.32428 30.9017 8.38969 31.1455 8.51456C31.3893 8.63942 31.5617 8.81186 31.6688 9.0378C31.7758 9.25781 31.8234 9.58484 31.8234 10.007V12.7422H31.0682V10.007C31.0682 9.63835 30.985 9.37673 30.8244 9.21024C30.6579 9.04375 30.432 8.96051 30.1287 8.96051C29.9028 8.96051 29.6947 9.01402 29.4985 9.12699C29.3022 9.23997 29.1595 9.39457 29.0763 9.58484C28.9931 9.77511 28.9514 10.0427 28.9514 10.3816V12.7422H28.1963V12.7362Z" fill="white"/>
<path d="M33.3989 7.62265V6.77832H34.1541V7.62265H33.3989ZM33.3989 12.7422V8.42537H34.1541V12.7422H33.3989Z" fill="white"/>
<path d="M37.3768 12.0822L37.4839 12.7303C37.2698 12.7719 37.0795 12.7957 36.913 12.7957C36.6395 12.7957 36.4255 12.7541 36.2768 12.6709C36.1282 12.5876 36.0211 12.4746 35.9557 12.3379C35.8963 12.2011 35.8606 11.9157 35.8606 11.4757V8.99028H35.3076V8.41947H35.8606V7.34918L36.6098 6.90918V8.41947H37.3709V8.99028H36.6098V11.5173C36.6098 11.7254 36.6217 11.8622 36.6514 11.9217C36.6752 11.9811 36.7228 12.0287 36.7822 12.0644C36.8417 12.1 36.9309 12.1179 37.0379 12.1179C37.1212 12.1179 37.2341 12.106 37.3709 12.0882L37.3768 12.0822Z" fill="white"/>
<path d="M41.5924 11.3508L42.3714 11.4459C42.2465 11.8859 42.0205 12.2308 41.6876 12.4746C41.3546 12.7184 40.9324 12.8433 40.4151 12.8433C39.767 12.8433 39.2497 12.647 38.8692 12.2605C38.4886 11.8741 38.2983 11.327 38.2983 10.6254C38.2983 9.92377 38.4886 9.33511 38.8751 8.93673C39.2616 8.53835 39.7611 8.33618 40.3735 8.33618C40.9859 8.33618 41.4557 8.5324 41.8303 8.92484C42.2049 9.31727 42.3951 9.87025 42.3951 10.5838C42.3951 10.6254 42.3951 10.6908 42.3951 10.78H39.0773C39.107 11.2557 39.2438 11.6184 39.4935 11.8681C39.7432 12.1178 40.0524 12.2487 40.4211 12.2487C40.6946 12.2487 40.9324 12.1773 41.1286 12.0346C41.3249 11.8919 41.4795 11.6659 41.5924 11.3627V11.3508ZM39.1129 10.1676H41.5984C41.5627 9.80485 41.4676 9.53133 41.313 9.35295C41.0751 9.07349 40.76 8.93078 40.3794 8.93078C40.0346 8.93078 39.7432 9.04376 39.5054 9.26971C39.2675 9.49565 39.1367 9.79295 39.1129 10.1735V10.1676Z" fill="white"/>
</g>
<defs>
<clipPath id="clip0_17_269">
<rect width="50" height="50" fill="white"/>
</clipPath>
</defs>
</svg>
