<svg width="511" height="478" viewBox="0 0 511 478" fill="none" xmlns="http://www.w3.org/2000/svg">
<path d="M79.9656 434.958H78.4951V345.758C78.4951 339.817 83.333 334.979 89.2738 334.979H98.6556V336.45H89.2738C84.1418 336.45 79.9656 340.626 79.9656 345.758V434.958Z" fill="#9D9D9D"/>
<path d="M184.121 434.958H182.651V345.758C182.651 340.626 178.474 336.45 173.342 336.45H165.578V334.979H173.342C179.283 334.979 184.121 339.817 184.121 345.758V434.958Z" fill="#9D9D9D"/>
<path d="M118.507 322.274V323.789C118.507 324.407 118.316 324.612 117.669 324.612H115.169V327.024C115.169 327.642 114.949 327.833 114.316 327.833H112.758C112.125 327.833 111.905 327.642 111.905 327.024V324.612H109.434C108.802 324.612 108.596 324.407 108.596 323.789V322.274C108.596 321.657 108.787 321.451 109.434 321.451H111.905V319.054C111.905 318.436 112.125 318.245 112.758 318.245H114.316C114.949 318.245 115.169 318.436 115.169 319.054V321.451H117.669C118.301 321.451 118.507 321.657 118.507 322.274Z" fill="black"/>
<path d="M125.537 316.51V328.524C125.537 329.112 125.346 329.333 124.699 329.333H122.464C121.831 329.333 121.611 329.127 121.611 328.524V320.524L120.287 321.26C119.64 321.598 119.302 321.465 119.008 320.936L118.081 319.304C117.787 318.76 117.949 318.51 118.478 318.186L122.331 316.039C122.787 315.775 123.008 315.716 123.522 315.716H124.713C125.346 315.716 125.552 315.922 125.552 316.525L125.537 316.51Z" fill="black"/>
<path d="M132.139 315.407C135.639 315.407 137.506 316.804 137.506 319.26C137.506 320.642 136.771 321.524 136.095 322.083C137.168 322.701 137.962 323.657 137.962 325.318C137.962 327.833 136.3 329.597 132.139 329.597C127.977 329.597 126.345 328.039 126.345 325.686C126.345 324.098 127.375 323.054 128.301 322.495C127.404 321.907 126.816 320.936 126.816 319.495C126.816 316.892 128.86 315.392 132.139 315.392V315.407ZM131.242 323.848C130.771 324.156 130.257 324.583 130.257 325.318C130.257 326.053 130.816 326.465 132.124 326.465C133.433 326.465 133.889 326.009 133.889 325.348C133.889 324.451 133.021 324.333 131.257 323.833L131.242 323.848ZM132.154 318.569C131.198 318.569 130.771 318.951 130.771 319.583C130.771 320.274 131.286 320.539 132.183 320.789L132.771 320.936C133.227 320.642 133.624 320.23 133.624 319.569C133.624 318.907 133.154 318.554 132.154 318.554V318.569Z" fill="black"/>
<path d="M144.168 315.407C146.462 315.407 147.697 316.554 147.697 318.407V319.863C147.697 321.686 146.476 322.819 144.168 322.819C141.859 322.819 140.639 321.686 140.639 319.863V318.407C140.639 316.569 141.859 315.407 144.168 315.407ZM155.652 316.466L146.477 328.613C146.006 329.23 145.829 329.318 144.83 329.318H143.036C142.447 329.318 142.3 328.936 142.624 328.51L151.829 316.363C152.27 315.775 152.461 315.687 153.373 315.687H155.27C155.829 315.687 155.961 316.054 155.667 316.452L155.652 316.466ZM144.168 317.893C143.594 317.893 143.315 318.143 143.315 318.584V319.657C143.315 320.113 143.594 320.363 144.168 320.363C144.741 320.363 145.006 320.113 145.006 319.657V318.584C145.006 318.143 144.727 317.893 144.168 317.893ZM154.005 322.186C156.299 322.186 157.535 323.333 157.535 325.201V326.642C157.535 328.48 156.314 329.612 154.005 329.612C151.697 329.612 150.476 328.48 150.476 326.642V325.201C150.476 323.333 151.697 322.186 154.005 322.186ZM154.02 324.686C153.447 324.686 153.167 324.922 153.167 325.377V326.451C153.167 326.892 153.447 327.142 154.02 327.142C154.594 327.142 154.858 326.892 154.858 326.451V325.377C154.858 324.922 154.579 324.686 154.02 324.686Z" fill="black"/>
<path d="M127.536 339.067C127.536 341.655 125.86 343.214 123.169 343.214H118.493V348.258C118.493 348.449 118.434 348.508 118.257 348.508H117.846C117.655 348.508 117.581 348.449 117.581 348.258V335.141C117.581 334.95 117.64 334.891 117.846 334.891H123.169C125.845 334.891 127.536 336.45 127.536 339.067ZM126.58 339.067C126.58 336.965 125.228 335.715 123.081 335.715H118.493V342.391H123.081C125.242 342.391 126.58 341.17 126.58 339.067Z" fill="black"/>
<path d="M137.417 335.141V335.479C137.417 335.656 137.359 335.715 137.153 335.715H129.727V341.2H136.3C136.476 341.2 136.535 341.259 136.535 341.435V341.788C136.535 341.979 136.476 342.038 136.3 342.038H129.727V347.699H137.432C137.609 347.699 137.682 347.758 137.682 347.935V348.273C137.682 348.464 137.609 348.523 137.432 348.523H129.08C128.889 348.523 128.815 348.464 128.815 348.273V335.156C128.815 334.965 128.874 334.906 129.08 334.906H137.153C137.344 334.906 137.417 334.965 137.417 335.156V335.141Z" fill="black"/>
<path d="M149.065 338.729C149.065 340.935 147.712 342.259 145.58 342.435C146.33 342.744 146.771 343.229 147.197 344.008L149.418 348.273C149.521 348.405 149.477 348.523 149.285 348.523H148.903C148.58 348.523 148.491 348.479 148.403 348.317L146.344 344.361C145.697 343.097 144.933 342.538 143.271 342.538H140.006V348.273C140.006 348.464 139.948 348.523 139.771 348.523H139.359C139.168 348.523 139.095 348.464 139.095 348.273V335.156C139.095 334.965 139.154 334.906 139.359 334.906H145.036C147.535 334.906 149.05 336.303 149.05 338.744L149.065 338.729ZM144.947 335.715H140.021V341.7H144.947C146.933 341.7 148.109 340.641 148.109 338.729C148.109 336.818 146.962 335.715 144.947 335.715Z" fill="black"/>
<path d="M120.61 367.698H120.257C119.963 367.698 119.86 367.654 119.816 367.492L118.052 363.257H111.479L109.743 367.492C109.685 367.669 109.582 367.698 109.287 367.698H108.949C108.758 367.698 108.714 367.595 108.773 367.463L114.258 354.199C114.331 354.023 114.419 353.964 114.596 353.964H114.993C115.169 353.964 115.272 354.023 115.331 354.199L120.816 367.463C120.875 367.595 120.831 367.698 120.625 367.698H120.61ZM114.787 354.861H114.728C114.728 354.949 114.714 355.302 114.567 355.684L111.758 362.493H117.787L114.978 355.684C114.846 355.302 114.802 354.949 114.787 354.861Z" fill="black"/>
<path d="M132.051 354.331V367.448C132.051 367.639 131.992 367.698 131.816 367.698H131.404C131.272 367.698 131.213 367.683 131.125 367.551L124.096 357.846C123.449 356.949 122.905 355.904 122.493 355.346H122.449C122.449 356.081 122.566 357.301 122.566 358.507V367.448C122.566 367.639 122.508 367.698 122.331 367.698H121.934C121.743 367.698 121.669 367.639 121.669 367.448V354.331C121.669 354.14 121.728 354.081 121.934 354.081H122.331C122.493 354.081 122.566 354.155 122.611 354.213L129.434 363.669C130.169 364.683 130.787 365.757 131.257 366.419H131.301C131.301 365.58 131.169 364.286 131.169 362.963V354.316C131.169 354.14 131.228 354.081 131.434 354.081H131.831C132.007 354.081 132.066 354.14 132.066 354.331H132.051Z" fill="black"/>
<path d="M139.403 367.168C142.286 367.168 143.697 365.58 143.697 363.095V354.331C143.697 354.14 143.756 354.081 143.933 354.081H144.374C144.55 354.081 144.609 354.14 144.609 354.331V363.095C144.609 366.066 142.888 367.992 139.403 367.992C135.918 367.992 134.183 366.08 134.183 363.095V354.331C134.183 354.14 134.242 354.081 134.448 354.081H134.86C135.036 354.081 135.095 354.14 135.095 354.331V363.095C135.095 365.566 136.506 367.168 139.403 367.168Z" fill="black"/>
<path d="M159.225 354.331V367.448C159.225 367.639 159.167 367.698 158.99 367.698H158.593C158.417 367.698 158.358 367.639 158.358 367.448V358.64C158.358 357.64 158.402 356.566 158.49 355.434H158.446C157.946 356.434 157.49 357.272 156.961 358.184L153.432 364.242C153.358 364.389 153.27 364.433 153.108 364.433H152.844C152.667 364.433 152.579 364.419 152.505 364.242L148.917 358.11C148.403 357.243 147.961 356.419 147.491 355.449H147.447C147.52 356.581 147.564 357.61 147.564 358.654V367.463C147.564 367.654 147.506 367.713 147.3 367.713H146.947C146.756 367.713 146.682 367.654 146.682 367.463V354.346C146.682 354.155 146.741 354.096 146.947 354.096H147.27C147.491 354.096 147.55 354.155 147.653 354.302L152.961 363.375L158.225 354.316C158.328 354.14 158.387 354.081 158.578 354.081H158.961C159.137 354.081 159.196 354.14 159.196 354.331H159.225Z" fill="black"/>
<path d="M397.74 347.199H396.269V30.7919C396.269 25.6599 392.093 21.4837 386.961 21.4837H341.567V20.0132H386.961C392.902 20.0132 397.74 24.8511 397.74 30.7919V347.199Z" fill="#9D9D9D"/>
<path d="M189.003 423.518H187.532V30.7919C187.532 24.8511 192.37 20.0132 198.311 20.0132H234.103V21.4837H198.311C193.179 21.4837 189.003 25.6599 189.003 30.7919V423.532V423.518Z" fill="#9D9D9D"/>
<path d="M275.056 13.7047V15.2193C275.056 15.8369 274.865 16.0428 274.218 16.0428H271.718V18.4544C271.718 19.072 271.498 19.2632 270.865 19.2632H269.307C268.674 19.2632 268.454 19.072 268.454 18.4544V16.0428H265.983C265.351 16.0428 265.145 15.8369 265.145 15.2193V13.7047C265.145 13.0871 265.336 12.8812 265.983 12.8812H268.454V10.4843C268.454 9.8667 268.674 9.67554 269.307 9.67554H270.865C271.498 9.67554 271.718 9.8667 271.718 10.4843V12.8812H274.218C274.85 12.8812 275.056 13.0871 275.056 13.7047Z" fill="black"/>
<path d="M280.777 6.83765C284.1 6.83765 285.997 8.83752 285.997 11.2933C285.997 14.2637 284.526 15.3665 281.527 16.3959C280.453 16.7488 279.189 16.9106 279.189 17.3958V17.5135H284.865C285.497 17.5135 285.718 17.7193 285.718 18.3369V19.9545C285.718 20.5427 285.497 20.7633 284.865 20.7633H275.953C275.321 20.7633 275.101 20.5574 275.101 19.9545V18.4252C275.101 15.8224 277.1 14.9107 278.939 14.146C280.527 13.499 281.983 12.9402 281.983 11.4844C281.983 10.7492 281.482 10.2198 280.63 10.2198C279.777 10.2198 279.35 10.5874 278.909 11.4844C278.63 12.0726 278.439 12.1903 277.836 11.9991L275.733 11.2491C275.159 11.0433 274.983 10.7639 275.218 10.2051C276.027 8.20521 277.689 6.85235 280.733 6.85235L280.777 6.83765Z" fill="black"/>
<path d="M292.35 12.0874C296.144 12.0874 297.864 13.5285 297.864 16.5136C297.864 19.4987 295.703 21.028 292.129 21.028C288.365 21.028 286.395 19.1752 286.395 15.8666V11.9844C286.395 8.69053 288.394 6.823 292.129 6.823C295.056 6.823 296.82 7.80823 297.644 9.88163C297.864 10.4551 297.703 10.7051 297.114 10.911L295.232 11.6168C294.644 11.8227 294.468 11.6315 294.144 11.0727C293.82 10.4551 293.247 10.1757 292.188 10.1757C290.88 10.1757 290.291 10.7198 290.291 11.955V12.2197C290.791 12.1168 291.438 12.0727 292.35 12.0727V12.0874ZM292.129 17.7929C293.512 17.7929 293.968 17.3371 293.968 16.543C293.968 15.7489 293.512 15.3372 292.129 15.3372C291.218 15.3372 290.63 15.4548 290.291 15.5725V16.3077C290.291 17.2488 290.791 17.8076 292.129 17.8076V17.7929Z" fill="black"/>
<path d="M301.525 6.83765C303.819 6.83765 305.055 7.98463 305.055 9.83746V11.2933C305.055 13.1167 303.834 14.249 301.525 14.249C299.217 14.249 297.996 13.1167 297.996 11.2933V9.83746C297.996 7.99934 299.217 6.83765 301.525 6.83765ZM313.01 7.89641L303.834 20.0427C303.363 20.6603 303.187 20.7486 302.187 20.7486H300.393C299.805 20.7486 299.658 20.3662 299.981 19.9398L309.187 7.79347C309.628 7.20527 309.819 7.11704 310.731 7.11704H312.628C313.186 7.11704 313.319 7.48467 313.025 7.8817L313.01 7.89641ZM301.525 9.32279C300.952 9.32279 300.672 9.57277 300.672 10.0139V11.0874C300.672 11.5432 300.952 11.7932 301.525 11.7932C302.099 11.7932 302.364 11.5432 302.364 11.0874V10.0139C302.364 9.57277 302.084 9.32279 301.525 9.32279ZM311.363 13.6166C313.657 13.6166 314.892 14.7636 314.892 16.6312V18.0722C314.892 19.9104 313.672 21.0427 311.363 21.0427C309.054 21.0427 307.834 19.9104 307.834 18.0722V16.6312C307.834 14.7636 309.054 13.6166 311.363 13.6166ZM311.378 16.1165C310.804 16.1165 310.525 16.3518 310.525 16.8076V17.8811C310.525 18.3222 310.804 18.5722 311.378 18.5722C311.951 18.5722 312.216 18.3222 312.216 17.8811V16.8076C312.216 16.3518 311.936 16.1165 311.378 16.1165Z" fill="black"/>
<path d="M257.19 30.498C257.19 33.0861 255.514 34.6448 252.823 34.6448H248.147V39.6886C248.147 39.8798 248.088 39.9386 247.911 39.9386H247.5C247.308 39.9386 247.235 39.8798 247.235 39.6886V26.5718C247.235 26.3806 247.294 26.3218 247.5 26.3218H252.823C255.499 26.3218 257.19 27.8805 257.19 30.498ZM256.234 30.498C256.234 28.3952 254.881 27.1453 252.735 27.1453H248.147V33.8213H252.735C254.896 33.8213 256.234 32.6008 256.234 30.498Z" fill="black"/>
<path d="M267.072 26.5571V26.8953C267.072 27.0717 267.013 27.1305 266.807 27.1305H259.381V32.6155H265.955C266.131 32.6155 266.19 32.6743 266.19 32.8508V33.2037C266.19 33.3949 266.131 33.4537 265.955 33.4537H259.381V39.1151H267.087C267.263 39.1151 267.337 39.1739 267.337 39.3504V39.6886C267.337 39.8798 267.263 39.9386 267.087 39.9386H258.734C258.543 39.9386 258.47 39.8798 258.47 39.6886V26.5718C258.47 26.3806 258.529 26.3218 258.734 26.3218H266.807C266.999 26.3218 267.072 26.3806 267.072 26.5718V26.5571Z" fill="black"/>
<path d="M278.718 30.1451C278.718 32.3508 277.366 33.6743 275.233 33.8507C275.983 34.1595 276.425 34.6448 276.851 35.4242L279.071 39.6886C279.174 39.8209 279.13 39.9386 278.939 39.9386H278.557C278.233 39.9386 278.145 39.8945 278.057 39.7327L275.998 35.7771C275.351 34.5124 274.586 33.9537 272.925 33.9537H269.66V39.6886C269.66 39.8798 269.601 39.9386 269.425 39.9386H269.013C268.822 39.9386 268.749 39.8798 268.749 39.6886V26.5718C268.749 26.3806 268.807 26.3218 269.013 26.3218H274.689C277.189 26.3218 278.704 27.7188 278.704 30.1598L278.718 30.1451ZM274.601 27.1305H269.675V33.1155H274.601C276.586 33.1155 277.763 32.0567 277.763 30.1451C277.763 28.2334 276.616 27.1305 274.601 27.1305Z" fill="black"/>
<path d="M294.158 39.9385H293.805C293.511 39.9385 293.408 39.8944 293.364 39.7327L291.599 35.4976H285.026L283.291 39.7327C283.232 39.9091 283.129 39.9385 282.835 39.9385H282.497C282.306 39.9385 282.262 39.8356 282.321 39.7033L287.806 26.4394C287.879 26.2629 287.967 26.2041 288.144 26.2041H288.541C288.717 26.2041 288.82 26.2629 288.879 26.4394L294.364 39.7033C294.423 39.8356 294.379 39.9385 294.173 39.9385H294.158ZM288.335 27.1011H288.276C288.276 27.1893 288.261 27.5423 288.114 27.9246L285.306 34.733H291.335L288.526 27.9246C288.394 27.5423 288.35 27.1893 288.335 27.1011Z" fill="black"/>
<path d="M305.599 26.5571V39.674C305.599 39.8651 305.54 39.9239 305.364 39.9239H304.952C304.82 39.9239 304.761 39.9092 304.673 39.7769L297.644 30.0716C296.997 29.1746 296.452 28.1305 296.041 27.5718H295.997C295.997 28.307 296.114 29.5275 296.114 30.7333V39.674C296.114 39.8651 296.055 39.9239 295.879 39.9239H295.482C295.291 39.9239 295.217 39.8651 295.217 39.674V26.5571C295.217 26.3659 295.276 26.3071 295.482 26.3071H295.879C296.041 26.3071 296.114 26.3807 296.158 26.4395L302.981 35.8948C303.717 36.9094 304.334 37.9829 304.805 38.6446H304.849C304.849 37.8064 304.717 36.5124 304.717 35.1889V26.5424C304.717 26.3659 304.775 26.3071 304.981 26.3071H305.378C305.555 26.3071 305.614 26.3659 305.614 26.5571H305.599Z" fill="black"/>
<path d="M312.952 39.3946C315.834 39.3946 317.246 37.8064 317.246 35.3213V26.5571C317.246 26.3659 317.304 26.3071 317.481 26.3071H317.922C318.098 26.3071 318.157 26.3659 318.157 26.5571V35.3213C318.157 38.2917 316.437 40.218 312.952 40.218C309.467 40.218 307.731 38.3064 307.731 35.3213V26.5571C307.731 26.3659 307.79 26.3071 307.996 26.3071H308.408C308.584 26.3071 308.643 26.3659 308.643 26.5571V35.3213C308.643 37.7917 310.055 39.3946 312.952 39.3946Z" fill="black"/>
<path d="M332.774 26.5571V39.674C332.774 39.8651 332.715 39.9239 332.539 39.9239H332.141C331.965 39.9239 331.906 39.8651 331.906 39.674V30.8657C331.906 29.8657 331.95 28.7923 332.039 27.66H331.994C331.494 28.6599 331.039 29.4981 330.509 30.4098L326.98 36.4683C326.906 36.6153 326.818 36.6594 326.657 36.6594H326.392C326.215 36.6594 326.127 36.6447 326.054 36.4683L322.466 30.3363C321.951 29.4687 321.51 28.6452 321.039 27.6747H320.995C321.069 28.807 321.113 29.8363 321.113 30.8804V39.6887C321.113 39.8798 321.054 39.9386 320.848 39.9386H320.495C320.304 39.9386 320.23 39.8798 320.23 39.6887V26.5718C320.23 26.3807 320.289 26.3218 320.495 26.3218H320.819C321.039 26.3218 321.098 26.3807 321.201 26.5277L326.509 35.6007L331.774 26.5424C331.877 26.3659 331.936 26.3071 332.127 26.3071H332.509C332.686 26.3071 332.744 26.3659 332.744 26.5571H332.774Z" fill="black"/>
<path d="M352.891 73.3482C352.891 52.8788 369.301 35.9681 389.756 35.8505C410.299 35.7328 427.063 52.4083 427.063 72.9364V408.313C427.063 428.782 410.652 445.693 390.197 445.81C369.654 445.928 352.891 429.253 352.891 408.725V73.3482Z" fill="#C55828"/>
<path d="M352.891 86.2153C352.891 65.746 369.301 48.8353 389.756 48.7177C410.299 48.6 427.063 65.2755 427.063 85.8036V408.328C427.063 428.797 410.652 445.708 390.197 445.826C369.654 445.943 352.891 429.268 352.891 408.74V86.2153Z" fill="#BC9E30"/>
<path d="M352.891 446.222V100.376C352.891 79.9067 369.301 62.9959 389.756 62.8783C410.299 62.7607 427.063 79.4361 427.063 99.9642V445.825" fill="black"/>
<path d="M249.985 339.788C249.985 319.319 266.396 302.408 286.851 302.29C307.394 302.173 324.157 318.848 324.157 339.376V408.328C324.157 428.797 307.746 445.708 287.292 445.825C266.749 445.943 249.985 429.268 249.985 408.739V339.788Z" fill="#C55828"/>
<path d="M249.985 352.655C249.985 332.185 266.396 315.275 286.851 315.157C307.394 315.039 324.157 331.715 324.157 352.243V408.328C324.157 428.797 307.746 445.708 287.292 445.826C266.749 445.943 249.985 429.268 249.985 408.74V352.655Z" fill="#BC9E30"/>
<path d="M249.985 446.222V366.801C249.985 346.331 266.396 329.421 286.851 329.303C307.394 329.185 324.157 345.861 324.157 366.389V445.81" fill="black"/>
<mask id="mask0_46_461" style="mask-type:luminance" maskUnits="userSpaceOnUse" x="139" y="401" width="83" height="45">
<path d="M221.134 401.225H139.874V445.811H221.134V401.225Z" fill="white"/>
</mask>
<g mask="url(#mask0_46_461)">
<path d="M143.417 441.046C143.417 420.577 159.828 403.666 180.283 403.548C200.826 403.431 217.589 420.106 217.589 440.634V509.586C217.589 530.055 201.179 546.966 180.724 547.083C160.181 547.201 143.417 530.526 143.417 509.998V441.046Z" fill="#C55828"/>
<path d="M143.417 453.913C143.417 433.444 159.828 416.533 180.283 416.415C200.826 416.298 217.589 432.973 217.589 453.501V509.586C217.589 530.055 201.179 546.966 180.724 547.084C160.181 547.201 143.417 530.526 143.417 509.998V453.913Z" fill="#BC9E30"/>
<path d="M143.417 468.074C143.417 447.604 159.828 430.693 180.283 430.576C200.826 430.458 217.589 447.134 217.589 467.662V509.586C217.589 530.055 201.179 546.966 180.724 547.083C160.181 547.201 143.417 530.525 143.417 509.997V465.794V468.074Z" fill="black"/>
</g>
<mask id="mask1_46_461" style="mask-type:luminance" maskUnits="userSpaceOnUse" x="38" y="420" width="82" height="26">
<path d="M119.861 420.415H38.6011V445.811H119.861V420.415Z" fill="white"/>
</mask>
<g mask="url(#mask1_46_461)">
<path d="M42.1455 460.648C42.1455 440.179 58.5562 423.268 79.0108 423.15C99.5537 423.033 116.317 439.708 116.317 460.236V529.188C116.317 549.657 99.9066 566.568 79.452 566.686C58.9092 566.803 42.1455 550.128 42.1455 529.6V451.501V460.648Z" fill="#C55828"/>
<path d="M42.1455 467.089C42.1455 446.62 58.5562 429.709 79.0108 429.591C99.5537 429.474 116.317 446.149 116.317 466.677V522.762C116.317 543.232 99.9066 560.142 79.452 560.26C58.9092 560.378 42.1455 543.702 42.1455 523.174V465.427V467.089Z" fill="#BC9E30"/>
<path d="M42.1455 471.721C42.1455 451.252 58.5562 434.341 79.0108 434.224C99.5537 434.106 116.317 450.781 116.317 471.309V513.233C116.317 533.703 99.9066 550.613 79.452 550.731C58.9092 550.849 42.1455 534.173 42.1455 513.645V468.81V471.721Z" fill="black"/>
</g>
<path d="M8.44015 430.621C13.1605 430.621 15.8661 433.15 15.8661 437.15V445.326C15.8661 449.355 13.1605 451.855 8.44015 451.855C3.71986 451.855 1.01416 449.355 1.01416 445.326V437.15C1.01416 433.15 3.71986 430.621 8.44015 430.621ZM8.44015 431.856C4.55804 431.856 2.38171 433.87 2.38171 437.15V445.326C2.38171 448.634 4.54334 450.619 8.44015 450.619C12.337 450.619 14.4986 448.634 14.4986 445.326V437.15C14.4986 433.87 12.337 431.856 8.44015 431.856Z" fill="#545454"/>
<path d="M35.659 443.576V444.061C35.659 444.326 35.5707 444.414 35.306 444.414H27.2036C26.9095 444.414 26.8213 444.326 26.8213 444.061V443.576C26.8213 443.311 26.9095 443.238 27.2036 443.238H35.306C35.5707 443.238 35.659 443.326 35.659 443.576Z" fill="#545454"/>
<path d="M9.66087 323.716V343.406C9.66087 343.7 9.57265 343.773 9.30797 343.773H8.69038C8.39628 343.773 8.30804 343.685 8.30804 343.406V324.951L0.970269 328.892C0.734989 329.039 0.587916 329.009 0.440867 328.745L0.146749 328.259C-0.000300549 328.054 0.0879383 327.906 0.293808 327.804L8.27864 323.48C8.4551 323.363 8.54331 323.333 8.808 323.333H9.30797C9.57265 323.333 9.66087 323.421 9.66087 323.701V323.716Z" fill="#545454"/>
<path d="M30.41 335.891V336.377C30.41 336.641 30.3218 336.73 30.0571 336.73H21.9546C21.6605 336.73 21.5723 336.641 21.5723 336.377V335.891C21.5723 335.627 21.6605 335.553 21.9546 335.553H30.0571C30.3218 335.553 30.41 335.641 30.41 335.891Z" fill="#545454"/>
<path d="M8.44055 215.266C12.3815 215.266 14.999 218.001 14.999 221.28C14.999 225.707 11.7345 227.015 7.48474 228.618C4.80843 229.603 2.20566 230.574 2.20566 233.427V234.868H14.5284C14.8225 234.868 14.9107 234.956 14.9107 235.221V235.735C14.9107 236.03 14.8225 236.103 14.5284 236.103H1.17629C0.911599 236.103 0.793945 235.985 0.793945 235.735V233.662C0.793945 229.839 3.88202 228.589 7.11711 227.383C10.3816 226.177 13.5873 225.163 13.5873 221.339C13.5873 218.663 11.5139 216.501 8.42583 216.501C5.33779 216.501 3.35264 217.795 2.16154 220.383C2.0439 220.619 1.92625 220.678 1.69097 220.589L1.10278 220.383C0.838093 220.266 0.779267 220.178 0.867497 219.928C2.23506 216.869 4.51431 215.266 8.46994 215.266H8.44055Z" fill="#545454"/>
<path d="M34.5715 228.221V228.706C34.5715 228.971 34.4833 229.059 34.2186 229.059H26.1162C25.8221 229.059 25.7339 228.971 25.7339 228.706V228.221C25.7339 227.956 25.8221 227.883 26.1162 227.883H34.2186C34.4833 227.883 34.5715 227.971 34.5715 228.221Z" fill="#545454"/>
<path d="M11.8084 117.86C14.1464 118.551 15.2787 120.419 15.2787 122.875C15.2787 126.507 13.1171 128.83 8.27917 128.83C3.44123 128.83 1.72074 126.992 0.735508 123.698C0.647278 123.433 0.706103 123.331 0.970793 123.242L1.52954 123.036C1.79423 122.948 1.91188 123.007 2.00011 123.272C2.89712 126.124 4.33822 127.595 8.26445 127.595C12.1907 127.595 13.8818 125.816 13.8818 122.875C13.8818 120.257 12.3671 118.551 9.48494 118.551H4.52937C4.26468 118.551 4.17647 118.463 4.17647 118.198V117.713C4.17647 117.419 4.26468 117.346 4.52937 117.346H9.33788C12.1024 117.346 13.323 115.449 13.323 113.346C13.323 110.434 11.6319 108.831 8.27917 108.831C4.57351 108.831 3.08829 110.155 2.19129 113.037C2.10306 113.302 1.98541 113.331 1.72072 113.243L1.16192 113.066C0.89723 112.978 0.83845 112.861 0.92668 112.581C1.91191 109.331 3.86767 107.596 8.32328 107.596C12.5436 107.596 14.6758 109.699 14.6758 113.272C14.6758 115.257 13.8376 117.125 11.823 117.875L11.8084 117.86Z" fill="#545454"/>
<path d="M34.7781 120.537V121.022C34.7781 121.287 34.6899 121.375 34.4252 121.375H26.3228C26.0287 121.375 25.9404 121.287 25.9404 121.022V120.537C25.9404 120.272 26.0287 120.199 26.3228 120.199H34.4252C34.6899 120.199 34.7781 120.287 34.7781 120.537Z" fill="#545454"/>
<path d="M16.1314 13.955V14.4109C16.1314 14.705 16.0431 14.7785 15.7784 14.7785H12.661V20.3664C12.661 20.6605 12.5727 20.734 12.2786 20.734H11.7493C11.4552 20.734 11.3669 20.6458 11.3669 20.3664V14.7785H0.382299C0.0881993 14.7785 0 14.6903 0 14.4109V14.0433C0 13.808 0.0293902 13.7344 0.11762 13.5874L11.1316 0.26469C11.3081 0.0588199 11.3963 0 11.661 0H12.2786C12.5727 0 12.661 0.0882299 12.661 0.397034V13.5874H15.7784C16.0431 13.5874 16.1314 13.6756 16.1314 13.955ZM11.3522 1.86753L1.64695 13.5874H11.3522V1.85283V1.86753Z" fill="#545454"/>
<path d="M35.0125 12.8521V13.3374C35.0125 13.6021 34.9242 13.6903 34.6596 13.6903H26.5571C26.263 13.6903 26.1748 13.6021 26.1748 13.3374V12.8521C26.1748 12.5874 26.263 12.5139 26.5571 12.5139H34.6596C34.9242 12.5139 35.0125 12.6021 35.0125 12.8521Z" fill="#545454"/>
<path d="M56.4525 463.795C59.7758 463.795 61.6728 465.795 61.6728 468.251C61.6728 471.221 60.2022 472.324 57.2024 473.353C56.129 473.706 54.8643 473.868 54.8643 474.353V474.471H60.5404C61.1728 474.471 61.3934 474.677 61.3934 475.294V476.912C61.3934 477.5 61.1728 477.721 60.5404 477.721H51.6292C50.9969 477.721 50.7764 477.515 50.7764 476.912V475.382C50.7764 472.78 52.7762 471.868 54.6143 471.103C56.2025 470.456 57.6583 469.897 57.6583 468.442C57.6583 467.706 57.1583 467.177 56.3054 467.177C55.4525 467.177 55.0261 467.545 54.585 468.442C54.3056 469.03 54.1144 469.148 53.5115 468.956L51.4087 468.206C50.8352 468.001 50.6587 467.721 50.894 467.162C51.7028 465.162 53.3644 463.81 56.4084 463.81L56.4525 463.795Z" fill="#545454"/>
<path d="M68.7019 463.795C72.2899 463.795 74.3486 465.736 74.3486 468.78V472.986C74.3486 476.074 72.2899 477.985 68.7019 477.985C65.1139 477.985 63.0552 476.074 63.0552 472.986V468.78C63.0552 465.736 65.1139 463.795 68.7019 463.795ZM68.7019 467.148C67.6284 467.148 66.9814 467.692 66.9814 468.618V473.133C66.9814 474.088 67.6284 474.632 68.7019 474.632C69.7753 474.632 70.4223 474.088 70.4223 473.133V468.618C70.4223 467.677 69.7753 467.148 68.7019 467.148Z" fill="#545454"/>
<path d="M82.7888 464.898V476.912C82.7888 477.5 82.5977 477.721 81.9506 477.721H79.7155C79.0832 477.721 78.8626 477.515 78.8626 476.912V468.913L77.5391 469.648C76.8921 469.986 76.5539 469.854 76.2598 469.324L75.3334 467.692C75.0393 467.148 75.2011 466.898 75.7305 466.574L79.5832 464.428C80.039 464.163 80.2596 464.104 80.7743 464.104H81.9654C82.5977 464.104 82.8035 464.31 82.8035 464.913L82.7888 464.898Z" fill="#545454"/>
<path d="M94.9945 464.898V466.618C94.9945 467.236 94.774 467.427 94.1417 467.427H89.2302L89.0979 468.765H90.4213C94.0681 468.765 95.6122 470.78 95.6122 473.324C95.6122 475.868 93.6711 477.985 90.2449 477.985C87.0539 477.985 85.3187 476.97 84.4805 474.824C84.2599 474.25 84.4217 474 84.9952 473.794L87.1127 473.03C87.6421 472.838 87.9068 472.912 88.1421 473.515C88.4362 474.206 88.9361 474.588 90.0684 474.588C90.9801 474.588 91.5389 474.132 91.5389 473.177C91.5389 472.309 90.9801 471.868 89.9507 471.868H85.8334C85.1275 471.868 84.907 471.574 84.9658 470.927L85.5834 465.221C85.6863 464.354 85.9804 464.074 86.9068 464.074H94.1564C94.7887 464.074 95.0093 464.28 95.0093 464.898H94.9945Z" fill="#545454"/>
<path d="M159.579 463.795C162.902 463.795 164.799 465.795 164.799 468.251C164.799 471.221 163.328 472.324 160.328 473.353C159.255 473.706 157.99 473.868 157.99 474.353V474.471H163.666C164.299 474.471 164.519 474.677 164.519 475.294V476.912C164.519 477.5 164.299 477.721 163.666 477.721H154.755C154.123 477.721 153.902 477.515 153.902 476.912V475.382C153.902 472.78 155.902 471.868 157.74 471.103C159.329 470.456 160.784 469.897 160.784 468.442C160.784 467.706 160.284 467.177 159.431 467.177C158.579 467.177 158.152 467.545 157.711 468.442C157.432 469.03 157.24 469.148 156.638 468.956L154.535 468.206C153.961 468.001 153.785 467.721 154.02 467.162C154.829 465.162 156.49 463.81 159.534 463.81L159.579 463.795Z" fill="#545454"/>
<path d="M171.828 463.795C175.416 463.795 177.475 465.736 177.475 468.78V472.986C177.475 476.074 175.416 477.985 171.828 477.985C168.24 477.985 166.181 476.074 166.181 472.986V468.78C166.181 465.736 168.24 463.795 171.828 463.795ZM171.828 467.148C170.754 467.148 170.107 467.692 170.107 468.618V473.133C170.107 474.088 170.754 474.632 171.828 474.632C172.901 474.632 173.548 474.088 173.548 473.133V468.618C173.548 467.677 172.901 467.148 171.828 467.148Z" fill="#545454"/>
<path d="M184.533 463.795C187.856 463.795 189.753 465.795 189.753 468.251C189.753 471.221 188.282 472.324 185.283 473.353C184.209 473.706 182.944 473.868 182.944 474.353V474.471H188.621C189.253 474.471 189.473 474.677 189.473 475.294V476.912C189.473 477.5 189.253 477.721 188.621 477.721H179.709C179.077 477.721 178.856 477.515 178.856 476.912V475.382C178.856 472.78 180.856 471.868 182.694 471.103C184.283 470.456 185.738 469.897 185.738 468.442C185.738 467.706 185.238 467.177 184.386 467.177C183.533 467.177 183.106 467.545 182.665 468.442C182.386 469.03 182.194 469.148 181.592 468.956L179.489 468.206C178.915 468.001 178.739 467.721 178.974 467.162C179.783 465.162 181.444 463.81 184.488 463.81L184.533 463.795Z" fill="#545454"/>
<path d="M196.767 463.795C200.355 463.795 202.414 465.736 202.414 468.78V472.986C202.414 476.074 200.355 477.985 196.767 477.985C193.179 477.985 191.121 476.074 191.121 472.986V468.78C191.121 465.736 193.179 463.795 196.767 463.795ZM196.767 467.148C195.694 467.148 195.047 467.692 195.047 468.618V473.133C195.047 474.088 195.694 474.632 196.767 474.632C197.841 474.632 198.488 474.088 198.488 473.133V468.618C198.488 467.677 197.841 467.148 196.767 467.148Z" fill="#545454"/>
<path d="M265.116 463.795C268.439 463.795 270.336 465.795 270.336 468.251C270.336 471.221 268.866 472.324 265.866 473.353C264.793 473.706 263.528 473.868 263.528 474.353V474.471H269.204C269.836 474.471 270.057 474.677 270.057 475.294V476.912C270.057 477.5 269.836 477.721 269.204 477.721H260.293C259.661 477.721 259.44 477.515 259.44 476.912V475.382C259.44 472.78 261.44 471.868 263.278 471.103C264.866 470.456 266.322 469.897 266.322 468.442C266.322 467.706 265.822 467.177 264.969 467.177C264.116 467.177 263.69 467.545 263.249 468.442C262.969 469.03 262.778 469.148 262.175 468.956L260.072 468.206C259.499 468.001 259.322 467.721 259.558 467.162C260.366 465.162 262.028 463.81 265.072 463.81L265.116 463.795Z" fill="#545454"/>
<path d="M277.365 463.795C280.954 463.795 283.012 465.736 283.012 468.78V472.986C283.012 476.074 280.954 477.985 277.365 477.985C273.777 477.985 271.719 476.074 271.719 472.986V468.78C271.719 465.736 273.777 463.795 277.365 463.795ZM277.365 467.148C276.292 467.148 275.645 467.692 275.645 468.618V473.133C275.645 474.088 276.292 474.632 277.365 474.632C278.439 474.632 279.086 474.088 279.086 473.133V468.618C279.086 467.677 278.439 467.148 277.365 467.148Z" fill="#545454"/>
<path d="M290.07 463.795C293.394 463.795 295.29 465.795 295.29 468.251C295.29 471.221 293.82 472.324 290.82 473.353C289.747 473.706 288.482 473.868 288.482 474.353V474.471H294.158C294.79 474.471 295.011 474.677 295.011 475.294V476.912C295.011 477.5 294.79 477.721 294.158 477.721H285.247C284.615 477.721 284.394 477.515 284.394 476.912V475.382C284.394 472.78 286.394 471.868 288.232 471.103C289.82 470.456 291.276 469.897 291.276 468.442C291.276 467.706 290.776 467.177 289.923 467.177C289.07 467.177 288.644 467.545 288.203 468.442C287.923 469.03 287.732 469.148 287.129 468.956L285.026 468.206C284.453 468.001 284.276 467.721 284.512 467.162C285.32 465.162 286.982 463.81 290.026 463.81L290.07 463.795Z" fill="#545454"/>
<path d="M306.908 464.898V466.618C306.908 467.236 306.687 467.427 306.055 467.427H301.143L301.011 468.765H302.334C305.981 468.765 307.525 470.78 307.525 473.324C307.525 475.868 305.584 477.985 302.158 477.985C298.967 477.985 297.232 476.97 296.394 474.824C296.173 474.25 296.335 474 296.908 473.794L299.026 473.03C299.555 472.838 299.82 472.912 300.055 473.515C300.349 474.206 300.849 474.588 301.981 474.588C302.893 474.588 303.452 474.132 303.452 473.177C303.452 472.309 302.893 471.868 301.864 471.868H297.746C297.041 471.868 296.82 471.574 296.879 470.927L297.496 465.221C297.599 464.354 297.893 464.074 298.82 464.074H306.069C306.702 464.074 306.922 464.28 306.922 464.898H306.908Z" fill="#545454"/>
<path d="M371.639 463.795C374.963 463.795 376.86 465.795 376.86 468.251C376.86 471.221 375.389 472.324 372.389 473.353C371.316 473.706 370.051 473.868 370.051 474.353V474.471H375.728C376.36 474.471 376.58 474.677 376.58 475.294V476.912C376.58 477.5 376.36 477.721 375.728 477.721H366.816C366.184 477.721 365.963 477.515 365.963 476.912V475.382C365.963 472.78 367.963 471.868 369.801 471.103C371.389 470.456 372.845 469.897 372.845 468.442C372.845 467.706 372.345 467.177 371.492 467.177C370.64 467.177 370.213 467.545 369.772 468.442C369.493 469.03 369.301 469.148 368.698 468.956L366.596 468.206C366.022 468.001 365.846 467.721 366.081 467.162C366.89 465.162 368.551 463.81 371.595 463.81L371.639 463.795Z" fill="#545454"/>
<path d="M383.889 463.795C387.477 463.795 389.536 465.736 389.536 468.78V472.986C389.536 476.074 387.477 477.985 383.889 477.985C380.301 477.985 378.242 476.074 378.242 472.986V468.78C378.242 465.736 380.301 463.795 383.889 463.795ZM383.889 467.148C382.815 467.148 382.168 467.692 382.168 468.618V473.133C382.168 474.088 382.815 474.632 383.889 474.632C384.962 474.632 385.609 474.088 385.609 473.133V468.618C385.609 467.677 384.962 467.148 383.889 467.148Z" fill="#545454"/>
<path d="M400.109 470.574C401.462 471.265 402.065 472.412 402.065 473.794C402.065 476.441 400.344 478 396.727 478C393.521 478 391.698 476.794 390.889 474.647C390.668 474.088 390.83 473.809 391.418 473.618L393.359 472.941C393.947 472.736 394.197 472.868 394.433 473.456C394.756 474.28 395.33 474.706 396.433 474.706C397.462 474.706 397.977 474.338 397.977 473.574C397.977 472.75 397.521 472.441 396.668 472.441H395.462C394.83 472.441 394.624 472.236 394.624 471.633V470.045C394.624 469.427 394.815 469.221 395.462 469.221H396.33C397.08 469.221 397.683 468.927 397.683 468.162C397.683 467.398 397.241 467.104 396.33 467.104C395.227 467.104 394.83 467.486 394.462 468.353C394.242 468.942 393.992 469.059 393.389 468.868L391.448 468.192C390.859 468.001 390.712 467.706 390.918 467.148C391.756 465.001 393.536 463.795 396.756 463.795C399.977 463.795 401.638 465.368 401.638 467.765C401.638 468.971 401.079 469.927 400.094 470.559L400.109 470.574Z" fill="#545454"/>
<path d="M409.093 463.795C412.681 463.795 414.74 465.736 414.74 468.78V472.986C414.74 476.074 412.681 477.985 409.093 477.985C405.505 477.985 403.446 476.074 403.446 472.986V468.78C403.446 465.736 405.505 463.795 409.093 463.795ZM409.093 467.148C408.02 467.148 407.372 467.692 407.372 468.618V473.133C407.372 474.088 408.02 474.632 409.093 474.632C410.167 474.632 410.813 474.088 410.813 473.133V468.618C410.813 467.677 410.167 467.148 409.093 467.148Z" fill="#545454"/>
<path d="M493.969 187.577H492.499V76.8483C492.499 71.7163 488.323 67.5401 483.191 67.5401H437.796V66.0696H483.191C489.131 66.0696 493.969 70.9075 493.969 76.8483V187.577Z" fill="#9D9D9D"/>
<path d="M483.176 445.928H437.782V444.458H483.176C488.308 444.458 492.484 440.281 492.484 435.149V323.333H493.955V435.149C493.955 441.09 489.117 445.928 483.176 445.928Z" fill="#9D9D9D"/>
<path d="M499.91 285.644C499.91 293.232 497.043 296.658 491.058 296.658C485.073 296.658 482.059 292.349 482.059 285.203C482.059 277.703 485.779 273.748 492.367 273.748H500.102C506.689 273.748 510.41 277.733 510.41 285.203C510.41 291.041 508.454 294.57 504.322 296.217C503.175 296.658 502.675 296.334 502.248 295.158L500.837 291.408C500.41 290.217 500.793 289.864 501.91 289.232C503.131 288.6 503.704 287.453 503.704 285.32C503.704 282.718 502.631 281.527 500.146 281.527H499.616C499.808 282.512 499.925 283.82 499.925 285.629L499.91 285.644ZM488.529 285.217C488.529 287.982 489.44 288.894 491.014 288.894C492.587 288.894 493.426 287.982 493.426 285.217C493.426 283.394 493.19 282.218 492.97 281.541H491.514C489.632 281.541 488.529 282.526 488.529 285.217Z" fill="black"/>
<path d="M484.235 252.234H487.676C488.896 252.234 489.279 252.661 489.279 253.925V263.719L491.955 263.998V261.351C491.955 254.087 495.97 250.999 501.072 250.999C506.175 250.999 510.38 254.866 510.38 261.704C510.38 268.057 508.351 271.542 504.057 273.189C502.91 273.63 502.41 273.306 501.984 272.159L500.455 267.939C500.072 266.866 500.219 266.366 501.41 265.88C502.793 265.292 503.557 264.307 503.557 262.057C503.557 260.234 502.631 259.131 500.719 259.131C498.999 259.131 498.116 260.234 498.116 262.292V270.513C498.116 271.939 497.543 272.365 496.234 272.248L484.853 271.027C483.132 270.836 482.559 270.233 482.559 268.38V253.925C482.559 252.661 482.985 252.234 484.206 252.234H484.235Z" fill="black"/>
<path d="M482.059 238.823C482.059 234.235 484.353 231.794 488.029 231.794H490.94C494.572 231.794 496.837 234.25 496.837 238.823C496.837 243.396 494.572 245.852 490.94 245.852H488.029C484.353 245.852 482.059 243.411 482.059 238.823ZM484.161 215.913L508.41 234.235C509.63 235.176 509.822 235.544 509.822 237.514V241.102C509.822 242.294 509.057 242.558 508.219 241.926L483.97 223.559C482.779 222.692 482.632 222.295 482.632 220.486V216.692C482.632 215.589 483.353 215.31 484.161 215.898V215.913ZM486.999 238.823C486.999 239.97 487.499 240.514 488.382 240.514H490.529C491.44 240.514 491.94 239.955 491.94 238.823C491.94 237.691 491.44 237.162 490.529 237.162H488.382C487.499 237.162 486.999 237.72 486.999 238.823ZM495.572 219.192C495.572 214.604 497.866 212.163 501.587 212.163H504.454C508.13 212.163 510.395 214.619 510.395 219.192C510.395 223.765 508.13 226.221 504.454 226.221H501.587C497.866 226.221 495.572 223.765 495.572 219.192ZM500.557 219.148C500.557 220.295 501.013 220.854 501.94 220.854H504.087C504.969 220.854 505.469 220.295 505.469 219.148C505.469 218.001 504.969 217.486 504.087 217.486H501.94C501.028 217.486 500.557 218.045 500.557 219.148Z" fill="black"/>
</svg>
