<svg width="62" height="74" viewBox="0 0 62 74" fill="none" xmlns="http://www.w3.org/2000/svg">
<path d="M57.941 74H3.97737C1.78522 74 0 72.212 0 70.0163V3.98365C0 1.78804 1.78522 0 3.97737 0H57.941C60.1331 0 61.9184 1.78804 61.9184 3.98365V70.0163C61.9184 72.212 60.1331 74 57.941 74ZM3.97737 2.62947C3.22915 2.62947 2.62533 3.23425 2.62533 3.98365V70.0163C2.62533 70.7657 3.23572 71.3705 3.97737 71.3705H57.941C58.6892 71.3705 59.293 70.7657 59.293 70.0163V3.98365C59.293 3.23425 58.6826 2.62947 57.941 2.62947H3.97737Z" fill="#9D9D9D"/>
<path d="M51.0167 28.7336C50.7148 28.7336 50.4129 28.6284 50.17 28.4246L42.5697 21.9956L34.9694 28.4246C34.5821 28.7533 34.0308 28.8256 33.5714 28.6153C33.1054 28.3983 32.81 27.9316 32.81 27.4254V2.12987H35.4354V24.5856L41.723 19.2675C42.2153 18.8533 42.9307 18.8533 43.4164 19.2675L49.704 24.5856V2.12987H52.3294V27.4188C52.3294 27.9316 52.034 28.3983 51.568 28.6087C51.3908 28.6876 51.2005 28.7336 51.0167 28.7336Z" fill="#9D9D9D"/>
<path d="M51.0167 38.3115H10.9082C10.1863 38.3115 9.59557 37.7198 9.59557 36.9967C9.59557 36.2736 10.1863 35.682 10.9082 35.682H51.0167C51.7387 35.682 52.3294 36.2736 52.3294 36.9967C52.3294 37.7198 51.7387 38.3115 51.0167 38.3115Z" fill="#9D9D9D"/>
<path d="M51.0167 48.3692H10.9082C10.1863 48.3692 9.59557 47.7776 9.59557 47.0545C9.59557 46.3314 10.1863 45.7397 10.9082 45.7397H51.0167C51.7387 45.7397 52.3294 46.3314 52.3294 47.0545C52.3294 47.7776 51.7387 48.3692 51.0167 48.3692Z" fill="#9D9D9D"/>
<path d="M51.0167 58.4269H10.9082C10.1863 58.4269 9.59557 57.8353 9.59557 57.1122C9.59557 56.3891 10.1863 55.7975 10.9082 55.7975H51.0167C51.7387 55.7975 52.3294 56.3891 52.3294 57.1122C52.3294 57.8353 51.7387 58.4269 51.0167 58.4269Z" fill="#9D9D9D"/>
</svg>
