<svg width="63" height="74" viewBox="0 0 63 74" fill="none" xmlns="http://www.w3.org/2000/svg">
<path d="M3.98365 74C1.78804 74 0 72.212 0 70.0163V3.98365C0 1.78804 1.78804 0 3.98365 0H43.2154L52.6158 6.50795L62.0227 13.384V70.0163C62.0227 72.212 60.2347 74 58.0391 74H3.98365ZM3.98365 2.62947C3.23425 2.62947 2.62947 3.24083 2.62947 3.98365V70.0163C2.62947 70.7657 3.24083 71.3705 3.98365 71.3705H58.0325C58.7819 71.3705 59.3867 70.7657 59.3867 70.0163V14.7185L51.0907 8.65097L42.3937 2.62947H3.98365Z" fill="#9D9D9D"/>
<path d="M36.9642 68.419C36.8261 68.419 36.6815 68.3861 36.55 68.3269C36.2016 68.1626 35.9781 67.8142 35.9781 67.4329V51.2288H37.9502V65.3096L41.7498 62.1017C42.1179 61.7927 42.657 61.7927 43.0251 62.1017L46.8247 65.3096V51.2288H48.7968V67.4329C48.7968 67.8142 48.5733 68.1626 48.2249 68.3269C47.8765 68.4913 47.4689 68.4321 47.1731 68.1889L42.3874 64.1461L37.6018 68.1889C37.4177 68.3401 37.1942 68.419 36.9642 68.419Z" fill="#9D9D9D"/>
<path d="M60.7078 16.3751H44.0961C42.216 16.3751 40.737 15.1458 40.737 13.5681V1.31474H43.3664V13.5089C43.4387 13.5878 43.6885 13.739 44.0961 13.739H60.7078V16.3751Z" fill="#9D9D9D"/>
<path d="M42.3873 57.717C41.9468 57.717 41.5656 57.4277 41.4407 57.007L39.4423 50.2295L33.8415 54.5419C33.4931 54.8114 33.0132 54.8114 32.6582 54.5616C32.3032 54.3052 32.1652 53.8451 32.3098 53.4309L34.6763 46.7718L27.6162 46.969C27.1758 47.0018 26.7879 46.706 26.6499 46.2853C26.5118 45.8712 26.6696 45.411 27.0311 45.1678L32.862 41.171L27.0311 37.1808C26.6696 36.931 26.5184 36.4774 26.6499 36.0632C26.7879 35.6491 27.1758 35.3598 27.6162 35.3796L34.6763 35.5768L32.3098 28.9176C32.1652 28.5035 32.3098 28.0433 32.6582 27.787C33.0132 27.5306 33.4931 27.5372 33.8415 27.8067L39.4423 32.119L41.4407 25.3415C41.5656 24.9208 41.9468 24.6316 42.3873 24.6316C42.8277 24.6316 43.209 24.9208 43.3339 25.3415L45.3323 32.119L50.9331 27.8067C51.2815 27.5372 51.7614 27.5306 52.1163 27.787C52.4713 28.0433 52.6094 28.5035 52.4647 28.9176L50.0982 35.5768L57.1584 35.3796C57.5988 35.3401 57.9866 35.6425 58.1247 36.0632C58.2627 36.4774 58.105 36.9375 57.7434 37.1808L51.9126 41.171L57.7434 45.1678C58.105 45.4176 58.2562 45.8712 58.1247 46.2853C57.9932 46.6995 57.5988 46.9953 57.1584 46.969L50.0982 46.7718L52.4647 53.4309C52.6094 53.8451 52.4648 54.3052 52.1163 54.5616C51.7614 54.818 51.2815 54.8114 50.9331 54.5419L45.3323 50.2295L43.3339 57.007C43.209 57.4277 42.8277 57.717 42.3873 57.717ZM39.9813 47.5869C40.0865 47.5869 40.1851 47.6 40.2837 47.6329C40.5927 47.7315 40.8359 47.9813 40.9279 48.2903L42.3873 53.2403L43.8466 48.2903C43.9387 47.9813 44.1753 47.7315 44.4909 47.6329C44.7998 47.5343 45.1417 47.5935 45.398 47.7907L49.4869 50.9395L47.758 46.0815C47.6462 45.7726 47.6988 45.4373 47.8895 45.1744C48.0801 44.9114 48.3825 44.7273 48.7177 44.7668L53.8715 44.9114L49.6183 41.9927C49.3488 41.8086 49.1911 41.5062 49.1911 41.1776C49.1911 40.8489 49.3488 40.5465 49.6183 40.3624L53.8715 37.4503L48.7177 37.5949C48.3891 37.6278 48.0867 37.4503 47.8895 37.1873C47.6922 36.9244 47.6462 36.5826 47.758 36.2802L49.4869 31.4222L45.398 34.571C45.1417 34.7682 44.7998 34.8274 44.4909 34.7288C44.1819 34.6302 43.9387 34.3804 43.8466 34.0714L42.3873 29.1214L40.9279 34.0714C40.8359 34.3804 40.5992 34.6302 40.2837 34.7288C39.9747 34.8274 39.6329 34.7748 39.3765 34.571L35.2877 31.4222L37.0166 36.2802C37.1283 36.5891 37.0757 36.9244 36.8851 37.1873C36.6945 37.4503 36.3921 37.6015 36.0568 37.5949L30.9031 37.4503L35.1562 40.3624C35.4257 40.5465 35.5835 40.8489 35.5835 41.1776C35.5835 41.5062 35.4257 41.8086 35.1562 41.9927L30.9031 44.9114L36.0568 44.7668C36.3921 44.7339 36.6879 44.9114 36.8851 45.1744C37.0757 45.4373 37.1283 45.7791 37.0166 46.0815L35.2877 50.9395L39.3765 47.7907C39.554 47.6526 39.7644 47.5869 39.9813 47.5869Z" fill="#9D9D9D"/>
</svg>
