<svg width="64" height="74" viewBox="0 0 64 74" fill="none" xmlns="http://www.w3.org/2000/svg">
<path d="M44.219 68.9985H9.35852C7.50241 68.9985 5.99084 67.4869 5.99084 65.6308V9.80852C5.99084 7.9524 7.50241 6.44084 9.35852 6.44084H55.05C56.9061 6.44084 58.4177 7.9524 58.4177 9.80852V52.927C58.4177 53.5383 57.9175 54.0385 57.3063 54.0385C56.695 54.0385 56.1948 53.5383 56.1948 52.927V9.80852C56.1948 9.17499 55.678 8.66373 55.05 8.66373H9.35852C8.72499 8.66373 8.21373 9.17499 8.21373 9.80852V65.6308C8.21373 66.2644 8.73055 66.7756 9.35852 66.7756H44.219C44.8303 66.7756 45.3304 67.2758 45.3304 67.8871C45.3304 68.4984 44.8303 68.9985 44.219 68.9985Z" fill="#9D9D9D"/>
<path d="M11.5425 16.6217H4.07915C2.22304 16.6217 0.711477 15.1101 0.711477 13.254V3.36768C0.711477 1.51156 2.22304 0 4.07915 0H11.5425C13.3986 0 14.9102 1.51156 14.9102 3.36768V13.2484C14.9102 15.1045 13.3986 16.6161 11.5425 16.6161V16.6217ZM4.07915 2.22289C3.44563 2.22289 2.93437 2.73971 2.93437 3.36768V13.2484C2.93437 13.8819 3.45119 14.3932 4.07915 14.3932H11.5425C12.176 14.3932 12.6873 13.8764 12.6873 13.2484V3.36768C12.6873 2.73415 12.1705 2.22289 11.5425 2.22289H4.07915Z" fill="#9D9D9D"/>
<path d="M59.8904 16.6217H52.427C50.5709 16.6217 49.0593 15.1101 49.0593 13.254V3.36768C49.0593 1.51156 50.5709 0 52.427 0H59.8904C61.7465 0 63.258 1.51156 63.258 3.36768V13.2484C63.258 15.1045 61.7465 16.6161 59.8904 16.6161V16.6217ZM52.427 2.22289C51.7935 2.22289 51.2822 2.73971 51.2822 3.36768V13.2484C51.2822 13.8819 51.799 14.3932 52.427 14.3932H59.8904C60.5239 14.3932 61.0351 13.8764 61.0351 13.2484V3.36768C61.0351 2.73415 60.5183 2.22289 59.8904 2.22289H52.427Z" fill="#9D9D9D"/>
<path d="M10.831 74H3.36768C1.51156 74 0 72.4884 0 70.6323V60.7516C0 58.8955 1.51156 57.3839 3.36768 57.3839H10.831C12.6871 57.3839 14.1987 58.8955 14.1987 60.7516V70.6323C14.1987 72.4884 12.6871 74 10.831 74ZM3.36768 59.6012C2.73415 59.6012 2.22289 60.1181 2.22289 60.746V70.6268C2.22289 71.2603 2.73971 71.7715 3.36768 71.7715H10.831C11.4646 71.7715 11.9758 71.2547 11.9758 70.6268V60.746C11.9758 60.1125 11.459 59.6012 10.831 59.6012H3.36768Z" fill="#9D9D9D"/>
<path d="M59.8904 74H52.427C50.5709 74 49.0593 72.4884 49.0593 70.6323V60.7516C49.0593 58.8955 50.5709 57.3839 52.427 57.3839H59.8904C61.7465 57.3839 63.258 58.8955 63.258 60.7516V70.6323C63.258 72.4884 61.7465 74 59.8904 74ZM52.427 59.6012C51.7935 59.6012 51.2822 60.1181 51.2822 60.746V70.6268C51.2822 71.2603 51.799 71.7715 52.427 71.7715H59.8904C60.5239 71.7715 61.0351 71.2547 61.0351 70.6268V60.746C61.0351 60.1125 60.5183 59.6012 59.8904 59.6012H52.427Z" fill="#9D9D9D"/>
<path d="M35.9384 46.0305H28.475C26.6189 46.0305 25.1074 44.5189 25.1074 42.6628V32.7821C25.1074 30.9259 26.6189 29.4144 28.475 29.4144H35.9384C37.7945 29.4144 39.3061 30.9259 39.3061 32.7821V42.6628C39.3061 44.5189 37.7945 46.0305 35.9384 46.0305ZM28.475 31.6373C27.8415 31.6373 27.3303 32.1485 27.3303 32.7821V42.6628C27.3303 43.2963 27.8471 43.8076 28.475 43.8076H35.9384C36.5719 43.8076 37.0832 43.2963 37.0832 42.6628V32.7821C37.0832 32.1485 36.5664 31.6373 35.9384 31.6373H28.475Z" fill="#9D9D9D"/>
</svg>
