<svg width="50" height="50" viewBox="0 0 50 50" fill="none" xmlns="http://www.w3.org/2000/svg">
<g clip-path="url(#clip0_17_97)">
<path d="M4.18599 0H45.814C48.127 0 50 1.87299 50 4.18599V45.814C50 48.127 48.127 50 45.814 50H4.18599C1.87299 50 0 48.127 0 45.814V4.18599C0 1.87299 1.87299 0 4.18599 0Z" fill="black"/>
<path d="M13.9674 34.463L17.5231 34.1301C17.7371 35.2895 18.1712 36.1398 18.8253 36.6809C19.4793 37.222 20.3593 37.4955 21.4712 37.4955C22.6485 37.4955 23.5345 37.2517 24.1291 36.7701C24.7237 36.2885 25.027 35.7236 25.027 35.0755C25.027 34.6593 24.9021 34.3084 24.6524 34.0171C24.4026 33.7257 23.9626 33.4701 23.3383 33.256C22.9102 33.1133 21.935 32.8576 20.4128 32.489C18.4566 32.0192 17.0771 31.4365 16.2863 30.7527C15.1744 29.7895 14.6214 28.6122 14.6214 27.2208C14.6214 26.3289 14.8831 25.4905 15.4063 24.7116C15.9296 23.9327 16.6788 23.3381 17.6658 22.9337C18.6469 22.5294 19.8361 22.3213 21.2275 22.3213C23.4988 22.3213 25.2113 22.8029 26.3589 23.7721C27.5064 24.7354 28.1129 26.0257 28.1664 27.643L24.5096 27.7976C24.3551 26.8938 24.0161 26.2457 23.5048 25.8532C22.9875 25.4548 22.2204 25.2586 21.1918 25.2586C20.1631 25.2586 19.3009 25.4727 18.7004 25.8948C18.3139 26.1684 18.1177 26.5311 18.1177 26.983C18.1177 27.3992 18.2961 27.7559 18.6588 28.0473C19.1226 28.4219 20.2404 28.8143 22.0183 29.2187C23.7961 29.6289 25.1102 30.0452 25.9605 30.4792C26.8108 30.9133 27.4767 31.5079 27.9583 32.263C28.44 33.0182 28.6778 33.9517 28.6778 35.0576C28.6778 36.0625 28.3924 37.0079 27.8156 37.882C27.2389 38.762 26.4243 39.4101 25.3718 39.8382C24.3194 40.2663 23.0053 40.4804 21.4356 40.4804C19.1463 40.4804 17.3923 39.969 16.1615 38.9404C14.9306 37.9117 14.2052 36.4193 13.9614 34.4571L13.9674 34.463Z" fill="white"/>
<path d="M31.7339 25.7344V22.6187H35.2064V25.7344H31.7339ZM31.7339 40.1772V27.4587H35.2064V40.1772H31.7339Z" fill="white"/>
<path d="M8.48486 10.4411L9.40649 10.3638C9.44812 10.7205 9.5492 11.0178 9.70974 11.2438C9.87028 11.4757 10.1141 11.66 10.453 11.8027C10.786 11.9454 11.1665 12.0168 11.5827 12.0168C11.9573 12.0168 12.2844 11.9633 12.5698 11.8562C12.8552 11.7492 13.0692 11.6006 13.206 11.4162C13.3428 11.2319 13.4141 11.0238 13.4141 10.8038C13.4141 10.5838 13.3487 10.3816 13.2119 10.2151C13.0752 10.0486 12.8552 9.90594 12.546 9.79296C12.3498 9.71567 11.9098 9.60269 11.2319 9.44215C10.5541 9.28161 10.0784 9.13296 9.81082 8.9962C9.46001 8.81782 9.19838 8.59782 9.02595 8.33025C8.85352 8.06268 8.76433 7.77132 8.76433 7.43834C8.76433 7.07564 8.87135 6.74266 9.07946 6.42752C9.28757 6.11238 9.59677 5.87454 10.007 5.714C10.4173 5.55346 10.8633 5.47021 11.3627 5.47021C11.9098 5.47021 12.3914 5.55346 12.8076 5.72589C13.2238 5.89833 13.5449 6.14806 13.7709 6.48104C13.9968 6.81401 14.1157 7.18861 14.1336 7.61078L13.2001 7.68213C13.1525 7.23023 12.98 6.89131 12.6887 6.65942C12.3973 6.42752 11.9692 6.31455 11.4044 6.31455C10.8395 6.31455 10.3816 6.42158 10.1141 6.62969C9.8465 6.8378 9.70974 7.09348 9.70974 7.39078C9.70974 7.64646 9.80488 7.86051 9.99515 8.027C10.1854 8.19349 10.673 8.36592 11.4698 8.53836C12.2606 8.71079 12.8076 8.86539 13.1049 8.9962C13.533 9.18647 13.8482 9.43026 14.0563 9.72756C14.2584 10.0249 14.3655 10.3638 14.3655 10.7443C14.3655 11.1249 14.2525 11.4816 14.0265 11.8206C13.8006 12.1595 13.4795 12.4211 13.0573 12.6054C12.6352 12.7898 12.1654 12.8849 11.6362 12.8849C10.9703 12.8849 10.4114 12.7898 9.95947 12.5995C9.50758 12.4092 9.15676 12.1297 8.89514 11.7492C8.63946 11.3687 8.5027 10.9405 8.49081 10.4649L8.48486 10.4411Z" fill="white"/>
<path d="M16.0957 6.59407V5.58325H16.9995V6.59407H16.0957ZM16.0957 12.7363V7.55138H16.9995V12.7363H16.0957Z" fill="white"/>
<path d="M18.8726 12.7363V5.58325H19.7764V12.7363H18.8726Z" fill="white"/>
<path d="M21.7026 6.59407V5.58325H22.6064V6.59407H21.7026ZM21.7026 12.7363V7.55138H22.6064V12.7363H21.7026Z" fill="white"/>
<path d="M27.9879 10.8394L28.8798 10.9523C28.7847 11.5469 28.535 12.0167 28.1306 12.3496C27.7263 12.6826 27.2387 12.855 26.656 12.855C25.9247 12.855 25.336 12.6232 24.8901 12.1594C24.4441 11.6956 24.2241 11.0296 24.2241 10.1675C24.2241 9.60853 24.3193 9.12095 24.5095 8.69879C24.6998 8.27662 24.9912 7.96743 25.3836 7.75337C25.776 7.54526 26.1982 7.43823 26.662 7.43823C27.2447 7.43823 27.7144 7.58094 28.0831 7.86634C28.4517 8.15175 28.6896 8.55608 28.7907 9.07933L27.9106 9.21014C27.8274 8.85933 27.6788 8.5977 27.4647 8.42527C27.2506 8.24689 26.995 8.16365 26.6917 8.16365C26.2339 8.16365 25.8652 8.32419 25.5798 8.63933C25.2944 8.95446 25.1517 9.45988 25.1517 10.1437C25.1517 10.8275 25.2885 11.3448 25.562 11.6599C25.8355 11.975 26.1982 12.1356 26.6382 12.1356C26.995 12.1356 27.2923 12.0286 27.5301 11.8204C27.7679 11.6064 27.9166 11.2853 27.982 10.8453L27.9879 10.8394Z" fill="white"/>
<path d="M29.8311 10.1496C29.8311 9.19231 30.1046 8.47878 30.6576 8.015C31.1154 7.6285 31.6743 7.43823 32.3403 7.43823C33.0776 7.43823 33.6781 7.67013 34.1419 8.13986C34.6057 8.6096 34.8435 9.25177 34.8435 10.0723C34.8435 10.7383 34.7425 11.2615 34.5344 11.648C34.3262 12.0286 34.0289 12.3259 33.6365 12.5399C33.2441 12.754 32.81 12.855 32.3462 12.855C31.597 12.855 30.9965 12.6232 30.5327 12.1594C30.0689 11.6956 29.8429 11.0237 29.8429 10.1496H29.8311ZM30.7646 10.1496C30.7646 10.8156 30.9132 11.3091 31.2105 11.6421C31.5078 11.975 31.8824 12.1356 32.3403 12.1356C32.7981 12.1356 33.1608 11.9691 33.4641 11.6361C33.7614 11.3031 33.91 10.7977 33.91 10.1199C33.91 9.47771 33.7614 8.99609 33.4581 8.66311C33.1608 8.33608 32.7862 8.16959 32.3403 8.16959C31.8943 8.16959 31.5138 8.33608 31.2105 8.66311C30.9073 8.99014 30.7646 9.48961 30.7646 10.1496Z" fill="white"/>
<path d="M36.4132 12.7362V7.55129H37.2278V8.2886C37.6202 7.71778 38.1851 7.43237 38.9283 7.43237C39.2494 7.43237 39.5467 7.48589 39.8143 7.59886C40.0819 7.71184 40.284 7.86049 40.4208 8.03887C40.5575 8.22319 40.6467 8.43725 40.7002 8.68698C40.7359 8.84752 40.7478 9.13293 40.7478 9.54321V12.7303H39.844V9.57888C39.844 9.22212 39.8083 8.95455 39.737 8.77617C39.6656 8.59779 39.5408 8.45509 39.3624 8.354C39.184 8.25292 38.97 8.19346 38.7321 8.19346C38.3456 8.19346 38.0126 8.31238 37.7332 8.55022C37.4537 8.78806 37.311 9.23996 37.311 9.89997V12.7303H36.4072L36.4132 12.7362Z" fill="white"/>
</g>
<defs>
<clipPath id="clip0_17_97">
<rect width="50" height="50" fill="white"/>
</clipPath>
</defs>
</svg>
