<svg width="50" height="50" viewBox="0 0 50 50" fill="none" xmlns="http://www.w3.org/2000/svg">
<g clip-path="url(#clip0_17_161)">
<path d="M45.814 0H4.18599C1.87413 0 0 1.87413 0 4.18599V45.814C0 48.1259 1.87413 50 4.18599 50H45.814C48.1259 50 50 48.1259 50 45.814V4.18599C50 1.87413 48.1259 0 45.814 0Z" fill="#444444"/>
<path d="M21.5663 33.7199L25.1101 34.808C24.569 36.7226 23.6652 38.1497 22.3987 39.0772C21.1322 40.0048 19.5328 40.4745 17.5884 40.4745C15.1862 40.4745 13.2122 39.6778 11.6603 38.0843C10.1083 36.4907 9.34131 34.3145 9.34131 31.5496C9.34131 28.6301 10.1202 26.3587 11.6721 24.7414C13.2241 23.1241 15.2754 22.3154 17.8084 22.3154C20.0203 22.3154 21.822 22.9517 23.2015 24.2182C24.022 24.9674 24.6404 26.0495 25.0566 27.4528L21.4414 28.2912C21.2274 27.3814 20.7814 26.662 20.1036 26.1387C19.4257 25.6095 18.5992 25.3479 17.63 25.3479C16.2862 25.3479 15.1981 25.8176 14.3657 26.7512C13.5273 27.6847 13.1111 29.2009 13.1111 31.288C13.1111 33.5058 13.5214 35.0875 14.3478 36.0329C15.1684 36.9723 16.2387 37.448 17.5587 37.448C18.5279 37.448 19.3663 37.1507 20.062 36.5502C20.7636 35.9496 21.2631 35.0102 21.5663 33.7258V33.7199Z" fill="white"/>
<path d="M36.8534 40.1772V38.2744C36.3777 38.9523 35.7474 39.4874 34.9685 39.8799C34.1896 40.2723 33.369 40.4685 32.5069 40.4685C31.6447 40.4685 30.836 40.2783 30.1344 39.9037C29.4328 39.5291 28.9274 38.9999 28.6182 38.322C28.303 37.6442 28.1484 36.7047 28.1484 35.5096V27.4646H31.615V33.3095C31.615 35.0993 31.6804 36.1933 31.8052 36.5977C31.9301 37.002 32.1679 37.3171 32.5009 37.555C32.8339 37.7928 33.268 37.9058 33.7853 37.9058C34.3799 37.9058 34.9091 37.7512 35.3788 37.4361C35.8485 37.1209 36.1696 36.7285 36.342 36.2647C36.5145 35.795 36.6037 34.6533 36.6037 32.8338V27.4705H40.0702V40.1891H36.8475L36.8534 40.1772Z" fill="white"/>
<path d="M12.6175 10.227L13.5926 10.4649C13.3904 11.2438 13.0218 11.8325 12.4866 12.2427C11.9574 12.653 11.3034 12.8552 10.5363 12.8552C9.76931 12.8552 9.09741 12.7006 8.59795 12.3854C8.09848 12.0703 7.72389 11.6184 7.46226 11.0238C7.20064 10.4292 7.06982 9.78703 7.06982 9.10324C7.06982 8.35999 7.21847 7.70593 7.50983 7.15295C7.80118 6.59997 8.22335 6.17781 8.76444 5.88645C9.30552 5.5951 9.90013 5.45239 10.5542 5.45239C11.2915 5.45239 11.9158 5.63672 12.4153 5.99943C12.9207 6.36213 13.2715 6.87349 13.4677 7.5335L12.5045 7.7535C12.332 7.23025 12.0823 6.85565 11.7612 6.61781C11.4401 6.37997 11.0239 6.26105 10.5363 6.26105C9.97148 6.26105 9.4958 6.39186 9.11525 6.65349C8.73471 6.91511 8.46714 7.27187 8.31254 7.71782C8.15794 8.16377 8.08065 8.62162 8.08065 9.09135C8.08065 9.69784 8.16984 10.233 8.35416 10.6849C8.53849 11.1368 8.8239 11.4757 9.20444 11.7016C9.59093 11.9276 10.0072 12.0406 10.459 12.0406C11.0061 12.0406 11.4699 11.886 11.8445 11.5827C12.2191 11.2795 12.4807 10.8216 12.6115 10.2211L12.6175 10.227Z" fill="white"/>
<path d="M14.8589 10.1499C14.8589 9.19255 15.1324 8.47903 15.6854 8.01524C16.1432 7.62875 16.7021 7.43848 17.3681 7.43848C18.1054 7.43848 18.706 7.67037 19.1697 8.14011C19.6335 8.60984 19.8714 9.25201 19.8714 10.0726C19.8714 10.7385 19.7703 11.2618 19.5622 11.6483C19.3541 12.0288 19.0568 12.3261 18.6643 12.5402C18.2719 12.7542 17.8378 12.8553 17.374 12.8553C16.6249 12.8553 16.0243 12.6234 15.5605 12.1596C15.0967 11.6958 14.8708 11.0239 14.8708 10.1499H14.8589ZM15.7924 10.1499C15.7924 10.8158 15.9411 11.3093 16.2384 11.6423C16.5357 11.9753 16.9103 12.1358 17.3681 12.1358C17.8259 12.1358 18.1887 11.9693 18.4919 11.6364C18.7892 11.3034 18.9378 10.798 18.9378 10.1201C18.9378 9.47796 18.7892 8.99633 18.486 8.66335C18.1887 8.33632 17.8141 8.16984 17.3681 8.16984C16.9222 8.16984 16.5416 8.33632 16.2384 8.66335C15.9351 8.99038 15.7924 9.48985 15.7924 10.1499Z" fill="white"/>
<path d="M21.4414 14.7222V7.55129H22.2679V8.22319C22.4641 7.96157 22.6841 7.7594 22.9279 7.62859C23.1717 7.49778 23.469 7.43237 23.8198 7.43237C24.2777 7.43237 24.676 7.54535 25.0268 7.7713C25.3777 7.99724 25.6393 8.31833 25.8177 8.73455C25.996 9.15077 26.0852 9.60267 26.0852 10.0962C26.0852 10.6254 25.9842 11.107 25.7879 11.5292C25.5917 11.9513 25.3063 12.2784 24.9317 12.5043C24.5571 12.7303 24.1647 12.8432 23.7544 12.8432C23.4512 12.8432 23.1836 12.7838 22.9398 12.6589C22.696 12.5341 22.5057 12.3795 22.3511 12.1892V14.7103H21.4474L21.4414 14.7222ZM22.262 10.1735C22.262 10.8394 22.3987 11.333 22.6782 11.654C22.9576 11.9751 23.2966 12.1297 23.689 12.1297C24.0814 12.1297 24.4382 11.9632 24.7236 11.6362C25.009 11.3092 25.1517 10.7919 25.1517 10.1021C25.1517 9.41239 25.009 8.94861 24.7295 8.61563C24.4501 8.2886 24.1171 8.12211 23.7247 8.12211C23.3322 8.12211 22.9993 8.29454 22.702 8.64536C22.4047 8.99617 22.256 9.50159 22.256 10.1675L22.262 10.1735Z" fill="white"/>
<path d="M27.6846 14.7222V7.55129H28.5111V8.22319C28.7073 7.96157 28.9273 7.7594 29.1711 7.62859C29.4149 7.49778 29.7122 7.43237 30.063 7.43237C30.5208 7.43237 30.9192 7.54535 31.27 7.7713C31.6208 7.99724 31.8825 8.31833 32.0608 8.73455C32.2392 9.15077 32.3284 9.60267 32.3284 10.0962C32.3284 10.6254 32.2273 11.107 32.0311 11.5292C31.8349 11.9513 31.5495 12.2784 31.1749 12.5043C30.8003 12.7303 30.4078 12.8432 29.9976 12.8432C29.6943 12.8432 29.4268 12.7838 29.183 12.6589C28.9392 12.5341 28.7489 12.3795 28.5943 12.1892V14.7103H27.6905L27.6846 14.7222ZM28.5051 10.1735C28.5051 10.8394 28.6419 11.333 28.9213 11.654C29.2008 11.9751 29.5397 12.1297 29.9322 12.1297C30.3246 12.1297 30.6814 11.9632 30.9668 11.6362C31.2522 11.3092 31.3949 10.7919 31.3949 10.1021C31.3949 9.41239 31.2522 8.94861 30.9727 8.61563C30.6933 8.2886 30.3603 8.12211 29.9678 8.12211C29.5754 8.12211 29.2424 8.29454 28.9451 8.64536C28.6478 8.99617 28.4992 9.50159 28.4992 10.1675L28.5051 10.1735Z" fill="white"/>
<path d="M37.5905 11.0713L38.524 11.1843C38.3754 11.7135 38.1019 12.1238 37.7035 12.4211C37.3051 12.7124 36.7937 12.8611 36.1754 12.8611C35.3964 12.8611 34.7721 12.6292 34.3142 12.1594C33.8564 11.6897 33.6245 11.0356 33.6245 10.1973C33.6245 9.35886 33.8564 8.65129 34.3202 8.16966C34.784 7.68804 35.3845 7.4502 36.1218 7.4502C36.8591 7.4502 37.4181 7.68804 37.8759 8.15777C38.3278 8.62751 38.5538 9.29346 38.5538 10.1497C38.5538 10.2032 38.5538 10.2805 38.5538 10.3816H34.5699C34.6056 10.9524 34.7721 11.3865 35.0694 11.6897C35.3667 11.9929 35.7413 12.1416 36.1872 12.1416C36.5202 12.1416 36.8056 12.0584 37.0375 11.8859C37.2694 11.7135 37.4597 11.4459 37.5964 11.0773L37.5905 11.0713ZM34.6175 9.65022H37.6024C37.5608 9.21616 37.4478 8.88913 37.2575 8.66913C36.9662 8.3302 36.5975 8.16372 36.1337 8.16372C35.7175 8.16372 35.3667 8.30047 35.0872 8.56805C34.8018 8.84156 34.6472 9.19832 34.6175 9.65022Z" fill="white"/>
<path d="M40.1655 12.7362V7.55129H40.9801V8.33617C41.1882 7.96751 41.3785 7.72373 41.5569 7.61075C41.7353 7.49183 41.9255 7.43237 42.1396 7.43237C42.4428 7.43237 42.758 7.52751 43.0731 7.71778L42.758 8.53239C42.538 8.40752 42.318 8.34211 42.092 8.34211C41.8958 8.34211 41.7174 8.40157 41.5569 8.51455C41.4023 8.62752 41.2893 8.78806 41.218 8.99617C41.1169 9.31131 41.0693 9.65024 41.0693 10.0189V12.7303H40.1655V12.7362Z" fill="white"/>
</g>
<defs>
<clipPath id="clip0_17_161">
<rect width="50" height="50" fill="white"/>
</clipPath>
</defs>
</svg>
