<svg width="50" height="50" viewBox="0 0 50 50" fill="none" xmlns="http://www.w3.org/2000/svg">
<g clip-path="url(#clip0_17_110)">
<path d="M4.18599 0H45.814C48.127 0 50 1.87299 50 4.18599V45.814C50 48.127 48.127 50 45.814 50H4.18599C1.87299 50 0 48.127 0 45.814V4.18599C0 1.87299 1.87299 0 4.18599 0Z" fill="black"/>
<path d="M4.40585 40.1772V25.2825H10.9346C12.5757 25.2825 13.7708 25.4192 14.5141 25.6809C15.2573 25.9484 15.8519 26.4241 16.2979 27.1079C16.7438 27.7917 16.9698 28.5766 16.9698 29.4566C16.9698 30.5744 16.6308 31.4961 15.953 32.2274C15.2752 32.9588 14.2643 33.4166 12.9146 33.6069C13.5865 33.9874 14.1395 34.4037 14.5735 34.8555C15.0076 35.3074 15.5962 36.1161 16.3395 37.2756L18.2125 40.1832H14.5022L12.2605 36.9426C11.4638 35.7831 10.9167 35.0518 10.6254 34.7545C10.334 34.4512 10.0189 34.2491 9.69185 34.1361C9.36482 34.0231 8.84157 33.9696 8.134 33.9696H7.50372V40.1891H4.3999L4.40585 40.1772ZM7.50967 31.5793H9.80483C11.2913 31.5793 12.2189 31.5198 12.5935 31.395C12.9622 31.2701 13.2535 31.062 13.4616 30.7647C13.6697 30.4674 13.7768 30.0928 13.7768 29.6468C13.7768 29.1474 13.64 28.743 13.3605 28.4339C13.0811 28.1247 12.6946 27.9284 12.1951 27.8511C11.9454 27.8155 11.1902 27.8036 9.92969 27.8036H7.50967V31.5852V31.5793Z" fill="white"/>
<path d="M19.8892 40.1772V25.2825H31.2759V27.8036H22.9871V31.1036H30.6991V33.6128H22.9871V37.668H31.5672V40.1772H19.8833H19.8892Z" fill="white"/>
<path d="M34.2013 40.1772V25.2825H45.5879V27.8036H37.2991V31.1036H45.0111V33.6128H37.2991V37.668H45.8792V40.1772H34.1953H34.2013Z" fill="white"/>
<path d="M2.73504 11.5473V5.58936H5.45831C6.00534 5.58936 6.42156 5.64287 6.70697 5.7499C6.99238 5.85693 7.21833 6.0472 7.39076 6.31477C7.5632 6.58234 7.64644 6.88559 7.64644 7.21262C7.64644 7.63478 7.50374 7.99154 7.22427 8.2829C6.94481 8.57425 6.50481 8.75858 5.91615 8.83588C6.13021 8.93696 6.2967 9.0321 6.40372 9.13318C6.64157 9.34723 6.86751 9.60886 7.07562 9.924L8.14591 11.5473H7.12319L6.30859 10.3105C6.07075 9.95373 5.87453 9.68021 5.71993 9.48994C5.56534 9.29967 5.42858 9.16885 5.30371 9.09156C5.17885 9.01426 5.05993 8.96074 4.93506 8.93101C4.83992 8.91318 4.69127 8.90128 4.48316 8.90128H3.53775V11.5473H2.72314H2.73504ZM3.54964 8.21749H5.29777C5.66642 8.21749 5.95777 8.18182 6.16588 8.10452C6.37399 8.03317 6.53454 7.9083 6.64157 7.74776C6.74859 7.58127 6.80805 7.40289 6.80805 7.21262C6.80805 6.93315 6.70103 6.70126 6.49291 6.51693C6.2848 6.33261 5.95183 6.24342 5.49398 6.24342H3.54964V8.21749Z" fill="white"/>
<path d="M12.1594 11.0181C11.8799 11.25 11.6123 11.4105 11.3507 11.5056C11.0891 11.6008 10.8156 11.6483 10.5183 11.6483C10.0307 11.6483 9.65015 11.5294 9.38853 11.3035C9.12691 11.0716 8.99609 10.7743 8.99609 10.4175C8.99609 10.2035 9.04366 10.0132 9.14474 9.84076C9.24583 9.66832 9.37069 9.52562 9.53124 9.41859C9.69178 9.31156 9.8761 9.23427 10.0723 9.18075C10.221 9.14508 10.441 9.1094 10.7442 9.07372C11.3507 9.00237 11.8026 8.91913 12.088 8.82399C12.088 8.72291 12.088 8.6575 12.088 8.63372C12.088 8.33642 12.0167 8.12831 11.874 8.00344C11.6837 7.83695 11.3923 7.75371 11.0118 7.75371C10.655 7.75371 10.3934 7.81317 10.2269 7.93209C10.0545 8.05101 9.92962 8.26507 9.85232 8.57426L9.11501 8.47912C9.18042 8.17588 9.29339 7.92614 9.44799 7.73587C9.60259 7.5456 9.82259 7.40289 10.1139 7.30181C10.4053 7.20073 10.7383 7.14722 11.1248 7.14722C11.5113 7.14722 11.8145 7.18884 12.0523 7.27803C12.2902 7.36722 12.4626 7.47425 12.5756 7.60506C12.6886 7.73587 12.7659 7.90236 12.8075 8.10452C12.8313 8.22939 12.8432 8.45534 12.8432 8.77642V9.75157C12.8432 10.4294 12.861 10.8635 12.8907 11.0419C12.9205 11.2202 12.9859 11.3927 13.081 11.5592H12.2902C12.2129 11.4105 12.1653 11.2321 12.1415 11.024L12.1594 11.0181ZM12.094 9.38292C11.8204 9.48994 11.4102 9.58508 10.8631 9.65643C10.5539 9.69806 10.3339 9.75157 10.2031 9.80508C10.0723 9.8586 9.97719 9.9359 9.90583 10.0429C9.83448 10.15 9.7988 10.2629 9.7988 10.3878C9.7988 10.584 9.8761 10.7446 10.0248 10.8754C10.1734 11.0062 10.3994 11.0716 10.6907 11.0716C10.9821 11.0716 11.2377 11.0121 11.4637 10.8873C11.6896 10.7624 11.8561 10.5959 11.9632 10.3818C12.0405 10.2154 12.0821 9.97157 12.0821 9.65049V9.38292H12.094Z" fill="white"/>
<path d="M14.4488 11.5473V7.23048H15.1267V7.88454C15.2991 7.58129 15.4596 7.37913 15.6083 7.27804C15.7569 7.18291 15.9175 7.12939 16.0899 7.12939C16.3456 7.12939 16.6013 7.20669 16.8629 7.36724L16.6013 8.04508C16.4169 7.93805 16.2326 7.88454 16.0483 7.88454C15.8818 7.88454 15.7332 7.93211 15.6023 8.02724C15.4715 8.12238 15.3764 8.25914 15.3229 8.42563C15.2396 8.68725 15.198 8.97266 15.198 9.28185V11.5413H14.4429L14.4488 11.5473Z" fill="white"/>
<path d="M20.7932 10.1618L21.5721 10.257C21.4473 10.697 21.2213 11.0419 20.8883 11.2856C20.5554 11.5294 20.1332 11.6543 19.6159 11.6543C18.9618 11.6543 18.4505 11.4581 18.064 11.0716C17.6834 10.6851 17.4932 10.1381 17.4932 9.43643C17.4932 8.7348 17.6834 8.14615 18.0699 7.74776C18.4564 7.34938 18.9559 7.14722 19.5683 7.14722C20.1808 7.14722 20.6505 7.34343 21.0251 7.73587C21.3997 8.12831 21.59 8.68129 21.59 9.39481C21.59 9.43643 21.59 9.50184 21.59 9.59103H18.2721C18.3018 10.0667 18.4386 10.4294 18.6883 10.6791C18.938 10.9289 19.2472 11.0597 19.6159 11.0597C19.8894 11.0597 20.1272 10.9883 20.3235 10.8456C20.5197 10.7029 20.6743 10.477 20.7873 10.1737L20.7932 10.1618ZM18.3137 8.97859H20.7991C20.7635 8.61588 20.6683 8.34236 20.5137 8.16398C20.2759 7.88452 19.9608 7.74182 19.5802 7.74182C19.2353 7.74182 18.944 7.85479 18.7061 8.08074C18.4683 8.30669 18.3375 8.60399 18.3137 8.98453V8.97859Z" fill="white"/>
<path d="M25.8711 11.5473V5.58936H30.3128V6.29098H26.6857V8.11641H30.0809V8.81804H26.6857V10.8456H30.4555V11.5473H25.8711Z" fill="white"/>
<path d="M34.8195 11.0181C34.5401 11.25 34.2725 11.4105 34.0109 11.5056C33.7492 11.6008 33.4757 11.6483 33.1784 11.6483C32.6909 11.6483 32.3103 11.5294 32.0487 11.3035C31.7871 11.0716 31.6562 10.7743 31.6562 10.4175C31.6562 10.2035 31.7038 10.0132 31.8049 9.84076C31.906 9.66832 32.0308 9.52562 32.1914 9.41859C32.3519 9.31156 32.5363 9.23427 32.7325 9.18075C32.8811 9.14508 33.1011 9.1094 33.4044 9.07372C34.0109 9.00237 34.4628 8.91913 34.7482 8.82399C34.7482 8.72291 34.7482 8.6575 34.7482 8.63372C34.7482 8.33642 34.6768 8.12831 34.5341 8.00344C34.3438 7.83695 34.0525 7.75371 33.6719 7.75371C33.3152 7.75371 33.0536 7.81317 32.8871 7.93209C32.7146 8.05101 32.5898 8.26507 32.5125 8.57426L31.7752 8.47912C31.8406 8.17588 31.9535 7.92614 32.1081 7.73587C32.2627 7.5456 32.4827 7.40289 32.7741 7.30181C33.0655 7.20073 33.3984 7.14722 33.7849 7.14722C34.1714 7.14722 34.4747 7.18884 34.7125 7.27803C34.9503 7.36722 35.1228 7.47425 35.2357 7.60506C35.3487 7.73587 35.426 7.90236 35.4676 8.10452C35.4914 8.22939 35.5033 8.45534 35.5033 8.77642V9.75157C35.5033 10.4294 35.5212 10.8635 35.5509 11.0419C35.5806 11.2202 35.646 11.3927 35.7412 11.5592H34.9503C34.873 11.4105 34.8255 11.2321 34.8017 11.024L34.8195 11.0181ZM34.7541 9.38292C34.4806 9.48994 34.0703 9.58508 33.5233 9.65643C33.2141 9.69806 32.9941 9.75157 32.8633 9.80508C32.7325 9.8586 32.6373 9.9359 32.566 10.0429C32.4946 10.15 32.459 10.2629 32.459 10.3878C32.459 10.584 32.5363 10.7446 32.6849 10.8754C32.8336 11.0062 33.0595 11.0716 33.3509 11.0716C33.6422 11.0716 33.8979 11.0121 34.1238 10.8873C34.3498 10.7624 34.5163 10.5959 34.6233 10.3818C34.7006 10.2154 34.7422 9.97157 34.7422 9.65049V9.38292H34.7541Z" fill="white"/>
<path d="M37.109 11.5473V7.23048H37.7868V7.88454C37.9593 7.58129 38.1198 7.37913 38.2684 7.27804C38.4171 7.17696 38.5776 7.12939 38.7501 7.12939C39.0057 7.12939 39.2614 7.20669 39.5231 7.36724L39.2614 8.04508C39.0771 7.93805 38.8928 7.88454 38.7084 7.88454C38.542 7.88454 38.3933 7.93211 38.2625 8.02724C38.1317 8.12238 38.0366 8.25914 37.983 8.42563C37.8998 8.68725 37.8582 8.97266 37.8582 9.28185V11.5413H37.103L37.109 11.5473Z" fill="white"/>
<path d="M42.0501 10.8932L42.1571 11.5414C41.9431 11.583 41.7528 11.6068 41.5863 11.6068C41.3128 11.6068 41.0987 11.5651 40.9501 11.4819C40.8014 11.3987 40.6944 11.2857 40.629 11.1489C40.5695 11.0122 40.5398 10.7268 40.5398 10.2868V7.80132H39.9868V7.2305H40.5398V6.16022L41.289 5.72021V7.2305H42.0501V7.80132H41.289V10.3284C41.289 10.5365 41.3009 10.6732 41.3306 10.7327C41.3603 10.7922 41.402 10.8397 41.4614 10.8754C41.5209 10.9111 41.6101 10.9289 41.7171 10.9289C41.8004 10.9289 41.9133 10.917 42.0501 10.8992V10.8932Z" fill="white"/>
<path d="M43.2153 11.5473V5.58936H43.9705V7.72992C44.3213 7.33154 44.7672 7.13532 45.3024 7.13532C45.6294 7.13532 45.9208 7.20072 46.1646 7.32559C46.4083 7.45046 46.5808 7.62289 46.6878 7.84884C46.7948 8.06884 46.8483 8.39587 46.8483 8.81804V11.5532H46.0932V8.81804C46.0932 8.44939 46.01 8.18776 45.8494 8.02127C45.6829 7.85479 45.457 7.77154 45.1537 7.77154C44.9278 7.77154 44.7197 7.82506 44.5235 7.93803C44.3272 8.051 44.1845 8.2056 44.1013 8.39587C44.018 8.58614 43.9764 8.85372 43.9764 9.19264V11.5532H43.2213L43.2153 11.5473Z" fill="white"/>
<path d="M8.39551 19.8717V13.9138H12.8372V14.6154H9.21011V16.4409H12.6053V17.1425H9.21011V19.1701H12.9799V19.8717H8.39551Z" fill="white"/>
<path d="M14.4189 19.8717V13.9138H15.1741V19.8717H14.4189Z" fill="white"/>
<path d="M19.8181 18.4863L20.597 18.5814C20.4722 19.0214 20.2462 19.3663 19.9132 19.6101C19.5803 19.8539 19.1581 19.9788 18.6408 19.9788C17.9867 19.9788 17.4754 19.7825 17.0889 19.396C16.7083 19.0096 16.5181 18.4625 16.5181 17.7609C16.5181 17.0593 16.7083 16.4706 17.0948 16.0722C17.4813 15.6738 17.9808 15.4717 18.5932 15.4717C19.2057 15.4717 19.6754 15.6679 20.05 16.0603C20.4246 16.4528 20.6149 17.0057 20.6149 17.7193C20.6149 17.7609 20.6149 17.8263 20.6149 17.9155H17.297C17.3267 18.3912 17.4635 18.7539 17.7132 19.0036C17.9629 19.2533 18.2721 19.3842 18.6408 19.3842C18.9143 19.3842 19.1521 19.3128 19.3484 19.1701C19.5446 19.0274 19.6992 18.8014 19.8122 18.4982L19.8181 18.4863ZM17.3386 17.3031H19.824C19.7884 16.9403 19.6932 16.6668 19.5386 16.4884C19.3008 16.209 18.9857 16.0663 18.6051 16.0663C18.2602 16.0663 17.9689 16.1793 17.7311 16.4052C17.4932 16.6312 17.3624 16.9285 17.3386 17.309V17.3031Z" fill="white"/>
<path d="M21.9703 19.8717V15.5549H22.6422V16.1613C22.7849 15.9473 22.9692 15.7808 23.2011 15.65C23.433 15.5192 23.6946 15.4597 23.9919 15.4597C24.319 15.4597 24.5925 15.5251 24.8006 15.6559C25.0147 15.7867 25.1633 15.977 25.2466 16.2149C25.5974 15.7094 26.0552 15.4597 26.6201 15.4597C27.0601 15.4597 27.399 15.5786 27.6369 15.8165C27.8747 16.0543 27.9936 16.417 27.9936 16.9105V19.8717H27.2444V17.1543C27.2444 16.863 27.2206 16.6489 27.1731 16.5241C27.1255 16.3932 27.0363 16.2922 26.9055 16.2149C26.7747 16.1376 26.626 16.0959 26.4536 16.0959C26.1385 16.0959 25.8828 16.197 25.6747 16.3992C25.4666 16.6014 25.3655 16.9224 25.3655 17.3684V19.8776H24.6103V17.0711C24.6103 16.7441 24.5509 16.5003 24.426 16.3397C24.3011 16.1792 24.1049 16.0959 23.8255 16.0959C23.6114 16.0959 23.4152 16.1495 23.2368 16.2565C23.0584 16.3635 22.9276 16.5241 22.8444 16.7322C22.7611 16.9403 22.7195 17.2435 22.7195 17.636V19.8776H21.9644L21.9703 19.8717Z" fill="white"/>
<path d="M32.5958 18.4863L33.3748 18.5814C33.2499 19.0214 33.024 19.3663 32.691 19.6101C32.358 19.8539 31.9358 19.9788 31.4185 19.9788C30.7704 19.9788 30.2531 19.7825 29.8726 19.396C29.492 19.0096 29.3018 18.4625 29.3018 17.7609C29.3018 17.0593 29.492 16.4706 29.8785 16.0722C30.265 15.6738 30.7645 15.4717 31.3769 15.4717C31.9894 15.4717 32.4591 15.6679 32.8337 16.0603C33.2083 16.4528 33.3986 17.0057 33.3986 17.7193C33.3986 17.7609 33.3986 17.8263 33.3986 17.9155H30.0807C30.1104 18.3912 30.2472 18.7539 30.4969 19.0036C30.7466 19.2533 31.0558 19.3842 31.4245 19.3842C31.698 19.3842 31.9358 19.3128 32.1321 19.1701C32.3283 19.0274 32.4829 18.8014 32.5958 18.4982V18.4863ZM30.1223 17.3031H32.6077C32.578 16.9403 32.4829 16.6668 32.3223 16.4884C32.0845 16.209 31.7694 16.0663 31.3888 16.0663C31.0439 16.0663 30.7526 16.1793 30.5147 16.4052C30.2769 16.6312 30.1461 16.9285 30.1223 17.309V17.3031Z" fill="white"/>
<path d="M34.7482 19.8717V15.5549H35.4261V16.1674C35.7531 15.6917 36.2228 15.4539 36.8412 15.4539C37.1088 15.4539 37.3585 15.5014 37.5785 15.5966C37.8045 15.6917 37.971 15.8106 38.0839 15.9652C38.1969 16.1198 38.2742 16.2982 38.3158 16.5063C38.3456 16.6431 38.3575 16.8809 38.3575 17.2198V19.8717H37.6023V17.2436C37.6023 16.9463 37.5726 16.7204 37.5131 16.5777C37.4537 16.429 37.3526 16.3101 37.198 16.2268C37.0493 16.1376 36.8769 16.096 36.6747 16.096C36.3536 16.096 36.0742 16.1971 35.8423 16.3933C35.6104 16.5895 35.4915 16.9641 35.4915 17.5171V19.8717H34.7363H34.7482Z" fill="white"/>
<path d="M41.5979 19.2177L41.705 19.8658C41.4909 19.9074 41.3006 19.9312 41.1341 19.9312C40.8606 19.9312 40.6466 19.8896 40.4979 19.8064C40.3493 19.7231 40.2422 19.6101 40.1768 19.4734C40.1174 19.3366 40.0876 19.0512 40.0876 18.6112V16.1258H39.5347V15.555H40.0876V14.4847L40.8368 14.0447V15.555H41.5979V16.1258H40.8368V18.6528C40.8368 18.8609 40.8487 18.9977 40.8785 19.0572C40.9082 19.1166 40.9498 19.1642 41.0093 19.1999C41.0687 19.2355 41.1579 19.2534 41.265 19.2534C41.3482 19.2534 41.4612 19.2415 41.5979 19.2237V19.2177Z" fill="white"/>
</g>
<defs>
<clipPath id="clip0_17_110">
<rect width="50" height="50" fill="white"/>
</clipPath>
</defs>
</svg>
