<svg width="50" height="50" viewBox="0 0 50 50" fill="none" xmlns="http://www.w3.org/2000/svg">
<g clip-path="url(#clip0_17_173)">
<path d="M4.18599 0H45.814C48.127 0 50 1.87299 50 4.18599V45.814C50 48.127 48.127 50 45.814 50H4.18599C1.87299 50 0 48.127 0 45.814V4.18599C0 1.87299 1.87299 0 4.18599 0Z" fill="#444444"/>
<path d="M30.521 40.1772H26.5431L24.9615 36.1874H17.7252L16.2328 40.1772H12.356L19.4079 22.6187H23.2728L30.521 40.1772ZM23.7901 33.2323L21.2988 26.7155L18.8549 33.2323H23.7961H23.7901Z" fill="white"/>
<path d="M32.4355 40.1772V22.6187H35.9021V40.1772H32.4355Z" fill="white"/>
<path d="M3.03223 12.7365L5.39279 6.77856H6.26686L8.78202 12.7365H7.85444L7.13497 10.9289H4.5663L3.8944 12.7365H3.03223ZM4.80414 10.2867H6.88524L6.24307 8.63372C6.04685 8.13426 5.90415 7.71803 5.80901 7.39695C5.73172 7.77749 5.61874 8.15804 5.47604 8.53264L4.80414 10.2808V10.2867Z" fill="white"/>
<path d="M9.74512 12.7365V6.77856H10.5003V12.7365H9.74512Z" fill="white"/>
<path d="M15.0194 12.7366V12.1003C14.6745 12.5879 14.1988 12.8317 13.6042 12.8317C13.3426 12.8317 13.0988 12.7841 12.8669 12.6831C12.641 12.5879 12.4685 12.4631 12.3615 12.3144C12.2485 12.1658 12.1712 11.9874 12.1296 11.7733C12.0999 11.6306 12.082 11.4047 12.082 11.0895V8.41382H12.8372V10.8101C12.8372 11.1906 12.855 11.4522 12.8847 11.583C12.9323 11.7733 13.0334 11.9279 13.188 12.0349C13.3426 12.142 13.5329 12.2014 13.7588 12.2014C13.9848 12.2014 14.1988 12.1479 14.395 12.0349C14.5912 11.922 14.734 11.7674 14.8172 11.5771C14.9004 11.3809 14.9421 11.1014 14.9421 10.7328V8.41976H15.6972V12.7366H15.0253H15.0194Z" fill="white"/>
<path d="M17.3028 12.7364V8.4196H17.9747V9.02609C18.1174 8.81204 18.3018 8.64555 18.5336 8.51474C18.7655 8.38392 19.0272 8.32446 19.3245 8.32446C19.6515 8.32446 19.925 8.38987 20.1331 8.52068C20.3472 8.65149 20.4958 8.84177 20.5791 9.07961C20.9299 8.5742 21.3877 8.32446 21.9526 8.32446C22.3926 8.32446 22.7315 8.44338 22.9694 8.68122C23.2072 8.91906 23.3261 9.28177 23.3261 9.77529V12.7364H22.5769V10.0191C22.5769 9.72772 22.5531 9.51366 22.5056 9.3888C22.458 9.25799 22.3688 9.1569 22.238 9.07961C22.1072 9.00231 21.9585 8.96069 21.7861 8.96069C21.471 8.96069 21.2153 9.06177 21.0072 9.26393C20.7991 9.4661 20.698 9.78718 20.698 10.2331V12.7423H19.9429V9.93583C19.9429 9.6088 19.8834 9.36501 19.7585 9.20447C19.6337 9.04393 19.4374 8.96069 19.158 8.96069C18.9439 8.96069 18.7477 9.0142 18.5693 9.12123C18.3909 9.22826 18.2601 9.3888 18.1769 9.59691C18.0936 9.80502 18.052 10.1083 18.052 10.5007V12.7423H17.2969L17.3028 12.7364Z" fill="white"/>
<path d="M24.8838 7.6229V6.77856H25.6389V7.6229H24.8838ZM24.8838 12.7424V8.42561H25.6389V12.7424H24.8838Z" fill="white"/>
<path d="M27.2145 12.7365V8.41969H27.8924V9.03212C28.2194 8.55644 28.6891 8.3186 29.3075 8.3186C29.5751 8.3186 29.8248 8.36617 30.0448 8.46131C30.2708 8.55644 30.4373 8.67536 30.5502 8.82996C30.6632 8.98456 30.7405 9.16294 30.7821 9.37105C30.8119 9.50781 30.8238 9.74565 30.8238 10.0846V12.7365H30.0686V10.1084C30.0686 9.81105 30.0389 9.5851 29.9794 9.4424C29.92 9.29375 29.8189 9.17483 29.6643 9.09158C29.5156 9.00239 29.3432 8.96077 29.141 8.96077C28.82 8.96077 28.5405 9.06185 28.3086 9.25807C28.0767 9.45429 27.9578 9.82889 27.9578 10.3819V12.7365H27.2026H27.2145Z" fill="white"/>
<path d="M32.4233 7.6229V6.77856H33.1785V7.6229H32.4233ZM32.4233 12.7424V8.42561H33.1785V12.7424H32.4233Z" fill="white"/>
<path d="M37.6678 12.7366V12.1003C37.3229 12.5879 36.8532 12.8317 36.2526 12.8317C35.991 12.8317 35.7472 12.7841 35.5153 12.6831C35.2834 12.582 35.117 12.4631 35.0099 12.3144C34.897 12.1658 34.8256 11.9874 34.778 11.7733C34.7483 11.6306 34.7305 11.4047 34.7305 11.0895V8.41382H35.4856V10.8101C35.4856 11.1906 35.5034 11.4522 35.5332 11.583C35.5807 11.7733 35.6818 11.9279 35.8364 12.0349C35.991 12.142 36.1813 12.2014 36.4072 12.2014C36.6332 12.2014 36.8472 12.1479 37.0435 12.0349C37.2397 11.922 37.3824 11.7674 37.4656 11.5771C37.5489 11.3809 37.5905 11.1014 37.5905 10.7328V8.41976H38.3456V12.7366H37.6737H37.6678Z" fill="white"/>
<path d="M39.9571 12.7364V8.4196H40.629V9.02609C40.7717 8.81204 40.956 8.64555 41.1879 8.51474C41.4198 8.38392 41.6815 8.32446 41.9788 8.32446C42.3058 8.32446 42.5793 8.38987 42.7874 8.52068C43.0015 8.65149 43.1501 8.84177 43.2334 9.07961C43.5842 8.5742 44.042 8.32446 44.6069 8.32446C45.0469 8.32446 45.3858 8.44338 45.6237 8.68122C45.8615 8.91906 45.9804 9.28177 45.9804 9.77529V12.7364H45.2312V10.0191C45.2312 9.72772 45.2074 9.51366 45.1599 9.3888C45.1123 9.25799 45.0231 9.1569 44.8923 9.07961C44.7615 9.00231 44.6128 8.96069 44.4404 8.96069C44.1253 8.96069 43.8696 9.06177 43.6615 9.26393C43.4534 9.4661 43.3523 9.78718 43.3523 10.2331V12.7423H42.5971V9.93583C42.5971 9.6088 42.5377 9.36501 42.4128 9.20447C42.288 9.04393 42.0917 8.96069 41.8123 8.96069C41.5982 8.96069 41.402 9.0142 41.2236 9.12123C41.0452 9.22826 40.9144 9.3888 40.8312 9.59691C40.7479 9.80502 40.7063 10.1083 40.7063 10.5007V12.7423H39.9512L39.9571 12.7364Z" fill="white"/>
</g>
<defs>
<clipPath id="clip0_17_173">
<rect width="50" height="50" fill="white"/>
</clipPath>
</defs>
</svg>
