<svg width="50" height="50" viewBox="0 0 50 50" fill="none" xmlns="http://www.w3.org/2000/svg">
<g clip-path="url(#clip0_17_133)">
<path d="M4.18599 0H45.814C48.127 0 50 1.87299 50 4.18599V45.814C50 48.127 48.127 50 45.814 50H4.18599C1.87299 50 0 48.127 0 45.814V4.18599C0 1.87299 1.87299 0 4.18599 0Z" fill="black"/>
<path d="M17.6836 22.6187H21.3404V32.1263C21.3404 33.6366 21.388 34.6118 21.4771 35.0577C21.6317 35.7772 22.0063 36.3539 22.595 36.788C23.1837 37.2221 23.9864 37.4421 25.0091 37.4421C26.0318 37.4421 26.8286 37.2339 27.3578 36.8237C27.8869 36.4134 28.2021 35.908 28.3091 35.3074C28.4161 34.7069 28.4697 33.7139 28.4697 32.3285V22.6187H32.1265V31.8409C32.1265 33.9458 32.0254 35.4383 31.8292 36.3064C31.6329 37.1745 31.2702 37.9118 30.7351 38.5123C30.2059 39.1129 29.4924 39.5886 28.6064 39.9453C27.7145 40.3021 26.555 40.4805 25.1221 40.4805C23.3918 40.4805 22.0836 40.2842 21.1917 39.8978C20.2998 39.5113 19.5923 39.0059 19.075 38.3875C18.5577 37.7691 18.2128 37.121 18.0522 36.4431C17.8144 35.4383 17.6955 33.9517 17.6955 31.9896V22.6246L17.6836 22.6187Z" fill="white"/>
<path d="M9.36518 5.58325H10.3403V9.71573C10.3403 10.4352 10.2571 11.006 10.0906 11.4282C9.92411 11.8503 9.62086 12.1952 9.18086 12.4628C8.74085 12.7304 8.17004 12.8612 7.45651 12.8612C6.74299 12.8612 6.20191 12.7482 5.7619 12.5163C5.3219 12.2844 5.00676 11.9514 4.82243 11.5114C4.6381 11.0714 4.54297 10.4768 4.54297 9.71573V5.58325H5.51811V9.70978C5.51811 10.3341 5.57757 10.792 5.69649 11.0833C5.81542 11.3806 6.01758 11.6066 6.30893 11.7671C6.60029 11.9276 6.95705 12.0049 7.37327 12.0049C8.09274 12.0049 8.60409 11.8503 8.90734 11.5293C9.21059 11.2141 9.36518 10.6076 9.36518 9.70978V5.58325Z" fill="white"/>
<path d="M12.356 12.7362V7.55129H13.1706V8.33617C13.3788 7.96751 13.569 7.72373 13.7474 7.61075C13.9258 7.49183 14.1161 7.43237 14.3301 7.43237C14.6334 7.43237 14.9485 7.52751 15.2577 7.71778L14.9426 8.53239C14.7226 8.40752 14.5026 8.34211 14.2766 8.34211C14.0804 8.34211 13.902 8.40157 13.7415 8.51455C13.5869 8.62752 13.4739 8.78806 13.4025 8.99617C13.3015 9.31131 13.2539 9.65024 13.2539 10.0189V12.7303H12.3501L12.356 12.7362Z" fill="white"/>
<path d="M19.8004 12.1001C19.4674 12.3736 19.1404 12.5698 18.8312 12.6887C18.522 12.8076 18.189 12.8612 17.8323 12.8612C17.2436 12.8612 16.7917 12.7244 16.4766 12.4449C16.1614 12.1655 16.0068 11.8087 16.0068 11.3806C16.0068 11.1249 16.0663 10.893 16.1852 10.6849C16.3041 10.4768 16.4587 10.3044 16.655 10.1795C16.8452 10.0546 17.0652 9.9595 17.309 9.89409C17.4874 9.84652 17.755 9.8049 18.1117 9.76328C18.8431 9.68004 19.3782 9.57895 19.7231 9.46003C19.7231 9.34111 19.7231 9.26382 19.7231 9.22814C19.7231 8.87138 19.6398 8.6157 19.4674 8.473C19.2355 8.27678 18.8907 8.17569 18.4388 8.17569C18.0106 8.17569 17.6955 8.24705 17.4933 8.3957C17.2912 8.5384 17.1425 8.79408 17.0414 9.16273L16.1555 9.04381C16.2328 8.67516 16.3695 8.37786 16.5539 8.15191C16.7382 7.92596 17.0058 7.75353 17.3566 7.62866C17.7074 7.5038 18.1117 7.44434 18.5696 7.44434C19.0274 7.44434 19.3961 7.49785 19.6815 7.59893C19.9669 7.70001 20.175 7.83677 20.3117 7.99137C20.4485 8.14596 20.5377 8.34813 20.5912 8.58597C20.6209 8.73462 20.6388 9.00814 20.6388 9.39463V10.566C20.6388 11.3806 20.6566 11.8979 20.6982 12.1179C20.7339 12.332 20.8112 12.5401 20.9242 12.7422H19.9788C19.8836 12.5579 19.8242 12.3438 19.8004 12.1001ZM19.7231 10.1379C19.3961 10.2687 18.9025 10.3757 18.2425 10.4709C17.8679 10.5244 17.6063 10.5838 17.4517 10.6492C17.2971 10.7146 17.1782 10.8098 17.095 10.9346C17.0117 11.0595 16.9701 11.2022 16.9701 11.3509C16.9701 11.5828 17.0593 11.779 17.2436 11.9336C17.4279 12.0882 17.6955 12.1655 18.0463 12.1655C18.3971 12.1655 18.7063 12.0941 18.9739 11.9455C19.2415 11.7968 19.4436 11.5947 19.5744 11.339C19.6696 11.1428 19.7171 10.8455 19.7171 10.459V10.1379H19.7231Z" fill="white"/>
<path d="M22.5596 12.7362V7.55129H23.3742V8.2886C23.7666 7.71778 24.3315 7.43237 25.0747 7.43237C25.3958 7.43237 25.6931 7.48589 25.9607 7.59886C26.2283 7.71184 26.4304 7.86049 26.5672 8.03887C26.698 8.22319 26.7931 8.43725 26.8466 8.68698C26.8823 8.84752 26.9002 9.13293 26.9002 9.54321V12.7303H25.9964V9.57888C25.9964 9.22212 25.9607 8.95455 25.8893 8.77617C25.818 8.59779 25.6931 8.45509 25.5147 8.354C25.3364 8.24698 25.1223 8.19346 24.8845 8.19346C24.498 8.19346 24.165 8.31238 23.8855 8.55022C23.6061 8.78806 23.4634 9.23996 23.4634 9.89997V12.7303H22.5596V12.7362Z" fill="white"/>
<path d="M28.8086 6.59407V5.58325H29.7124V6.59407H28.8086ZM28.8086 12.7363V7.55138H29.7124V12.7363H28.8086Z" fill="white"/>
<path d="M35.1113 12.7362V11.9751C34.6951 12.5578 34.1303 12.8551 33.4167 12.8551C33.1016 12.8551 32.8043 12.7957 32.5367 12.6767C32.2632 12.5578 32.061 12.4151 31.9243 12.2367C31.7935 12.0583 31.6983 11.8443 31.6448 11.5827C31.6091 11.4102 31.5913 11.1367 31.5913 10.7621V7.55127H32.4951V10.4232C32.4951 10.881 32.5129 11.1902 32.5486 11.3508C32.6081 11.5827 32.727 11.761 32.9113 11.8978C33.0956 12.0286 33.3216 12.094 33.5951 12.094C33.8686 12.094 34.1184 12.0286 34.3621 11.8919C34.6 11.7551 34.7665 11.5708 34.8676 11.3389C34.9686 11.107 35.0162 10.7681 35.0162 10.3281V7.55127H35.92V12.7362H35.1113Z" fill="white"/>
<path d="M37.8526 12.7363V7.55138H38.6613V8.27679C38.8278 8.02111 39.0537 7.81895 39.3272 7.66435C39.6008 7.50976 39.9218 7.43246 40.2786 7.43246C40.677 7.43246 40.9981 7.50976 41.2537 7.6703C41.5094 7.83084 41.6878 8.05085 41.7889 8.33625C42.211 7.72976 42.7581 7.42651 43.4419 7.42651C43.9711 7.42651 44.3813 7.56922 44.6608 7.85463C44.9462 8.14004 45.0889 8.58004 45.0889 9.16869V12.7244H44.1851V9.46005C44.1851 9.10923 44.1554 8.85356 44.0959 8.69896C44.0365 8.54436 43.9294 8.4195 43.7749 8.32436C43.6203 8.22923 43.4419 8.18166 43.2338 8.18166C42.8592 8.18166 42.544 8.30058 42.3002 8.54436C42.0505 8.78815 41.9256 9.17464 41.9256 9.70978V12.7185H41.0218V9.35302C41.0218 8.96058 40.9505 8.66923 40.8018 8.47301C40.6532 8.27679 40.4154 8.18166 40.0764 8.18166C39.8208 8.18166 39.5829 8.24706 39.3689 8.37788C39.1548 8.50869 38.9943 8.69896 38.8991 8.94869C38.804 9.19843 38.7505 9.56113 38.7505 10.0309V12.7185H37.8467L37.8526 12.7363Z" fill="white"/>
</g>
<defs>
<clipPath id="clip0_17_133">
<rect width="50" height="50" fill="white"/>
</clipPath>
</defs>
</svg>
