<svg width="62" height="62" viewBox="0 0 62 62" fill="none" xmlns="http://www.w3.org/2000/svg">
<g clip-path="url(#clip0_17_86)">
<path fill-rule="evenodd" clip-rule="evenodd" d="M7.51 2C4.46229 2 2 4.46229 2 7.51V54.49C2 57.5377 4.46229 60 7.51 60H31.74V62H7.51C3.35772 62 0 58.6423 0 54.49V7.51C0 3.35772 3.35772 0 7.51 0H54.49C58.6423 0 62 3.35772 62 7.51V54.49C62 58.6423 58.6423 62 54.49 62H51.91V60H54.49C57.5377 60 60 57.5377 60 54.49V7.51C60 4.46229 57.5377 2 54.49 2H7.51Z" fill="white"/>
<path fill-rule="evenodd" clip-rule="evenodd" d="M20.264 5.54004H26.1557L27.7492 51.3953L25.7504 51.4648L24.224 7.54004H22.1957L20.6692 51.4648L18.6704 51.3953L20.264 5.54004Z" fill="white"/>
<path fill-rule="evenodd" clip-rule="evenodd" d="M10.8644 22.6001H16.7154L18.3283 51.3741L16.3315 51.4861L14.8244 24.6001H12.7554L11.2483 51.4861L9.25146 51.3741L10.8644 22.6001Z" fill="white"/>
<path fill-rule="evenodd" clip-rule="evenodd" d="M35.14 25C35.14 24.4477 35.5877 24 36.14 24H48.65C49.1771 24 49.6137 24.4092 49.6479 24.9352L48.65 25C49.6479 24.9352 49.6479 24.935 49.6479 24.9352L49.6537 25.0241L49.6713 25.2863C49.6869 25.5165 49.7101 25.855 49.7407 26.2878C49.8018 27.1533 49.8923 28.3953 50.0096 29.9004C50.2444 32.9111 50.5865 36.9713 51.0161 41.1733C51.4459 45.3782 51.962 49.7116 52.5436 53.2732C52.8346 55.055 53.1397 56.6287 53.455 57.8899C53.7782 59.1831 54.0885 60.0452 54.3534 60.4787L52.6466 61.5213C52.2089 60.8048 51.8408 59.6794 51.5147 58.375C51.1805 57.0385 50.8652 55.4044 50.5698 53.5956C49.9786 49.9759 49.4578 45.5968 49.0264 41.3767C48.5947 37.1537 48.2512 33.0764 48.0157 30.0559C47.8979 28.5453 47.807 27.2983 47.7456 26.4286C47.7347 26.2736 47.7246 26.1305 47.7156 26H37.1358C37.0501 36.1304 35.6786 44.8351 34.3066 51.0675C33.598 54.2866 32.8887 56.8485 32.3552 58.6096C32.0884 59.4903 31.8654 60.1708 31.7084 60.6334C31.6299 60.8647 31.5678 61.0416 31.525 61.1617C31.5036 61.2217 31.487 61.2676 31.4755 61.299L31.4622 61.3353L31.4585 61.3452L31.4574 61.3481C31.4573 61.3484 31.4569 61.3496 30.52 61C29.5831 60.6504 29.583 60.6505 29.583 60.6506L29.5859 60.6427L29.5967 60.6133C29.6065 60.5864 29.6215 60.5452 29.6412 60.4898C29.6807 60.3791 29.7394 60.2119 29.8145 59.9905C29.9649 59.5478 30.181 58.8882 30.4411 58.0297C30.9613 56.3127 31.657 53.8009 32.3534 50.6375C33.7465 44.309 35.14 35.3825 35.14 25Z" fill="white"/>
<path fill-rule="evenodd" clip-rule="evenodd" d="M32.54 19.77C32.54 19.2177 32.9878 18.77 33.54 18.77H50.12C50.6723 18.77 51.12 19.2177 51.12 19.77V25C51.12 25.5523 50.6723 26 50.12 26H33.54C32.9878 26 32.54 25.5523 32.54 25V19.77ZM34.54 20.77V24H49.12V20.77H34.54Z" fill="white"/>
<path fill-rule="evenodd" clip-rule="evenodd" d="M6.2002 51.4299C6.2002 50.8776 6.64791 50.4299 7.2002 50.4299H32.7602V52.4299H8.2002V55.6599H31.8102V57.6599H7.2002C6.64791 57.6599 6.2002 57.2122 6.2002 56.6599V51.4299Z" fill="white"/>
<path fill-rule="evenodd" clip-rule="evenodd" d="M48.9898 30.47H36.0498V28.47H48.9898V30.47Z" fill="white"/>
<path fill-rule="evenodd" clip-rule="evenodd" d="M25.3702 12.8501H20.6602V10.8501H25.3702V12.8501Z" fill="white"/>
<path fill-rule="evenodd" clip-rule="evenodd" d="M15.8499 29.45H11.1299V27.45H15.8499V29.45Z" fill="white"/>
</g>
<defs>
<clipPath id="clip0_17_86">
<rect width="62" height="62" fill="white"/>
</clipPath>
</defs>
</svg>
