<svg width="62" height="62" viewBox="0 0 62 62" fill="none" xmlns="http://www.w3.org/2000/svg">
<g clip-path="url(#clip0_17_57)">
<path fill-rule="evenodd" clip-rule="evenodd" d="M7.51 2C4.46691 2 2 4.46691 2 7.51V54.49C2 57.5331 4.46691 60 7.51 60H54.49C57.5331 60 60 57.5331 60 54.49V7.51C60 4.46691 57.5331 2 54.49 2H7.51ZM0 7.51C0 3.36234 3.36234 0 7.51 0H54.49C58.6377 0 62 3.36234 62 7.51V54.49C62 58.6377 58.6377 62 54.49 62H7.51C3.36234 62 0 58.6377 0 54.49V7.51Z" fill="white"/>
<path fill-rule="evenodd" clip-rule="evenodd" d="M31.1603 19.6602C24.8974 19.6602 19.8203 24.7372 19.8203 31.0002C19.8203 37.2631 24.8974 42.3402 31.1603 42.3402C37.4232 42.3402 42.5003 37.2631 42.5003 31.0002C42.5003 24.7372 37.4232 19.6602 31.1603 19.6602ZM17.8203 31.0002C17.8203 23.6327 23.7928 17.6602 31.1603 17.6602C38.5278 17.6602 44.5003 23.6327 44.5003 31.0002C44.5003 38.3676 38.5278 44.3402 31.1603 44.3402C23.7928 44.3402 17.8203 38.3676 17.8203 31.0002Z" fill="white"/>
<path fill-rule="evenodd" clip-rule="evenodd" d="M29.8143 58.5981L26.1943 42.388L28.1463 41.9521L30.8622 54.1138L33.8622 42.5294L35.7984 43.0308L31.7584 58.6308C31.6425 59.0781 31.2354 59.3877 30.7735 59.38C30.3115 59.3722 29.915 59.049 29.8143 58.5981Z" fill="white"/>
<path fill-rule="evenodd" clip-rule="evenodd" d="M30.7735 2.62026C31.2354 2.61248 31.6425 2.92216 31.7584 3.36941L35.7984 18.9694L33.8622 19.4708L30.8622 7.88645L28.1463 20.0481L26.1943 19.6122L29.8143 3.40217C29.915 2.95127 30.3115 2.62804 30.7735 2.62026Z" fill="white"/>
<path fill-rule="evenodd" clip-rule="evenodd" d="M3.40217 29.8141L19.6122 26.1941L20.0481 28.146L7.88645 30.8619L19.4708 33.862L18.9694 35.7981L3.36941 31.7581C2.92216 31.6423 2.61248 31.2351 2.62026 30.7732C2.62804 30.3113 2.95127 29.9148 3.40217 29.8141Z" fill="white"/>
<path fill-rule="evenodd" clip-rule="evenodd" d="M54.1138 30.8619L41.9521 28.146L42.388 26.1941L58.5981 29.8141C59.049 29.9148 59.3722 30.3113 59.38 30.7732C59.3877 31.2351 59.0781 31.6423 58.6308 31.7581L43.0308 35.7981L42.5294 33.862L54.1138 30.8619Z" fill="white"/>
<path fill-rule="evenodd" clip-rule="evenodd" d="M11.0951 10.771C11.4272 10.45 11.936 10.3982 12.326 10.6457L26.346 19.5457L25.2741 21.2343L14.7534 14.5556L20.822 24.873L19.0981 25.887L10.9281 11.997C10.6939 11.5988 10.7629 11.0921 11.0951 10.771Z" fill="white"/>
<path fill-rule="evenodd" clip-rule="evenodd" d="M47.4447 47.2467L40.766 36.7259L42.4545 35.6541L51.3545 49.6741C51.6021 50.064 51.5503 50.5729 51.2293 50.905C50.9082 51.2371 50.4015 51.3061 50.0033 51.0719L36.1133 42.9019L37.1273 41.178L47.4447 47.2467Z" fill="white"/>
<path fill-rule="evenodd" clip-rule="evenodd" d="M51.2293 11.0951C51.5503 11.4272 51.6021 11.936 51.3545 12.326L42.4545 26.346L40.766 25.2741L47.4447 14.7534L37.1273 20.822L36.1133 19.0981L50.0033 10.9281C50.4015 10.6939 50.9082 10.7629 51.2293 11.0951Z" fill="white"/>
<path fill-rule="evenodd" clip-rule="evenodd" d="M14.7534 47.4444L20.822 37.127L19.0981 36.113L10.9281 50.003C10.6939 50.4012 10.7629 50.908 11.0951 51.229C11.4272 51.5501 11.936 51.6019 12.326 51.3543L26.346 42.4543L25.2741 40.7658L14.7534 47.4444Z" fill="white"/>
</g>
<defs>
<clipPath id="clip0_17_57">
<rect width="62" height="62" fill="white"/>
</clipPath>
</defs>
</svg>
