<svg width="62" height="62" viewBox="0 0 62 62" fill="none" xmlns="http://www.w3.org/2000/svg">
<g clip-path="url(#clip0_17_75)">
<path fill-rule="evenodd" clip-rule="evenodd" d="M7.51 2C4.46229 2 2 4.46229 2 7.51V54.49C2 57.5377 4.46229 60 7.51 60H27.33V62H7.51C3.35772 62 0 58.6423 0 54.49V7.51C0 3.35772 3.35772 0 7.51 0H54.49C58.6423 0 62 3.35772 62 7.51V54.49C62 58.6423 58.6423 62 54.49 62H34.61V60H54.49C57.5377 60 60 57.5377 60 54.49V7.51C60 4.46229 57.5377 2 54.49 2H7.51Z" fill="white"/>
<path d="M31.0001 25.8899C33.8201 25.8899 36.1101 28.1799 36.1101 30.9999C36.1101 33.8199 33.8201 36.1099 31.0001 36.1099C28.1801 36.1099 25.8901 33.8199 25.8901 30.9999C25.8901 28.1799 28.1801 25.8899 31.0001 25.8899ZM31.0001 23.8899C27.0801 23.8899 23.8901 27.0799 23.8901 30.9999C23.8901 34.9199 27.0801 38.1099 31.0001 38.1099C34.9201 38.1099 38.1101 34.9199 38.1101 30.9999C38.1101 27.0799 34.9201 23.8899 31.0001 23.8899Z" fill="white"/>
<path fill-rule="evenodd" clip-rule="evenodd" d="M25.4634 60.9174L27.4634 36.8074L29.4565 36.9727L27.4565 61.0827L25.4634 60.9174Z" fill="white"/>
<path fill-rule="evenodd" clip-rule="evenodd" d="M34.5366 36.8074L36.5366 60.9174L34.5435 61.0827L32.5435 36.9727L34.5366 36.8074Z" fill="white"/>
<path fill-rule="evenodd" clip-rule="evenodd" d="M28.0955 5.54004H33.9041L35.5367 26.2515L33.5429 26.4086L32.0555 7.54004H29.9441L28.4567 26.4086L26.4629 26.2515L28.0955 5.54004Z" fill="white"/>
<path fill-rule="evenodd" clip-rule="evenodd" d="M8.49818 40.4224L24.9541 31.0693L23.9659 29.3306L5.90186 39.5975L8.36729 44.8513L27.8121 37.5359L27.1079 35.664L9.39275 42.3286L8.49818 40.4224Z" fill="white"/>
<path fill-rule="evenodd" clip-rule="evenodd" d="M37.0342 29.3306L55.0983 39.5975L52.6328 44.8513L33.188 37.5359L33.8922 35.664L51.6074 42.3286L52.5019 40.4224L36.046 31.0693L37.0342 29.3306Z" fill="white"/>
</g>
<defs>
<clipPath id="clip0_17_75">
<rect width="62" height="62" fill="white"/>
</clipPath>
</defs>
</svg>
