<svg width="38" height="38" viewBox="0 0 38 38" fill="none" xmlns="http://www.w3.org/2000/svg">
<path d="M19 38C29.4934 38 38 29.4934 38 19C38 8.50659 29.4934 0 19 0C8.50659 0 0 8.50659 0 19C0 29.4934 8.50659 38 19 38Z" fill="#202326"/>
<path d="M11.0347 15.4608H14.7128V27.2863H11.0347V15.4608ZM12.8738 9.58008C14.0499 9.58008 15.0015 10.5317 15.0015 11.7078C15.0015 12.884 14.0499 13.8356 12.8738 13.8356C11.6976 13.8356 10.7354 12.884 10.7354 11.7078C10.7354 10.5424 11.687 9.58008 12.8738 9.58008Z" fill="white"/>
<path d="M17.0222 15.461H20.5506V17.0755H20.6041C21.0959 16.1453 22.2935 15.1616 24.0791 15.1616C27.7999 15.1616 28.4842 17.6101 28.4842 20.7964V27.2758H24.8168V21.5235C24.8168 20.1549 24.7847 18.3907 22.9029 18.3907C20.989 18.3907 20.7003 19.8876 20.7003 21.4272V27.2758H17.0222V15.461Z" fill="white"/>
</svg>
