<svg width="184" height="118" viewBox="0 0 184 118" fill="none" xmlns="http://www.w3.org/2000/svg">
<g clip-path="url(#clip0_17_732)">
<path d="M0 5.52012C0 2.51012 2.41 0.0201211 5.43 0.000121094C8.45 -0.0198789 10.92 2.44012 10.92 5.46012V31.1401C10.92 34.1501 8.51 36.6401 5.49 36.6601C2.47 36.6801 0 34.2201 0 31.2001V5.52012Z" fill="#BC9E30"/>
<path d="M23.6498 26.5898C24.6498 26.5898 25.3898 26.5898 25.8598 26.5898H27.2998L27.1598 29.0998L27.0698 32.1798C26.2098 32.3798 25.4398 32.5298 24.7498 32.6098C24.0598 32.6898 23.4798 32.7398 22.9998 32.7398C22.1598 32.7398 21.3598 32.6298 20.5998 32.3998C19.8398 32.1698 19.1798 31.8298 18.6398 31.3698C18.0998 30.9098 17.6998 30.3398 17.4398 29.6498C17.1798 28.9598 17.0498 28.2398 17.0498 27.4698C17.0498 26.5898 17.2198 25.7598 17.5598 24.9698C17.8998 24.1798 18.3598 23.5298 18.9498 23.0098C19.5398 22.4898 20.2198 22.1098 20.9998 21.8798C21.7698 21.6498 22.6098 21.5298 23.5098 21.5298C24.0098 21.5298 24.5298 21.5598 25.0498 21.6198C25.5698 21.6798 26.1898 21.7898 26.8998 21.9398C26.9098 22.2098 26.9298 22.4598 26.9698 22.6698C26.1898 22.4198 25.5198 22.2498 24.9598 22.1598C24.4098 22.0698 23.8898 22.0298 23.4098 22.0298C22.5998 22.0298 21.8298 22.1498 21.0998 22.3998C20.3698 22.6498 19.7498 23.0098 19.2398 23.4998C18.7298 23.9898 18.3498 24.5898 18.0798 25.3098C17.8098 26.0298 17.6798 26.7698 17.6798 27.5298C17.6798 28.2498 17.7998 28.9098 18.0298 29.5298C18.2598 30.1498 18.6098 30.6498 19.0798 31.0398C19.5498 31.4298 20.1098 31.7398 20.7798 31.9498C21.4498 32.1598 22.1798 32.2598 22.9798 32.2598C23.2498 32.2598 23.5498 32.2498 23.8798 32.2198C24.1998 32.1898 24.5298 32.1498 24.8498 32.0998C25.1698 32.0498 25.4398 31.9998 25.6398 31.9498C25.8498 31.8998 26.1198 31.8198 26.4498 31.7198L26.6498 27.0798H25.6698C25.4098 27.0798 25.1398 27.0798 24.8798 27.0798L23.6398 27.1298C23.6598 26.9598 23.6598 26.8098 23.6598 26.6698V26.5798L23.6498 26.5898Z" fill="#545454"/>
<path d="M29.4997 32.5797C29.7497 28.1497 29.8997 24.5197 29.9397 21.6997C30.0797 21.6997 30.1897 21.6997 30.2797 21.6997C30.3697 21.6997 30.4697 21.6997 30.6197 21.6997L30.4097 25.5797L30.1697 32.5797C30.0297 32.5797 29.9197 32.5797 29.8297 32.5797C29.7397 32.5797 29.6397 32.5797 29.4897 32.5797H29.4997Z" fill="#545454"/>
<path d="M36.4499 24.3599C36.9599 24.3599 37.4499 24.4299 37.9299 24.5699C38.4099 24.7099 38.8299 24.9399 39.1899 25.2799C39.5499 25.6099 39.8299 26.0499 40.0199 26.5799C40.2099 27.1199 40.3099 27.6799 40.3099 28.2899C40.3099 28.9399 40.2099 29.5599 40.0099 30.1599C39.8099 30.7599 39.5199 31.2499 39.1499 31.6599C38.7799 32.0699 38.3399 32.3399 37.8399 32.5099C37.3399 32.6799 36.8099 32.7599 36.2399 32.7599C35.8499 32.7599 35.4599 32.7199 35.0799 32.6299C34.6999 32.5399 34.3399 32.3899 34.0099 32.1899C33.6799 31.9799 33.3899 31.7099 33.1399 31.3799C32.8899 31.0499 32.6999 30.6599 32.5699 30.2099C32.4399 29.7599 32.3799 29.2899 32.3799 28.7999C32.3799 27.9399 32.5399 27.1599 32.8699 26.4499C33.1999 25.7399 33.6899 25.2199 34.3399 24.8799C34.9999 24.5499 35.6999 24.3799 36.4499 24.3799V24.3599ZM36.4299 24.8099C35.7799 24.8099 35.1699 24.9599 34.6099 25.2699C34.0499 25.5799 33.6399 26.0499 33.3799 26.6799C33.1199 27.3099 32.9899 27.9999 32.9899 28.7599C32.9899 29.2899 33.0699 29.7899 33.2199 30.2599C33.3699 30.7299 33.6099 31.1199 33.9499 31.4399C34.2799 31.7599 34.6399 31.9799 35.0299 32.1099C35.4199 32.2299 35.8199 32.2999 36.2499 32.2999C36.7399 32.2999 37.1899 32.2199 37.6199 32.0699C38.0499 31.9199 38.4199 31.6599 38.7499 31.2999C39.0799 30.9399 39.3199 30.4999 39.4699 29.9699C39.6199 29.4399 39.6999 28.8899 39.6999 28.2999C39.6999 27.7499 39.6199 27.2399 39.4699 26.7599C39.3199 26.2799 39.0799 25.8899 38.7699 25.6099C38.4499 25.3199 38.0899 25.1199 37.6899 24.9999C37.2899 24.8799 36.8699 24.8199 36.4399 24.8199L36.4299 24.8099Z" fill="#545454"/>
<path d="M42.1596 32.5797L42.2197 31.7897L42.4496 25.2197L42.5396 21.6997C42.6796 21.6997 42.7996 21.6997 42.8896 21.6997C42.9796 21.6997 43.0997 21.6997 43.2397 21.6997C43.1797 22.2997 43.1396 22.8997 43.1096 23.4897L43.0496 24.7297C43.6496 24.5797 44.1596 24.4797 44.5696 24.4397C44.9796 24.3897 45.3796 24.3697 45.7796 24.3697C46.4796 24.3697 47.0796 24.4497 47.5996 24.6197C48.1196 24.7897 48.5497 25.0697 48.8797 25.4597C49.2197 25.8497 49.4596 26.2797 49.5996 26.7597C49.7396 27.2397 49.8097 27.7397 49.8097 28.2697C49.8097 28.8597 49.7297 29.4297 49.5597 29.9897C49.3997 30.5497 49.1396 31.0397 48.7896 31.4897C48.4397 31.9297 48.0196 32.2597 47.5296 32.4497C47.0396 32.6497 46.4897 32.7497 45.8997 32.7497C45.5497 32.7497 45.2196 32.7097 44.9096 32.6297C44.5896 32.5497 44.3197 32.4397 44.0797 32.2997C43.8397 32.1597 43.6396 32.0097 43.4796 31.8397C43.3196 31.6697 43.1896 31.5097 43.0996 31.3397C43.0096 31.1697 42.9097 30.9497 42.8097 30.6597L42.7896 32.5897C42.6496 32.5897 42.5396 32.5897 42.4596 32.5897C42.3796 32.5897 42.2796 32.5897 42.1396 32.5897L42.1596 32.5797ZM43.0496 25.2897C43.0096 26.3697 42.9796 27.0697 42.9496 27.3897C42.9296 27.7097 42.9196 28.0897 42.9196 28.5297C42.9196 29.0997 42.9596 29.5997 43.0496 30.0397C43.1396 30.4797 43.3097 30.8697 43.5597 31.2197C43.8097 31.5697 44.1396 31.8297 44.5396 32.0097C44.9397 32.1897 45.3897 32.2797 45.8797 32.2797C46.3696 32.2797 46.8296 32.1897 47.2596 32.0097C47.6896 31.8297 48.0397 31.5397 48.3297 31.1497C48.6097 30.7597 48.8296 30.2997 48.9796 29.7697C49.1296 29.2397 49.2096 28.7197 49.2096 28.1897C49.2096 27.4497 49.0596 26.8097 48.7696 26.2797C48.4796 25.7497 48.0796 25.3697 47.5896 25.1497C47.0996 24.9197 46.5196 24.8097 45.8596 24.8097C45.4496 24.8097 45.0296 24.8497 44.5896 24.9097C44.1496 24.9797 43.6396 25.1097 43.0396 25.2897H43.0496Z" fill="#545454"/>
<path d="M52.09 25.3699C52.13 25.1899 52.16 24.9799 52.18 24.7499C52.74 24.5999 53.22 24.4999 53.63 24.4399C54.04 24.3799 54.46 24.3599 54.88 24.3599C55.37 24.3599 55.82 24.3999 56.24 24.4799C56.66 24.5599 57 24.6999 57.27 24.8899C57.54 25.0799 57.71 25.3099 57.8 25.5599C57.89 25.8099 57.93 26.0599 57.93 26.3299C57.93 26.5999 57.93 26.9299 57.9 27.3399C57.88 27.7499 57.86 28.1799 57.82 28.6499C57.79 29.1199 57.76 29.6999 57.73 30.3999C57.7 31.0999 57.69 31.5999 57.69 31.9099V32.5799C57.55 32.5799 57.43 32.5799 57.34 32.5799C57.25 32.5799 57.13 32.5799 56.99 32.5799C57.07 31.7699 57.12 31.1099 57.15 30.5999C57.18 30.0899 57.2 29.5499 57.22 28.9699C57.24 28.3899 57.26 27.8499 57.3 27.3399C57.13 27.4799 57 27.5799 56.91 27.6499C56.82 27.7199 56.72 27.7799 56.61 27.8299C56.5 27.8799 56.37 27.9399 56.22 27.9899C56.07 28.0499 55.93 28.0899 55.81 28.1299C55.68 28.1699 55.38 28.2499 54.89 28.3799C54.41 28.5099 54.06 28.5999 53.85 28.6699C53.38 28.8199 53.01 28.9599 52.76 29.0899C52.48 29.2299 52.25 29.3899 52.06 29.5699C51.9 29.7199 51.78 29.8899 51.7 30.0599C51.61 30.2599 51.57 30.4799 51.57 30.6999C51.57 31.0399 51.68 31.3399 51.89 31.5999C52.1 31.8499 52.37 32.0299 52.7 32.1399C53.03 32.2399 53.42 32.2999 53.88 32.2999C54.11 32.2999 54.33 32.2899 54.55 32.2599C54.76 32.2399 54.97 32.1999 55.15 32.1599C55.34 32.1199 55.61 32.0399 55.97 31.9299C55.92 32.1299 55.88 32.3299 55.85 32.5399C55.41 32.6199 55.05 32.6799 54.77 32.6999C54.49 32.7199 54.23 32.7399 53.98 32.7399C53.52 32.7399 53.1 32.7099 52.71 32.6399C52.32 32.5699 52 32.4399 51.73 32.2299C51.47 32.0299 51.27 31.7999 51.15 31.5299C51.03 31.2599 50.96 30.9899 50.96 30.6899C50.96 30.4699 51 30.2499 51.07 30.0399C51.15 29.8299 51.26 29.6299 51.42 29.4399C51.55 29.2799 51.73 29.1299 51.95 28.9899C52.21 28.8199 52.49 28.6799 52.8 28.5599C53.16 28.4199 53.55 28.2999 53.97 28.1799C54.09 28.1499 54.54 28.0299 55.33 27.8399C55.69 27.7499 56.02 27.6399 56.34 27.4999C56.66 27.3599 56.9 27.1799 57.08 26.9299C57.26 26.6899 57.34 26.4399 57.34 26.1899C57.34 26.0099 57.3 25.8399 57.22 25.6699C57.14 25.4999 56.99 25.3399 56.78 25.1999C56.57 25.0499 56.31 24.9499 56 24.8899C55.69 24.8299 55.36 24.7999 55.01 24.7999C54.61 24.7999 54.24 24.8299 53.89 24.8799C53.54 24.9299 53.24 24.9899 53 25.0599C52.76 25.1299 52.46 25.2299 52.09 25.3699Z" fill="#545454"/>
<path d="M60.03 32.5797C60.28 28.1497 60.43 24.5197 60.47 21.6997C60.61 21.6997 60.72 21.6997 60.81 21.6997C60.9 21.6997 61 21.6997 61.15 21.6997L60.94 25.5797L60.7 32.5797C60.56 32.5797 60.45 32.5797 60.36 32.5797C60.27 32.5797 60.17 32.5797 60.02 32.5797H60.03Z" fill="#545454"/>
<path d="M67.5498 32.5797L67.7198 30.0497L67.9298 24.3397L67.9798 21.6997C68.1198 21.6997 68.2298 21.6997 68.3398 21.6997C68.4498 21.6997 68.5698 21.6997 68.7098 21.6997L68.4198 27.9197L68.2698 32.0797H69.9498C71.1498 32.0797 71.9798 32.0797 72.4398 32.0797C72.8998 32.0797 73.3398 32.0497 73.7698 32.0197C73.7498 32.2297 73.7398 32.4197 73.7398 32.5897C72.5798 32.5897 71.5998 32.5897 70.8098 32.5897H67.5598L67.5498 32.5797Z" fill="#545454"/>
<path d="M75.02 32.5797C75.08 31.7797 75.15 30.3897 75.23 28.4097C75.31 26.4297 75.35 25.1297 75.35 24.5297C75.49 24.5297 75.6 24.5297 75.67 24.5297C75.75 24.5297 75.86 24.5297 76 24.5297C75.92 25.5397 75.85 26.9197 75.77 28.6597C75.69 30.3997 75.66 31.7097 75.66 32.5797C75.52 32.5797 75.41 32.5797 75.33 32.5797C75.25 32.5797 75.14 32.5797 75 32.5797H75.02ZM75.32 22.4897L75.34 21.6997C75.48 21.6997 75.62 21.6997 75.76 21.6997C75.9 21.6997 76.04 21.6997 76.18 21.6997L76.16 22.4897C76.02 22.4797 75.88 22.4697 75.74 22.4697C75.6 22.4697 75.46 22.4697 75.32 22.4897Z" fill="#545454"/>
<path d="M81.4399 32.0797C81.3999 32.2397 81.3599 32.4097 81.3399 32.5797C80.8999 32.6897 80.4899 32.7397 80.1199 32.7397C79.8099 32.7397 79.5299 32.7097 79.2899 32.6397C79.0499 32.5697 78.8499 32.4497 78.6899 32.2797C78.5399 32.1097 78.4399 31.9197 78.3899 31.7097C78.3399 31.4997 78.3199 31.2797 78.3199 31.0397C78.3199 30.9997 78.3199 30.9297 78.3199 30.8397C78.3199 30.7497 78.3299 30.5497 78.3499 30.2397L78.6199 24.9597H77.6099C77.6299 24.8197 77.6499 24.6697 77.6499 24.5297H78.6499C78.6799 24.1997 78.6999 23.6997 78.7199 23.0297C78.9299 22.9997 79.1099 22.9697 79.2599 22.9297C79.2199 23.7897 79.1999 24.3297 79.1999 24.5297H81.6699C81.6499 24.6697 81.6299 24.8197 81.6299 24.9597H79.1799L78.9099 30.4197V30.7497C78.9099 31.1997 78.9499 31.5197 79.0599 31.7197C79.1699 31.9197 79.3199 32.0697 79.5099 32.1597C79.6999 32.2497 79.9099 32.2897 80.1099 32.2897C80.2599 32.2897 80.4199 32.2797 80.5799 32.2597C80.7499 32.2397 81.0299 32.1797 81.4399 32.0797Z" fill="#545454"/>
<path d="M82.8 32.5799L83.05 27.3799C83.07 26.8799 83.1 25.5699 83.15 23.4699L83.2 21.6899C83.33 21.6899 83.43 21.6899 83.51 21.6899C83.6 21.6899 83.71 21.6899 83.83 21.6899L83.61 26.3499C83.74 26.0999 83.84 25.8999 83.93 25.7599C84.02 25.6199 84.14 25.4699 84.3 25.3199C84.45 25.1699 84.62 25.0399 84.79 24.9299C84.96 24.8199 85.16 24.7299 85.37 24.6399C85.59 24.5599 85.84 24.4899 86.13 24.4399C86.42 24.3899 86.73 24.3599 87.05 24.3599C87.53 24.3599 87.98 24.4099 88.41 24.5099C88.84 24.6099 89.2 24.7699 89.5 24.9999C89.8 25.2299 90.01 25.5099 90.12 25.8299C90.24 26.1499 90.29 26.4799 90.29 26.7999C90.29 26.9099 90.29 27.0499 90.29 27.2499C90.28 27.5399 90.26 27.9399 90.22 28.4399L90.08 31.6799C90.07 31.8899 90.06 32.1799 90.05 32.5699C89.91 32.5699 89.8 32.5699 89.72 32.5699C89.64 32.5699 89.53 32.5699 89.39 32.5699C89.46 31.8799 89.5 31.1899 89.54 30.4999L89.65 28.5499C89.69 27.9499 89.71 27.4299 89.71 26.9999C89.71 26.4999 89.61 26.0799 89.42 25.7599C89.23 25.4399 88.9 25.1999 88.44 25.0399C87.98 24.8799 87.5 24.7999 86.99 24.7999C86.65 24.7999 86.32 24.8399 85.99 24.9099C85.68 24.9799 85.41 25.0699 85.18 25.1899C84.99 25.2899 84.81 25.4099 84.65 25.5499C84.48 25.6999 84.33 25.8799 84.19 26.0899C84.04 26.3299 83.92 26.5899 83.82 26.8899C83.73 27.1599 83.66 27.5199 83.61 27.9799C83.57 28.3399 83.53 29.0299 83.5 30.0699L83.43 32.5699C83.29 32.5699 83.18 32.5699 83.11 32.5699C83.04 32.5699 82.93 32.5699 82.79 32.5699L82.8 32.5799Z" fill="#545454"/>
<path d="M99.6298 32.5796C99.5198 32.5796 99.4198 32.5796 99.3298 32.5796C99.2398 32.5796 99.1398 32.5796 99.0298 32.5796L99.0998 30.8496C98.9698 31.1196 98.8698 31.3196 98.7898 31.4396C98.7098 31.5596 98.6098 31.6895 98.4798 31.8195C98.3498 31.9495 98.1998 32.0796 98.0098 32.1996C97.8198 32.3196 97.5998 32.4195 97.3398 32.5095C97.0798 32.5995 96.8198 32.6595 96.5498 32.6895C96.2798 32.7295 96.0098 32.7495 95.7298 32.7495C95.2598 32.7495 94.8198 32.6995 94.4098 32.5995C93.9998 32.4995 93.6398 32.3195 93.3298 32.0695C93.0098 31.8195 92.7998 31.5296 92.6798 31.1996C92.5598 30.8696 92.5098 30.4895 92.5098 30.0695C92.5098 29.7495 92.5498 28.9395 92.6198 27.6695C92.6898 26.3895 92.7298 25.3496 92.7298 24.5396C92.8698 24.5396 92.9798 24.5396 93.0498 24.5396C93.1198 24.5396 93.2298 24.5396 93.3698 24.5396C93.3298 24.9996 93.2598 25.9495 93.1798 27.3895C93.0998 28.8295 93.0498 29.7295 93.0498 30.0896C93.0498 30.4896 93.1098 30.8396 93.2098 31.1196C93.3098 31.3996 93.5098 31.6295 93.7798 31.8195C94.0498 32.0095 94.3598 32.1295 94.6998 32.2095C95.0398 32.2795 95.3998 32.3195 95.7598 32.3195C96.1198 32.3195 96.4998 32.2696 96.8498 32.1796C97.1998 32.0896 97.4898 31.9695 97.7198 31.8295C97.9498 31.6895 98.1498 31.5195 98.3298 31.3195C98.5298 31.0895 98.7098 30.8196 98.8498 30.5096C98.9798 30.2396 99.0698 29.8995 99.1298 29.4995C99.1898 29.0995 99.2398 28.3695 99.2798 27.3195C99.3198 26.3095 99.3398 25.3895 99.3398 24.5495C99.4898 24.5495 99.5998 24.5495 99.6698 24.5495C99.7398 24.5495 99.8498 24.5495 99.9898 24.5495L99.6898 30.1295L99.6598 31.3295C99.6498 31.8195 99.6398 32.2495 99.6398 32.5995L99.6298 32.5796Z" fill="#545454"/>
<path d="M102.07 32.5797C102.13 31.7797 102.2 30.3897 102.28 28.4097C102.36 26.4297 102.4 25.1297 102.4 24.5297C102.54 24.5297 102.65 24.5297 102.72 24.5297C102.8 24.5297 102.91 24.5297 103.05 24.5297C102.97 25.5397 102.9 26.9197 102.82 28.6597C102.75 30.3997 102.71 31.7097 102.71 32.5797C102.57 32.5797 102.46 32.5797 102.38 32.5797C102.3 32.5797 102.19 32.5797 102.05 32.5797H102.07ZM102.37 22.4897L102.39 21.6997C102.53 21.6997 102.67 21.6997 102.81 21.6997C102.95 21.6997 103.09 21.6997 103.23 21.6997L103.21 22.4897C103.07 22.4797 102.93 22.4697 102.79 22.4697C102.65 22.4697 102.51 22.4697 102.37 22.4897Z" fill="#545454"/>
<path d="M105.09 32.5799L105.18 31.4999C105.2 31.2799 105.21 31.0599 105.22 30.8499L105.43 25.5299C105.43 25.1399 105.43 24.8099 105.43 24.5299C105.54 24.5299 105.65 24.5299 105.75 24.5299C105.85 24.5299 105.96 24.5299 106.06 24.5299L105.98 26.1999C106.16 25.8799 106.32 25.6199 106.47 25.4299C106.62 25.2399 106.82 25.0699 107.07 24.8999C107.32 24.7299 107.6 24.5999 107.92 24.4999C108.24 24.3999 108.57 24.3599 108.92 24.3599C109.22 24.3599 109.5 24.3999 109.77 24.4699C110.04 24.5399 110.27 24.6399 110.46 24.7499C110.65 24.8599 110.81 24.9899 110.93 25.1299C111.06 25.2699 111.15 25.4099 111.22 25.5599C111.29 25.7099 111.36 25.9099 111.42 26.1699C111.53 25.9599 111.63 25.7799 111.73 25.6299C111.83 25.4799 111.96 25.3199 112.13 25.1599C112.3 24.9999 112.5 24.8599 112.73 24.7399C112.96 24.6199 113.22 24.5299 113.5 24.4599C113.78 24.3899 114.07 24.3599 114.37 24.3599C114.82 24.3599 115.25 24.4399 115.66 24.5899C116.07 24.7399 116.38 24.9799 116.6 25.3199C116.82 25.6599 116.93 26.0599 116.93 26.5199C116.93 26.7799 116.91 27.1799 116.87 27.6999C116.83 28.2299 116.79 28.9799 116.74 29.9599C116.69 30.9299 116.67 31.8099 116.66 32.5799C116.52 32.5799 116.41 32.5799 116.33 32.5799C116.25 32.5799 116.14 32.5799 116 32.5799C116.05 31.9299 116.1 31.1499 116.15 30.2399L116.27 28.0499C116.3 27.4999 116.32 27.0499 116.32 26.6999C116.32 26.5099 116.32 26.3499 116.3 26.2199C116.28 26.0799 116.25 25.9499 116.19 25.8199C116.13 25.6899 116.05 25.5699 115.94 25.4499C115.83 25.3299 115.7 25.2299 115.54 25.1399C115.38 25.0499 115.2 24.9799 114.98 24.9299C114.76 24.8799 114.53 24.8499 114.28 24.8499C113.92 24.8499 113.6 24.8999 113.29 25.0099C112.99 25.1199 112.72 25.2699 112.48 25.4599C112.24 25.6499 112.04 25.8799 111.88 26.1499C111.72 26.4199 111.6 26.7899 111.5 27.2499C111.41 27.6499 111.35 28.3599 111.32 29.3899L111.23 32.5799C111.09 32.5799 110.98 32.5799 110.9 32.5799C110.82 32.5799 110.71 32.5799 110.57 32.5799C110.63 31.8499 110.67 31.1399 110.69 30.4399L110.79 28.4299C110.82 27.7899 110.84 27.2599 110.84 26.8399C110.84 26.4499 110.8 26.1399 110.72 25.9299C110.64 25.7199 110.52 25.5299 110.35 25.3699C110.18 25.1999 109.96 25.0799 109.7 24.9799C109.44 24.8899 109.15 24.8399 108.84 24.8399C108.5 24.8399 108.17 24.8899 107.86 24.9999C107.55 25.1099 107.27 25.2599 107.03 25.4599C106.79 25.6599 106.58 25.8999 106.42 26.1999C106.25 26.4899 106.12 26.8699 106.01 27.3499C105.92 27.7699 105.85 28.5099 105.8 29.5699C105.75 30.7399 105.72 31.7399 105.72 32.5699C105.58 32.5699 105.47 32.5699 105.39 32.5699C105.31 32.5699 105.2 32.5699 105.06 32.5699L105.09 32.5799Z" fill="#545454"/>
<path d="M122.84 32.2498C122.84 32.0398 122.82 31.7998 122.79 31.5298C123.83 32.0098 124.77 32.2498 125.63 32.2498C126.12 32.2498 126.56 32.1698 126.96 32.0198C127.36 31.8698 127.66 31.6398 127.88 31.3298C128.1 31.0198 128.2 30.6798 128.2 30.2798C128.2 30.0798 128.17 29.8998 128.1 29.7198C128.03 29.5398 127.92 29.3598 127.77 29.1798C127.62 28.9998 127.39 28.7598 127.1 28.4698C126.81 28.1798 126.28 27.7298 125.53 27.1198L124.88 26.5898C124.65 26.3998 124.44 26.1998 124.23 25.9898C124.02 25.7798 123.85 25.5898 123.71 25.4098C123.57 25.2298 123.47 25.0698 123.4 24.9298C123.33 24.7898 123.28 24.6298 123.24 24.4598C123.2 24.2898 123.18 24.1098 123.18 23.9298C123.18 23.4998 123.3 23.0998 123.54 22.7198C123.78 22.3498 124.14 22.0498 124.62 21.8398C125.1 21.6198 125.7 21.5098 126.44 21.5098C126.95 21.5098 127.6 21.5798 128.39 21.7198C128.39 21.9198 128.42 22.1398 128.46 22.3898C127.96 22.2398 127.54 22.1298 127.2 22.0798C126.87 22.0298 126.55 21.9998 126.25 21.9998C125.71 21.9998 125.26 22.0898 124.91 22.2598C124.56 22.4298 124.29 22.6598 124.1 22.9498C123.91 23.2398 123.81 23.5398 123.81 23.8598C123.81 24.0298 123.84 24.1998 123.89 24.3598C123.94 24.5198 124.03 24.6898 124.16 24.8498C124.28 25.0198 124.45 25.1998 124.66 25.3998C124.87 25.5998 125.11 25.8298 125.4 26.0798C125.68 26.3398 126.06 26.6598 126.54 27.0598C127.01 27.4598 127.35 27.7398 127.54 27.9098C127.73 28.0798 127.92 28.2598 128.1 28.4498C128.28 28.6398 128.42 28.8298 128.53 29.0198C128.64 29.2098 128.72 29.3998 128.77 29.6098C128.82 29.8098 128.85 30.0298 128.85 30.2498C128.85 30.7498 128.72 31.1898 128.46 31.5698C128.2 31.9498 127.82 32.2298 127.31 32.4298C126.8 32.6198 126.23 32.7198 125.6 32.7198C125.19 32.7198 124.8 32.6898 124.42 32.6298C124.04 32.5698 123.52 32.4298 122.88 32.2298L122.84 32.2498Z" fill="#545454"/>
<path d="M137.88 32.5796C137.77 32.5796 137.67 32.5796 137.58 32.5796C137.49 32.5796 137.39 32.5796 137.28 32.5796L137.35 30.8496C137.22 31.1196 137.12 31.3196 137.04 31.4396C136.96 31.5596 136.86 31.6895 136.73 31.8195C136.6 31.9495 136.45 32.0796 136.26 32.1996C136.07 32.3196 135.85 32.4195 135.59 32.5095C135.33 32.5895 135.07 32.6595 134.8 32.6895C134.53 32.7195 134.26 32.7495 133.98 32.7495C133.51 32.7495 133.07 32.6995 132.66 32.5995C132.25 32.4995 131.89 32.3195 131.58 32.0695C131.27 31.8195 131.05 31.5296 130.93 31.1996C130.81 30.8696 130.76 30.4895 130.76 30.0695C130.76 29.7495 130.8 28.9395 130.87 27.6695C130.94 26.3895 130.98 25.3496 130.98 24.5396C131.12 24.5396 131.23 24.5396 131.3 24.5396C131.37 24.5396 131.48 24.5396 131.62 24.5396C131.58 24.9996 131.51 25.9495 131.43 27.3895C131.35 28.8295 131.3 29.7295 131.3 30.0896C131.3 30.4896 131.35 30.8396 131.46 31.1196C131.57 31.3996 131.76 31.6295 132.03 31.8195C132.3 31.9995 132.61 32.1295 132.95 32.2095C133.29 32.2895 133.64 32.3195 134.01 32.3195C134.38 32.3195 134.75 32.2696 135.1 32.1796C135.45 32.0896 135.74 31.9695 135.97 31.8295C136.2 31.6895 136.4 31.5195 136.58 31.3195C136.78 31.0895 136.96 30.8196 137.1 30.5096C137.23 30.2396 137.32 29.8995 137.38 29.4995C137.44 29.0995 137.49 28.3695 137.53 27.3195C137.57 26.3095 137.59 25.3895 137.59 24.5495C137.74 24.5495 137.85 24.5495 137.92 24.5495C137.99 24.5495 138.1 24.5495 138.24 24.5495L137.94 30.1295L137.91 31.3295C137.9 31.8195 137.89 32.2495 137.89 32.5995L137.88 32.5796Z" fill="#545454"/>
<path d="M140.1 36.1099L140.2 34.4999L140.46 27.2799L140.52 24.8599C141.23 24.6699 141.86 24.5399 142.39 24.4699C142.92 24.3899 143.44 24.3599 143.95 24.3599C144.75 24.3599 145.44 24.4899 146.03 24.7499C146.61 25.0099 147.07 25.4599 147.39 26.0999C147.71 26.7399 147.88 27.4599 147.88 28.2799C147.88 29.1399 147.71 29.9299 147.37 30.6499C147.03 31.3699 146.56 31.8899 145.98 32.2299C145.4 32.5699 144.75 32.7399 144.03 32.7399C143.71 32.7399 143.39 32.7099 143.08 32.6399C142.77 32.5699 142.48 32.4699 142.22 32.3299C141.96 32.1899 141.74 32.0199 141.55 31.8099C141.37 31.6099 141.15 31.2899 140.91 30.8499L140.78 35.0699V35.3399C140.78 35.5199 140.78 35.7799 140.78 36.1199C140.64 36.1199 140.53 36.1199 140.44 36.1199C140.35 36.1199 140.25 36.1199 140.1 36.1199V36.1099ZM141.15 25.3599C141.11 25.8099 141.07 26.4599 141.03 27.2999C140.99 28.1399 140.98 28.6999 140.98 28.9699C140.98 29.4299 141.03 29.8599 141.13 30.2599C141.23 30.6599 141.43 31.0199 141.72 31.3399C142.02 31.6699 142.37 31.9099 142.77 32.0799C143.17 32.2399 143.59 32.3299 144.03 32.3299C144.65 32.3299 145.21 32.1699 145.7 31.8399C146.19 31.5099 146.58 31.0399 146.85 30.3999C147.12 29.7699 147.26 29.0699 147.26 28.3199C147.26 27.5699 147.12 26.9199 146.84 26.3699C146.56 25.8199 146.18 25.4299 145.7 25.1799C145.22 24.9299 144.68 24.8099 144.07 24.8099C143.15 24.8099 142.19 24.9899 141.16 25.3599H141.15Z" fill="#545454"/>
<path d="M149.5 36.1099L149.6 34.4999L149.86 27.2799L149.92 24.8599C150.63 24.6699 151.26 24.5399 151.79 24.4699C152.33 24.3899 152.84 24.3599 153.35 24.3599C154.15 24.3599 154.84 24.4899 155.43 24.7499C156.01 25.0099 156.47 25.4599 156.79 26.0999C157.11 26.7399 157.28 27.4599 157.28 28.2799C157.28 29.1399 157.11 29.9299 156.77 30.6499C156.43 31.3699 155.96 31.8899 155.38 32.2299C154.8 32.5699 154.15 32.7399 153.43 32.7399C153.11 32.7399 152.79 32.7099 152.48 32.6399C152.17 32.5699 151.88 32.4699 151.62 32.3299C151.36 32.1899 151.14 32.0199 150.95 31.8099C150.77 31.6099 150.55 31.2899 150.31 30.8499L150.18 35.0699V35.3399C150.18 35.5199 150.18 35.7799 150.18 36.1199C150.04 36.1199 149.93 36.1199 149.84 36.1199C149.75 36.1199 149.65 36.1199 149.5 36.1199V36.1099ZM150.55 25.3599C150.51 25.8099 150.46 26.4599 150.43 27.2999C150.39 28.1399 150.38 28.6999 150.38 28.9699C150.38 29.4299 150.43 29.8599 150.53 30.2599C150.63 30.6599 150.83 31.0199 151.12 31.3399C151.42 31.6699 151.77 31.9099 152.17 32.0799C152.57 32.2399 152.99 32.3299 153.43 32.3299C154.05 32.3299 154.61 32.1699 155.1 31.8399C155.59 31.5199 155.98 31.0399 156.25 30.3999C156.52 29.7699 156.66 29.0699 156.66 28.3199C156.66 27.5699 156.52 26.9199 156.24 26.3699C155.96 25.8199 155.58 25.4299 155.1 25.1799C154.62 24.9299 154.08 24.8099 153.47 24.8099C152.55 24.8099 151.59 24.9899 150.57 25.3599H150.55Z" fill="#545454"/>
<path d="M159.09 32.5797C159.34 28.1497 159.49 24.5197 159.53 21.6997C159.67 21.6997 159.78 21.6997 159.87 21.6997C159.96 21.6997 160.06 21.6997 160.21 21.6997L160 25.5797L159.76 32.5797C159.62 32.5797 159.51 32.5797 159.42 32.5797C159.33 32.5797 159.23 32.5797 159.08 32.5797H159.09Z" fill="#545454"/>
<path d="M160.54 36.2896C160.54 36.1096 160.52 35.9095 160.49 35.6695C160.66 35.7395 160.8 35.7996 160.91 35.8296C161.02 35.8696 161.15 35.8895 161.31 35.9195C161.47 35.9395 161.61 35.9595 161.74 35.9595C162.05 35.9595 162.35 35.8795 162.62 35.7295C162.89 35.5795 163.17 35.2596 163.45 34.7896C163.73 34.3196 164.06 33.6695 164.43 32.8396L162.62 27.9496L161.32 24.5396C161.48 24.5396 161.61 24.5396 161.71 24.5396C161.81 24.5396 161.94 24.5396 162.1 24.5396L162.25 25.1096C162.31 25.3296 162.38 25.5496 162.46 25.7696C162.56 26.0796 162.7 26.4896 162.9 27.0096L164.77 32.1796L167.36 26.5695C167.6 26.0495 167.76 25.6796 167.85 25.4496C167.94 25.2196 168.06 24.9196 168.19 24.5396C168.35 24.5396 168.47 24.5396 168.56 24.5396C168.65 24.5396 168.78 24.5396 168.94 24.5396C168.67 25.1296 168.17 26.1896 167.44 27.6996L165.84 31.0595L164.3 34.3396C164.06 34.8396 163.85 35.2195 163.68 35.4595C163.54 35.6495 163.39 35.7995 163.24 35.9395C163.12 36.0395 163 36.1195 162.85 36.1895C162.68 36.2695 162.5 36.3396 162.3 36.3796C162.09 36.4296 161.87 36.4595 161.64 36.4595C161.29 36.4595 160.93 36.4095 160.55 36.2995L160.54 36.2896Z" fill="#545454"/>
<path opacity="0.65" d="M0 86.7501C0 83.7401 2.41 81.2501 5.43 81.2301C8.45 81.2101 10.92 83.6701 10.92 86.6901V112.37C10.92 115.38 8.51 117.87 5.49 117.89C2.47 117.91 0 115.45 0 112.43V86.7501Z" fill="black"/>
<path d="M23.6498 107.81C24.6498 107.81 25.3898 107.81 25.8598 107.81H27.2998L27.1598 110.32L27.0698 113.4C26.2098 113.6 25.4398 113.75 24.7498 113.83C24.0598 113.91 23.4798 113.96 22.9998 113.96C22.1598 113.96 21.3598 113.85 20.5998 113.62C19.8398 113.39 19.1798 113.05 18.6398 112.59C18.0998 112.13 17.6998 111.56 17.4398 110.87C17.1798 110.18 17.0498 109.46 17.0498 108.69C17.0498 107.81 17.2198 106.98 17.5598 106.19C17.8998 105.4 18.3598 104.75 18.9498 104.23C19.5398 103.71 20.2198 103.33 20.9998 103.1C21.7698 102.87 22.6098 102.75 23.5098 102.75C24.0098 102.75 24.5298 102.78 25.0498 102.84C25.5698 102.9 26.1898 103.01 26.8998 103.16C26.9098 103.43 26.9298 103.68 26.9698 103.89C26.1898 103.64 25.5198 103.47 24.9598 103.38C24.4098 103.29 23.8898 103.25 23.4098 103.25C22.5998 103.25 21.8298 103.37 21.0998 103.62C20.3698 103.87 19.7498 104.23 19.2398 104.72C18.7298 105.21 18.3498 105.81 18.0798 106.53C17.8098 107.25 17.6798 107.99 17.6798 108.75C17.6798 109.47 17.7998 110.13 18.0298 110.75C18.2598 111.37 18.6098 111.87 19.0798 112.26C19.5498 112.65 20.1098 112.96 20.7798 113.17C21.4498 113.38 22.1798 113.48 22.9798 113.48C23.2498 113.48 23.5498 113.47 23.8798 113.44C24.1998 113.41 24.5298 113.37 24.8498 113.32C25.1698 113.27 25.4398 113.22 25.6398 113.17C25.8498 113.12 26.1198 113.04 26.4498 112.94L26.6498 108.3H25.6698C25.4098 108.3 25.1398 108.3 24.8798 108.3L23.6398 108.35C23.6598 108.18 23.6598 108.03 23.6598 107.89V107.8L23.6498 107.81Z" fill="#545454"/>
<path d="M29.4997 113.81C29.7497 109.38 29.8997 105.75 29.9397 102.93C30.0797 102.93 30.1897 102.93 30.2797 102.93C30.3697 102.93 30.4697 102.93 30.6197 102.93L30.4097 106.81L30.1697 113.81C30.0297 113.81 29.9197 113.81 29.8297 113.81C29.7397 113.81 29.6397 113.81 29.4897 113.81H29.4997Z" fill="#545454"/>
<path d="M36.4499 105.59C36.9599 105.59 37.4499 105.66 37.9299 105.8C38.4099 105.94 38.8299 106.17 39.1899 106.51C39.5499 106.84 39.8299 107.28 40.0199 107.81C40.2099 108.35 40.3099 108.91 40.3099 109.52C40.3099 110.17 40.2099 110.79 40.0099 111.39C39.8099 111.99 39.5199 112.48 39.1499 112.89C38.7799 113.3 38.3399 113.57 37.8399 113.74C37.3399 113.91 36.8099 113.99 36.2399 113.99C35.8499 113.99 35.4599 113.95 35.0799 113.86C34.6999 113.77 34.3399 113.62 34.0099 113.42C33.6799 113.21 33.3899 112.94 33.1399 112.61C32.8899 112.28 32.6999 111.89 32.5699 111.44C32.4399 110.99 32.3799 110.52 32.3799 110.03C32.3799 109.17 32.5399 108.39 32.8699 107.68C33.1999 106.97 33.6899 106.45 34.3399 106.11C34.9999 105.78 35.6999 105.61 36.4499 105.61V105.59ZM36.4299 106.04C35.7799 106.04 35.1699 106.19 34.6099 106.5C34.0499 106.81 33.6399 107.28 33.3799 107.91C33.1199 108.54 32.9899 109.23 32.9899 109.99C32.9899 110.52 33.0699 111.02 33.2199 111.49C33.3699 111.96 33.6099 112.35 33.9499 112.67C34.2799 112.99 34.6399 113.21 35.0299 113.34C35.4199 113.46 35.8199 113.53 36.2499 113.53C36.7399 113.53 37.1899 113.45 37.6199 113.3C38.0499 113.15 38.4199 112.89 38.7499 112.53C39.0799 112.17 39.3199 111.73 39.4699 111.2C39.6199 110.67 39.6999 110.12 39.6999 109.53C39.6999 108.98 39.6199 108.47 39.4699 107.99C39.3199 107.51 39.0799 107.12 38.7699 106.84C38.4499 106.55 38.0899 106.35 37.6899 106.23C37.2899 106.11 36.8699 106.05 36.4399 106.05L36.4299 106.04Z" fill="#545454"/>
<path d="M42.1596 113.81L42.2197 113.02L42.4496 106.45L42.5396 102.93C42.6796 102.93 42.7996 102.93 42.8896 102.93C42.9796 102.93 43.0997 102.93 43.2397 102.93C43.1797 103.53 43.1396 104.13 43.1096 104.72L43.0496 105.96C43.6496 105.81 44.1596 105.71 44.5696 105.67C44.9796 105.62 45.3796 105.6 45.7796 105.6C46.4796 105.6 47.0796 105.68 47.5996 105.85C48.1196 106.02 48.5497 106.3 48.8797 106.69C49.2197 107.08 49.4596 107.51 49.5996 107.99C49.7396 108.47 49.8097 108.97 49.8097 109.5C49.8097 110.09 49.7297 110.66 49.5597 111.22C49.3997 111.78 49.1396 112.27 48.7896 112.72C48.4397 113.16 48.0196 113.49 47.5296 113.68C47.0396 113.88 46.4897 113.98 45.8997 113.98C45.5497 113.98 45.2196 113.94 44.9096 113.86C44.5896 113.78 44.3197 113.67 44.0797 113.53C43.8397 113.39 43.6396 113.24 43.4796 113.07C43.3196 112.9 43.1896 112.74 43.0996 112.57C43.0096 112.4 42.9097 112.18 42.8097 111.89L42.7896 113.82C42.6496 113.82 42.5396 113.82 42.4596 113.82C42.3796 113.82 42.2796 113.82 42.1396 113.82L42.1596 113.81ZM43.0496 106.52C43.0096 107.6 42.9796 108.3 42.9496 108.62C42.9296 108.94 42.9196 109.32 42.9196 109.76C42.9196 110.33 42.9596 110.83 43.0496 111.27C43.1396 111.71 43.3097 112.1 43.5597 112.45C43.8097 112.8 44.1396 113.06 44.5396 113.24C44.9397 113.42 45.3897 113.51 45.8797 113.51C46.3696 113.51 46.8296 113.42 47.2596 113.24C47.6896 113.06 48.0397 112.77 48.3297 112.38C48.6097 111.99 48.8296 111.53 48.9796 111C49.1296 110.47 49.2096 109.95 49.2096 109.42C49.2096 108.68 49.0596 108.04 48.7696 107.51C48.4796 106.98 48.0796 106.6 47.5896 106.38C47.0996 106.15 46.5196 106.04 45.8596 106.04C45.4496 106.04 45.0296 106.08 44.5896 106.14C44.1496 106.21 43.6396 106.34 43.0396 106.52H43.0496Z" fill="#545454"/>
<path d="M52.09 106.6C52.13 106.42 52.16 106.21 52.18 105.98C52.74 105.83 53.22 105.73 53.63 105.67C54.04 105.61 54.46 105.59 54.88 105.59C55.37 105.59 55.82 105.63 56.24 105.71C56.66 105.79 57 105.93 57.27 106.12C57.54 106.31 57.71 106.54 57.8 106.79C57.89 107.04 57.93 107.29 57.93 107.56C57.93 107.83 57.93 108.16 57.9 108.57C57.88 108.98 57.86 109.41 57.82 109.88C57.79 110.35 57.76 110.93 57.73 111.63C57.7 112.33 57.69 112.83 57.69 113.14V113.81C57.55 113.81 57.43 113.81 57.34 113.81C57.25 113.81 57.13 113.81 56.99 113.81C57.07 113 57.12 112.34 57.15 111.83C57.18 111.32 57.2 110.78 57.22 110.2C57.24 109.62 57.26 109.08 57.3 108.57C57.13 108.71 57 108.81 56.91 108.88C56.82 108.95 56.72 109.01 56.61 109.06C56.5 109.11 56.37 109.17 56.22 109.22C56.07 109.28 55.93 109.32 55.81 109.36C55.68 109.4 55.38 109.48 54.89 109.61C54.41 109.74 54.06 109.83 53.85 109.9C53.38 110.05 53.01 110.19 52.76 110.32C52.48 110.46 52.25 110.62 52.06 110.8C51.9 110.95 51.78 111.12 51.7 111.29C51.61 111.49 51.57 111.71 51.57 111.93C51.57 112.27 51.68 112.57 51.89 112.83C52.1 113.08 52.37 113.26 52.7 113.37C53.03 113.47 53.42 113.53 53.88 113.53C54.11 113.53 54.33 113.52 54.55 113.49C54.76 113.47 54.97 113.43 55.15 113.39C55.34 113.35 55.61 113.27 55.97 113.16C55.92 113.36 55.88 113.56 55.85 113.77C55.41 113.85 55.05 113.91 54.77 113.93C54.49 113.95 54.23 113.97 53.98 113.97C53.52 113.97 53.1 113.94 52.71 113.87C52.32 113.8 52 113.67 51.73 113.46C51.47 113.26 51.27 113.03 51.15 112.76C51.03 112.49 50.96 112.22 50.96 111.92C50.96 111.7 51 111.48 51.07 111.27C51.15 111.06 51.26 110.86 51.42 110.67C51.55 110.51 51.73 110.36 51.95 110.22C52.21 110.05 52.49 109.91 52.8 109.79C53.16 109.65 53.55 109.53 53.97 109.41C54.09 109.38 54.54 109.26 55.33 109.07C55.69 108.98 56.02 108.87 56.34 108.73C56.66 108.59 56.9 108.41 57.08 108.16C57.26 107.92 57.34 107.67 57.34 107.42C57.34 107.24 57.3 107.07 57.22 106.9C57.14 106.73 56.99 106.57 56.78 106.43C56.57 106.28 56.31 106.18 56 106.12C55.69 106.06 55.36 106.03 55.01 106.03C54.61 106.03 54.24 106.06 53.89 106.11C53.54 106.16 53.24 106.22 53 106.29C52.76 106.36 52.46 106.46 52.09 106.6Z" fill="#545454"/>
<path d="M60.03 113.81C60.28 109.38 60.43 105.75 60.47 102.93C60.61 102.93 60.72 102.93 60.81 102.93C60.9 102.93 61 102.93 61.15 102.93L60.94 106.81L60.7 113.81C60.56 113.81 60.45 113.81 60.36 113.81C60.27 113.81 60.17 113.81 60.02 113.81H60.03Z" fill="#545454"/>
<path d="M67.5498 113.81L67.7198 111.28L67.9298 105.57L67.9798 102.93C68.1198 102.93 68.2298 102.93 68.3398 102.93C68.4498 102.93 68.5698 102.93 68.7098 102.93L68.4198 109.15L68.2698 113.31H69.9498C71.1498 113.31 71.9798 113.31 72.4398 113.31C72.8998 113.31 73.3398 113.28 73.7698 113.25C73.7498 113.46 73.7398 113.65 73.7398 113.82C72.5798 113.82 71.5998 113.82 70.8098 113.82H67.5598L67.5498 113.81Z" fill="#545454"/>
<path d="M75.02 113.81C75.08 113.01 75.15 111.62 75.23 109.64C75.31 107.66 75.35 106.36 75.35 105.76C75.49 105.76 75.6 105.76 75.67 105.76C75.75 105.76 75.86 105.76 76 105.76C75.92 106.77 75.85 108.15 75.77 109.89C75.69 111.63 75.66 112.94 75.66 113.81C75.52 113.81 75.41 113.81 75.33 113.81C75.25 113.81 75.14 113.81 75 113.81H75.02ZM75.32 103.72L75.34 102.93C75.48 102.93 75.62 102.93 75.76 102.93C75.9 102.93 76.04 102.93 76.18 102.93L76.16 103.72C76.02 103.71 75.88 103.7 75.74 103.7C75.6 103.7 75.46 103.7 75.32 103.72Z" fill="#545454"/>
<path d="M81.4399 113.31C81.3999 113.47 81.3599 113.64 81.3399 113.81C80.8999 113.92 80.4899 113.97 80.1199 113.97C79.8099 113.97 79.5299 113.94 79.2899 113.87C79.0499 113.8 78.8499 113.68 78.6899 113.51C78.5399 113.34 78.4399 113.15 78.3899 112.94C78.3399 112.73 78.3199 112.51 78.3199 112.27C78.3199 112.23 78.3199 112.16 78.3199 112.07C78.3199 111.98 78.3299 111.78 78.3499 111.47L78.6199 106.19H77.6099C77.6299 106.05 77.6499 105.9 77.6499 105.76H78.6499C78.6799 105.43 78.6999 104.93 78.7199 104.26C78.9299 104.23 79.1099 104.2 79.2599 104.16C79.2199 105.02 79.1999 105.56 79.1999 105.76H81.6699C81.6499 105.9 81.6299 106.05 81.6299 106.19H79.1799L78.9099 111.65V111.98C78.9099 112.43 78.9499 112.75 79.0599 112.95C79.1699 113.15 79.3199 113.3 79.5099 113.39C79.6999 113.48 79.9099 113.52 80.1099 113.52C80.2599 113.52 80.4199 113.51 80.5799 113.49C80.7499 113.47 81.0299 113.41 81.4399 113.31Z" fill="#545454"/>
<path d="M82.8 113.81L83.05 108.61C83.07 108.11 83.1 106.8 83.15 104.7L83.2 102.92C83.33 102.92 83.43 102.92 83.51 102.92C83.6 102.92 83.71 102.92 83.83 102.92L83.61 107.58C83.74 107.33 83.84 107.13 83.93 106.99C84.02 106.85 84.14 106.7 84.3 106.55C84.45 106.4 84.62 106.27 84.79 106.16C84.96 106.05 85.16 105.96 85.37 105.87C85.59 105.79 85.84 105.72 86.13 105.67C86.42 105.62 86.73 105.59 87.05 105.59C87.53 105.59 87.98 105.64 88.41 105.74C88.84 105.84 89.2 106 89.5 106.23C89.8 106.46 90.01 106.74 90.12 107.06C90.24 107.38 90.29 107.71 90.29 108.03C90.29 108.14 90.29 108.28 90.29 108.48C90.28 108.77 90.26 109.17 90.22 109.67L90.08 112.91C90.07 113.12 90.06 113.41 90.05 113.8C89.91 113.8 89.8 113.8 89.72 113.8C89.64 113.8 89.53 113.8 89.39 113.8C89.46 113.11 89.5 112.42 89.54 111.73L89.65 109.78C89.69 109.18 89.71 108.66 89.71 108.23C89.71 107.73 89.61 107.31 89.42 106.99C89.23 106.67 88.9 106.43 88.44 106.27C87.98 106.11 87.5 106.03 86.99 106.03C86.65 106.03 86.32 106.07 85.99 106.14C85.68 106.21 85.41 106.3 85.18 106.42C84.99 106.52 84.81 106.64 84.65 106.78C84.48 106.93 84.33 107.11 84.19 107.32C84.04 107.56 83.92 107.82 83.82 108.12C83.73 108.39 83.66 108.75 83.61 109.21C83.57 109.57 83.53 110.26 83.5 111.3L83.43 113.8C83.29 113.8 83.18 113.8 83.11 113.8C83.04 113.8 82.93 113.8 82.79 113.8L82.8 113.81Z" fill="#545454"/>
<path d="M99.6298 113.81C99.5198 113.81 99.4198 113.81 99.3298 113.81C99.2398 113.81 99.1398 113.81 99.0298 113.81L99.0998 112.08C98.9698 112.35 98.8698 112.55 98.7898 112.67C98.7098 112.79 98.6098 112.92 98.4798 113.05C98.3498 113.18 98.1998 113.31 98.0098 113.43C97.8198 113.55 97.5998 113.65 97.3398 113.74C97.0798 113.83 96.8198 113.89 96.5498 113.92C96.2798 113.96 96.0098 113.98 95.7298 113.98C95.2598 113.98 94.8198 113.93 94.4098 113.83C93.9998 113.73 93.6398 113.55 93.3298 113.3C93.0098 113.05 92.7998 112.76 92.6798 112.43C92.5598 112.1 92.5098 111.72 92.5098 111.3C92.5098 110.98 92.5498 110.17 92.6198 108.9C92.6898 107.62 92.7298 106.58 92.7298 105.77C92.8698 105.77 92.9798 105.77 93.0498 105.77C93.1198 105.77 93.2298 105.77 93.3698 105.77C93.3298 106.23 93.2598 107.18 93.1798 108.62C93.0998 110.06 93.0498 110.96 93.0498 111.32C93.0498 111.72 93.1098 112.07 93.2098 112.35C93.3098 112.63 93.5098 112.86 93.7798 113.05C94.0498 113.24 94.3598 113.36 94.6998 113.44C95.0398 113.51 95.3998 113.55 95.7598 113.55C96.1198 113.55 96.4998 113.5 96.8498 113.41C97.1998 113.32 97.4898 113.2 97.7198 113.06C97.9498 112.92 98.1498 112.75 98.3298 112.55C98.5298 112.32 98.7098 112.05 98.8498 111.74C98.9798 111.47 99.0698 111.13 99.1298 110.73C99.1898 110.33 99.2398 109.6 99.2798 108.55C99.3198 107.54 99.3398 106.62 99.3398 105.78C99.4898 105.78 99.5998 105.78 99.6698 105.78C99.7398 105.78 99.8498 105.78 99.9898 105.78L99.6898 111.36L99.6598 112.56C99.6498 113.05 99.6398 113.48 99.6398 113.83L99.6298 113.81Z" fill="#545454"/>
<path d="M102.07 113.81C102.13 113.01 102.2 111.62 102.28 109.64C102.36 107.66 102.4 106.36 102.4 105.76C102.54 105.76 102.65 105.76 102.72 105.76C102.8 105.76 102.91 105.76 103.05 105.76C102.97 106.77 102.9 108.15 102.82 109.89C102.75 111.63 102.71 112.94 102.71 113.81C102.57 113.81 102.46 113.81 102.38 113.81C102.3 113.81 102.19 113.81 102.05 113.81H102.07ZM102.37 103.72L102.39 102.93C102.53 102.93 102.67 102.93 102.81 102.93C102.95 102.93 103.09 102.93 103.23 102.93L103.21 103.72C103.07 103.71 102.93 103.7 102.79 103.7C102.65 103.7 102.51 103.7 102.37 103.72Z" fill="#545454"/>
<path d="M105.09 113.81L105.18 112.73C105.2 112.51 105.21 112.29 105.22 112.08L105.43 106.76C105.43 106.37 105.43 106.04 105.43 105.76C105.54 105.76 105.65 105.76 105.75 105.76C105.85 105.76 105.96 105.76 106.06 105.76L105.98 107.43C106.16 107.11 106.32 106.85 106.47 106.66C106.62 106.47 106.82 106.3 107.07 106.13C107.32 105.96 107.6 105.83 107.92 105.73C108.24 105.63 108.57 105.59 108.92 105.59C109.22 105.59 109.5 105.63 109.77 105.7C110.04 105.77 110.27 105.87 110.46 105.98C110.65 106.09 110.81 106.22 110.93 106.36C111.06 106.5 111.15 106.64 111.22 106.79C111.29 106.94 111.36 107.14 111.42 107.4C111.53 107.19 111.63 107.01 111.73 106.86C111.83 106.71 111.96 106.55 112.13 106.39C112.3 106.23 112.5 106.09 112.73 105.97C112.96 105.85 113.22 105.76 113.5 105.69C113.78 105.62 114.07 105.59 114.37 105.59C114.82 105.59 115.25 105.67 115.66 105.82C116.07 105.97 116.38 106.21 116.6 106.55C116.82 106.89 116.93 107.29 116.93 107.75C116.93 108.01 116.91 108.41 116.87 108.93C116.83 109.46 116.79 110.21 116.74 111.19C116.69 112.16 116.67 113.04 116.66 113.81C116.52 113.81 116.41 113.81 116.33 113.81C116.25 113.81 116.14 113.81 116 113.81C116.05 113.16 116.1 112.38 116.15 111.47L116.27 109.28C116.3 108.73 116.32 108.28 116.32 107.93C116.32 107.74 116.32 107.58 116.3 107.45C116.28 107.31 116.25 107.18 116.19 107.05C116.13 106.92 116.05 106.8 115.94 106.68C115.83 106.56 115.7 106.46 115.54 106.37C115.38 106.28 115.2 106.21 114.98 106.16C114.76 106.11 114.53 106.08 114.28 106.08C113.92 106.08 113.6 106.13 113.29 106.24C112.99 106.35 112.72 106.5 112.48 106.69C112.24 106.88 112.04 107.11 111.88 107.38C111.72 107.65 111.6 108.02 111.5 108.48C111.41 108.88 111.35 109.59 111.32 110.62L111.23 113.81C111.09 113.81 110.98 113.81 110.9 113.81C110.82 113.81 110.71 113.81 110.57 113.81C110.63 113.08 110.67 112.37 110.69 111.67L110.79 109.66C110.82 109.02 110.84 108.49 110.84 108.07C110.84 107.68 110.8 107.37 110.72 107.16C110.64 106.95 110.52 106.76 110.35 106.6C110.18 106.43 109.96 106.31 109.7 106.21C109.44 106.12 109.15 106.07 108.84 106.07C108.5 106.07 108.17 106.12 107.86 106.23C107.55 106.34 107.27 106.49 107.03 106.69C106.79 106.89 106.58 107.13 106.42 107.43C106.25 107.72 106.12 108.1 106.01 108.58C105.92 109 105.85 109.74 105.8 110.8C105.75 111.97 105.72 112.97 105.72 113.8C105.58 113.8 105.47 113.8 105.39 113.8C105.31 113.8 105.2 113.8 105.06 113.8L105.09 113.81Z" fill="#545454"/>
<path d="M123.44 113.81L123.68 110.02L123.9 103.81C123.9 103.58 123.9 103.29 123.9 102.93H125.72H127.97C129.03 102.93 129.88 103.01 130.51 103.17C131.14 103.33 131.72 103.66 132.22 104.15C132.72 104.64 133.07 105.21 133.28 105.84C133.49 106.47 133.59 107.15 133.59 107.88C133.59 108.75 133.43 109.58 133.11 110.39C132.79 111.2 132.32 111.87 131.69 112.42C131.06 112.97 130.35 113.34 129.56 113.53C128.77 113.72 127.9 113.82 126.97 113.82H125.23H123.44V113.81ZM124.14 113.31C125.11 113.33 125.87 113.33 126.43 113.33C126.99 113.33 127.55 113.3 128.14 113.25C128.72 113.2 129.25 113.1 129.71 112.96C130.17 112.82 130.62 112.57 131.06 112.2C131.5 111.83 131.86 111.42 132.14 110.97C132.42 110.52 132.63 110.02 132.77 109.47C132.91 108.92 132.98 108.36 132.98 107.8C132.98 107.24 132.91 106.74 132.78 106.24C132.69 105.88 132.54 105.54 132.35 105.23C132.14 104.87 131.89 104.57 131.61 104.32C131.33 104.07 131.03 103.89 130.73 103.76C130.43 103.63 130.04 103.55 129.58 103.49C129.16 103.44 128.68 103.41 128.12 103.4H124.58L124.15 113.3L124.14 113.31Z" fill="#545454"/>
<path d="M141.61 113.02C141.57 113.22 141.53 113.42 141.51 113.63C141.06 113.76 140.65 113.85 140.29 113.9C139.93 113.95 139.56 113.98 139.18 113.98C138.52 113.98 137.94 113.89 137.43 113.72C136.92 113.55 136.49 113.26 136.13 112.86C135.77 112.46 135.51 112.01 135.36 111.51C135.21 111.01 135.13 110.48 135.13 109.92C135.13 109.18 135.26 108.49 135.52 107.85C135.78 107.2 136.22 106.67 136.82 106.25C137.42 105.83 138.17 105.61 139.06 105.61C139.67 105.61 140.23 105.72 140.73 105.94C141.23 106.16 141.62 106.52 141.89 107.02C142.17 107.52 142.31 108.11 142.31 108.8C142.31 108.93 142.31 109.05 142.29 109.17H135.78C135.75 109.52 135.74 109.78 135.74 109.96C135.74 110.46 135.82 110.95 135.97 111.42C136.12 111.89 136.36 112.29 136.67 112.61C136.98 112.93 137.35 113.16 137.79 113.32C138.22 113.47 138.68 113.55 139.16 113.55C139.9 113.55 140.71 113.38 141.61 113.05V113.02ZM135.86 108.72H141.71C141.71 108.36 141.68 108.08 141.64 107.88C141.6 107.68 141.53 107.48 141.43 107.27C141.33 107.06 141.2 106.88 141.05 106.73C140.9 106.58 140.73 106.45 140.54 106.35C140.34 106.25 140.13 106.17 139.89 106.11C139.65 106.06 139.4 106.03 139.13 106.03C138.84 106.03 138.55 106.06 138.27 106.13C137.99 106.19 137.73 106.28 137.5 106.39C137.27 106.5 137.05 106.64 136.85 106.82C136.65 106.99 136.48 107.18 136.36 107.38C136.24 107.58 136.13 107.77 136.06 107.96C135.99 108.14 135.92 108.39 135.84 108.71L135.86 108.72Z" fill="#545454"/>
<path d="M143.83 113.81L143.92 112.73C143.94 112.51 143.95 112.29 143.96 112.08L144.17 106.76C144.17 106.37 144.17 106.04 144.17 105.76C144.28 105.76 144.39 105.76 144.49 105.76C144.59 105.76 144.7 105.76 144.8 105.76L144.72 107.43C144.89 107.11 145.06 106.85 145.2 106.66C145.35 106.47 145.55 106.3 145.8 106.13C146.05 105.96 146.33 105.83 146.65 105.73C146.97 105.63 147.3 105.59 147.65 105.59C147.95 105.59 148.23 105.63 148.5 105.7C148.77 105.77 149 105.87 149.19 105.98C149.38 106.09 149.54 106.22 149.66 106.36C149.79 106.5 149.88 106.64 149.95 106.79C150.02 106.94 150.09 107.14 150.15 107.4C150.26 107.19 150.36 107.01 150.46 106.86C150.56 106.71 150.69 106.55 150.86 106.39C151.03 106.23 151.23 106.09 151.46 105.97C151.69 105.85 151.95 105.76 152.23 105.69C152.51 105.62 152.8 105.59 153.1 105.59C153.56 105.59 153.99 105.67 154.39 105.82C154.79 105.97 155.11 106.21 155.33 106.55C155.55 106.89 155.66 107.29 155.66 107.75C155.66 108.01 155.64 108.41 155.6 108.93C155.56 109.46 155.52 110.21 155.47 111.19C155.42 112.16 155.4 113.04 155.39 113.81C155.25 113.81 155.14 113.81 155.06 113.81C154.98 113.81 154.87 113.81 154.73 113.81C154.78 113.16 154.83 112.38 154.88 111.47L155 109.28C155.03 108.73 155.05 108.28 155.05 107.93C155.05 107.74 155.05 107.58 155.03 107.45C155.01 107.32 154.98 107.18 154.92 107.05C154.86 106.92 154.78 106.8 154.67 106.68C154.56 106.56 154.43 106.46 154.27 106.37C154.11 106.28 153.93 106.21 153.71 106.16C153.49 106.11 153.26 106.08 153.01 106.08C152.65 106.08 152.32 106.13 152.02 106.24C151.72 106.35 151.45 106.5 151.21 106.69C150.97 106.88 150.77 107.11 150.61 107.38C150.45 107.65 150.33 108.02 150.23 108.48C150.14 108.88 150.08 109.59 150.05 110.62L149.96 113.81C149.82 113.81 149.71 113.81 149.63 113.81C149.55 113.81 149.44 113.81 149.3 113.81C149.36 113.08 149.4 112.37 149.42 111.67L149.52 109.66C149.55 109.02 149.57 108.49 149.57 108.07C149.57 107.68 149.53 107.37 149.45 107.16C149.37 106.95 149.25 106.76 149.08 106.6C148.91 106.43 148.69 106.31 148.43 106.21C148.17 106.12 147.88 106.07 147.57 106.07C147.23 106.07 146.9 106.12 146.59 106.23C146.28 106.34 146.01 106.49 145.76 106.69C145.52 106.89 145.31 107.13 145.15 107.43C144.98 107.72 144.85 108.1 144.74 108.58C144.65 109 144.58 109.74 144.54 110.8C144.49 111.97 144.46 112.97 144.46 113.8C144.32 113.8 144.21 113.8 144.13 113.8C144.05 113.8 143.94 113.8 143.8 113.8L143.83 113.81Z" fill="#545454"/>
<path d="M158.23 106.6C158.27 106.42 158.3 106.21 158.32 105.98C158.88 105.83 159.36 105.73 159.78 105.67C160.19 105.61 160.61 105.59 161.03 105.59C161.52 105.59 161.97 105.63 162.39 105.71C162.81 105.79 163.15 105.93 163.42 106.12C163.69 106.31 163.86 106.54 163.95 106.79C164.04 107.04 164.08 107.29 164.08 107.56C164.08 107.83 164.08 108.16 164.05 108.57C164.02 108.98 164.01 109.41 163.97 109.88C163.93 110.35 163.91 110.93 163.88 111.63C163.85 112.33 163.84 112.83 163.84 113.14V113.81C163.7 113.81 163.58 113.81 163.49 113.81C163.4 113.81 163.28 113.81 163.14 113.81C163.22 113 163.27 112.34 163.3 111.83C163.33 111.33 163.35 110.78 163.37 110.2C163.39 109.62 163.41 109.08 163.45 108.57C163.28 108.71 163.15 108.81 163.06 108.88C162.97 108.95 162.87 109.01 162.76 109.06C162.65 109.11 162.52 109.17 162.37 109.22C162.22 109.28 162.08 109.32 161.95 109.36C161.82 109.4 161.52 109.48 161.03 109.61C160.55 109.74 160.2 109.83 159.99 109.9C159.52 110.05 159.15 110.19 158.9 110.32C158.62 110.46 158.39 110.62 158.2 110.8C158.04 110.95 157.91 111.12 157.84 111.29C157.75 111.49 157.71 111.71 157.71 111.93C157.71 112.27 157.82 112.57 158.03 112.83C158.24 113.09 158.51 113.26 158.84 113.37C159.17 113.48 159.56 113.53 160.02 113.53C160.25 113.53 160.47 113.52 160.69 113.49C160.9 113.47 161.11 113.43 161.29 113.39C161.48 113.35 161.75 113.27 162.11 113.16C162.06 113.36 162.02 113.56 161.99 113.77C161.55 113.85 161.19 113.91 160.91 113.93C160.63 113.95 160.37 113.97 160.13 113.97C159.67 113.97 159.25 113.94 158.86 113.87C158.47 113.8 158.15 113.67 157.88 113.46C157.62 113.26 157.42 113.03 157.3 112.76C157.18 112.49 157.11 112.22 157.11 111.92C157.11 111.7 157.15 111.48 157.22 111.27C157.3 111.06 157.41 110.86 157.57 110.67C157.7 110.51 157.88 110.36 158.1 110.22C158.36 110.05 158.64 109.91 158.95 109.79C159.31 109.65 159.7 109.53 160.12 109.41C160.24 109.38 160.69 109.26 161.48 109.07C161.84 108.98 162.17 108.87 162.49 108.73C162.81 108.59 163.05 108.41 163.23 108.16C163.41 107.91 163.49 107.67 163.49 107.42C163.49 107.24 163.45 107.07 163.37 106.9C163.29 106.73 163.14 106.57 162.93 106.43C162.72 106.28 162.46 106.18 162.15 106.12C161.84 106.06 161.51 106.03 161.16 106.03C160.76 106.03 160.39 106.06 160.04 106.11C159.69 106.16 159.39 106.22 159.15 106.29C158.91 106.36 158.61 106.46 158.24 106.6H158.23Z" fill="#545454"/>
<path d="M166.11 113.81L166.39 108.94L166.46 106.65C166.47 106.24 166.48 105.94 166.48 105.76C166.62 105.76 166.73 105.76 166.8 105.76C166.87 105.76 166.97 105.76 167.11 105.76L167 107.58C167.12 107.33 167.22 107.14 167.3 107.01C167.38 106.88 167.49 106.74 167.62 106.59C167.76 106.44 167.92 106.3 168.11 106.17C168.3 106.04 168.53 105.93 168.79 105.84C169.06 105.75 169.33 105.69 169.61 105.65C169.89 105.61 170.17 105.59 170.44 105.59C170.9 105.59 171.35 105.64 171.78 105.74C172.21 105.84 172.57 106.02 172.86 106.26C173.15 106.5 173.34 106.79 173.45 107.11C173.56 107.43 173.61 107.78 173.61 108.14C173.61 108.3 173.61 108.55 173.59 108.87L173.42 112.5L173.39 113.8C173.28 113.8 173.17 113.8 173.07 113.8C172.97 113.8 172.86 113.8 172.76 113.8C172.81 113.14 172.86 112.5 172.89 111.89L173 109.85C173.04 109.1 173.06 108.55 173.06 108.22C173.06 107.89 173.01 107.56 172.9 107.28C172.8 107 172.62 106.77 172.36 106.59C172.11 106.41 171.8 106.27 171.45 106.19C171.1 106.11 170.74 106.07 170.37 106.07C169.85 106.07 169.39 106.14 168.99 106.28C168.61 106.41 168.28 106.61 168 106.87C167.71 107.13 167.48 107.45 167.3 107.85C167.16 108.14 167.06 108.54 166.99 109.05C166.93 109.5 166.87 110.23 166.83 111.24C166.79 112.25 166.77 113.11 166.77 113.81C166.63 113.81 166.52 113.81 166.44 113.81C166.36 113.81 166.25 113.81 166.11 113.81Z" fill="#545454"/>
<path d="M182.86 113.82C182.72 113.82 182.61 113.82 182.54 113.82H182.21L182.33 111.79C182.2 112.1 182.08 112.34 181.96 112.52C181.84 112.7 181.71 112.88 181.53 113.05C181.35 113.22 181.15 113.38 180.9 113.52C180.65 113.66 180.37 113.77 180.05 113.85C179.73 113.93 179.39 113.98 179.05 113.98C178.52 113.98 178.02 113.89 177.56 113.7C177.1 113.51 176.71 113.25 176.39 112.91C176.07 112.57 175.84 112.17 175.7 111.72C175.56 111.27 175.49 110.8 175.49 110.3C175.49 109.63 175.62 108.97 175.88 108.35C176.14 107.72 176.51 107.2 177 106.77C177.49 106.34 178.05 106.04 178.67 105.87C179.29 105.7 179.95 105.61 180.64 105.61C181.2 105.61 181.82 105.67 182.49 105.79C182.52 105.29 182.53 104.8 182.53 104.34C182.53 103.93 182.53 103.47 182.51 102.95C182.65 102.95 182.77 102.95 182.86 102.95C182.95 102.95 183.06 102.95 183.2 102.95C183.14 103.94 183.09 104.99 183.06 106.08L182.94 109.94C182.9 111.42 182.89 112.39 182.89 112.86V113.84L182.86 113.82ZM182.45 106.32C182.06 106.2 181.72 106.13 181.44 106.09C181.15 106.05 180.88 106.04 180.63 106.04C180.02 106.04 179.43 106.12 178.87 106.29C178.31 106.46 177.82 106.74 177.41 107.12C176.99 107.5 176.67 107.99 176.44 108.57C176.21 109.15 176.1 109.73 176.1 110.3C176.1 110.93 176.22 111.5 176.47 112.01C176.72 112.52 177.07 112.91 177.53 113.15C177.99 113.39 178.5 113.52 179.06 113.52C179.39 113.52 179.7 113.48 179.98 113.4C180.26 113.32 180.51 113.22 180.73 113.08C180.95 112.94 181.16 112.76 181.36 112.53C181.56 112.3 181.74 112.03 181.89 111.71C182.04 111.4 182.15 111.05 182.22 110.68C182.29 110.31 182.34 109.74 182.37 108.97L182.46 106.31L182.45 106.32Z" fill="#545454"/>
</g>
<defs>
<clipPath id="clip0_17_732">
<rect width="183.17" height="117.89" fill="white"/>
</clipPath>
</defs>
</svg>
