<svg width="149" height="181" viewBox="0 0 149 181" fill="none" xmlns="http://www.w3.org/2000/svg">
<path d="M0 5.52012C0 2.51012 2.41 0.0201211 5.43 0.000121094C8.45 -0.0198789 10.92 2.44012 10.92 5.46012V31.1401C10.92 34.1501 8.51 36.6401 5.49 36.6601C2.47 36.6801 0 34.2201 0 31.2001V5.52012Z" fill="black"/>
<path d="M17.4001 32.58L17.5701 29.9599L17.8101 23.12C17.8101 22.86 17.8101 22.6 17.8101 22.35V21.7H19.5001H21.2801C21.8401 21.7 22.2701 21.72 22.5601 21.76C22.8501 21.81 23.1101 21.89 23.3501 22.02C23.5901 22.14 23.8001 22.31 23.9901 22.51C24.1801 22.72 24.3201 22.96 24.4101 23.25C24.5001 23.54 24.5501 23.84 24.5501 24.15C24.5501 24.41 24.5201 24.66 24.4601 24.9C24.4001 25.14 24.3001 25.37 24.1601 25.59C24.0201 25.81 23.8601 26 23.6801 26.17C23.5001 26.34 23.3201 26.47 23.1501 26.57C22.9801 26.66 22.7501 26.7699 22.4701 26.8799C22.7501 26.9599 22.9701 27.04 23.1401 27.11C23.3101 27.18 23.4801 27.27 23.6501 27.37C23.8201 27.48 23.9701 27.6 24.1101 27.75C24.2501 27.9 24.3601 28.05 24.4501 28.2299C24.5401 28.4099 24.6201 28.61 24.6701 28.84C24.7201 29.07 24.7501 29.2999 24.7501 29.5499C24.7501 30.0399 24.6501 30.49 24.4401 30.9C24.2301 31.3099 23.9301 31.65 23.5201 31.92C23.1101 32.19 22.6801 32.37 22.2101 32.45C21.7501 32.53 21.2401 32.57 20.6801 32.57H18.6901H17.3901L17.4001 32.58ZM18.1301 32.08H20.5201C21.2701 32.08 21.8201 32.04 22.1601 31.95C22.5001 31.86 22.8201 31.73 23.1301 31.53C23.4401 31.34 23.6801 31.05 23.8701 30.68C24.0501 30.31 24.1501 29.91 24.1501 29.5C24.1501 29.09 24.0701 28.75 23.8901 28.44C23.7201 28.13 23.4801 27.87 23.1801 27.68C22.8801 27.49 22.5501 27.35 22.2101 27.29C21.8601 27.23 21.4601 27.2 20.9801 27.2H18.3101L18.1401 32.09L18.1301 32.08ZM18.3301 26.69H19.9501C20.8001 26.69 21.3701 26.6699 21.6501 26.6299C22.0201 26.5699 22.3701 26.4599 22.7001 26.2999C22.9201 26.1799 23.1301 26.0099 23.3201 25.7999C23.5101 25.5799 23.6601 25.32 23.7701 25.03C23.8801 24.73 23.9301 24.43 23.9301 24.11C23.9301 23.79 23.8801 23.53 23.7701 23.29C23.6601 23.05 23.5101 22.85 23.3001 22.68C23.0901 22.51 22.8601 22.3899 22.5801 22.3099C22.3101 22.2399 21.8901 22.2 21.3101 22.2H18.4701L18.3001 26.7L18.3301 26.69Z" fill="#545454"/>
<path d="M27.0101 25.3699C27.0501 25.1899 27.0801 24.9799 27.1001 24.7499C27.6601 24.5999 28.1401 24.4999 28.5501 24.4399C28.9601 24.3799 29.3801 24.3599 29.8001 24.3599C30.2901 24.3599 30.7401 24.3999 31.1601 24.4799C31.5801 24.5599 31.9201 24.6999 32.1901 24.8899C32.4601 25.0799 32.6301 25.3099 32.7201 25.5599C32.8101 25.8099 32.8501 26.0599 32.8501 26.3299C32.8501 26.5999 32.8501 26.9299 32.8201 27.3399C32.8001 27.7499 32.7701 28.1799 32.7401 28.6499C32.7101 29.1199 32.6801 29.6999 32.6501 30.3999C32.6201 31.0999 32.6101 31.5999 32.6101 31.9099V32.5799C32.4701 32.5799 32.3501 32.5799 32.2601 32.5799C32.1701 32.5799 32.0501 32.5799 31.9101 32.5799C31.9901 31.7699 32.0401 31.1099 32.0701 30.5999C32.1001 30.0999 32.1201 29.5499 32.1401 28.9699C32.1601 28.3899 32.1901 27.8499 32.2201 27.3399C32.0501 27.4799 31.9201 27.5799 31.8301 27.6499C31.7401 27.7199 31.6401 27.7799 31.5301 27.8299C31.4201 27.8799 31.2901 27.9399 31.1401 27.9899C30.9901 28.0499 30.8501 28.0899 30.7301 28.1299C30.6001 28.1699 30.3001 28.2499 29.8101 28.3799C29.3301 28.5099 28.9801 28.5999 28.7701 28.6699C28.3001 28.8199 27.9301 28.9599 27.6801 29.0899C27.4001 29.2299 27.1701 29.3899 26.9801 29.5699C26.8201 29.7199 26.7001 29.8899 26.6201 30.0599C26.5301 30.2599 26.4901 30.4799 26.4901 30.6999C26.4901 31.0399 26.6001 31.3399 26.8101 31.5999C27.0201 31.8599 27.2901 32.0299 27.6201 32.1399C27.9501 32.2399 28.3401 32.2999 28.8001 32.2999C29.0301 32.2999 29.2501 32.2899 29.4701 32.2599C29.6801 32.2399 29.8901 32.1999 30.0701 32.1599C30.2601 32.1199 30.5301 32.0399 30.8901 31.9299C30.8401 32.1299 30.8001 32.3299 30.7701 32.5399C30.3301 32.6199 29.9701 32.6799 29.6901 32.6999C29.4101 32.7199 29.1501 32.7399 28.9101 32.7399C28.4501 32.7399 28.0301 32.7099 27.6401 32.6399C27.2501 32.5699 26.9201 32.4399 26.6601 32.2299C26.4001 32.0299 26.2001 31.7999 26.0801 31.5299C25.9501 31.2599 25.8901 30.9899 25.8901 30.6899C25.8901 30.4699 25.9301 30.2499 26.0001 30.0399C26.0801 29.8299 26.1901 29.6299 26.3501 29.4399C26.4801 29.2799 26.6601 29.1299 26.8801 28.9899C27.1401 28.8199 27.4201 28.6799 27.7301 28.5599C28.0901 28.4199 28.4801 28.2999 28.9001 28.1799C29.0101 28.1499 29.4701 28.0299 30.2601 27.8399C30.6201 27.7499 30.9501 27.6399 31.2701 27.4999C31.5901 27.3599 31.8301 27.1799 32.0101 26.9299C32.1901 26.6899 32.2701 26.4399 32.2701 26.1899C32.2701 26.0099 32.2301 25.8399 32.1501 25.6699C32.0701 25.4999 31.9201 25.3399 31.7101 25.1999C31.5001 25.0499 31.2401 24.9499 30.9301 24.8899C30.6201 24.8299 30.2901 24.7999 29.9401 24.7999C29.5401 24.7999 29.1701 24.8299 28.8201 24.8799C28.4701 24.9299 28.1701 24.9899 27.9301 25.0599C27.6901 25.1299 27.3901 25.2299 27.0201 25.3699H27.0101Z" fill="#545454"/>
<path d="M38.2802 32.0799C38.2402 32.2399 38.2002 32.4099 38.1802 32.5799C37.7402 32.6899 37.3302 32.7399 36.9602 32.7399C36.6502 32.7399 36.3702 32.7099 36.1302 32.6399C35.8902 32.5699 35.6902 32.4499 35.5302 32.2799C35.3802 32.1099 35.2802 31.9199 35.2302 31.7099C35.1802 31.4999 35.1602 31.2799 35.1602 31.0399C35.1602 30.9999 35.1602 30.9299 35.1602 30.8399C35.1602 30.7499 35.1702 30.5499 35.1902 30.2399L35.4602 24.9599H34.4502C34.4702 24.8199 34.4902 24.6699 34.4902 24.5299H35.4902C35.5202 24.1999 35.5402 23.6999 35.5602 23.0299C35.7702 22.9999 35.9502 22.9699 36.1002 22.9299C36.0602 23.7899 36.0402 24.3299 36.0402 24.5299H38.5102C38.4902 24.6699 38.4702 24.8199 38.4702 24.9599H36.0202L35.7502 30.4199V30.7499C35.7502 31.1999 35.8002 31.5199 35.9002 31.7199C36.0102 31.9199 36.1602 32.0699 36.3502 32.1599C36.5402 32.2499 36.7502 32.2899 36.9502 32.2899C37.1002 32.2899 37.2602 32.2799 37.4202 32.2599C37.5902 32.2399 37.8702 32.1799 38.2802 32.0799Z" fill="#545454"/>
<path d="M42.9203 32.0799C42.8803 32.2399 42.8403 32.4099 42.8203 32.5799C42.3803 32.6899 41.9703 32.7399 41.6003 32.7399C41.2903 32.7399 41.0103 32.7099 40.7703 32.6399C40.5303 32.5699 40.3303 32.4499 40.1703 32.2799C40.0203 32.1099 39.9203 31.9199 39.8703 31.7099C39.8203 31.4999 39.8003 31.2799 39.8003 31.0399C39.8003 30.9999 39.8003 30.9299 39.8003 30.8399C39.8003 30.7499 39.8103 30.5499 39.8303 30.2399L40.1003 24.9599H39.0903C39.1103 24.8199 39.1303 24.6699 39.1303 24.5299H40.1303C40.1603 24.1999 40.1803 23.6999 40.2003 23.0299C40.4103 22.9999 40.5903 22.9699 40.7403 22.9299C40.7003 23.7899 40.6803 24.3299 40.6803 24.5299H43.1503C43.1303 24.6699 43.1103 24.8199 43.1103 24.9599H40.6603L40.3903 30.4199V30.7499C40.3903 31.1999 40.4403 31.5199 40.5403 31.7199C40.6503 31.9199 40.8003 32.0699 40.9903 32.1599C41.1803 32.2499 41.3903 32.2899 41.5903 32.2899C41.7403 32.2899 41.9003 32.2799 42.0603 32.2599C42.2303 32.2399 42.5103 32.1799 42.9203 32.0799Z" fill="#545454"/>
<path d="M50.4199 31.7899C50.3799 31.9899 50.3399 32.1899 50.3199 32.3999C49.8699 32.5299 49.4599 32.6199 49.0999 32.6699C48.7399 32.7199 48.3699 32.7499 47.9899 32.7499C47.3299 32.7499 46.7499 32.6599 46.2399 32.4899C45.7299 32.3199 45.2999 32.0299 44.9399 31.6299C44.5799 31.2299 44.3199 30.7799 44.1699 30.2799C44.0199 29.7799 43.9399 29.2499 43.9399 28.6899C43.9399 27.9499 44.0699 27.2599 44.3299 26.6199C44.5899 25.9699 45.0299 25.4399 45.6299 25.0199C46.2299 24.5999 46.9799 24.3799 47.8699 24.3799C48.4799 24.3799 49.0399 24.4899 49.5399 24.7099C50.0399 24.9299 50.4299 25.2899 50.6999 25.7899C50.9799 26.2899 51.1199 26.8799 51.1199 27.5699C51.1199 27.6999 51.1199 27.8199 51.0999 27.9399H44.5899C44.5599 28.2899 44.5499 28.5499 44.5499 28.7299C44.5499 29.2299 44.6299 29.7199 44.7799 30.1899C44.9299 30.6599 45.1699 31.0599 45.4799 31.3799C45.7899 31.6999 46.1599 31.9299 46.5999 32.0899C47.0299 32.2399 47.4899 32.3199 47.9699 32.3199C48.7099 32.3199 49.5199 32.1499 50.4199 31.8199V31.7899ZM44.6699 27.4899H50.5199C50.5199 27.1299 50.4899 26.8499 50.4499 26.6499C50.4099 26.4499 50.3399 26.2499 50.2399 26.0399C50.1399 25.8299 50.0099 25.6499 49.8699 25.4999C49.7299 25.3499 49.5499 25.2199 49.3599 25.1199C49.1699 25.0199 48.9499 24.9399 48.7099 24.8799C48.4699 24.8299 48.2199 24.7999 47.9499 24.7999C47.6599 24.7999 47.3699 24.8299 47.0899 24.8999C46.8099 24.9599 46.5599 25.0499 46.3199 25.1599C46.0899 25.2699 45.8699 25.4099 45.6699 25.5899C45.4699 25.7599 45.3099 25.9499 45.1799 26.1499C45.0499 26.3499 44.9499 26.5399 44.8799 26.7299C44.8099 26.9099 44.7399 27.1599 44.6599 27.4799L44.6699 27.4899Z" fill="#545454"/>
<path d="M52.6401 32.5799C52.7101 31.4599 52.7701 30.1399 52.8301 28.6299C52.8901 27.1199 52.9201 25.9899 52.9201 25.2499V24.5299C53.0201 24.5299 53.1201 24.5299 53.2201 24.5299C53.3201 24.5299 53.4201 24.5299 53.5201 24.5299L53.4501 26.0399C53.6401 25.6799 53.8101 25.4099 53.9701 25.2199C54.1301 25.0299 54.3101 24.8799 54.5201 24.7499C54.7301 24.6299 54.9801 24.5299 55.2601 24.4599C55.5401 24.3899 55.8401 24.3599 56.1401 24.3599C56.3601 24.3599 56.5901 24.3899 56.8201 24.4399C56.8201 24.6199 56.8301 24.7999 56.8501 24.9799C56.4801 24.8899 56.1601 24.8399 55.9001 24.8399C55.6401 24.8399 55.4001 24.8799 55.1901 24.9399C54.9801 25.0099 54.7801 25.1099 54.6001 25.2399C54.4201 25.3699 54.2401 25.5499 54.0601 25.7899C53.8801 26.0199 53.7501 26.2699 53.6701 26.5299C53.5601 26.8299 53.4901 27.1999 53.4501 27.6399C53.3901 28.3199 53.3601 29.0999 53.3401 29.9699C53.3201 31.1399 53.3101 32.0099 53.3101 32.5799C53.1701 32.5799 53.0601 32.5799 52.9801 32.5799C52.9001 32.5799 52.7901 32.5799 52.6501 32.5799H52.6401Z" fill="#545454"/>
<path d="M58.0503 32.58C58.1103 31.78 58.1803 30.3899 58.2603 28.41C58.3403 26.43 58.3803 25.13 58.3803 24.53C58.5203 24.53 58.6303 24.53 58.7003 24.53C58.7803 24.53 58.8903 24.53 59.0303 24.53C58.9503 25.54 58.8803 26.92 58.8003 28.66C58.7203 30.4 58.6903 31.71 58.6903 32.58C58.5503 32.58 58.4403 32.58 58.3603 32.58C58.2803 32.58 58.1703 32.58 58.0303 32.58H58.0503ZM58.3503 22.49L58.3703 21.7C58.5103 21.7 58.6503 21.7 58.7903 21.7C58.9303 21.7 59.0703 21.7 59.2103 21.7L59.1903 22.49C59.0503 22.48 58.9103 22.4699 58.7703 22.4699C58.6303 22.4699 58.4903 22.47 58.3503 22.49Z" fill="#545454"/>
<path d="M67.3301 31.7899C67.2901 31.9899 67.2501 32.1899 67.2301 32.3999C66.7801 32.5299 66.3701 32.6199 66.0101 32.6699C65.6501 32.7199 65.2801 32.7499 64.9001 32.7499C64.2401 32.7499 63.6601 32.6599 63.1501 32.4899C62.6401 32.3199 62.2101 32.0299 61.8501 31.6299C61.4901 31.2299 61.2301 30.7799 61.0801 30.2799C60.9301 29.7799 60.8501 29.2499 60.8501 28.6899C60.8501 27.9499 60.9801 27.2599 61.2401 26.6199C61.5001 25.9699 61.9401 25.4399 62.5401 25.0199C63.1401 24.5999 63.8901 24.3799 64.7801 24.3799C65.3901 24.3799 65.9501 24.4899 66.4501 24.7099C66.9501 24.9299 67.3401 25.2899 67.6101 25.7899C67.8901 26.2899 68.0301 26.8799 68.0301 27.5699C68.0301 27.6999 68.0301 27.8199 68.0101 27.9399H61.5001C61.4701 28.2899 61.4601 28.5499 61.4601 28.7299C61.4601 29.2299 61.5401 29.7199 61.6901 30.1899C61.8401 30.6599 62.0801 31.0599 62.3901 31.3799C62.7001 31.6999 63.0701 31.9299 63.5101 32.0899C63.9401 32.2399 64.4001 32.3199 64.8801 32.3199C65.6201 32.3199 66.4301 32.1499 67.3301 31.8199V31.7899ZM61.5801 27.4899H67.4301C67.4301 27.1299 67.4001 26.8499 67.3601 26.6499C67.3201 26.4499 67.2501 26.2499 67.1501 26.0399C67.0501 25.8299 66.9201 25.6499 66.7801 25.4999C66.6401 25.3499 66.4601 25.2199 66.2701 25.1199C66.0801 25.0199 65.8601 24.9399 65.6201 24.8799C65.3801 24.8299 65.1301 24.7999 64.8601 24.7999C64.5701 24.7999 64.2801 24.8299 64.0001 24.8999C63.7201 24.9599 63.4701 25.0499 63.2301 25.1599C63.0001 25.2699 62.7801 25.4099 62.5801 25.5899C62.3801 25.7599 62.2201 25.9499 62.0901 26.1499C61.9601 26.3499 61.8601 26.5399 61.7901 26.7299C61.7201 26.9099 61.6501 27.1599 61.5701 27.4799L61.5801 27.4899Z" fill="#545454"/>
<path d="M69.0602 32.4199C69.0502 32.1699 69.0302 31.9399 68.9902 31.7399C69.4202 31.9299 69.8302 32.0599 70.2102 32.1299C70.5902 32.1999 70.9402 32.2399 71.2602 32.2399C71.6802 32.2399 72.0402 32.1799 72.3402 32.0699C72.6402 31.9499 72.8602 31.7799 73.0202 31.5499C73.1802 31.3199 73.2502 31.0799 73.2502 30.8299C73.2502 30.7199 73.2402 30.6099 73.2102 30.5099C73.1802 30.4099 73.1502 30.2999 73.0902 30.1999C73.0402 30.0999 72.9702 29.9999 72.9102 29.9099C72.8402 29.8199 72.7502 29.7199 72.6202 29.6099C72.5002 29.4999 72.3502 29.3699 72.1902 29.2399C72.0302 29.0999 71.7702 28.8899 71.4202 28.6099C71.0702 28.3299 70.7802 28.0899 70.5502 27.8799C70.3202 27.6699 70.1302 27.4699 69.9802 27.2599C69.8302 27.0499 69.7202 26.8599 69.6602 26.6799C69.6002 26.5099 69.5702 26.3299 69.5702 26.1499C69.5702 25.8399 69.6702 25.5399 69.8702 25.2499C70.0702 24.9599 70.3602 24.7399 70.7302 24.5799C71.1102 24.4299 71.5802 24.3499 72.1602 24.3499C72.6402 24.3499 73.1802 24.4099 73.7902 24.5299C73.7902 24.7599 73.8102 24.9899 73.8402 25.2099C73.4902 25.0699 73.1802 24.9699 72.9002 24.9199C72.6202 24.8699 72.3402 24.8399 72.0602 24.8399C71.7002 24.8399 71.3802 24.8899 71.0702 24.9999C70.7702 25.0999 70.5402 25.2599 70.3902 25.4499C70.2402 25.6499 70.1602 25.8699 70.1602 26.0999C70.1602 26.2299 70.1802 26.3499 70.2102 26.4599C70.2402 26.5699 70.2902 26.6799 70.3702 26.7999C70.4402 26.9099 70.5302 27.0299 70.6502 27.1499C70.7602 27.2699 70.9102 27.4099 71.0902 27.5599C71.2702 27.7199 71.5302 27.9299 71.8602 28.2099C72.1902 28.4899 72.4502 28.6899 72.6102 28.8299C72.7702 28.9699 72.9202 29.0999 73.0302 29.2199C73.1502 29.3399 73.2602 29.4699 73.3702 29.6099C73.4802 29.7499 73.5602 29.8899 73.6302 30.0199C73.7002 30.1499 73.7502 30.2899 73.7802 30.4199C73.8102 30.5599 73.8302 30.6899 73.8302 30.8299C73.8302 31.1599 73.7302 31.4799 73.5302 31.7799C73.3302 32.0799 73.0302 32.3099 72.6502 32.4799C72.2702 32.6499 71.8002 32.7299 71.2602 32.7299C71.0602 32.7299 70.8002 32.7099 70.5002 32.6799C70.2002 32.6499 69.9502 32.6199 69.7702 32.5799C69.5902 32.5499 69.3502 32.4899 69.0802 32.4099L69.0602 32.4199Z" fill="#545454"/>
<path d="M0 77.5201C0 74.5101 2.40999 72.0201 5.42999 72.0001C8.44999 71.9801 10.92 74.4401 10.92 77.4601V103.14C10.92 106.15 8.50999 108.64 5.48999 108.66C2.46999 108.68 0 106.22 0 103.2V77.5201Z" fill="#BC9E30"/>
<path d="M25.6698 103.73C25.6298 103.92 25.5898 104.13 25.5598 104.38C24.9998 104.51 24.4798 104.61 23.9898 104.66C23.4998 104.71 23.0598 104.74 22.6698 104.74C21.8698 104.74 21.1098 104.62 20.3898 104.37C19.6698 104.12 19.0598 103.75 18.5398 103.26C18.0298 102.77 17.6498 102.19 17.4098 101.51C17.1698 100.84 17.0498 100.13 17.0498 99.38C17.0498 98.55 17.1898 97.75 17.4698 96.97C17.7498 96.19 18.1598 95.55 18.7098 95.04C19.2498 94.53 19.8998 94.15 20.6598 93.9C21.4198 93.65 22.2298 93.53 23.0898 93.53C23.3798 93.53 23.6898 93.54 24.0298 93.57C24.3698 93.6 24.6398 93.63 24.8598 93.66C25.0798 93.69 25.3698 93.74 25.7298 93.82C25.7398 94.04 25.7698 94.27 25.7998 94.51C25.1998 94.32 24.6798 94.19 24.2398 94.13C23.7998 94.07 23.3798 94.03 22.9798 94.03C22.2698 94.03 21.5898 94.14 20.9398 94.35C20.2898 94.56 19.7098 94.9 19.2098 95.37C18.7098 95.84 18.3298 96.42 18.0598 97.12C17.7898 97.81 17.6598 98.53 17.6598 99.27C17.6598 100.01 17.7698 100.66 17.9898 101.31C18.2098 101.96 18.5398 102.5 18.9898 102.93C19.4398 103.36 19.9698 103.7 20.5898 103.92C21.2098 104.15 21.8898 104.26 22.6198 104.26C23.5298 104.26 24.5398 104.09 25.6598 103.74L25.6698 103.73Z" fill="#545454"/>
<path d="M33.6997 103.79C33.6597 103.99 33.6197 104.19 33.5997 104.4C33.1497 104.53 32.7397 104.62 32.3797 104.67C32.0197 104.72 31.6497 104.75 31.2697 104.75C30.6097 104.75 30.0297 104.66 29.5197 104.49C29.0097 104.32 28.5797 104.03 28.2197 103.63C27.8597 103.23 27.5997 102.78 27.4497 102.28C27.2997 101.78 27.2197 101.25 27.2197 100.69C27.2197 99.9501 27.3497 99.2601 27.6097 98.6201C27.8697 97.9701 28.3097 97.4401 28.9097 97.0201C29.5097 96.6001 30.2597 96.3801 31.1497 96.3801C31.7597 96.3801 32.3197 96.4901 32.8197 96.7101C33.3197 96.9301 33.7097 97.2901 33.9797 97.7901C34.2597 98.2901 34.3997 98.8801 34.3997 99.5701C34.3997 99.7001 34.3997 99.8201 34.3797 99.9401H27.8697C27.8397 100.29 27.8297 100.55 27.8297 100.73C27.8297 101.23 27.9097 101.72 28.0597 102.19C28.2097 102.66 28.4497 103.06 28.7597 103.38C29.0697 103.7 29.4397 103.93 29.8797 104.09C30.3097 104.24 30.7697 104.32 31.2497 104.32C31.9897 104.32 32.7997 104.15 33.6997 103.82V103.79ZM27.9497 99.4901H33.7997C33.7997 99.1301 33.7697 98.8501 33.7297 98.6501C33.6897 98.4501 33.6197 98.2501 33.5197 98.0401C33.4197 97.8301 33.2897 97.6501 33.1497 97.5001C33.0097 97.3501 32.8297 97.2201 32.6397 97.1201C32.4497 97.0201 32.2297 96.9401 31.9897 96.8801C31.7497 96.8301 31.4997 96.8001 31.2297 96.8001C30.9397 96.8001 30.6497 96.8301 30.3697 96.9001C30.0897 96.9601 29.8397 97.0501 29.5997 97.1601C29.3697 97.2701 29.1497 97.4101 28.9497 97.5901C28.7497 97.7601 28.5897 97.9501 28.4597 98.1501C28.3297 98.3501 28.2297 98.5401 28.1597 98.7301C28.0897 98.9101 28.0197 99.1601 27.9397 99.4801L27.9497 99.4901Z" fill="#545454"/>
<path d="M35.9097 104.58C35.9797 103.46 36.0397 102.14 36.0997 100.63C36.1597 99.1201 36.1897 97.9901 36.1897 97.2501V96.5301C36.2897 96.5301 36.3897 96.5301 36.4897 96.5301C36.5897 96.5301 36.6897 96.5301 36.7897 96.5301L36.7197 98.0401C36.9097 97.6801 37.0797 97.4101 37.2397 97.2201C37.3997 97.0301 37.5797 96.8801 37.7897 96.7501C37.9997 96.6301 38.2497 96.5301 38.5297 96.4601C38.8097 96.3901 39.1097 96.3601 39.4097 96.3601C39.6297 96.3601 39.8597 96.3901 40.0897 96.4401C40.0897 96.6201 40.0997 96.8001 40.1197 96.9801C39.7497 96.8901 39.4297 96.8401 39.1697 96.8401C38.9097 96.8401 38.6697 96.8801 38.4597 96.9401C38.2497 97.0101 38.0497 97.1101 37.8697 97.2401C37.6897 97.3701 37.5097 97.5501 37.3297 97.7901C37.1497 98.0201 37.0197 98.2701 36.9397 98.5301C36.8297 98.8301 36.7597 99.2001 36.7197 99.6401C36.6597 100.32 36.6297 101.1 36.6097 101.97C36.5897 103.14 36.5797 104.01 36.5797 104.58C36.4397 104.58 36.3297 104.58 36.2497 104.58C36.1697 104.58 36.0597 104.58 35.9197 104.58H35.9097Z" fill="#545454"/>
<path d="M41.7196 97.3701C41.7596 97.1901 41.7896 96.9801 41.8096 96.7501C42.3696 96.6001 42.8496 96.5001 43.2596 96.4401C43.6696 96.3801 44.0896 96.3601 44.5096 96.3601C44.9996 96.3601 45.4496 96.4001 45.8696 96.4801C46.2896 96.5601 46.6296 96.7001 46.8996 96.8901C47.1696 97.0801 47.3396 97.3101 47.4296 97.5601C47.5196 97.8101 47.5596 98.0601 47.5596 98.3301C47.5596 98.6001 47.5596 98.9301 47.5296 99.3401C47.5096 99.7501 47.4796 100.18 47.4496 100.65C47.4196 101.12 47.3896 101.7 47.3596 102.4C47.3296 103.1 47.3196 103.6 47.3196 103.91V104.58C47.1796 104.58 47.0596 104.58 46.9696 104.58C46.8796 104.58 46.7596 104.58 46.6196 104.58C46.6996 103.77 46.7496 103.11 46.7796 102.6C46.8096 102.1 46.8296 101.55 46.8496 100.97C46.8696 100.39 46.8996 99.8501 46.9296 99.3401C46.7596 99.4801 46.6296 99.5801 46.5396 99.6501C46.4496 99.7201 46.3496 99.7801 46.2396 99.8301C46.1296 99.8801 45.9996 99.9401 45.8496 99.9901C45.6996 100.05 45.5596 100.09 45.4396 100.13C45.3096 100.17 45.0096 100.25 44.5196 100.38C44.0396 100.51 43.6896 100.6 43.4796 100.67C43.0096 100.82 42.6396 100.96 42.3896 101.09C42.1096 101.23 41.8796 101.39 41.6896 101.57C41.5296 101.72 41.4096 101.89 41.3296 102.06C41.2396 102.26 41.1996 102.48 41.1996 102.7C41.1996 103.04 41.3096 103.34 41.5196 103.6C41.7296 103.86 41.9996 104.03 42.3296 104.14C42.6596 104.24 43.0496 104.3 43.5096 104.3C43.7396 104.3 43.9596 104.29 44.1796 104.26C44.3896 104.24 44.5996 104.2 44.7796 104.16C44.9696 104.12 45.2396 104.04 45.5996 103.93C45.5496 104.13 45.5096 104.33 45.4796 104.54C45.0396 104.62 44.6796 104.68 44.3996 104.7C44.1196 104.72 43.8596 104.74 43.6196 104.74C43.1596 104.74 42.7396 104.71 42.3496 104.64C41.9596 104.57 41.6296 104.44 41.3696 104.23C41.1096 104.03 40.9096 103.8 40.7896 103.53C40.6596 103.26 40.5996 102.99 40.5996 102.69C40.5996 102.47 40.6396 102.25 40.7096 102.04C40.7896 101.83 40.8996 101.63 41.0596 101.44C41.1896 101.28 41.3696 101.13 41.5896 100.99C41.8496 100.82 42.1296 100.68 42.4396 100.56C42.7996 100.42 43.1896 100.3 43.6096 100.18C43.7196 100.15 44.1796 100.03 44.9696 99.8401C45.3296 99.7501 45.6596 99.6401 45.9796 99.5001C46.2996 99.3601 46.5396 99.1801 46.7196 98.9301C46.8996 98.6901 46.9796 98.4401 46.9796 98.1901C46.9796 98.0101 46.9396 97.8401 46.8596 97.6701C46.7796 97.5001 46.6296 97.3401 46.4196 97.2001C46.2096 97.0501 45.9496 96.9501 45.6396 96.8901C45.3296 96.8301 44.9996 96.8001 44.6496 96.8001C44.2496 96.8001 43.8796 96.8301 43.5296 96.8801C43.1796 96.9301 42.8796 96.9901 42.6396 97.0601C42.3996 97.1301 42.0996 97.2301 41.7296 97.3701H41.7196Z" fill="#545454"/>
<path d="M49.5998 104.58L49.6898 103.5C49.7098 103.28 49.7198 103.06 49.7298 102.85L49.9398 97.5301C49.9398 97.1401 49.9398 96.8101 49.9398 96.5301C50.0498 96.5301 50.1598 96.5301 50.2598 96.5301C50.3598 96.5301 50.4698 96.5301 50.5698 96.5301L50.4898 98.2001C50.6698 97.8801 50.8298 97.6201 50.9698 97.4301C51.1198 97.2401 51.3198 97.0701 51.5698 96.9001C51.8198 96.7301 52.0998 96.6001 52.4198 96.5001C52.7398 96.4001 53.0698 96.3601 53.4198 96.3601C53.7198 96.3601 53.9998 96.4001 54.2698 96.4701C54.5398 96.5401 54.7698 96.6401 54.9598 96.7501C55.1498 96.8601 55.3098 96.9901 55.4298 97.1301C55.5598 97.2701 55.6498 97.4101 55.7198 97.5601C55.7898 97.7101 55.8598 97.9101 55.9198 98.1701C56.0298 97.9601 56.1298 97.7801 56.2298 97.6301C56.3298 97.4801 56.4598 97.3201 56.6298 97.1601C56.7998 97.0001 56.9998 96.8601 57.2298 96.7401C57.4598 96.6201 57.7198 96.5301 57.9998 96.4601C58.2798 96.3901 58.5698 96.3601 58.8698 96.3601C59.3198 96.3601 59.7598 96.4401 60.1598 96.5901C60.5598 96.7401 60.8798 96.9801 61.0998 97.3201C61.3198 97.6601 61.4298 98.0601 61.4298 98.5201C61.4298 98.7801 61.4098 99.1801 61.3698 99.7001C61.3298 100.23 61.2898 100.98 61.2398 101.96C61.1898 102.93 61.1698 103.81 61.1598 104.58C61.0198 104.58 60.9098 104.58 60.8298 104.58C60.7498 104.58 60.6398 104.58 60.4998 104.58C60.5498 103.93 60.5998 103.15 60.6498 102.24L60.7698 100.05C60.7998 99.5001 60.8198 99.0501 60.8198 98.7001C60.8198 98.5101 60.8198 98.3501 60.7998 98.2201C60.7798 98.0801 60.7498 97.9501 60.6898 97.8201C60.6298 97.6901 60.5498 97.5701 60.4398 97.4501C60.3298 97.3301 60.1998 97.2301 60.0398 97.1401C59.8798 97.0501 59.6998 96.9801 59.4798 96.9301C59.2598 96.8801 59.0298 96.8501 58.7798 96.8501C58.4198 96.8501 58.0998 96.9001 57.7898 97.0101C57.4898 97.1201 57.2198 97.2701 56.9798 97.4601C56.7398 97.6501 56.5398 97.8801 56.3798 98.1501C56.2198 98.4201 56.0998 98.7901 55.9998 99.2501C55.9098 99.6501 55.8498 100.36 55.8198 101.39L55.7298 104.58C55.5898 104.58 55.4798 104.58 55.3998 104.58C55.3198 104.58 55.2098 104.58 55.0698 104.58C55.1298 103.85 55.1698 103.14 55.1898 102.44L55.2898 100.43C55.3198 99.7901 55.3398 99.2601 55.3398 98.8401C55.3398 98.4501 55.2998 98.1401 55.2198 97.9301C55.1398 97.7201 55.0198 97.5301 54.8498 97.3701C54.6798 97.2001 54.4598 97.0801 54.1998 96.9801C53.9398 96.8901 53.6498 96.8401 53.3398 96.8401C52.9998 96.8401 52.6698 96.8901 52.3598 97.0001C52.0498 97.1101 51.7698 97.2601 51.5298 97.4601C51.2898 97.6601 51.0798 97.9001 50.9198 98.2001C50.7498 98.4901 50.6198 98.8701 50.5098 99.3501C50.4198 99.7701 50.3498 100.51 50.3098 101.57C50.2598 102.74 50.2298 103.74 50.2298 104.57C50.0898 104.57 49.9798 104.57 49.8998 104.57C49.8198 104.57 49.7098 104.57 49.5698 104.57L49.5998 104.58Z" fill="#545454"/>
<path d="M63.6098 104.58C63.6698 103.78 63.7398 102.39 63.8198 100.41C63.8998 98.43 63.9398 97.13 63.9398 96.53C64.0798 96.53 64.1898 96.53 64.2598 96.53C64.3398 96.53 64.4498 96.53 64.5898 96.53C64.5098 97.54 64.4398 98.92 64.3598 100.66C64.2798 102.4 64.2498 103.71 64.2498 104.58C64.1098 104.58 63.9998 104.58 63.9198 104.58C63.8398 104.58 63.7298 104.58 63.5898 104.58H63.6098ZM63.9098 94.49L63.9298 93.7C64.0698 93.7 64.2098 93.7 64.3498 93.7C64.4898 93.7 64.6298 93.7 64.7698 93.7L64.7498 94.49C64.6098 94.48 64.4698 94.4699 64.3298 94.4699C64.1898 94.4699 64.0498 94.47 63.9098 94.49Z" fill="#545454"/>
<path d="M72.3999 103.93C72.3499 104.15 72.3099 104.35 72.2799 104.54C71.5799 104.67 70.9399 104.74 70.3299 104.74C69.7599 104.74 69.2299 104.66 68.7299 104.51C68.2299 104.36 67.8099 104.11 67.4499 103.76C67.0899 103.42 66.8299 102.99 66.6599 102.47C66.4899 101.95 66.3999 101.41 66.3999 100.84C66.3999 100.06 66.5399 99.3301 66.8099 98.6301C67.0799 97.9301 67.5099 97.3801 68.1099 96.9701C68.7099 96.5601 69.5099 96.3601 70.5199 96.3601C71.2599 96.3601 71.9599 96.4601 72.6299 96.6501C72.6299 96.8301 72.6499 97.0101 72.6899 97.2101C72.1199 97.0401 71.6699 96.9301 71.3499 96.8801C71.0299 96.8301 70.7299 96.8001 70.4599 96.8001C69.8799 96.8001 69.3799 96.9101 68.9299 97.1201C68.4799 97.3301 68.1199 97.6401 67.8199 98.0301C67.5299 98.4201 67.3199 98.8601 67.1999 99.3501C67.0799 99.8401 67.0199 100.32 67.0199 100.81C67.0199 101.34 67.0899 101.83 67.2299 102.28C67.3699 102.74 67.5899 103.11 67.8899 103.4C68.1899 103.69 68.5599 103.91 68.9999 104.06C69.4399 104.21 69.8999 104.29 70.3799 104.29C70.6499 104.29 70.9299 104.26 71.2299 104.21C71.5299 104.16 71.9199 104.06 72.3999 103.93Z" fill="#545454"/>
<path d="M73.84 104.42C73.83 104.17 73.81 103.94 73.77 103.74C74.2 103.93 74.61 104.06 74.99 104.13C75.37 104.2 75.72 104.24 76.04 104.24C76.46 104.24 76.82 104.18 77.12 104.07C77.42 103.95 77.64 103.78 77.8 103.55C77.96 103.32 78.03 103.08 78.03 102.83C78.03 102.72 78.02 102.61 77.99 102.51C77.96 102.41 77.93 102.3 77.87 102.2C77.82 102.1 77.75 102 77.69 101.91C77.62 101.82 77.53 101.72 77.4 101.61C77.28 101.5 77.13 101.37 76.97 101.24C76.81 101.1 76.55 100.89 76.2 100.61C75.85 100.33 75.56 100.09 75.33 99.8801C75.1 99.6701 74.91 99.4701 74.76 99.2601C74.61 99.0501 74.5 98.8601 74.44 98.6801C74.38 98.5101 74.35 98.3301 74.35 98.1501C74.35 97.8401 74.45 97.5401 74.65 97.2501C74.85 96.9601 75.14 96.7401 75.51 96.5801C75.89 96.4301 76.36 96.3501 76.94 96.3501C77.42 96.3501 77.96 96.4101 78.57 96.5301C78.57 96.7601 78.59 96.9901 78.62 97.2101C78.27 97.0701 77.96 96.9701 77.68 96.9201C77.4 96.8701 77.12 96.8401 76.84 96.8401C76.48 96.8401 76.16 96.8901 75.85 97.0001C75.55 97.1001 75.32 97.2601 75.17 97.4501C75.02 97.6501 74.94 97.8701 74.94 98.1001C74.94 98.2301 74.96 98.3501 74.99 98.4601C75.02 98.5701 75.07 98.6801 75.15 98.8001C75.22 98.9101 75.31 99.0301 75.43 99.1501C75.54 99.2701 75.69 99.4101 75.87 99.5601C76.05 99.7201 76.31 99.9301 76.64 100.21C76.97 100.49 77.23 100.69 77.39 100.83C77.55 100.97 77.7 101.1 77.81 101.22C77.93 101.34 78.04 101.47 78.15 101.61C78.26 101.75 78.34 101.89 78.41 102.02C78.48 102.15 78.53 102.29 78.56 102.42C78.59 102.56 78.61 102.69 78.61 102.83C78.61 103.16 78.51 103.48 78.31 103.78C78.11 104.08 77.81 104.31 77.43 104.48C77.05 104.65 76.58 104.73 76.04 104.73C75.84 104.73 75.58 104.71 75.28 104.68C74.98 104.65 74.73 104.62 74.55 104.58C74.37 104.55 74.13 104.49 73.86 104.41L73.84 104.42Z" fill="#545454"/>
<path d="M92.5296 100.16C92.6396 100.16 92.7396 100.16 92.8196 100.16C92.9096 100.16 92.9996 100.16 93.1096 100.16C93.0996 100.66 93.0296 101.14 92.8996 101.62C92.7696 102.09 92.5896 102.53 92.3496 102.93C92.7096 103.24 93.0396 103.52 93.3696 103.79C93.6896 104.05 94.0096 104.32 94.3196 104.58C94.1796 104.58 94.0396 104.58 93.8896 104.58C93.7396 104.58 93.5896 104.58 93.4596 104.58L92.0296 103.36C91.8396 103.54 91.6796 103.69 91.5396 103.81C91.3996 103.93 91.2196 104.05 90.9996 104.17C90.7796 104.29 90.5296 104.39 90.2596 104.48C89.9896 104.57 89.6896 104.63 89.3596 104.68C89.0296 104.73 88.6796 104.75 88.3196 104.75C87.5596 104.75 86.8996 104.63 86.3296 104.4C85.7596 104.16 85.3296 103.83 85.0296 103.4C84.7296 102.97 84.5796 102.5 84.5796 101.99C84.5796 101.72 84.6196 101.45 84.6996 101.19C84.7796 100.93 84.9096 100.67 85.1096 100.41C85.3096 100.16 85.5496 99.92 85.8396 99.7C86.1296 99.48 86.6396 99.16 87.3796 98.73C87.1196 98.39 86.9296 98.11 86.7996 97.91C86.6696 97.7 86.5596 97.49 86.4496 97.26C86.3496 97.03 86.2696 96.81 86.2196 96.59C86.1696 96.37 86.1496 96.16 86.1496 95.96C86.1496 95.66 86.2196 95.35 86.3496 95.05C86.4796 94.75 86.6796 94.48 86.9496 94.24C87.2196 94 87.5296 93.82 87.8996 93.71C88.2596 93.6 88.6396 93.54 89.0396 93.54C89.3196 93.54 89.5896 93.57 89.8696 93.62C90.1396 93.67 90.4496 93.77 90.7896 93.92C90.7896 94.02 90.7896 94.12 90.7896 94.21C90.7896 94.29 90.7896 94.39 90.7896 94.5C90.2896 94.15 89.7196 93.97 89.0796 93.97C88.6296 93.97 88.2096 94.06 87.8496 94.23C87.4896 94.4 87.1996 94.65 87.0096 94.98C86.8196 95.31 86.7296 95.64 86.7296 95.99C86.7296 96.34 86.8096 96.69 86.9596 97.03C87.1096 97.37 87.4196 97.85 87.8796 98.45C88.3396 99.05 88.9496 99.73 89.6896 100.49C90.4396 101.25 91.1996 101.95 91.9696 102.59C92.0796 102.37 92.1696 102.19 92.2096 102.07C92.2596 101.95 92.2996 101.78 92.3496 101.59C92.3996 101.4 92.4396 101.18 92.4696 100.95C92.4996 100.73 92.5196 100.47 92.5396 100.18L92.5296 100.16ZM91.6296 103.01C90.2596 101.83 88.9396 100.51 87.6696 99.06C87.1196 99.38 86.6996 99.65 86.3996 99.87C86.0996 100.09 85.8496 100.33 85.6496 100.58C85.4496 100.83 85.3296 101.06 85.2596 101.28C85.1896 101.5 85.1596 101.72 85.1596 101.95C85.1596 102.4 85.2996 102.81 85.5696 103.17C85.8396 103.53 86.2296 103.81 86.7296 104.01C87.2296 104.21 87.8096 104.3 88.4596 104.3C88.7696 104.3 89.0596 104.28 89.3496 104.23C89.6296 104.19 89.8996 104.12 90.1396 104.04C90.3796 103.96 90.5996 103.87 90.7896 103.76C90.9796 103.65 91.1296 103.54 91.2496 103.43C91.3596 103.32 91.4996 103.18 91.6396 103L91.6296 103.01Z" fill="#545454"/>
<path d="M106.32 98.58C107.32 98.58 108.06 98.58 108.53 98.58H109.97L109.83 101.09L109.74 104.17C108.88 104.37 108.11 104.52 107.42 104.6C106.73 104.69 106.15 104.73 105.67 104.73C104.83 104.73 104.03 104.62 103.27 104.39C102.51 104.16 101.85 103.82 101.31 103.36C100.77 102.9 100.37 102.33 100.11 101.64C99.8497 100.95 99.7197 100.23 99.7197 99.46C99.7197 98.58 99.8897 97.75 100.23 96.96C100.57 96.17 101.03 95.52 101.62 95C102.21 94.48 102.89 94.1 103.67 93.87C104.44 93.64 105.28 93.52 106.18 93.52C106.68 93.52 107.2 93.55 107.72 93.61C108.24 93.67 108.86 93.78 109.56 93.93C109.57 94.2 109.59 94.45 109.63 94.66C108.85 94.41 108.18 94.24 107.62 94.15C107.07 94.06 106.55 94.02 106.07 94.02C105.26 94.02 104.49 94.14 103.76 94.39C103.03 94.64 102.41 95 101.9 95.49C101.39 95.98 101.01 96.58 100.74 97.3C100.47 98.02 100.34 98.76 100.34 99.52C100.34 100.24 100.46 100.9 100.69 101.52C100.92 102.14 101.27 102.64 101.74 103.03C102.21 103.42 102.77 103.73 103.44 103.94C104.11 104.15 104.84 104.25 105.64 104.25C105.91 104.25 106.21 104.24 106.54 104.21C106.86 104.18 107.19 104.14 107.51 104.09C107.83 104.04 108.1 103.99 108.3 103.94C108.5 103.89 108.78 103.81 109.11 103.71L109.31 99.07H108.33C108.07 99.07 107.8 99.07 107.54 99.07L106.3 99.12C106.32 98.95 106.32 98.8 106.32 98.66V98.57V98.58Z" fill="#545454"/>
<path d="M112.17 104.58C112.42 100.15 112.57 96.52 112.61 93.7C112.75 93.7 112.86 93.7 112.95 93.7C113.04 93.7 113.14 93.7 113.29 93.7L113.08 97.58L112.84 104.58C112.7 104.58 112.59 104.58 112.5 104.58C112.41 104.58 112.31 104.58 112.16 104.58H112.17Z" fill="#545454"/>
<path d="M115.77 97.3701C115.81 97.1901 115.84 96.9801 115.86 96.7501C116.42 96.6001 116.9 96.5001 117.31 96.4401C117.72 96.3801 118.14 96.3601 118.56 96.3601C119.05 96.3601 119.5 96.4001 119.92 96.4801C120.34 96.5601 120.68 96.7001 120.95 96.8901C121.22 97.0801 121.39 97.3101 121.48 97.5601C121.57 97.8101 121.61 98.0601 121.61 98.3301C121.61 98.6001 121.61 98.9301 121.58 99.3401C121.56 99.7501 121.53 100.18 121.5 100.65C121.47 101.12 121.44 101.7 121.41 102.4C121.38 103.1 121.37 103.6 121.37 103.91V104.58C121.23 104.58 121.11 104.58 121.02 104.58C120.93 104.58 120.81 104.58 120.67 104.58C120.75 103.77 120.8 103.11 120.83 102.6C120.86 102.1 120.88 101.55 120.9 100.97C120.92 100.39 120.95 99.8501 120.98 99.3401C120.81 99.4801 120.68 99.5801 120.59 99.6501C120.5 99.7201 120.4 99.7801 120.29 99.8301C120.18 99.8801 120.05 99.9401 119.9 99.9901C119.75 100.05 119.61 100.09 119.49 100.13C119.36 100.17 119.06 100.25 118.57 100.38C118.09 100.51 117.74 100.6 117.53 100.67C117.06 100.82 116.69 100.96 116.44 101.09C116.16 101.23 115.93 101.39 115.74 101.57C115.58 101.72 115.46 101.89 115.38 102.06C115.29 102.26 115.25 102.48 115.25 102.7C115.25 103.04 115.36 103.34 115.57 103.6C115.78 103.86 116.05 104.03 116.38 104.14C116.71 104.24 117.1 104.3 117.56 104.3C117.79 104.3 118.01 104.29 118.23 104.26C118.44 104.24 118.65 104.2 118.83 104.16C119.02 104.12 119.29 104.04 119.65 103.93C119.6 104.13 119.56 104.33 119.53 104.54C119.09 104.62 118.73 104.68 118.45 104.7C118.17 104.72 117.91 104.74 117.67 104.74C117.21 104.74 116.79 104.71 116.4 104.64C116.01 104.57 115.68 104.44 115.42 104.23C115.16 104.03 114.96 103.8 114.84 103.53C114.71 103.26 114.65 102.99 114.65 102.69C114.65 102.47 114.69 102.25 114.76 102.04C114.84 101.83 114.95 101.63 115.11 101.44C115.24 101.28 115.42 101.13 115.64 100.99C115.9 100.82 116.18 100.68 116.49 100.56C116.85 100.42 117.24 100.3 117.66 100.18C117.77 100.15 118.23 100.03 119.02 99.8401C119.38 99.7501 119.71 99.6401 120.03 99.5001C120.35 99.3601 120.59 99.1801 120.77 98.9301C120.95 98.6901 121.03 98.4401 121.03 98.1901C121.03 98.0101 120.99 97.8401 120.91 97.6701C120.83 97.5001 120.68 97.3401 120.47 97.2001C120.26 97.0501 120 96.9501 119.69 96.8901C119.38 96.8301 119.05 96.8001 118.7 96.8001C118.3 96.8001 117.93 96.8301 117.58 96.8801C117.23 96.9301 116.93 96.9901 116.69 97.0601C116.45 97.1301 116.15 97.2301 115.78 97.3701H115.77Z" fill="#545454"/>
<path d="M123.16 104.42C123.15 104.17 123.13 103.94 123.09 103.74C123.52 103.93 123.93 104.06 124.31 104.13C124.69 104.2 125.04 104.24 125.36 104.24C125.78 104.24 126.14 104.18 126.44 104.07C126.74 103.95 126.96 103.78 127.12 103.55C127.28 103.32 127.35 103.08 127.35 102.83C127.35 102.72 127.34 102.61 127.31 102.51C127.28 102.41 127.25 102.3 127.19 102.2C127.14 102.1 127.07 102 127.01 101.91C126.94 101.82 126.85 101.72 126.72 101.61C126.6 101.5 126.45 101.37 126.29 101.24C126.13 101.1 125.87 100.89 125.52 100.61C125.17 100.33 124.88 100.09 124.65 99.8801C124.42 99.6701 124.23 99.4701 124.08 99.2601C123.93 99.0501 123.82 98.8601 123.76 98.6801C123.7 98.5101 123.67 98.3301 123.67 98.1501C123.67 97.8401 123.77 97.5401 123.97 97.2501C124.17 96.9601 124.46 96.7401 124.83 96.5801C125.21 96.4301 125.68 96.3501 126.26 96.3501C126.74 96.3501 127.28 96.4101 127.89 96.5301C127.89 96.7601 127.91 96.9901 127.94 97.2101C127.59 97.0701 127.28 96.9701 127 96.9201C126.72 96.8701 126.44 96.8401 126.16 96.8401C125.8 96.8401 125.48 96.8901 125.17 97.0001C124.87 97.1001 124.64 97.2601 124.49 97.4501C124.34 97.6501 124.26 97.8701 124.26 98.1001C124.26 98.2301 124.28 98.3501 124.31 98.4601C124.34 98.5701 124.39 98.6801 124.47 98.8001C124.54 98.9101 124.63 99.0301 124.75 99.1501C124.86 99.2701 125.01 99.4101 125.19 99.5601C125.37 99.7201 125.63 99.9301 125.96 100.21C126.29 100.49 126.55 100.69 126.71 100.83C126.87 100.97 127.02 101.1 127.13 101.22C127.25 101.34 127.36 101.47 127.47 101.61C127.58 101.75 127.66 101.89 127.73 102.02C127.8 102.15 127.85 102.29 127.88 102.42C127.91 102.56 127.93 102.69 127.93 102.83C127.93 103.16 127.83 103.48 127.63 103.78C127.43 104.08 127.13 104.31 126.75 104.48C126.37 104.65 125.9 104.73 125.36 104.73C125.16 104.73 124.9 104.71 124.6 104.68C124.3 104.65 124.05 104.62 123.87 104.58C123.69 104.55 123.45 104.49 123.18 104.41L123.16 104.42Z" fill="#545454"/>
<path d="M129.21 104.42C129.2 104.17 129.18 103.94 129.14 103.74C129.57 103.93 129.98 104.06 130.36 104.13C130.74 104.2 131.09 104.24 131.41 104.24C131.83 104.24 132.19 104.18 132.49 104.07C132.79 103.95 133.01 103.78 133.17 103.55C133.33 103.32 133.4 103.08 133.4 102.83C133.4 102.72 133.39 102.61 133.36 102.51C133.33 102.41 133.3 102.3 133.24 102.2C133.19 102.1 133.12 102 133.06 101.91C132.99 101.82 132.9 101.72 132.77 101.61C132.65 101.5 132.5 101.37 132.34 101.24C132.18 101.1 131.92 100.89 131.57 100.61C131.22 100.33 130.93 100.09 130.7 99.8801C130.47 99.6701 130.28 99.4701 130.13 99.2601C129.98 99.0501 129.87 98.8601 129.81 98.6801C129.75 98.5101 129.72 98.3301 129.72 98.1501C129.72 97.8401 129.82 97.5401 130.02 97.2501C130.22 96.9601 130.51 96.7401 130.88 96.5801C131.26 96.4301 131.73 96.3501 132.31 96.3501C132.79 96.3501 133.33 96.4101 133.94 96.5301C133.94 96.7601 133.96 96.9901 133.99 97.2101C133.64 97.0701 133.33 96.9701 133.05 96.9201C132.77 96.8701 132.49 96.8401 132.21 96.8401C131.85 96.8401 131.53 96.8901 131.22 97.0001C130.92 97.1001 130.69 97.2601 130.54 97.4501C130.39 97.6501 130.31 97.8701 130.31 98.1001C130.31 98.2301 130.33 98.3501 130.36 98.4601C130.39 98.5701 130.44 98.6801 130.52 98.8001C130.59 98.9101 130.68 99.0301 130.8 99.1501C130.91 99.2701 131.06 99.4101 131.24 99.5601C131.42 99.7201 131.68 99.9301 132.01 100.21C132.34 100.49 132.6 100.69 132.76 100.83C132.92 100.97 133.07 101.1 133.18 101.22C133.3 101.34 133.41 101.47 133.52 101.61C133.63 101.75 133.71 101.89 133.78 102.02C133.85 102.15 133.9 102.29 133.93 102.42C133.96 102.56 133.98 102.69 133.98 102.83C133.98 103.16 133.88 103.48 133.68 103.78C133.48 104.08 133.18 104.31 132.8 104.48C132.42 104.65 131.95 104.73 131.41 104.73C131.21 104.73 130.95 104.71 130.65 104.68C130.35 104.65 130.1 104.62 129.92 104.58C129.74 104.55 129.5 104.49 129.23 104.41L129.21 104.42Z" fill="#545454"/>
<path d="M142.01 103.79C141.97 103.99 141.93 104.19 141.91 104.4C141.46 104.53 141.05 104.62 140.69 104.67C140.33 104.72 139.96 104.75 139.58 104.75C138.92 104.75 138.34 104.66 137.83 104.49C137.32 104.32 136.89 104.03 136.53 103.63C136.17 103.23 135.91 102.78 135.76 102.28C135.61 101.78 135.53 101.25 135.53 100.69C135.53 99.9501 135.66 99.2601 135.92 98.6201C136.18 97.9701 136.62 97.4401 137.22 97.0201C137.82 96.6001 138.57 96.3801 139.46 96.3801C140.07 96.3801 140.63 96.4901 141.13 96.7101C141.63 96.9301 142.02 97.2901 142.29 97.7901C142.57 98.2901 142.71 98.8801 142.71 99.5701C142.71 99.7001 142.71 99.8201 142.69 99.9401H136.18C136.15 100.29 136.14 100.55 136.14 100.73C136.14 101.23 136.22 101.72 136.37 102.19C136.52 102.66 136.76 103.06 137.07 103.38C137.38 103.7 137.75 103.93 138.19 104.09C138.62 104.24 139.08 104.32 139.56 104.32C140.3 104.32 141.11 104.15 142.01 103.82V103.79ZM136.26 99.4901H142.11C142.11 99.1301 142.08 98.8501 142.04 98.6501C142 98.4501 141.93 98.2501 141.83 98.0401C141.73 97.8301 141.6 97.6501 141.46 97.5001C141.32 97.3501 141.14 97.2201 140.95 97.1201C140.76 97.0201 140.54 96.9401 140.3 96.8801C140.06 96.8301 139.81 96.8001 139.54 96.8001C139.25 96.8001 138.96 96.8301 138.68 96.9001C138.4 96.9601 138.15 97.0501 137.91 97.1601C137.68 97.2701 137.46 97.4101 137.26 97.5901C137.06 97.7601 136.9 97.9501 136.77 98.1501C136.64 98.3501 136.54 98.5401 136.47 98.7301C136.4 98.9101 136.33 99.1601 136.25 99.4801L136.26 99.4901Z" fill="#545454"/>
<path d="M143.74 104.42C143.73 104.17 143.71 103.94 143.67 103.74C144.1 103.93 144.51 104.06 144.89 104.13C145.27 104.2 145.62 104.24 145.94 104.24C146.36 104.24 146.72 104.18 147.02 104.07C147.32 103.95 147.54 103.78 147.7 103.55C147.86 103.32 147.93 103.08 147.93 102.83C147.93 102.72 147.92 102.61 147.89 102.51C147.86 102.41 147.83 102.3 147.77 102.2C147.72 102.1 147.65 102 147.59 101.91C147.52 101.82 147.43 101.72 147.3 101.61C147.18 101.5 147.03 101.37 146.87 101.24C146.71 101.1 146.45 100.89 146.1 100.61C145.75 100.33 145.46 100.09 145.23 99.8801C145 99.6701 144.81 99.4701 144.66 99.2601C144.51 99.0501 144.4 98.8601 144.34 98.6801C144.28 98.5101 144.25 98.3301 144.25 98.1501C144.25 97.8401 144.35 97.5401 144.55 97.2501C144.75 96.9601 145.04 96.7401 145.41 96.5801C145.79 96.4301 146.26 96.3501 146.84 96.3501C147.32 96.3501 147.86 96.4101 148.47 96.5301C148.47 96.7601 148.49 96.9901 148.52 97.2101C148.17 97.0701 147.86 96.9701 147.58 96.9201C147.3 96.8701 147.02 96.8401 146.74 96.8401C146.38 96.8401 146.06 96.8901 145.75 97.0001C145.45 97.1001 145.22 97.2601 145.07 97.4501C144.92 97.6501 144.84 97.8701 144.84 98.1001C144.84 98.2301 144.86 98.3501 144.89 98.4601C144.92 98.5701 144.97 98.6801 145.05 98.8001C145.12 98.9101 145.21 99.0301 145.33 99.1501C145.44 99.2701 145.59 99.4101 145.77 99.5601C145.95 99.7201 146.21 99.9301 146.54 100.21C146.87 100.49 147.13 100.69 147.29 100.83C147.45 100.97 147.6 101.1 147.71 101.22C147.83 101.34 147.94 101.47 148.05 101.61C148.16 101.75 148.24 101.89 148.31 102.02C148.38 102.15 148.43 102.29 148.46 102.42C148.49 102.56 148.51 102.69 148.51 102.83C148.51 103.16 148.41 103.48 148.21 103.78C148.01 104.08 147.71 104.31 147.33 104.48C146.95 104.65 146.48 104.73 145.94 104.73C145.74 104.73 145.48 104.71 145.18 104.68C144.88 104.65 144.63 104.62 144.45 104.58C144.27 104.55 144.03 104.49 143.76 104.41L143.74 104.42Z" fill="#545454"/>
<path d="M0 149.52C0 146.51 2.40999 144.02 5.42999 144C8.44999 143.98 10.92 146.44 10.92 149.46V175.14C10.92 178.15 8.50999 180.64 5.48999 180.66C2.46999 180.68 0 178.22 0 175.2V149.52Z" fill="#C55828"/>
<path d="M22.9998 165.53C23.7798 165.53 24.5198 165.64 25.2198 165.87C25.9198 166.1 26.5298 166.47 27.0498 166.99C27.5698 167.51 27.9398 168.1 28.1598 168.76C28.3798 169.42 28.4898 170.14 28.4898 170.88C28.4898 171.7 28.3598 172.5 28.1098 173.26C27.8598 174.02 27.4798 174.66 26.9698 175.17C26.4598 175.69 25.8198 176.08 25.0598 176.34C24.2998 176.61 23.4898 176.74 22.6598 176.74C21.8298 176.74 21.0798 176.62 20.3398 176.37C19.5998 176.12 18.9798 175.76 18.4798 175.28C17.9798 174.8 17.6198 174.22 17.3798 173.54C17.1498 172.86 17.0298 172.15 17.0298 171.41C17.0298 170.58 17.1698 169.77 17.4598 168.98C17.7498 168.19 18.1598 167.55 18.6998 167.03C19.2398 166.52 19.8798 166.13 20.6398 165.89C21.3898 165.65 22.1798 165.52 22.9998 165.52V165.53ZM22.9698 166.02C22.2098 166.02 21.4998 166.13 20.8298 166.36C20.1598 166.59 19.5798 166.95 19.0898 167.46C18.5998 167.97 18.2298 168.57 17.9998 169.25C17.7698 169.94 17.6498 170.66 17.6498 171.41C17.6498 172.12 17.7698 172.79 18.0098 173.44C18.2498 174.09 18.5998 174.63 19.0698 175.05C19.5398 175.47 20.0798 175.78 20.7098 175.97C21.3398 176.16 21.9998 176.25 22.6998 176.25C23.4298 176.25 24.1298 176.15 24.7798 175.94C25.4398 175.73 25.9998 175.39 26.4798 174.9C26.9598 174.41 27.3098 173.84 27.5298 173.16C27.7498 172.48 27.8598 171.77 27.8598 171.01C27.8598 170.25 27.7598 169.61 27.5498 168.96C27.3398 168.31 27.0098 167.76 26.5598 167.31C26.1098 166.86 25.5598 166.53 24.9398 166.33C24.3198 166.13 23.6498 166.03 22.9498 166.03L22.9698 166.02Z" fill="#545454"/>
<path d="M33.6396 176.08C33.5996 176.24 33.5596 176.41 33.5396 176.58C33.0996 176.69 32.6896 176.74 32.3196 176.74C32.0096 176.74 31.7296 176.71 31.4896 176.64C31.2496 176.57 31.0496 176.45 30.8896 176.28C30.7396 176.11 30.6396 175.92 30.5896 175.71C30.5396 175.5 30.5196 175.28 30.5196 175.04C30.5196 175 30.5196 174.93 30.5196 174.84C30.5196 174.75 30.5296 174.55 30.5496 174.24L30.8196 168.96H29.8096C29.8296 168.82 29.8496 168.67 29.8496 168.53H30.8496C30.8796 168.2 30.8996 167.7 30.9196 167.03C31.1296 167 31.3096 166.97 31.4596 166.93C31.4196 167.79 31.3996 168.33 31.3996 168.53H33.8696C33.8496 168.67 33.8296 168.82 33.8296 168.96H31.3796L31.1096 174.42V174.75C31.1096 175.2 31.1596 175.52 31.2596 175.72C31.3696 175.92 31.5196 176.07 31.7096 176.16C31.8996 176.25 32.1096 176.29 32.3096 176.29C32.4596 176.29 32.6196 176.28 32.7796 176.26C32.9496 176.24 33.2296 176.18 33.6396 176.08Z" fill="#545454"/>
<path d="M34.9998 176.58L35.2498 171.38C35.2698 170.88 35.2998 169.57 35.3498 167.47L35.3997 165.69C35.5297 165.69 35.6297 165.69 35.7097 165.69C35.7997 165.69 35.9098 165.69 36.0298 165.69L35.8098 170.35C35.9398 170.1 36.0398 169.9 36.1298 169.76C36.2198 169.62 36.3398 169.47 36.4998 169.32C36.6498 169.17 36.8197 169.04 36.9897 168.93C37.1597 168.82 37.3598 168.73 37.5698 168.64C37.7898 168.56 38.0397 168.49 38.3297 168.44C38.6197 168.39 38.9298 168.36 39.2498 168.36C39.7298 168.36 40.1797 168.41 40.6097 168.51C41.0397 168.61 41.3998 168.77 41.6998 169C41.9998 169.23 42.2098 169.51 42.3198 169.83C42.4298 170.15 42.4897 170.48 42.4897 170.8C42.4897 170.91 42.4897 171.05 42.4897 171.25C42.4797 171.54 42.4598 171.94 42.4198 172.44L42.2798 175.68C42.2698 175.89 42.2598 176.18 42.2498 176.57C42.1098 176.57 41.9998 176.57 41.9198 176.57C41.8398 176.57 41.7298 176.57 41.5898 176.57C41.6598 175.88 41.6997 175.19 41.7397 174.5L41.8498 172.55C41.8898 171.95 41.9098 171.43 41.9098 171C41.9098 170.5 41.8098 170.08 41.6198 169.76C41.4298 169.44 41.0997 169.2 40.6397 169.04C40.1797 168.88 39.6998 168.8 39.1898 168.8C38.8498 168.8 38.5198 168.84 38.1898 168.91C37.8798 168.98 37.6098 169.07 37.3798 169.19C37.1898 169.29 37.0098 169.41 36.8498 169.55C36.6798 169.7 36.5297 169.88 36.3897 170.09C36.2397 170.33 36.1197 170.59 36.0197 170.89C35.9297 171.16 35.8598 171.52 35.8098 171.98C35.7698 172.34 35.7298 173.03 35.6998 174.07L35.6298 176.57C35.4898 176.57 35.3798 176.57 35.3098 176.57C35.2398 176.57 35.1297 176.57 34.9897 176.57L34.9998 176.58Z" fill="#545454"/>
<path d="M50.8399 175.79C50.7999 175.99 50.7599 176.19 50.7399 176.4C50.2899 176.53 49.8799 176.62 49.5199 176.67C49.1599 176.72 48.7899 176.75 48.4099 176.75C47.7499 176.75 47.1699 176.66 46.6599 176.49C46.1499 176.32 45.7199 176.03 45.3599 175.63C44.9999 175.23 44.7399 174.78 44.5899 174.28C44.4399 173.78 44.3599 173.25 44.3599 172.69C44.3599 171.95 44.4899 171.26 44.7499 170.62C45.0099 169.97 45.4499 169.44 46.0499 169.02C46.6499 168.6 47.3999 168.38 48.2899 168.38C48.8999 168.38 49.4599 168.49 49.9599 168.71C50.4599 168.93 50.8499 169.29 51.1199 169.79C51.3999 170.29 51.5399 170.88 51.5399 171.57C51.5399 171.7 51.5399 171.82 51.5199 171.94H45.0099C44.9799 172.29 44.9699 172.55 44.9699 172.73C44.9699 173.23 45.0499 173.72 45.1999 174.19C45.3499 174.66 45.5899 175.06 45.8999 175.38C46.2099 175.7 46.5799 175.93 47.0199 176.09C47.4499 176.24 47.9099 176.32 48.3899 176.32C49.1299 176.32 49.9399 176.15 50.8399 175.82V175.79ZM45.0899 171.49H50.9399C50.9399 171.13 50.9099 170.85 50.8699 170.65C50.8299 170.45 50.7599 170.25 50.6599 170.04C50.5599 169.83 50.4299 169.65 50.2899 169.5C50.1499 169.35 49.9699 169.22 49.7799 169.12C49.5899 169.02 49.3699 168.94 49.1299 168.88C48.8899 168.83 48.6399 168.8 48.3699 168.8C48.0799 168.8 47.7899 168.83 47.5099 168.9C47.2299 168.96 46.9799 169.05 46.7399 169.16C46.5099 169.27 46.2899 169.41 46.0899 169.59C45.8899 169.76 45.7299 169.95 45.5999 170.15C45.4699 170.35 45.3699 170.54 45.2999 170.73C45.2299 170.91 45.1599 171.16 45.0799 171.48L45.0899 171.49Z" fill="#545454"/>
<path d="M53.0596 176.58C53.1296 175.46 53.1896 174.14 53.2496 172.63C53.3096 171.12 53.3396 169.99 53.3396 169.25V168.53C53.4396 168.53 53.5396 168.53 53.6396 168.53C53.7396 168.53 53.8396 168.53 53.9396 168.53L53.8696 170.04C54.0596 169.68 54.2296 169.41 54.3896 169.22C54.5496 169.03 54.7296 168.88 54.9396 168.75C55.1496 168.63 55.3996 168.53 55.6796 168.46C55.9596 168.39 56.2596 168.36 56.5596 168.36C56.7796 168.36 57.0096 168.39 57.2396 168.44C57.2396 168.62 57.2496 168.8 57.2696 168.98C56.8996 168.89 56.5796 168.84 56.3196 168.84C56.0596 168.84 55.8196 168.88 55.6096 168.94C55.3996 169.01 55.1996 169.11 55.0196 169.24C54.8396 169.37 54.6596 169.55 54.4796 169.79C54.2996 170.02 54.1696 170.27 54.0896 170.53C53.9796 170.83 53.9096 171.2 53.8696 171.64C53.8096 172.32 53.7796 173.1 53.7596 173.97C53.7396 175.14 53.7296 176.01 53.7296 176.58C53.5896 176.58 53.4796 176.58 53.3996 176.58C53.3196 176.58 53.2096 176.58 53.0696 176.58H53.0596Z" fill="#545454"/>
</svg>
