<svg width="18" height="18" viewBox="0 0 18 18" fill="none" xmlns="http://www.w3.org/2000/svg">
<path d="M0.300105 5.8807H3.98711V17.7062H0.300105V5.8807ZM2.14361 0C3.32259 0 4.2765 0.951603 4.2765 2.12774C4.2765 3.30388 3.32259 4.25549 2.14361 4.25549C0.964624 4.25549 0 3.30388 0 2.12774C0 0.962295 0.953906 0 2.14361 0Z" fill="#fff"/>
<path d="M6.30273 5.88092H9.83969V7.49544H9.89328C10.3863 6.56522 11.5867 5.58154 13.3766 5.58154C17.1065 5.58154 17.7925 8.03005 17.7925 11.2163V17.6958H14.1162V11.9434C14.1162 10.5748 14.084 8.81058 12.1977 8.81058C10.2791 8.81058 9.98974 10.3075 9.98974 11.8472V17.6958H6.30273V5.88092Z" fill="#fff"/>
</svg>
