<svg width="50" height="50" viewBox="0 0 50 50" fill="none" xmlns="http://www.w3.org/2000/svg">
<g clip-path="url(#clip0_17_206)">
<path d="M45.814 0H4.18599C1.87413 0 0 1.87413 0 4.18599V45.814C0 48.1259 1.87413 50 4.18599 50H45.814C48.1259 50 50 48.1259 50 45.814V4.18599C50 1.87413 48.1259 0 45.814 0Z" fill="#898989"/>
<path d="M15.7036 40.1773V22.7615H19.3604V37.2162H28.4459V40.1714H15.7036V40.1773Z" fill="white"/>
<path d="M31.0264 25.7344V22.6187H34.4929V25.7344H31.0264ZM31.0264 40.1772V27.4587H34.4929V40.1772H31.0264Z" fill="white"/>
<path d="M7.34326 12.7363V5.58325H8.31841V11.892H11.9514V12.7363H7.34326Z" fill="white"/>
<path d="M13.521 6.59407V5.58325H14.4248V6.59407H13.521ZM13.521 12.7363V7.55138H14.4248V12.7363H13.521Z" fill="white"/>
<path d="M18.2959 11.9515L18.4267 12.7245C18.171 12.778 17.9451 12.8018 17.7429 12.8018C17.4159 12.8018 17.1602 12.7542 16.9759 12.6532C16.7975 12.5521 16.6667 12.4213 16.5953 12.2548C16.524 12.0883 16.4824 11.7434 16.4824 11.2202V8.24122H15.8164V7.55743H16.4824V6.27309L17.3802 5.7439V7.55148H18.2899V8.23528H17.3802V11.2677C17.3802 11.5175 17.398 11.678 17.4278 11.7494C17.4575 11.8207 17.511 11.8802 17.5824 11.9218C17.6537 11.9634 17.7548 11.9872 17.8916 11.9872C17.9926 11.9872 18.1235 11.9753 18.2899 11.9515H18.2959Z" fill="white"/>
<path d="M19.6992 12.7363V5.58325H20.603V8.15193C21.0252 7.67625 21.5603 7.43841 22.2025 7.43841C22.6009 7.43841 22.9398 7.51571 23.2311 7.66436C23.5225 7.81301 23.7306 8.02706 23.8555 8.28869C23.9803 8.55626 24.0458 8.94275 24.0458 9.44816V12.7304H23.142V9.44816C23.142 9.00815 23.0409 8.68707 22.8447 8.49085C22.6484 8.28869 22.369 8.19355 22.0122 8.19355C21.7446 8.19355 21.489 8.25896 21.2571 8.39571C21.0192 8.53247 20.8527 8.71085 20.7517 8.94275C20.6506 9.17464 20.603 9.48978 20.603 9.90005V12.7363H19.6992Z" fill="white"/>
<path d="M25.9482 6.59407V5.58325H26.852V6.59407H25.9482ZM25.9482 12.7363V7.55138H26.852V12.7363H25.9482Z" fill="white"/>
<path d="M32.2509 12.7362V11.9751C31.8347 12.5578 31.2698 12.8551 30.5563 12.8551C30.2412 12.8551 29.9439 12.7957 29.6763 12.6767C29.4028 12.5578 29.2006 12.4151 29.0698 12.2367C28.939 12.0583 28.8438 11.8443 28.7903 11.5827C28.7547 11.4102 28.7368 11.1367 28.7368 10.7621V7.55127H29.6406V10.4232C29.6406 10.881 29.6584 11.1902 29.6941 11.3508C29.7536 11.5827 29.8725 11.761 30.0568 11.8978C30.2412 12.0286 30.4671 12.094 30.7406 12.094C31.0141 12.094 31.2698 12.0286 31.5077 11.8919C31.7455 11.7551 31.912 11.5708 32.0131 11.3389C32.1141 11.107 32.1617 10.7681 32.1617 10.3281V7.55127H33.0655V12.7362H32.2569H32.2509Z" fill="white"/>
<path d="M34.9922 12.7363V7.55138H35.8008V8.27679C35.9673 8.02111 36.1933 7.81895 36.4668 7.66435C36.7463 7.50976 37.0614 7.43246 37.4182 7.43246C37.8165 7.43246 38.1376 7.50976 38.3933 7.6703C38.649 7.83084 38.8274 8.05085 38.9284 8.33625C39.3506 7.72976 39.9036 7.42651 40.5814 7.42651C41.1106 7.42651 41.5209 7.56922 41.8063 7.85463C42.0917 8.14004 42.2344 8.58004 42.2344 9.1687V12.7244H41.3366V9.46005C41.3366 9.10923 41.3069 8.85356 41.2474 8.69896C41.1879 8.54436 41.0809 8.4195 40.9263 8.32436C40.7717 8.22923 40.5933 8.18166 40.3852 8.18166C40.0106 8.18166 39.6955 8.30058 39.4517 8.54436C39.202 8.78815 39.0771 9.17464 39.0771 9.70978V12.7185H38.1733V9.35302C38.1733 8.96058 38.102 8.66923 37.9533 8.47301C37.8047 8.27679 37.5668 8.18166 37.2279 8.18166C36.9722 8.18166 36.7344 8.24706 36.5203 8.37788C36.3063 8.50869 36.1457 8.69896 36.0506 8.94869C35.9554 9.19843 35.9019 9.56113 35.9019 10.0309V12.7185H34.9981L34.9922 12.7363Z" fill="white"/>
</g>
<defs>
<clipPath id="clip0_17_206">
<rect width="50" height="50" fill="white"/>
</clipPath>
</defs>
</svg>
