<svg xmlns="http://www.w3.org/2000/svg" xmlns:xlink="http://www.w3.org/1999/xlink" id="Layer_1" data-name="Layer 1" viewBox="0 0 299.63 210.01"><defs><clipPath id="clip-path" transform="translate(0.83 0)"><rect x="-24.35" y="-7.71" width="183.38" height="157.49" style="fill:none"></rect></clipPath><clipPath id="clip-path-2" transform="translate(0.83 0)"><rect x="148.31" y="-13.22" width="183.38" height="157.49" style="fill:none"></rect></clipPath></defs><path d="M193.55,60.78h-46v17H176a29.75,29.75,0,1,1-3.94-25.28h19.14a46.62,46.62,0,1,0,2.33,8.25Z" transform="translate(0.83 0)" style="fill:#ffff"></path><path d="M224.55,22.53a46.63,46.63,0,0,0-33.05,13.7,55.27,55.27,0,0,1,7.4,13.34L200,52.5A29.74,29.74,0,1,1,200,86a54.82,54.82,0,0,1-8.48,16.34,46.76,46.76,0,1,0,33.06-79.82Z" transform="translate(0.83 0)" style="fill:#fff"></path><path d="M68.08,21.41A50.85,50.85,0,0,1,103,35.1a54.35,54.35,0,0,0-7.83,13.34L94,51.38A32,32,0,0,0,68.08,38.45c-17.35,0-31.47,13.33-31.47,29.73S50.73,97.92,68.08,97.92a32,32,0,0,0,26-13,53.68,53.68,0,0,0,9,16.35,50.8,50.8,0,0,1-35,13.72c-27.29,0-49.49-21-49.49-46.78S40.79,21.41,68.08,21.41Z" transform="translate(0.83 0)" style="fill:#fff"></path><g style="clip-path:url(#clip-path)"><path d="M157.83,136.55H68.23A68.23,68.23,0,0,1,66.58.1q.83,0,1.65,0h89.6a68.23,68.23,0,1,1,1.65,136.45ZM68.23,7.48a60.85,60.85,0,0,0,0,121.69h89.6a60.85,60.85,0,0,0,0-121.69Z" transform="translate(0.83 0)" style="fill:#fff"></path></g><g style="clip-path:url(#clip-path-2)"><path d="M138.36,0H228a68.23,68.23,0,0,1,0,136.46H138.36A68.23,68.23,0,0,1,138.36,0ZM228,129.1A60.84,60.84,0,1,0,228,7.42h-89.6a60.84,60.84,0,0,0,0,121.68Z" transform="translate(0.83 0)" style="fill:#fff"></path></g><path d="M189.27,149.88a12.62,12.62,0,0,1,11,5.46c.75,1,0,1.25-.58,1.73s-1,.19-1.38-.43c-1.19-2.08-2.67-3.85-5.1-4.53a9.38,9.38,0,0,0-11.06,5.56,12.6,12.6,0,0,0,.48,11.24,9.3,9.3,0,0,0,10,4.51,9.67,9.67,0,0,0,5.7-4.48c.31-.48.54-1,1.33-.54,1.16.71,1.23.84.41,1.95-3.47,4.67-8.2,6.09-13.69,4.92a12.28,12.28,0,0,1-10-9.58A12.87,12.87,0,0,1,186,150.25q.39-.09.78-.15A13.67,13.67,0,0,1,189.27,149.88Z" transform="translate(0.83 0)" style="fill:#fff"></path><path d="M224.63,165.1v-8.66c0-.88.29-1.23,1.2-1.2,2,0,3.92,0,5.87,0a7.4,7.4,0,0,1,5.33,2.11,5,5,0,0,1,0,7.07,5.15,5.15,0,0,1-1.13.85c-2,1.18-4.29,1.14-6.52.88-1-.11-1.19.16-1.17,1.06v6.6c0,.83-.24,1.17-1.11,1.15-2.81-.07-2.47.35-2.49-2.46C224.61,170.1,224.63,167.61,224.63,165.1Zm3.59-4.27v1.65c0,2.47.14,2.61,2.68,2.51a3.57,3.57,0,0,0,3.76-3.36,1.28,1.28,0,0,0,0-.19,4,4,0,0,0-3.14-4.36,18.56,18.56,0,0,0-2.47-.11c-.62,0-.86.26-.85.87,0,1,0,2,0,3Z" transform="translate(0.83 0)" style="fill:#fff"></path><path d="M281,175c-1.1.32-1.68-.35-2.11-1.46-.55-1.4-1.27-2.74-1.86-4.13a1.26,1.26,0,0,0-1.34-.87h-6.39a1.33,1.33,0,0,0-1.4.94c-.7,1.57-1.44,3.12-2.18,4.67a1.61,1.61,0,0,1-.53.73,1.49,1.49,0,0,1-1.39,0c-.47-.31,0-.74.16-1.07q4.2-9,8.44-17.9c.21-.44.3-1,1-1s.83.64,1,1.1q4.15,9,8.28,18c.42.93.35,1-.69,1Zm-8.61-8h2.68c.58,0,.75-.22.5-.76q-1.35-2.9-2.68-5.79c-.25-.55-.49-.5-.73,0l-2.79,5.85c-.22.47-.11.71.45.7l2.55,0Z" transform="translate(0.83 0)" style="fill:#fff"></path><path d="M211.73,168.56h-3a1.43,1.43,0,0,0-1.6,1c-.69,1.57-1.46,3.11-2.2,4.66-.19.41-.37.84-.94.81-.37,0-.83.17-1.06-.18s.09-.65.24-1q4.14-8.82,8.3-17.63c.1-.22.21-.44.32-.65s.33-.69.8-.7.71.35.88.73c1,2.21,2.07,4.43,3.09,6.64q2.67,5.82,5.32,11.63c.5,1.09.46,1-.73,1.15a2.72,2.72,0,0,1-3.32-2c0-.06,0-.12,0-.18-.39-1.2-1-2.31-1.53-3.49a1.23,1.23,0,0,0-1.34-.86C213.86,168.59,212.79,168.56,211.73,168.56Zm0-8.84-3.17,6.73c-.19.4,0,.58.4.58h5.46c.4,0,.61-.15.42-.57Z" transform="translate(0.83 0)" style="fill:#fff"></path><path d="M254.5,165.9v-8c0-.81-.27-1.09-1.07-1.07h-4.75c-.52,0-1.17.14-1.19-.73s.6-.78,1.14-.78H264c.52,0,1.09,0,1.1.73s-.59.78-1.15.79c-1.51,0-3,0-4.53,0-1-.05-1.38.3-1.37,1.35.05,5.05,0,10.1,0,15.15,0,1.73,0,1.73-1.67,1.72-2.07,0-1.89.18-1.9-1.88Z" transform="translate(0.83 0)" style="fill:#fff"></path><path d="M285.47,165.19v-8.77c0-.83.26-1.17,1.12-1.15,2.72,0,2.31-.2,2.32,2.31v14.65c0,1,.31,1.32,1.3,1.29H298a.67.67,0,0,1,.76.75c0,.54-.28.73-.78.73H286.26c-.76,0-.78-.49-.78-1Z" transform="translate(0.83 0)" style="fill:#fff"></path><path d="M241.1,165.16v-8.57c0-1,.24-1.36,1.27-1.33,2.54.08,2.31-.28,2.32,2.34v15.89c0,1.51,0,1.52-1.48,1.51-2.31,0-2.09.25-2.1-2.1C241.09,170.32,241.1,167.74,241.1,165.16Z" transform="translate(0.83 0)" style="fill:#fff"></path><path d="M56.25,167.31v4.33a1.41,1.41,0,0,1-.9,1.45,21.92,21.92,0,0,1-11.87,1.83A13.68,13.68,0,0,1,34.93,171a12.34,12.34,0,0,1,1.18-18.63A13.29,13.29,0,0,1,51.39,151a12.74,12.74,0,0,1,4.18,3.92c.62.84,0,1.11-.56,1.5s-1,.47-1.37-.26a10,10,0,0,0-3.56-3.93c-3.44-2-8.7-.89-11.35,2.48a11,11,0,0,0-2.34,6.4c-.15,3,.21,5.76,2,8.24a10.25,10.25,0,0,0,11.51,3.6c1.77-.65,2-.91,2-2.75v-5.37c0-1.31,0-1.35-1.31-1.36H48.17c-.58,0-.89-.22-.88-.85s.34-.83.91-.83h7.12c.75,0,.94.38.93,1C56.24,164.28,56.25,165.8,56.25,167.31ZM8.39,158.1a9.55,9.55,0,0,1,11.34-6.57c2.41.63,3.88,2.36,5.12,4.36.71,1.15.68,1.1,1.78.44s.52-1.22.06-1.83a12.58,12.58,0,0,0-13.34-4.9c-4.92,1-8.46,3.87-10,8.7a12,12,0,0,0,3.3,13.14c3.62,3.43,8.06,4.3,12.85,3.28A12,12,0,0,0,27,169.31c.18-.26.47-.51.13-.9-.83-.95-1.61-.91-2.29.14-4.25,6.55-11.16,5.17-14.61,1.24-1.89-2.14-2.5-4.77-2.56-8.17A11.78,11.78,0,0,1,8.39,158.1Zm100.88,9.39c-1.4-3.56-2.77-7.12-4.19-10.66-.88-2.18-.91-2.15-3.25-2.11-.81,0-1,.21-.71,1q3.55,9,7.06,17.95c.19.48.34,1,1,1s.84-.49,1-1c1-2.67,2-5.33,3-8,.33-.88.7-1.75,1.15-2.86.24.56.38.86.5,1.17,1.27,3.2,2.52,6.4,3.8,9.59.19.5.32,1.09,1.07,1.06s.77-.61.94-1.08q3.4-8.85,6.79-17.73c.13-.33.53-.84-.07-1s-1.11-.27-1.49.32a3.87,3.87,0,0,0-.31.65q-2.36,6.22-4.73,12.44c-.11.29-.07.71-.57.79-.13-.29-.27-.56-.38-.84l-4.34-10.94c-.11-.28-.13-.74-.44-.75s-.41.48-.52.77c-1.54,3.94-3,7.89-4.68,12.1Zm-48.16,4.78c0,2.46-.32,2.15,2.21,2.22.93,0,1.27-.27,1.24-1.23,0-2.31,0-4.61,0-6.92,0-.4-.08-.9.51-1a2.21,2.21,0,0,1,2.36.83c1.42,2.07,3.13,4,4.41,6.1a4.11,4.11,0,0,0,4.6,2.17c.27,0,.63.09.79-.14s-.15-.56-.32-.79l-5.43-7.28c-.87-1.17-.87-1.17.45-1.79,2.46-1.16,3.66-3.26,3.18-5.52-.53-2.49-2.36-3.56-4.61-4-2.72-.53-5.49-.12-8.24-.25-.94,0-1.16.37-1.15,1.23v8.68c0,2.52,0,5.11,0,7.66ZM69,156.43a3.61,3.61,0,0,1,2.42,3.3,3.72,3.72,0,0,1-1.87,3.54,7.32,7.32,0,0,1-4.41.73c-.44,0-.56-.32-.56-.71V157c0-.59.3-.79.83-.78H67A5.85,5.85,0,0,1,69,156.43Zm17.57-1.94a10.17,10.17,0,0,0-7.07,15.07c3.15,5.7,11.41,7.18,16.57,3a10.12,10.12,0,0,0,2-13.78,10.62,10.62,0,0,0-9.07-4.5,10.35,10.35,0,0,0-2.48.21Zm-2.82,3.79a6.27,6.27,0,0,1,10.55,0,12.15,12.15,0,0,1,1.48,7.65,10,10,0,0,1-2,5.55,6.19,6.19,0,0,1-10.15-.84,11.49,11.49,0,0,1-1.38-6.16,10.85,10.85,0,0,1,1.45-6.2ZM165.39,157c0-2.45.4-2.22-2.38-2.26-.82,0-1.07.33-1.06,1.11v6.71c0,.79-.22,1.11-1,1.1q-3.72-.06-7.44,0c-.84,0-1.17-.25-1.15-1.12.05-1.86,0-3.72,0-5.58,0-2.46.19-2.2-2.24-2.2-1.34,0-1.36,0-1.36,1.41v16c0,2.62-.32,2.26,2.3,2.34,1,0,1.34-.3,1.31-1.29v-7c0-.76.28-1,1-1H161c.72,0,1,.26,1,1v6.09c0,2.51-.34,2.2,2.26,2.27.91,0,1.2-.29,1.19-1.19v-8.67c-.07-2.57,0-5.17-.07-7.72Zm-26.45.63c0-1.35,0-1.35,1.4-1.35h4.54c.53,0,1.08,0,1.08-.76s-.54-.75-1.07-.75H129.4c-.52,0-1.08-.05-1.08.74s.53.77,1.06.77h4.75c1,0,1.23.33,1.22,1.26v14.66c0,2.63-.32,2.26,2.41,2.33.9,0,1.22-.28,1.2-1.19v-7.95Z" transform="translate(0.83 0)" style="fill:#fff"></path><path d="M101.76,208.71a5.5,5.5,0,0,0,1.51-.21,4.21,4.21,0,0,0,1.34-.61,3.35,3.35,0,0,0,.94-1,2.66,2.66,0,0,0,.35-1.37,2.87,2.87,0,0,0-.49-1.66,5.75,5.75,0,0,0-1.28-1.34,12.51,12.51,0,0,0-1.81-1.15l-2.08-1.07c-.71-.37-1.4-.74-2.08-1.14a10,10,0,0,1-1.81-1.32,6,6,0,0,1-1.28-1.62,4.29,4.29,0,0,1-.49-2.08A5.39,5.39,0,0,1,95,192a4.91,4.91,0,0,1,1.3-1.74,6.38,6.38,0,0,1,2.11-1.15,9.09,9.09,0,0,1,2.88-.42,7.8,7.8,0,0,1,4.63,1.22,6.73,6.73,0,0,1,2.45,3.52l-1.78.8a7.87,7.87,0,0,0-.79-1.71,5.51,5.51,0,0,0-1.15-1.34,5,5,0,0,0-1.55-.85,6,6,0,0,0-2-.3,5,5,0,0,0-1.71.27,3.64,3.64,0,0,0-1.21.7,3,3,0,0,0-.73,1,2.79,2.79,0,0,0-.24,1.12,2.38,2.38,0,0,0,.5,1.48,6.4,6.4,0,0,0,1.32,1.26,13.49,13.49,0,0,0,1.86,1.15l2.14,1.12c.73.38,1.44.78,2.14,1.19a11.64,11.64,0,0,1,1.87,1.35,6.53,6.53,0,0,1,1.31,1.6,3.77,3.77,0,0,1,.51,1.94,5.64,5.64,0,0,1-.47,2.28,5.14,5.14,0,0,1-1.4,1.86,6.9,6.9,0,0,1-2.31,1.26,11.33,11.33,0,0,1-5.87.14,7,7,0,0,1-2.07-.94,5.94,5.94,0,0,1-1.53-1.51,8,8,0,0,1-1.05-2l1.86-.76a6.94,6.94,0,0,0,.88,1.79,5.83,5.83,0,0,0,1.28,1.34,5.52,5.52,0,0,0,1.62.83A6.31,6.31,0,0,0,101.76,208.71Z" transform="translate(0.83 0)" style="fill:#fff"></path><path d="M112.82,189.12h6.53a11.3,11.3,0,0,1,3,.39,7.74,7.74,0,0,1,2.46,1.14,5.35,5.35,0,0,1,1.65,1.83,4.92,4.92,0,0,1,.61,2.47,4.86,4.86,0,0,1-.59,2.43,5.16,5.16,0,0,1-1.54,1.71,6.56,6.56,0,0,1-2.17,1,9.49,9.49,0,0,1-2.48.33l-1.13,0c-.39,0-.77,0-1.14-.08l-1-.11a6.29,6.29,0,0,1-.75-.13v9.45h-3.46Zm3.46,9.82c.39.1.8.21,1.25.31a7,7,0,0,0,1.37.14,5.33,5.33,0,0,0,2-.33,3.78,3.78,0,0,0,1.39-.91,3.64,3.64,0,0,0,.83-1.34,4.77,4.77,0,0,0,.28-1.65,4.52,4.52,0,0,0-.37-1.87,4.28,4.28,0,0,0-1-1.43,4.4,4.4,0,0,0-1.47-.91,5.09,5.09,0,0,0-1.8-.32h-2.46Z" transform="translate(0.83 0)" style="fill:#fff"></path><path d="M140.6,210a11.88,11.88,0,0,1-3.06-.39,11.05,11.05,0,0,1-2.72-1.09,11.27,11.27,0,0,1-2.3-1.69,10.51,10.51,0,0,1-1.76-2.19,11,11,0,0,1-1.13-2.58,10.47,10.47,0,0,1-.4-2.87,10,10,0,0,1,.4-2.81,10.61,10.61,0,0,1,1.13-2.52,10.18,10.18,0,0,1,1.76-2.13,11.5,11.5,0,0,1,5-2.71,12.55,12.55,0,0,1,6.13,0,11.5,11.5,0,0,1,5,2.71,10.17,10.17,0,0,1,2.88,4.65,9.69,9.69,0,0,1,.4,2.81,10.2,10.2,0,0,1-.4,2.87,10.54,10.54,0,0,1-2.88,4.77,11.48,11.48,0,0,1-5,2.78A11.9,11.9,0,0,1,140.6,210Zm0-1a6.43,6.43,0,0,0,5.42-2.77,9.7,9.7,0,0,0,1.4-3.1,15.14,15.14,0,0,0,.48-3.92,14.42,14.42,0,0,0-.48-3.84,9.25,9.25,0,0,0-1.4-3,6.46,6.46,0,0,0-2.29-2,6.71,6.71,0,0,0-3.13-.7,6.82,6.82,0,0,0-3.17.7,6.38,6.38,0,0,0-2.29,2,9,9,0,0,0-1.38,3,14.85,14.85,0,0,0-.47,3.84,15.6,15.6,0,0,0,.47,3.92,9.46,9.46,0,0,0,1.38,3.1,6.45,6.45,0,0,0,2.29,2A6.6,6.6,0,0,0,140.6,209Z" transform="translate(0.83 0)" style="fill:#fff"></path><path d="M156.27,189.12h7.13a11.8,11.8,0,0,1,3.27.4,6.91,6.91,0,0,1,2.33,1.1,4.82,4.82,0,0,1,1.41,1.69,4.89,4.89,0,0,1,.47,2.13,4.39,4.39,0,0,1-.36,1.78,4.86,4.86,0,0,1-1,1.49,6.64,6.64,0,0,1-1.6,1.16,8.68,8.68,0,0,1-2.06.76l7.51,9.9h-4l-7.17-9.6h-2.43v9.6h-3.46Zm3.46,9.79h2a7,7,0,0,0,2.15-.31,5.11,5.11,0,0,0,1.71-.87,3.85,3.85,0,0,0,1.54-3.17,4.19,4.19,0,0,0-.32-1.68,4.07,4.07,0,0,0-.9-1.32,4.21,4.21,0,0,0-1.38-.85,4.73,4.73,0,0,0-1.75-.31h-3.05Z" transform="translate(0.83 0)" style="fill:#fff"></path><path d="M191,189.12v1.32h-7.46v19.09H180.1V190.44h-7.47v-1.32Z" transform="translate(0.83 0)" style="fill:#fff"></path><path d="M199.85,208.71a5.58,5.58,0,0,0,1.52-.21,4.15,4.15,0,0,0,1.33-.61,3.23,3.23,0,0,0,.94-1,2.57,2.57,0,0,0,.36-1.37,3,3,0,0,0-.49-1.66,6,6,0,0,0-1.28-1.34,12.51,12.51,0,0,0-1.81-1.15l-2.09-1.07c-.7-.37-1.39-.74-2.08-1.14a10.41,10.41,0,0,1-1.81-1.32,6.19,6.19,0,0,1-1.28-1.62,4.29,4.29,0,0,1-.49-2.08,5.24,5.24,0,0,1,.45-2.17,4.8,4.8,0,0,1,1.3-1.74,6.19,6.19,0,0,1,2.11-1.15,9,9,0,0,1,2.88-.42,7.79,7.79,0,0,1,4.62,1.22,6.73,6.73,0,0,1,2.45,3.52l-1.77.8a8.36,8.36,0,0,0-.79-1.71,5.78,5.78,0,0,0-1.16-1.34,4.85,4.85,0,0,0-1.55-.85,6,6,0,0,0-2-.3,4.87,4.87,0,0,0-1.71.27,3.69,3.69,0,0,0-1.22.7,2.92,2.92,0,0,0-.72,1,2.64,2.64,0,0,0-.25,1.12,2.45,2.45,0,0,0,.5,1.48,6.66,6.66,0,0,0,1.32,1.26A13.63,13.63,0,0,0,199,197l2.14,1.12c.72.38,1.44.78,2.14,1.19a11.11,11.11,0,0,1,1.86,1.35,6.82,6.82,0,0,1,1.32,1.6,3.87,3.87,0,0,1,.5,1.94,5.63,5.63,0,0,1-.46,2.28,5.14,5.14,0,0,1-1.4,1.86,7,7,0,0,1-2.32,1.26,11.33,11.33,0,0,1-5.87.14,7,7,0,0,1-2.07-.94,6.27,6.27,0,0,1-1.53-1.51,8.76,8.76,0,0,1-1-2l1.87-.76a6.92,6.92,0,0,0,.87,1.79,6,6,0,0,0,1.28,1.34,5.57,5.57,0,0,0,1.63.83A6.24,6.24,0,0,0,199.85,208.71Z" transform="translate(0.83 0)" style="fill:#fff"></path></svg>