<svg width="69" height="48" viewBox="0 0 69 48" fill="none" xmlns="http://www.w3.org/2000/svg">
<path d="M33.3476 35.1959V35.4303C33.3476 35.4748 33.312 35.5104 33.2675 35.5104H31.6654V39.9192C31.6654 39.9637 31.6298 39.9993 31.5853 39.9993H30.9385C30.894 39.9993 30.8584 39.9637 30.8584 39.9192V35.5104H29.2622C29.2177 35.5104 29.1821 35.4748 29.1821 35.4303V35.1959H33.3476Z" fill="black"/>
<path d="M37.0354 35.1959H37.5605C37.6288 35.1959 37.6822 35.2493 37.6822 35.3176V39.8777C37.6822 39.9459 37.6288 39.9993 37.5605 39.9993H37.0354C36.9672 39.9993 36.9138 39.9459 36.9138 39.8777V37.7504H34.5848V39.8777C34.5848 39.9459 34.5314 39.9993 34.4631 39.9993H33.938C33.8698 39.9993 33.8163 39.9459 33.8163 39.8777V35.3176C33.8163 35.2493 33.8698 35.1959 33.938 35.1959H34.4631C34.5314 35.1959 34.5848 35.2493 34.5848 35.3176V37.4448H36.9138V35.3176C36.9138 35.2493 36.9672 35.1959 37.0354 35.1959Z" fill="black"/>
<path d="M28.8735 35.1959H29.2592L27.5147 39.94C27.5029 39.9726 27.4702 39.9963 27.4346 39.9963H27.2091C27.1735 39.9963 27.1439 39.9756 27.129 39.9429L26.1322 37.4241C26.1084 37.3647 26.0254 37.3647 26.0016 37.4241L24.9246 39.9459C24.9128 39.9785 24.8801 39.9963 24.8475 39.9963H24.6309C24.5953 39.9963 24.5627 39.9726 24.5508 39.94L22.836 35.1959H23.5332C23.6044 35.1959 23.6697 35.2404 23.6934 35.3087L24.8534 38.5633C24.8712 38.6108 24.9395 38.6138 24.9573 38.5633L26.1559 35.7003H26.3161L27.3931 38.6672C27.4109 38.7176 27.4821 38.7176 27.4999 38.6672L28.7104 35.3057C28.7341 35.2375 28.7994 35.193 28.8706 35.193L28.8735 35.1959Z" fill="black"/>
<path d="M22.0438 39.3228C21.5721 39.7708 20.9668 39.9963 20.2311 39.9963C19.4953 39.9963 18.89 39.7708 18.4153 39.3228C17.9406 38.8749 17.7033 38.2993 17.7033 37.5961C17.7033 36.893 17.9406 36.3174 18.4153 35.8694C18.89 35.4214 19.4953 35.1959 20.2311 35.1959C20.9668 35.1959 21.5691 35.4214 22.0438 35.8694C22.5156 36.3174 22.7529 36.893 22.7529 37.5961C22.7529 38.2993 22.5156 38.8749 22.0438 39.3228ZM19.0354 39.1241C19.3291 39.5038 19.7297 39.6937 20.234 39.6937C20.7384 39.6937 21.136 39.5038 21.4326 39.1241C21.7264 38.7443 21.8747 38.234 21.8747 37.5961C21.8747 36.9583 21.7264 36.445 21.4326 36.0652C21.1389 35.6855 20.7384 35.4956 20.234 35.4956C19.7297 35.4956 19.3321 35.6855 19.0354 36.0652C18.7417 36.445 18.5934 36.9553 18.5934 37.5961C18.5934 38.237 18.7417 38.7473 19.0354 39.1241Z" fill="black"/>
<path d="M17.7033 39.9963H16.923L15.4811 38.1628C15.3921 37.9759 15.2408 37.8839 15.0272 37.8839H14.5376V39.9963H13.7989V35.1959H15.4663C15.938 35.1959 16.3059 35.3176 16.567 35.5638C16.8281 35.8101 16.9586 36.1335 16.9586 36.5399C16.9586 36.8544 16.8666 37.1244 16.6827 37.3469C16.4987 37.5724 16.2406 37.7267 15.9083 37.8097C15.9736 37.8365 16.0329 37.878 16.0864 37.9373L17.7063 39.9934L17.7033 39.9963ZM14.5347 37.5724H15.2438C15.5642 37.5724 15.8075 37.4804 15.9706 37.2994C16.1338 37.1185 16.2169 36.8633 16.2169 36.5399C16.2169 36.2165 16.1368 35.9673 15.9795 35.7834C15.8223 35.5994 15.5909 35.5075 15.2883 35.5075H14.5347V37.5724Z" fill="black"/>
<path d="M6.08504 38.6434C6.09098 38.7057 6.07318 38.768 6.03461 38.8155C5.45607 39.5305 4.53634 39.9934 3.49794 39.9934C1.74748 39.9934 0.329322 38.6761 0.329322 37.0502C0.329322 35.4244 1.74748 34.1071 3.49794 34.1071C4.54524 34.1071 5.47387 34.5788 6.05241 35.3087C6.09691 35.3651 6.11768 35.4363 6.11471 35.5075C6.09988 35.7418 6.01087 36.1987 5.48574 35.6706C4.8983 34.9675 4.87456 34.4958 3.51574 34.4394C2.15691 34.383 1.48937 36.0237 1.56057 37.0502C1.63178 38.0738 2.13911 39.5661 3.5009 39.5661C4.86269 39.5661 5.36706 38.4951 5.44123 38.3201C5.51244 38.145 5.75869 38.059 5.9189 38.1598C6.03164 38.231 6.07318 38.4951 6.08504 38.6405V38.6434Z" fill="black"/>
<path d="M11.6064 38.9016V37.2549L10.8587 37.3529C10.7341 37.3707 10.6214 37.2727 10.6214 37.1452C10.6214 37.0295 10.7163 36.9345 10.832 36.9345H12.3659C12.4727 36.9345 12.5617 37.0206 12.5617 37.1303V39.1597C12.5617 39.3703 12.3926 39.4949 12.2354 39.6344C11.9476 39.8925 10.9982 40.0349 10.0547 39.9815C8.30723 39.8806 6.8861 38.6642 6.8861 37.0384C6.8861 35.4125 8.30426 34.0952 10.0547 34.0952C11.102 34.0952 12.0336 34.567 12.6092 35.2968C12.6537 35.3532 12.6745 35.4214 12.6685 35.4926C12.6567 35.727 12.5676 36.1869 12.0395 35.6588C11.4521 34.9556 11.4284 34.4839 10.0695 34.4275C8.71072 34.3712 8.04318 36.0118 8.11438 37.0384C8.18559 38.0619 8.69292 39.5543 10.0547 39.5543H11.2177C11.4254 39.5543 11.5915 39.3881 11.5975 39.1834L11.6034 38.9016H11.6064Z" fill="black"/>
<path d="M66.5706 39.6937H68.68V39.9963H65.7814C65.7191 39.9963 65.6686 39.9459 65.6686 39.8836V35.4422C65.6686 35.3799 65.7191 35.3294 65.7814 35.3294H66.348C66.4103 35.3294 66.4608 35.3799 66.4608 35.4422V39.581C66.4608 39.6433 66.5112 39.6937 66.5735 39.6937H66.5706Z" fill="black"/>
<path d="M61.0522 35.4422V35.5223C61.0522 35.5846 61.0017 35.635 60.9394 35.635H59.5272C59.4649 35.635 59.4145 35.6855 59.4145 35.7478V39.8866C59.4145 39.9489 59.364 39.9993 59.3017 39.9993H58.741C58.6787 39.9993 58.6283 39.9489 58.6283 39.8866V35.7478C58.6283 35.6855 58.5778 35.635 58.5155 35.635H57.1122C57.0499 35.635 56.9994 35.5846 56.9994 35.5223V35.4422C56.9994 35.3799 57.0499 35.3294 57.1122 35.3294H60.9335C60.9958 35.3294 61.0462 35.3799 61.0462 35.4422H61.0522Z" fill="black"/>
<path d="M55.5813 35.3294H56.148C56.2103 35.3294 56.2607 35.3799 56.2607 35.4422V39.8836C56.2607 39.9459 56.2103 39.9963 56.148 39.9963H55.5813C55.519 39.9963 55.4685 39.9459 55.4685 39.8836V35.4422C55.4685 35.3799 55.519 35.3294 55.5813 35.3294Z" fill="black"/>
<path d="M53.2968 35.3294C53.7834 35.3294 54.1661 35.4481 54.442 35.6884C54.7179 35.9288 54.8544 36.2581 54.8544 36.6764C54.8544 37.0947 54.7179 37.4241 54.442 37.6644C54.1661 37.9047 53.7863 38.0234 53.2968 38.0234H52.4483C52.4038 38.0234 52.3682 38.059 52.3682 38.1035V39.9222C52.3682 39.9667 52.3326 40.0023 52.2881 40.0023H51.7481C51.7036 40.0023 51.668 39.9667 51.668 39.9222V35.4125C51.668 35.368 51.7036 35.3324 51.7481 35.3324H53.2938L53.2968 35.3294ZM53.1277 37.7504C53.454 37.7504 53.7033 37.6584 53.8753 37.4745C54.0474 37.2905 54.1335 37.0235 54.1335 36.6734C54.1335 36.3233 54.0474 36.0563 53.8753 35.8724C53.7033 35.6884 53.454 35.5965 53.1277 35.5965H52.4483C52.4038 35.5965 52.3682 35.6321 52.3682 35.6766V37.6733C52.3682 37.7178 52.4038 37.7534 52.4483 37.7534H53.1277V37.7504Z" fill="black"/>
<path d="M46.3603 38.6879C46.3662 38.7473 46.3484 38.8096 46.3098 38.8541C45.7313 39.5483 44.8116 39.9963 43.7732 39.9963C42.0227 39.9963 40.6045 38.7206 40.6045 37.1452C40.6045 35.5698 42.0227 34.294 43.7732 34.294C44.8205 34.294 45.7491 34.7509 46.3276 35.457C46.3721 35.5104 46.3929 35.5816 46.3899 35.6499C46.3751 35.8754 46.2861 36.3174 45.761 35.8071C45.1735 35.1277 45.1498 34.7539 43.791 34.7865C42.4173 34.8162 41.7646 36.1513 41.8358 37.1452C41.907 38.1361 42.4143 39.581 43.7761 39.581C45.1379 39.581 45.6423 38.5426 45.7164 38.3735C45.7877 38.2043 46.0339 38.1213 46.1941 38.2192C46.3069 38.2904 46.3484 38.5426 46.3603 38.685V38.6879Z" fill="black"/>
<path d="M51.1488 39.7709L49.2114 35.3769C49.1996 35.3473 49.1699 35.3294 49.1372 35.3294H48.805C48.7753 35.3294 48.7456 35.3473 48.7308 35.3769L46.6065 39.8806C46.5828 39.934 46.6213 39.9963 46.6807 39.9963H47.0248C47.0575 39.9963 47.0842 39.9785 47.099 39.9489L47.7636 38.5307C47.7755 38.501 47.8051 38.4832 47.8378 38.4832H49.6742C49.7069 38.4832 49.7336 38.501 49.7484 38.5307L50.4011 39.9459C50.413 39.9756 50.4427 39.9934 50.4753 39.9934H51.0064C51.1221 39.9934 51.1992 39.8747 51.1518 39.7709H51.1488ZM49.4606 38.0797H48.1285C48.0692 38.0797 48.0306 38.0204 48.0543 37.967L48.7249 36.6082C48.7367 36.5785 48.7664 36.5607 48.799 36.5607H48.8554C48.888 36.5607 48.9177 36.5815 48.9296 36.6111L49.5348 37.97C49.5556 38.0234 49.517 38.0827 49.4606 38.0827V38.0797Z" fill="black"/>
<path d="M65.1939 39.7709L63.2566 35.3769C63.2447 35.3473 63.215 35.3294 63.1824 35.3294H62.8501C62.8204 35.3294 62.7908 35.3473 62.7759 35.3769L60.6517 39.8806C60.6279 39.934 60.6665 39.9963 60.7258 39.9963H61.07C61.1026 39.9963 61.1293 39.9785 61.1442 39.9489L61.8087 38.5307C61.8206 38.501 61.8503 38.4832 61.8829 38.4832H63.7194C63.752 38.4832 63.7787 38.501 63.7936 38.5307L64.4463 39.9459C64.4581 39.9756 64.4878 39.9934 64.5205 39.9934H65.0515C65.1672 39.9934 65.2444 39.8747 65.1969 39.7709H65.1939ZM63.5058 38.0797H62.1737C62.1143 38.0797 62.0758 38.0204 62.0995 37.967L62.77 36.6082C62.7819 36.5785 62.8115 36.5607 62.8442 36.5607H62.9005C62.9332 36.5607 62.9628 36.5815 62.9747 36.6111L63.58 37.97C63.6007 38.0234 63.5622 38.0827 63.5058 38.0827V38.0797Z" fill="black"/>
<path d="M43.8088 12.0455C43.5091 11.2711 43.1175 10.479 42.6428 9.78769C40.6283 6.86533 37.2994 5.12081 33.7392 5.12081C27.7936 5.12081 22.9546 9.92417 22.9546 15.8282C22.9546 21.7323 27.7906 26.5357 33.7392 26.5357C39.6878 26.5357 44.5238 21.7323 44.5238 15.8282V13.8731H33.5998V17.7864H40.3553C39.5009 20.5841 36.8574 22.6253 33.7422 22.6253C29.9327 22.6253 26.8353 19.5784 26.8353 15.8312C26.8353 12.084 29.9327 9.03708 33.7422 9.03708C36.0356 9.03708 38.1747 10.1526 39.4623 12.0247L43.8117 12.0455H43.8088Z" fill="black"/>
<path d="M15.7155 8.77896C18.1068 8.77896 20.2311 9.84406 21.5721 11.4877C22.0379 10.1823 22.7114 8.97181 23.548 7.8978C21.5217 6.02274 18.7595 4.86566 15.7155 4.86566C9.51178 4.86566 4.4681 9.66902 4.4681 15.5731C4.4681 21.4771 9.51474 26.2805 15.7155 26.2805C18.6438 26.2805 21.314 25.2095 23.3166 23.459C22.5126 22.3613 21.8747 21.13 21.4475 19.8068C20.1035 21.3674 18.0326 22.3702 15.7155 22.3702C11.6717 22.3702 8.37843 19.3232 8.37843 15.5761C8.37843 11.8289 11.6687 8.78193 15.7155 8.78193V8.77896ZM51.1844 4.86566C48.3095 4.86566 45.6838 5.89813 43.6931 7.59518C44.5416 8.61875 45.2328 9.77879 45.7342 11.0308C47.0782 9.64825 49.0245 8.77599 51.1844 8.77599C55.2282 8.77599 58.5214 11.823 58.5214 15.5701C58.5214 19.3173 55.2312 22.3642 51.1844 22.3642C49.0987 22.3642 47.2147 21.5513 45.8796 20.2548C45.4168 21.5276 44.7552 22.7025 43.9393 23.7498C45.8974 25.3252 48.4282 26.2775 51.1844 26.2775C57.3881 26.2775 62.4318 21.4742 62.4318 15.5701C62.4318 9.66605 57.3851 4.86269 51.1844 4.86269V4.86566Z" fill="black"/>
<path d="M52.4512 31.1491H15.5731C6.98697 31.1491 0 24.1622 0 15.5761C0 6.98994 6.98697 0 15.5731 0H52.4483C61.0373 0 68.0214 6.98697 68.0214 15.5731C68.0214 24.1592 61.0344 31.1462 52.4483 31.1462L52.4512 31.1491ZM15.5731 1.70001C7.9245 1.70001 1.70001 7.9245 1.70001 15.5731C1.70001 23.2217 7.9245 29.4462 15.5731 29.4462H52.4483C60.0969 29.4462 66.3213 23.2217 66.3213 15.5731C66.3213 7.9245 60.0998 1.70001 52.4512 1.70001H15.5731Z" fill="black"/>
<path d="M19.8751 47.7755H18.9168L18.1869 43.7672L16.2347 47.9179H16.027L14.0837 43.6367L13.3628 47.7755H12.9919L13.9947 41.9485H14.2024L16.4098 46.6748L18.626 41.9485H18.8426L19.8662 47.7755H19.8751Z" fill="black"/>
<path d="M22.9903 42.0939H23.9753V47.7784H22.9903V42.0939Z" fill="black"/>
<path d="M31.9621 42.0939H32.3418V47.9208H32.1252L27.8826 43.4676V47.7784H27.5029V41.9515H27.7194L31.9621 46.4137V42.0939Z" fill="black"/>
<path d="M35.8665 42.0939H36.8515V47.7784H35.8665V42.0939Z" fill="black"/>
<path d="M44.8353 42.0939H45.2151V47.9208H44.9985L40.7559 43.4676V47.7784H40.3761V41.9515H40.5927L44.8353 46.4137V42.0939Z" fill="black"/>
<path d="M51.487 45.0281H53.6647V47.1405C53.009 47.6271 52.2525 47.8704 51.401 47.8704C50.5495 47.8704 49.7989 47.5945 49.2322 47.0456C48.6626 46.4967 48.3807 45.7906 48.3807 44.9332C48.3807 44.0758 48.6685 43.3697 49.2441 42.8208C49.8196 42.2719 50.5554 41.996 51.4514 41.996C52.3474 41.996 53.009 42.2749 53.546 42.8297L53.2909 43.0937C52.7717 42.6072 52.1902 42.3639 51.5375 42.3639C50.8847 42.3639 50.3833 42.5894 50.0125 43.0374C49.6387 43.4854 49.4547 44.1173 49.4547 44.9332C49.4547 45.7491 49.6327 46.387 49.9888 46.832C50.3448 47.277 50.8402 47.4995 51.4722 47.4995C51.9142 47.4995 52.3207 47.4135 52.6945 47.2444V45.396H51.49V45.0252L51.487 45.0281Z" fill="black"/>
</svg>
