<svg width="21" height="16" viewBox="0 0 21 16" fill="none" xmlns="http://www.w3.org/2000/svg">
<path fill-rule="evenodd" clip-rule="evenodd" d="M1.60378 0.533797C2.0378 0.193527 2.61202 0 3.22373 0H18.4618C19.0735 0 19.6478 0.193527 20.0818 0.533797C20.5143 0.872888 20.8428 1.39249 20.8428 2.02667V13.9733C20.8428 14.6075 20.5143 15.1271 20.0818 15.4662C19.6478 15.8065 19.0735 16 18.4618 16H3.22373C2.61202 16 2.0378 15.8065 1.60378 15.4662C1.17126 15.1271 0.842773 14.6075 0.842773 13.9733V2.02667C0.842773 1.39249 1.17126 0.872889 1.60378 0.533797ZM2.14993 1.40764C1.89306 1.60903 1.79515 1.83609 1.79515 2.02667V3.35986C1.85207 3.35984 1.90995 3.37134 1.96625 3.39561L11.3095 7.42444L19.7031 3.40298C19.7643 3.37368 19.8278 3.35983 19.8904 3.35986V2.02667C19.8904 1.83609 19.7925 1.60903 19.5356 1.40764C19.2802 1.20743 18.9021 1.06667 18.4618 1.06667H3.22373C2.78346 1.06667 2.4053 1.20743 2.14993 1.40764ZM19.8904 4.47342L11.3284 8.57556L1.79515 4.46483V13.9733C1.79515 14.1639 1.89306 14.391 2.14993 14.5924C2.4053 14.7926 2.78346 14.9333 3.22373 14.9333H18.4618C18.9021 14.9333 19.2802 14.7926 19.5356 14.5924C19.7925 14.391 19.8904 14.1639 19.8904 13.9733V4.47342Z" fill="#A1A1A1"/>
</svg>
