<svg width="50" height="50" viewBox="0 0 50 50" fill="none" xmlns="http://www.w3.org/2000/svg">
<g clip-path="url(#clip0_17_305)">
<path d="M4.18599 0H45.814C48.127 0 50 1.87299 50 4.18599V45.814C50 48.127 48.127 50 45.814 50H4.18599C1.87299 50 0 48.127 0 45.814V4.18599C0 1.87299 1.87299 0 4.18599 0Z" fill="#898989"/>
<path d="M8.53857 40.1772V22.6187H14.0089L17.2911 34.5939L20.5376 22.6187H26.0198V40.1772H22.6247V26.3587L19.0333 40.1772H15.5132L11.9337 26.3587V40.1772H8.53857Z" fill="white"/>
<path d="M41.5509 40.1772H38.0844V33.6841C38.0844 32.3106 38.013 31.4247 37.8644 31.0203C37.7157 30.616 37.4779 30.3009 37.1449 30.0809C36.8119 29.8549 36.4076 29.7479 35.9438 29.7479C35.3433 29.7479 34.8022 29.9084 34.3265 30.2295C33.8508 30.5506 33.5238 30.9728 33.3454 31.496C33.167 32.0252 33.0779 32.9944 33.0779 34.4214V40.1831H29.6113V27.4646H32.8341V29.3317C33.9757 27.8927 35.4206 27.1792 37.1568 27.1792C37.9239 27.1792 38.6195 27.31 39.2558 27.5776C39.892 27.8452 40.3677 28.1841 40.6947 28.6003C41.0217 29.0165 41.2477 29.4863 41.3725 30.0154C41.4974 30.5446 41.5628 31.2938 41.5628 32.2809V40.1831L41.5509 40.1772Z" fill="white"/>
<path d="M1.29028 12.7365V6.77856H2.51516L3.97193 11.0002C4.10869 11.3927 4.20383 11.69 4.26329 11.8802C4.33464 11.6662 4.44167 11.3451 4.59032 10.9229L6.05898 6.77856H7.15305V12.7365H6.36818V7.74776L4.58437 12.7365H3.85301L2.07516 7.66452V12.7365H1.29028Z" fill="white"/>
<path d="M11.7019 12.2073C11.4224 12.4392 11.1548 12.5997 10.8932 12.6949C10.6316 12.79 10.3581 12.8376 10.0608 12.8376C9.57318 12.8376 9.19858 12.7186 8.93101 12.4927C8.66939 12.2608 8.53857 11.9635 8.53857 11.6067C8.53857 11.3927 8.58614 11.2024 8.68722 11.03C8.78831 10.8575 8.91912 10.7148 9.07966 10.6078C9.2402 10.5008 9.42453 10.4235 9.62075 10.37C9.7694 10.3343 9.9894 10.2986 10.2926 10.2629C10.8991 10.1916 11.351 10.1083 11.6364 10.0132C11.6364 9.91212 11.6364 9.84671 11.6364 9.82293C11.6364 9.52563 11.5651 9.31752 11.4224 9.19265C11.2321 9.02616 10.9408 8.94292 10.5662 8.94292C10.2094 8.94292 9.94778 9.00238 9.78129 9.1213C9.6148 9.24022 9.48399 9.45428 9.40669 9.76347L8.66939 9.66833C8.73479 9.36509 8.84777 9.11535 9.00236 8.92508C9.15696 8.73481 9.37696 8.5921 9.66832 8.49102C9.95967 8.38994 10.2926 8.33643 10.6791 8.33643C11.0656 8.33643 11.3689 8.37805 11.6067 8.46724C11.8446 8.55643 12.017 8.66346 12.13 8.79427C12.2429 8.92508 12.3202 9.09157 12.3619 9.29373C12.3856 9.4186 12.3975 9.64455 12.3975 9.96563V10.9408C12.3975 11.6186 12.4154 12.0527 12.4451 12.2311C12.4748 12.4094 12.5402 12.5819 12.6354 12.7484H11.8446C11.7673 12.5997 11.7137 12.4213 11.6959 12.2132L11.7019 12.2073ZM11.6364 10.5721C11.3629 10.6792 10.9527 10.7743 10.4056 10.8456C10.0964 10.8873 9.87643 10.9408 9.74561 10.9943C9.6148 11.0478 9.51967 11.1251 9.44831 11.2321C9.37696 11.3392 9.34129 11.4521 9.34129 11.577C9.34129 11.7732 9.41858 11.9338 9.56723 12.0646C9.71588 12.1954 9.94183 12.2608 10.2332 12.2608C10.5245 12.2608 10.7802 12.2013 11.0062 12.0765C11.2321 11.9516 11.3986 11.7851 11.5056 11.5711C11.5889 11.4046 11.6246 11.1608 11.6246 10.8397V10.5721H11.6364Z" fill="white"/>
<path d="M13.997 12.7365V8.41969H14.6748V9.03212C15.0019 8.55644 15.4716 8.3186 16.09 8.3186C16.3576 8.3186 16.6073 8.36617 16.8273 8.46131C17.0532 8.55644 17.2197 8.67536 17.3327 8.82996C17.4457 8.97861 17.523 9.16294 17.5646 9.37105C17.5943 9.50781 17.6062 9.74565 17.6062 10.0846V12.7365H16.8511V10.1084C16.8511 9.81105 16.8214 9.5851 16.7619 9.4424C16.7024 9.29375 16.6014 9.17483 16.4468 9.09158C16.2981 9.00239 16.1197 8.96077 15.9235 8.96077C15.6024 8.96077 15.323 9.06185 15.0911 9.25807C14.8592 9.45429 14.7403 9.82889 14.7403 10.3819V12.7365H13.9851H13.997Z" fill="white"/>
<path d="M19.0628 13.0991L19.7942 13.2061C19.8239 13.4261 19.9131 13.5867 20.0498 13.6878C20.2401 13.8245 20.4958 13.8899 20.8169 13.8899C21.1677 13.8899 21.4353 13.8245 21.6255 13.6878C21.8158 13.551 21.9466 13.3607 22.012 13.1169C22.0536 12.9683 22.0715 12.6532 22.0655 12.1775C21.7385 12.5521 21.3282 12.7423 20.8347 12.7423C20.2223 12.7423 19.7466 12.5283 19.4136 12.1002C19.0806 11.6721 18.9082 11.1607 18.9082 10.5602C18.9082 10.1499 18.9855 9.76934 19.1401 9.41853C19.2947 9.06771 19.5147 8.80014 19.8061 8.60987C20.0974 8.4196 20.4423 8.32446 20.8347 8.32446C21.358 8.32446 21.792 8.53257 22.1309 8.94285V8.4196H22.8266V12.1537C22.8266 12.8256 22.7553 13.3013 22.6126 13.5807C22.4699 13.8602 22.2499 14.0802 21.9407 14.2467C21.6315 14.4132 21.2569 14.4905 20.8109 14.4905C20.2817 14.4905 19.8536 14.3775 19.5266 14.1456C19.1996 13.9137 19.039 13.5629 19.0509 13.0991H19.0628ZM19.6871 10.5066C19.6871 11.0715 19.8061 11.4877 20.032 11.7434C20.2639 12.005 20.5552 12.1359 20.9061 12.1359C21.2569 12.1359 21.5423 12.005 21.7801 11.7494C22.012 11.4937 22.1309 11.0834 22.1309 10.5304C22.1309 9.97745 22.012 9.60285 21.7682 9.33528C21.5244 9.06771 21.2331 8.93096 20.8942 8.93096C20.5552 8.93096 20.2758 9.06177 20.0379 9.32934C19.8001 9.59096 19.6871 9.9834 19.6871 10.5066Z" fill="white"/>
<path d="M27.3041 12.2073C27.0247 12.4392 26.7571 12.5997 26.4955 12.6949C26.2339 12.79 25.9603 12.8376 25.663 12.8376C25.1755 12.8376 24.8009 12.7186 24.5333 12.4927C24.2717 12.2608 24.1409 11.9635 24.1409 11.6067C24.1409 11.3927 24.1884 11.2024 24.2895 11.03C24.3906 10.8575 24.5214 10.7148 24.682 10.6078C24.8425 10.5008 25.0268 10.4235 25.223 10.37C25.3717 10.3343 25.5917 10.2986 25.8949 10.2629C26.5014 10.1916 26.9533 10.1083 27.2387 10.0132C27.2387 9.91212 27.2387 9.84671 27.2387 9.82293C27.2387 9.52563 27.1674 9.31752 27.0247 9.19265C26.8344 9.02616 26.5431 8.94292 26.1685 8.94292C25.8117 8.94292 25.5501 9.00238 25.3836 9.1213C25.2171 9.24022 25.0863 9.45428 25.009 9.76347L24.2717 9.66833C24.3371 9.36509 24.4501 9.11535 24.6047 8.92508C24.7593 8.73481 24.9793 8.5921 25.2706 8.49102C25.562 8.38994 25.8949 8.33643 26.2814 8.33643C26.6679 8.33643 26.9712 8.37805 27.209 8.46724C27.4469 8.55643 27.6193 8.66346 27.7323 8.79427C27.8452 8.92508 27.9225 9.09157 27.9642 9.29373C27.9879 9.4186 27.9998 9.64455 27.9998 9.96563V10.9408C27.9998 11.6186 28.0177 12.0527 28.0474 12.2311C28.0771 12.4094 28.1425 12.5819 28.2377 12.7484H27.4469C27.3696 12.5997 27.316 12.4213 27.2982 12.2132L27.3041 12.2073ZM27.2387 10.5721C26.9652 10.6792 26.555 10.7743 26.0079 10.8456C25.6987 10.8873 25.4787 10.9408 25.3479 10.9943C25.2171 11.0478 25.122 11.1251 25.0506 11.2321C24.9793 11.3392 24.9436 11.4521 24.9436 11.577C24.9436 11.7732 25.0209 11.9338 25.1695 12.0646C25.3182 12.1954 25.5441 12.2608 25.8355 12.2608C26.1268 12.2608 26.3825 12.2013 26.6085 12.0765C26.8344 11.9516 27.0009 11.7851 27.1079 11.5711C27.1912 11.4046 27.2269 11.1608 27.2269 10.8397V10.5721H27.2387Z" fill="white"/>
<path d="M29.6052 12.7365V8.41969H30.283V9.03212C30.61 8.55644 31.0798 8.3186 31.6981 8.3186C31.9657 8.3186 32.2155 8.36617 32.4355 8.46131C32.6614 8.55644 32.8279 8.67536 32.9409 8.82996C33.0538 8.97861 33.1311 9.16294 33.1728 9.37105C33.2025 9.50781 33.2144 9.74565 33.2144 10.0846V12.7365H32.4592V10.1084C32.4592 9.81105 32.4295 9.5851 32.37 9.4424C32.3106 9.29375 32.2095 9.17483 32.0549 9.09158C31.9063 9.00239 31.7279 8.96077 31.5317 8.96077C31.2106 8.96077 30.9311 9.06185 30.6992 9.25807C30.4673 9.45429 30.3484 9.82889 30.3484 10.3819V12.7365H29.5933H29.6052Z" fill="white"/>
<path d="M37.8522 11.3511L38.6311 11.4462C38.5063 11.8862 38.2803 12.2311 37.9473 12.4748C37.6144 12.7186 37.1922 12.8435 36.6749 12.8435C36.0268 12.8435 35.5095 12.6473 35.1289 12.2608C34.7484 11.8743 34.5581 11.3273 34.5581 10.6256C34.5581 9.92401 34.7484 9.33536 35.1349 8.93697C35.5214 8.53859 36.0208 8.33643 36.6333 8.33643C37.2457 8.33643 37.7154 8.53264 38.09 8.92508C38.4646 9.31752 38.6549 9.8705 38.6549 10.584C38.6549 10.6256 38.6549 10.691 38.6549 10.7802H35.337C35.3668 11.2559 35.5035 11.6186 35.7533 11.8684C36.003 12.1181 36.3122 12.2489 36.6808 12.2489C36.9543 12.2489 37.1922 12.1775 37.3884 12.0348C37.5846 11.8921 37.7392 11.6662 37.8522 11.3629V11.3511ZM35.3727 10.1678H37.8581C37.8225 9.80509 37.7273 9.53157 37.5727 9.35319C37.3349 9.07373 37.0198 8.93103 36.6392 8.93103C36.2943 8.93103 36.003 9.044 35.7651 9.26995C35.5273 9.4959 35.3965 9.7932 35.3727 10.1737V10.1678Z" fill="white"/>
<path d="M39.7075 11.4522L40.4508 11.3392C40.4924 11.6305 40.6113 11.8505 40.8016 12.0051C40.9919 12.1597 41.2594 12.237 41.6043 12.237C41.9492 12.237 42.2048 12.1657 42.3773 12.0289C42.5438 11.8922 42.627 11.7316 42.627 11.5473C42.627 11.3808 42.5557 11.25 42.407 11.1549C42.3059 11.0894 42.0443 11.0062 41.634 10.9051C41.081 10.7684 40.6946 10.6554 40.4864 10.5543C40.2724 10.4532 40.1118 10.3165 39.9989 10.144C39.8859 9.97159 39.8324 9.77538 39.8324 9.56727C39.8324 9.37699 39.88 9.19861 39.9691 9.03212C40.0583 8.86564 40.1832 8.73482 40.3378 8.62185C40.4567 8.53861 40.6173 8.46725 40.8194 8.40779C41.0216 8.34833 41.2416 8.3186 41.4735 8.3186C41.8243 8.3186 42.1275 8.36617 42.3951 8.46725C42.6627 8.56834 42.853 8.69915 42.9778 8.86564C43.1027 9.03212 43.1919 9.25807 43.2395 9.53159L42.5021 9.62673C42.4665 9.40672 42.3713 9.22834 42.2108 9.10348C42.0502 8.97861 41.8243 8.91915 41.5329 8.91915C41.1881 8.91915 40.9383 8.97266 40.7897 9.08564C40.641 9.19861 40.5697 9.32943 40.5697 9.47808C40.5697 9.57321 40.5994 9.65646 40.6648 9.73375C40.7243 9.81105 40.8194 9.87646 40.9562 9.92997C41.0335 9.9597 41.2535 10.0192 41.6221 10.1143C42.1573 10.2511 42.5259 10.364 42.74 10.4532C42.954 10.5424 43.1146 10.6673 43.2335 10.8397C43.3524 11.0062 43.4119 11.2143 43.4119 11.464C43.4119 11.7138 43.3405 11.9397 43.1919 12.1538C43.0432 12.3678 42.8351 12.5343 42.5557 12.6532C42.2762 12.7722 41.967 12.8316 41.6162 12.8316C41.0394 12.8316 40.5994 12.7127 40.2962 12.4808C39.9929 12.2489 39.8027 11.904 39.7135 11.4462L39.7075 11.4522Z" fill="white"/>
<path d="M47.7763 11.3511L48.5552 11.4462C48.4303 11.8862 48.2044 12.2311 47.8714 12.4748C47.5384 12.7186 47.1163 12.8435 46.599 12.8435C45.9508 12.8435 45.4335 12.6473 45.053 12.2608C44.6724 11.8743 44.4822 11.3273 44.4822 10.6256C44.4822 9.92401 44.6725 9.33536 45.0589 8.93697C45.4454 8.53859 45.9449 8.33643 46.5573 8.33643C47.1698 8.33643 47.6395 8.53264 48.0141 8.92508C48.3887 9.31752 48.579 9.8705 48.579 10.584C48.579 10.6256 48.579 10.691 48.579 10.7802H45.2611C45.2908 11.2559 45.4276 11.6186 45.6773 11.8684C45.9271 12.1181 46.2363 12.2489 46.6049 12.2489C46.8784 12.2489 47.1163 12.1775 47.3125 12.0348C47.5087 11.8921 47.6633 11.6662 47.7763 11.3629V11.3511ZM45.2968 10.1678H47.7822C47.7465 9.80509 47.6514 9.53157 47.4968 9.35319C47.259 9.07373 46.9438 8.93103 46.5633 8.93103C46.2184 8.93103 45.9271 9.044 45.6892 9.26995C45.4514 9.4959 45.3206 9.7932 45.2968 10.1737V10.1678Z" fill="white"/>
</g>
<defs>
<clipPath id="clip0_17_305">
<rect width="50" height="50" fill="white"/>
</clipPath>
</defs>
</svg>
