<svg width="21" height="36" viewBox="0 0 21 36" fill="none" xmlns="http://www.w3.org/2000/svg">
<path d="M20.6474 13.3709C20.8475 12.5346 20.9428 11.6688 20.9428 10.8128C20.9428 4.85051 16.2454 0 10.4714 0C4.69736 0 0 4.85051 0 10.8128C0 11.6688 0.095281 12.5346 0.295371 13.3709C0.571687 15.1222 0.962339 16.5389 1.43874 17.5819C2.46778 19.8153 6.80307 27.1845 8.78492 30.5395C6.09799 30.8937 4.84981 32.0842 4.84981 33.2156C4.84981 34.5537 6.61251 36 10.4714 36C14.3303 36 16.093 34.5537 16.093 33.2156C16.093 32.094 14.8448 30.8937 12.1579 30.5395C14.1492 27.1845 18.475 19.8153 19.504 17.5819C19.9804 16.5389 20.3711 15.1222 20.6474 13.3709ZM14.4732 33.2156C14.3684 33.5305 13.0154 34.3274 10.4714 34.3274C7.89881 34.3274 6.54581 33.5108 6.46959 33.2255C6.54581 32.95 7.65107 32.2711 9.73773 32.1334C9.76632 32.1727 9.77584 32.2022 9.78537 32.2219C9.92829 32.4679 10.1951 32.6155 10.4714 32.6155C10.7477 32.6155 11.0145 32.4679 11.1574 32.2219C11.1669 32.2022 11.186 32.1727 11.2051 32.1334C13.2727 32.2613 14.3779 32.9303 14.4732 33.2156ZM19.0753 13.0068C19.0658 13.0265 19.0658 13.0462 19.0658 13.0757C18.818 14.6696 18.4655 15.9781 18.0558 16.8636C17.0172 19.1167 12.2722 27.1648 10.4809 30.1853C8.68964 27.1648 3.94464 19.1167 2.90608 16.8636C2.49637 15.9781 2.14383 14.6597 1.89609 13.0757C1.89609 13.056 1.88657 13.0363 1.88657 13.0068C1.71506 12.2886 1.62931 11.5507 1.62931 10.8128C1.62931 5.76551 5.60253 1.66275 10.4905 1.66275C15.3784 1.66275 19.3516 5.76551 19.3516 10.8128C19.3325 11.5507 19.2468 12.2886 19.0753 13.0068Z" fill="#fff"/>
<path d="M10.4716 4.73256C7.375 4.73256 4.85005 7.33983 4.85005 10.5374C4.85005 13.735 7.375 16.3423 10.4716 16.3423C13.5683 16.3423 16.0932 13.735 16.0932 10.5374C16.0932 7.33983 13.5683 4.73256 10.4716 4.73256ZM10.4716 14.6697C8.26111 14.6697 6.46983 12.82 6.46983 10.5374C6.46983 8.25484 8.26111 6.40515 10.4716 6.40515C12.6822 6.40515 14.4734 8.26468 14.4734 10.5374C14.4734 12.82 12.6822 14.6697 10.4716 14.6697Z" fill="#fff"/>
</svg>
