<svg width="15" height="20" viewBox="0 0 15 20" fill="none" xmlns="http://www.w3.org/2000/svg">
<path fill-rule="evenodd" clip-rule="evenodd" d="M11.8102 1H2.47689C1.83256 1 1.31022 1.44772 1.31022 2V18C1.31022 18.5523 1.83256 19 2.47689 19H11.8102C12.4546 19 12.9769 18.5523 12.9769 18V2C12.9769 1.44772 12.4546 1 11.8102 1ZM2.47689 0C1.18822 0 0.143555 0.895431 0.143555 2V18C0.143555 19.1046 1.18822 20 2.47689 20H11.8102C13.0989 20 14.1436 19.1046 14.1436 18V2C14.1436 0.895431 13.0989 0 11.8102 0H2.47689Z" fill="#A1A1A1"/>
<path fill-rule="evenodd" clip-rule="evenodd" d="M12.9769 15H1.31022V14H12.9769V15Z" fill="#A1A1A1"/>
<path d="M8.31022 17C8.31022 17.5523 7.78789 18 7.14355 18C6.49922 18 5.97689 17.5523 5.97689 17C5.97689 16.4477 6.49922 16 7.14355 16C7.78789 16 8.31022 16.4477 8.31022 17Z" fill="#A1A1A1"/>
</svg>
