<svg width="50" height="50" viewBox="0 0 50 50" fill="none" xmlns="http://www.w3.org/2000/svg">
<g clip-path="url(#clip0_17_231)">
<path d="M4.18599 0H45.814C48.127 0 50 1.87299 50 4.18599V45.814C50 48.127 48.127 50 45.814 50H4.18599C1.87299 50 0 48.127 0 45.814V4.18599C0 1.87299 1.87299 0 4.18599 0Z" fill="#898989"/>
<path d="M14.2349 40.1772V22.6187H17.7906L25.1993 34.3442V22.6187H28.5945V40.1772H24.9258L17.63 28.7312V40.1772H14.2349Z" fill="white"/>
<path d="M32.4355 25.7344V22.6187H35.9021V25.7344H32.4355ZM32.4355 40.1772V27.4587H35.9021V40.1772H32.4355Z" fill="white"/>
<path d="M12.689 12.7365V6.77856H13.5214L16.7501 11.4581V6.77856H17.529V12.7365H16.6966L13.4679 8.05101V12.7365H12.689Z" fill="white"/>
<path d="M19.2354 7.6229V6.77856H19.9905V7.6229H19.2354ZM19.2354 12.7424V8.42561H19.9905V12.7424H19.2354Z" fill="white"/>
<path d="M24.468 11.1549L25.2113 11.2501C25.128 11.7436 24.9199 12.136 24.5869 12.4155C24.254 12.6949 23.8437 12.8376 23.3561 12.8376C22.7496 12.8376 22.2561 12.6474 21.8875 12.2609C21.5188 11.8744 21.3345 11.3214 21.3345 10.6019C21.3345 10.1382 21.4118 9.72788 21.5723 9.37706C21.7329 9.02625 21.9707 8.76462 22.2977 8.59219C22.6248 8.41976 22.9756 8.33057 23.3621 8.33057C23.8437 8.33057 24.2421 8.44949 24.5513 8.68733C24.8605 8.92517 25.0567 9.26409 25.1399 9.69815L24.4086 9.80518C24.3372 9.51382 24.2123 9.29977 24.0399 9.15112C23.8615 9.00247 23.6475 8.93111 23.3977 8.93111C23.0172 8.93111 22.708 9.06193 22.4702 9.3295C22.2323 9.59707 22.1134 10.0133 22.1134 10.5841C22.1134 11.1549 22.2264 11.583 22.4583 11.8506C22.6902 12.1122 22.9875 12.243 23.3561 12.243C23.6534 12.243 23.8972 12.1539 24.0994 11.9814C24.2956 11.803 24.4205 11.5355 24.474 11.1668L24.468 11.1549Z" fill="white"/>
<path d="M26.2876 12.7365V6.77856H27.0427V10.1737L28.8265 8.41966H29.8017L28.1011 10.0191L29.9741 12.7365H29.0465L27.5779 10.5305L27.0427 11.024V12.7365H26.2876Z" fill="white"/>
<path d="M34.0529 11.3511L34.8318 11.4462C34.7069 11.8862 34.481 12.2311 34.148 12.4748C33.815 12.7186 33.3929 12.8435 32.8756 12.8435C32.2275 12.8435 31.7102 12.6473 31.3296 12.2608C30.9491 11.8743 30.7588 11.3273 30.7588 10.6256C30.7588 9.92401 30.9491 9.33536 31.3356 8.93697C31.722 8.53859 32.2215 8.33643 32.8339 8.33643C33.4464 8.33643 33.9161 8.53264 34.2907 8.92508C34.6653 9.31752 34.8556 9.8705 34.8556 10.584C34.8556 10.6256 34.8556 10.691 34.8556 10.7802H31.5377C31.5674 11.2559 31.7042 11.6186 31.9539 11.8684C32.2037 12.1181 32.5129 12.2489 32.8815 12.2489C33.155 12.2489 33.3929 12.1775 33.5891 12.0348C33.7853 11.8921 33.9399 11.6662 34.0529 11.3629V11.3511ZM31.5734 10.1678H34.0588C34.0231 9.80509 33.928 9.53157 33.7734 9.35319C33.5356 9.07373 33.2204 8.93103 32.8399 8.93103C32.495 8.93103 32.2037 9.044 31.9658 9.26995C31.728 9.4959 31.5972 9.7932 31.5734 10.1737V10.1678Z" fill="white"/>
<path d="M36.1934 12.7365V6.77856H36.9485V12.7365H36.1934Z" fill="white"/>
</g>
<defs>
<clipPath id="clip0_17_231">
<rect width="50" height="50" fill="white"/>
</clipPath>
</defs>
</svg>
