<svg width="50" height="50" viewBox="0 0 50 50" fill="none" xmlns="http://www.w3.org/2000/svg">
<g clip-path="url(#clip0_17_255)">
<path d="M4.18599 0H45.814C48.127 0 50 1.87299 50 4.18599V45.814C50 48.127 48.127 50 45.814 50H4.18599C1.87299 50 0 48.127 0 45.814V4.18599C0 1.87299 1.87299 0 4.18599 0Z" fill="#898989"/>
<path d="M14.1993 40.1772V22.6187H20.0621C22.2859 22.6187 23.7308 22.7078 24.4086 22.8803C25.4432 23.1419 26.3113 23.7187 27.013 24.5987C27.7146 25.4787 28.0654 26.6203 28.0654 28.0176C28.0654 29.0939 27.8632 30.0036 27.4589 30.735C27.0546 31.4723 26.5432 32.049 25.9248 32.4652C25.3005 32.8874 24.6702 33.1609 24.0281 33.2977C23.154 33.4642 21.8934 33.5474 20.2345 33.5474H17.8502V40.1713H14.1934L14.1993 40.1772ZM17.8561 25.5917V30.5744H19.854C21.2929 30.5744 22.2561 30.4852 22.7437 30.3009C23.2313 30.1166 23.6118 29.8312 23.8854 29.4387C24.1589 29.0463 24.3016 28.5944 24.3016 28.0711C24.3016 27.4349 24.1054 26.9057 23.7189 26.4895C23.3324 26.0733 22.8448 25.8176 22.2502 25.7106C21.8161 25.6333 20.9361 25.5917 19.6221 25.5917H17.8561Z" fill="white"/>
<path d="M37.05 27.4588V30.1405H34.6775V35.2659C34.6775 36.3065 34.7013 36.907 34.7429 37.0795C34.7905 37.2519 34.8916 37.3946 35.0521 37.5016C35.2126 37.6146 35.4089 37.6681 35.6408 37.6681C35.9618 37.6681 36.4256 37.5611 37.0381 37.347L37.3354 39.9573C36.5267 40.2903 35.617 40.4627 34.5943 40.4627C33.9699 40.4627 33.4051 40.3617 32.8996 40.1595C32.4002 39.9573 32.0315 39.6898 31.7937 39.3687C31.5558 39.0476 31.3953 38.6076 31.3061 38.0546C31.2348 37.6622 31.1931 36.8713 31.1931 35.6821V30.1345H29.5996V27.4529H31.1931V24.9258L34.6775 22.9636V27.4529H37.05V27.4588Z" fill="white"/>
<path d="M7.26025 12.7365V6.77856H9.5792C9.98947 6.77856 10.2987 6.7964 10.5127 6.83802C10.816 6.88559 11.0657 6.98073 11.2738 7.11749C11.476 7.25425 11.6425 7.44452 11.7673 7.69425C11.8922 7.94398 11.9517 8.21155 11.9517 8.50885C11.9517 9.01426 11.7852 9.44238 11.4522 9.79319C11.1192 10.144 10.5187 10.3164 9.65055 10.3164H8.07486V12.7365H7.26025ZM8.07486 9.60887H9.66244C10.1857 9.60887 10.5603 9.51373 10.7803 9.32346C11.0003 9.13318 11.1133 8.86561 11.1133 8.52075C11.1133 8.27101 11.0479 8.05696 10.9171 7.87858C10.7862 7.7002 10.6138 7.58128 10.4057 7.52776C10.2689 7.49209 10.0192 7.47425 9.6446 7.47425H8.07486V9.60292V9.60887Z" fill="white"/>
<path d="M13.3013 12.7365V6.77856H14.0564V12.7365H13.3013Z" fill="white"/>
<path d="M18.5578 12.2073C18.2783 12.4392 18.0108 12.5997 17.7492 12.6949C17.4875 12.79 17.214 12.8376 16.9167 12.8376C16.4291 12.8376 16.0486 12.7186 15.787 12.4927C15.5253 12.2608 15.3945 11.9635 15.3945 11.6067C15.3945 11.3927 15.4421 11.2024 15.5432 11.03C15.6443 10.8575 15.7691 10.7148 15.9297 10.6078C16.0902 10.5008 16.2745 10.4235 16.4708 10.37C16.6194 10.3343 16.8394 10.2986 17.1427 10.2629C17.7492 10.1916 18.201 10.1083 18.4865 10.0132C18.4865 9.91212 18.4865 9.84671 18.4865 9.82293C18.4865 9.52563 18.4151 9.31752 18.2724 9.19265C18.0821 9.02616 17.7908 8.94292 17.4102 8.94292C17.0535 8.94292 16.7918 9.00238 16.6254 9.1213C16.4529 9.24022 16.3281 9.45428 16.2508 9.76347L15.5135 9.66833C15.5789 9.36509 15.6918 9.11535 15.8464 8.92508C16.001 8.73481 16.221 8.5921 16.5124 8.49102C16.8037 8.38994 17.1367 8.33643 17.5232 8.33643C17.9097 8.33643 18.2129 8.37805 18.4508 8.46724C18.6886 8.55643 18.8611 8.66346 18.974 8.79427C19.087 8.92508 19.1643 9.09157 19.2059 9.29373C19.2297 9.4186 19.2416 9.64455 19.2416 9.96563V10.9408C19.2416 11.6186 19.2594 12.0527 19.2892 12.2311C19.3189 12.4094 19.3843 12.5819 19.4794 12.7484H18.6886C18.6113 12.5997 18.5638 12.4213 18.54 12.2132L18.5578 12.2073ZM18.4924 10.5721C18.2189 10.6792 17.8086 10.7743 17.2616 10.8456C16.9524 10.8873 16.7324 10.9408 16.6016 10.9943C16.4708 11.0478 16.3756 11.1251 16.3043 11.2321C16.2329 11.3392 16.1972 11.4521 16.1972 11.577C16.1972 11.7732 16.2745 11.9338 16.4232 12.0646C16.5718 12.1954 16.7978 12.2608 17.0891 12.2608C17.3805 12.2608 17.6362 12.2013 17.8621 12.0765C18.0881 11.9516 18.2546 11.7851 18.3616 11.5711C18.4389 11.4046 18.4805 11.1608 18.4805 10.8397V10.5721H18.4924Z" fill="white"/>
<path d="M22.4998 12.0825L22.6068 12.7306C22.3928 12.7722 22.2025 12.796 22.036 12.796C21.7625 12.796 21.5484 12.7544 21.3998 12.6711C21.2511 12.5879 21.1441 12.4749 21.0787 12.3381C21.0192 12.2014 20.9895 11.916 20.9895 11.476V8.99053H20.4365V8.41971H20.9895V7.34943L21.7387 6.90942V8.41971H22.4998V8.99053H21.7387V11.5176C21.7387 11.7257 21.7506 11.8625 21.7803 11.9219C21.8101 11.9814 21.8517 12.0289 21.9111 12.0646C21.9706 12.1003 22.0598 12.1181 22.1668 12.1181C22.2501 12.1181 22.363 12.1062 22.4998 12.0884V12.0825Z" fill="white"/>
<path d="M23.6714 7.6229V6.77856H24.4265V7.6229H23.6714ZM23.6714 12.7424V8.42561H24.4265V12.7424H23.6714Z" fill="white"/>
<path d="M26.0021 12.7365V8.41969H26.68V9.03212C27.007 8.55644 27.4767 8.3186 28.0951 8.3186C28.3627 8.3186 28.6124 8.36617 28.8324 8.46131C29.0584 8.55644 29.2249 8.67536 29.3378 8.82996C29.4508 8.97861 29.5281 9.16294 29.5697 9.37105C29.5995 9.50781 29.6114 9.74565 29.6114 10.0846V12.7365H28.8562V10.1084C28.8562 9.81105 28.8265 9.5851 28.767 9.4424C28.7076 9.29375 28.6005 9.17483 28.4519 9.09158C28.3032 9.00239 28.1249 8.96077 27.9286 8.96077C27.6076 8.96077 27.3281 9.06185 27.0962 9.25807C26.8643 9.45429 26.7454 9.82889 26.7454 10.3819V12.7365H25.9902H26.0021Z" fill="white"/>
<path d="M34.1243 12.7366V12.1003C33.7795 12.5879 33.3038 12.8317 32.7092 12.8317C32.4476 12.8317 32.2038 12.7841 31.9719 12.6831C31.7459 12.5879 31.5735 12.4631 31.4665 12.3144C31.3535 12.1658 31.2762 11.9874 31.2346 11.7733C31.2048 11.6306 31.187 11.4047 31.187 11.0895V8.41382H31.9422V10.8101C31.9422 11.1906 31.96 11.4522 31.9897 11.583C32.0373 11.7733 32.1384 11.9279 32.293 12.0349C32.4476 12.142 32.6378 12.2014 32.8638 12.2014C33.0897 12.2014 33.3038 12.1479 33.5 12.0349C33.6962 11.922 33.8389 11.7674 33.9222 11.5771C34.0054 11.3809 34.047 11.1014 34.047 10.7328V8.41976H34.8022V12.7366H34.1303H34.1243Z" fill="white"/>
<path d="M36.4074 12.7364V8.4196H37.0793V9.02609C37.2161 8.81204 37.4063 8.64555 37.6382 8.51474C37.8701 8.38392 38.1317 8.32446 38.429 8.32446C38.7561 8.32446 39.0296 8.38987 39.2377 8.52068C39.4458 8.65149 39.6004 8.84177 39.6837 9.07961C40.0345 8.5742 40.4923 8.32446 41.0572 8.32446C41.4972 8.32446 41.8361 8.44338 42.0739 8.68122C42.3118 8.91906 42.4307 9.28177 42.4307 9.77529V12.7364H41.6815V10.0191C41.6815 9.72772 41.6577 9.51366 41.6102 9.3888C41.5626 9.25799 41.4734 9.1569 41.3426 9.07961C41.2118 9.00231 41.0631 8.96069 40.8907 8.96069C40.5756 8.96069 40.3199 9.06177 40.1118 9.26393C39.9037 9.4661 39.8026 9.78718 39.8026 10.2331V12.7423H39.0474V9.93583C39.0474 9.6088 38.988 9.36501 38.8631 9.20447C38.7382 9.04393 38.542 8.96069 38.2566 8.96069C38.0426 8.96069 37.8463 9.0142 37.668 9.12123C37.4896 9.22826 37.3588 9.3888 37.2755 9.59691C37.1923 9.80502 37.1507 10.1083 37.1507 10.5007V12.7423H36.3955L36.4074 12.7364Z" fill="white"/>
</g>
<defs>
<clipPath id="clip0_17_255">
<rect width="50" height="50" fill="white"/>
</clipPath>
</defs>
</svg>
