<svg width="50" height="50" viewBox="0 0 50 50" fill="none" xmlns="http://www.w3.org/2000/svg">
<g clip-path="url(#clip0_17_281)">
<path d="M45.814 0H4.18599C1.87413 0 0 1.87413 0 4.18599V45.814C0 48.1259 1.87413 50 4.18599 50H45.814C48.1259 50 50 48.1259 50 45.814V4.18599C50 1.87413 48.1259 0 45.814 0Z" fill="#898989"/>
<path d="M4.51278 40.1772V25.2825H11.0415C12.6826 25.2825 13.8777 25.4192 14.621 25.6809C15.3643 25.9484 15.9589 26.4241 16.4048 27.1079C16.8508 27.7917 17.0767 28.5766 17.0767 29.4566C17.0767 30.5744 16.7378 31.4961 16.0599 32.2274C15.3821 32.9588 14.3713 33.4166 13.0215 33.6069C13.6934 33.9874 14.2464 34.4036 14.6805 34.8555C15.1145 35.3074 15.7032 36.1161 16.4464 37.2756L18.3194 40.1832H14.6091L12.3675 36.9426C11.5707 35.7831 11.0237 35.0518 10.7323 34.7545C10.441 34.4512 10.1258 34.2491 9.79878 34.1361C9.47175 34.0231 8.94851 33.9696 8.24093 33.9696H7.61065V40.1891H4.50684L4.51278 40.1772ZM7.6166 31.5793H9.91176C11.3983 31.5793 12.3258 31.5198 12.7004 31.395C13.0691 31.2701 13.3604 31.062 13.5686 30.7647C13.7767 30.4674 13.8837 30.0928 13.8837 29.6468C13.8837 29.1474 13.7469 28.743 13.4675 28.4339C13.188 28.1247 12.8015 27.9284 12.3021 27.8511C12.0523 27.8155 11.2972 27.8036 10.0366 27.8036H7.6166V31.5852V31.5793Z" fill="white"/>
<path d="M19.9962 40.1772V25.2825H31.3828V27.8036H23.0941V31.1036H30.806V33.6128H23.0941V37.668H31.6741V40.1772H19.9902H19.9962Z" fill="white"/>
<path d="M34.3082 40.1772V25.2825H45.6948V27.8036H37.4061V31.1036H45.118V33.6128H37.4061V37.668H45.9862V40.1772H34.3022H34.3082Z" fill="white"/>
<path d="M2.7409 12.7365V6.77856H5.46417C6.0112 6.77856 6.42742 6.83208 6.71283 6.93911C6.99824 7.04614 7.22419 7.23641 7.39662 7.50398C7.56906 7.77155 7.6523 8.0748 7.6523 8.40183C7.6523 8.82399 7.5096 9.18075 7.23013 9.47211C6.95067 9.76346 6.51067 9.94779 5.92201 10.0251C6.13607 10.1262 6.30256 10.2213 6.40958 10.3224C6.64742 10.5364 6.87337 10.7981 7.08148 11.1132L8.15177 12.7365H7.12905L6.31445 11.4997C6.07661 11.1429 5.88039 10.8694 5.72579 10.6791C5.5712 10.4889 5.43444 10.3581 5.30957 10.2808C5.18471 10.2035 5.06579 10.15 4.94092 10.1202C4.84578 10.1024 4.69713 10.0905 4.48902 10.0905H3.54361V12.7365H2.729H2.7409ZM3.5555 9.4067H5.30363C5.67228 9.4067 5.96363 9.37103 6.17174 9.29373C6.37985 9.22237 6.5404 9.09751 6.64742 8.93697C6.75445 8.77048 6.81391 8.5921 6.81391 8.40183C6.81391 8.12236 6.70688 7.89047 6.49877 7.70614C6.29066 7.52182 5.95769 7.43263 5.49984 7.43263H3.5555V9.4067Z" fill="white"/>
<path d="M12.1594 12.2073C11.8799 12.4392 11.6123 12.5997 11.3507 12.6949C11.0891 12.79 10.8156 12.8376 10.5183 12.8376C10.0307 12.8376 9.65015 12.7186 9.38853 12.4927C9.12691 12.2608 8.99609 11.9635 8.99609 11.6067C8.99609 11.3927 9.04366 11.2024 9.14474 11.03C9.24583 10.8575 9.37069 10.7148 9.53124 10.6078C9.69178 10.5008 9.8761 10.4235 10.0723 10.37C10.221 10.3343 10.441 10.2986 10.7442 10.2629C11.3507 10.1916 11.8026 10.1083 12.088 10.0132C12.088 9.91212 12.088 9.84671 12.088 9.82293C12.088 9.52563 12.0167 9.31752 11.874 9.19265C11.6837 9.02616 11.3923 8.94292 11.0118 8.94292C10.655 8.94292 10.3934 9.00238 10.2269 9.1213C10.0545 9.24022 9.92962 9.45428 9.85232 9.76347L9.11501 9.66833C9.18042 9.36509 9.29339 9.11535 9.44799 8.92508C9.60259 8.73481 9.82259 8.5921 10.1139 8.49102C10.4053 8.38994 10.7383 8.33643 11.1248 8.33643C11.5113 8.33643 11.8145 8.37805 12.0523 8.46724C12.2902 8.55643 12.4626 8.66346 12.5756 8.79427C12.6886 8.92508 12.7659 9.09157 12.8075 9.29373C12.8313 9.4186 12.8432 9.64455 12.8432 9.96563V10.9408C12.8432 11.6186 12.861 12.0527 12.8907 12.2311C12.9205 12.4094 12.9859 12.5819 13.081 12.7484H12.2902C12.2129 12.5997 12.1653 12.4213 12.1415 12.2132L12.1594 12.2073ZM12.094 10.5721C11.8204 10.6792 11.4102 10.7743 10.8631 10.8456C10.5539 10.8873 10.3339 10.9408 10.2031 10.9943C10.0723 11.0478 9.97719 11.1251 9.90583 11.2321C9.83448 11.3392 9.7988 11.4521 9.7988 11.577C9.7988 11.7732 9.8761 11.9338 10.0248 12.0646C10.1734 12.1954 10.3994 12.2608 10.6907 12.2608C10.9821 12.2608 11.2377 12.2013 11.4637 12.0765C11.6896 11.9516 11.8561 11.7851 11.9632 11.5711C12.0405 11.4046 12.0821 11.1608 12.0821 10.8397V10.5721H12.094Z" fill="white"/>
<path d="M14.4486 12.7365V8.41969H15.1264V9.07375C15.2989 8.7705 15.4594 8.56834 15.608 8.46725C15.7567 8.37212 15.9172 8.3186 16.0897 8.3186C16.3453 8.3186 16.601 8.3959 16.8627 8.55644L16.601 9.23429C16.4167 9.12726 16.2324 9.07375 16.048 9.07375C15.8816 9.07375 15.7329 9.12132 15.6021 9.21645C15.4713 9.31159 15.3762 9.44835 15.3226 9.61483C15.2394 9.87646 15.1978 10.1619 15.1978 10.4711V12.7305H14.4426L14.4486 12.7365Z" fill="white"/>
<path d="M20.793 11.3511L21.5719 11.4462C21.447 11.8862 21.2211 12.2311 20.8881 12.4748C20.5551 12.7186 20.1329 12.8435 19.6156 12.8435C18.9616 12.8435 18.4502 12.6473 18.0637 12.2608C17.6832 11.8743 17.4929 11.3273 17.4929 10.6256C17.4929 9.92401 17.6832 9.33536 18.0697 8.93697C18.4562 8.53859 18.9556 8.33643 19.5681 8.33643C20.1805 8.33643 20.6503 8.53264 21.0249 8.92508C21.3994 9.31752 21.5897 9.8705 21.5897 10.584C21.5897 10.6256 21.5897 10.691 21.5897 10.7802H18.2718C18.3016 11.2559 18.4383 11.6186 18.6881 11.8684C18.9378 12.1181 19.247 12.2489 19.6156 12.2489C19.8892 12.2489 20.127 12.1775 20.3232 12.0348C20.5194 11.8921 20.674 11.6662 20.787 11.3629L20.793 11.3511ZM18.3135 10.1678H20.7989C20.7632 9.80509 20.6681 9.53157 20.5135 9.35319C20.2757 9.07373 19.9605 8.93103 19.58 8.93103C19.2351 8.93103 18.9437 9.044 18.7059 9.26995C18.4681 9.4959 18.3373 9.7932 18.3135 10.1737V10.1678Z" fill="white"/>
<path d="M25.8767 12.7365V6.77856H30.3184V7.48019H26.6913V9.30562H30.0865V10.0072H26.6913V12.0348H30.4611V12.7365H25.8767Z" fill="white"/>
<path d="M34.8195 12.2073C34.5401 12.4392 34.2725 12.5997 34.0109 12.6949C33.7492 12.79 33.4757 12.8376 33.1784 12.8376C32.6909 12.8376 32.3103 12.7186 32.0487 12.4927C31.7871 12.2608 31.6562 11.9635 31.6562 11.6067C31.6562 11.3927 31.7038 11.2024 31.8049 11.03C31.906 10.8575 32.0308 10.7148 32.1914 10.6078C32.3519 10.5008 32.5363 10.4235 32.7325 10.37C32.8811 10.3343 33.1011 10.2986 33.4044 10.2629C34.0109 10.1916 34.4628 10.1083 34.7482 10.0132C34.7482 9.91212 34.7482 9.84671 34.7482 9.82293C34.7482 9.52563 34.6768 9.31752 34.5341 9.19265C34.3438 9.02616 34.0525 8.94292 33.6719 8.94292C33.3152 8.94292 33.0536 9.00238 32.8871 9.1213C32.7146 9.24022 32.5898 9.45428 32.5125 9.76347L31.7752 9.66833C31.8406 9.36509 31.9535 9.11535 32.1081 8.92508C32.2627 8.73481 32.4827 8.5921 32.7741 8.49102C33.0655 8.38994 33.3984 8.33643 33.7849 8.33643C34.1714 8.33643 34.4747 8.37805 34.7125 8.46724C34.9503 8.55643 35.1228 8.66346 35.2357 8.79427C35.3487 8.92508 35.426 9.09157 35.4676 9.29373C35.4914 9.4186 35.5033 9.64455 35.5033 9.96563V10.9408C35.5033 11.6186 35.5212 12.0527 35.5509 12.2311C35.5806 12.4094 35.646 12.5819 35.7412 12.7484H34.9503C34.873 12.5997 34.8255 12.4213 34.8017 12.2132L34.8195 12.2073ZM34.7541 10.5721C34.4806 10.6792 34.0703 10.7743 33.5233 10.8456C33.2141 10.8873 32.9941 10.9408 32.8633 10.9943C32.7325 11.0478 32.6373 11.1251 32.566 11.2321C32.4946 11.3392 32.459 11.4521 32.459 11.577C32.459 11.7732 32.5363 11.9338 32.6849 12.0646C32.8336 12.1954 33.0595 12.2608 33.3509 12.2608C33.6422 12.2608 33.8979 12.2013 34.1238 12.0765C34.3498 11.9516 34.5163 11.7851 34.6233 11.5711C34.7006 11.4046 34.7422 11.1608 34.7422 10.8397V10.5721H34.7541Z" fill="white"/>
<path d="M37.1087 12.7365V8.41969H37.7866V9.07375C37.959 8.7705 38.1196 8.56834 38.2682 8.46725C38.4169 8.36617 38.5774 8.3186 38.7498 8.3186C39.0055 8.3186 39.2612 8.3959 39.5228 8.55644L39.2612 9.23429C39.0769 9.12726 38.8925 9.07375 38.7082 9.07375C38.5417 9.07375 38.3931 9.12132 38.2623 9.21645C38.1314 9.31159 38.0363 9.44835 37.9828 9.61483C37.8995 9.87646 37.8579 10.1619 37.8579 10.4711V12.7305H37.1028L37.1087 12.7365Z" fill="white"/>
<path d="M42.0501 12.0825L42.1571 12.7306C41.9431 12.7722 41.7528 12.796 41.5863 12.796C41.3128 12.796 41.0987 12.7544 40.9501 12.6711C40.8014 12.5879 40.6944 12.4749 40.629 12.3381C40.5695 12.2014 40.5398 11.916 40.5398 11.476V8.99053H39.9868V8.41971H40.5398V7.34943L41.289 6.90942V8.41971H42.0501V8.99053H41.289V11.5176C41.289 11.7257 41.3009 11.8625 41.3306 11.9219C41.3603 11.9814 41.402 12.0289 41.4614 12.0646C41.5209 12.1003 41.6101 12.1181 41.7171 12.1181C41.8004 12.1181 41.9133 12.1062 42.0501 12.0884V12.0825Z" fill="white"/>
<path d="M43.2153 12.7365V6.77856H43.9705V8.91913C44.3213 8.52075 44.7672 8.32453 45.3024 8.32453C45.6294 8.32453 45.9208 8.38993 46.1646 8.5148C46.4083 8.63967 46.5808 8.8121 46.6878 9.03805C46.7948 9.25805 46.8483 9.58508 46.8483 10.0072V12.7424H46.0932V10.0072C46.0932 9.6386 46.01 9.37697 45.8494 9.21048C45.6829 9.04399 45.457 8.96075 45.1537 8.96075C44.9278 8.96075 44.7197 9.01426 44.5235 9.12724C44.3272 9.24021 44.1845 9.39481 44.1013 9.58508C44.018 9.77535 43.9764 10.0429 43.9764 10.3818V12.7424H43.2213L43.2153 12.7365Z" fill="white"/>
<path d="M6.03516 21.0609V15.103H10.4768V15.8047H6.84976V17.6301H10.2449V18.3317H6.84976V20.3593H10.6195V21.0609H6.03516Z" fill="white"/>
<path d="M12.0581 21.0609V15.103H12.8132V21.0609H12.0581Z" fill="white"/>
<path d="M17.4573 19.6755L18.2362 19.7707C18.1113 20.2107 17.8854 20.5555 17.5524 20.7993C17.2194 21.0431 16.7973 21.168 16.28 21.168C15.6259 21.168 15.1145 20.9717 14.728 20.5853C14.3475 20.1988 14.1572 19.6517 14.1572 18.9501C14.1572 18.2485 14.3475 17.6598 14.734 17.2614C15.1205 16.8631 15.6199 16.6609 16.2324 16.6609C16.8448 16.6609 17.3146 16.8571 17.6892 17.2495C18.0638 17.642 18.254 18.195 18.254 18.9085C18.254 18.9501 18.254 19.0155 18.254 19.1047H14.9362C14.9659 19.5804 15.1026 19.9431 15.3524 20.1928C15.6021 20.4426 15.9113 20.5734 16.28 20.5734C16.5535 20.5734 16.7913 20.502 16.9875 20.3593C17.1837 20.2166 17.3383 19.9907 17.4513 19.6874L17.4573 19.6755ZM14.9778 18.4923H17.4632C17.4275 18.1296 17.3324 17.856 17.1778 17.6777C16.94 17.3982 16.6248 17.2555 16.2443 17.2555C15.8994 17.2555 15.6081 17.3685 15.3702 17.5944C15.1324 17.8204 15.0016 18.1177 14.9778 18.4982V18.4923Z" fill="white"/>
<path d="M19.6097 21.0609V16.7441H20.2816V17.3506C20.4243 17.1365 20.6086 16.97 20.8405 16.8392C21.0724 16.7084 21.334 16.6489 21.6313 16.6489C21.9584 16.6489 22.2319 16.7143 22.44 16.8451C22.6541 16.976 22.8027 17.1662 22.886 17.4041C23.2368 16.8987 23.6946 16.6489 24.2595 16.6489C24.6995 16.6489 25.0384 16.7678 25.2763 17.0057C25.5141 17.2435 25.633 17.6062 25.633 18.0998V21.0609H24.8838V18.3435C24.8838 18.0522 24.86 17.8381 24.8125 17.7133C24.7649 17.5824 24.6757 17.4814 24.5449 17.4041C24.4141 17.3268 24.2654 17.2851 24.093 17.2851C23.7779 17.2851 23.5222 17.3862 23.3141 17.5884C23.106 17.7906 23.0049 18.1116 23.0049 18.5576V21.0668H22.2497V18.2603C22.2497 17.9333 22.1903 17.6895 22.0654 17.5289C21.9405 17.3684 21.7443 17.2851 21.4649 17.2851C21.2508 17.2851 21.0546 17.3387 20.8762 17.4457C20.6978 17.5527 20.567 17.7133 20.4838 17.9214C20.4005 18.1295 20.3589 18.4327 20.3589 18.8252V21.0668H19.6038L19.6097 21.0609Z" fill="white"/>
<path d="M30.2353 19.6755L31.0142 19.7707C30.8893 20.2107 30.6634 20.5555 30.3304 20.7993C29.9974 21.0431 29.5752 21.168 29.0579 21.168C28.4098 21.168 27.8925 20.9717 27.512 20.5853C27.1314 20.1988 26.9412 19.6517 26.9412 18.9501C26.9412 18.2485 27.1314 17.6598 27.5179 17.2614C27.9044 16.8631 28.4039 16.6609 29.0163 16.6609C29.6288 16.6609 30.0985 16.8571 30.4731 17.2495C30.8477 17.642 31.038 18.195 31.038 18.9085C31.038 18.9501 31.038 19.0155 31.038 19.1047H27.7201C27.7498 19.5804 27.8866 19.9431 28.1363 20.1928C28.386 20.4426 28.6952 20.5734 29.0639 20.5734C29.3374 20.5734 29.5752 20.502 29.7715 20.3593C29.9677 20.2166 30.1223 19.9907 30.2353 19.6874V19.6755ZM27.7617 18.4923H30.2471C30.2174 18.1296 30.1223 17.856 29.9617 17.6777C29.7239 17.3982 29.4088 17.2555 29.0282 17.2555C28.6833 17.2555 28.392 17.3685 28.1541 17.5944C27.9163 17.8204 27.7855 18.1177 27.7617 18.4982V18.4923Z" fill="white"/>
<path d="M32.3937 21.061V16.7441H33.0716V17.3566C33.3986 16.8809 33.8683 16.6431 34.4867 16.6431C34.7543 16.6431 35.004 16.6906 35.224 16.7858C35.45 16.8809 35.6165 16.9998 35.7294 17.1544C35.8424 17.309 35.9197 17.4874 35.9613 17.6955C35.9911 17.8323 36.003 18.0701 36.003 18.409V21.061H35.2478V18.4328C35.2478 18.1355 35.2181 17.9096 35.1586 17.7669C35.0992 17.6182 34.9981 17.4993 34.8435 17.416C34.6948 17.3269 34.5224 17.2852 34.3202 17.2852C33.9992 17.2852 33.7197 17.3863 33.4878 17.5825C33.2559 17.7788 33.137 18.1534 33.137 18.7063V21.061H32.3818H32.3937Z" fill="white"/>
<path d="M39.2434 20.4069L39.3505 21.055C39.1364 21.0967 38.9461 21.1204 38.7797 21.1204C38.5061 21.1204 38.2921 21.0788 38.1434 20.9956C37.9948 20.9123 37.8878 20.7994 37.8223 20.6626C37.7629 20.5258 37.7332 20.2404 37.7332 19.8004V17.315H37.1802V16.7442H37.7332V15.6739L38.4824 15.2339V16.7442H39.2434V17.315H38.4824V19.842C38.4824 20.0502 38.4942 20.1869 38.524 20.2464C38.5537 20.3058 38.5953 20.3534 38.6548 20.3891C38.7142 20.4248 38.8034 20.4426 38.9105 20.4426C38.9937 20.4426 39.1067 20.4307 39.2434 20.4129V20.4069Z" fill="white"/>
<path d="M40.1057 19.7766L40.849 19.6636C40.8906 19.955 41.0095 20.175 41.1998 20.3296C41.3901 20.4842 41.6576 20.5615 42.0025 20.5615C42.3474 20.5615 42.609 20.4901 42.7755 20.3534C42.942 20.2166 43.0252 20.0561 43.0252 19.8717C43.0252 19.7053 42.9539 19.5744 42.7993 19.4793C42.6982 19.4139 42.4366 19.3307 42.0263 19.2296C41.4733 19.0928 41.0928 18.9798 40.8787 18.8788C40.6646 18.7777 40.5041 18.6409 40.3911 18.4685C40.2781 18.2961 40.2246 18.0998 40.2246 17.8917C40.2246 17.7015 40.2722 17.5231 40.3614 17.3566C40.4506 17.1901 40.5754 17.0593 40.73 16.9463C40.849 16.8631 41.0095 16.7917 41.2117 16.7323C41.4138 16.6728 41.6338 16.6431 41.8657 16.6431C42.2166 16.6431 42.5198 16.6906 42.7874 16.7917C43.049 16.8869 43.2452 17.0236 43.3701 17.1901C43.4949 17.3566 43.5841 17.5825 43.6317 17.8561L42.8944 17.9512C42.8587 17.7312 42.7636 17.5528 42.603 17.4279C42.4425 17.3031 42.2165 17.2436 41.9252 17.2436C41.5803 17.2436 41.3306 17.2971 41.1819 17.4101C41.0333 17.5231 40.9619 17.6539 40.9619 17.8025C40.9619 17.8977 40.9917 17.9809 41.0511 18.0582C41.1106 18.1355 41.2117 18.2009 41.3425 18.2544C41.4198 18.2842 41.6398 18.3436 42.0084 18.4388C42.5436 18.5755 42.9122 18.6885 43.1263 18.7777C43.3403 18.8669 43.5009 18.9917 43.6258 19.1642C43.7506 19.3366 43.8041 19.5388 43.8041 19.7885C43.8041 20.0382 43.7328 20.2642 43.5841 20.4782C43.4355 20.6923 43.2274 20.8588 42.9479 20.9777C42.6744 21.0966 42.3593 21.1561 42.0084 21.1561C41.4317 21.1561 40.9917 21.0372 40.6884 20.8053C40.3852 20.5734 40.1949 20.2285 40.1117 19.7707L40.1057 19.7766Z" fill="white"/>
</g>
<defs>
<clipPath id="clip0_17_281">
<rect width="50" height="50" fill="white"/>
</clipPath>
</defs>
</svg>
