<svg width="433" height="319" viewBox="0 0 433 319" fill="none" xmlns="http://www.w3.org/2000/svg">
<g clip-path="url(#clip0_17_1858)">
<path d="M123.35 7.35421H0.770121C0.346554 7.35421 0 7.00765 0 6.58409C0 6.16052 0.346554 5.81396 0.770121 5.81396H123.35C123.774 5.81396 124.12 6.16052 124.12 6.58409C124.12 7.00765 123.774 7.35421 123.35 7.35421Z" fill="#BC9E30"/>
<path d="M431.298 8.19356H422.38C421.957 8.19356 421.61 7.84701 421.61 7.42344C421.61 6.99987 421.957 6.65332 422.38 6.65332H431.298C431.722 6.65332 432.069 6.99987 432.069 7.42344C432.069 7.84701 431.722 8.19356 431.298 8.19356Z" fill="#BC9E30"/>
<path d="M152.838 -0.000488281C155.503 -0.000488281 157.028 1.60136 157.028 3.57287C157.028 5.96025 155.849 6.83819 153.439 7.66992C152.584 7.94716 151.567 8.08578 151.567 8.47084V8.56326H156.127C156.635 8.56326 156.812 8.73269 156.812 9.22556V10.5194C156.812 10.9968 156.635 11.1663 156.127 11.1663H148.98C148.472 11.1663 148.294 10.9968 148.294 10.5194V9.28717C148.294 7.19244 149.896 6.46853 151.375 5.85243C152.646 5.32875 153.816 4.88208 153.816 3.7115C153.816 3.1262 153.416 2.69494 152.738 2.69494C152.06 2.69494 151.706 2.98758 151.36 3.7115C151.136 4.18897 150.982 4.28138 150.505 4.12736L148.818 3.52667C148.356 3.35724 148.217 3.14161 148.402 2.69494C149.057 1.09308 150.389 -0.000488281 152.83 -0.000488281L152.838 -0.000488281Z" fill="#BC9E30"/>
<path d="M162.665 -0.000488281C165.538 -0.000488281 167.193 1.55516 167.193 4.00414V7.37727C167.193 9.85706 165.545 11.3973 162.665 11.3973C159.785 11.3973 158.137 9.85706 158.137 7.37727V4.00414C158.137 1.55516 159.785 -0.000488281 162.665 -0.000488281ZM162.665 2.69494C161.81 2.69494 161.287 3.1262 161.287 3.88092V7.50049C161.287 8.27061 161.81 8.70188 162.665 8.70188C163.52 8.70188 164.044 8.27061 164.044 7.50049V3.88092C164.044 3.1262 163.52 2.69494 162.665 2.69494Z" fill="#BC9E30"/>
<path d="M172.861 -0.000488281C175.526 -0.000488281 177.051 1.60136 177.051 3.57287C177.051 5.96025 175.872 6.83819 173.462 7.66992C172.607 7.94716 171.59 8.08578 171.59 8.47084V8.56326H176.15C176.658 8.56326 176.835 8.73269 176.835 9.22556V10.5194C176.835 10.9968 176.658 11.1663 176.15 11.1663H169.003C168.495 11.1663 168.317 10.9968 168.317 10.5194V9.28717C168.317 7.19244 169.919 6.46853 171.398 5.85243C172.669 5.32875 173.839 4.88208 173.839 3.7115C173.839 3.1262 173.439 2.69494 172.761 2.69494C172.083 2.69494 171.729 2.98758 171.382 3.7115C171.159 4.18897 171.005 4.28138 170.528 4.12736L168.841 3.52667C168.379 3.35724 168.24 3.14161 168.425 2.69494C169.072 1.09308 170.412 -0.000488281 172.853 -0.000488281L172.861 -0.000488281Z" fill="#BC9E30"/>
<path d="M182.688 -0.000488281C185.561 -0.000488281 187.216 1.55516 187.216 4.00414V7.37727C187.216 9.85706 185.568 11.3973 182.688 11.3973C179.808 11.3973 178.16 9.85706 178.16 7.37727V4.00414C178.16 1.55516 179.808 -0.000488281 182.688 -0.000488281ZM182.688 2.69494C181.833 2.69494 181.309 3.1262 181.309 3.88092V7.50049C181.309 8.27061 181.833 8.70188 182.688 8.70188C183.543 8.70188 184.066 8.27061 184.066 7.50049V3.88092C184.066 3.1262 183.543 2.69494 182.688 2.69494Z" fill="#BC9E30"/>
<path d="M258.584 -0.000488281C261.248 -0.000488281 262.773 1.60136 262.773 3.57287C262.773 5.96025 261.595 6.83819 259.184 7.66992C258.33 7.94716 257.313 8.08578 257.313 8.47084V8.56326H261.872C262.38 8.56326 262.558 8.73269 262.558 9.22556V10.5194C262.558 10.9968 262.38 11.1663 261.872 11.1663H254.725C254.217 11.1663 254.04 10.9968 254.04 10.5194V9.28717C254.04 7.19244 255.642 6.46853 257.121 5.85243C258.391 5.32875 259.562 4.88208 259.562 3.7115C259.562 3.1262 259.169 2.69494 258.484 2.69494C257.798 2.69494 257.452 2.98758 257.105 3.7115C256.882 4.18897 256.728 4.28138 256.25 4.12736L254.571 3.52667C254.109 3.35724 253.971 3.14161 254.156 2.69494C254.81 1.09308 256.142 -0.000488281 258.584 -0.000488281Z" fill="#BC9E30"/>
<path d="M268.411 -0.000488281C271.283 -0.000488281 272.939 1.55516 272.939 4.00414V7.37727C272.939 9.85706 271.291 11.3973 268.411 11.3973C265.53 11.3973 263.882 9.85706 263.882 7.37727V4.00414C263.882 1.55516 265.53 -0.000488281 268.411 -0.000488281ZM268.411 2.69494C267.556 2.69494 267.032 3.1262 267.032 3.88092V7.50049C267.032 8.27061 267.556 8.70188 268.411 8.70188C269.265 8.70188 269.789 8.27061 269.789 7.50049V3.88092C269.789 3.1262 269.265 2.69494 268.411 2.69494Z" fill="#BC9E30"/>
<path d="M278.607 -0.000488281C281.271 -0.000488281 282.796 1.60136 282.796 3.57287C282.796 5.96025 281.618 6.83819 279.207 7.66992C278.353 7.94716 277.336 8.08578 277.336 8.47084V8.56326H281.895C282.403 8.56326 282.581 8.73269 282.581 9.22556V10.5194C282.581 10.9968 282.403 11.1663 281.895 11.1663H274.748C274.24 11.1663 274.063 10.9968 274.063 10.5194V9.28717C274.063 7.19244 275.665 6.46853 277.143 5.85243C278.414 5.32875 279.585 4.88208 279.585 3.7115C279.585 3.1262 279.184 2.69494 278.507 2.69494C277.829 2.69494 277.475 2.98758 277.128 3.7115C276.905 4.18897 276.743 4.28138 276.273 4.12736L274.587 3.52667C274.125 3.35724 273.986 3.14161 274.171 2.69494C274.818 1.09308 276.158 -0.000488281 278.599 -0.000488281L278.607 -0.000488281Z" fill="#BC9E30"/>
<path d="M292.115 0.877636V2.26385C292.115 2.75673 291.938 2.91076 291.429 2.91076H287.494L287.386 3.98893H288.449C291.368 3.98893 292.608 5.60618 292.608 7.6547C292.608 9.70322 291.052 11.3975 288.303 11.3975C285.746 11.3975 284.352 10.5812 283.682 8.85609C283.505 8.39402 283.636 8.19379 284.098 8.02436L285.8 7.40826C286.231 7.25424 286.431 7.31585 286.624 7.79332C286.862 8.34781 287.263 8.65586 288.164 8.65586C288.896 8.65586 289.342 8.2862 289.342 7.51608C289.342 6.82297 288.896 6.46872 288.072 6.46872H284.768C284.198 6.46872 284.021 6.23768 284.067 5.714L284.56 1.13948C284.637 0.446368 284.876 0.215332 285.623 0.215332H291.429C291.938 0.215332 292.115 0.384759 292.115 0.877636Z" fill="#BC9E30"/>
<path d="M363.774 -0.000488281C366.439 -0.000488281 367.964 1.60136 367.964 3.57287C367.964 5.96025 366.785 6.83819 364.375 7.66992C363.52 7.94716 362.503 8.08578 362.503 8.47084V8.56326H367.063C367.571 8.56326 367.748 8.73269 367.748 9.22556V10.5194C367.748 10.9968 367.571 11.1663 367.063 11.1663H359.916C359.408 11.1663 359.23 10.9968 359.23 10.5194V9.28717C359.23 7.19244 360.832 6.46853 362.311 5.85243C363.582 5.32875 364.752 4.88208 364.752 3.7115C364.752 3.1262 364.359 2.69494 363.674 2.69494C362.989 2.69494 362.642 2.98758 362.296 3.7115C362.072 4.18897 361.918 4.28138 361.441 4.12736L359.762 3.52667C359.3 3.35724 359.161 3.14161 359.346 2.69494C360.001 1.09308 361.333 -0.000488281 363.774 -0.000488281Z" fill="#BC9E30"/>
<path d="M373.601 -0.000488281C376.474 -0.000488281 378.129 1.55516 378.129 4.00414V7.37727C378.129 9.85706 376.481 11.3973 373.601 11.3973C370.721 11.3973 369.073 9.85706 369.073 7.37727V4.00414C369.073 1.55516 370.721 -0.000488281 373.601 -0.000488281ZM373.601 2.69494C372.746 2.69494 372.223 3.1262 372.223 3.88092V7.50049C372.223 8.27061 372.746 8.70188 373.601 8.70188C374.456 8.70188 374.98 8.27061 374.98 7.50049V3.88092C374.98 3.1262 374.456 2.69494 373.601 2.69494Z" fill="#BC9E30"/>
<path d="M386.624 5.43657C387.702 5.99105 388.195 6.9152 388.195 8.02417C388.195 10.1497 386.816 11.3973 383.905 11.3973C381.333 11.3973 379.87 10.427 379.223 8.70188C379.046 8.25521 379.177 8.02417 379.654 7.87015L381.21 7.33106C381.687 7.16164 381.88 7.26945 382.065 7.74693C382.319 8.40923 382.781 8.74809 383.667 8.74809C384.491 8.74809 384.906 8.45544 384.906 7.83934C384.906 7.17704 384.544 6.9306 383.859 6.9306H382.889C382.38 6.9306 382.219 6.76117 382.219 6.2837V5.0053C382.219 4.51242 382.38 4.34299 382.889 4.34299H383.59C384.19 4.34299 384.668 4.11196 384.668 3.49586C384.668 2.87976 384.321 2.64873 383.59 2.64873C382.696 2.64873 382.38 2.95678 382.095 3.64989C381.918 4.12736 381.718 4.21978 381.241 4.06575L379.685 3.52667C379.208 3.37264 379.1 3.14161 379.254 2.69494C379.924 0.969864 381.348 -0.000488281 383.936 -0.000488281C386.524 -0.000488281 387.856 1.26251 387.856 3.18781C387.856 4.15816 387.409 4.92829 386.616 5.43657H386.624Z" fill="#BC9E30"/>
<path d="M393.832 -0.000488281C396.705 -0.000488281 398.36 1.55516 398.36 4.00414V7.37727C398.36 9.85706 396.712 11.3973 393.832 11.3973C390.952 11.3973 389.304 9.85706 389.304 7.37727V4.00414C389.304 1.55516 390.952 -0.000488281 393.832 -0.000488281ZM393.832 2.69494C392.977 2.69494 392.454 3.1262 392.454 3.88092V7.50049C392.454 8.27061 392.977 8.70188 393.832 8.70188C394.687 8.70188 395.211 8.27061 395.211 7.50049V3.88092C395.211 3.1262 394.687 2.69494 393.832 2.69494Z" fill="#BC9E30"/>
<path d="M150.821 40.9086H150.79L148.757 41.8019L148.302 39.7303L151.244 38.4673H153.585V48.4789H150.821V40.9086Z" fill="white"/>
<path d="M159.916 40.9086H159.885L157.852 41.8019L157.397 39.7303L160.339 38.4673H162.68V48.4789H159.916V40.9086Z" fill="white"/>
<path d="M171.691 41.2549C171.691 43.3342 170.22 44.4509 168.657 44.4509C166.978 44.4509 165.676 43.2495 165.676 41.4243C165.676 39.7301 166.801 38.2822 168.726 38.2822C170.651 38.2822 171.683 39.6222 171.683 41.2472L171.691 41.2549ZM167.779 41.3781C167.779 42.3331 168.087 42.9723 168.718 42.9723C169.288 42.9723 169.588 42.4255 169.588 41.3781C169.588 40.4463 169.342 39.7763 168.703 39.7763C168.064 39.7763 167.779 40.4771 167.779 41.3858V41.3781ZM168.872 48.6404L174.748 38.2899H176.219L170.343 48.6404H168.872ZM179.431 45.4212C179.431 47.5006 177.96 48.6327 176.396 48.6327C174.717 48.6327 173.416 47.4236 173.416 45.5984C173.416 43.9041 174.54 42.4486 176.466 42.4486C178.391 42.4486 179.423 43.804 179.423 45.429L179.431 45.4212ZM175.518 45.5445C175.518 46.4994 175.826 47.1463 176.458 47.1463C177.028 47.1463 177.328 46.5918 177.328 45.5445C177.328 44.6126 177.082 43.9272 176.435 43.9272C175.788 43.9272 175.511 44.6434 175.511 45.5445H175.518Z" fill="white"/>
<path d="M254.579 45.8601C255.01 46.068 256.042 46.4685 257.028 46.4685C258.013 46.4685 258.722 46.1142 258.722 45.398C258.722 44.5894 257.844 44.2043 256.897 44.1966H255.826V42.2328H256.835C257.551 42.2328 258.46 42.0095 258.46 41.3163C258.46 40.8081 257.975 40.4692 257.074 40.4692C256.173 40.4692 255.287 40.8235 254.879 41.0468L254.332 39.0522C254.995 38.6671 256.304 38.3052 257.736 38.3052C260.016 38.3052 261.364 39.4141 261.364 40.8543C261.364 41.917 260.755 42.7411 259.484 43.1646V43.1954C260.709 43.4034 261.695 44.2967 261.695 45.5828C261.695 47.4234 259.954 48.671 257.274 48.671C255.857 48.671 254.679 48.3476 254.047 47.9625L254.586 45.8832L254.579 45.8601Z" fill="white"/>
<path d="M271.167 43.4498C271.167 46.3994 269.889 48.6405 267.101 48.6405C264.152 48.6405 263.05 46.1068 263.05 43.4807C263.05 40.8545 264.205 38.29 267.124 38.29C270.043 38.29 271.167 40.9007 271.167 43.4498ZM265.907 43.4653C265.907 45.637 266.362 46.5611 267.14 46.5611C267.871 46.5611 268.318 45.6216 268.318 43.4653C268.318 41.3089 267.879 40.3771 267.132 40.3771C266.385 40.3771 265.907 41.3012 265.915 43.4653H265.907Z" fill="white"/>
<path d="M278.075 41.2549C278.075 43.3342 276.604 44.4509 275.041 44.4509C273.362 44.4509 272.061 43.2495 272.061 41.4243C272.061 39.7301 273.185 38.2822 275.11 38.2822C277.036 38.2822 278.068 39.6222 278.068 41.2472L278.075 41.2549ZM274.163 41.3781C274.163 42.3331 274.471 42.9723 275.103 42.9723C275.672 42.9723 275.973 42.4255 275.973 41.3781C275.973 40.4463 275.726 39.7763 275.087 39.7763C274.448 39.7763 274.163 40.4771 274.163 41.3858V41.3781ZM275.257 48.6404L281.133 38.2899H282.604L276.727 48.6404H275.257ZM285.815 45.4212C285.815 47.5006 284.344 48.6327 282.781 48.6327C281.102 48.6327 279.8 47.4236 279.8 45.5984C279.8 43.9041 280.925 42.4486 282.85 42.4486C284.775 42.4486 285.807 43.804 285.807 45.429L285.815 45.4212ZM281.903 45.5445C281.903 46.4994 282.211 47.1463 282.842 47.1463C283.412 47.1463 283.712 46.5918 283.712 45.5445C283.712 44.6126 283.466 43.9272 282.819 43.9272C282.172 43.9272 281.895 44.6434 281.895 45.5445H281.903Z" fill="white"/>
<path d="M366.863 38.4595V40.1845L362.712 48.471H359.662L363.821 40.7698V40.739H359.223V38.4595H366.855H366.863Z" fill="white"/>
<path d="M376.22 43.4498C376.22 46.3994 374.933 48.6405 372.153 48.6405C369.204 48.6405 368.103 46.1068 368.103 43.4807C368.103 40.8545 369.258 38.29 372.176 38.29C375.095 38.29 376.22 40.9007 376.22 43.4498ZM370.96 43.4653C370.952 45.637 371.414 46.5611 372.192 46.5611C372.923 46.5611 373.37 45.6216 373.37 43.4653C373.37 41.3089 372.931 40.3771 372.184 40.3771C371.437 40.3771 370.96 41.3012 370.967 43.4653H370.96Z" fill="white"/>
<path d="M383.128 41.2549C383.128 43.3342 381.657 44.4509 380.094 44.4509C378.407 44.4509 377.113 43.2495 377.113 41.4243C377.113 39.7301 378.238 38.2822 380.163 38.2822C382.088 38.2822 383.12 39.6222 383.12 41.2472L383.128 41.2549ZM379.216 41.3781C379.216 42.3331 379.524 42.9723 380.148 42.9723C380.717 42.9723 381.018 42.4255 381.018 41.3781C381.018 40.4463 380.771 39.7763 380.132 39.7763C379.493 39.7763 379.208 40.4771 379.208 41.3858L379.216 41.3781ZM380.309 48.6404L386.185 38.2899H387.656L381.78 48.6404H380.309ZM390.868 45.4212C390.868 47.5006 389.397 48.6327 387.833 48.6327C386.147 48.6327 384.853 47.4236 384.853 45.5984C384.853 43.9041 385.977 42.4486 387.903 42.4486C389.828 42.4486 390.86 43.804 390.86 45.429L390.868 45.4212ZM386.955 45.5445C386.955 46.4994 387.263 47.1463 387.895 47.1463C388.465 47.1463 388.765 46.5918 388.765 45.5445C388.765 44.6126 388.519 43.9272 387.88 43.9272C387.24 43.9272 386.955 44.6434 386.955 45.5445Z" fill="white"/>
<path fill-rule="evenodd" clip-rule="evenodd" d="M76.2957 36.1566C76.9888 36.1566 77.6588 36.249 78.298 36.4262L76.1724 41.1855L74.0854 36.4878C74.8016 36.2644 75.5024 36.1643 76.2957 36.1643V36.1566ZM74.9557 43.904L73.5001 47.1385L70.05 39.3834C70.6353 38.5594 71.3746 37.8509 72.2294 37.3118L75.025 43.6114H77.5356L80.3465 37.3118C81.0319 37.7431 81.648 38.2745 82.1717 38.8982C82.241 38.9907 82.318 39.0831 82.3873 39.1755L78.8371 47.1308L77.3892 43.8963H74.9633L74.9557 43.904ZM72.7223 50.6195C70.2887 49.3334 68.6176 46.7689 68.6176 43.827C68.6176 43.1185 68.7023 42.4485 68.8871 41.8016L72.8378 50.6734C72.7916 50.6503 72.7685 50.6426 72.7223 50.6195ZM76.157 51.4281C75.4793 51.4281 74.817 51.3434 74.1701 51.1663L76.2649 46.43L78.3596 51.1124C77.6434 51.3203 76.8964 51.4281 76.157 51.4281ZM79.792 50.5194L83.6349 41.8863C83.7812 42.487 83.8582 43.1031 83.8582 43.7269C83.8582 46.5687 82.2949 49.1717 79.792 50.5117V50.5194ZM76.288 53.3303C81.5248 53.3303 85.7913 49.0715 85.7913 43.827C85.7913 38.5825 81.5325 34.3237 76.288 34.3237C71.0434 34.3237 66.7847 38.5825 66.7847 43.827C66.7847 49.0715 71.0434 53.3303 76.288 53.3303Z" fill="white"/>
<path fill-rule="evenodd" clip-rule="evenodd" d="M4.4667 47.8391H2.72623L0 40.4614H1.76358L3.1652 44.62C3.32692 45.1129 3.47325 45.6058 3.60417 46.1064C3.72739 45.5981 3.86601 45.1514 4.02773 44.6739L5.48326 40.4614H7.22374L4.4667 47.8391ZM10.5353 45.5519C10.5353 46.1603 10.104 46.7148 9.44939 46.7148C8.8795 46.7148 8.35581 46.2373 8.35581 45.575C8.35581 44.9512 8.77168 44.4044 9.44168 44.4044C10.0501 44.4044 10.5353 44.905 10.5353 45.5596V45.5519ZM12.0293 45.5519C12.0293 44.1503 10.9434 43.126 9.45709 43.126C7.97075 43.126 6.86948 44.1965 6.86948 45.5442C6.86948 46.9766 7.97845 47.9932 9.38007 47.9932C11.0743 47.9932 12.0293 46.7841 12.0293 45.5519ZM13.1614 47.8391V40.0532H14.64V47.8391H13.1614ZM18.868 47.8391L17.4355 45.7059V47.8391H15.9569V40.0532H17.4355V45.1514L18.868 43.28H20.6777L18.9219 45.3748L20.801 47.8314H18.868V47.8391ZM23.0189 47.9778C21.9716 47.9778 21.4325 47.6389 21.1475 46.8996L22.3951 46.4144C22.5106 46.7148 22.7494 46.9304 23.0574 46.9304C23.3655 46.9304 23.5349 46.8149 23.5349 46.6224C23.5349 45.9601 21.3015 46.245 21.3015 44.6585C21.3015 43.8268 21.9793 43.1414 23.1421 43.1414C23.997 43.1414 24.5977 43.4495 24.898 44.2119L23.7197 44.6662C23.5734 44.3043 23.3193 44.1888 23.0805 44.1888C22.888 44.1888 22.6801 44.3043 22.6801 44.5122C22.6801 45.2361 24.9134 44.905 24.9134 46.4991C24.9134 47.4233 24.0971 47.9701 23.0189 47.9701V47.9778ZM32.0447 47.8391H30.6508L29.873 45.5981C29.7883 45.3748 29.7267 45.1437 29.6882 44.9127C29.642 45.1514 29.5804 45.3825 29.5033 45.6058L28.7255 47.8314H27.27L25.3062 43.2723H26.8464L27.709 45.4672C27.8091 45.7136 27.8861 45.9986 27.9708 46.2681C28.0401 45.9986 28.1171 45.7059 28.1864 45.4903L28.9566 43.2723H30.4737L31.1899 45.344C31.2977 45.652 31.3901 45.9446 31.4517 46.245C31.5519 45.8984 31.6597 45.5981 31.7598 45.344L32.5684 43.2723H34.0779L32.0524 47.8314L32.0447 47.8391ZM38.0286 45.6366C38.0286 46.2604 37.6204 46.8303 36.935 46.8303C36.2496 46.8303 35.8029 46.2604 35.8029 45.5827C35.8029 44.905 36.2727 44.4198 36.8888 44.4198C37.5896 44.4198 38.0363 44.982 38.0363 45.6366H38.0286ZM39.4302 47.8391V43.2877H37.9747V43.8191C37.7282 43.4341 37.1814 43.1414 36.5499 43.1414C35.1406 43.1414 34.2858 44.1888 34.2858 45.6212C34.2858 47.0536 35.0944 47.9932 36.4113 47.9932C37.1198 47.9932 37.5973 47.7467 37.9747 47.3694V47.8391H39.4302ZM44.2049 45.5057C44.2049 46.1218 43.8199 46.6609 43.1653 46.6609C42.5107 46.6609 42.064 46.1911 42.064 45.5211C42.064 44.9204 42.4876 44.4121 43.1114 44.4121C43.8584 44.4121 44.2049 45.0282 44.2049 45.5134V45.5057ZM45.622 47.4079V43.2877H44.1664V43.8037C43.8892 43.357 43.3655 43.1645 42.734 43.1645C41.5018 43.1645 40.5546 44.1811 40.5546 45.5519C40.5546 46.7533 41.24 47.8083 42.6955 47.8083C43.2654 47.8083 43.766 47.6389 44.1664 47.1922V47.8391C44.1664 48.5785 43.8353 48.9789 43.1499 48.9789C42.7032 48.9789 42.2796 48.694 42.2796 48.3012H40.8164C40.8164 49.3024 41.6327 50.0802 43.0575 50.0802C43.8892 50.0802 44.5207 49.88 45.029 49.3948C45.4833 48.9404 45.6297 48.4244 45.6297 47.4156L45.622 47.4079ZM50.0117 45.0436H48.1865C48.2404 44.5353 48.5946 44.1657 49.126 44.1657C49.6805 44.1657 50.0117 44.6123 50.0117 45.0436ZM51.4672 45.498C51.4672 43.9885 50.5199 43.1183 49.1337 43.1183C47.7475 43.1183 46.754 44.1811 46.754 45.5904C46.754 47.1999 47.8938 47.9855 49.126 47.9855C50.1811 47.9855 50.8357 47.6235 51.3671 46.9304L50.4198 46.3066C50.1195 46.7071 49.7575 46.8996 49.2877 46.8996C48.6485 46.8996 48.2096 46.4683 48.1788 45.9061H51.4595C51.4672 45.729 51.4672 45.575 51.4672 45.4903V45.498ZM55.6489 47.8314V45.3132C55.6489 44.8973 55.518 44.4198 54.9558 44.4198C54.6632 44.4198 54.0548 44.5892 54.0548 45.4364V47.8314H52.5762V43.2723H54.0548V43.873C54.2704 43.5727 54.694 43.1722 55.5257 43.1722C56.1033 43.1722 56.4807 43.3801 56.7194 43.6189C57.0121 43.9115 57.1276 44.2812 57.1276 44.9435V47.8314H55.6489Z" fill="white"/>
<path fill-rule="evenodd" clip-rule="evenodd" d="M44.6054 86.2144H34.9943V89.3487H38.2057V96.0488H41.3401V89.3487H44.6054V86.2144ZM53.9932 96.0257L50.9666 86.2144H47.1545L44.1279 96.0257H47.2623L49.0644 89.0484L50.8665 96.0257H54.0009H53.9932ZM63.5889 86.2144H53.9778V89.3487H57.1892V96.0488H60.3236V89.3487H63.5889V86.2144ZM72.8689 96.0257L69.8423 86.2144H66.0302L63.0036 96.0257H66.138L67.9401 89.0484L69.7422 96.0257H72.8765H72.8689ZM11.6365 96.7342C12.3219 93.8386 12.8225 91.0045 12.8225 91.0045C12.8225 91.0045 13.0767 90.0727 12.5684 89.4335C12.0601 88.7943 10.489 89.0099 10.489 89.0099C10.489 89.0099 8.04776 89.0407 5.56797 89.3411C3.35773 89.6106 1.09357 90.0496 0.261841 90.219C0.0924145 90.812 0 91.4281 0 92.0442C0 96.4185 4.36659 100.123 10.4274 101.447C10.7432 100.292 11.2207 98.5055 11.6365 96.7342Z" fill="white"/>
<path fill-rule="evenodd" clip-rule="evenodd" d="M16.1417 94.909C16.1109 91.3973 16.211 88.1165 16.211 88.1165C16.211 88.1165 16.0955 87.6237 16.4113 87.3849C16.7347 87.1385 17.4817 87.1462 17.4817 87.1462C17.4817 87.1462 20.3851 87.2309 23.6427 87.6468C26.0224 87.9548 28.5869 88.44 29.7498 88.671C27.6165 84.8512 21.9638 82.125 15.3254 82.125C8.68696 82.125 2.99576 84.8743 0.87793 88.7172C1.89449 88.5093 4.65922 87.9702 7.20832 87.6468C10.4659 87.2309 13.3693 87.1462 13.3693 87.1462C13.3693 87.1462 14.1163 87.1462 14.4398 87.3849C14.7555 87.6237 14.64 88.1165 14.64 88.1165C14.64 88.1165 14.7401 91.3896 14.7093 94.909C14.6862 97.6044 14.6015 100.423 14.5553 101.956C14.8094 101.963 15.0636 101.971 15.3254 101.971C15.6489 101.971 15.9723 101.963 16.2958 101.948C16.2418 100.415 16.1648 97.6044 16.1417 94.9167V94.909Z" fill="white"/>
<path fill-rule="evenodd" clip-rule="evenodd" d="M25.2907 89.3413C22.8032 89.0409 20.3697 89.0101 20.3697 89.0101C20.3697 89.0101 18.7986 88.7945 18.2903 89.4337C17.7821 90.0729 18.0362 91.0047 18.0362 91.0047C18.0362 91.0047 18.5445 93.8311 19.2222 96.7344C19.6303 98.4826 20.1078 100.246 20.4236 101.401C26.3843 100.046 30.6585 96.3648 30.6585 92.0444C30.6585 91.4052 30.5584 90.7814 30.3812 90.173C29.4186 89.9804 27.3316 89.5877 25.2907 89.3413Z" fill="white"/>
<path d="M39.2835 124.074C38.729 127 38.1746 129.934 37.6124 132.861C37.4044 133.931 37.1734 134.994 36.9809 136.072C36.8885 136.588 36.7113 136.85 36.1029 136.842C34.2855 136.827 34.2855 136.858 33.808 135.086C33.2689 133.069 32.7375 131.051 32.1984 129.033C32.1214 129.026 32.0367 129.018 31.9597 129.003C31.2589 131.598 30.5504 134.193 29.8419 136.796H27.3159C26.4533 132.545 25.5985 128.309 24.7437 124.074C25.4368 124.074 26.1299 124.074 26.823 124.074C26.8384 124.359 26.823 124.644 26.8692 124.921C27.2928 127.147 27.724 129.372 28.163 131.598C28.3324 132.445 28.5172 133.284 28.6867 134.124C28.9562 133.893 29.0409 133.685 29.1025 133.462C29.6801 131.305 30.2962 129.149 30.8199 126.977C30.9893 126.269 31.3359 126.13 31.9597 126.168C32.5758 126.207 33.1842 126.03 33.3613 126.977C33.6154 128.325 34.039 129.642 34.3933 130.974C34.6782 132.029 34.9786 133.084 35.2712 134.132C35.7025 133.015 35.9335 131.921 36.1414 130.828C36.565 128.579 36.9655 126.322 37.3813 124.074C38.0128 124.074 38.652 124.074 39.2835 124.074Z" fill="white"/>
<path d="M23.7045 124.074C23.6891 127.385 23.6736 130.704 23.6582 134.016C23.6582 134.909 23.6582 135.803 23.6582 136.758H21.8485V127.362C21.7792 127.339 21.7021 127.324 21.6328 127.301C21.5019 127.555 21.3556 127.809 21.2478 128.071C20.4776 129.896 19.6844 131.721 18.9605 133.569C18.7141 134.193 18.3213 134.255 17.7591 134.247C17.2046 134.247 16.8196 134.201 16.5731 133.562C15.8492 131.683 15.0252 129.85 14.2397 127.994C14.1396 127.763 14.024 127.547 13.9239 127.324C13.8469 127.324 13.7699 127.339 13.7006 127.347V136.781H11.8292C11.8292 136.45 11.8292 136.142 11.8292 135.833C11.8292 132.229 11.8292 128.625 11.8292 125.021C11.8292 124.705 11.7907 124.389 11.7676 124.081C12.6917 124.081 13.6159 124.081 14.54 124.081C14.5477 124.189 14.5323 124.312 14.5708 124.413C15.5566 126.769 16.55 129.126 17.5435 131.482C17.5897 131.59 17.6898 131.683 17.7822 131.806C17.8977 131.683 17.9748 131.636 18.0056 131.559C19.0452 129.072 20.0772 126.577 21.1168 124.089C21.9794 124.089 22.8496 124.089 23.7122 124.089L23.7045 124.074Z" fill="white"/>
<path d="M6.57697 124.074C6.7849 124.143 6.99283 124.259 7.20846 124.282C9.3494 124.52 10.5585 126.307 9.68825 128.302C9.14917 129.542 8.83342 130.35 9.79607 131.706C11.1746 133.646 9.71906 136.411 7.33939 136.619C5.12914 136.819 2.88038 136.665 0.516113 136.665V124.081C2.53383 124.081 4.55155 124.081 6.56926 124.081L6.57697 124.074ZM2.37981 135.009C3.92005 135.009 5.32937 135.071 6.72329 134.986C7.72445 134.925 8.34054 134.139 8.33284 133.184C8.33284 132.168 7.69364 131.382 6.67708 131.328C5.41408 131.259 4.15108 131.282 2.88809 131.321C2.71096 131.321 2.41061 131.636 2.40291 131.821C2.3567 132.845 2.37981 133.877 2.37981 135.025V135.009ZM2.37981 129.495C3.6351 129.495 4.77488 129.495 5.92236 129.495C7.26237 129.495 7.37019 129.418 7.86307 128.163C8.35595 126.908 7.83226 126.022 6.49225 125.953C5.31397 125.891 4.13568 125.914 2.9574 125.961C2.75717 125.968 2.42601 126.292 2.41061 126.492C2.3567 127.431 2.38751 128.386 2.38751 129.495H2.37981Z" fill="white"/>
<path d="M37.8975 152.106C37.6279 152.037 37.3584 151.921 37.0811 151.898C35.2097 151.736 33.9852 150.604 33.8081 148.733C33.6926 147.501 33.6541 146.261 33.6387 145.029C33.6079 143.127 33.6387 141.224 33.6387 139.137C34.1624 139.137 34.6861 139.045 35.1481 139.176C35.3561 139.237 35.5486 139.738 35.5563 140.038C35.5948 142.634 35.5794 145.229 35.6102 147.824C35.6256 149.357 36.1724 150.011 37.6664 150.173C38.3903 150.25 39.1682 150.158 39.8767 149.981C40.693 149.773 41.055 149.064 41.0781 148.263C41.1397 145.93 41.1628 143.596 41.2013 141.263C41.2013 141.001 41.2013 140.747 41.2013 140.485C41.2013 138.999 41.4169 138.852 43.0496 139.284C43.0496 141.093 43.065 142.934 43.0496 144.775C43.0342 146.099 43.0265 147.424 42.8878 148.741C42.6953 150.628 41.4862 151.721 39.5994 151.898C39.3222 151.921 39.0526 152.037 38.7831 152.106H37.9206H37.8975Z" fill="white"/>
<path d="M-0.00011129 144.667C0.084602 144.105 0.161614 143.535 0.26173 142.98C0.847022 139.738 2.91095 138.321 6.26867 138.876C6.97719 138.991 7.66259 139.215 8.3711 139.322C9.37996 139.476 8.9872 140.231 8.9641 140.739C8.94099 141.448 8.40961 141.078 8.05536 141.032C7.0619 140.901 6.06844 140.693 5.07499 140.662C3.45773 140.608 2.44117 141.34 2.24864 142.95C2.05611 144.59 2.06381 146.277 2.21784 147.917C2.36416 149.442 3.2267 150.119 4.76694 150.22C5.56016 150.273 6.37649 150.181 7.16201 150.058C7.35455 150.027 7.60869 149.588 7.61639 149.334C7.66259 147.955 7.63949 146.577 7.63949 145.137H9.45697C9.45697 145.899 9.45697 146.692 9.45697 147.486C9.45697 148.641 9.43387 149.788 9.46468 150.943C9.48008 151.406 9.31065 151.667 8.86398 151.698C7.43156 151.791 5.99913 151.914 4.55901 151.937C1.47852 151.983 0.461961 149.804 0.207821 147.578C0.161614 147.185 0.0614984 146.8 -0.0078125 146.415C-0.0078125 145.838 -0.0078125 145.26 -0.0078125 144.682L-0.00011129 144.667Z" fill="white"/>
<path d="M53.8161 143.281C53.7468 143.496 53.6467 143.712 53.6159 143.927C53.3232 145.907 52.1295 146.969 50.1195 147.031C49.5727 147.046 49.0259 147.046 48.4792 147.054C46.369 147.085 46.577 146.746 46.5616 149.018C46.5616 149.873 46.5616 150.735 46.5616 151.644H44.7749C44.7595 151.39 44.721 151.144 44.721 150.897C44.721 147.262 44.7364 143.635 44.7056 140C44.7056 139.314 44.9058 139.083 45.5835 139.107C47.1931 139.153 48.8103 139.107 50.4276 139.16C52.2759 139.214 53.3078 140.177 53.6236 142.033C53.6544 142.218 53.7622 142.395 53.8315 142.58V143.273L53.8161 143.281ZM46.5616 143.103C46.5616 143.566 46.5924 144.028 46.5616 144.482C46.5076 145.167 46.8234 145.414 47.478 145.368C48.3944 145.306 49.3186 145.306 50.2273 145.221C50.9744 145.152 51.5519 144.736 51.6983 143.974C52.0294 142.241 51.7599 140.778 49.4341 140.824C49.2339 140.824 49.0336 140.824 48.8334 140.824C47.324 140.824 46.5693 141.584 46.5693 143.103H46.5616Z" fill="white"/>
<path d="M13.0378 147.039V151.675H11.1895C11.1741 151.39 11.1433 151.113 11.1433 150.836C11.1433 147.239 11.1587 143.635 11.1279 140.039C11.1279 139.307 11.359 139.091 12.0675 139.107C13.7617 139.153 15.4637 139.091 17.1657 139.161C20.0767 139.276 21.5554 142.064 20.0536 144.59C19.7302 145.129 19.3528 145.66 18.8908 146.084C18.2978 146.631 18.3517 147.07 18.7598 147.701C19.5685 148.949 20.2924 150.258 21.0548 151.56C19.399 151.999 19.0525 151.86 18.2438 150.489C17.674 149.526 17.1195 148.548 16.5188 147.601C16.3725 147.362 16.0798 147.085 15.8411 147.07C14.9554 147.008 14.0698 147.047 13.0455 147.047L13.0378 147.039ZM13.0378 145.237C14.2007 145.237 15.2327 145.237 16.2646 145.237C17.5815 145.237 18.9293 143.62 18.6828 142.31C18.5519 141.594 18.1745 141.047 17.4121 140.986C16.126 140.893 14.8322 140.855 13.5384 140.847C13.3767 140.847 13.0686 141.132 13.0609 141.294C13.0224 142.58 13.0378 143.866 13.0378 145.229V145.237Z" fill="white"/>
<path d="M21.5789 145.129C21.7098 144.243 21.7868 143.126 22.0487 142.041C22.503 140.161 23.7814 139.091 25.6913 138.868C26.5154 138.768 27.3702 138.76 28.1865 138.891C30.2273 139.207 31.4749 140.5 31.9062 142.772C32.2682 144.651 32.2836 146.546 31.7907 148.417C31.1746 150.735 29.8885 151.798 27.5011 151.914C26.7002 151.952 25.8762 151.96 25.0906 151.821C23.2963 151.49 22.1488 150.119 21.8484 148.04C21.7252 147.162 21.6713 146.269 21.5635 145.136L21.5789 145.129ZM23.4426 145.198C23.535 146.168 23.5735 146.923 23.6813 147.655C23.9509 149.388 24.875 150.165 26.6848 150.242C28.4792 150.312 29.6651 149.542 29.9655 147.863C30.1734 146.661 30.2042 145.406 30.158 144.181C30.0425 141.394 28.8796 140.408 26.1457 140.631C24.9674 140.731 24.1203 141.371 23.8584 142.518C23.6428 143.465 23.5504 144.443 23.4426 145.19V145.198Z" fill="white"/>
<path fill-rule="evenodd" clip-rule="evenodd" d="M8.62536 190.512C7.6627 189.911 6.94649 187.824 6.94649 185.344C6.94649 185.252 6.94649 185.167 6.94649 185.075C4.26647 184.651 2.32577 183.496 2.27186 182.133V182.148C1.60955 182.965 1.23219 183.904 1.23219 184.913C1.23219 187.87 4.4821 190.296 8.59455 190.512H8.60995H8.62536ZM0 185.129C0 181.817 4.12015 179.137 9.20295 179.137C14.2857 179.137 18.4059 181.825 18.4059 185.129C18.4059 188.433 14.2857 191.12 9.20295 191.12C4.12015 191.12 0 188.44 0 185.129ZM9.20295 180C10.181 180 11.0204 181.486 11.3285 183.565C13.2384 183.265 14.5707 182.58 14.5707 181.779C14.5707 180.708 12.1679 179.838 9.20295 179.838C6.23798 179.838 3.8352 180.708 3.8352 181.779C3.8352 182.58 5.16751 183.265 7.07741 183.558C7.38546 181.486 8.22489 180 9.20295 180ZM9.79594 190.512C13.9161 190.296 17.166 187.87 17.166 184.913C17.166 183.904 16.7886 182.965 16.134 182.148V182.133C16.0801 183.496 14.1394 184.651 11.4517 185.075C11.4517 185.16 11.4517 185.252 11.4517 185.344C11.4517 187.824 10.7432 189.911 9.77284 190.512H9.78824H9.79594ZM9.20295 183.719C9.62651 183.719 10.0578 183.704 10.4813 183.666C10.2811 182.333 9.78054 181.394 9.20295 181.394C8.62536 181.394 8.13248 182.333 7.92455 183.666C8.34811 183.704 8.77168 183.719 9.20295 183.719ZM9.20295 188.648C9.94226 188.648 10.543 187.108 10.5738 185.183C9.65732 185.267 8.73317 185.267 7.81673 185.183C7.84753 187.108 8.44823 188.648 9.18754 188.648H9.20295ZM46.9543 185.129C46.9543 182.603 49.0028 180.547 51.5365 180.547C54.0702 180.547 56.1187 182.595 56.1187 185.129C56.1187 187.662 54.0702 189.711 51.5365 189.711C49.0028 189.711 46.9543 187.662 46.9543 185.129ZM51.5365 188.032C52.9458 188.032 54.0933 186.731 54.0933 185.129C54.0933 183.527 52.9458 182.225 51.5365 182.225C50.1272 182.225 48.9797 183.527 48.9797 185.129C48.9797 186.731 50.1272 188.032 51.5365 188.032ZM61.317 182.456V189.503H59.384V182.456H56.6809V180.862H63.9971V182.456H61.3016H61.317ZM66.3459 187.555L65.6066 189.495H63.3502L66.9158 180.855H69.3186L72.8843 189.495H70.6278L69.8885 187.555H66.3536H66.3459ZM68.1172 186.099H69.334L68.1249 182.942H68.1095L66.9004 186.107H68.1172V186.099ZM25.7374 182.456V189.503H23.8044V182.456H21.1013V180.862H28.4175V182.456H25.722H25.7374ZM28.9257 185.129C28.9257 182.603 30.9743 180.547 33.508 180.547C36.0417 180.547 38.0902 182.595 38.0902 185.129C38.0902 187.662 36.0417 189.711 33.508 189.711C30.9743 189.711 28.9257 187.662 28.9257 185.129ZM33.508 188.032C34.9173 188.032 36.0648 186.731 36.0648 185.129C36.0648 183.527 34.9173 182.225 33.508 182.225C32.0986 182.225 30.9512 183.527 30.9512 185.129C30.9512 186.731 32.0986 188.032 33.508 188.032ZM42.5261 189.503H43.5041V186.222L46.8696 180.862H44.6131L42.5184 184.49L40.4237 180.862H38.1672L41.5326 186.222V189.503H42.5107H42.5261Z" fill="white"/>
<path fill-rule="evenodd" clip-rule="evenodd" d="M0 239.615V229.21H2.79554V233.184H7.24684V229.21H10.0424V239.615H7.24684V235.402H2.79554V239.615H0ZM10.8279 229.21L15.2484 235.472V239.615H18.0439V235.472L22.4336 229.21H19.2068L16.65 232.922L14.0547 229.21H10.8279ZM23.2192 229.21V239.615H30.3967C31.4903 239.615 33.223 239.184 33.1922 236.966V229.21H30.3967V236.234C30.3967 237.027 29.9654 237.328 29.1645 237.328H26.007V229.21H23.2114H23.2192ZM34.9096 239.615V229.21H42.0871C43.1807 229.21 44.9135 229.642 44.8827 231.86V239.615H42.0871V232.591C42.0871 231.798 41.6558 231.498 40.8549 231.498H37.6974V239.615H34.9019H34.9096ZM72.8689 239.615V229.21H70.0733V239.615H72.8689ZM53.8546 229.21H46.6077V239.615H53.8546C55.2177 239.615 56.6501 238.852 56.6501 236.966V231.598C56.6501 230.535 56.4191 229.21 53.8546 229.21ZM53.8546 236.334C53.8546 236.696 53.7545 237.197 53.0536 237.227H49.3956V231.59H53.123C53.585 231.59 53.8546 231.921 53.8546 232.353V236.326V236.334ZM60.9628 229.21C59.1376 229.21 58.3059 230.073 58.3059 231.598V239.622H61.1014V237.104H65.4911V239.622H68.2866V229.218H60.9705L60.9628 229.21ZM65.4834 234.971H61.0937V232.553C61.0937 231.86 61.3555 231.621 61.9562 231.59H65.4834V234.971Z" fill="white"/>
<path d="M10.5353 300.147V299.646C12.037 299.5 12.0986 299.4 12.0755 297.49L12.0909 290.228C10.5892 293.485 8.16328 298.576 7.52408 300.139H7.04661C6.42281 298.522 4.35118 293.624 2.95726 290.405C2.64922 296.635 2.62611 298.044 2.62611 298.375C2.64152 299.369 3.10359 299.515 4.35118 299.638V300.139H0V299.638C1.06277 299.531 1.50174 299.315 1.64806 298.36C1.75588 297.575 1.77898 296.935 2.25645 290.443C2.33347 289.519 2.14864 289.219 0.531384 289.072V288.572H3.72739L7.78592 297.598L12.1371 288.572H15.3485V289.072C13.7698 289.249 13.5695 289.411 13.608 290.659L13.6851 297.49C13.7621 299.392 13.816 299.484 15.4255 299.646V300.147H10.543H10.5353Z" fill="white"/>
<path d="M26.5922 297.313C26.4844 297.775 25.9838 299.608 25.8067 300.139H16.8887V299.638C18.5983 299.515 18.7216 299.353 18.7216 297.898V290.867C18.7216 289.28 18.5213 289.195 17.1428 289.072V288.572H22.757C24.4821 288.572 25.1983 288.556 25.4139 288.533C25.4293 288.98 25.5063 290.312 25.5756 291.259L25.0289 291.352C24.8671 290.743 24.6823 290.374 24.4821 289.996C24.1894 289.411 23.7659 289.288 22.6646 289.288H20.9241C20.3542 289.288 20.3157 289.342 20.3157 289.858V293.793H22.3488C23.7273 293.793 23.8198 293.524 24.0354 292.315H24.6053V295.98H24.0354C23.7967 294.702 23.6503 294.517 22.3257 294.517H20.308V298.06C20.308 299.307 20.7085 299.415 21.6326 299.43H23.3423C24.459 299.43 24.6438 299.269 25.052 298.807C25.3985 298.429 25.7836 297.705 26.0454 297.166L26.5922 297.305V297.313Z" fill="white"/>
<path d="M32.9766 288.572C35.5642 288.572 37.1969 289.072 38.3367 290.12C39.2377 290.975 39.9 292.222 39.9 293.932C39.9 296.011 39.0221 297.705 37.605 298.737C36.2111 299.754 34.4321 300.147 32.1757 300.147H27.8784V299.646C29.4572 299.5 29.5265 299.377 29.5265 297.921V290.821C29.5265 289.288 29.3031 289.219 27.8784 289.08V288.579H32.9766V288.572ZM31.1206 297.775C31.1206 299.107 31.7059 299.484 33.0844 299.484C36.3883 299.484 38.0748 297.297 38.0748 294.178C38.0748 292.238 37.3971 290.759 35.9493 289.904C35.1022 289.388 34.0394 289.196 32.8149 289.196C31.9909 289.196 31.5519 289.303 31.3671 289.442C31.2053 289.55 31.1283 289.742 31.1283 290.435V297.767L31.1206 297.775Z" fill="white"/>
<path d="M41.6714 300.147V299.646C43.1731 299.484 43.3194 299.415 43.3194 297.906V290.836C43.3194 289.303 43.1731 289.234 41.6714 289.072V288.572H46.5925V289.072C45.0676 289.234 44.9213 289.303 44.9213 290.836V297.906C44.9213 299.438 45.0676 299.492 46.5925 299.646V300.147H41.6714Z" fill="white"/>
<path d="M54.9252 300.147V299.646C56.1188 299.5 56.2652 299.323 56.011 298.653C55.7723 297.96 55.4026 297.066 55.0176 295.95H51.0515C50.7588 296.75 50.4816 297.444 50.2274 298.175C49.827 299.33 50.0811 299.477 51.5828 299.654V300.154H47.3472V299.654C48.5023 299.507 48.795 299.384 49.4419 297.782L53.2386 288.441L53.8239 288.333C54.9791 291.375 56.2498 294.74 57.405 297.821C57.9902 299.369 58.1597 299.515 59.4612 299.654V300.154H54.9252V300.147ZM53.0923 290.659C52.507 292.191 51.8832 293.809 51.3287 295.218H54.7634L53.0923 290.659Z" fill="white"/>
<path d="M72.8687 289.072C71.6904 289.196 71.3054 289.373 71.2515 290.197C71.2361 290.767 71.1975 291.514 71.1975 293.17V300.309H70.4967L62.6415 290.998V295.449C62.6415 297.051 62.6954 297.852 62.7339 298.368C62.7724 299.277 63.2268 299.546 64.5514 299.646V300.147H60.0924V299.646C61.2322 299.554 61.6712 299.292 61.7405 298.422C61.7944 297.852 61.8329 297.051 61.8329 295.434V290.898C61.8329 290.397 61.7944 290.112 61.4632 289.719C61.1167 289.273 60.7316 289.165 59.8306 289.08V288.58H62.5799L70.3581 297.536V293.177C70.3581 291.521 70.3196 290.759 70.2657 290.22C70.2118 289.419 69.7882 289.173 68.3173 289.08V288.58H72.8533V289.08L72.8687 289.072Z" fill="white"/>
<path d="M430.528 68.4092H0V68.7942H430.528V68.4092Z" fill="#9D9D9D"/>
<path d="M421.61 69.3718H123.612C123.188 69.3718 122.842 69.0252 122.842 68.6017C122.842 68.1781 123.188 67.8315 123.612 67.8315H421.61C422.034 67.8315 422.38 68.1781 422.38 68.6017C422.38 69.0252 422.034 69.3718 421.61 69.3718Z" fill="#9D9D9D"/>
<path d="M430.528 115.017H0V115.402H430.528V115.017Z" fill="#9D9D9D"/>
<path d="M421.61 115.98H123.612C123.188 115.98 122.842 115.633 122.842 115.21C122.842 114.786 123.188 114.439 123.612 114.439H421.61C422.034 114.439 422.38 114.786 422.38 115.21C422.38 115.633 422.034 115.98 421.61 115.98Z" fill="#9D9D9D"/>
<path d="M430.528 161.632H0V162.017H430.528V161.632Z" fill="#9D9D9D"/>
<path d="M421.61 162.595H123.612C123.188 162.595 122.842 162.248 122.842 161.825C122.842 161.401 123.188 161.055 123.612 161.055H421.61C422.034 161.055 422.38 161.401 422.38 161.825C422.38 162.248 422.034 162.595 421.61 162.595Z" fill="#9D9D9D"/>
<path d="M430.528 208.24H0V208.625H430.528V208.24Z" fill="#9D9D9D"/>
<path d="M421.61 209.203H123.612C123.188 209.203 122.842 208.856 122.842 208.433C122.842 208.009 123.188 207.663 123.612 207.663H421.61C422.034 207.663 422.38 208.009 422.38 208.433C422.38 208.856 422.034 209.203 421.61 209.203Z" fill="#9D9D9D"/>
<path d="M430.528 254.856H0V255.241H430.528V254.856Z" fill="#9D9D9D"/>
<path d="M421.61 255.819H123.612C123.188 255.819 122.842 255.472 122.842 255.048C122.842 254.625 123.188 254.278 123.612 254.278H421.61C422.034 254.278 422.38 254.625 422.38 255.048C422.38 255.472 422.034 255.819 421.61 255.819Z" fill="#9D9D9D"/>
<path d="M430.528 317.767H0V318.152H430.528V317.767Z" fill="#9D9D9D"/>
<path d="M421.61 318.73H123.612C123.188 318.73 122.842 318.383 122.842 317.96C122.842 317.536 123.188 317.189 123.612 317.189H421.61C422.034 317.189 422.38 317.536 422.38 317.96C422.38 318.383 422.034 318.73 421.61 318.73Z" fill="#9D9D9D"/>
<path d="M149.265 94.6861C149.58 94.7169 149.811 94.7169 150.281 94.7015C150.99 94.6861 151.729 94.5321 152.253 94.2395C152.93 93.8698 153.354 93.3076 153.523 92.7377L153.485 92.7146C153.069 93.0766 152.461 93.2845 151.567 93.2845C149.865 93.2845 148.287 92.1832 148.287 90.1424C148.287 88.1016 149.996 86.5151 152.33 86.5151C155.218 86.5151 156.442 88.6253 156.442 90.8586C156.442 92.8994 155.803 94.4089 154.625 95.4408C153.554 96.3573 152.091 96.8271 150.266 96.8656C149.912 96.8733 149.503 96.8502 149.249 96.8271V94.6938L149.265 94.6861ZM151.136 89.9653C151.136 90.6661 151.498 91.3438 152.368 91.3438C152.923 91.3438 153.254 91.1128 153.423 90.8663C153.5 90.72 153.531 90.5506 153.531 90.2348C153.547 89.4493 153.231 88.5175 152.291 88.5175C151.629 88.5175 151.136 89.095 151.144 89.9653H151.136Z" fill="white"/>
<path d="M163.404 89.4722C163.404 91.5515 161.933 92.6682 160.37 92.6682C158.683 92.6682 157.39 91.4668 157.39 89.6416C157.39 87.9473 158.514 86.4995 160.439 86.4995C162.365 86.4995 163.397 87.8395 163.397 89.4645L163.404 89.4722ZM159.492 89.5954C159.492 90.5503 159.8 91.1896 160.432 91.1896C161.002 91.1896 161.302 90.6428 161.302 89.5954C161.302 88.6635 161.055 87.9935 160.416 87.9935C159.777 87.9935 159.492 88.6944 159.492 89.6031V89.5954ZM160.586 96.8576L166.462 86.5072H167.933L162.057 96.8576H160.586ZM171.144 93.6385C171.144 95.7179 169.673 96.8499 168.11 96.8499C166.431 96.8499 165.129 95.6408 165.129 93.8157C165.129 92.1214 166.254 90.6659 168.179 90.6659C170.104 90.6659 171.136 92.0213 171.136 93.6462L171.144 93.6385ZM167.232 93.7618C167.232 94.7167 167.54 95.3636 168.171 95.3636C168.741 95.3636 169.042 94.8091 169.042 93.7618C169.042 92.8299 168.795 92.1445 168.148 92.1445C167.501 92.1445 167.224 92.8607 167.224 93.7618H167.232Z" fill="white"/>
<path d="M254.579 94.0774C255.01 94.2853 256.042 94.6857 257.028 94.6857C258.013 94.6857 258.722 94.3315 258.722 93.6153C258.722 92.8066 257.844 92.4216 256.897 92.4139H255.826V90.4501H256.835C257.551 90.4501 258.46 90.2267 258.46 89.5336C258.46 89.0254 257.975 88.6865 257.074 88.6865C256.173 88.6865 255.287 89.0408 254.879 89.2641L254.332 87.2695C254.995 86.8844 256.304 86.5225 257.736 86.5225C260.016 86.5225 261.364 87.6314 261.364 89.0716C261.364 90.1343 260.755 90.9584 259.484 91.3819V91.4127C260.709 91.6207 261.695 92.514 261.695 93.8001C261.695 95.6407 259.954 96.8883 257.274 96.8883C255.857 96.8883 254.679 96.5648 254.047 96.1798L254.586 94.1005L254.579 94.0774Z" fill="white"/>
<path d="M271.167 91.6671C271.167 94.6167 269.889 96.8577 267.101 96.8577C264.152 96.8577 263.05 94.3241 263.05 91.6979C263.05 89.0718 264.205 86.5073 267.124 86.5073C270.043 86.5073 271.167 89.118 271.167 91.6671ZM265.907 91.6825C265.907 93.8543 266.362 94.7784 267.14 94.7784C267.871 94.7784 268.318 93.8389 268.318 91.6825C268.318 89.5262 267.879 88.5944 267.132 88.5944C266.385 88.5944 265.907 89.5185 265.915 91.6825H265.907Z" fill="white"/>
<path d="M278.075 89.4722C278.075 91.5515 276.604 92.6682 275.041 92.6682C273.362 92.6682 272.061 91.4668 272.061 89.6416C272.061 87.9473 273.185 86.4995 275.11 86.4995C277.036 86.4995 278.068 87.8395 278.068 89.4645L278.075 89.4722ZM274.163 89.5954C274.163 90.5503 274.471 91.1896 275.103 91.1896C275.672 91.1896 275.973 90.6428 275.973 89.5954C275.973 88.6635 275.726 87.9935 275.087 87.9935C274.448 87.9935 274.163 88.6944 274.163 89.6031V89.5954ZM275.257 96.8576L281.133 86.5072H282.604L276.727 96.8576H275.257ZM285.815 93.6385C285.815 95.7179 284.344 96.8499 282.781 96.8499C281.102 96.8499 279.8 95.6408 279.8 93.8157C279.8 92.1214 280.925 90.6659 282.85 90.6659C284.775 90.6659 285.807 92.0213 285.807 93.6462L285.815 93.6385ZM281.903 93.7618C281.903 94.7167 282.211 95.3636 282.842 95.3636C283.412 95.3636 283.712 94.8091 283.712 93.7618C283.712 92.8299 283.466 92.1445 282.819 92.1445C282.172 92.1445 281.895 92.8607 281.895 93.7618H281.903Z" fill="white"/>
<path d="M366.316 88.6636C366.046 88.6405 365.784 88.6482 365.422 88.6636C363.297 88.756 362.434 89.5955 362.142 90.5581H362.195C362.727 90.1269 363.381 89.9266 364.259 89.9266C365.946 89.9266 367.486 91.0664 367.486 93.215C367.486 95.3637 365.792 96.8654 363.528 96.8654C360.532 96.8654 359.23 94.7322 359.23 92.4526C359.23 90.5966 359.939 89.0256 361.094 88.009C362.195 87.0541 363.62 86.5766 365.361 86.5381C365.823 86.515 366.092 86.5381 366.316 86.5535V88.6636ZM364.591 93.3537C364.591 92.6452 364.236 91.875 363.312 91.875C362.75 91.875 362.311 92.2062 362.142 92.6143C362.08 92.7376 362.057 92.9147 362.057 93.2073C362.118 94.0083 362.527 94.8477 363.474 94.8477C364.182 94.8477 364.598 94.1931 364.598 93.3537H364.591Z" fill="white"/>
<path d="M376.481 91.6671C376.481 94.6167 375.195 96.8577 372.415 96.8577C369.466 96.8577 368.364 94.3241 368.364 91.6979C368.364 89.0718 369.519 86.5073 372.438 86.5073C375.357 86.5073 376.481 89.118 376.481 91.6671ZM371.221 91.6825C371.214 93.8543 371.676 94.7784 372.454 94.7784C373.185 94.7784 373.632 93.8389 373.632 91.6825C373.632 89.5262 373.193 88.5944 372.446 88.5944C371.699 88.5944 371.221 89.5185 371.229 91.6825H371.221Z" fill="white"/>
<path d="M383.397 89.4722C383.397 91.5515 381.926 92.6682 380.363 92.6682C378.676 92.6682 377.382 91.4668 377.382 89.6416C377.382 87.9473 378.507 86.4995 380.432 86.4995C382.357 86.4995 383.389 87.8395 383.389 89.4645L383.397 89.4722ZM379.485 89.5954C379.485 90.5503 379.793 91.1896 380.417 91.1896C380.986 91.1896 381.287 90.6428 381.287 89.5954C381.287 88.6635 381.04 87.9935 380.401 87.9935C379.762 87.9935 379.477 88.6944 379.477 89.6031L379.485 89.5954ZM380.578 96.8576L386.454 86.5072H387.925L382.049 96.8576H380.578ZM391.137 93.6385C391.137 95.7179 389.666 96.8499 388.102 96.8499C386.416 96.8499 385.122 95.6408 385.122 93.8157C385.122 92.1214 386.246 90.6659 388.172 90.6659C390.097 90.6659 391.129 92.0213 391.129 93.6462L391.137 93.6385ZM387.224 93.7618C387.224 94.7167 387.533 95.3636 388.164 95.3636C388.734 95.3636 389.034 94.8091 389.034 93.7618C389.034 92.8299 388.788 92.1445 388.149 92.1445C387.509 92.1445 387.224 92.8607 387.224 93.7618Z" fill="white"/>
<path d="M150.821 142.865H150.79L148.757 143.758L148.302 141.686L151.244 140.423H153.585V150.435H150.821V142.865Z" fill="white"/>
<path d="M164.529 140.423V142.148L160.378 150.435H157.328L161.487 142.734V142.703H156.889V140.423H164.521H164.529Z" fill="white"/>
<path d="M171.691 143.219C171.691 145.298 170.22 146.415 168.657 146.415C166.978 146.415 165.676 145.213 165.676 143.388C165.676 141.694 166.801 140.246 168.726 140.246C170.651 140.246 171.683 141.586 171.683 143.211L171.691 143.219ZM167.779 143.342C167.779 144.297 168.087 144.936 168.718 144.936C169.288 144.936 169.588 144.389 169.588 143.342C169.588 142.41 169.342 141.74 168.703 141.74C168.064 141.74 167.779 142.441 167.779 143.35V143.342ZM168.872 150.604L174.748 140.254H176.219L170.343 150.604H168.872ZM179.431 147.385C179.431 149.464 177.96 150.597 176.396 150.597C174.717 150.597 173.416 149.387 173.416 147.562C173.416 145.868 174.54 144.412 176.466 144.412C178.391 144.412 179.423 145.768 179.423 147.393L179.431 147.385ZM175.518 147.508C175.518 148.463 175.826 149.11 176.458 149.11C177.028 149.11 177.328 148.556 177.328 147.508C177.328 146.576 177.082 145.891 176.435 145.891C175.788 145.891 175.511 146.607 175.511 147.508H175.518Z" fill="white"/>
<path d="M254.04 150.435V140.054H257.421L259.123 143.242C259.7 144.274 260.332 145.668 260.802 146.885H260.848C260.686 145.514 260.632 144.066 260.632 142.51V140.054H263.251V150.435H260.224L258.407 146.985C257.814 145.884 257.121 144.49 256.605 143.234H256.551C256.62 144.636 256.658 146.199 256.658 147.886V150.435H254.04Z" fill="white"/>
<path d="M268.041 148.024L267.44 150.435H264.475L267.579 140.054H271.398L274.587 150.435H271.491L270.805 148.024H268.041ZM270.413 145.968L269.92 144.097C269.758 143.512 269.558 142.664 269.388 142.048H269.358C269.196 142.657 269.042 143.519 268.888 144.105L268.426 145.961H270.42L270.413 145.968Z" fill="white"/>
<path d="M366.416 142.695H362.381L362.234 143.781C362.458 143.758 362.642 143.758 362.827 143.758C363.89 143.758 364.999 144.004 365.761 144.559C366.524 145.106 366.917 145.93 366.917 147.054C366.917 148.887 365.245 150.612 362.227 150.612C360.925 150.612 359.839 150.35 359.223 150.065L359.701 147.986C360.17 148.194 361.148 148.463 362.073 148.463C362.943 148.463 363.975 148.155 363.975 147.216C363.975 146.276 363.151 145.783 361.095 145.783C360.54 145.783 360.163 145.814 359.724 145.868L360.394 140.423H366.408V142.695H366.416Z" fill="white"/>
<path d="M376.274 145.414C376.274 148.363 374.988 150.604 372.208 150.604C369.258 150.604 368.157 148.071 368.157 145.445C368.157 142.818 369.312 140.254 372.231 140.254C375.149 140.254 376.274 142.865 376.274 145.414ZM371.014 145.429C371.014 147.601 371.468 148.525 372.246 148.525C372.978 148.525 373.424 147.585 373.424 145.429C373.424 143.273 372.985 142.341 372.238 142.341C371.491 142.341 371.014 143.265 371.022 145.429H371.014Z" fill="white"/>
<path d="M383.182 143.219C383.182 145.298 381.711 146.415 380.147 146.415C378.461 146.415 377.167 145.213 377.167 143.388C377.167 141.694 378.291 140.246 380.217 140.246C382.142 140.246 383.174 141.586 383.174 143.211L383.182 143.219ZM379.269 143.342C379.269 144.297 379.577 144.936 380.209 144.936C380.779 144.936 381.079 144.389 381.079 143.342C381.079 142.41 380.833 141.74 380.194 141.74C379.554 141.74 379.269 142.441 379.269 143.35V143.342ZM380.363 150.604L386.239 140.254H387.71L381.834 150.604H380.363ZM390.921 147.385C390.921 149.464 389.45 150.597 387.887 150.597C386.201 150.597 384.907 149.387 384.907 147.562C384.907 145.868 386.031 144.412 387.956 144.412C389.882 144.412 390.914 145.768 390.914 147.393L390.921 147.385ZM387.009 147.508C387.009 148.463 387.317 149.11 387.949 149.11C388.519 149.11 388.819 148.556 388.819 147.508C388.819 146.576 388.572 145.891 387.933 145.891C387.294 145.891 387.009 146.607 387.009 147.508Z" fill="white"/>
<path d="M155.48 182.033H151.444L151.298 183.119C151.521 183.096 151.706 183.096 151.891 183.096C152.954 183.096 154.063 183.342 154.825 183.897C155.595 184.444 155.98 185.268 155.98 186.392C155.98 188.225 154.309 189.95 151.29 189.95C149.989 189.95 148.903 189.688 148.287 189.403L148.764 187.324C149.234 187.532 150.212 187.801 151.136 187.801C152.006 187.801 153.038 187.493 153.038 186.554C153.038 185.614 152.214 185.121 150.158 185.121C149.604 185.121 149.226 185.152 148.787 185.206L149.457 179.761H155.472V182.033H155.48Z" fill="white"/>
<path d="M163.15 182.557C163.15 184.636 161.679 185.753 160.116 185.753C158.437 185.753 157.135 184.551 157.135 182.726C157.135 181.032 158.26 179.584 160.185 179.584C162.11 179.584 163.142 180.924 163.142 182.549L163.15 182.557ZM159.238 182.68C159.238 183.635 159.546 184.274 160.177 184.274C160.747 184.274 161.047 183.727 161.047 182.68C161.047 181.748 160.801 181.078 160.162 181.078C159.523 181.078 159.238 181.779 159.238 182.688V182.68ZM160.331 189.942L166.207 179.592H167.678L161.802 189.942H160.331ZM170.89 186.723C170.89 188.802 169.419 189.934 167.855 189.934C166.176 189.934 164.875 188.725 164.875 186.9C164.875 185.206 165.999 183.75 167.925 183.75C169.85 183.75 170.882 185.106 170.882 186.731L170.89 186.723ZM166.977 186.846C166.977 187.801 167.285 188.448 167.917 188.448C168.487 188.448 168.787 187.894 168.787 186.846C168.787 185.914 168.541 185.229 167.894 185.229C167.247 185.229 166.97 185.945 166.97 186.846H166.977Z" fill="white"/>
<path d="M254.04 189.773V179.392H257.421L259.123 182.58C259.7 183.612 260.332 185.006 260.802 186.223H260.848C260.686 184.852 260.632 183.404 260.632 181.848V179.392H263.251V189.773H260.224L258.407 186.323C257.814 185.221 257.121 183.828 256.605 182.572H256.551C256.62 183.974 256.658 185.537 256.658 187.224V189.773H254.04Z" fill="white"/>
<path d="M268.041 187.362L267.44 189.773H264.475L267.579 179.392H271.398L274.587 189.773H271.491L270.805 187.362H268.041ZM270.413 185.306L269.92 183.435C269.758 182.849 269.558 182.002 269.388 181.386H269.358C269.196 181.995 269.042 182.857 268.888 183.442L268.426 185.298H270.42L270.413 185.306Z" fill="white"/>
<path d="M366.416 182.033H362.381L362.234 183.119C362.458 183.096 362.642 183.096 362.827 183.096C363.89 183.096 364.999 183.342 365.761 183.897C366.524 184.444 366.917 185.268 366.917 186.392C366.917 188.225 365.245 189.95 362.227 189.95C360.925 189.95 359.839 189.688 359.223 189.403L359.701 187.324C360.17 187.532 361.148 187.801 362.073 187.801C362.943 187.801 363.975 187.493 363.975 186.554C363.975 185.614 363.151 185.121 361.095 185.121C360.54 185.121 360.163 185.152 359.724 185.206L360.394 179.761H366.408V182.033H366.416Z" fill="white"/>
<path d="M376.274 184.752C376.274 187.701 374.988 189.942 372.208 189.942C369.258 189.942 368.157 187.409 368.157 184.782C368.157 182.156 369.312 179.592 372.231 179.592C375.149 179.592 376.274 182.203 376.274 184.752ZM371.014 184.767C371.014 186.939 371.468 187.863 372.246 187.863C372.978 187.863 373.424 186.923 373.424 184.767C373.424 182.611 372.985 181.679 372.238 181.679C371.491 181.679 371.014 182.603 371.022 184.767H371.014Z" fill="white"/>
<path d="M383.182 182.557C383.182 184.636 381.711 185.753 380.147 185.753C378.461 185.753 377.167 184.551 377.167 182.726C377.167 181.032 378.291 179.584 380.217 179.584C382.142 179.584 383.174 180.924 383.174 182.549L383.182 182.557ZM379.269 182.68C379.269 183.635 379.577 184.274 380.209 184.274C380.779 184.274 381.079 183.727 381.079 182.68C381.079 181.748 380.833 181.078 380.194 181.078C379.554 181.078 379.269 181.779 379.269 182.688V182.68ZM380.363 189.942L386.239 179.592H387.71L381.834 189.942H380.363ZM390.921 186.723C390.921 188.802 389.45 189.934 387.887 189.934C386.201 189.934 384.907 188.725 384.907 186.9C384.907 185.206 386.031 183.75 387.956 183.75C389.882 183.75 390.914 185.106 390.914 186.731L390.921 186.723ZM387.009 186.846C387.009 187.801 387.317 188.448 387.949 188.448C388.519 188.448 388.819 187.894 388.819 186.846C388.819 185.914 388.572 185.229 387.933 185.229C387.294 185.229 387.009 185.945 387.009 186.846Z" fill="white"/>
<path d="M152.777 239.053V236.804H148.294V235.01L151.891 229.034H155.472V234.748H156.612V236.804H155.472V239.053H152.777ZM152.777 234.748V233.023C152.777 232.384 152.815 231.721 152.854 231.028H152.792C152.461 231.706 152.168 232.345 151.791 233.046L150.913 234.717L150.897 234.748H152.777Z" fill="white"/>
<path d="M163.389 231.837C163.389 233.916 161.918 235.033 160.354 235.033C158.676 235.033 157.374 233.832 157.374 232.006C157.374 230.312 158.498 228.864 160.424 228.864C162.349 228.864 163.381 230.204 163.381 231.829L163.389 231.837ZM159.476 231.96C159.476 232.915 159.784 233.554 160.416 233.554C160.986 233.554 161.286 233.008 161.286 231.96C161.286 231.028 161.04 230.358 160.401 230.358C159.761 230.358 159.476 231.059 159.476 231.968V231.96ZM160.57 239.222L166.446 228.872H167.917L162.041 239.222H160.57ZM171.128 236.003C171.128 238.083 169.657 239.215 168.094 239.215C166.415 239.215 165.114 238.006 165.114 236.18C165.114 234.486 166.238 233.031 168.163 233.031C170.089 233.031 171.121 234.386 171.121 236.011L171.128 236.003ZM167.216 236.126C167.216 237.081 167.524 237.728 168.156 237.728C168.726 237.728 169.026 237.174 169.026 236.126C169.026 235.195 168.78 234.509 168.133 234.509C167.486 234.509 167.208 235.225 167.208 236.126H167.216Z" fill="white"/>
<path d="M254.04 239.053V228.671H257.421L259.123 231.86C259.7 232.892 260.332 234.286 260.802 235.502H260.848C260.686 234.132 260.632 232.684 260.632 231.128V228.671H263.251V239.053H260.224L258.407 235.602C257.814 234.501 257.121 233.107 256.605 231.852H256.551C256.62 233.254 256.658 234.817 256.658 236.504V239.053H254.04Z" fill="white"/>
<path d="M268.041 236.642L267.44 239.053H264.475L267.579 228.671H271.398L274.587 239.053H271.491L270.805 236.642H268.041ZM270.413 234.586L269.92 232.715C269.758 232.129 269.558 231.282 269.388 230.666H269.358C269.196 231.274 269.042 232.137 268.888 232.722L268.426 234.578H270.42L270.413 234.586Z" fill="white"/>
<path d="M359.77 236.435C360.201 236.643 361.233 237.043 362.219 237.043C363.204 237.043 363.913 236.689 363.913 235.973C363.913 235.164 363.035 234.779 362.088 234.771H361.017V232.807H362.026C362.742 232.807 363.651 232.584 363.651 231.891C363.651 231.383 363.166 231.044 362.265 231.044C361.364 231.044 360.478 231.398 360.07 231.622L359.523 229.627C360.185 229.242 361.495 228.88 362.927 228.88C365.207 228.88 366.554 229.989 366.554 231.429C366.554 232.492 365.946 233.316 364.675 233.739V233.77C365.9 233.978 366.885 234.871 366.885 236.158C366.885 237.998 365.145 239.246 362.465 239.246C361.048 239.246 359.87 238.922 359.23 238.537L359.77 236.458V236.435Z" fill="white"/>
<path d="M375.288 231.021C375.018 230.997 374.756 231.005 374.394 231.021C372.269 231.113 371.406 231.952 371.114 232.915H371.167C371.699 232.484 372.353 232.284 373.224 232.284C374.91 232.284 376.451 233.423 376.451 235.572C376.451 237.721 374.756 239.222 372.492 239.222C369.496 239.222 368.195 237.089 368.195 234.81C368.195 232.954 368.903 231.383 370.059 230.366C371.16 229.411 372.585 228.934 374.325 228.895C374.787 228.872 375.057 228.895 375.28 228.91V231.021H375.288ZM373.563 235.711C373.563 235.002 373.208 234.232 372.284 234.232C371.722 234.232 371.283 234.563 371.114 234.971C371.052 235.094 371.029 235.272 371.029 235.564C371.09 236.365 371.499 237.205 372.438 237.205C373.147 237.205 373.563 236.55 373.563 235.711Z" fill="white"/>
<path d="M383.266 231.837C383.266 233.916 381.795 235.033 380.232 235.033C378.545 235.033 377.251 233.832 377.251 232.006C377.251 230.312 378.376 228.864 380.301 228.864C382.226 228.864 383.258 230.204 383.258 231.829L383.266 231.837ZM379.354 231.96C379.354 232.915 379.662 233.554 380.293 233.554C380.863 233.554 381.164 233.008 381.164 231.96C381.164 231.028 380.917 230.358 380.278 230.358C379.639 230.358 379.354 231.059 379.354 231.968V231.96ZM380.447 239.222L386.324 228.872H387.794L381.918 239.222H380.447ZM391.006 236.003C391.006 238.083 389.535 239.215 387.972 239.215C386.285 239.215 384.991 238.006 384.991 236.18C384.991 234.486 386.116 233.031 388.041 233.031C389.966 233.031 390.998 234.386 390.998 236.011L391.006 236.003ZM387.094 236.126C387.094 237.081 387.402 237.728 388.033 237.728C388.603 237.728 388.903 237.174 388.903 236.126C388.903 235.195 388.657 234.509 388.018 234.509C387.379 234.509 387.094 235.225 387.094 236.126Z" fill="white"/>
<path d="M149.265 286.662C149.581 286.693 149.812 286.693 150.289 286.677C150.998 286.662 151.737 286.508 152.261 286.215C152.938 285.845 153.362 285.283 153.531 284.713L153.493 284.69C153.077 285.052 152.468 285.26 151.575 285.26C149.873 285.26 148.294 284.159 148.294 282.118C148.294 280.077 150.004 278.491 152.338 278.491C155.226 278.491 156.45 280.601 156.45 282.834C156.45 284.875 155.811 286.384 154.633 287.416C153.562 288.333 152.099 288.803 150.274 288.841C149.919 288.849 149.511 288.826 149.257 288.803V286.669L149.265 286.662ZM151.136 281.941C151.136 282.642 151.498 283.319 152.368 283.319C152.923 283.319 153.254 283.088 153.423 282.842C153.5 282.696 153.531 282.526 153.531 282.21C153.547 281.425 153.231 280.493 152.291 280.493C151.629 280.493 151.136 281.071 151.144 281.941H151.136Z" fill="white"/>
<path d="M163.404 281.448C163.404 283.527 161.933 284.644 160.37 284.644C158.691 284.644 157.39 283.442 157.39 281.617C157.39 279.923 158.514 278.475 160.439 278.475C162.365 278.475 163.397 279.815 163.397 281.44L163.404 281.448ZM159.492 281.571C159.492 282.526 159.8 283.165 160.432 283.165C161.002 283.165 161.302 282.618 161.302 281.571C161.302 280.639 161.055 279.969 160.416 279.969C159.777 279.969 159.492 280.67 159.492 281.579V281.571ZM160.586 288.833L166.462 278.483H167.933L162.057 288.833H160.586ZM171.144 285.614C171.144 287.693 169.673 288.826 168.11 288.826C166.431 288.826 165.129 287.616 165.129 285.791C165.129 284.097 166.254 282.641 168.179 282.641C170.104 282.641 171.136 283.997 171.136 285.622L171.144 285.614ZM167.232 285.737C167.232 286.692 167.54 287.339 168.171 287.339C168.741 287.339 169.042 286.785 169.042 285.737C169.042 284.805 168.795 284.12 168.148 284.12C167.501 284.12 167.224 284.836 167.224 285.737H167.232Z" fill="white"/>
<path d="M261.225 280.924H257.19L257.043 282.01C257.267 281.987 257.452 281.987 257.636 281.987C258.699 281.987 259.808 282.233 260.571 282.788C261.333 283.335 261.726 284.159 261.726 285.283C261.726 287.116 260.055 288.841 257.036 288.841C255.734 288.841 254.648 288.579 254.032 288.294L254.51 286.215C254.979 286.423 255.958 286.692 256.882 286.692C257.752 286.692 258.784 286.384 258.784 285.445C258.784 284.505 257.96 284.012 255.904 284.012C255.349 284.012 254.972 284.043 254.533 284.097L255.203 278.652H261.217V280.924H261.225Z" fill="white"/>
<path d="M271.083 283.643C271.083 286.592 269.797 288.833 267.017 288.833C264.067 288.833 262.966 286.3 262.966 283.674C262.966 281.047 264.121 278.483 267.04 278.483C269.959 278.483 271.083 281.094 271.083 283.643ZM265.823 283.658C265.823 285.83 266.277 286.754 267.055 286.754C267.787 286.754 268.233 285.814 268.233 283.658C268.233 281.502 267.794 280.57 267.047 280.57C266.3 280.57 265.823 281.494 265.831 283.658H265.823Z" fill="white"/>
<path d="M277.991 281.448C277.991 283.527 276.52 284.644 274.956 284.644C273.27 284.644 271.976 283.442 271.976 281.617C271.976 279.923 273.1 278.475 275.026 278.475C276.951 278.475 277.983 279.815 277.983 281.44L277.991 281.448ZM274.079 281.571C274.079 282.526 274.387 283.165 275.018 283.165C275.588 283.165 275.888 282.618 275.888 281.571C275.888 280.639 275.642 279.969 275.003 279.969C274.363 279.969 274.079 280.67 274.079 281.579V281.571ZM275.172 288.833L281.048 278.483H282.519L276.643 288.833H275.172ZM285.73 285.614C285.73 287.693 284.259 288.826 282.696 288.826C281.01 288.826 279.716 287.616 279.716 285.791C279.716 284.097 280.84 282.641 282.765 282.641C284.691 282.641 285.723 283.997 285.723 285.622L285.73 285.614ZM281.818 285.737C281.818 286.692 282.126 287.339 282.758 287.339C283.328 287.339 283.628 286.785 283.628 285.737C283.628 284.805 283.382 284.12 282.742 284.12C282.103 284.12 281.818 284.836 281.818 285.737Z" fill="white"/>
<path d="M361.757 281.101H361.726L359.693 281.994L359.238 279.923L362.18 278.66H364.521V288.671H361.757V281.101Z" fill="white"/>
<path d="M375.719 283.643C375.719 286.592 374.433 288.833 371.652 288.833C368.703 288.833 367.602 286.3 367.602 283.674C367.602 281.047 368.757 278.483 371.676 278.483C374.594 278.483 375.719 281.094 375.719 283.643ZM370.459 283.658C370.459 285.83 370.913 286.754 371.691 286.754C372.423 286.754 372.869 285.814 372.869 283.658C372.869 281.502 372.43 280.57 371.683 280.57C370.936 280.57 370.459 281.494 370.466 283.658H370.459Z" fill="white"/>
<path d="M384.814 283.643C384.814 286.592 383.528 288.833 380.748 288.833C377.798 288.833 376.697 286.3 376.697 283.674C376.697 281.047 377.852 278.483 380.771 278.483C383.689 278.483 384.814 281.094 384.814 283.643ZM379.554 283.658C379.554 285.83 380.008 286.754 380.786 286.754C381.518 286.754 381.964 285.814 381.964 283.658C381.964 281.502 381.525 280.57 380.778 280.57C380.031 280.57 379.554 281.494 379.562 283.658H379.554Z" fill="white"/>
<path d="M391.729 281.448C391.729 283.527 390.259 284.644 388.695 284.644C387.016 284.644 385.715 283.442 385.715 281.617C385.715 279.923 386.839 278.475 388.765 278.475C390.69 278.475 391.722 279.815 391.722 281.44L391.729 281.448ZM387.817 281.571C387.817 282.526 388.125 283.165 388.757 283.165C389.327 283.165 389.627 282.618 389.627 281.571C389.627 280.639 389.381 279.969 388.734 279.969C388.087 279.969 387.81 280.67 387.81 281.579L387.817 281.571ZM388.911 288.833L394.787 278.483H396.258L390.382 288.833H388.911ZM399.469 285.614C399.469 287.693 397.998 288.826 396.435 288.826C394.756 288.826 393.455 287.616 393.455 285.791C393.455 284.097 394.579 282.641 396.504 282.641C398.43 282.641 399.462 283.997 399.462 285.622L399.469 285.614ZM395.557 285.737C395.557 286.692 395.865 287.339 396.497 287.339C397.066 287.339 397.367 286.785 397.367 285.737C397.367 284.805 397.12 284.12 396.473 284.12C395.827 284.12 395.549 284.836 395.549 285.737H395.557Z" fill="white"/>
</g>
<defs>
<clipPath id="clip0_17_1858">
<rect width="432.069" height="318.73" fill="white" transform="translate(0 -0.000488281)"/>
</clipPath>
</defs>
</svg>
