<svg width="38" height="38" viewBox="0 0 38 38" fill="none" xmlns="http://www.w3.org/2000/svg">
<path d="M19 38C29.4934 38 38 29.4934 38 19C38 8.50659 29.4934 0 19 0C8.50659 0 0 8.50659 0 19C0 29.4934 8.50659 38 19 38Z" fill="#202326"/>
<path d="M27.8852 10.328L9.16323 17.6415C9.16323 17.6415 7.8374 18.4861 9.37708 18.9994C10.9167 19.5126 13.2797 20.2183 13.2797 20.2183C13.2797 20.2183 13.7395 20.3359 14.0175 21.0736C14.2955 21.8114 15.7068 26.2059 15.7068 26.2059C15.7068 26.2059 16.1025 26.9757 16.9044 26.4197C17.7063 25.8637 19.6095 23.9926 19.6095 23.9926L24.5279 27.5531C24.5279 27.5531 25.7575 28.1091 26.0676 26.8474C26.3776 25.5858 29.3608 11.3545 29.3608 11.3545C29.3608 11.3545 29.5104 10.1142 27.8852 10.328ZM25.5757 13.6212L16.9044 21.4265C16.9044 21.4265 16.5943 21.8221 16.5943 22.1643C16.5943 22.5064 16.4125 25.265 16.4125 25.265L14.7552 20.3787C14.7552 20.3787 14.4772 20.1648 15.1829 19.7371C15.8886 19.3094 24.87 13.6212 24.87 13.6212C24.87 13.6212 25.8216 13.1294 25.5757 13.6212Z" fill="white"/>
</svg>
