<svg width="21" height="18" viewBox="0 0 21 18" fill="none" xmlns="http://www.w3.org/2000/svg">
<path d="M19.153 0.0247841L0.527917 7.33824C0.527917 7.33824 -0.791052 8.18292 0.740654 8.69614C2.27236 9.20937 4.6231 9.91505 4.6231 9.91505C4.6231 9.91505 5.08049 10.0327 5.35704 10.7704C5.6336 11.5082 7.03766 15.9027 7.03766 15.9027C7.03766 15.9027 7.43123 16.6725 8.22899 16.1165C9.02675 15.5605 10.9201 13.6894 10.9201 13.6894L15.8131 17.2499C15.8131 17.2499 17.0363 17.8059 17.3448 16.5442C17.6532 15.2825 20.6209 1.05123 20.6209 1.05123C20.6209 1.05123 20.7698 -0.18906 19.153 0.0247841ZM16.8555 3.31797L8.22899 11.1233C8.22899 11.1233 7.92052 11.5189 7.92052 11.861C7.92052 12.2032 7.7397 14.9618 7.7397 14.9618L6.09099 10.0754C6.09099 10.0754 5.81443 9.86159 6.51646 9.4339C7.21849 9.00622 16.1534 3.31797 16.1534 3.31797C16.1534 3.31797 17.1001 2.82613 16.8555 3.31797Z" fill="black"/>
</svg>
