<svg width="50" height="50" viewBox="0 0 50 50" fill="none" xmlns="http://www.w3.org/2000/svg">
<g clip-path="url(#clip0_17_334)">
<path d="M45.814 0H4.18599C1.87413 0 0 1.87413 0 4.18599V45.814C0 48.1259 1.87413 50 4.18599 50H45.814C48.1259 50 50 48.1259 50 45.814V4.18599C50 1.87413 48.1259 0 45.814 0Z" fill="#898989"/>
<path d="M19.9073 40.1772V25.5917H14.5381V22.6187H28.9215V25.5917H23.5641V40.1772H19.9073Z" fill="white"/>
<path d="M30.8005 25.7344V22.6187H34.2671V25.7344H30.8005ZM30.8005 40.1772V27.4587H34.2671V40.1772H30.8005Z" fill="white"/>
<path d="M6.04715 12.7363V6.42759H3.61523V5.58325H9.46016V6.42759H7.0223V12.7363H6.04715Z" fill="white"/>
<path d="M10.4888 6.59407V5.58325H11.3926V6.59407H10.4888ZM10.4888 12.7363V7.55138H11.3926V12.7363H10.4888Z" fill="white"/>
<path d="M15.2634 11.9515L15.3942 12.7245C15.1386 12.778 14.9126 12.8018 14.7104 12.8018C14.3834 12.8018 14.1277 12.7542 13.9434 12.6532C13.765 12.5521 13.6342 12.4213 13.5629 12.2548C13.4915 12.0883 13.4499 11.7434 13.4499 11.2202V8.24122H12.7839V7.55743H13.4499V6.27309L14.3477 5.7439V7.55148H15.2575V8.23528H14.3477V11.2677C14.3477 11.5175 14.3656 11.678 14.3953 11.7494C14.425 11.8207 14.4785 11.8802 14.5499 11.9218C14.6213 11.9634 14.7223 11.9872 14.8591 11.9872C14.9602 11.9872 15.091 11.9753 15.2575 11.9515H15.2634Z" fill="white"/>
<path d="M20.1511 12.1001C19.8181 12.3736 19.4911 12.5698 19.1819 12.6887C18.8727 12.8076 18.5397 12.8612 18.1829 12.8612C17.5943 12.8612 17.1424 12.7244 16.8272 12.4449C16.5121 12.1655 16.3516 11.8087 16.3516 11.3806C16.3516 11.1249 16.411 10.893 16.5299 10.6849C16.6489 10.4768 16.8035 10.3044 16.9997 10.1795C17.19 10.0546 17.41 9.9595 17.6537 9.89409C17.8321 9.84652 18.0997 9.8049 18.4565 9.76328C19.1878 9.68004 19.7229 9.57895 20.0738 9.46003C20.0738 9.34111 20.0738 9.26382 20.0738 9.22814C20.0738 8.87138 19.9905 8.6157 19.8181 8.473C19.5862 8.27678 19.2413 8.17569 18.7894 8.17569C18.3613 8.17569 18.0462 8.24705 17.844 8.3957C17.6418 8.5384 17.4932 8.79408 17.3921 9.16273L16.5062 9.04381C16.5835 8.67516 16.7202 8.37786 16.9045 8.15191C17.0889 7.92596 17.3564 7.75353 17.7073 7.62866C18.0581 7.5038 18.4624 7.44434 18.9202 7.44434C19.3781 7.44434 19.7467 7.49785 20.0321 7.59893C20.3176 7.70001 20.5257 7.83677 20.6624 7.99137C20.7992 8.14596 20.8884 8.34813 20.9419 8.58597C20.9716 8.73462 20.9894 9.00814 20.9894 9.39463V10.566C20.9894 11.3806 21.0073 11.8979 21.0489 12.1179C21.0846 12.332 21.1619 12.5401 21.2749 12.7422H20.3294C20.2343 12.5579 20.1748 12.3438 20.1511 12.1001ZM20.0738 10.1379C19.7467 10.2687 19.2532 10.3757 18.5932 10.4709C18.2186 10.5244 17.957 10.5838 17.8024 10.6492C17.6478 10.7146 17.5289 10.8098 17.4456 10.9346C17.3624 11.0595 17.3208 11.2022 17.3208 11.3509C17.3208 11.5828 17.41 11.779 17.5943 11.9336C17.7786 12.0882 18.0462 12.1655 18.397 12.1655C18.7478 12.1655 19.057 12.0941 19.3305 11.9455C19.604 11.7968 19.8002 11.5947 19.9311 11.339C20.0262 11.1428 20.0797 10.8455 20.0797 10.459V10.1379H20.0738Z" fill="white"/>
<path d="M22.91 12.7362V7.55129H23.7246V8.2886C24.117 7.71778 24.6819 7.43237 25.4252 7.43237C25.7462 7.43237 26.0435 7.48589 26.3111 7.59886C26.5787 7.71184 26.7809 7.86049 26.9176 8.03887C27.0544 8.22319 27.1436 8.43725 27.1971 8.68698C27.2327 8.84752 27.2446 9.13293 27.2446 9.54321V12.7303H26.3408V9.57888C26.3408 9.22212 26.3052 8.95455 26.2338 8.77617C26.1625 8.59779 26.0376 8.45509 25.8592 8.354C25.6808 8.25292 25.4668 8.19346 25.2289 8.19346C24.8425 8.19346 24.5095 8.31238 24.23 8.55022C23.9506 8.78806 23.8078 9.23996 23.8078 9.89997V12.7303H22.9041L22.91 12.7362Z" fill="white"/>
<path d="M29.1592 6.59407V5.58325H30.063V6.59407H29.1592ZM29.1592 12.7363V7.55138H30.063V12.7363H29.1592Z" fill="white"/>
<path d="M35.4621 12.7362V11.9751C35.0459 12.5578 34.481 12.8551 33.7675 12.8551C33.4523 12.8551 33.155 12.7957 32.8875 12.6767C32.614 12.5578 32.4118 12.4151 32.281 12.2367C32.1502 12.0583 32.055 11.8443 32.0015 11.5827C31.9658 11.4102 31.948 11.1367 31.948 10.7621V7.55127H32.8518V10.4232C32.8518 10.881 32.8696 11.1902 32.9053 11.3508C32.9648 11.5827 33.0837 11.761 33.268 11.8978C33.4523 12.0286 33.6783 12.094 33.9518 12.094C34.2253 12.094 34.481 12.0286 34.7188 11.8919C34.9567 11.7551 35.1232 11.5708 35.2243 11.3389C35.3253 11.107 35.3729 10.7681 35.3729 10.3281V7.55127H36.2767V12.7362H35.468H35.4621Z" fill="white"/>
<path d="M38.2092 12.7363V7.55138H39.0179V8.27679C39.1844 8.02111 39.4103 7.81895 39.6838 7.66435C39.9633 7.50976 40.2784 7.43246 40.6352 7.43246C41.0336 7.43246 41.3547 7.50976 41.6103 7.6703C41.866 7.83084 42.0444 8.05085 42.1455 8.33625C42.5677 7.72976 43.1206 7.42651 43.7985 7.42651C44.3277 7.42651 44.7379 7.56922 45.0234 7.85463C45.3088 8.14004 45.4515 8.58004 45.4515 9.1687V12.7244H44.5536V9.46005C44.5536 9.10923 44.5239 8.85356 44.4644 8.69896C44.405 8.54436 44.2979 8.4195 44.1433 8.32436C43.9887 8.22923 43.8104 8.18166 43.6023 8.18166C43.2277 8.18166 42.9125 8.30058 42.6687 8.54436C42.419 8.78815 42.2941 9.17464 42.2941 9.70978V12.7185H41.3903V9.35302C41.3903 8.96058 41.319 8.66923 41.1703 8.47301C41.0217 8.27679 40.7838 8.18166 40.4449 8.18166C40.1892 8.18166 39.9514 8.24706 39.7374 8.37788C39.5233 8.50869 39.3628 8.69896 39.2676 8.94869C39.1725 9.19843 39.119 9.56113 39.119 10.0309V12.7185H38.2152L38.2092 12.7363Z" fill="white"/>
</g>
<defs>
<clipPath id="clip0_17_334">
<rect width="50" height="50" fill="white"/>
</clipPath>
</defs>
</svg>
