<svg width="21" height="18" viewBox="0 0 21 18" fill="none" xmlns="http://www.w3.org/2000/svg">
<path d="M20.5319 2.04074C19.8725 2.34012 19.1491 2.52189 18.4471 2.6395C18.7875 2.58604 19.2768 1.97659 19.4683 1.73067C19.7661 1.35644 20.0214 0.928755 20.1596 0.458299C20.1809 0.426223 20.1916 0.372762 20.1596 0.351377C20.1171 0.329993 20.0852 0.340686 20.0533 0.36207C19.2662 0.789757 18.4471 1.09983 17.5855 1.31367C17.5111 1.33506 17.4579 1.31367 17.4153 1.27091C17.3409 1.18537 17.2771 1.11052 17.2026 1.04637C16.8409 0.736296 16.4474 0.490376 16.0006 0.308609C15.4262 0.0733814 14.788 -0.0335407 14.1605 0.00922802C13.5542 0.0519967 12.9585 0.223071 12.416 0.501067C11.8735 0.789756 11.3949 1.17467 11.012 1.65582C10.6184 2.14766 10.3206 2.72504 10.1716 3.34519C10.0227 3.94395 10.044 4.53202 10.1291 5.13078C10.1397 5.22701 10.1291 5.2484 10.044 5.22701C6.65085 4.71379 3.83208 3.49488 1.54516 0.875293C1.44943 0.75768 1.39624 0.75768 1.31115 0.885986C0.311285 2.39358 0.800579 4.81002 2.04509 6.00754C2.21528 6.16792 2.38547 6.3283 2.5663 6.4673C2.50248 6.47799 1.6728 6.39246 0.928222 6.00754C0.83249 5.94339 0.779306 5.97546 0.768669 6.09308C0.758032 6.25346 0.768669 6.40315 0.80058 6.58492C0.992043 8.1139 2.04509 9.52526 3.48107 10.0706C3.65126 10.1454 3.84272 10.2096 4.02355 10.2416C3.6938 10.3165 3.35342 10.3699 2.41738 10.2951C2.30038 10.2737 2.25783 10.3272 2.30038 10.4448C3.01305 12.3801 4.53411 12.9575 5.68289 13.2889C5.83181 13.321 5.99136 13.321 6.14028 13.3531C6.12964 13.3638 6.11901 13.3638 6.10837 13.3851C5.72544 13.9625 4.41711 14.4009 3.80017 14.6147C2.6833 15.0104 1.4707 15.1814 0.300648 15.0638C0.109185 15.0317 0.0772744 15.0424 0.0240902 15.0638C-0.0290941 15.0959 0.0134533 15.1387 0.0772744 15.1921C0.311285 15.3525 0.555933 15.4915 0.811217 15.6305C1.5558 16.0261 2.34292 16.3469 3.15132 16.5714C7.36352 17.7369 12.0969 16.8815 15.2667 13.7273C17.7451 11.2467 18.6173 7.82521 18.6173 4.40371C18.6173 4.26471 18.7769 4.20056 18.8726 4.12572C19.5214 3.63388 20.0426 3.0565 20.5213 2.40428C20.6277 2.25458 20.6277 2.12628 20.6277 2.07282C20.6277 2.06213 20.6277 2.05143 20.6277 2.05143C20.617 1.98728 20.617 1.99797 20.5319 2.04074Z" fill="#fff"/>
</svg>
