<svg width="38" height="38" viewBox="0 0 38 38" fill="none" xmlns="http://www.w3.org/2000/svg">
<path d="M19 38C29.4934 38 38 29.4934 38 19C38 8.50659 29.4934 0 19 0C8.50659 0 0 8.50659 0 19C0 29.4934 8.50659 38 19 38Z" fill="#202326"/>
<path d="M29.4993 12.4885C28.8364 12.7879 28.1094 12.9696 27.4037 13.0873C27.7458 13.0338 28.2377 12.4243 28.4301 12.1784C28.7295 11.8042 28.9861 11.3765 29.1251 10.9061C29.1465 10.874 29.1572 10.8205 29.1251 10.7991C29.0823 10.7777 29.0503 10.7884 29.0182 10.8098C28.227 11.2375 27.4037 11.5476 26.5376 11.7614C26.4628 11.7828 26.4093 11.7614 26.3665 11.7187C26.2917 11.6331 26.2275 11.5583 26.1527 11.4941C25.7891 11.184 25.3935 10.9381 24.9445 10.7564C24.3671 10.5211 23.7256 10.4142 23.0947 10.457C22.4853 10.4998 21.8865 10.6708 21.3412 10.9488C20.7959 11.2375 20.3148 11.6224 19.9298 12.1036C19.5342 12.5954 19.2348 13.1728 19.0852 13.7929C18.9355 14.3917 18.9568 14.9798 19.0424 15.5785C19.0531 15.6748 19.0424 15.6961 18.9568 15.6748C15.546 15.1615 12.7126 13.9426 10.4138 11.323C10.3176 11.2054 10.2641 11.2054 10.1786 11.3337C9.1735 12.8413 9.66534 15.2578 10.9163 16.4553C11.0874 16.6157 11.2585 16.7761 11.4402 16.9151C11.3761 16.9257 10.5421 16.8402 9.79365 16.4553C9.69742 16.3911 9.64396 16.4232 9.63326 16.5408C9.62257 16.7012 9.63326 16.8509 9.66534 17.0327C9.8578 18.5617 10.9163 19.973 12.3598 20.5183C12.5308 20.5932 12.7233 20.6573 12.9051 20.6894C12.5736 20.7642 12.2315 20.8177 11.2906 20.7429C11.1729 20.7215 11.1302 20.7749 11.1729 20.8925C11.8893 22.8278 13.4183 23.4052 14.5731 23.7367C14.7227 23.7687 14.8831 23.7687 15.0328 23.8008C15.0221 23.8115 15.0114 23.8115 15.0007 23.8329C14.6158 24.4103 13.3007 24.8487 12.6805 25.0625C11.5579 25.4581 10.3389 25.6292 9.16281 25.5116C8.97035 25.4795 8.93827 25.4902 8.88481 25.5116C8.83135 25.5436 8.87412 25.5864 8.93827 25.6399C9.1735 25.8003 9.41942 25.9393 9.67603 26.0783C10.4245 26.4739 11.2157 26.7946 12.0283 27.0192C16.2624 28.1846 21.0204 27.3292 24.2067 24.175C26.698 21.6945 27.5747 18.273 27.5747 14.8515C27.5747 14.7125 27.7351 14.6483 27.8314 14.5735C28.4836 14.0816 29.0075 13.5043 29.4886 12.852C29.5956 12.7023 29.5956 12.574 29.5956 12.5206C29.5956 12.5099 29.5956 12.4992 29.5956 12.4992C29.5849 12.435 29.5849 12.4457 29.4993 12.4885Z" fill="white"/>
</svg>
