<svg width="21" height="20" viewBox="0 0 21 20" fill="none" xmlns="http://www.w3.org/2000/svg">
<path d="M10.5131 10.8333C9.44071 10.8333 8.39236 10.5157 7.50066 9.92046C6.60897 9.32527 5.91397 8.4793 5.50357 7.48954C5.09317 6.49977 4.98579 5.41066 5.19501 4.35993C5.40423 3.3092 5.92066 2.34404 6.67898 1.58651C7.43731 0.828973 8.40347 0.313085 9.4553 0.104082C10.5071 -0.104921 11.5974 0.00234696 12.5882 0.412322C13.579 0.822296 14.4258 1.51656 15.0216 2.40733C15.6174 3.2981 15.9355 4.34535 15.9355 5.41667C15.9355 6.85326 15.3642 8.23101 14.3473 9.24683C13.3304 10.2627 11.9512 10.8333 10.5131 10.8333ZM10.5131 0.833336C9.60569 0.833336 8.71863 1.10214 7.96412 1.60577C7.20961 2.10939 6.62154 2.82521 6.27427 3.6627C5.92701 4.5002 5.83615 5.42175 6.01318 6.31083C6.19022 7.19991 6.62719 8.01658 7.26885 8.65757C7.91051 9.29856 8.72803 9.73508 9.61804 9.91193C10.508 10.0888 11.4306 9.99802 12.2689 9.65111C13.1073 9.30421 13.8239 8.71676 14.328 7.96303C14.8322 7.20931 15.1013 6.32317 15.1013 5.41667C15.1013 4.20109 14.6179 3.0353 13.7574 2.17576C12.897 1.31622 11.73 0.833336 10.5131 0.833336Z" fill="#A1A1A1"/>
<path d="M20.0858 19.9994H0.920031C0.809409 19.9994 0.703317 19.9555 0.625096 19.8774C0.546874 19.7992 0.50293 19.6933 0.50293 19.5827C0.62047 17.0123 1.72538 14.586 3.58787 12.8085C5.45037 11.031 7.92708 10.0391 10.5029 10.0391C13.0788 10.0391 15.5555 11.031 17.418 12.8085C19.2805 14.586 20.3854 17.0123 20.5029 19.5827C20.5029 19.6933 20.459 19.7992 20.3808 19.8774C20.3025 19.9555 20.1965 19.9994 20.0858 19.9994ZM1.36633 19.1661H19.6395C19.4273 16.8921 18.373 14.7792 16.683 13.241C14.993 11.7029 12.7891 10.8504 10.5029 10.8504C8.21671 10.8504 6.01284 11.7029 4.32287 13.241C2.6329 14.7792 1.57856 16.8921 1.36633 19.1661Z" fill="#A1A1A1"/>
</svg>
