<svg width="50" height="50" viewBox="0 0 50 50" fill="none" xmlns="http://www.w3.org/2000/svg">
<g clip-path="url(#clip0_17_219)">
<path d="M4.18599 0H45.814C48.127 0 50 1.87299 50 4.18599V45.814C50 48.127 48.127 50 45.814 50H4.18599C1.87299 50 0 48.127 0 45.814V4.18599C0 1.87299 1.87299 0 4.18599 0Z" fill="#898989"/>
<path d="M23.023 40.1772L16.5537 22.6187H20.5197L25.0981 35.6107L29.5339 22.6187H33.4107L26.9295 40.1772H23.0289H23.023Z" fill="white"/>
<path d="M6.70702 12.7362L4.32861 6.77832H5.20862L6.8081 11.107C6.93891 11.4519 7.04594 11.7789 7.12918 12.0822C7.22432 11.7551 7.33135 11.434 7.46216 11.107L9.1211 6.77832H9.95354L7.5454 12.7362H6.71296H6.70702Z" fill="white"/>
<path d="M13.2712 12.207C12.9917 12.4389 12.7242 12.5995 12.4625 12.6946C12.2009 12.7897 11.9274 12.8373 11.6301 12.8373C11.1425 12.8373 10.7679 12.7184 10.5003 12.4924C10.2387 12.2605 10.1079 11.9632 10.1079 11.6065C10.1079 11.3924 10.1555 11.2022 10.2566 11.0297C10.3576 10.8573 10.4885 10.7146 10.649 10.6076C10.8095 10.5005 10.9939 10.4232 11.1901 10.3697C11.3387 10.334 11.5587 10.2984 11.862 10.2627C12.4685 10.1913 12.9204 10.1081 13.2058 10.013C13.2058 9.91187 13.2058 9.84647 13.2058 9.82268C13.2058 9.52538 13.1344 9.31727 12.9917 9.19241C12.8015 9.02592 12.5101 8.94267 12.1355 8.94267C11.7787 8.94267 11.5171 9.00213 11.3506 9.12105C11.1841 9.23998 11.0533 9.45403 10.976 9.76322L10.2387 9.66809C10.3041 9.36484 10.4171 9.11511 10.5717 8.92484C10.7263 8.73456 10.9463 8.59186 11.2377 8.49078C11.529 8.3897 11.862 8.33618 12.2485 8.33618C12.635 8.33618 12.9382 8.3778 13.1761 8.46699C13.4139 8.55618 13.5863 8.66321 13.6993 8.79402C13.8123 8.92484 13.8896 9.09132 13.9312 9.29349C13.955 9.41836 13.9669 9.6443 13.9669 9.96539V10.9405C13.9669 11.6184 13.9847 12.0524 14.0144 12.2308C14.0442 12.4092 14.1096 12.5816 14.2047 12.7481H13.4139C13.3366 12.5995 13.2831 12.4211 13.2652 12.213L13.2712 12.207ZM13.2058 10.5719C12.9323 10.6789 12.522 10.774 11.975 10.8454C11.6658 10.887 11.4458 10.9405 11.315 10.994C11.1841 11.0476 11.089 11.1249 11.0177 11.2319C10.9463 11.3389 10.9106 11.4519 10.9106 11.5768C10.9106 11.773 10.9879 11.9335 11.1366 12.0643C11.2852 12.1951 11.5112 12.2605 11.8025 12.2605C12.0939 12.2605 12.3496 12.2011 12.5755 12.0762C12.8015 11.9514 12.9679 11.7849 13.075 11.5708C13.1582 11.4043 13.1939 11.1605 13.1939 10.8395V10.5719H13.2058Z" fill="white"/>
<path d="M15.5724 12.7362V8.41944H16.2503V9.03188C16.5773 8.5562 17.047 8.31836 17.6654 8.31836C17.933 8.31836 18.1827 8.36593 18.4027 8.46106C18.6287 8.5562 18.7952 8.67512 18.9082 8.82972C19.0211 8.97837 19.0984 9.16269 19.14 9.3708C19.1698 9.50756 19.1817 9.7454 19.1817 10.0843V12.7362H18.4265V10.1081C18.4265 9.81081 18.3968 9.58486 18.3373 9.44216C18.2779 9.29351 18.1768 9.17458 18.0222 9.09134C17.8735 9.00215 17.6952 8.96053 17.4989 8.96053C17.1779 8.96053 16.8984 9.06161 16.6665 9.25783C16.4346 9.45405 16.3157 9.82865 16.3157 10.3816V12.7362H15.5605H15.5724Z" fill="white"/>
<path d="M23.6769 12.207C23.3975 12.4389 23.1299 12.5995 22.8683 12.6946C22.6067 12.7897 22.3332 12.8373 22.0359 12.8373C21.5483 12.8373 21.1737 12.7184 20.9061 12.4924C20.6445 12.2605 20.5137 11.9632 20.5137 11.6065C20.5137 11.3924 20.5612 11.2022 20.6623 11.0297C20.7634 10.8573 20.8942 10.7146 21.0548 10.6076C21.2153 10.5005 21.3996 10.4232 21.5958 10.3697C21.7445 10.334 21.9645 10.2984 22.2677 10.2627C22.8742 10.1913 23.3261 10.1081 23.6115 10.013C23.6115 9.91187 23.6115 9.84647 23.6115 9.82268C23.6115 9.52538 23.5402 9.31727 23.3975 9.19241C23.2072 9.02592 22.9159 8.94267 22.5413 8.94267C22.1845 8.94267 21.9229 9.00213 21.7564 9.12105C21.5899 9.23998 21.4591 9.45403 21.3818 9.76322L20.6445 9.66809C20.7099 9.36484 20.8229 9.11511 20.9775 8.92484C21.1321 8.73456 21.3521 8.59186 21.6434 8.49078C21.9348 8.3897 22.2677 8.33618 22.6542 8.33618C23.0407 8.33618 23.344 8.3778 23.5818 8.46699C23.8197 8.55618 23.9921 8.66321 24.1051 8.79402C24.218 8.92484 24.2953 9.09132 24.337 9.29349C24.3607 9.41836 24.3726 9.6443 24.3726 9.96539V10.9405C24.3726 11.6184 24.3905 12.0524 24.4202 12.2308C24.4499 12.4092 24.5153 12.5816 24.6105 12.7481H23.8197C23.7424 12.5995 23.6888 12.4211 23.671 12.213L23.6769 12.207ZM23.6115 10.5719C23.338 10.6789 22.9278 10.774 22.3807 10.8454C22.0715 10.887 21.8515 10.9405 21.7207 10.994C21.5899 11.0476 21.4948 11.1249 21.4234 11.2319C21.3521 11.3389 21.3164 11.4519 21.3164 11.5768C21.3164 11.773 21.3937 11.9335 21.5423 12.0643C21.691 12.1951 21.9169 12.2605 22.2083 12.2605C22.4996 12.2605 22.7553 12.2011 22.9813 12.0762C23.2072 11.9514 23.3737 11.7849 23.4807 11.5708C23.564 11.4043 23.5997 11.1605 23.5997 10.8395V10.5719H23.6115Z" fill="white"/>
<path d="M28.8619 12.7363V12.1893C28.5825 12.6174 28.1662 12.8314 27.6192 12.8314C27.2624 12.8314 26.9354 12.7363 26.6381 12.546C26.3408 12.3558 26.1089 12.0941 25.9484 11.7493C25.7878 11.4103 25.7046 11.0179 25.7046 10.5779C25.7046 10.1379 25.7759 9.75736 25.9246 9.40654C26.0732 9.05573 26.2932 8.78816 26.5905 8.59789C26.8878 8.40761 27.2149 8.31842 27.5835 8.31842C27.8511 8.31842 28.0889 8.37194 28.303 8.48491C28.5111 8.59194 28.6835 8.73464 28.8144 8.91302V6.77246H29.5636V12.7304H28.8619V12.7363ZM26.4776 10.5839C26.4776 11.1368 26.5965 11.5471 26.8403 11.8206C27.0841 12.0941 27.3635 12.2309 27.6906 12.2309C28.0176 12.2309 28.303 12.1001 28.5289 11.8385C28.7608 11.5768 28.8738 11.1785 28.8738 10.6433C28.8738 10.0547 28.7549 9.6206 28.523 9.34114C28.2911 9.06167 27.9997 8.92492 27.6549 8.92492C27.31 8.92492 27.0365 9.05573 26.8165 9.3233C26.5965 9.59087 26.4776 10.0071 26.4776 10.5779V10.5839Z" fill="white"/>
<path d="M31.1807 7.62265V6.77832H31.9358V7.62265H31.1807ZM31.1807 12.7422V8.42537H31.9358V12.7422H31.1807Z" fill="white"/>
<path d="M36.431 12.7363V12.1001C36.0861 12.5877 35.6164 12.8315 35.0158 12.8315C34.7542 12.8315 34.5104 12.7839 34.2785 12.6828C34.0526 12.5877 33.8801 12.4628 33.7731 12.3142C33.6601 12.1655 33.5828 11.9871 33.5412 11.7731C33.5115 11.6304 33.4937 11.4044 33.4937 11.0893V8.41357H34.2488V10.8098C34.2488 11.1904 34.2666 11.452 34.2964 11.5828C34.3439 11.7731 34.445 11.9277 34.5996 12.0347C34.7542 12.1417 34.9445 12.2012 35.1704 12.2012C35.3964 12.2012 35.6104 12.1477 35.8066 12.0347C36.0029 11.9217 36.1456 11.7671 36.2288 11.5769C36.3121 11.3806 36.3537 11.1012 36.3537 10.7325V8.41952H37.1088V12.7363H36.4369H36.431Z" fill="white"/>
<path d="M38.7144 12.7364V8.4196H39.3863V9.02609C39.529 8.81204 39.7134 8.64555 39.9453 8.51474C40.1772 8.38392 40.4388 8.32446 40.7361 8.32446C41.0631 8.32446 41.3366 8.38987 41.5447 8.52068C41.7588 8.65149 41.9075 8.84177 41.9907 9.07961C42.3415 8.5742 42.7994 8.32446 43.3642 8.32446C43.8042 8.32446 44.1432 8.44338 44.381 8.68122C44.6188 8.91906 44.7378 9.28177 44.7378 9.77529V12.7364H43.9886V10.0191C43.9886 9.72772 43.9648 9.51366 43.9172 9.3888C43.8696 9.25799 43.7804 9.1569 43.6496 9.07961C43.5188 9.00231 43.3702 8.96069 43.1977 8.96069C42.8826 8.96069 42.6269 9.06177 42.4188 9.26393C42.2107 9.4661 42.1096 9.78718 42.1096 10.2331V12.7423H41.3545V9.93583C41.3545 9.6088 41.295 9.36501 41.1701 9.20447C41.0453 9.04393 40.8491 8.96069 40.5696 8.96069C40.3555 8.96069 40.1593 9.0142 39.9809 9.12123C39.8026 9.22826 39.6718 9.3888 39.5885 9.59691C39.5053 9.80502 39.4636 10.1083 39.4636 10.5007V12.7423H38.7085L38.7144 12.7364Z" fill="white"/>
</g>
<defs>
<clipPath id="clip0_17_219">
<rect width="50" height="50" fill="white"/>
</clipPath>
</defs>
</svg>
