<svg width="36" height="36" viewBox="0 0 36 36" fill="none" xmlns="http://www.w3.org/2000/svg">
<path d="M0.743527 15.3021C0.277435 15.8136 0 16.4531 0 17.1614V32.9701C0 34.6031 1.49815 35.9311 3.34032 35.9311H3.79531L3.873 36L3.95068 35.9311H32.0493L32.127 36L32.2047 35.9311H32.6597C34.5019 35.9311 36 34.6031 36 32.9701V17.1614C36 16.4629 35.7226 15.8136 35.2565 15.3021C35.2565 15.0955 35.1788 14.8889 35.0012 14.7315L18.6326 0.221342C18.2996 -0.0737806 17.7115 -0.0737806 17.3785 0.221342L0.998767 14.7315C0.821209 14.8889 0.743527 15.0955 0.743527 15.3021ZM5.43773 34.6031L13.8052 27.1857L17.3785 30.3533C17.545 30.5009 17.767 30.5796 18.0111 30.5796C18.2441 30.5796 18.4772 30.5009 18.6436 30.3533L22.217 27.1857L30.5845 34.6031H5.43773ZM8.1233 20.3782V14.8594H28.1874V20.1126L18.0111 29.1335L8.1233 20.3782ZM34.5129 17.1614V32.9701C34.5129 33.7669 33.8804 34.426 33.037 34.5834L23.4599 26.0937L34.3354 16.4531C34.4464 16.6597 34.5129 16.8958 34.5129 17.1614ZM18 1.8937L33.1147 15.2923L29.2417 18.7255V14.3872C29.2417 14.1314 29.0086 13.915 28.709 13.915H7.59063C7.291 13.915 7.05795 14.1216 7.05795 14.3872V18.9911L2.88533 15.2923L18 1.8937ZM1.48705 17.1614C1.48705 16.9056 1.56474 16.6597 1.67571 16.4432L12.5512 26.0839L2.96301 34.5736C2.11961 34.4162 1.48705 33.7571 1.48705 32.9602V17.1614Z" fill="#fff"/>
</svg>
