<svg width="38" height="38" viewBox="0 0 38 38" fill="none" xmlns="http://www.w3.org/2000/svg">
<path d="M19 38C29.4934 38 38 29.4934 38 19C38 8.50659 29.4934 0 19 0C8.50659 0 0 8.50659 0 19C0 29.4934 8.50659 38 19 38Z" fill="#202326"/>
<path d="M29.23 16.6573C29.23 14.0832 27.1468 12 24.5727 12H12.6573C10.0832 12 8 14.0832 8 16.6573V22.2037C8 24.7778 10.0832 26.861 12.6573 26.861H24.5727C27.1468 26.861 29.23 24.7778 29.23 22.2037V16.6573ZM22.2241 19.8418L16.8768 22.4823C16.6645 22.6017 15.9612 22.4425 15.9612 22.2037V16.79C15.9612 16.5512 16.6778 16.392 16.8901 16.5114L21.9985 19.2978C22.2108 19.4172 22.4364 19.7357 22.2241 19.8418Z" fill="white"/>
</svg>
