<svg width="50" height="50" viewBox="0 0 50 50" fill="none" xmlns="http://www.w3.org/2000/svg">
<g clip-path="url(#clip0_17_348)">
<path d="M4.18599 0H45.814C48.127 0 50 1.87299 50 4.18599V45.814C50 48.127 48.127 50 45.814 50H4.18599C1.87299 50 0 48.127 0 45.814V4.18599C0 1.87299 1.87299 0 4.18599 0Z" fill="#898989"/>
<path d="M12.6294 40.1772V36.9783L22.1371 25.5917H13.7056V22.6187H26.9533V25.3717L17.0413 37.2161H27.3398V40.1713H12.6353L12.6294 40.1772Z" fill="white"/>
<path d="M32.941 40.1773H29.4685V27.4587H32.6912V29.2663C33.2442 28.4101 33.7377 27.8512 34.1777 27.5777C34.6177 27.3042 35.1172 27.1733 35.6761 27.1733C36.467 27.1733 37.228 27.3874 37.9594 27.8096L36.8832 30.7409C36.3005 30.3723 35.7534 30.188 35.254 30.188C34.7545 30.188 34.3561 30.3188 34.0172 30.5745C33.6783 30.8361 33.4167 31.3058 33.2204 31.9837C33.0302 32.6615 32.9291 34.0826 32.9291 36.247V40.1773H32.941Z" fill="white"/>
<path d="M4.41187 12.7365V12.0051L7.5573 8.18777C7.78325 7.91425 7.99136 7.68236 8.19353 7.48019H4.76268V6.77856H9.16273V7.48019L5.71404 11.6127L5.33944 12.0289H9.26381V12.7305H4.41187V12.7365Z" fill="white"/>
<path d="M10.4827 7.6229V6.77856H11.2378V7.6229H10.4827ZM10.4827 12.7424V8.42561H11.2378V12.7424H10.4827Z" fill="white"/>
<path d="M12.8077 12.7365V8.41969H13.4855V9.07375C13.658 8.7705 13.8185 8.56834 13.9672 8.46725C14.1158 8.36617 14.2764 8.3186 14.4488 8.3186C14.7045 8.3186 14.9602 8.3959 15.2218 8.55644L14.9602 9.23429C14.7758 9.12726 14.5915 9.07375 14.4072 9.07375C14.2407 9.07375 14.092 9.12132 13.9612 9.21645C13.8304 9.31159 13.7353 9.44835 13.6818 9.61483C13.5985 9.87646 13.5569 10.1619 13.5569 10.4711V12.7305H12.8018L12.8077 12.7365Z" fill="white"/>
<path d="M19.0034 11.1549L19.7467 11.2501C19.6634 11.7436 19.4553 12.136 19.1223 12.4155C18.7894 12.6949 18.3791 12.8376 17.8915 12.8376C17.2791 12.8376 16.7915 12.6474 16.4229 12.2609C16.0542 11.8744 15.8699 11.3214 15.8699 10.6019C15.8699 10.1382 15.9472 9.72788 16.1077 9.37706C16.2683 9.02625 16.5061 8.76462 16.8331 8.59219C17.1602 8.41976 17.511 8.33057 17.8975 8.33057C18.3791 8.33057 18.7775 8.44949 19.0867 8.68733C19.3959 8.92517 19.5921 9.26409 19.6753 9.69815L18.944 9.80518C18.8726 9.51382 18.7477 9.29977 18.5753 9.15112C18.3969 9.00247 18.1829 8.93111 17.9331 8.93111C17.5526 8.93111 17.2434 9.06193 17.0056 9.3295C16.7677 9.59707 16.6488 10.0133 16.6488 10.5841C16.6488 11.1549 16.7618 11.583 16.9937 11.8506C17.2256 12.1122 17.5229 12.243 17.8915 12.243C18.1888 12.243 18.4326 12.1539 18.6348 11.9814C18.8369 11.809 18.9559 11.5355 19.0094 11.1668L19.0034 11.1549Z" fill="white"/>
<path d="M20.5374 10.5781C20.5374 9.78132 20.7633 9.18672 21.2271 8.80023C21.6076 8.47915 22.0774 8.3186 22.6244 8.3186C23.2368 8.3186 23.7363 8.51482 24.1228 8.90131C24.5093 9.2878 24.7055 9.82889 24.7055 10.5127C24.7055 11.0657 24.6223 11.5057 24.4498 11.8267C24.2774 12.1478 24.0277 12.3916 23.7006 12.57C23.3736 12.7484 23.0109 12.8316 22.6244 12.8316C22.0001 12.8316 21.5006 12.6354 21.1141 12.2489C20.7276 11.8624 20.5374 11.3035 20.5374 10.5721V10.5781ZM21.3103 10.5781C21.3103 11.1311 21.4352 11.5473 21.6849 11.8208C21.9347 12.0943 22.2439 12.2311 22.6244 12.2311C23.0049 12.2311 23.3082 12.0943 23.5579 11.8149C23.8077 11.5354 23.9325 11.1192 23.9325 10.5484C23.9325 10.0132 23.8077 9.60889 23.5579 9.33537C23.3082 9.06185 22.999 8.9251 22.6244 8.9251C22.2498 8.9251 21.9347 9.06185 21.6849 9.33537C21.4352 9.60889 21.3103 10.0251 21.3103 10.5721V10.5781Z" fill="white"/>
<path d="M26.0197 12.7365V8.41969H26.6975V9.03212C27.0246 8.55644 27.4943 8.3186 28.1127 8.3186C28.3803 8.3186 28.63 8.36617 28.85 8.46131C29.076 8.55644 29.2424 8.67536 29.3554 8.82996C29.4684 8.98456 29.5457 9.16294 29.5873 9.37105C29.617 9.50781 29.6289 9.74565 29.6289 10.0846V12.7365H28.8738V10.1084C28.8738 9.81105 28.8441 9.5851 28.7846 9.4424C28.7251 9.29375 28.6241 9.17483 28.4695 9.09158C28.3208 9.00239 28.1484 8.96077 27.9462 8.96077C27.6251 8.96077 27.3457 9.06185 27.1138 9.25807C26.8819 9.45429 26.763 9.82889 26.763 10.3819V12.7365H26.0078H26.0197Z" fill="white"/>
<path d="M31.2283 7.6229V6.77856H31.9834V7.6229H31.2283ZM31.2283 12.7424V8.42561H31.9834V12.7424H31.2283Z" fill="white"/>
<path d="M36.4786 12.7366V12.1003C36.1337 12.5879 35.658 12.8317 35.0634 12.8317C34.8018 12.8317 34.558 12.7841 34.3261 12.6831C34.1002 12.5879 33.9278 12.4631 33.8207 12.3144C33.7077 12.1658 33.6305 11.9874 33.5888 11.7733C33.5591 11.6306 33.5413 11.4047 33.5413 11.0895V8.41382H34.2964V10.8101C34.2964 11.1906 34.3142 11.4522 34.344 11.583C34.3915 11.7733 34.4926 11.9279 34.6472 12.0349C34.8018 12.142 34.9921 12.2014 35.218 12.2014C35.444 12.2014 35.658 12.1479 35.8543 12.0349C36.0505 11.922 36.1932 11.7674 36.2764 11.5771C36.3597 11.3809 36.4013 11.1014 36.4013 10.7328V8.41976H37.1564V12.7366H36.4845H36.4786Z" fill="white"/>
<path d="M38.7621 12.7364V8.4196H39.4339V9.02609C39.5767 8.81204 39.761 8.64555 39.9929 8.51474C40.2248 8.38392 40.4864 8.32446 40.7837 8.32446C41.1107 8.32446 41.3842 8.38987 41.5923 8.52068C41.8064 8.65149 41.9551 8.84177 42.0383 9.07961C42.3891 8.5742 42.847 8.32446 43.4118 8.32446C43.8518 8.32446 44.1908 8.44338 44.4286 8.68122C44.6664 8.91906 44.7854 9.28177 44.7854 9.77529V12.7364H44.0362V10.0191C44.0362 9.72772 44.0124 9.51366 43.9648 9.3888C43.9172 9.25799 43.828 9.1569 43.6972 9.07961C43.5664 9.00231 43.4178 8.96069 43.2453 8.96069C42.9302 8.96069 42.6745 9.06177 42.4664 9.26393C42.2583 9.4661 42.1572 9.78718 42.1572 10.2331V12.7423H41.4021V9.93583C41.4021 9.6088 41.3426 9.36501 41.2178 9.20447C41.0929 9.04393 40.8967 8.96069 40.6172 8.96069C40.4031 8.96069 40.2069 9.0142 40.0285 9.12123C39.8502 9.22826 39.7194 9.3888 39.6361 9.59691C39.5529 9.80502 39.5112 10.1083 39.5112 10.5007V12.7423H38.7561L38.7621 12.7364Z" fill="white"/>
</g>
<defs>
<clipPath id="clip0_17_348">
<rect width="50" height="50" fill="white"/>
</clipPath>
</defs>
</svg>
